<?xml version="1.0" encoding="UTF-8"?>
<svg id="Réteg_1" data-name="Réteg 1" xmlns="http://www.w3.org/2000/svg" viewBox="0 0 825.35 832.93">
  <defs>
    <style>
      .cls-1 {
        fill: #c39333;
      }

      .cls-2 {
        fill: #f9df99;
      }

      .cls-3 {
        fill: #20415d;
      }

      .cls-4 {
        fill: #90753a;
      }

      .cls-5 {
        fill: #f7ca50;
      }

      .cls-6 {
        fill: #5e6141;
      }

      .cls-7 {
        fill: #f5c346;
      }

      .cls-8 {
        fill: #fbbe3b;
      }
    </style>
  </defs>
  <path class="cls-1" d="M746.69,198.56c-1.02,1.76-2.32,2.77-4.31,2.91l-17.3-25.61c-47.71-65.84-116.34-113.3-193.79-135.91-22.57-5.87-45.41-11.88-69.17-12.88l-10.39-1.27c-70.72-5.3-141.65,8.82-205.03,40.91-58.08,29.41-107.12,73.08-144.31,126.35-47.32,67.8-74.24,144.65-73.09,227.82.23,16.36.55,31.65,2.88,47.14,7.64,50.83,26.17,99.61,54.67,142.39-4,.24-3.06,4.9-6.11,5.45l-8.26-13.73-9.55-18.51-6.35-12.91c-.48-.98-1.18-1.9-2.47-1.81-14.98-33.98-26.39-70.17-29.59-107.84l-1.19-14.05c-.62-7.32-.14-13.85-.02-21.05l.68-39.76c4.29-45.63,15.84-89.62,35.61-131.02,17.11-35.83,37.62-69.29,64.13-98.55l7.19-7.94,26.03-25.88C222.29,62.57,305.73,26.41,394.38,19.82l18.36-.84c6.95-.32,13.9-.33,20.85,0l19.21.89c81.22,5.93,158.59,36.62,220.06,90.56l36.33,36.38c15.39,15.42,26.66,33.69,37.51,51.74Z"/>
  <path class="cls-3" d="M70.49,602.91l1.99-.78,8.26,13.73c16.9,28.08,37.36,53.91,60.5,77.08l4.04,3.64,23.91,21.53c1.52,1.36,2.9,3.13,5.22,2.48.05,1.69.94,2.46,2.52,3.55l7.27,5,7.1,5.42c2.79,3.34,6.64,6.29,11,7.12-.03,2.56,2.78,2.4,3.86,3.28,3.45,2.81,7.21,5.19,11.28,6.9,1.02.43,2.76,1.48,3.64,2.18,3.11,2.49,6.45,4.91,10.52,5.57.63,1.46,2.44,1.76,3.5,2.33l9.45,5.07,5.61,2.87,8.48,4.12,5.37,1.84,10.66,4.8,3.69,1.14c4.2,1.3,8.15,4.05,12.46,5.27l4.1,1.16,11.27,3.76,5.05,1.05,10.89,2.86,4.72,1.27c3.31.89,6.33,2.51,10.8,2.47l-1.28-18.03c.92.65,2.76.5,3.86.59l1.07,18.25,9.87,2.34,4.45.84,9.48,1.42,4.63.69,10.69.72-.09-18.06c.72.35,2.07,0,2.85,0l1.39,18.54,13.43.91,4.33.31,12.66-.04,4.31.09c4.31.09,8.63,0,12.94-.24l4.73-.26,30.09-2.7,4.16-1.06,26.13-4.17c1.19-.19,2.08-.67,2.67-1.22,1.42-1.33,3.16-1.21,4.97-1.19,4.13.04,8.83-.91,11.98-3.48l3.52-.33,12.42-3.58,3.26-1.16c4.86-1.73,10.18-2.54,14.74-5.11l3.92-1.05,11.63-4.89,3.83-1.76c3.71-.88,8.22-3.05,11.72-5.14.77-.46,2.21-.97,3.07-1.2,4.39-1.17,9.21-3.29,11.89-6.96l3.07-1.01c3.54-1.17,6.66-3.27,9.87-4.94l3.96-2.06c15.1-7.86,29.69-17.05,42.41-28.41l2.67-2.39c4.36-2.15,7.43-6.07,11.25-8.97l2.77-2.11,11.2-9.65,2.81-2.35,9.31-8.72c1.18-1.11,1.63-2.17,1.52-3.44,1.63.32,2.35-.78,3.27-1.77,11.77-12.69,22.54-26.34,32.9-40.21l2.05-2.75c13.95-18.68,25.42-39.06,34.99-60.77,1.26-2.87,2.93-5.06,3.28-7.77.14-1.05.63-2.36.43-3.46,3.98-4.12,5.14-10,7.14-15.16l1.08-2.79c5.06-13.01,8.23-26.64,12.32-39.99l2.24-7.33,7.86-41.8c.61,7.2-.54,14.27-2.04,21.67l-2.52,12.48-4.4,21.65-15.21,49.74c-4.91,16.06-13.13,30.02-20.9,45.03-12.9,24.93-28.84,47.44-46.59,69.03l-11.92,13.08c-4.54,4.98-8.69,8.87-13.63,13.54-65.9,62.35-149.84,97.98-240.19,105.12l-18.67.64c-6.06.21-11.24.21-17.31,0l-18.61-.64c-29.24-2.29-56.98-7.92-85.19-16.61-49.33-15.2-94.36-39.77-134.35-72.3l-9.61-8.54c-1.31-1.17-2.4-2.4-4.74-1.52l-30.61-30.9c-1.63-1.65-3.88-4.14-4.85-5.94-2.49-4.64-7.44-6.1-10.15-10.01l-26.99-38.89-16.41-28.55Z"/>
  <path class="cls-6" d="M806.95,380.3c-.63-.13-2.88.01-2.92.92l-.44,9.77c-.05,1.16-.31,2.18-.83,2.64-.63.56-1.62.65-2.5.58l-.36-13.15c.75-.35.78-1.1.83-1.61.08-.75-.29-1.67-1.22-1.53-3.59-54.06-19.2-106.45-44.08-154.46,1.08,0,2-.35,2.28-.9.67-1.33-1.08-3.96-1-7.34l8.53,12.35c2.05,3.01,1.54,5.73,2.63,8.53,22.5,44.69,32.16,84.81,38.57,134.14l.51,10.06Z"/>
  <path class="cls-4" d="M806.95,380.3l.23,7.87.83,8.66.82,11.85c-2.88,2.7-2.93,7.96.05,10.57-.11,4.59-.69,8.73-.84,13.82l-.66,22.62-2,9.14-7.86,41.8c-.71.54-2.34.58-2.75-.77l-2.35-7.72c-.49-1.61-2.64-1.72-3.97-1.37l8.05-42.11c3.88-20.31,4.3-40.35,3.75-60.45.87.07,1.87-.02,2.5-.58.52-.46.77-1.48.83-2.64l.44-9.77c.04-.91,2.29-1.05,2.92-.92Z"/>
  <path class="cls-4" d="M756.7,215.21c-.08,3.38,1.67,6.01,1,7.34-.28.56-1.2.91-2.28.9l-13.04-21.99c1.99-.15,3.28-1.15,4.31-2.91l10.01,16.66Z"/>
  <polygon class="cls-6" points="62.94 583.62 72.49 602.13 70.49 602.91 60.73 583.71 62.94 583.62"/>
  <path class="cls-6" d="M808.88,419.25c-2.98-2.61-2.93-7.87-.05-10.57.27,3.92.14,6.83.05,10.57Z"/>
  <path class="cls-5" d="M531.3,39.95c77.45,22.61,146.07,70.06,193.79,135.91l17.3,25.61,13.04,21.99c24.88,48.01,40.49,100.4,44.08,154.46-.41.36-.79,1.03-.72,1.57.09.65.75,1.21,1.11,1.56l.36,13.15c.55,20.1.13,40.14-3.75,60.45l-8.05,42.11-.96,3.21-11.21,34.9-1.37,5.28-6.39,13.54-1.12,3.67-7.87,15.67-.12,1.56c-1.41.24-2.13,1.37-2.95,2.88l-15.92,29.08c.34.39.16.98.22,1.29-1.75.06-2.75,1.4-3.76,3.1l-6.37,10.74-1.98,2.72-29.12,34.9c-1.73,1.24-2.51,2.86-2.52,4.6l-1.34.75-12.87,12.92-1.06,1.04-13.11,11.76-.03,1.23c-1.89.08-3.52,1.1-5.14,2.65l-7.59,7.21c-.57.54-1.57,1.63-2.21,2.07l-8.82,5.98c-1.72,1.17-2.79,2.27-2.55,4.01-.91-.15-1.96-.27-2.45.07l-12.5,8.48c-.97.66-1.34,1.73-1.22,2.47l-1.41-.04-11.19,6.65c-1.52.9-1.96,2.17-1.7,3.44-.56-.2-1.54-.39-2.15-.25-3.98.89-8.77,3.28-11.1,6.35-.87.31-2.16,1.1-2.89,1.67-3.86.4-8.76,3.29-11.8,5.71-.63.5-2.05,1.15-2.81,1.49l-11.13,4.91-3.97,1.87-12.02,4.99-4.14,1.81c-4.45,1.95-9.47,2.77-13.86,5.12l-3.33.7-12.67,4.35-3.93.94-11.97,3.05-3.99,1.01-29.06,6-4.78.33-30.07,3.65-4.01.19-13.71.8h-4.25s-12.98-.64-12.98-.64l-4.25-.05-13.75-.18c-.78-.01-2.13.35-2.85,0-3.75-1.84-7.97-1.78-12.09-2.04l-3.08-.19-10.7-1.68c-.93-.15-2.35.12-3.22-.29-3.45-1.6-7.22-1.68-11.01-2-1.1-.09-2.95.06-3.86-.59-3.04-2.15-6.97-1.18-10.16-2.4l-4.92-1.88-10.86-2.12-4.11-1.85-11.81-3.4-4.34-1.64-12.89-4.79-4.03-1.14c-2.62-2.32-6.96-2.6-10-4.06l-4.02-1.93-10.77-4.83-3.08-1.31c-2.23-2.51-7.2-3.17-10-4.92l-4.86-3.03-9.69-5.39c-1.12-.62-2.8-1.47-3.83-2.11-3.49-2.16-7.76-5.26-11.61-6.38-.68-1.02-1.78-2.29-2.86-2.99l-12.74-8.23-5.09-3.88-11.93-9.48-5.05-3.6-24.05-20.7-1.97-2.19c-20.45-20.51-38.81-42.84-54.87-66.94-28.51-42.79-47.03-91.56-54.67-142.39.99-.22,1.47-.79,1.49-2.07l.38-25.9c1.47-10.85,2.55-21.05,2.85-32.17.7-26.01,4.55-51.08,10.16-75.87,4.62.94,8.98,2.07,13.83,1.98-14.98,58.25-14.16,120.12,4.9,177.26-4.74,1.19-9.07,2.58-13.88,4.33l5.61,16.47,13.65-4.64c12.78,38.3,34.45,72.33,59.89,103.6l11.31,12.28c-.07,1.95,1.07,2.99,2.13,4.37,13.71,17.87,38.71,39.54,57.13,53.71,5.16,3.97,10.13,7.09,15.52,10.53l17.1,10.91c10.07,6.42,20,11.01,31.14,15.98,112.88,50.3,233.41,39.88,339.22-22.29,21.94-12.89,40.41-28.06,59.12-44.95,25.45-22.97,46.44-48.36,64.23-77.75,48.94-80.85,65.3-173.05,43.44-265.47l-10.96-37.12,11.72-3.49c-7.68-20.57-15.14-40.61-25.86-60.16-25.72-46.88-57.2-86.17-99.21-119.35l-24.17-17.32-6.91,10.98-7.51-5.35,4.26-9.31c.29-.63.22-1.82.09-2.26-.12-.4-.67-.85-1.41-.78-2.58.23-2.95,8.26-8.54,9.42-.88-1.27-3.6-1.89-5.26-2.84-.26-1.79-.06-3.59.84-4.42,1.43-1.34,2.95,1.12,3.76,1.74,2.17,1.06,3.17-1.48,3.55-2.6,2.69-7.95-10.46-10.39-18.41-14.65-15.82-8.47-31.71-15.48-48.95-20.82-8.78-2.72-16.92-6.26-26.11-6.68l-1.17,11.82-9.64-1.88.4-13.59-13.81-2.42c3.48-4.61,11.97.19,17.1.86,6.34.82,12.33.7,18.6,2.72,2.55.82,5.55.98,7.5-.88Z"/>
  <path class="cls-2" d="M531.3,39.95c-1.95,1.86-4.95,1.7-7.5.88-6.27-2.02-12.26-1.89-18.6-2.72-5.13-.67-13.62-5.47-17.1-.86-115.55-20.21-234.94,14.02-321.71,94.02-40.02,36.9-72.13,81.25-94.97,130.59-10.64,23-18.94,46.11-24.37,70.14-5.61,24.8-9.46,49.87-10.16,75.87-.3,11.12-1.38,21.32-2.85,32.17l-.38,25.9c-.02,1.28-.5,1.85-1.49,2.07-2.33-15.49-2.65-30.77-2.88-47.14-1.15-83.17,25.77-160.02,73.09-227.82,37.19-53.28,86.23-96.94,144.31-126.35,63.38-32.09,134.31-46.22,205.03-40.91l10.39,1.27c23.76,1,46.6,7.01,69.17,12.88Z"/>
  <path class="cls-4" d="M86.86,610.41c16.06,24.1,34.42,46.43,54.87,66.94-2.78,5.47.43,10.28-.48,15.58-23.14-23.17-43.6-48.99-60.5-77.08,3.04-.54,2.11-5.21,6.11-5.45Z"/>
  <path class="cls-4" d="M774.31,575.37c-.35,2.7-2.01,4.9-3.28,7.77-9.57,21.71-21.05,42.09-34.99,60.77-2.66-6.98,1.31-17.4-5.41-22.23l6.37-10.74c1.01-1.7,2.01-3.04,3.76-3.1,1.29,6.44.6,13.65,4.01,20.66,2.39-8.93,1.49-21.28-4.22-21.95l15.92-29.08c.82-1.5,1.54-2.63,2.95-2.88l4.86,19.54c2.09-9.04.16-22.49-4.73-21.1l7.87-15.67c4.06,7.78,1.8,16.02,6.91,18.01Z"/>
  <path class="cls-4" d="M733.98,646.66c-10.36,13.87-21.12,27.52-32.9,40.21-1.13-8.02,1.31-16.44-4.09-22.96.01-1.74.79-3.36,2.52-4.6l29.12-34.9c1.36.59,2.04,1.66,2.15,3.28l.75,11.05c.21,3.09.53,5.71,2.44,7.92Z"/>
  <path class="cls-4" d="M656.29,726.25c-12.72,11.36-27.32,20.54-42.41,28.41l-.71-17.17c-.05-1.37-.46-2.58-1.36-2.9-.26-1.27.18-2.54,1.7-3.44l11.19-6.65.05,19.13c0,.94,1.15,1.37,1.65,1.21,3.21-1.06,3.65-13.49-.29-20.3-.12-.74.25-1.82,1.22-2.47l12.5-8.48.79,22.01c6.23-6.5,4.24-15.48,1.66-22.08-.24-1.74.83-2.84,2.55-4.01l8.82-5.98,1.12,16.07c.16,2.59.04,4.85,1.52,6.66Z"/>
  <polygon class="cls-4" points="466.21 784.64 467.08 804.99 436.99 807.69 436.14 788.28 466.21 784.64"/>
  <path class="cls-4" d="M500.05,778.3v20.23c-.6.55-1.49,1.02-2.68,1.22l-26.13,4.17-.25-19.62,29.06-6Z"/>
  <path class="cls-4" d="M795.28,513.96c-4.09,13.35-7.26,26.98-12.32,39.99l-2.81-14.54c-.39-2.25-1.76-3.93-3.87-4.55l11.21-34.9c.84-.07,2.47.17,2.68,1.26l1.96,10.26c.3,1.56,1.91,2.23,3.14,2.47Z"/>
  <path class="cls-4" d="M167.74,700.24c-1.23,7.03,2.42,12.35,1.46,17.86l-23.91-21.53-.15-7.59-1.45-9.45,24.05,20.7Z"/>
  <path class="cls-4" d="M549.81,763.13l1.11,20.55c-4.56,2.57-9.88,3.39-14.74,5.11l-.23-20.54c4.39-2.35,9.41-3.17,13.86-5.12Z"/>
  <path class="cls-4" d="M697.82,688.63c.11,1.27-.34,2.33-1.52,3.44l-9.31,8.72-.05-15.16c.02-3.4-1.28-6.69-4.16-8.06l12.87-12.92,2.16,23.98Z"/>
  <path class="cls-4" d="M668.6,691.61l.36,21.88c.01.68.86,1.22,1.25,1.41-3.81,2.89-6.89,6.82-11.25,8.97,0-7.63-.32-15.24-3.1-22.4l7.59-7.21c1.62-1.54,3.25-2.57,5.14-2.65Z"/>
  <path class="cls-4" d="M684.19,703.15l-11.2,9.65-.12-18.16c0-2.68-2.06-4.12-4.24-4.25l13.11-11.76,2.45,24.53Z"/>
  <path class="cls-4" d="M532.61,768.95c.06,7.06-1.17,14.02.31,21l-12.42,3.58-.56-20.23,12.67-4.35Z"/>
  <polygon class="cls-4" points="396.95 788.57 398.02 807.83 384.59 806.92 383.2 788.39 396.95 788.57"/>
  <path class="cls-4" d="M595.67,742.36l1.31,20.32c-2.68,3.67-7.5,5.79-11.89,6.96.54-7.23,1.52-14.68-1.22-21.57,3.04-2.42,7.93-5.31,11.8-5.71Z"/>
  <path class="cls-4" d="M581.07,749.56l.95,21.28c-3.5,2.09-8.01,4.25-11.72,5.14.7-7.31.23-14.32-.36-21.51l11.13-4.91Z"/>
  <path class="cls-4" d="M432.13,788.47l.13,19.48c-4.31.24-8.63.33-12.94.24.33-6.33.03-12.64-.89-18.92l13.71-.8Z"/>
  <polygon class="cls-4" points="414.18 789.27 415.01 808.1 402.35 808.14 401.19 788.63 414.18 789.27"/>
  <path class="cls-4" d="M565.97,756.34l.5,21.4-11.63,4.89c.22-7.14.11-14.15-.89-21.31l12.02-4.99Z"/>
  <path class="cls-4" d="M516.01,774.24c-.26,6.66-.66,13.2.97,19.62-3.15,2.57-7.84,3.52-11.98,3.48l-.97-20.05,11.97-3.05Z"/>
  <path class="cls-4" d="M609.66,734.34l.26,22.38c-3.21,1.67-6.33,3.77-9.87,4.94l-.07-14.14c-.02-2.58-.33-4.8-1.42-6.84,2.33-3.08,7.13-5.46,11.1-6.35Z"/>
  <path class="cls-4" d="M290.18,768.3l.66,18.74c-4.31-1.22-8.26-3.97-12.46-5.27l-1.08-18.26,12.89,4.79Z"/>
  <polygon class="cls-4" points="306.34 773.33 306.21 791.96 294.94 788.2 294.52 769.94 306.34 773.33"/>
  <path class="cls-4" d="M380.35,788.38l.09,18.06-10.69-.72-1.5-19.38c4.12.26,8.34.2,12.09,2.04Z"/>
  <path class="cls-4" d="M351.26,784.18l-.07,18.6-9.87-2.34-1.07-18.25c3.79.32,7.56.39,11.01,2Z"/>
  <path class="cls-4" d="M365.18,786.15l-.06,18.88-9.48-1.42-.49-8c-.25-3.99-1.09-7.55-.67-11.14l10.7,1.68Z"/>
  <path class="cls-4" d="M781.88,556.75c-2.01,5.17-3.16,11.05-7.14,15.16l-2.79-15.25c-.4-2.16-1.53-3.15-3.42-2.97l6.39-13.54c4.33,5.12,1.91,13.59,6.96,16.59Z"/>
  <path class="cls-4" d="M202.55,725.43c-.83,1.1-1.48,2.44-1.33,4.09l1.09,12.15c-4.36-.84-8.21-3.78-11-7.12l-1.5-17.34,12.74,8.23Z"/>
  <polygon class="cls-4" points="321.31 777.3 322.15 795.87 311.26 793.01 310.44 775.18 321.31 777.3"/>
  <path class="cls-4" d="M336.38,781.58l1.28,18.03c-4.48.04-7.49-1.58-10.8-2.47l-.64-17.96c3.2,1.22,7.12.25,10.16,2.4Z"/>
  <path class="cls-4" d="M217.02,734.79c-.87,2.54-.74,5.01-.45,7.77l.88,9.29c-4.07-1.71-7.83-4.09-11.28-6.9,1.18-5.94-.92-11.09-.76-16.53,3.85,1.11,8.11,4.22,11.61,6.38Z"/>
  <path class="cls-4" d="M273.26,762.36c-.6,6.19.71,12.13,1.42,18.26l-10.66-4.8-.76-17.52c3.04,1.45,7.38,1.74,10,4.06Z"/>
  <path class="cls-4" d="M184.72,713.32c-3.47,3.18.7,9.31-.5,15.81l-7.27-5c-1.58-1.09-2.48-1.85-2.52-3.55-.18-6.72-4.5-11.98-1.64-16.74l11.93,9.48Z"/>
  <path class="cls-4" d="M245.39,750.23l.17,13.35c.02,1.36-.27,2.61-.99,3.41l-9.45-5.07.27-16.61c2.8,1.75,7.78,2.41,10,4.92Z"/>
  <path class="cls-4" d="M259.24,756.38c0,5.96.96,11.91-.58,17.61l-8.48-4.12-1.71-18.31,10.77,4.83Z"/>
  <path class="cls-4" d="M230.53,742.28l1.08,17.32c-4.07-.67-7.42-3.08-10.52-5.57l-.25-17.14,9.69,5.39Z"/>
  <path class="cls-6" d="M189.81,717.2l1.5,17.34-7.1-5.42c1.2-6.5-2.97-12.62.5-15.81l5.09,3.88Z"/>
  <path class="cls-6" d="M553.94,761.32c1.01,7.15,1.12,14.17.89,21.31l-3.92,1.05-1.11-20.55,4.14-1.81Z"/>
  <path class="cls-6" d="M569.94,754.47c.59,7.19,1.06,14.2.36,21.51l-3.83,1.76-.5-21.4,3.97-1.87Z"/>
  <path class="cls-6" d="M687,700.8l-2.81,2.35-2.45-24.53,1.06-1.04c2.87,1.36,4.17,4.65,4.16,8.06l.05,15.16Z"/>
  <path class="cls-6" d="M672.99,712.79l-2.77,2.11c-.39-.19-1.24-.73-1.25-1.41l-.36-21.88.03-1.23c2.18.12,4.24,1.57,4.24,4.25l.12,18.16Z"/>
  <polygon class="cls-6" points="326.22 779.18 326.86 797.14 322.15 795.87 321.31 777.3 326.22 779.18"/>
  <path class="cls-6" d="M504.03,777.29l.97,20.05c-1.81-.02-3.54-.14-4.97,1.19v-20.23s4-1.01,4-1.01Z"/>
  <path class="cls-6" d="M701.09,686.87c-.91.99-1.64,2.08-3.27,1.77l-2.16-23.98,1.34-.75c5.4,6.52,2.95,14.94,4.09,22.96Z"/>
  <path class="cls-6" d="M658.96,723.87l-2.67,2.39c-1.47-1.81-1.35-4.07-1.52-6.66l-1.12-16.07c.64-.44,1.64-1.52,2.21-2.07,2.78,7.16,3.09,14.78,3.1,22.4Z"/>
  <polygon class="cls-6" points="401.19 788.63 402.35 808.14 398.02 807.83 396.95 788.57 401.19 788.63"/>
  <polygon class="cls-6" points="310.44 775.18 311.26 793.01 306.21 791.96 306.34 773.33 310.44 775.18"/>
  <path class="cls-6" d="M418.43,789.27c.93,6.28,1.22,12.59.89,18.92l-4.31-.09-.83-18.83h4.25Z"/>
  <polygon class="cls-6" points="436.14 788.28 436.99 807.69 432.26 807.95 432.13 788.47 436.14 788.28"/>
  <polygon class="cls-6" points="470.99 784.3 471.24 803.92 467.08 804.99 466.21 784.64 470.99 784.3"/>
  <path class="cls-6" d="M736.04,643.91l-2.05,2.75c-1.91-2.21-2.23-4.83-2.44-7.92l-.75-11.05c-.11-1.62-.79-2.7-2.15-3.28l1.98-2.72c6.73,4.83,2.75,15.24,5.41,22.23Z"/>
  <path class="cls-6" d="M583.87,748.07c2.74,6.89,1.76,14.34,1.22,21.57-.86.23-2.3.74-3.07,1.2l-.95-21.28c.76-.34,2.18-.99,2.81-1.49Z"/>
  <path class="cls-6" d="M235.39,745.32l-.27,16.61c-1.06-.57-2.88-.87-3.5-2.33l-1.08-17.32,4.86,3.03Z"/>
  <path class="cls-6" d="M782.96,553.96l-1.08,2.79c-5.05-3-2.63-11.47-6.96-16.59l1.37-5.28c2.11.61,3.48,2.3,3.87,4.55l2.81,14.54Z"/>
  <path class="cls-6" d="M172.79,703.84c-2.86,4.76,1.46,10.02,1.64,16.74-2.32.65-3.71-1.11-5.22-2.48.96-5.51-2.69-10.83-1.46-17.86l5.05,3.6Z"/>
  <path class="cls-6" d="M519.94,773.3l.56,20.23-3.52.33c-1.63-6.43-1.23-12.96-.97-19.62l3.93-.94Z"/>
  <path class="cls-6" d="M598.56,740.69c1.09,2.04,1.41,4.26,1.42,6.84l.07,14.14-3.07,1.01-1.31-20.32c.73-.57,2.02-1.36,2.89-1.67Z"/>
  <path class="cls-6" d="M277.29,763.5l1.08,18.26-3.69-1.14c-.71-6.13-2.02-12.07-1.42-18.26l4.03,1.14Z"/>
  <polygon class="cls-6" points="294.52 769.94 294.94 788.2 290.84 787.04 290.18 768.3 294.52 769.94"/>
  <path class="cls-6" d="M535.95,768.25l.23,20.54-3.26,1.16c-1.48-6.98-.24-13.94-.31-21l3.33-.7Z"/>
  <polygon class="cls-6" points="368.26 786.34 369.76 805.72 365.12 805.03 365.18 786.15 368.26 786.34"/>
  <path class="cls-6" d="M263.26,758.3l.76,17.52-5.37-1.84c1.54-5.7.58-11.65.58-17.61l4.02,1.93Z"/>
  <path class="cls-6" d="M248.47,751.55l1.71,18.31-5.61-2.87c.72-.8,1.01-2.05.99-3.41l-.17-13.35,3.08,1.31Z"/>
  <path class="cls-6" d="M205.41,728.41c-.16,5.44,1.94,10.59.76,16.53-1.09-.89-3.89-.73-3.86-3.28l-1.09-12.15c-.15-1.65.5-2.99,1.33-4.09,1.08.7,2.18,1.97,2.86,2.99Z"/>
  <path class="cls-6" d="M611.82,734.59c.9.32,1.31,1.53,1.36,2.9l.71,17.17-3.96,2.06-.26-22.38c.62-.14,1.6.05,2.15.25Z"/>
  <path class="cls-6" d="M774.73,571.91c.2,1.1-.29,2.42-.43,3.46-5.1-1.99-2.84-10.24-6.91-18.01l1.12-3.67c1.89-.18,3.03.81,3.42,2.97l2.79,15.25Z"/>
  <path class="cls-6" d="M220.84,736.89l.25,17.14c-.89-.71-2.62-1.75-3.64-2.18l-.88-9.29c-.29-2.76-.42-5.23.45-7.77,1.02.63,2.71,1.48,3.83,2.11Z"/>
  <path class="cls-6" d="M797.52,506.63l-2.24,7.33c-1.23-.24-2.84-.91-3.14-2.47l-1.96-10.26c-.21-1.08-1.83-1.33-2.68-1.26l.96-3.21c1.32-.34,3.48-.24,3.97,1.37l2.35,7.72c.41,1.35,2.05,1.31,2.75.77Z"/>
  <path class="cls-6" d="M354.48,784.47c-.42,3.59.41,7.16.67,11.14l.49,8-4.45-.84.07-18.6c.87.41,2.29.14,3.22.29Z"/>
  <path class="cls-6" d="M143.7,679.54l1.45,9.45.15,7.59-4.04-3.64c.91-5.31-2.3-10.11.48-15.58l1.97,2.19Z"/>
  <path class="cls-4" d="M799.9,381.06c-.37-.35-1.03-.91-1.11-1.56-.07-.55.31-1.21.72-1.57.93-.14,1.31.78,1.22,1.53-.06.5-.08,1.26-.83,1.61Z"/>
  <path class="cls-6" d="M501.52,53.26l9.64,1.88,5.28,2.04c28.7,7.76,55.51,18.97,81.21,33.59,1.67.95,4.38,1.57,5.26,2.84,1.6,2.3,4.17,1.9,5.61,2.93l7.51,5.35c36.16,25.75,68.11,55.82,93.43,92.7,15.66,22.82,28.72,46.48,39,72.07l11.52,32.7-3.01-.08-2.06-5.16c-3.41-12.59-7.77-24.45-14.09-36.02l-24.71-45.2c-9.31-17.02-21.35-31.15-34.33-45.68-90.66-101.49-235.1-135.83-364.09-95.33-49.59,15.57-94.98,42.36-133.09,77.51-59.56,54.94-101,126.91-117.3,206.31-11.9,57.95-7.95,116.86,11.81,172.59,15.16,42.74,38.25,81.63,68.48,115.1l11.45,12.68-2.9,1.55-13.77-14.34-11.31-12.28c-25.44-31.27-47.11-65.3-59.89-103.6l-5.39-16.15c-19.06-57.14-19.88-119.01-4.9-177.26,9.62-37.41,23.85-72.36,43.95-105.51,19.34-31.89,42.17-60.88,69.66-86.16,44.8-41.2,98.46-71.04,157.6-86.07,55.69-14.15,113.36-13.89,169.42-2.99Z"/>
  <path class="cls-7" d="M488.11,37.25l13.81,2.42-.4,13.59c-56.05-10.9-113.73-11.16-169.42,2.99-59.14,15.03-112.8,44.87-157.6,86.07-27.49,25.29-50.32,54.27-69.66,86.16-20.1,33.15-34.33,68.1-43.95,105.51-4.85.09-9.2-1.04-13.83-1.98,5.43-24.02,13.72-47.14,24.37-70.14,22.83-49.35,54.95-93.7,94.97-130.59C253.17,51.27,372.56,17.04,488.11,37.25Z"/>
  <path class="cls-2" d="M760.46,291.2l10.96,37.12c21.86,92.42,5.5,184.63-43.44,265.47-17.79,29.39-38.78,54.78-64.23,77.75-18.72,16.89-37.19,32.05-59.12,44.95-105.8,62.17-226.33,72.59-339.22,22.29-11.14-4.96-21.07-9.56-31.14-15.98l-17.1-10.91c-5.4-3.44-10.36-6.56-15.52-10.53-18.42-14.17-43.43-35.84-57.13-53.71-1.06-1.38-2.19-2.42-2.13-4.37l13.77,14.34,22.38,21.06c25.84,24.32,57.07,41.08,89.42,55.18,73,31.82,153.22,38.31,230.33,19.12,102.77-25.58,189.5-93.65,237.88-188.03,25.17-49.1,38.92-103.09,38.96-158.58.02-27.63-2.24-54.29-8.01-81.01l-7.12-26.04-11.52-32.7c2.49.34,3.8,2.62,4.74,5.13l7.26,19.43Z"/>
  <path class="cls-7" d="M760.46,291.2l-7.26-19.43c-.94-2.51-2.25-4.79-4.74-5.13-10.28-25.59-23.33-49.25-39-72.07-25.32-36.88-57.27-66.96-93.43-92.7l6.91-10.98,24.17,17.32c42.01,33.18,73.49,72.47,99.21,119.35,10.72,19.55,18.18,39.58,25.86,60.16l-11.72,3.49Z"/>
  <path class="cls-7" d="M597.65,90.75c-25.7-14.62-52.51-25.83-81.21-33.59l-5.28-2.04,1.17-11.82c9.19.42,17.33,3.96,26.11,6.68,17.24,5.34,33.13,12.35,48.95,20.82,7.95,4.26,21.1,6.7,18.41,14.65-.38,1.13-1.38,3.67-3.55,2.6-.8-.63-2.33-3.09-3.76-1.74-.89.84-1.1,2.64-.84,4.42Z"/>
  <path class="cls-7" d="M65.79,511.24l5.39,16.15-13.65,4.64-5.61-16.47c4.81-1.76,9.14-3.14,13.88-4.33Z"/>
  <path class="cls-6" d="M642.28,713.52c2.58,6.6,4.57,15.57-1.66,22.08l-.79-22.01c.49-.33,1.54-.21,2.45-.07Z"/>
  <path class="cls-6" d="M740.76,607.84c-.06-.3.12-.89-.22-1.29,5.72.67,6.61,13.01,4.22,21.95-3.4-7.01-2.72-14.22-4.01-20.66Z"/>
  <path class="cls-6" d="M624.71,724.5l1.41.04c3.95,6.81,3.5,19.24.29,20.3-.5.17-1.65-.27-1.65-1.21l-.05-19.13Z"/>
  <path class="cls-6" d="M759.41,574.6l.12-1.56c4.9-1.38,6.82,12.07,4.73,21.1l-4.86-19.54Z"/>
  <path class="cls-8" d="M608.52,96.52c-1.44-1.03-4.01-.63-5.61-2.93,5.59-1.17,5.97-9.19,8.54-9.42.74-.07,1.29.38,1.41.78.14.44.2,1.63-.09,2.26l-4.26,9.31Z"/>
  <path class="cls-1" d="M756.97,299.26l7.12,23.47c.48,1.59,1.57,2.39,3.01,2.65,5.77,26.71,8.03,53.38,8.01,81.01-.04,55.49-13.79,109.48-38.96,158.58-48.38,94.38-135.11,162.46-237.88,188.03-77.1,19.19-157.33,12.7-230.33-19.12.62-2.12-.94-3.2-2.9-4.02-16.58-6.93-31.48-15.48-46.36-25.43-12.51-8.36-24.11-16.64-35.33-26.65l-24.3-21.7-11.45-12.68c-30.23-33.47-53.32-72.37-68.48-115.1-19.76-55.72-23.72-114.63-11.81-172.59,16.31-79.4,57.74-151.37,117.3-206.31,38.11-35.15,83.49-61.94,133.09-77.51,128.99-40.5,273.43-6.17,364.09,95.33,12.98,14.53,25.02,28.65,34.33,45.68l24.71,45.2c6.33,11.57,10.68,23.42,14.09,36.02l2.06,5.16ZM390.38,756.43c65.02,4.65,129.67-9.87,187.46-39.79l35.92-21.31c17.41-11.87,33.73-24.38,48.08-39.62l16.02-17.02c2.12-2.25,3.7-3.83,5.66-6.44l6.4-8.55c17.35-20.27,31.04-42.23,42.57-66.45,20.88-43.85,32.46-90.64,35.22-139.3,2.37-41.73-3.92-82.58-17.56-122.05-31.9-92.24-99.38-166.78-190.1-203.8-33.4-13.63-67.92-21.88-103.88-24.31-30.51-2.07-57.42.7-87.2,7.09-40.97,8.8-79.25,24.64-114.27,47.63-17.19,11.29-33.31,22.74-47.81,37.21l-29,28.94c-14.34,14.31-33.32,43.84-44.58,62.5-4.01,6.66-7.01,13.49-10.66,20.34-27.59,51.82-40.62,117.83-35.88,176.18,2.77,34.09,10.43,66.98,25.18,97.47l7.63,15.77c8.25,17.06,17.85,32.19,28.72,48.16,22.23,32.66,49.72,61.36,80.99,85.43,45.56,35.06,103.7,57.82,161.09,61.93Z"/>
  <path class="cls-4" d="M267.94,733.87c-32.36-14.1-63.58-30.86-89.42-55.18l-22.38-21.06,2.9-1.55,24.3,21.7c11.22,10.01,22.81,18.29,35.33,26.65,14.89,9.95,29.78,18.5,46.36,25.43,1.96.82,3.52,1.91,2.9,4.02Z"/>
  <path class="cls-4" d="M759.98,299.34l7.12,26.04c-1.45-.26-2.53-1.06-3.01-2.65l-7.12-23.47,3.01.08Z"/>
  <path class="cls-8" d="M390.38,756.43c-57.39-4.1-115.52-26.87-161.09-61.93-31.28-24.07-58.76-52.77-80.99-85.43-10.87-15.97-20.47-31.1-28.72-48.16l-7.63-15.77c-14.75-30.49-22.41-63.38-25.18-97.47-4.74-58.35,8.29-124.36,35.88-176.18,3.65-6.85,6.65-13.68,10.66-20.34,11.26-18.67,30.24-48.19,44.58-62.5l29-28.94c14.5-14.47,30.62-25.92,47.81-37.21,35.02-22.99,73.3-38.83,114.27-47.63,29.78-6.39,56.69-9.16,87.2-7.09,35.96,2.44,70.49,10.69,103.88,24.31,90.72,37.02,158.21,111.56,190.1,203.8,13.65,39.46,19.94,80.32,17.56,122.05-2.77,48.66-14.35,95.45-35.22,139.3-11.53,24.22-25.22,46.18-42.57,66.45l-6.4,8.55c-1.96,2.61-3.54,4.19-5.66,6.44l-16.02,17.02c-14.35,15.24-30.67,27.75-48.08,39.62l-35.92,21.31c-57.79,29.92-122.44,44.44-187.46,39.79ZM308.34,330c.08.83-.15,2.17.13,3.45.2.93,1.08,1.74,2.5,1.76-.03,6.38,8.28,10.62,14.46,7.83l28.11-12.71c2.73-1.23,5.16-2.51,8.17-2.57l-6.98,129.68c-1.19,22.15-2.65,43.37-6.07,64.63-1.92-.11-3.02-1.09-4.1-2.59-5.86-8.13-9.58-17.18-12.15-26.91l-6.44-24.33c-.37-1.38-1.33-2.3-2.27-2.69.06-4.53-1.28-8.23-5.42-10.17-1.7-.8-3.36-2.48-5.89-.21s-4.66,5.55-5.99,9.14c-2.03.44-3.34-1.32-4.39-1.45,4.18-12.77,2.76-25.92-3.68-38.01-1.08-2.03-1.44-4.35-4.17-4.34-1-6.67-6.85-17.6-9.58-17.55.35-3.87-3.92-9.85-7.51-12.01-4.35-8.91-12.45-16.11-21.16-20.89-.03-2.91-3.67-4.72-6.26-6.23-7.38-4.28-13.88-9.68-22.24-11.84-1.4-.36-3.72.63-5.02.02-.95-.44-1.63-2.47-2.35-3.77l-22.1-7.37c-10.73-2.17-21.88-2.85-32.79-2l-57.93,4.52c-2.08,2.38,1.01,5.23,1.19,6.91.27,2.51,1.23,6.24,1.82,8.88,3.74,16.85,9.58,33.42,17.77,49.13l11.82,21.07c-10.68-2.16-21.88-1.14-33.29-.69,1.08,4.89,3.39,7.65,4.48,11.42,3.92,13.52,12.09,26.35,22.5,36.65,13.51,13.37,31.12,18.94,49.92,19.01,7.13.03,13.85.14,21.1,2.83-2.36,3.65-4.92,6.17-5.99,10.34,10.42,2.4,20.8,1.49,30.96,1.63l2.9.38.14,1.77c.21,2.66-1.86,4.28-3.99,6.47-.39.92,1.72,2.22,3.02,2.36l9.93,1.09c9.93,1.09,22.79-2.91,32.49-4.57-1.43,1.42-2.76,4.55-3.9,6.71.5,1.16,2.9,1.61,3.76,1.42-.89,5.06,2.93,4.76,3.74,7.55-2.68,3.32-5.25,6.89-6.44,11-2.9,2.05-2.69,5.79-2.6,9.08.03,1.07-.64,2.28-.1,4.06l13.34-1.97c-1.25,2.95-.65,6.94.64,9.46.57,1.11,1.72,2.17,2.12,3.08.89,2.06,2.43,5.25,4.33,6.43,6.05,3.78,10.71-3.67,17.45-6.37.57,3.23,2.79,8.58,5.81,8.81,7.55-1.94,12.63-10.56,19.2-13.81.85,2.7,3.73,2.69,5.97,2.25l-3.02,4.07c-.08,3.62,3.1,5.73,5.56,7.3,1.06,3.5,3.76,8.67,8.36,8.58l47.32-.55c-3.13,2.19-5.92,4.46-10.14,5.91l-19.14,6.6c-2.3.79-3.79,2.64-4.44,4.02-1.19,2.51.14,4.29.43,6.14.47,2.97,1.47,5.79,5.09,6.83,7.44,2.14,14.83.82,22.27-.63,13.29-2.59,23.3-9.88,30.54-22.35,12.34,21.03,32.3,24.77,54.9,24.05,3.62-.7,6.13-3.12,6.53-6.59.36-3.07-2.92-5-4.72-7.05-1.33-1.52-1.57-3.97-4.85-4.38-9.49-1.2-18.11-4.92-26.53-9.31-1.89-.99-3.35-1.9-3.61-3.92l67.16,3.92c4.33.26,6.65-5.12,5.87-8.69l-5.65-25.91c.4-1.95,2.89-4.07,5.47-5.49,3.95,11.95,11.11,22.01,21.59,29.98,3.52-1.83,4.5-5.56,6.23-8.87,4.2,5.05,7.25,9.56,12.7,13.24,8.41-6.25,10.86-17.01,6.58-27.14l21.17,6.59c2.35-9.65.11-18.59-5.43-26.35l25.79-11.67c1.66-.75.23-4.06-.55-5l-6.13-7.36,34.29.03,13-1.3-5.4-6.88c8.34.28,15.59.52,23.78-.66.72-2.76-1.61-4.44-3.11-7.29,22.9-3,39.42-11.07,53.62-27.77,7.46-8.77,14.29-17.84,16.42-29.06.6-3.18,2.8-5.44,0-8.37-1.51-1.57-1.7-3.75-5.36-4.04l-34.23-2.67c-.37-2,.61-3.56,1.42-5.63l18.49-47.26c1.27-3.24-1.56-4.48-2.45-5.97-1.27-2.13-.98-4.48-3.45-5.97-1.36-.82-2.13-2.8-4.95-2.71-18.56.58-36.24,4.81-52.74,12.37l6.91-17.48c1.2-2.87-.63-4.63-1.97-6.01-1.18-1.22-1.34-2.82-4.2-3.08-24.73-2.28-50,2.94-70.45,17.18l-15.2,12.02c-1.26-.68-2.31-1.29-3.87-1.29-2.46,7-9.89,1.46-11.14,6.01-.58,2.09-2.01,2.61-3.51,2.55-2.28-.09-1.48-2.91-2.07-3.9-1.8-3.06-1.25-5.4.56-8.41-1.07-1.67-3.45-.74-4.13.3-2.57,3.96,1.58,6.57-.12,9.57-1.55,2.74-7.5,2.16-8.66,6.1,2.09.97,3.67,1.13,4.86,3.31-4.58.59-7.72.88-11.07,3.75-2.75-2.87-3.75-6.23-2.73-10.43-2.19-1.51-4.39-2.52-7.6-3.61l-1.02,11.57c-2.08.61-4.46-.83-6.39-1.1-3.91,2.91-3.21,7.91-5.19,11.36-4.6,8,.54,9.02-.65,11.43-.35.71-3.04-.92-3.5-.14l-1.9,3.22c-.46.78-2.92.69-3.76.45l.03-46.12c2.9-1.45,5.87,1.91,7.98,3.29,3.79-1.74,6.53-6.05,10.55-7.37,4.72-1.55,7.72-4.4,10.93-8.44,1.85,3.21,2.33,5.73,5.88,5.92-1.59-3.06-1.54-5.29.98-7.31,1.58-1.26-.37-3.42-1.8-1.67-.96,1.18-2.31,2.01-3.09,1.65-2.89-1.33-.95-6.48-3.43-7.43-4.17-1.6-4.7,5.67-8.26,10.34-2.91-3.76,2.09-13.08,5.46-13.42,1.11-.11,1.79-.81,1.77-1.84,0-.62-.65-1.94-2.04-1.22-.69.36-1.94,1.37-2.58,1.27s-1.85-1.42-1.89-2.06c-.24-4.08,6.36-3.66,7.7-6.69,2.09-4.71.42-10.14-.11-10.56-.73-.57-5.36-1.43-6.66-1.14-.82.18-.29,2.78-.89,3.49-2.33,2.81-3.77,5.24-4.44,8.74-4.18,1.96-5.31-7.99-6.96-5.49-2.25,3.42,1.21,6.56,2.75,9.1,2.21,3.65.96,9.42-2.58,11.57-1.05-3.04-1.23-5.12-2.78-6.63s-3.98-2.05-6.36-1.76l.7-14.23c-.31-45.45,2.96-90.01,8.33-135.08l1.68-20.69c.41-5.12-3.97-8.53-6.91-11.11-.9-.79-1.24-2.73-3.02-2.97-.31-.9-.05-3.12-1.23-4.17-1.03-.91-2.64-1.37-4.55-1.21l-11.22.92-25.44,4c-5.22.82-10.43,1.5-15.77,2.33l-45.7,7.09c-3.31,5.18-5.52,10.42-8.15,16.01-11.3,23.98-25.87,45.49-44.16,64.65-7.22,7.57-14.83,13.59-22.94,20.14-1.41,1.14-1.77,4.16-1.86,6.06l-2.89,57.16c-.09,1.77,1.25,2.56,2.15,2.92ZM507.1,382.41c3.35-1.96-5.5-2.09-5.73-8-5.45,3.66-6.83,9.75-4.68,15.39,3.03-4.27,6.44-5.07,10.41-7.39Z"/>
  <path class="cls-7" d="M561.07,371.24c-15.56,16.37-26.7,36.77-32.5,59.11l-14.81,57.1c-2.83,10.91-10.82,17.68-19.5,23.55-2.96-24.59-4.11-49.24-4.61-74.38l-.49-24.65c.84.24,3.3.33,3.76-.45l1.9-3.22c.46-.78,3.15.85,3.5.14,1.19-2.41-3.95-3.43.65-11.43,1.99-3.45,1.28-8.45,5.19-11.36,1.93.27,4.31,1.71,6.39,1.1l1.02-11.57c3.21,1.09,5.41,2.1,7.6,3.61-1.01,4.2-.01,7.56,2.73,10.43,3.36-2.87,6.5-3.16,11.07-3.75-1.19-2.18-2.77-2.34-4.86-3.31,1.16-3.94,7.11-3.35,8.66-6.1,1.7-3.01-2.45-5.62.12-9.57.68-1.04,3.06-1.96,4.13-.3-1.81,3.01-2.35,5.35-.56,8.41.59,1-.21,3.81,2.07,3.9,1.5.06,2.93-.46,3.51-2.55,1.25-4.56,8.69.99,11.14-6.01,1.56,0,2.62.62,3.87,1.29Z"/>
  <path class="cls-7" d="M489.19,365.86l.24-9.8c.72.11,2.62.48,3.34-.23,1-.98.35-2.68-.69-3.24-.67-.36-1.6-.73-2.65-.61l-.09-13.76c2.38-.3,4.74.18,6.36,1.76s1.74,3.59,2.78,6.63c3.53-2.15,4.79-7.92,2.58-11.57-1.54-2.54-5-5.68-2.75-9.1,1.65-2.5,2.78,7.45,6.96,5.49.67-3.5,2.11-5.94,4.44-8.74.6-.72.06-3.31.89-3.49,1.3-.29,5.93.57,6.66,1.14.54.42,2.2,5.84.11,10.56-1.34,3.03-7.94,2.61-7.7,6.69.04.65,1.22,1.95,1.89,2.06s1.88-.91,2.58-1.27c1.39-.72,2.03.6,2.04,1.22.01,1.03-.67,1.73-1.77,1.84-3.36.33-8.37,9.66-5.46,13.42,3.56-4.67,4.09-11.94,8.26-10.34,2.48.95.55,6.1,3.43,7.43.78.36,2.13-.47,3.09-1.65,1.43-1.75,3.37.41,1.8,1.67-2.52,2.02-2.57,4.25-.98,7.31-3.54-.18-4.02-2.71-5.88-5.92-3.21,4.04-6.21,6.89-10.93,8.44-4.01,1.32-6.75,5.64-10.55,7.37-2.11-1.38-5.08-4.73-7.98-3.29Z"/>
  <path class="cls-7" d="M507.1,382.41c-3.97,2.32-7.38,3.12-10.41,7.39-2.15-5.64-.77-11.74,4.68-15.39.24,5.9,9.08,6.04,5.73,8Z"/>
  <path class="cls-8" d="M489.42,356.05v-4.08c1.05-.12,1.98.25,2.65.61,1.04.56,1.69,2.26.69,3.24-.73.71-2.62.34-3.34.23Z"/>
  <g>
    <path class="cls-5" d="M429.64,577.11c3.49,3.28,6.91,6.98,12.21,7.42.27,2.02,1.72,2.93,3.61,3.92,8.42,4.39,17.04,8.11,26.53,9.31,3.28.41,3.52,2.87,4.85,4.38-.49,1.94-1.4,3.6-2.52,4.78-14.85.18-29.72-5.01-41.05-14.43l-14.12-11.75c-2.9-2.41-21.46,25.15-53.93,26.84-.36-1.84,1-4.71,3.67-5.24,15.22-2.99,29.52-9.19,40.76-20.05,1.83-1.77,1.54-4.72,1.36-6.75,5.1-4.31,13.53-3.22,18.63,1.56Z"/>
    <path class="cls-1" d="M432.88,598.13c10.64,7.73,23.2,13.89,37.12,13.46,1.75-.05,3.24-.58,3.96-1.62.59-.87.25-2.3.38-3.05,1.12-1.18,2.03-2.84,2.52-4.78,1.79,2.05,5.07,3.98,4.72,7.05-.4,3.47-2.91,5.89-6.53,6.59-22.61.72-42.56-3.02-54.9-24.05-7.23,12.47-17.24,19.76-30.54,22.35-7.45,1.45-14.83,2.78-22.27.63-3.62-1.04-4.62-3.87-5.09-6.83l3-.3c.18.93.05,3.45,1.28,3.97,20.43,1.22,39.63-9.51,51.61-24.9,4.87,4.29,9.85,7.91,14.76,11.47Z"/>
    <path class="cls-1" d="M408.21,575.75c-1.72,6.27-9.5,7.23-12.69,9.46l-47.32.55c-4.6.09-7.3-5.08-8.36-8.58l45.34-.8,23.03-.63Z"/>
    <path class="cls-2" d="M411.02,575.55c.18,2.03.47,4.98-1.36,6.75-11.24,10.86-25.54,17.06-40.76,20.05-2.67.53-4.04,3.39-3.67,5.24l-3,.3c-.29-1.85-1.62-3.64-.43-6.14.66-1.38,2.15-3.23,4.44-4.02l19.14-6.6c4.23-1.46,7.01-3.72,10.14-5.91s10.96-3.19,12.69-9.46l2.81-.2Z"/>
    <path class="cls-6" d="M419.16,580.74l-1.05,5.92c-11.98,15.38-31.18,26.12-51.61,24.9-1.22-.52-1.09-3.04-1.28-3.97,32.47-1.69,51.03-29.26,53.93-26.84Z"/>
    <path class="cls-6" d="M474.33,606.92c-.13.75.22,2.19-.38,3.05-.71,1.04-2.21,1.56-3.96,1.62-13.91.43-26.48-5.73-37.12-13.46l.4-5.64c11.33,9.42,26.2,14.62,41.05,14.43Z"/>
    <path class="cls-4" d="M433.28,592.49l-.4,5.64c-4.91-3.56-9.89-7.18-14.76-11.47l1.05-5.92,14.12,11.75Z"/>
    <g>
      <path class="cls-6" d="M493.13,157.09c-2.1,1.06-1.89,3.81-.07,5.62l-7.16,61.48c-2.58,22.48-3.75,44.01-4.52,66.45l-2.07,60.82c-1.44,42.27-1.1,83.74,1.04,125.96.75,14.78,1.81,28.68,4.43,42.58l.91,4.84,4.14,15.69,11.6-10.35c9.84-8.78,19.53-17.06,30.6-23.4,14.34-8.21,29.93-12.42,46.94-14.06l68.76-6.69c1.07.1,1.55,2.78.3,3.01l-81.19,14.49c-7.5,1.34-14.39,3.49-20.1,7.5-7.66.37-14.63,4.14-20.72,8.59-1.74,1.27-3.04,2.26-4.45,4.05-1.64,2.1-5.37,4.09-6.06,6.81-1.95-.14-3.3.68-4.8,2.04l-8.88,8.07c-2.65,2.41-5.31,4.18-9.11,5.2l5.12,17.03c1.09,3.62-.07,7.15-2.19,9.89-2.13,2.75-5.36,3.94-9.6,3.93l-56.42.46c-5.09-4.78-13.53-5.87-18.63-1.56l-2.81.2-23.03.63-45.34.8c-2.46-1.57-5.64-3.68-5.56-7.3l3.02-4.07,3.02-.59,149.56-.1c1.09-3.51-.43-5.96-1.32-8.76l-9.84-30.89c-5.65-31.96-7.01-63.71-6.99-96.07l.02-48.93,1.01-44.76,1.06-27.14c2.01-51.3,6.61-101.92,15.44-152.17l.83-2.27c1.79.24,2.12,2.18,3.02,2.97Z"/>
      <path class="cls-1" d="M489.34,338.2l.09,13.76v4.08s-.23,9.8-.23,9.8l-.03,46.12.49,24.65c.5,25.14,1.65,49.79,4.61,74.38-1.9,3.87-5.46,7.09-9.47,9.01-2.63-13.91-3.69-27.81-4.43-42.58-2.13-42.21-2.48-83.69-1.04-125.96l2.07-60.82c.76-22.44,1.94-43.97,4.52-66.45l7.16-61.48c-1.83-1.82-2.04-4.56.07-5.62,2.94,2.58,7.33,6,6.91,11.11l-1.68,20.69c-5.38,45.07-8.64,89.63-8.33,135.08l-.7,14.23Z"/>
      <path class="cls-2" d="M490.11,154.12l-.83,2.27-96.93,14.83c-11.89,30.39-29.05,57.33-51.29,80.62-7.11,7.45-14.81,12.92-22.76,19.41l-3.48,42.75c-.3,3.69-1.35,7.08-.25,10.44l-6.23,5.56c-.9-.37-2.24-1.16-2.15-2.92l2.89-57.16c.1-1.89.45-4.92,1.86-6.06,8.11-6.54,15.71-12.57,22.94-20.14,18.29-19.16,32.86-40.67,44.16-64.65,2.63-5.59,4.85-10.83,8.15-16.01l45.7-7.09c5.34-.83,10.56-1.51,15.77-2.33l25.44-4,11.22-.92c1.9-.16,3.52.3,4.55,1.21,1.18,1.05.93,3.27,1.23,4.17Z"/>
      <path class="cls-2" d="M340.32,565.22l-3.02.59c-2.23.43-5.12.45-5.97-2.25l8.26-17.67c.71-1.51,1.99-2.87,1.66-4.79l1.45-3.19c2.41-2.21,3.75-6.74,4.8-10,.67-2.08.82-3.88,1.14-5.84,3.42-21.26,4.88-42.48,6.07-64.63l6.98-129.68c.18-3.43,1.16-6.93.91-10.58,2-.15,4.1-.69,6.66-.02l-5.29,117.64c-1.4,31.15-3.59,61.08-7.67,91.93-3.64,11.71-8.36,22.19-14.42,32.67-1.1,1.9-1.73,3.76-1.57,5.82Z"/>
      <path class="cls-1" d="M362.57,311.18c-.56,1.69-.07,4.19.05,6.01.25,3.64-.73,7.14-.91,10.58-3.01.05-5.44,1.33-8.17,2.57l-28.11,12.71c-6.17,2.79-14.48-1.45-14.46-7.83,2.15-.22,4.24-.92,6.35-2.17,11.81-7.01,23.77-12.84,36.2-18.66,3.09-1.45,5.75-3.24,9.04-3.2Z"/>
      <path class="cls-6" d="M362.57,311.18c-3.3-.04-5.95,1.75-9.04,3.2-12.43,5.83-24.39,11.65-36.2,18.66-2.11,1.26-4.2,1.96-6.35,2.17-1.42-.01-2.31-.82-2.5-1.76-.27-1.28-.05-2.63-.13-3.45l6.23-5.56c.94-.29,2.34-.63,3.62-1.45,15.57-10.05,31.39-19,48.92-25.52l-4.54,13.7Z"/>
      <path class="cls-5" d="M489.27,156.4c-8.83,50.25-13.43,100.87-15.44,152.17l-1.06,27.14-1.01,44.76-.02,48.93c-.01,32.36,1.35,64.11,6.99,96.07l9.84,30.89c.89,2.8,2.4,5.25,1.32,8.76l-149.56.1c-.16-2.06.47-3.92,1.57-5.82,6.05-10.47,10.77-20.95,14.42-32.67,4.08-30.84,6.27-60.77,7.67-91.93l5.29-117.64c-2.56-.68-4.65-.13-6.66.02-.12-1.82-.61-4.32-.05-6.01l4.54-13.7c-17.53,6.52-33.35,15.47-48.92,25.52-1.28.82-2.68,1.16-3.62,1.45-1.1-3.36-.05-6.75.25-10.44l3.48-42.75c7.94-6.49,15.64-11.96,22.76-19.41,22.24-23.29,39.4-50.24,51.29-80.62l96.93-14.83ZM327.77,298.1c-.28.95-1.11,4.5.51,4.5,18-8.23,34.05-18.58,50.84-28.55,2.48-1.47,4.59-3.01,7.16-3.35l-.35,13.13-4.24,74.19-4.27,104.78-3.43,46.39c-.83,11.21-2.45,22.41-5.41,33.58-.68,2.55,3.12,1.86,4.09,2.62,6.31,4.94,51.81,3.49,69.37,2.82,6.25-.24,12.1,0,17.68-3.14-1.58-1.98-3.96-3.32-5.78-3.3.55-4.63-.83-9.21-1.34-13.77,2.28-.03,6.01-1.37,5.78-4.2-2.63-33.5-3.85-66.15-3.2-99.81l1.45-75.06,7.62-116.6,6.28-54.69c.2-1.72-.16-2.77-1.14-3.69-.24-.58.39-2.56-.69-3.63l-67.76,10.06c-15.74,38.41-39.88,71.24-72.47,96.12l-.72,21.61Z"/>
      <path class="cls-8" d="M465.15,183.35c-5.36,27.14-8.95,54.52-10.88,82.73l-2.73,39.91-.06,9.12-1.24,35.96-1.64,75.35c-.75,34.3.31,68.16,4,101.59.5,4.56,1.88,9.14,1.34,13.77l-73.72.52c1.59-7.94,2.12-15.89,2.6-23.7l3.58-58.55,4.99-125.71,2.69-48.89.11-14.21c.02-2.64-1.89-3.71-2.59-5.3-1.03-2.33-4.33-6.19-7.68-4.03l-41.83,26.97c-2.7,1.74-5.14,2.57-7.66,3.84l.84-12.59c30.84-23.56,54.67-53.98,70.07-89.55,1.06-2.45,4.78-2.77,6.87-3.51l48.77-5.85,4.18,2.12Z"/>
      <path class="cls-2" d="M452.61,528.01c-3.69-33.43-4.75-67.28-4-101.59l1.64-75.35,1.24-35.96.06-9.12,2.73-39.91c1.93-28.2,5.52-55.58,10.88-82.73l4.26-9.4c.97.93,1.34,1.97,1.14,3.69l-6.28,54.69-7.62,116.6-1.45,75.06c-.65,33.66.57,66.31,3.2,99.81.22,2.83-3.51,4.17-5.78,4.2Z"/>
      <path class="cls-1" d="M394.09,285.44l-2.69,48.89-4.99,125.71-3.58,58.55c-2.15.12-4.67.05-5.78-1.16-2.63-2.87,1.28-8.9-3.05-8.24l3.43-46.39,4.27-104.78,4.24-74.19c2.91-.48,5.51.7,8.15,1.61Z"/>
      <path class="cls-1" d="M469.41,173.95l-4.26,9.4-4.18-2.12-48.77,5.85c-2.09.73-5.81,1.05-6.87,3.51-15.39,35.57-39.22,65.99-70.07,89.55l-.84,12.59c-2.03,1.03-3.06,5.49-6.66,5.39l.72-21.61c32.59-24.88,56.73-57.7,72.47-96.12l67.76-10.06c1.08,1.07.45,3.04.69,3.63Z"/>
      <path class="cls-2" d="M453.95,541.78c1.82-.01,4.2,1.32,5.78,3.3-5.58,3.14-11.43,2.91-17.68,3.14-17.57.67-63.06,2.11-69.37-2.82l7.55-3.11,73.72-.52Z"/>
      <path class="cls-2" d="M391.6,265.94c-2.35.39-5.26,2.42-5.32,4.76-2.58.34-4.69,1.88-7.16,3.35-16.79,9.97-32.84,20.32-50.84,28.55-1.62,0-.79-3.55-.51-4.5,3.6.11,4.63-4.36,6.66-5.39,2.51-1.27,4.96-2.11,7.66-3.84l41.83-26.97c3.35-2.16,6.65,1.7,7.68,4.03Z"/>
      <path class="cls-4" d="M382.82,518.6c-.48,7.81-1.01,15.76-2.6,23.7l-7.55,3.11c-.97-.76-4.76-.06-4.09-2.62,2.97-11.17,4.58-22.37,5.41-33.58,4.33-.66.42,5.37,3.05,8.24,1.11,1.21,3.63,1.28,5.78,1.16Z"/>
      <path class="cls-4" d="M391.6,265.94c.71,1.59,2.61,2.66,2.59,5.3l-.11,14.21c-2.64-.91-5.24-2.09-8.15-1.61l.35-13.13c.06-2.34,2.97-4.37,5.32-4.76Z"/>
    </g>
    <g>
      <path class="cls-1" d="M441.85,584.53c-5.3-.44-8.72-4.14-12.21-7.42l56.42-.46c4.24,0,7.47-1.18,9.6-3.93,2.12-2.74,3.28-6.27,2.19-9.89l-5.12-17.03c3.8-1.03,6.45-2.79,9.11-5.2l8.88-8.07c1.49-1.36,2.85-2.17,4.8-2.04-.35,4.79-.9,9.84.56,14.35,1.98,6.13,5.92,12.42,11.85,15.06-.46,1.61.57,5.53,2.61,4.79l6.31-10.18c5.34,1.67,7.23,9.8,14.21,10.51-.12.92-.57,2.42,1.46,3.33,2.46-5.62,2.65-11.27,2-18.02l16.41,3.44v-3.97c.03-6.12-2.86-12.18-7.93-15.43l-3.99-3.54,10.67-5.43c.78-.37,2.27-1.03,2.14-2.18-.09-.81-1.38-1.51-2.14-1.57,1.26-4.28-6.96-7.22-13.82-9.04-2.92-.77-5.96-1.73-9.1-1.57,5.71-4.02,12.61-6.17,20.1-7.5l81.19-14.49c1.25-.22.77-2.9-.3-3.01l-.05-2.34c1.23-.4,2.27-1.46,2.85-3.44,29.66-2.99,54.04-18.84,75.24-39.32,1.1-1.07,2.01-1.8,3.47-2.08-2.12,11.22-8.96,20.28-16.42,29.06-14.2,16.69-30.72,24.77-53.62,27.77,1.5,2.85,3.84,4.53,3.11,7.29-8.2,1.19-15.45.95-23.78.66l5.4,6.88-13,1.3-34.29-.03,6.13,7.36c.78.94,2.21,4.25.55,5l-25.79,11.67c5.54,7.76,7.78,16.7,5.43,26.35l-21.17-6.59c4.27,10.12,1.82,20.88-6.58,27.14-5.45-3.68-8.51-8.19-12.7-13.24-1.74,3.3-2.71,7.04-6.23,8.87-10.47-7.97-17.64-18.03-21.59-29.98-2.58,1.42-5.07,3.55-5.47,5.49l5.65,25.91c.78,3.56-1.54,8.94-5.87,8.69l-67.16-3.92Z"/>
      <path class="cls-2" d="M650.92,345.11l-6.74,4.04c-11.93-1.48-24.61,1.96-31.35,11.92-13.38,9.81-24.41,22.51-30.61,38.01-6.17,2.87-6.87,12.43-12.98,16.27,2.26-12.4,8.29-23.24,15.3-33.77l19.09-24.54c-11.26,1.58-20.09,6.91-28.34,13.32-11.18,8.69-18.93,20.16-24.97,32.9-3.93,8.29-9.23,15.58-11.52,24.57l-12.75,49.99c-.68,2.65-1.48,4.88-.71,7.42-2.64,3.79-4.25,8.22-5.68,12.41-1.22,3.56-4.26,6.82-7.4,9.38l-18.15,14.83c-2.42,1.98-5.72,2.42-8.41,2.98l-.91-4.84c4.01-1.92,7.57-5.14,9.47-9.01,8.67-5.87,16.66-12.64,19.5-23.55l14.81-57.1c5.8-22.34,16.93-42.74,32.5-59.11l15.2-12.02c20.45-14.24,45.72-19.46,70.45-17.18,2.86.26,3.02,1.86,4.2,3.08Z"/>
      <path class="cls-2" d="M703.67,358.95c-.69,2.25-2.5,4-4.65,4.21-4.99.49-10.49-.02-15.25,2.69l-14.68,8.37c-1.7.97-2.68,2.01-2.17,3.99l-21.23,12.95c2.16-6.94,8.67-9.52,13.93-16.07-15.6,2.53-28.75,11.24-41.56,20-9.55,7.31-18.97,14.31-25.59,23.89-12.6,11.6-22.82,25.43-31.67,40.99,3.73.4,5.6-2.45,8.13-4.04,2.96-1.87,5.36-3.35,7.04-5.96,1.57.15,2.95-.49,4.55-1.53l36.41-23.51c.94-.61,2.58-.72,3.77-.96,2.36-.5,5.76-.73,6.11,2.07-2.38.23-3.4,2.51-4.95,3.61-18.06,12.71-36.96,23.86-55.62,35.5-.21-1.29-2.74-1.86-3.9-1l-8.55,6.32-25.07,24.15c-.57.55-2.14-.83-2.22-1.49,3.66-4.24,7.97-8.63,9.37-14.11l11.53-11.65c3.57-.8,4.63-2.5,5.03-6.32,3.33-1.42,4.11-6.07,5.77-8.74l8.17-13.13c13.26-21.32,29.99-39.44,50.58-53.05,7.99-5.28,16.08-10.64,25.22-14.84l3.83-2.67c16.5-7.56,34.18-11.79,52.74-12.37,2.82-.09,3.59,1.89,4.95,2.71Z"/>
      <path class="cls-6" d="M707.12,364.92c-7.41,13.6-17.55,24.86-27.25,37.03l-11.78,21.35-5.26,6.57-13.14,14.71c-.35.39-.74.82-1.18,1.13l-15.57,11.22c-1.21.87-2.03,1.76-2.26,2.73-3.26.22-5.06,1.49-7.78,2.57-15.64,6.19-31.86,10.88-48.21,16.18-3.82,1.24-7.63,2.82-9.66,5.75l-3.31.02c-.79-1.32-.87-2.97-.77-4.59l8.52-4.26,30.75-11.21c13.46-4.91,25.52-11.75,36.65-19.94,16.3-12.01,29.08-27.96,39.05-46.1,9.85-10.55,17.87-22.02,23.08-34.92,2.15-.21,3.96-1.96,4.65-4.21,2.47,1.5,2.18,3.84,3.45,5.97Z"/>
      <path class="cls-1" d="M689.66,423.78l-21.57-.48,11.78-21.35c9.7-12.16,19.84-23.43,27.25-37.03.89,1.49,3.71,2.73,2.45,5.97l-18.49,47.26c-.81,2.07-1.79,3.63-1.42,5.63Z"/>
      <path class="cls-6" d="M729.25,438.86c-1.46.28-2.37,1.01-3.47,2.08-21.2,20.49-45.58,36.33-75.24,39.32-.58,1.98-1.63,3.04-2.85,3.44-.05-2.63-1.4-5.27-.34-8.53,29.87-5.46,53.12-20.01,74.78-39.86l7.11-4.81c2.81,2.93.61,5.18,0,8.37Z"/>
      <path class="cls-1" d="M645.98,368.6l-3.83,2.67c-9.14,4.2-17.22,9.56-25.22,14.84,4.83-15.18,15.12-27.13,27.24-36.97l6.74-4.04c1.34,1.38,3.17,3.14,1.97,6.01l-6.91,17.48Z"/>
      <path class="cls-2" d="M668.09,423.3l21.57.48,34.23,2.67c3.67.29,3.86,2.47,5.36,4.04l-7.11,4.81c-2.75-2.39-5.83-1.9-9.35-2.07l-48.81-2.29c-.74-.03-1.14-.41-1.15-1.08l5.26-6.57Z"/>
      <path class="cls-5" d="M722.14,435.3c-21.67,19.85-44.91,34.41-74.78,39.86-1.06,3.26.29,5.9.34,8.53l.05,2.34-68.76,6.69c-17.01,1.64-32.6,5.85-46.94,14.06l-1.1-3.33c33.23-18.65,64.17-15.43,82.73-21.9,1.2-.42,1.23-2.92,1.03-3.67l17.01-2.35c1.87-.26,2.9-1.43,2.9-3.15,6,1.29,12.27-.64,17.84-4.8l-28.89-3.89-.66-1.45c2.73-1.08,4.52-2.35,7.78-2.57,13.31-.89,26.71-3.76,39.82-7.95,1.49-.48,2.19-1.44,2.25-2.48,5.07-.15,10.14-1.58,14.37-5.12l-37.43.46,13.14-14.71c0,.67.41,1.05,1.15,1.08l48.81,2.29c3.52.16,6.6-.32,9.35,2.07Z"/>
      <path class="cls-7" d="M553.77,470.47l-.53,12.12-.25,2.2c-1.93-.77-2.95,1.2-4.03,1.67-3.53,1.54-6.88,4.05-8.88,7.33-.6-.01-1.62.32-2.28.81l-11.91,8.93c2.06.97,3.87.6,5.05-.06l1.1,3.33c-11.07,6.34-20.75,14.62-30.6,23.4l-11.6,10.35-4.14-15.69c2.7-.55,5.99-.99,8.41-2.98l18.15-14.83c3.14-2.57,6.18-5.82,7.4-9.38l6.82-4.53c.08.66,1.64,2.04,2.22,1.49l25.07-24.15Z"/>
      <path class="cls-8" d="M554.05,517.07c4.27,2.01,8.77.93,9.98,4.98l-11.39,3.48c-2.14.65-4.45.78-6.37.63-3.76-.29-7.92-2.7-11.36-.16l-13.33-2.33c1.4-1.79,2.71-2.79,4.45-4.05,1.3,1.25,2.76,2.23,4.84,2.18l16.19-5.23,6.99.5Z"/>
      <path class="cls-2" d="M534.91,526l.1,1.08c.05,1.37-.5,2.69-1.16,3.86l-2.71-.05c-1.44-1.29-3.28-1.41-4.96,0-6.07,5.12-2.6,12.79-10.11,13.93-1.46-4.52-.91-9.57-.56-14.35.69-2.72,4.42-4.71,6.06-6.81l13.33,2.33Z"/>
      <path class="cls-2" d="M546.75,511.03c3.14-.15,6.18.8,9.1,1.57l-1.8,4.46-6.99-.5-16.19,5.23c-2.07.05-3.53-.93-4.84-2.18,6.09-4.45,13.06-8.21,20.72-8.59Z"/>
      <path class="cls-5" d="M563,534.38c5.07,3.25,7.96,9.31,7.94,15.43l-23.32-8.45c2.61,8.49,3.39,15.92,3.44,23.67-6.98-.72-8.87-8.84-14.21-10.51v-5.11c2.24.33,3.98,2.19,6.45,1.96-1.52-5.37-1.28-9.5.72-13.44.64-1.26.88-2.78.78-4.24,9.47.99,12.45,7.04,18.2.69Z"/>
      <path class="cls-7" d="M531.15,530.9c-.09,5.26,1.97,10.91.5,16.02l-3.72,12.98c-5.93-2.64-9.87-8.92-11.85-15.06,7.52-1.14,4.04-8.81,10.11-13.93,1.68-1.42,3.52-1.3,4.96,0Z"/>
      <path class="cls-4" d="M570.94,549.8v3.97s-16.42-3.44-16.42-3.44c.66,6.75.47,12.4-2,18.02-2.03-.91-1.59-2.41-1.46-3.33-.05-7.75-.83-15.18-3.44-23.67l23.32,8.45Z"/>
      <path class="cls-6" d="M564.03,522.05l5.64-.4c.76.06,2.05.76,2.14,1.57.13,1.16-1.36,1.81-2.14,2.18l-10.67,5.43-12.68-.84-.05-3.83c1.92.15,4.23.02,6.37-.63l11.39-3.48Z"/>
      <path class="cls-6" d="M536.62,548.19l.24,1.21v5.11s-6.32,10.18-6.32,10.18c-2.04.73-3.07-3.19-2.61-4.79l3.72-12.98,4.97,1.27Z"/>
      <path class="cls-2" d="M546.33,530l12.68.84,3.99,3.54c-5.75,6.35-8.73.3-18.2-.69l-2.78-1.15v-2.87c1.22.45,3.01.25,4.3.34Z"/>
      <path class="cls-5" d="M569.67,521.65l-5.64.4c-1.21-4.05-5.71-2.97-9.98-4.98l1.8-4.46c6.87,1.82,15.09,4.76,13.82,9.04Z"/>
      <path class="cls-5" d="M582.23,399.08l-3.78,12-4.41,12.66c-7.04.93-9.77,6.58-10.35,13.62-3.79-10.29-.16-20.18-1.14-29.72,1.62-2.35,3.47-5.35,1.63-9.38-15.15,19.47-20.35,44.8-16.79,69.1l-11.53,11.65c.54-2.1-.01-4.92-.81-7.71l-9.7,13.94c-.77-2.54.03-4.77.71-7.42l12.75-49.99c2.29-8.99,7.59-16.28,11.52-24.57,6.04-12.74,13.79-24.22,24.97-32.9,8.25-6.41,17.09-11.74,28.34-13.32l-19.09,24.54c-7.01,10.53-13.04,21.37-15.3,33.77,6.11-3.85,6.81-13.4,12.98-16.27Z"/>
      <path class="cls-8" d="M644.18,349.15c-12.12,9.84-22.41,21.79-27.24,36.97-20.59,13.61-37.32,31.73-50.58,53.05l-8.17,13.13c-6.19-6.88-.43-14.98-4.72-18.6,2.72-8.71,3.77-18.37,9.08-26.06.97,9.54-2.65,19.42,1.14,29.72.58-7.04,3.31-12.69,10.35-13.62l4.41-12.66c2.01.01,2.87-1.13,3.96-2.67l10.19-14.43c9.07-1.58,11.91-9.67,15.66-16.97l8.68-16.88-4.11.94c6.74-9.97,19.41-13.41,31.35-11.92Z"/>
      <path class="cls-4" d="M608.26,377.01c-6.59,1.28-12.99,10.12-15.66,16.97l-10.19,14.43c-1.09,1.54-1.95,2.69-3.96,2.67l3.78-12c6.2-15.5,17.23-28.2,30.61-38.01l4.11-.94-8.68,16.88Z"/>
      <path class="cls-1" d="M535.86,479.02c-1.4,5.47-5.71,9.87-9.37,14.11l-6.82,4.53c1.43-4.18,3.05-8.62,5.68-12.41l9.7-13.94c.8,2.79,1.35,5.61.81,7.71Z"/>
      <path class="cls-5" d="M636.88,444.19l-3.84-7.36c-1.33-2.69-5.12-3.06-6.42-5.6l2.08-3.45c.39-.65-.26-1.37-.6-1.44l-1.29-.3c-.35-2.8-3.75-2.56-6.11-2.07-.25-2.84,1.91-3.77,3.77-5.49,10.3-9.55,22.14-16.74,36.09-19.77,5.7-7.36,11.2-14.18,15.64-23.27-3.12-.08-6.77,1.25-9.27,2.77-.51-1.97.47-3.02,2.17-3.99l14.68-8.37c4.76-2.72,10.26-2.2,15.25-2.69-5.21,12.89-13.24,24.37-23.08,34.92-9.97,18.15-22.75,34.09-39.05,46.1Z"/>
      <path class="cls-7" d="M645.68,391.16c-11.01,6.72-24.18,21.15-28.77,33.77l-36.41,23.51c-1.6,1.03-2.97,1.67-4.55,1.53l19.34-30.09c-.08-.84-2.06-1.23-2.83-.9,6.62-9.58,16.04-16.58,25.59-23.89,12.81-8.76,25.96-17.48,41.56-20-5.26,6.55-11.76,9.13-13.93,16.07Z"/>
      <path class="cls-4" d="M620.69,423.97c-1.19.25-2.83.36-3.77.96,4.59-12.62,17.76-27.05,28.77-33.77l21.23-12.95c2.5-1.52,6.15-2.85,9.27-2.77-4.44,9.09-9.94,15.91-15.64,23.27-13.95,3.03-25.78,10.22-36.09,19.77-1.86,1.72-4.02,2.65-3.77,5.49Z"/>
      <path class="cls-1" d="M622.95,431.99c-.15.99-.45,2.23-1.74,3.28-15.3,12.44-31.83,22.51-49.53,31.25l-4.87,3.16c-1.84,1.2-3.89,2.79-7.22,2.11l6.63-6.65c18.66-11.64,37.57-22.79,55.62-35.5.22,1.03.5,1.74,1.1,2.35Z"/>
      <path class="cls-6" d="M562.55,407.64c-5.31,7.68-6.36,17.35-9.08,26.06s-3.84,18.18-1.05,27.34c-.39,3.82-1.46,5.52-5.03,6.32-3.56-24.3,1.64-49.63,16.79-69.1,1.83,4.03-.01,7.04-1.63,9.38Z"/>
      <path class="cls-1" d="M575.96,449.97c-1.68,2.61-4.08,4.09-7.04,5.96-2.53,1.59-4.4,4.45-8.13,4.04,8.86-15.57,19.07-29.39,31.67-40.99.77-.34,2.75.06,2.83.9l-19.34,30.09Z"/>
      <path class="cls-5" d="M566.22,465.14l-6.63,6.65c3.33.68,5.38-.91,7.22-2.11,1.9,1.38,2.52,3.48,2.67,5.65l-8.52,4.26-7.71,2.99.53-12.12,8.55-6.32c1.16-.86,3.69-.29,3.9,1Z"/>
      <path class="cls-1" d="M558.19,452.3c-1.66,2.67-2.44,7.32-5.77,8.74-2.79-9.17-1.68-18.62,1.05-27.34,4.29,3.62-1.48,11.72,4.72,18.6Z"/>
      <path class="cls-4" d="M626.8,426.04l1.29.3c.34.08.98.79.6,1.44l-2.08,3.45c-1,.75-2.59.7-3.67.77-.6-.61-.88-1.32-1.1-2.35,1.56-1.1,2.57-3.38,4.95-3.61Z"/>
      <path class="cls-7" d="M636.88,444.19c-11.12,8.2-23.19,15.04-36.65,19.94l-30.75,11.21c-.15-2.18-.77-4.27-2.67-5.65l4.87-3.16c17.7-8.75,34.22-18.81,49.53-31.25,1.29-1.05,1.58-2.3,1.74-3.28,1.07-.06,2.67-.01,3.67-.77,1.3,2.54,5.09,2.9,6.42,5.6l3.84,7.36Z"/>
      <path class="cls-1" d="M622.9,462.24l.66,1.45c-2.12.43-4.86,2.48-7.18,4.76l18.24,3.93c0,1.72-1.03,2.89-2.9,3.15l-17.01,2.35c-16.71.99-33.34,2.49-49.67,6.28,2.03-2.93,5.83-4.51,9.66-5.75,16.36-5.3,32.57-9.99,48.21-16.18Z"/>
      <path class="cls-2" d="M614.7,477.89c.2.75.18,3.25-1.03,3.67-18.56,6.47-49.5,3.26-82.73,21.9-1.19.67-2.99,1.03-5.05.06l11.91-8.93c.65-.49,1.68-.82,2.28-.81,3.27.08,6.21-2.42,9.14-3.47l5.83-2.08c2.27-.81,5.12-1.61,6.67-4.05l3.31-.02c16.32-3.79,32.95-5.28,49.67-6.28Z"/>
      <path class="cls-1" d="M648.51,445.71c-.18,1.84.92,4.22,3.42,4.15l20.83-.63c-.06,1.04-.76,2-2.25,2.48-13.1,4.19-26.51,7.06-39.82,7.95.23-.98,1.05-1.86,2.26-2.73l15.57-11.22Z"/>
      <path class="cls-4" d="M672.75,449.23l-20.83.63c-2.5.08-3.6-2.31-3.42-4.15.44-.32.83-.74,1.18-1.13l37.43-.46c-4.23,3.54-9.31,4.97-14.37,5.12Z"/>
      <path class="cls-4" d="M560.96,479.6c-.1,1.61-.02,3.26.77,4.59-1.55,2.44-4.41,3.24-6.67,4.05-.17-1.58-.84-2.82-2.06-3.45l.25-2.2,7.71-2.99Z"/>
      <path class="cls-2" d="M634.61,472.39l-18.24-3.93c2.33-2.28,5.06-4.33,7.18-4.76l28.89,3.89c-5.57,4.16-11.84,6.09-17.84,4.8Z"/>
      <path class="cls-4" d="M548.96,486.46l.26,3.86c-2.94,1.05-5.87,3.55-9.14,3.47,2-3.28,5.35-5.79,8.88-7.33Z"/>
      <path class="cls-6" d="M552.99,484.79c1.22.63,1.89,1.87,2.06,3.45l-5.83,2.08-.26-3.86c1.08-.47,2.1-2.44,4.03-1.67Z"/>
      <path class="cls-1" d="M546.27,526.17l.05,3.83c-1.29-.09-3.08.11-4.31-.34l-7-2.58-.1-1.08c3.44-2.54,7.6-.12,11.36.16Z"/>
      <path class="cls-1" d="M533.86,530.94c0,2,2.06,3.55,2.96,4.9l-.2,12.35-4.97-1.27c1.47-5.11-.59-10.76-.5-16.02l2.71.05Z"/>
      <path class="cls-7" d="M542.02,529.66v2.87c-1.75.16-3.17,1.47-2.98,3.26l-2.22.04c-.9-1.34-2.96-2.9-2.96-4.9.66-1.18,1.21-2.49,1.16-3.86l7,2.58Z"/>
      <path class="cls-2" d="M539.03,535.8c1.18,1.49,3.03,2.09,4.99,2.13-2,3.94-2.24,8.07-.72,13.44-2.47.23-4.21-1.63-6.44-1.96l-.24-1.21.2-12.35,2.22-.04Z"/>
      <path class="cls-1" d="M542.02,532.53l2.78,1.15c.1,1.46-.14,2.98-.78,4.24-1.96-.04-3.81-.64-4.99-2.13-.18-1.79,1.24-3.1,2.99-3.26Z"/>
      <path class="cls-1" d="M608.26,377.01c-3.75,7.3-6.59,15.39-15.66,16.97,2.67-6.84,9.07-15.68,15.66-16.97Z"/>
      <g>
        <path class="cls-2" d="M255.9,370.07c.08,8.32,4.87,13.48,3.54,18.1-3.07-2.73-7.19-4.34-10.81-6.13-5.09-3.49-10.38-7.05-16.79-9.59l14.14,1.4c-4.18-6.76-11.7-8.48-18.29-12.16-2.47-1.38-3.52-5.19-7.57-4.49,2.23,4.31,3.02,8.7,4.4,12.74-.74.64-3.46,1.53-4.18.32-12.58-21.1-23.88-24.15-47.97-21.29-1.73-2.09-4.75-3.11-7.95-3.88-.11,2.32.83,3.66,1.55,5.26-1.33,1.46-2.28,3.01-3.26,5.17l-5.5-4.46c-9.71-.23-18.95-.89-29.31,1.49l31.12,14.82c2.59,1.23,5.96-.35,8.34-.06l9.19,1.12c1.61.2,4.09,1.26,5.59,1.77l6.97,2.35c5.19,3.18,10.38,6.27,14.74,11.45l-3.59,2c-2.43-1.25-5.15-2.57-7.77-2.24-2.42.3-4.24-1.23-6.59-2.34-8.93-4.22-19.09-5.96-28.57-4.48-.85-2.44-3.47-3.56-5.87-4.87-10.23-5.57-19.78-11.26-30.61-15.3.13,2.81,1.08,4.8,2.2,6.18-7.3-5.14-8.53-14.83-14.63-12.64-.18-1.68-3.27-4.53-1.19-6.91l57.93-4.52c10.91-.85,22.06-.17,32.79,2l22.1,7.37c.72,1.3,1.4,3.33,2.35,3.77,1.31.61,3.62-.39,5.02-.02,8.37,2.16,14.86,7.56,22.24,11.84,2.6,1.51,6.23,3.32,6.26,6.23Z"/>
        <path class="cls-1" d="M112.39,440.08c10.52,16.16,25.84,28.23,41.76,38.7,11.31,10.8,27.95,13.84,43.36,13.65.34,1.77,1.8,2.49,3.87,2.42l8.23-.3c.06.98.59,1.8,1.91,2.19,8.24,2.38,16.67,2.81,24.91,1.67-2.67,4.17-5.91,7.6-6.93,12.18-10.16-.15-20.54.77-30.96-1.63,1.08-4.18,3.63-6.69,5.99-10.34-7.24-2.69-13.96-2.8-21.1-2.83-18.8-.08-36.41-5.65-49.92-19.01-10.41-10.3-18.58-23.13-22.5-36.65l1.38-.04Z"/>
        <path class="cls-5" d="M277.06,390.95l5.92,12.11c6.39,13.08,9.36,27.61,6.8,41.82-3.28-1.3-2.45-6.65-6.96-7.73.47,5.97,1.91,12.33,5.83,13.89-1.07,3.69,1.55,7.46,2.63,10.8,1.41,4.36,1.65,9.23-.26,13.37l-2.25-1.61-3.54-12.79-1.63-4.03c-.43-7.58-5.71-11.86-7.47-17.71.91-.99,4.3-3.85,2.92-5.94-2.65-4.01-6.46-8.03-10-10.62.95-3.09,2.3-5.7,2.21-8.45-.31-9.79-4.44-19.33-11.81-25.88,1.33-4.62-3.46-9.78-3.54-18.1,8.71,4.77,16.81,11.98,21.16,20.89Z"/>
        <path class="cls-2" d="M318.26,455.38l-.33,3.21c-2.95.72-4.61,3.61-5.45,6.65l-3.45,11.84c-2.91-3.32-6.65-5.89-11.5-6.05.41,10.38,5.37,18.86,12.31,26.31,2.07,2.22,3.4,5.31,6.53,5.5.04.68.29,1.41.77,1.82.52.45,1.31.55,1.95.5.26,1.46,1.18,3.17-.76,4.47-14.28-17.17-27.32-11.91-38.74-15.89-12.52-4.37-28.98,1.55-40.11,10.14-1.55,1.19-2.44,2.46-2.51,4.17-1.75.16-3.5,1.64-4.57,2.92l-2.9-.38c1.02-4.57,4.26-8,6.93-12.18,3.47-.48,6.79-3.85,9.91-5.38l5.28-2.59c5.12-2.51,16.18,1.32,15.94-4.48l6.29.32,11.94,5.19c.17-5.57-4.52-5.83-8.3-5.99l-6.99-6.81c-1.55-1.48,1.58-4.24,3.17-4.14l25.34,18.08-8-17.39c1.91-4.14,1.67-9.01.26-13.37h2.77s7.95,1.02,7.95,1.02c1.04.13,2.36,1.89,4.39,1.45,1.32-3.59,3.39-6.82,5.99-9.14s4.19-.59,5.89.21ZM299.81,492.87l-.5.5.5.5.5-.5-.5-.5Z"/>
        <path class="cls-1" d="M339.6,545.88l-8.26,17.67c-6.57,3.25-11.65,11.86-19.2,13.81-3.01-.24-5.24-5.58-5.81-8.81-6.75,2.7-11.4,10.14-17.45,6.37-1.9-1.19-3.44-4.38-4.33-6.43,6.54-2.42,12.03-5.77,16.73-11.64,2.39,4.09,3.55,7.46,4.86,11.75,11.82-5.81,14.95-21.17,20.85-24.92,4.04-2.57,8.92.42,12.61,2.21Z"/>
        <path class="cls-2" d="M139.82,429.39c5.55,1.12,11.14,4,16.78,5.11l10.1,1.98,18.57,7.47,1.89,7.02-4.68-1.18-20.19-7.79c-10.82-4.18-28.96-3.08-45.97-6.74-2.09-.45-3.9,3.25-3.94,4.82l-1.38.04c-1.09-3.77-3.4-6.53-4.48-11.42,11.41-.45,22.62-1.46,33.29.69Z"/>
        <path class="cls-1" d="M292.22,508.16c.4.37.73.98.98,1.94-6.94-1.5-13.97,3.38-19.22,7.98-9.71,1.66-22.57,5.67-32.49,4.57l-9.93-1.09c-1.3-.14-3.42-1.44-3.02-2.36,2.14-2.2,4.2-3.82,3.99-6.47,20.86.31,37.12-10.09,59.7-4.57Z"/>
        <path class="cls-6" d="M330.66,535.39c4.74.15,6.45,6.3,10.6,5.7.33,1.92-.96,3.28-1.66,4.79-3.69-1.79-8.57-4.78-12.61-2.21-5.89,3.75-9.02,19.12-20.85,24.92-1.31-4.29-2.47-7.66-4.86-11.75-4.71,5.87-10.2,9.22-16.73,11.64-.4-.92-1.55-1.97-2.12-3.08l3.15-2.64c3.77-3.48,9.84-6.69,11.49-11.78,1.78-1.13,3.43-2.03,5.34-2.19.02,1.12-.29,3.01.12,4.06l3.36,8.61c6.59-7.45,10.63-16.1,15.08-24.89,3.42-1,6.64-1.27,9.68-1.18Z"/>
        <path class="cls-1" d="M132.56,401c-.55,4.36,2.42,6.36,4.21,9.4,4.72,8.03,11.4,15.08,18.91,21.42.76.64.96,1.72.92,2.68-5.64-1.11-11.23-3.99-16.78-5.11l-11.82-21.07c-8.19-15.71-14.04-32.27-17.77-49.13,2.06.89,2.51,2.85,3.32,4.85,5.3,13.21,10.78,26.05,19.03,36.95Z"/>
        <path class="cls-5" d="M123.04,362.96l3.04,3.74c.25,2.26.42,4.57,1.68,7l7.85,15.25c.76,1.48,1.16,2.82,1.3,4.47-3.54.02-4.03,5.14-4.34,7.57-8.24-10.9-13.73-23.74-19.03-36.95-.81-2.01-1.25-3.96-3.32-4.85-.58-2.64-1.54-6.36-1.82-8.88,6.1-2.19,7.33,7.5,14.63,12.64Z"/>
        <path class="cls-6" d="M279.42,498.67c5.96-.2,11.52,1.61,16.94,3.84-.37,2.67-2.45,3.88-4.13,5.66-22.57-5.52-38.84,4.89-59.7,4.57l-.14-1.77c1.08-1.28,2.82-2.76,4.57-2.92,7.69-.72,18.98-8.57,42.46-9.38Z"/>
        <path class="cls-1" d="M348.65,522.06c-.32,1.96-.47,3.76-1.14,5.84-4.03-.59-6.42-4.1-9.39-6.89-3.49-3.28-6.79-6.34-7.49-10.79,1.31.29,2.03-1.23.66-1.56-4.68-14.16-7.8-28.64-7.61-43.12.94.39,1.91,1.31,2.27,2.69l6.44,24.33c2.58,9.73,6.29,18.78,12.15,26.91,1.08,1.49,2.18,2.48,4.1,2.59Z"/>
        <path class="cls-6" d="M294.14,420.51l1.76,11.72c1.05,6.98,1.12,13.31-.18,20.28l-1.68,9.34h-2.77c-1.08-3.35-3.7-7.12-2.63-10.81.59-2.04.75-4.04,1.13-6.16,2.56-14.21-.41-28.74-6.8-41.82l1.6-.11c2.73-.05,8.57,10.88,9.58,17.55Z"/>
        <path class="cls-2" d="M296.29,532.55l.02,1.27c-.41.13-.87.62-1.2.89-9.94.73-16.95,10.92-23.95,10.06,1.19-4.12,3.76-7.68,6.44-11l9.94-.82,8.76-.39Z"/>
        <path class="cls-2" d="M317.27,525.02c.63.16,1.11,1.2,1.31,1.75.35,1.99-.6,4.16-3.28,4.17-12.56,8.39-10.74,20.96-11.56,21.79-.25.25-.9.3-1.21.12-.41-1.06-.1-2.94-.12-4.06-.09-5.05.88-9.99,3.72-15.15-5.17-.29-5.77,4.26-8.16,5.78-5.77,3.68-13.52,16.45-12.39,23.33l-3.15,2.64c-1.29-2.52-1.89-6.51-.64-9.46,1.78-4.21,4.35-8.37,5.33-13.19,3.27-1.51,5.9-5.1,7.98-8.03l1.2-.89c1.29.15,1.78-1.09,2.48-1.57,4.88-3.41,10.2-6.01,15.98-7.32.68-.15,1.84-.08,2.51.1Z"/>
        <path class="cls-2" d="M293.21,510.11l13.58,2.93c.99,1.4,2.27,3.48,3.63,4.77-5.12,2.32-19.9-7.47-34.41,8.17-.62-.11-1.59.17-2.16.24-.86.19-3.26-.26-3.76-1.42,1.14-2.16,2.47-5.29,3.9-6.71,5.26-4.6,12.28-9.48,19.22-7.98Z"/>
        <path class="cls-1" d="M301.99,462.86l-7.95-1.01,1.68-9.34c1.3-6.97,1.23-13.31.18-20.28l-1.76-11.72c2.73,0,3.09,2.31,4.17,4.34,6.44,12.09,7.86,25.24,3.68,38.01Z"/>
        <path class="cls-6" d="M323.68,465.54c-.18,14.48,2.93,28.96,7.61,43.12,1.37.33.64,1.85-.66,1.56-4.37-4.57-7.39-11.25-8.83-17.54-2.57-11.2-3.37-22.68-3.87-34.09l.33-3.21c4.14,1.94,5.48,5.64,5.42,10.17Z"/>
        <path class="cls-1" d="M287.12,542.73c-.99,4.83-3.55,8.98-5.33,13.19l-13.34,1.97c-.54-1.77.13-2.99.1-4.06,5.42-4.86,11.96-8.06,18.57-11.11Z"/>
        <path class="cls-5" d="M295.1,534.7c-2.07,2.93-4.71,6.52-7.98,8.03-6.6,3.05-13.15,6.25-18.57,11.11-.09-3.29-.31-7.03,2.6-9.08,7,.86,14.01-9.33,23.95-10.06Z"/>
        <path class="cls-5" d="M298.78,532.24c-.7.49-1.19,1.73-2.48,1.57l-.02-1.27c.7-.03,1.57-.69,2.49-.31Z"/>
        <path class="cls-5" d="M295.1,534.7c.33-.27.79-.76,1.2-.89l-1.2.89Z"/>
        <path class="cls-1" d="M276.01,525.97l11.3,2.01.21,4.96-9.94.82c-.81-2.79-4.62-2.49-3.74-7.55.57-.08,1.54-.35,2.16-.24Z"/>
        <path class="cls-4" d="M284.57,402.96l-1.6.11-5.92-12.11c3.6,2.15,7.86,8.13,7.51,12.01Z"/>
        <path class="cls-5" d="M192.48,383.76l6.74,20.35c2.26,6.71,5.17,12.82,11.84,17.45-.63-7.62-.76-14.66-.66-21.86,3.74-.78,7.31.53,10.93,2.28l16.18,7.82,5.66,22.34c1.84,7.07,5.34,13.38,11.49,18.32l1.57-22.38c7.12.13,12.58,5.28,16.97,10.54.35,8.55-.34,17-2.54,25.89-3.39-.51-5.14-2.29-7.33-3.53-.21-5-6.7-6.52-14.98-9.86,0-1.26-.28-2.7-1.36-3.81-8.67-8.97-19.48-14.69-31.17-17.65-.39-3.67-6.29-6.25-11.41-7.63-4.39-11.98-20.67-15.25-33.97-20.49-2.57-1.01-5.97-3.97-6.89-6.62l-6.24-17.99c9.49-1.48,19.64.26,28.57,4.48,2.35,1.11,4.16,2.64,6.59,2.34Z"/>
        <path class="cls-8" d="M248.63,382.04c.33,3.59,2.55,6.6,3.47,9.79,1.95,6.77,3,13.68,2.24,21.16-.16,1.58.58,3.13,1.05,4.12-3.6-.82-2.22-6.53-12.18-14.02l-10.31-7.75c.5-7.51-.63-15.03-1.05-22.89,6.41,2.54,11.7,6.1,16.79,9.59Z"/>
        <path class="cls-1" d="M172.37,348.97c1.08,1.3,1.88,2.65,4.12,3.06,24.85,4.56,44.22,15.56,49.87,40.45l-5.79-1.52c.6-3.66-2.75-5.67-4.51-8.6-7.27-12.12-18.17-20.65-31.81-23.14-1.88-.34-3.83-1.8-6.3-.42,2.2,4.11,3.8,7.48,4.19,11.42-1.5-.51-3.98-1.57-5.59-1.77-1.6-7.05-4.87-13.93-10.58-18.09-.71-1.59-1.66-2.93-1.55-5.26,3.21.77,6.22,1.79,7.95,3.88Z"/>
        <path class="cls-8" d="M165.97,350.35c5.71,4.16,8.97,11.04,10.58,18.09l-9.19-1.12c-2.39-.29-5.75,1.29-8.34.06l-31.12-14.82c10.36-2.39,19.61-1.72,29.31-1.49l5.5,4.46c.98-2.16,1.93-3.71,3.26-5.17Z"/>
        <path class="cls-8" d="M220.57,390.97c-4.15-1.09-8.46-1.86-12.33.27-3.08-1.04-5.17-3.78-7.98-5.23l3.59-2c-4.36-5.17-9.54-8.26-14.74-11.45.78-6.07-4.2-8.71-4.85-13.34,13.65,2.49,24.55,11.02,31.81,23.14,1.76,2.94,5.1,4.95,4.51,8.6Z"/>
        <path class="cls-5" d="M224.52,369.94c2.56,7.46,4.36,15.35,4.17,23.28l-2.33-.73c-5.65-24.89-25.01-35.89-49.87-40.45-2.24-.41-3.04-1.76-4.12-3.06,24.09-2.86,35.39.19,47.97,21.29.72,1.21,3.45.32,4.18-.32Z"/>
        <path class="cls-1" d="M157.32,376.94l6.24,17.99-6.86-1.61c-1.1-4.48-3.35-10.17-7.42-13.01l-18.35-12.82c-1.45-1.02-3.4-.97-4.85-.79l-3.04-3.74c-1.12-1.37-2.07-3.37-2.2-6.18,10.84,4.03,20.39,9.73,30.61,15.3,2.4,1.31,5.03,2.42,5.87,4.87Z"/>
        <path class="cls-1" d="M200.26,386.01c2.81,1.45,4.9,4.19,7.98,5.23,1.06,2.66,2.21,5.52,2.17,8.46-.1,7.2.03,14.24.66,21.86-6.67-4.63-9.58-10.73-11.84-17.45l-6.74-20.35c2.62-.33,5.35.99,7.77,2.24Z"/>
        <path class="cls-1" d="M231.84,372.45c.43,7.86,1.55,15.38,1.05,22.89-1.01-.76-3.61-.39-4.21-2.13.19-7.93-1.6-15.82-4.17-23.28-1.39-4.04-2.17-8.43-4.4-12.74,4.05-.7,5.1,3.11,7.57,4.49,6.59,3.68,14.11,5.4,18.29,12.16l-14.14-1.4Z"/>
        <path class="cls-4" d="M259.44,388.17c7.37,6.55,11.5,16.09,11.81,25.88-2.19.19-2.09-1.23-2.73-3.11-2.83-8.24-8.92-15.32-16.42-19.11-.92-3.2-3.14-6.2-3.47-9.79,3.62,1.79,7.74,3.4,10.81,6.13Z"/>
        <path class="cls-5" d="M184.25,359.22c.65,4.63,5.63,7.27,4.85,13.34l-6.97-2.35c-.38-3.94-1.99-7.31-4.19-11.42,2.47-1.37,4.42.08,6.3.42Z"/>
        <path class="cls-8" d="M309.03,477.08l4.23,16.71c.54,2.15,1.63,4.05,3.94,4.59.12-3.68,1.85-5.55,4.6-5.7,1.44,6.29,4.46,12.97,8.83,17.54.7,4.45,4,7.5,7.49,10.79,2.97,2.79,5.36,6.3,9.39,6.89-1.05,3.26-2.39,7.78-4.8,10l-18.93-14.65-6.36-1.38c-1.98-.43-4.04-5.4-7-4.06-1.36-1.29-2.65-3.37-3.63-4.77,1.39.03,2.89.81,5.07-.65-4.84-4.39-9.95-7.6-15.5-9.88s-10.97-4.04-16.94-3.84l.16-4.92c11.42,3.98,24.45-1.28,38.74,15.89,1.95-1.3,1.03-3.01.76-4.47-.34-1.9-.32-3.8-1.6-5.83-2.02,1.34-.73,2.54-1.12,3.5-3.13-.19-4.46-3.28-6.53-5.5-6.94-7.45-11.9-15.93-12.31-26.31,4.85.16,8.59,2.73,11.5,6.05Z"/>
        <path class="cls-1" d="M342.71,537.9l-1.45,3.19c-4.16.6-5.87-5.55-10.6-5.7-2.72-4.15-7.27-7.62-12.08-8.63-.2-.54-.69-1.58-1.31-1.75l.16-3.15,6.36,1.38,18.93,14.65Z"/>
        <path class="cls-5" d="M182.48,449.79c.28,2.67,1.98,4.99,3.98,7.11l11.65,12.34-23.43,7.81c-1.68.56-1.4,1.97-1.88,2.57-.82,1.04-2.64,1.68-3.07,3.46l-8.31-2.17c-2.6-.68-4.53-2.52-7.29-2.13-15.92-10.47-31.23-22.54-41.76-38.7.04-1.57,1.84-5.27,3.94-4.82,17.01,3.67,35.15,2.57,45.97,6.74l20.19,7.79ZM169.09,461.44c-12.29-6.83-23.52-13.06-37.44-15.87,7.54,9.1,17.53,14.66,27.8,19.33,3.02.24,7.63-.67,9.64-3.46Z"/>
        <path class="cls-5" d="M217.72,474.67l10,.52c1.47,7.74,9.85,8.21,8.83,12.77l-17.19,5.06c-3.4,1-6.66,1.41-9.76,1.52l-8.23.3c-2.07.07-3.53-.65-3.87-2.42,1.27-1.13,2.31-3.33,1.89-4.99-.67-2.72-3.5-2.4-5.61-2.42l.06-3.3c4.18.46,16.06-7.45,23.87-7.04Z"/>
        <path class="cls-4" d="M169.74,483.08c7.47,3.06,15.95,1.86,24.05,1.94,2.11.02,4.94-.3,5.61,2.42.41,1.66-.62,3.86-1.89,4.99-15.41.19-32.05-2.84-43.36-13.65,2.76-.39,4.69,1.45,7.29,2.13l8.31,2.17Z"/>
        <path class="cls-4" d="M236.55,487.97l7.88,3.01c1.04.4,1.63,1.12,1.9,2.05-3.13,1.53-6.44,4.9-9.91,5.38-8.23,1.14-16.67.71-24.91-1.67-1.32-.38-1.85-1.21-1.91-2.19,3.11-.11,6.36-.52,9.76-1.52l17.19-5.06Z"/>
        <path class="cls-1" d="M276.13,439.06c1.76,5.85,7.03,10.14,7.47,17.71-3.76,2.49-3.3,9.52-5.35,10.66-1.36.75-3.12.81-5.39.33l.82,6.75c-1.59-.1-4.73,2.65-3.17,4.14l6.99,6.81-3.64.81-6.29-.32-11.81-1.46c-8.99-1.11-16.79-5.73-21.88-13.45l10.21,1.45c6.47.92,12.62,1.26,18.84-1.28-1.62-4.06-3.29-7.04-3.74-10.58l4.15.35c2.19,1.25,3.94,3.02,7.33,3.53,2.2-8.89,2.89-17.34,2.54-25.89l2.92.44Z"/>
        <path class="cls-2" d="M220.57,390.97l5.79,1.52,2.33.73c.6,1.74,3.2,1.37,4.21,2.13l10.31,7.75c9.96,7.49,8.58,13.2,12.18,14.02,4.56,1.03,9.76,2.53,13.65,5.38,3.54,2.59,7.36,6.62,10,10.62,1.38,2.09-2.02,4.95-2.92,5.94l-2.92-.44c-4.39-5.26-9.85-10.41-16.97-10.54.24-3.37-.97-6.77-4.12-8.81-4.02-4.97-9.43-6.98-14.6-9.48l-16.18-7.82c-3.62-1.75-7.18-3.05-10.93-2.28.04-2.94-1.1-5.8-2.17-8.46,3.87-2.13,8.18-1.36,12.33-.27Z"/>
        <path class="cls-1" d="M271.25,414.05c.09,2.75-1.27,5.36-2.21,8.45-3.89-2.85-9.09-4.35-13.65-5.38-.48-.99-1.22-2.54-1.05-4.12.76-7.48-.29-14.4-2.24-21.16,7.51,3.79,13.59,10.87,16.42,19.11.64,1.88.54,3.29,2.73,3.11Z"/>
        <path class="cls-4" d="M285.22,460.81c-2.73,4.65-3.28,10.69-2.37,16.3,2.66-1.81,3.83-3.31,5.91-3.51l2.25,1.61,8,17.39-25.34-18.08-.82-6.75c2.27.48,4.04.42,5.39-.33,2.05-1.14,1.59-8.17,5.35-10.66l1.63,4.03Z"/>
        <path class="cls-6" d="M288.76,473.6c-2.08.19-3.25,1.69-5.91,3.51-.9-5.61-.36-11.64,2.37-16.3l3.54,12.79Z"/>
        <path class="cls-1" d="M289.77,444.89c-.38,2.12-.54,4.12-1.13,6.16-3.92-1.57-5.36-7.93-5.83-13.89,4.51,1.09,3.69,6.44,6.96,7.73Z"/>
        <path class="cls-5" d="M259.18,460.63c.44,3.54,2.12,6.52,3.74,10.58-6.22,2.54-12.38,2.2-18.84,1.28l-10.21-1.45c5.09,7.72,12.88,12.34,21.88,13.45l11.81,1.46c.24,5.8-10.82,1.97-15.94,4.48-.71-2.11-2.4-2.67-4.36-3.39-7.03-2.59-13.62-6.09-17.62-12.03.47-1.64,1.95-2.6,4.9-2.92-1.61-3.02-3.87-2.61-6.07-3.06l-3.11-10.33c11.21-2.19,23.05-1.81,33.82,1.92Z"/>
        <path class="cls-5" d="M317.93,458.59c.5,11.41,1.3,22.89,3.87,34.09-2.76.15-4.48,2.02-4.6,5.7-2.31-.54-3.4-2.44-3.94-4.59l-4.23-16.71,3.45-11.84c.84-3.05,2.5-5.93,5.45-6.65Z"/>
        <path class="cls-5" d="M279.58,493.74l-.16,4.92c-23.48.81-34.77,8.65-42.46,9.38.08-1.7.97-2.97,2.51-4.17,11.13-8.59,27.59-14.5,40.11-10.14Z"/>
        <path class="cls-1" d="M229.64,475.02c4,5.94,10.58,9.44,17.62,12.03,1.96.72,3.65,1.28,4.36,3.39l-5.28,2.59c-.27-.92-.86-1.65-1.9-2.05l-7.88-3.01c1.02-4.56-7.36-5.03-8.83-12.77.64.03,1.33-.06,1.92-.18Z"/>
        <path class="cls-5" d="M273.84,486.27l3.64-.81c3.78.17,8.47.43,8.3,5.99l-11.94-5.19Z"/>
        <path class="cls-5" d="M319.08,505.16c-.64.05-1.43-.05-1.95-.5-.48-.41-.73-1.14-.77-1.82.39-.96-.89-2.17,1.12-3.5,1.28,2.03,1.25,3.93,1.6,5.83Z"/>
        <rect class="cls-4" x="299.46" y="493.02" width=".71" height=".71" transform="translate(-261.05 356.5) rotate(-45)"/>
        <path class="cls-5" d="M215.62,431.22c.78,3.17,2.92,6.11,2.96,9.51.06,5.12,1.75,9.69,3.22,15.33-8.17-2.06-15.03-4.12-22.79-7.14,1.18,5.07,4.64,8.04,6.38,12.3l-4.35.82-7.9-6.84c-1.94-1.68-3.8-3.67-5.98-4.22l-1.89-7.02-1.88-4.99c-1.04-2.76-2.14-5.32-2.05-7.78,11.46-.88,22.88-1.16,34.28.04Z"/>
        <path class="cls-1" d="M187.16,450.97c2.19.55,4.04,2.54,5.98,4.22l7.9,6.84c3.58,3.1,7.04,6.24,12.06,8.28,2.17.88,4.19,2.13,4.61,4.36-7.81-.41-19.68,7.5-23.87,7.04l-13.78-1.51c-2.6-.28-4.91-.78-7.26-.59.48-.6.2-2.01,1.88-2.57l23.43-7.81-11.65-12.34c-2-2.12-3.7-4.44-3.98-7.11l4.68,1.18Z"/>
        <path class="cls-5" d="M142.52,402.37c.04,2.99,1.82,5.34,3.6,7.92,3.78,5.44,7.4,10.69,12.42,14.47,1.42,5.09,7.1,6.96,8.16,11.72l-10.1-1.98c.04-.96-.16-2.04-.92-2.68-7.51-6.33-14.19-13.39-18.91-21.42,1.69-2.55,1.89-5.4,1.33-8.28l4.43.24Z"/>
        <path class="cls-1" d="M179.71,429.95c.49.12,1.18.83,1.64,1.23-.1,2.46,1.01,5.02,2.05,7.78l1.88,4.99-18.57-7.47c-1.06-4.76-6.74-6.63-8.16-11.72l21.16,5.19Z"/>
        <path class="cls-4" d="M306.79,513.04l-13.58-2.93c-.25-.96-.58-1.57-.98-1.94,1.68-1.77,3.76-2.99,4.13-5.66,5.55,2.29,10.67,5.49,15.5,9.88-2.18,1.46-3.68.68-5.07.65Z"/>
        <path class="cls-5" d="M330.66,535.39c-3.04-.1-6.26.18-9.68,1.18-4.45,8.79-8.5,17.44-15.08,24.89l-3.36-8.61c.31.18.96.13,1.21-.12.82-.83-1-13.4,11.56-21.79,2.69-.01,3.63-2.18,3.28-4.17,4.81,1.01,9.36,4.48,12.08,8.63Z"/>
        <path class="cls-5" d="M297.97,539.42l-.9,11.55c-1.65,5.09-7.72,8.3-11.49,11.78-1.13-6.88,6.62-19.65,12.39-23.33Z"/>
        <path class="cls-1" d="M302.41,548.79c-1.91.16-3.56,1.06-5.34,2.19l.9-11.55c2.39-1.52,2.99-6.07,8.16-5.78-2.85,5.16-3.81,10.1-3.72,15.15Z"/>
        <path class="cls-2" d="M156.7,393.33l6.86,1.61c.92,2.65,4.31,5.61,6.89,6.62-.04.79.03,1.62.37,1.99-9.45-1.34-18.88-2.21-28.29-1.17l-4.43-.24c.57,2.87.37,5.73-1.33,8.28-1.79-3.05-4.76-5.04-4.21-9.4.31-2.43.8-7.56,4.34-7.57l19.8-.1Z"/>
        <path class="cls-8" d="M156.7,393.33l-19.8.1c-.14-1.65-.54-2.99-1.3-4.47l-7.85-15.25c-1.25-2.44-1.43-4.74-1.68-7,1.45-.18,3.4-.22,4.85.79l18.35,12.82c4.07,2.84,6.32,8.53,7.42,13.01Z"/>
        <path class="cls-5" d="M310.42,517.81c2.96-1.34,5.02,3.63,7,4.06l-.16,3.15c-.67-.17-1.83-.25-2.51-.1-.63-4.37-9.57-5.21-16.91-4.49.87,2.18,2.47,2.36,4.27,3.41-4.49,4.01-9.77,5.04-14.82,4.15l-11.3-2.01c14.52-15.63,29.29-5.85,34.41-8.17Z"/>
        <path class="cls-4" d="M314.76,524.92c-5.78,1.31-11.1,3.91-15.98,7.32-.92-.38-1.79.27-2.49.31l-8.76.39-.21-4.96c5.04.9,10.32-.13,14.82-4.15-1.8-1.05-3.4-1.23-4.27-3.41,7.34-.72,16.27.12,16.91,4.49Z"/>
        <path class="cls-1" d="M256.23,428.08l-1.57,22.38c-6.15-4.95-9.65-11.25-11.49-18.32l-5.66-22.34c5.17,2.5,10.58,4.51,14.6,9.48,3.15,2.04,4.36,5.43,4.12,8.81Z"/>
        <path class="cls-2" d="M204.42,422.04c5.12,1.38,11.02,3.96,11.41,7.63l-.21,1.55c-11.4-1.2-22.82-.92-34.28-.04-.45-.39-1.14-1.1-1.64-1.23.22-2.93.21-6.11-.48-9.03,8.5-1.51,16.98-1.09,25.19,1.11Z"/>
        <path class="cls-4" d="M204.42,422.04c-8.2-2.21-16.69-2.63-25.19-1.11-1.48-6.29-4.04-12.65-8.42-17.39-.34-.36-.4-1.2-.37-1.99,13.3,5.24,29.58,8.51,33.97,20.49Z"/>
        <path class="cls-4" d="M248.35,451.13c-7.54-3.03-15.92-3.61-24.12-2.72-.29-3.29-2.38-7.09-5.65-7.69-.04-3.4-2.18-6.34-2.96-9.51l.21-1.55c11.7,2.96,22.5,8.67,31.17,17.65,1.08,1.11,1.36,2.55,1.36,3.81Z"/>
        <path class="cls-2" d="M248.35,451.13c8.28,3.33,14.77,4.85,14.98,9.86l-4.15-.35c-10.77-3.73-22.61-4.1-33.82-1.92-1.07-3.46-.82-6.84-1.13-10.3,8.2-.89,16.58-.32,24.12,2.72Z"/>
        <path class="cls-1" d="M169.09,461.44c-2.01,2.79-6.61,3.7-9.64,3.46-10.28-4.67-20.26-10.23-27.8-19.33,13.92,2.81,25.15,9.04,37.44,15.87Z"/>
        <path class="cls-8" d="M193.85,481.71l-.06,3.3c-8.1-.08-16.58,1.12-24.05-1.94.43-1.79,2.24-2.42,3.07-3.46,2.35-.19,4.67.31,7.26.59l13.78,1.51Z"/>
        <path class="cls-2" d="M205.39,461.22c7.46,3.16,15.14,6.21,23.08,7.83,2.21.45,4.46.04,6.07,3.06-2.95.32-4.44,1.27-4.9,2.92-.59.11-1.28.21-1.92.18l-10-.52c-.43-2.23-2.44-3.48-4.61-4.36-5.02-2.04-8.48-5.18-12.06-8.28l4.35-.82Z"/>
        <path class="cls-1" d="M224.23,448.41c.31,3.46.06,6.84,1.13,10.3l3.11,10.33c-7.94-1.61-15.62-4.66-23.08-7.83-1.74-4.26-5.21-7.23-6.38-12.3,7.76,3.02,14.62,5.08,22.79,7.14-1.48-5.64-3.17-10.21-3.22-15.33,3.28.6,5.36,4.4,5.65,7.69Z"/>
        <path class="cls-8" d="M170.81,403.54c4.37,4.73,6.94,11.1,8.42,17.39.69,2.91.7,6.1.48,9.03l-21.16-5.19c-5.02-3.78-8.64-9.03-12.42-14.47-1.79-2.57-3.56-4.93-3.6-7.92,9.41-1.04,18.84-.17,28.29,1.17Z"/>
      </g>
    </g>
  </g>
  <path class="cls-4" d="M62.94,583.62l-2.21.09-3.8-8.29c-1.07-2.33-2.43-4.4-2.81-6.53,1.3-.09,1.99.84,2.47,1.81l6.35,12.91Z"/>
</svg>