<?xml version="1.0" encoding="UTF-8"?>
<svg id="Réteg_1" data-name="Réteg 1" xmlns="http://www.w3.org/2000/svg" viewBox="0 0 595.28 841.89">
  <defs>
    <style>
      .cls-1 {
        fill: #625757;
      }

      .cls-2 {
        fill: #f8f2ee;
      }

      .cls-3 {
        fill: #f2bfa8;
      }

      .cls-4 {
        fill: #887789;
      }

      .cls-5 {
        fill: #c39c92;
      }

      .cls-6 {
        fill: #bebcc8;
      }

      .cls-7 {
        fill: #25222f;
      }

      .cls-8 {
        fill: #a17376;
      }

      .cls-9 {
        fill: #7997b7;
      }

      .cls-10 {
        fill: #584d4c;
      }

      .cls-11 {
        fill: #7e6a6a;
      }

      .cls-12 {
        fill: #9090aa;
      }

      .cls-13 {
        fill: #3f3a3b;
      }

      .cls-14 {
        fill: #b7b4c4;
      }

      .cls-15 {
        fill: #937e89;
      }

      .cls-16 {
        fill: #af9085;
      }
    </style>
  </defs>
  <rect class="cls-9" x="-46.22" y="-28.05" width="702.57" height="948.13"/>
  <g>
    <g>
      <path class="cls-6" d="M586.05,723.87v50.49s-46.59-.01-46.59-.01l-9.7-18.29c.91.02,2.51.06,3.16-.82l-.75-1.68c-.47-1.04,2.35-3.11,5.61-2.81-.47.91-.8,1.93-.7,2.77.06.5,1.21.66,1.7,1.25.69.84,1.73,2.28,3.04,2.13.77-.09,1.96-1.77,1.89-2.59-.12-1.43-1.02-2.47.16-4.1,1.18,1.96,2.55,2.58,4.28,3.38.54.25,1.11,1.37,1.61,1.34.82-.04,3.32-1.41,3.4-2.46.03-.47-.89-1.11-1.58-1.59.9-2.5,1.62-5.57,1.69-8.35,0-.39,1-1.36-.17-1.63-.96-.23-1.41-.69-1.73-1.5-.3-.72.23-2.04,1.31-1.47.71.38,1.19,2.48,2.44,1.92l5.24,6.49-7.25-24.51-13.29-48.32c1.11-.34,1.2.72,1.73,1.29l22.11,23.66,11.65,12.06,7.63,9.83c1.03,1.32,1.66,2.92,3.14,3.53ZM560.58,746.56l-.26.26.26.26.26-.26-.26-.26Z"/>
      <path class="cls-6" d="M497.93,702.75l6.53,62.77.8,8.84-92.27-.02-5-5.22-7.74-8.09-3.01-3.13-9.6-10.12-5.56-5.76-3.89-4.3-3.5-3.19-21.73-23-11.85-12.29-7.38-7.61-4.29-4.45c-1.05-1.09-2.25-1.8-2.61-3.57l-13.53,1.22-3.96-2.79-3.8-3.42-3.63-3.07c-1.94-1.65-3.25-4.08-5.86-5.01-.51-.93-1.29-2.09-2.18-2.88l-7.66-6.81-6.65-6.13-8.92-8.1c-1.14-1.04-2.23-1.85-3.09-3.09-1.81-2.64-4.95-3.64-6.58-6.89l20.5,6.27,8.18,2.59c5.07,1.61,9.84,3.06,14.89,4.55l14.3,4.21,4.72-1.38,27.07-8.98,31.05-11.12,20.3-7.52c.48-1.33,1.41-2.33,2.23-3.41l12.41-16.42,13.3-17.06,8.28-10.73,2.55-3.16,5.15-6.61c1.47,2.62,1.01,4.85,1.02,7.07l.04,8.38.03,5.78.36,3.15-.05,4.33-.06,9.19-.13,8.91-2.98,2.84c-3.12,2.17-5.51,4.66-7.93,7.7s-6.22,4.96-9.65,6.64l-6.81,5.35-24.02,9.59-8.84,3.5c-2.46.97-5.18,1.36-7.46,3.05.8,1.12,2.15,1.28,3.34,1.54l13.2,2.84,16.73,3.77,26.49-2.6,9.74-.79c2.07,3.93,5.43,6.34,8.73,8.89l4.93,3.81,8.72,7.71,2.66,2.58,15.84,14.48,8.11,7.18Z"/>
      <path class="cls-6" d="M236.49,570.13c.62,1.31,1.92,1.98,3.19,3.02l3.93,3.24,8.57,6.36,12.35,8.75,19.25,13.64c.78.55,1.36,1.01,2.19.98.81,1.04,1.82,1.7,3.12,2.53l4.98,3.16,7.94,1.96,13.29,2.58,11.43,2.26,4.59.02,11.8-.38,13.56-.86c-.49,2.25-2.19,3.95-3.46,5.99l-3.2,5.16-16.82,6.17-12.26,4.66-7.23,2.15c-1.44.43-3.02.65-3.7,2.74-2.64-1.46-5.26-1.82-8.11-2.57l-6.16-1.63-16.53-4.91c-1.95-.58-2.65-.32-4.19-1.76l-49.95-46.64c-1.29-1.21-1.99-2.39-3.68-3.16l-7.12-33.06-4.51-18.02-4.21-19.92,6.68-6.07,2.66-2.32-.85,6.12c.32,3.84-.09,8.07,1.24,11.62l3.92,10.47,14.51,35.8c.47,1.15,2.17,1.4,2.76,1.93Z"/>
      <path class="cls-14" d="M519.71,692.51c-.66,3.22-1.14,7.15.93,9.06,1.6,1.47,4.43.73,6.36-.3l.97,1.38c-.88,1.71-1.47,3.74-.6,5.48.73,1.46,1.68,3,3.83,3.23l.45,2.72c7.11,2.38,1.67,9.11,4.94,10.38,1.73.67,2.34,2.8,3.48,3.66,2.27,1.7,2.71,3.55,4.08,5.89l3.02,2.78c.94.27,2.71-.26,3.89.77-.03-1.59-.04-2.2.34-3.23,1.28,1.75,3,3.35,3.71,5.52-1.25.56-1.73-1.54-2.44-1.92-1.08-.57-1.6.74-1.31,1.47.33.8.77,1.27,1.73,1.5,1.16.28.18,1.24.17,1.63-.07,2.79-.79,5.85-1.69,8.35.69.47,1.61,1.12,1.58,1.59-.07,1.06-2.58,2.42-3.4,2.46-.5.03-1.06-1.09-1.61-1.34-1.73-.8-3.1-1.42-4.28-3.38-1.18,1.63-.28,2.67-.16,4.1.07.81-1.13,2.5-1.89,2.59-1.31.15-2.35-1.29-3.04-2.13-.48-.59-1.64-.75-1.7-1.25-.1-.84.23-1.86.7-2.77-3.26-.3-6.07,1.77-5.61,2.81l.75,1.68c-.65.88-2.25.85-3.16.82-.89-.28-.96-1.01-1.38-1.78.26.08.55.01.69-.11.28-.25,1.4-3.77-1.3-5.46-.98-.61-1.84-1.49-3.03-1.05l-9.84-16.92-14.33-23.78c.56.07.91-.45.59-.96-3.22-5.11-5.12-10.49-7.24-16.05l-8.48-22.23-5.06-13.63-4.59-13.22s-.14-.18-.48-.54c.37.73,1.19-.05.4-.44l.69.8,9.19,10.7,12.37,14.97,4.5,5.3,8.29,9.73,5.84,7.01,3.11,4.11ZM539.33,752.86c-.42.57.13,1.1.66.94.2-.06.52.15.77-.31.21-.39-.08-.7-.29-.76-.25-.06-.98-.08-1.13.12Z"/>
      <path class="cls-12" d="M500.57,706.95l14.33,23.78,9.84,16.92,3.64,6.62c.43.78.49,1.5,1.38,1.78l9.7,18.29h-34.19s-.8-8.83-.8-8.83l-6.53-62.77c1.1.98,1.85,2.9,2.63,4.2Z"/>
      <path class="cls-4" d="M416.72,567.42l-3.3,4.02-21.86,25.38-8.99,5.84-14.11,8.1-11.75,6.63-13.56.86-11.8.38-4.59-.02-11.43-2.26-13.29-2.58c1.63-.8,3.55-.74,5.55-1.1l23.08-4.16,13.53-2.38c2.03-.36,4.16-.26,5.63-1.58l2.53.3,5.16-.95,35.13-21.95,24.08-14.54Z"/>
      <path class="cls-4" d="M428.86,545.52l-6.45-15.67-5.46-13.58-6.94-4.45c-.9-.58-2.08-.83-2.1-1.94l16.06,4.01,3.38,4.37c4.97,6.41,5.67,6.75,3.82,15.86l-2.31,11.39Z"/>
      <path class="cls-12" d="M218.16,501.52l-2.28,4.1,3.22,12.4,5.29,14.96c-.66,1.03.3,2.35.58,3.18l6.68,19.72,4.85,14.25c-.59-.53-2.29-.78-2.76-1.93l-14.51-35.8-3.92-10.47c-1.33-3.56-.92-7.78-1.24-11.62l.85-6.12,1.66-2.03c.15-.18.37-.46.47-.67l1.12.03Z"/>
      <path class="cls-6" d="M551.39,734.33c-.38,1.02-.37,1.63-.34,3.23-1.18-1.03-2.95-.5-3.89-.77l-3.02-2.78c-1.38-2.34-1.82-4.19-4.08-5.89-1.14-.86-1.75-2.99-3.48-3.66-3.27-1.27,2.16-8-4.94-10.38l-.45-2.72c-2.15-.22-3.1-1.76-3.83-3.23-.87-1.74-.28-3.77.6-5.48l6.99,9.06,7.47,10,3.33,4.9,5.64,7.73Z"/>
      <path class="cls-6" d="M526.99,701.26c-1.93,1.03-4.76,1.77-6.36.3-2.07-1.9-1.59-5.84-.93-9.06l2.64,3c1.66,1.89,3.4,3.97,4.65,5.75Z"/>
      <path class="cls-2" d="M539.46,774.35h-34.19s-92.27,0-92.27,0l-5-5.22-7.74-8.09-3.01-3.13-9.6-10.12-5.56-5.76-3.89-4.3-3.5-3.19-21.73-23-11.85-12.29-7.38-7.61-4.29-4.45c-1.05-1.09-2.25-1.8-2.61-3.57l-13.53,1.22-3.96-2.79-3.8-3.42-3.63-3.07c-1.94-1.65-3.25-4.08-5.86-5.01-.51-.93-1.29-2.09-2.18-2.88l-7.66-6.81-6.65-6.13-8.92-8.1c-1.14-1.04-2.23-1.85-3.09-3.09-1.81-2.64-4.95-3.64-6.58-6.89l20.5,6.27,8.18,2.59c5.07,1.61,9.84,3.06,14.89,4.55l14.3,4.21,4.72-1.38,27.07-8.98,31.05-11.12,20.3-7.52c.48-1.33,1.41-2.33,2.23-3.41l12.41-16.42,13.3-17.06,8.28-10.73,2.55-3.16,5.15-6.61c1.47,2.62,1.01,4.85,1.02,7.07l.04,8.38.03,5.78.36,3.15-.05,4.33-.06,9.19-.13,8.91-2.98,2.84c-3.12,2.17-5.51,4.66-7.93,7.7-2.31,2.92-6.22,4.96-9.65,6.64l-6.81,5.35-24.02,9.59-8.84,3.5c-2.46.97-5.18,1.36-7.46,3.05.8,1.12,2.15,1.28,3.34,1.54l13.2,2.84,16.73,3.77,26.49-2.6,9.74-.79c2.07,3.93,5.43,6.34,8.73,8.89l4.93,3.81,8.72,7.71,2.66,2.58,15.84,14.48,8.11,7.18c1.1.98,1.85,2.9,2.63,4.2.56.07.91-.45.59-.96-3.22-5.11-5.12-10.49-7.24-16.05l-8.48-22.23-5.06-13.63-4.59-13.22.6-.18,9.19,10.7,12.37,14.97,4.5,5.3,8.29,9.73,5.84,7.01,3.11,4.11,2.64,3c1.66,1.89,3.4,3.97,4.65,5.75l.97,1.38,6.99,9.06,7.47,10,3.33,4.9,5.64,7.73c1.28,1.75,3,3.35,3.71,5.52l5.24,6.49-7.25-24.51-13.29-48.32c1.11-.34,1.2.72,1.73,1.29l22.11,23.66,11.65,12.06,7.63,9.83c1.03,1.32,1.66,2.92,3.14,3.53v-102.91c-.87-.42-.78-1.48-1.16-2.44l-10.73-27.52-34.42-27.42-31.84-14.75-27.03-12.08-15.36-6.24-5.95-2.7-11.1-6.03-9.47-4.96-18.19-9.34-19.57-1.82c2.01,1.7,4.5,3.67,6.67,4.21l16.06,4.01,3.38,4.37c4.97,6.41,5.67,6.75,3.82,15.86l-2.31,11.39-1.02,4.58-.76,4.57-2.72,2.9-2.3,3.49c-.46.7-1.43,2.27-2.16,2.75-1.55,1.03-2.15,2.36-3.18,3.61l-3.3,4.02-21.86,25.38-8.99,5.84-14.11,8.1-11.75,6.63c-.49,2.25-2.19,3.95-3.46,5.99l-3.2,5.16-16.82,6.17-12.26,4.66-7.23,2.15c-1.44.43-3.02.65-3.7,2.74-2.64-1.46-5.26-1.82-8.11-2.57l-6.16-1.63-16.53-4.91c-1.95-.58-2.65-.32-4.19-1.76l-49.95-46.64c-1.29-1.21-1.99-2.39-3.68-3.16l-7.12-33.06-4.51-18.02-4.21-19.92,6.68-6.07,2.66-2.32,1.66-2.03.47-.67,1.12.03c5.27-1.47,8.57-4.08,12.78-5.25l.09-2.48-15.49,3.77-24.18,17.35-18.19,8.34-21.98,6.82c-1.04-.37-12.66,1.24-13.64,2.27l-18.95,6.06-18.95,3.03-13.64,6.06-25.77,12.88s-23.49,19.71-24.25,19.71c0,0-17.72,35.14-19.71,37.14-.22.22-3.14,26.9-3.03,27.28.06.22.63,129.86.63,129.86l572.16.51v-.51s-46.59-.01-46.59-.01ZM475.7,639.88c.79.39-.03,1.17-.4.44l.4-.44Z"/>
      <path class="cls-6" d="M216.57,502.16l.47-.67c-.11.21-.33.48-.47.67Z"/>
      <rect class="cls-2" x="560.39" y="746.64" width=".36" height=".36" transform="translate(-363.88 615.04) rotate(-44.99)"/>
      <path class="cls-6" d="M528.38,754.27l-3.64-6.62c1.2-.44,2.05.44,3.03,1.05,2.69,1.68,1.58,5.2,1.3,5.46-.14.12-.43.19-.69.11Z"/>
      <path class="cls-6" d="M539.33,752.86c.15-.2.89-.19,1.13-.12.21.05.5.37.29.76-.25.46-.56.25-.77.31-.53.15-1.08-.37-.66-.94Z"/>
    </g>
    <g>
      <g>
        <path class="cls-3" d="M438.41,328.08l.34,14.92.4,20.34-8.37,25.09-2.82,8.82-4.46,2.48c.57-2.16.22-4.08.07-6.29l-.98-14.98-.15-.86.09-.63c1.29-.78,3.66-.98,4.65-2.36l3.03-4.25,4.99-9.28-1.47-6.78-3.31-14.69,5.86-11.67c.36-.4,1.72.03,2.14.13Z"/>
        <path class="cls-3" d="M432.14,326.52l-.14-9.79-.71-8.15c-.07-.77-.78-1.64-.28-2.68.26-.54-.17-1.43-.19-1.97-.36-8.31-5.1-31.17-5.1-31.17,0,0-8.02-40.86-8.59-43.71-.54-2.72-3.54-11.62-4.29-16.17-.75-4.49-2.15-11.31-11.62-24.76l-14.91-12.88-27.79-14.91-17.94-4.29c-3.84-1.09-29.13-4.03-40.12-3.27l-24.63,6.44-27.66,13.64c-2.41,2.8-15.69,13.61-18.3,16.22-1.03,1.03-9.98,16.72-11.12,17.68l-6.06,13.14-4.74,12.19-.32,1.2c-.77.95-1.2,11.94-1.2,14.4,0,1.34-.06,4.36-.08,6.3l-.28,3.41-2.44,42.32-.09,11.98-.04,3.89c0,.22-.1.5-.23.67l.07,5.13c.14.35.17.76.17,1.12v1.84c0,.56.1,1.14-.15,1.67l.2,8.12c.01.59.21,1.37-.47,1.71l-.08,4.93c-.01.93.2,1.53-.32,2.26-.33.47-.15,1.41-.19,1.96l-1.24,17.59.6,4.1c-.22,3.7,1.98,8.29,1.57,10.66-.34,1.95.76,5.52,1.05,7.53l2.09,14.18,1.13,10.04,3.22,21.17,1.06,4.66,1.47,3.71.17.43s0,0,0,0l.02.06s2.84,3.92,4.01,6.17l3.18,6.16,8.87,13.3c.91,1.36,2.25,2.3,2.71,3.81l.62.06,2.98,3.05,2.22,3.38c1.53,1.02,2.8,1.46,3.8,3.07,1.27,2.05,3.29,3.58,5.37,4.36-.18.59.26,1.07.43,1.48l5.12,3.72,3.53,2.76,2.97,2.63,8.88,7,2.48,2.23,4.57,3.15,5.81,3.9c2.31,1.55,4.01,2.02,6.71,2.06l9.15.12,26.03-.29,10.93-4.9,16.16-7.46,7.74-7.31c2.46-1.99,4.92-3.9,6.41-6.58-.71.17-1.32.55-2.37.22,1.33-.94,1.47-2,1.43-3.45,1.67.26,2.03,1.29,3.01,1.75l2.64-1.68c.73-1.46,1.65-1.69,2.67-2.77l2.64-2.78c1.38-.5,1.39-1.25,2.22-2.11l4.68-4.87,4.38-4.01,4.07-3.71c2.56-2.33,4.8-4.76,7.17-7.15l4.12-4.15,5.18-6.2c.82-.98,2.59-2.82,2.97-3.97l4.36-24.02,1.15-8.18c.3-2.14,1.05-2.97,2.74-4.1l6.08-4.07c.57-2.16.22-4.08.07-6.29l-.98-14.98c-1.65-.21-2.87.85-4.52,2.28-.8-1.61,0-3.15.25-4.79l1.53-10.33c.12-.79-.13-1.63-.7-1.96.22-1.19,9.05-15.23,8.9-16.47-.41-.06,4.08-20.07,4.09-20.7ZM230.68,453.67l-.26-.26.26-.26.26.26-.26.26Z"/>
        <path class="cls-4" d="M433.72,354.31l1.47,6.78-4.99,9.28-3.03,4.25c-.98,1.38-3.35,1.58-4.65,2.36-.61-.29-.94.6-.09.63l.15.86c-1.65-.21-2.87.85-4.52,2.28-.8-1.61,0-3.15.25-4.79l1.53-10.33c.12-.79-.13-1.63-.7-1.96.22-1.19.62-2.39.47-3.63l.71-.58c.33-.25.51-.62.7-.99l2.55-4.75c1.82,1.42,4.09,2.56,4.67,2.19l2-1.26,3.46-.36Z"/>
        <path class="cls-15" d="M433.72,354.31l-3.46.36-2,1.26c-.58.36-2.86-.77-4.67-2.19l2.96-6.05,3.86-8.07,3.31,14.69Z"/>
        <rect class="cls-15" x="230.5" y="453.23" width=".36" height=".36" transform="translate(-253.03 295.88) rotate(-44.99)"/>
        <path class="cls-16" d="M422.44,377.62c-.85-.03-.51-.92.09-.63l-.09.63Z"/>
        <path class="cls-3" d="M265.48,434.57l1.04.03c3.3,2.33,7.23,3.6,11.04,5.4l10.51,4.97,4.21,3.54-7.12,12.43c-.26-.15-.95-.05-1.25-.05-1.53-1.07-3.84-.95-5.71-1.44l-7.67-2-4.99-15.12-1.53-5.14c.02-.67.71-1.74.41-2.53l1.06-.1Z"/>
        <path class="cls-8" d="M265.48,434.57l-1.06.1c-.07-.18,0-.51.01-.7.4.08.78.28,1.05.6Z"/>
        <path class="cls-11" d="M423.56,393.46l-.98-14.98c-1.65-.21-2.87.85-4.52,2.28-.8-1.61,0-3.15.25-4.79l1.53-10.33c.12-.79-.13-1.63-.7-1.96l-5.49,29.54-6.88,6.26-14.19,12.97-10.46,11.86-7.11-.41c-1.07-.06-1.97-.28-2.69-.67l1.09,2.18c-.75,1.33-1.03,2.73-1.23,4.24-.98,1.34-1.75,2.73-1.55,4.18-1.36,1.28-1.65,3.28-2.36,4.97-1.05.38-1.6-.51-2.44-1.29-1.03-.96-2.87.37-3.23,1.54l-2.5-.33-2.58-.05c-1.54,1.1-1.75,2.96-2.63,4.62l-10.33,19.55c-1.03,1.96-1.38,4.15-2.98,6l-19-10.53,1.56-9.92-10.86-.06c-3.51-.02-6.71-.08-10.15-.01l-10.86.21-7.12,12.43c-.26-.15-.95-.05-1.25-.05-1.53-1.07-3.84-.95-5.71-1.44l-7.67-2-4.99-15.12-1.53-5.14c-.92-.19-1.63.44-1.74,1.44-.14,1.24-1.72,1.29-2.19,1.78-1.29,1.34-2.33,1.11-3.9,1.54l-7.21,1.96c-.24.33-.25.66-.37,1.05-.52.01-1.12.15-1.65.5l-10.56,6.89c-.93-2.32-.87-4.98-2.21-6.86-.09-.13-.13-.42-.07-.63l-2.31-10.67-2.18-8.22c-.53-1.99-2.81-3.3-4.08-4.44-.49-.79-1.04-1.83-1.87-2.82l-7-8.33-10.08-11.34,1.13,10.04,3.22,21.17,1.06,4.66,1.67,4.2s2.84,3.92,4.01,6.17l3.18,6.16,8.87,13.3c.91,1.36,2.25,2.3,2.71,3.81l.62.06,2.98,3.05,2.22,3.38c1.53,1.02,2.8,1.46,3.8,3.07,1.27,2.05,3.29,3.58,5.37,4.36-.18.59.26,1.07.43,1.48l5.12,3.72,3.53,2.76,2.97,2.63,8.88,7,2.48,2.23,4.57,3.15,5.81,3.9c2.31,1.55,4.01,2.02,6.71,2.06l9.15.12,26.03-.29,10.93-4.9,16.16-7.46,7.74-7.31c2.46-1.99,4.92-3.9,6.41-6.58-.71.17-1.32.55-2.37.22,1.33-.94,1.47-2,1.43-3.45,1.67.26,2.03,1.29,3.01,1.75l2.64-1.68c.73-1.46,1.65-1.69,2.67-2.77l2.64-2.78c1.38-.5,1.39-1.25,2.22-2.11l4.68-4.87,4.38-4.01,4.07-3.71c2.56-2.33,4.8-4.76,7.17-7.15l4.12-4.15,5.18-6.2c.82-.98,2.59-2.82,2.97-3.97l4.36-24.02,1.15-8.18c.3-2.14,1.05-2.97,2.74-4.1l6.08-4.07c.57-2.16.22-4.08.07-6.29ZM230.68,453.67l-.26-.26.26-.26.26.26-.26.26Z"/>
        <path class="cls-11" d="M366.42,483.53c-.72.46-1.1,1.24-2.06,1.48-.71.17-1.32.55-2.37.22,1.33-.94,1.47-2,1.43-3.45,1.67.26,2.03,1.29,3.01,1.75Z"/>
        <polygon class="cls-4" points="341.93 326.78 342.28 326.78 342.62 326.79 342.28 326.8 341.93 326.8 341.6 326.79 341.93 326.78"/>
      </g>
      <g>
        <path class="cls-3" d="M401.01,450.3l-.36,19.35-1.18,35.37c-.02.72,1.48.66,1.78.65,2.01,1.7,4.5,3.67,6.67,4.21.02,1.1,1.2,1.36,2.1,1.94l6.94,4.45,5.46,13.58,6.45,15.67-1.03,4.58-.76,4.57-2.72,2.9-2.3,3.49c-.46.7-1.43,2.27-2.16,2.75-1.55,1.03-2.15,2.36-3.18,3.61l-24.08,14.54-35.13,21.95-5.16.95-2.53-.3c-.64-1.1-1.99-1.38-3.21-2.01l-14.24-7.39c-3.07-1.59-6.23-2.76-8.99-5.01l3.27-12.48,2.59-8.23,7.42-23.44,8.73-10.28,3.14-4.07,5.4-5.93c1.12-1.23,1.59-2.58,2.46-3.75l10.33-13.94c1.22-1.65,2.46-3.19,3.76-5l4.48-6.2c1.23-1.7,3.3-3.23,3.83-5.16l6.85-26.37,4.07-3.71c2.56-2.33,4.8-4.76,7.17-7.15l4.12-4.15Z"/>
        <path class="cls-3" d="M236.04,471.68l2.22,3.38c1.53,1.02,2.8,1.46,3.8,3.07,1.27,2.05,3.29,3.58,5.37,4.36-.18.59.26,1.07.43,1.48l3.66,8.88,14.56,32.19c1.06,2.35,2.2,4.55,2.62,7.04.21,1.26-.37,2.5.48,3.89.59.95-.15,2.71.11,3.63.79,2.81.93,5.46,1.21,8.33l1.01,10.4,4.26,35.14c1.9,1.67,3.08,3.52,4.55,5.4l5.66,7.25c-.83.03-1.41-.42-2.19-.98l-19.25-13.64-12.35-8.75-8.57-6.36-3.93-3.24c-1.27-1.05-2.57-1.71-3.19-3.02l-4.85-14.25-6.68-19.72,1.5-6.93c.39-2.06.67-3.78,1.07-5.8l3.42-17.28c.14-.69-.35-1.19-.41-1.51-.22-1.15-.08-3.06.04-4.43l.34-3.94.09-2.48,1.12-17.36-.19-3.9.48-3.96.62.06,2.98,3.05Z"/>
        <path class="cls-5" d="M230.94,496.27l-.34,3.94c-.12,1.38-.27,3.28-.04,4.43-.28.19-.57.51-.66,1.02l-4.01,21.67c-.39,2.09-.48,4.05-1.49,5.64l-5.29-14.96-3.22-12.4,2.28-4.1c5.27-1.47,8.57-4.08,12.78-5.25Z"/>
        <path class="cls-5" d="M252.99,487.69l3.53,2.76,2.97,2.63,8.88,7,2.48,2.23,4.57,3.15,5.81,3.9c2.31,1.55,4.01,2.02,6.71,2.06l4.23,8.62,8.73,4.84,4.41,2.75,3.24,1.84,8.37,4.99,19.73,11.53-7.42,23.44-2.59,8.23-3.27,12.48c2.76,2.25,5.92,3.42,8.99,5.01l14.24,7.39c1.22.63,2.57.91,3.21,2.01-1.48,1.31-3.61,1.22-5.63,1.58l-13.53,2.38-23.08,4.16c-2,.36-3.92.3-5.55,1.1l-7.94-1.96-4.98-3.16c-1.3-.82-2.31-1.48-3.12-2.53l-5.66-7.25c-1.47-1.88-2.65-3.73-4.55-5.4l-4.26-35.14-1.01-10.4c-.28-2.87-.42-5.52-1.21-8.33-.26-.92.48-2.68-.11-3.63-.85-1.38-.27-2.63-.48-3.89-.42-2.49-1.56-4.69-2.62-7.04l-14.56-32.19-3.66-8.88,5.12,3.72Z"/>
        <path class="cls-16" d="M385.65,465.3l-6.85,26.37c-.53,1.93-2.6,3.46-3.83,5.16l-4.48,6.2c-1.3,1.8-2.54,3.35-3.76,5l-10.33,13.94c-.87,1.17-1.34,2.53-2.46,3.75l-5.4,5.93-3.14,4.07-8.73,10.28-19.73-11.53-8.37-4.99-3.24-1.84-4.41-2.75-8.73-4.84-4.23-8.62,9.15.12,26.03-.29,10.93-4.9,16.16-7.46,7.74-7.31c2.46-1.99,4.92-3.9,6.41-6.58.97-.24,1.34-1.01,2.06-1.48l2.64-1.68c.73-1.46,1.65-1.69,2.67-2.77l2.64-2.78c1.38-.5,1.39-1.25,2.22-2.11l4.68-4.87,4.38-4.01Z"/>
        <path class="cls-2" d="M224.97,536.16c-.28-.83-1.23-2.15-.58-3.18,1.01-1.59,1.11-3.55,1.49-5.64l4.01-21.67c.09-.51.38-.83.66-1.02.06.33.55.82.41,1.51l-3.42,17.28c-.4,2.02-.68,3.75-1.07,5.8l-1.5,6.93Z"/>
      </g>
      <path class="cls-7" d="M275.17,334.1c.05.5-.02.63-.17.91l-8-5.43c-1.27-.86-2.53-1.74-4.28-1.98-3.24-.23-9.94-1.56-17.51.43l-8.52,2.76c-2.56.83-4.41,3.38-6.33,4.94l-1.99,1.63c-.29.24-.53.36-.72.34-.16-.01-.43-.28-.56-.36,4.87-8.73,12.44-13.42,22.92-13.44,4.77,0,9.54-.58,14.29.34l6.1,5.57,4.79,4.28Z"/>
      <path class="cls-7" d="M366.28,323.23c3.18.03,8.86,3.36,7.88,3.26-.15.83,1.01,1.47,1.81,1.68,2.62,2.82,5.35,5.53,7.6,9.22-1.77.22-2.68-.95-3.87-1.18-3.52-3.94-7.84-7.03-13.02-8.51,0,0-5.81-2.54-16.95-.9-5.51,1.07-9.34,4.21-13.26,6.86l-6.15,4.16c-.14-.21-.13-.54-.05-.76l11.24-9.88,9.48-4.11,15.29.16Z"/>
      <path class="cls-7" d="M262.72,327.6c1.21,2.84,2.97,5.7,2.01,8.57l-1.85,6.05c-4.48,2.01-9.63,2.27-14.56,2.16l-3.9-6.11c-1.98-3.03-.59-6.94.78-10.24,0,0,10.67-8.05,17.51-.43Z"/>
      <path class="cls-7" d="M366.68,327.69l1.62,5.58c.47,1.61-2.39,8.27-3.94,9.39-.41.29-.56.98-.55,1.28-4.29.53-8.7,0-12.92-.77-3.81-6.69-3.99-9.31-1.16-16.37,1.99-2.68,10.7-5.72,16.95.9Z"/>
      <path class="cls-7" d="M395.72,313.02l-16.42-7.7c-.98-.46-2.18-.47-3.2-.53l-1.25-.07-5.92.38c-1.04.07-1.66.08-2.64.11l-13.7.42c-.23.08-.53.23-.77.24l-3.48.13-3.17.42-2.05.03h-1.53s-1.04.03-1.04.03l-6.12.42c-3.65.25-7.36,0-11.06,1.35-.82,1.37-1.44,2.98-1.79,4.35l-1.73,6.76c.1.92,1.76.12,2.32.1l5.73-.27,5.94-.19c2.26-.07,4.03.11,6.3-.02l14.83-.86c4.07-.23,7.96-.63,11.73.04l8.5-.38,15.61,1.17c2.19.16,4.21.34,6.18-.12.21-.05.62.07.9.13l-2.16-5.95Z"/>
      <path class="cls-7" d="M280.33,314.72c-1.07-.8-1.69-1.82-2.46-2.62l-1.03-1.07c-.79-.83-1.24-2.01-2.34-2.87-.58-.46-.85-1.07-.92-1.71l-4.05-.36-4.13-.12-1.53-.03c-.56-.73-1.82-.69-2.61-.16l-15.4-.47c0,.97-1.08.91-1.1-.01l-7.56-.44c-1.03-.06-2.18.1-3.09.5-1.22-.57-2.46-.46-3.7-.43-.79.02-1.99-.33-2.93.14l-14.41,7.23-1.49,6.2c1.75.29,3.04-.27,4.49-.44.55-.07,1.3.26,1.92-.07-.04.3.07.68.41.78.27.08.6-.24.75-.41l5.71-.17,11.81.13,1.6-.51c5.84-.59,20.17-1.21,22.57-.14.26.11.83,0,1.11-.07l8.69.11,12.51.14c-.4-1.58-1.66-2.28-2.79-3.13Z"/>
      <g>
        <path class="cls-8" d="M318.08,424.03l10.99.59,20.65,1.78c.33,1.1-.34,1.99-.31,2.62l-15.3,1.74-8.18.53-22.43,1.58-34.35-1.4c-1.96-.08-3.87-1.26-5.59-.77-.48-.66-1.11-1.07-1.31-2.22l7.85-1.39,12.33-2.15,4.57-.83c6.36.88,12.86,2.28,19.36,1.43l11.74-1.53Z"/>
        <path class="cls-7" d="M349.4,429.02c.31,1.14.56,2.21.39,3.48-.97-.04-2.17.39-2.97.75-.11-.45-.36-.69-.68-.68l-19.3.71-24.9,1.61c-11.11-.08-21.79-1.44-32.95-.82-.97.05-1.96-.47-2.48.53l-1.04-.03c-.27-.32-.65-.52-1.05-.6-.86-.86-1.08-2.07-.88-3.27,1.72-.5,3.64.69,5.59.77l34.35,1.4,22.43-1.58,8.18-.53,15.3-1.74Z"/>
        <path class="cls-8" d="M346.82,433.25l-23.26,10.61-7.7.19c-4.45.11-8.61.21-12.95.3l-14.84.61-10.51-4.97c-3.81-1.8-7.74-3.07-11.04-5.4.53-1,1.51-.48,2.48-.53,11.16-.63,21.84.74,32.95.82l24.9-1.61,19.3-.71c.31,0,.56.23.68.68Z"/>
      </g>
      <path class="cls-7" d="M373.42,425.4l-1.09-2.18-7.36-14.99-2.27-.4-3.19-.88-7.53-1.72-8.44-1.72-14.28-3.11-4.31-1.33c-1.8-.56-6.07,2.23-8.99,2.12-2.02-.07-2.26.93-3.29,1.8l-3.71,3.12-5.38,4.42c-.54.44-1.9,0-2.44-.29l-8.96-5.02c-.15-.3-.45-.72-.5-1.07l-8.28-4.48c-1.4-.78-3.11-.77-4.25.24-1.15,1.02-2.57.86-3.81,1.42l-13.46,6.04-7.42,3.11-7.22,3.53-5.37,19.64c.69,1.16,1.52,2.26,1.87,3.57.48,1.8,1.92,2.46,2.94,3.79l2.28,2.9,7.21-1.96c1.56-.43,2.61-.2,3.9-1.54.47-.49,2.05-.54,2.19-1.78.11-1.01.82-1.64,1.74-1.44.02-.67.71-1.74.41-2.53-.07-.18,0-.51.01-.7-.86-.86-1.08-2.07-.88-3.27-.48-.66-1.11-1.07-1.31-2.22l7.85-1.39,12.33-2.15,4.57-.83c6.36.88,12.86,2.28,19.36,1.43l11.74-1.53,10.99.59,20.65,1.78c.33,1.1-.34,1.99-.31,2.62.31,1.14.56,2.21.39,3.48,1.03.04,2.04,1.68,3.12,2.04,2.28.76,3.55,2.21,4.61,4.12l2.58.05,2.5.33c.37-1.17,2.2-2.5,3.23-1.54.84.78,1.39,1.67,2.44,1.29.72-1.69,1-3.69,2.36-4.97-.19-1.45.57-2.84,1.55-4.18.2-1.51.48-2.91,1.23-4.24Z"/>
      <g>
        <path class="cls-5" d="M361.04,405.92l-18.45-13.22,2.56-18.83,2.03-13.83-4.92-3.27-17.97-11.7-5.5-11.71-1.95-2.67-2.59-5.41c-1.03.47-1.21,1.59-1.47,2.94-2.8,14.79-4.57,29.46-5.75,44.88l23.91,7.69-.42,13.46c-.01.35.26,1.13.02,1.27l-1.03.59-5.94-1.71c.09.08,0,.86-.21.92-4.32-.23-8.55.19-12.68,1.74-1.55.58-2.61,2.16-4.79,2.06-.07-.36,0-1.14.17-1.67l-6.71,1.43c-2.76-.03-6.06-1.18-8.21-2.77l-8.39-6.22c-3.04,1.48-6.11,3.11-8.11,5.74.57.59,1.78,1.83,2.67,1.03l1.97-1.76c.91-.81,2.91-2.38,4.46-1.66,1.84.85,2.87,3.31,3.88,4.78,1.43,2.09,3.67,3.49,4.06,6.12.05.35.36.77.5,1.07l8.96,5.02c.53.3,1.9.73,2.44.29l5.38-4.42,3.71-3.12c1.03-.86,1.26-1.87,3.29-1.8,2.92.11,7.19-2.68,8.99-2.12l4.31,1.33,14.28,3.11,8.44,1.72,7.53,1.72,3.19.88c0-1.01-.84-1.33-1.66-1.92Z"/>
        <path class="cls-13" d="M323.58,394.4c.09.08,0,.86-.21.92-4.32-.23-8.55.19-12.68,1.74-1.55.58-2.61,2.16-4.79,2.06-.07-.36,0-1.14.17-1.67,3.26-2.27,5.73-6.05,10.82-4.76l6.7,1.71Z"/>
        <path class="cls-13" d="M287.62,398.04l-4.27-2.07c-1.26-.65-2.91-.24-4.06-1.05.91-.81,2.91-2.38,4.46-1.66,1.84.85,2.87,3.31,3.88,4.78Z"/>
      </g>
      <g>
        <path class="cls-13" d="M324.25,131.01l-5.19,3.61c-.39.26-.53.67-.6.91-1.42.39-2.43,1.52-3.98,2.72l9.12,2.52,15.48,4.55,20.48,5.93,14.51,8.44,4.31,2.33c4.53,2.44,8.71,4.89,13.14,7.47l13.37,7.81,6.73,5.11,3.56,2.57,11.31,10.8,5.78,5.59,1.61,4.05c.71,1.8,1.45,3.22,2.06,4.84l7.97,21.19c1.05,2.79,2.16,5.35,2.48,8.4l4.31-4.41c.31.01.56.53.38.9l-2.53,5.15-5.37,10.7-.35-11.1c-.06-2.06-1.36-4.35-2.35-6.25l-16.25-31.21-6.64-6.09-15.76-12.96c-6.58-2.94-12.8-5.58-19.48-8.04l-7.11-3.48c-3.02-.51-4.85-2.26-7.37-3.57-1.16-.6-3.2-.25-5.12-.86l18.76,14.04,18.67,15.84c.69.59,1.33,2.48,1.69,3.26l2.31,5.06,15.18,31.83c-3.02-2.65-4.96-6.09-7.37-9.3l-13.91-18.49-3.18-4.07-12-12.23c-1.9-1.94-3.57-4.87-6.07-6.27l-36.97-13.33,4.11,10.75,10.58,27.47,7.22,18.42c.88,2.23,1.26,2.33,2.96,3.88l9.96,9.1c2.27,2.08,5.35,3.57,7.04,6.2,1.11,1.73,1.91,2.13,3.95,3.03l3.46,1.52,7.37,3.86c1.45.76,2.29,1.97,3.42,2.79,1.88,1.36,4.73.81,6.75,1.53,2.34.84,4.51.73,6.88.56l-.28,1.46c-.1.51,4.69,2.18,8.3,3.6l-8.4.63,8.31,4.88c-.26,1.71-1.08,3.64-2.48,4.68-.53.35-1,.51-.45,1.57l10.95-2.05c1.55-.29.6-3.4-.41-4.22-1.46-1.18-1.86-3.47-1.38-5,.27-.86,1.58-.8,1.95-1.15l4.52-4.29c2.17-2.06,4.14-4.03,6.25-6.04l5.4-5.12c.07-2.01.98-3.7,2.43-5.18.91-5.24,4.88-11.82,4.48-13.14-.13-.44-.96-.56-1.43-.35l3.48-4.82,1.26,14.96c-2.4,3.72-4.21,7.1-7.12,10.77l8.96-1.94,5.05-1.5c-.16,1.12-.3,1.78-1.52,2.61l-2.97,2.03c-1.41.96-2.89,1.64-4.4,2.93l-10.15,7.24c-3.36,4.05-5.15,9.01-9.41,12.48l15.83,18.49c.73.85,1.47,1.69,2.4,1.72.77,2.53-1.55,5.58-2.8,7.8l-5.01,8.97-2.95,5.78-3.52,6.21c-.42-.09-1.78-.53-2.14-.13l-5.86,11.67-3.86,8.07-2.96,6.05-2.55,4.75c-.45-.02-.89-.43-.77-1.08l1.88-9.92,2.87-14.26,5.82-30.93-6.85-10.84c-.35-.56.49-1.92.06-2.34-.7-.68-2.19-.98-2.64-.22-.26.44-.11,1.06-.12,1.29-.04,1.74-2.89-1.96-3.99-1.08-.87.7-1.64,3.21-1.39,4.33l1.03,4.62.76,1.93c.24.61-.67,1.38-1.58,2.09.22.87.68,2.32,1.23,2.87-1.54.32-2.21-.6-3.22-1.67l.03-.96c.5-.5.52-1.15.57-1.78.07-.79-.17-1.45-1.09-1.32l-.02-1.01c.41-.33.55-.78.58-1.26.03-.59-.38-.94-1-.86.02-1.11.14-2.48-.2-3.48.71-.27.63-.87.69-1.32.11-.83-.18-1.44-1.08-1.36l.02-2.5c.12-.22.49-.48.5-.82.03-.58-.35-.9-.91-.85l-.23-4.58c.24.09.7-.05.69-.45-.03-3.1,1.51-5.65.39-6.88-.38-.42-1.55-.56-2.05-.36.02-.27.01-.59.05-.9l.73-.17c.32-.07.46-.47.28-.71-.25-.34-.7-.35-1.06-.23-3.22-.63-6.4-.08-9.63-.13-.17-1.01.46-1.69,1.14-3.02-4.27-.59-7.69-1.55-11.54-2.53l-7.06-3.05c-2.27-.98-3.38-1.78-5.02-3.48l-13.77-14.22-13.04-27.92c-.87-1.87-2.26-3.68-3.36-5.36l-6.72-10.27c-.74-1.13-1.37-2.35-2.45-3.01l-21.68-34.75-14.68.4-19.32,4.85c.73-2.86,5.23-2.57,4.97-4.77l13.93-1.6c1.71-.2,3.15.25,4.99.04l8.7-.97-1.5-3.2-12.32-3.84c-8.76,2.42-17.15,4.79-25.45,8.19-2.17.89-4.07,1.9-5.99,3.41l6.96-.44c.12,1.32-1.1,1.5-2.3,1.86-7.47,2.28-14.98,4.09-21.61,8.25-2.25,1.41-2.78,4.7-3.8,6.98-.84,1.89-3.09,4.59-1.94,6.52l5.64,9.51-20.69-3.89-29.58,10.82c-3.52,1.29-6.72,2.64-10.57,3.43l-6.48,14.98c-.63,1.46-1.03,2.72-1.64,4.15l-3.21,7.51c-2.94,6.89-5.22,13.76-8.16,20.73l2.51,15.84,1.99,10.98.44,4.24,3.43,15.94,5.77-13.83c.58-1.4,1.05-2.65,1.62-4.05l3.15-7.7,5.8-13.91c.79.51.49,1.48.45,1.81-.03.3,1.03.29,1.19-.1,1.44-3.47,3.38-7.77,5.87-8.49l-2.44,42.32-.09,11.98c-.56.01-.92-.32-.92-1.1l-.1-12.72-.48-17.64c-.05-1.94-.93-3.66-.13-5.91-.8-.38-1.38-.45-2.39-.33-3.26,4.48-.97,8.15-5.23,11.21l-3.46,16.65c-.4,1.91,2.71,11.83,4.07,16.89l5.03,18.79c1.18,4.43-.08,7.86,2.59,7.46l-1.24,17.59-1.14-1.04c.45-.6-.1-1.1-.41-1.71l-3.51-6.87c-.34-.66-.53-1.19-1.32-1.32-.36-3.07-2.61-5.8-3.68-8.86-.99-2.84,1.36-8.47,1.24-13.61l-5.26-15.11-6.18-6.54c-2.98-3.15-5.3-6.17-8.84-8.88l-4.62-31.83,3.28-15.3,3.4-14.11,4.64-18.07-4.4,5.38c-1,1.23-1.26,1.98-1.73,3.4-2.18,6.63-4.35,13.01-5.94,19.81l-4.84,20.77c.1-3.64.6-6.94,1.19-10.51l3.44-20.95c.41-2.51,1.34-4.65,1.69-7.22.29-2.14,1.29-4.22,1.85-6.45.96-3.86,1.48-8.34,3.39-11.57,1.94,1.24,4.01-2.48,7.2-4.63,1.68-1.13,3.36-1.97,5.06-3.24l22.54-16.79c7.66-.42,14.95-.06,22.62-.06,3.18,0,6.18.63,9.72-.28-3.77-3.88-12.85-5.71-18.86-6.87-2.69-.52-5.89-2.07-9.26-2.72l9.8-8.27,4.23-2.92c4.31-2.98,9.06-6.3,13.73-8.56l7,1.77,14.93,5.24,2.15-1.89c.08.55.21,1.72-.36,2.27l-5.22,5.1c-1.13,1.1-2.87,1.62-3.06,3.63l7.86-5.03c2.61-1.67,4.39-4.14,6.38-6.44l3.88-4.49c.59-.68,2.16-.96,1.85-2.25.44-.14,1.26-.38,1.46-.86l7.61-3.4,11.48-6.57c6.34-3.62,25.31-14.37,27.99-13.71Z"/>
        <path class="cls-10" d="M318.46,135.54l18.01.02c7.82.01,35.95,4.71,38.91,6.4l13.19,7.51,6.96,4.27,14.06,8.49,5.36,3.44,13.98,9.67,10.19,7.4,4.65,18.16c-.89.01-2.32-.31-3.18.44l-.42,4-2.37,3.29c-.56.77-1.21,1.44-1.87,1.64-.61-1.62-1.35-3.04-2.06-4.84l-1.61-4.05-5.78-5.59-11.31-10.8-3.56-2.57-6.73-5.11-13.37-7.81c-4.42-2.58-8.61-5.03-13.14-7.47l-4.31-2.33-14.51-8.44-20.48-5.93-15.48-4.55-9.12-2.52c1.55-1.2,2.57-2.33,3.98-2.72Z"/>
        <path class="cls-1" d="M281.33,148.96c.57,2.48-2.77,2.34-4.15,5.73-.2.49-1.01.72-1.46.86-4.42,1.41-8.46,3.54-11.33,7.2l-2.15,1.89-14.93-5.24-7-1.77c-4.67,2.25-9.42,5.58-13.73,8.56l-4.23,2.92-9.8,8.27c3.37.65,6.57,2.2,9.26,2.72,6.01,1.16,15.09,2.99,18.86,6.87-3.54.92-6.54.28-9.72.28-7.67,0-14.97-.36-22.62.06l-22.54,16.79c-1.7,1.27-3.38,2.11-5.06,3.24-3.19,2.14-5.25,5.87-7.2,4.63,1.97-3.33,5.17-6.15,7.83-9.14l5.12-5.74c1.56-1.76,3.3-3.08,4.76-5.02,1.72-2.28,4.48-3.66,5.47-6.84l-9.43,3.01c-2.72.87-5.26,2.55-8.47,1.71l13.92-7.73,12.79-8.34,8.97-8.49,10.76-9.8c3.2-2.91,6.42-5.43,9.41-8.58,1.05-1.1,3.23-1.01,4.56-1.53l14.96-5.82c5.29,1.49,10.48,2.84,15.65,4.84l11.49,4.43ZM197.23,184.97l-.26.26.26.26.26-.26-.26-.26Z"/>
        <path class="cls-1" d="M462.91,251.82l-5.05,1.5-8.96,1.94c2.91-3.67,4.73-7.04,7.12-10.77l-1.26-14.96-3.48,4.82-.6,1.09-4.31,4.41c-.32-3.06-1.43-5.61-2.48-8.4l-7.97-21.19c.66-.2,1.32-.86,1.87-1.64l2.37-3.29.42-4c.85-.74,2.29-.43,3.18-.44l3.71,15.02,2.79,12.5,9.16-9.13c-2.27-8.91-5.97-17.01-10.01-25.28-1.15-2.34-.66-5.22-.56-7.61l5.42,9.47,3.45,6.33,5.67,10.72c1.45,2.74,3.47,5.39,3.17,8.64l-.7,7.6c.38,3.03-.41,5.33-.83,8.19l-2.12,14.45Z"/>
        <path class="cls-10" d="M324.25,131.01c-2.67-.66-21.65,10.09-27.99,13.71l-11.48,6.57-7.61,3.4c1.38-3.39,4.73-3.25,4.15-5.73,1.11.43,1.62-.34,2.55-1.14l5.26-4.52c3.45-2.38,6.57-4.96,9.52-7.97,3.52-1.1,6.74-2.57,10-4.38,1.45.01,2.46-1.01,3.66-1.46l7.43-2.83c6.57-2.5,12.9-4.87,19.79-6.66l11.22,4.94c3.25,1.43,6.75,2.66,9.58,5.19-6.81-1.54-12.81-5.64-19.92-5.52-4.21.08-8.62,2.83-12.57,4.34-1.31.5-2.01,2.44-3.59,2.04Z"/>
        <path class="cls-1" d="M458.42,256.45c-.08.82-.57,1.35-1.16,1.99l-5.45,5.95-6.98,7.64,3.27,12.26,4.59,15.02c-.94-.03-1.67-.87-2.4-1.72l-15.83-18.49c4.25-3.47,6.05-8.43,9.41-12.48l10.15-7.24c1.51-1.29,2.99-1.97,4.4-2.93Z"/>
        <path class="cls-7" d="M288.89,164.23c.26,2.2-4.25,1.92-4.97,4.77-1.07.27-1.8.34-2.73.76l-3.25,1.5-7.63,6.15c-3.19,4.3-6.98,8.58-8.33,13.77l.47,13.12c.01.31,1.51.59,1.72.35-.49.55.87-4.61.94-7.21.04-1.71,1.05-2.9,1.81-4.26l2.97-5.33c5.01-.65,9.66-1.68,14.57-2.34l15.79-2.12c2.25,2.5,5.01,3.72,7.41,5.61l12.71,9.98,13.13,10.36-16.09-24.34,22.19,13.51c1.08.66,1.71,1.88,2.45,3.01l6.72,10.27c1.1,1.68,2.49,3.49,3.36,5.36l13.04,27.92,13.77,14.22c1.64,1.7,2.75,2.5,5.02,3.48l7.06,3.05c3.84.97,7.27,1.94,11.54,2.53-.69,1.33-1.32,2.02-1.14,3.02l-14.46-.22-9.37-4.03c-2.44-.3-2.76-1.23-4.28-2.68-6.68-6.39-13.77-12.2-19.83-19.21l-3.51-3.39c-.51-.5-.83-2.37-2.51-1.74,3.96,7.06,16.07,24.95,20.37,27.25l10.39,5.53,9.62,4.7-.06,1.09-19.98-7.68-4.22-3.48-9.83-8.37-14.33-18.96-20.28-27.66-7.8.79c-3.67.37-7.61,1.59-11.37,1.25-4.47-.4-8.63-2.53-12.95-3.75-2.39-.68-4.87-1.04-7.14-2.15-2.5-1.22-9.15-.67-17.15-3.48l-6.67-4.21-4.37,3.68c-.31-.83-.55-1.84-1.27-2.67l-7.84,2.8c-1.84.66-3.16,1.29-3.44,3.16-1.89.29-2.82.85-4.22,2.12l-13.2,11.97-9.51,9.16-4.51,16.4-1.32,6.4-.28,3.41c-2.48.73-4.42,5.02-5.87,8.49-.16.4-1.22.4-1.19.1.04-.33.34-1.3-.45-1.81l-5.8,13.91-3.15,7.7c-.57,1.4-1.03,2.65-1.62,4.05l-5.77,13.83-3.43-15.94-.44-4.24-1.99-10.98-2.51-15.84c2.95-6.97,5.22-13.85,8.16-20.73l3.21-7.51c.61-1.43,1.01-2.69,1.64-4.15l6.48-14.98c3.86-.78,7.05-2.14,10.57-3.43l29.58-10.82,20.69,3.89-5.64-9.51c-1.15-1.93,1.1-4.63,1.94-6.52,1.02-2.29,1.55-5.57,3.8-6.98,6.63-4.16,14.14-5.97,21.61-8.25,1.2-.37,2.41-.54,2.3-1.86l10.68-1.59ZM346.77,238.82c.28.41.69,0,.28-.28l-.28.28ZM347.46,239.51l.28-.28c-.28-.41-.69,0-.28.28Z"/>
        <path class="cls-7" d="M203.54,311.7l-.04,3.89c-.09.17-.23.46-.23.67l.07,5.13-.59.39c-.21.14-.21.56.15.63l.62.11v1.84c-.56-.07-1.04.31-.9.88.08.34.45.63.75.79l.2,8.12c-.41-.03-.73.09-.9.41-.34.61.44.97.43,1.3l-.08,4.93c-.66.03-.91.4-.95.93-.05.58.02,1.13.64,1.33-.33.47-.15,1.41-.19,1.96-2.66.41-1.4-3.03-2.59-7.46l-5.03-18.79c-1.35-5.06-4.46-14.98-4.07-16.89l3.46-16.65c4.26-3.06,1.97-6.73,5.23-11.21,1.01-.12,1.59-.05,2.39.33-.8,2.25.07,3.97.13,5.91l.48,17.64.1,12.72c0,.77.36,1.11.92,1.1Z"/>
        <path class="cls-7" d="M421.04,358.49c-.2.36-.37.73-.7.99-.35-.06-.55-.44-.54-.99l.07-4.72c0-.39-.17-.78-.33-.93-.13-.12-.42-.17-.67-.14l-.71-8.15c.71-.35.78-1.02.68-1.79-.06-.45-.26-.92-.96-.9.26-.54-.17-1.43-.19-1.97l.82-3.22c1.49-1.79,1.34-3.12,1.16-5.24l-.37-4.38c1.69-3.36.2-6.93-.12-10.2-.25-2.51,1.1-4.26-.21-7.06-.59-1.25-.3-3.58-1.59-4.84-.55-.54-1.02-2-1.23-2.87.91-.71,1.82-1.48,1.58-2.09l-.76-1.93-1.03-4.62c-.25-1.12.52-3.63,1.39-4.33,1.1-.88,3.95,2.82,3.99,1.08,0-.23-.14-.85.12-1.29.45-.76,1.93-.46,2.64.22.43.42-.41,1.79-.06,2.34l6.85,10.84-5.82,30.93-2.87,14.26-1.88,9.92c-.12.64.32,1.06.77,1.08Z"/>
        <path class="cls-10" d="M417.37,304.95c1.29,1.26,1,3.58,1.59,4.84,1.31,2.8-.03,4.55.21,7.06.32,3.27,1.82,6.84.12,10.2l.37,4.38c.18,2.12.33,3.45-1.16,5.24l-.82,3.22c-.36-8.31-1.52-16.57-2.38-25.17l-1.15-11.44c1.01,1.06,1.68,1.99,3.22,1.67Z"/>
        <path class="cls-13" d="M203.01,340.79c-.01.93.2,1.53-.32,2.26-.61-.2-.69-.75-.64-1.33.05-.53.29-.9.95-.93Z"/>
        <path class="cls-13" d="M203.51,324.35c0,.56.1,1.14-.15,1.67-.29-.16-.67-.45-.75-.79-.13-.58.34-.95.9-.88Z"/>
        <path class="cls-13" d="M203.56,334.14c.01.59.21,1.37-.47,1.71,0-.33-.77-.7-.43-1.3.17-.31.5-.44.9-.41Z"/>
        <path class="cls-13" d="M203.51,322.51l-.62-.11c-.35-.06-.36-.49-.15-.63l.59-.39c.14.35.17.76.17,1.12Z"/>
        <path class="cls-13" d="M203.27,316.26c0-.21.14-.5.23-.67,0,.22-.1.5-.23.67Z"/>
        <path class="cls-7" d="M450.68,235.45l.6-1.09c.48-.21,1.3-.09,1.43.35.41,1.32-3.56,7.9-4.48,13.14-1.45,1.48-2.36,3.17-2.43,5.18l-5.4,5.12c-2.11,2.01-4.08,3.98-6.25,6.04l-4.52,4.29c-.37.35-1.68.29-1.95,1.15-.48,1.53-.07,3.82,1.38,5,1,.82,1.96,3.93.41,4.22l-10.95,2.05c-.55-1.05-.08-1.22.45-1.57,1.4-1.04,2.23-2.97,2.48-4.68l-8.31-4.88,8.4-.63c-3.61-1.42-8.4-3.09-8.3-3.6l.28-1.46c-2.37.17-4.54.27-6.88-.56-2.02-.72-4.87-.17-6.75-1.53-1.12-.81-1.97-2.03-3.42-2.79l-7.37-3.86-3.46-1.52c-2.05-.9-2.85-1.3-3.95-3.03-1.69-2.63-4.77-4.13-7.04-6.2l-9.96-9.1c-1.69-1.55-2.08-1.65-2.96-3.88l-7.22-18.42-10.58-27.47-4.11-10.75,36.97,13.33c2.51,1.4,4.17,4.33,6.07,6.27l12,12.23,3.18,4.07,13.91,18.49c2.41,3.21,4.35,6.65,7.37,9.3l-15.18-31.83-2.31-5.06c-.36-.78-.99-2.67-1.69-3.26l-18.67-15.84-18.76-14.04c1.92.61,3.97.26,5.12.86,2.52,1.31,4.35,3.05,7.37,3.57l7.11,3.48c6.68,2.46,12.9,5.1,19.48,8.04l15.76,12.96,6.64,6.09,16.25,31.21c.99,1.9,2.29,4.18,2.35,6.25l.35,11.1,5.37-10.7,2.53-5.15c.19-.38-.07-.89-.38-.9Z"/>
        <path class="cls-1" d="M339.59,198.51l-22.19-13.51-15.42-9.03-8.25-.13-19.23.34,6.67-6.42c.93-.43,1.66-.5,2.73-.76l19.32-4.85,14.68-.4,21.68,34.75Z"/>
        <path class="cls-1" d="M288.89,164.23l-10.68,1.59-6.96.44c1.93-1.51,3.82-2.52,5.99-3.41,8.31-3.41,16.69-5.77,25.45-8.19l12.32,3.84,1.5,3.2-8.7.97c-1.84.21-3.29-.23-4.99-.04l-13.93,1.6Z"/>
        <path class="cls-7" d="M275.72,155.56c.31,1.29-1.26,1.57-1.85,2.25l-3.88,4.49c-1.99,2.3-3.77,4.77-6.38,6.44l-7.86,5.03c.19-2.01,1.93-2.53,3.06-3.63l5.22-5.1c.56-.55.43-1.72.36-2.27,2.87-3.66,6.92-5.79,11.33-7.2Z"/>
        <path class="cls-10" d="M411.09,272.59l-.05-1.11c.36-.13.81-.11,1.06.23.18.24.04.64-.28.71l-.73.17Z"/>
        <rect class="cls-9" x="197.05" y="185.05" width=".36" height=".36" transform="translate(-73.21 193.69) rotate(-44.99)"/>
        <path class="cls-13" d="M281.18,169.77l-6.67,6.42,19.23-.34,8.25.13,15.42,9.03,16.09,24.34-13.13-10.36-12.71-9.98c-2.4-1.88-5.16-3.11-7.41-5.61l-15.79,2.12c-4.91.66-9.56,1.68-14.57,2.34l-2.97,5.33c-.76,1.36-1.77,2.56-1.81,4.26-.06,2.6-1.43,7.76-.94,7.21-.21.23-1.71-.04-1.72-.35l-.47-13.12c1.35-5.2,5.14-9.47,8.33-13.77l7.63-6.15,3.25-1.5Z"/>
        <path class="cls-13" d="M251.66,204.64c-.26,1.4-1.64,2.1-3.24,1.87l-9.3,1.42c.28-1.87,1.59-2.5,3.44-3.16l7.84-2.8c.72.83.96,1.84,1.27,2.67Z"/>
        <path class="cls-4" d="M346.77,238.82c.28.41.69,0,.28-.28l.69.69c-.28-.41-.69,0-.28.28l-.69-.69Z"/>
        <path class="cls-4" d="M387.82,277.56l-9.62-4.7-10.39-5.53c-4.31-2.3-16.42-20.19-20.37-27.25,1.69-.63,2,1.24,2.51,1.74l3.51,3.39c6.06,7.01,13.15,12.82,19.83,19.21,1.52,1.45,1.83,2.38,4.28,2.68l9.37,4.03,14.46.22c3.23.05,6.41-.5,9.63.13l.05,1.11c-.04.31-.03.63-.05.9l-8.61,3.43-7.33,3.29-8.29,3.75c-2.44,1.1-4.65,2.16-7.18,2.95s-3.61,1.15-6.22.1c-4.22-1.69-8.36-3.52-12.64-5.33l-17.66-7.47-14.84-19.25-15.5-19.96c-1.66-2.14-3.26-3.9-4.47-6.6l-51-16.67-6.99-2.13c-2.41,2.8-5.52,4.65-8.13,7.26-1.03,1.03-1.87,1.67-3.01,2.63l-5.02,4.24-10.69,9.47-11.51,14.15c-.77.95-.76,1.94-2.14,2.64-1.2.61-1.65,3.69-3.47,4l1.32-6.4,4.51-16.4,9.51-9.16,13.2-11.97c1.4-1.27,2.33-1.83,4.22-2.12l9.3-1.42c1.61.23,2.99-.48,3.24-1.87l4.37-3.68,6.67,4.21c8,2.81,14.65,2.27,17.15,3.48,2.26,1.1,4.75,1.47,7.14,2.15,4.32,1.22,8.48,3.35,12.95,3.75,3.77.34,7.71-.88,11.37-1.25l7.8-.79,20.28,27.66,14.33,18.96,9.83,8.37,4.22,3.48s21.22,7.16,20.04,6.59Z"/>
      </g>
    </g>
  </g>
</svg>