<?xml version="1.0" encoding="UTF-8"?>
<svg id="Réteg_1" xmlns="http://www.w3.org/2000/svg" version="1.1" viewBox="0 0 572.9 728">
  <!-- Generator: Adobe Illustrator 30.5.1, SVG Export Plug-In . SVG Version: 2.1.4 Build 3)  -->
  <defs>
    <style>
      .st0 {
        fill: #887789;
      }

      .st1 {
        fill: #7997b7;
      }

      .st2 {
        fill: #b7b4c4;
      }

      .st3 {
        fill: #9090aa;
      }

      .st4 {
        fill: #f8f2ee;
      }

      .st5 {
        fill: #f2bfa8;
      }

      .st6 {
        fill: #a17376;
      }

      .st7 {
        fill: #7e6a6a;
      }

      .st8 {
        fill: #625757;
      }

      .st9 {
        fill: #3f3a3b;
      }

      .st10 {
        fill: #c39c92;
      }

      .st11 {
        fill: #584d4c;
      }

      .st12 {
        fill: #937e89;
      }

      .st13 {
        fill: #25222f;
      }

      .st14 {
        fill: #af9085;
      }

      .st15 {
        fill: #bebcc8;
      }
    </style>
  </defs>
  <rect class="st1" x=".8" width="572" height="728"/>
  <g>
    <g>
      <path class="st15" d="M572.8,677v50.5h-46.6s-9.7-18.3-9.7-18.3c.9,0,2.5,0,3.2-.8l-.8-1.7c-.5-1,2.3-3.1,5.6-2.8-.5.9-.8,1.9-.7,2.8,0,.5,1.2.7,1.7,1.2.7.8,1.7,2.3,3,2.1.8,0,2-1.8,1.9-2.6-.1-1.4-1-2.5.2-4.1,1.2,2,2.5,2.6,4.3,3.4.5.2,1.1,1.4,1.6,1.3.8,0,3.3-1.4,3.4-2.5,0-.5-.9-1.1-1.6-1.6.9-2.5,1.6-5.6,1.7-8.3,0-.4,1-1.4-.2-1.6-1-.2-1.4-.7-1.7-1.5-.3-.7.2-2,1.3-1.5.7.4,1.2,2.5,2.4,1.9l5.2,6.5-7.2-24.5-13.3-48.3c1.1-.3,1.2.7,1.7,1.3l22.1,23.7,11.7,12.1,7.6,9.8c1,1.3,1.7,2.9,3.1,3.5h0ZM547.4,699.7l-.3.3.3.3.3-.3-.3-.3Z"/>
      <path class="st15" d="M484.7,655.9l6.5,62.8.8,8.8h-92.3s-5-5.2-5-5.2l-7.7-8.1-3-3.1-9.6-10.1-5.6-5.8-3.9-4.3-3.5-3.2-21.7-23-11.9-12.3-7.4-7.6-4.3-4.5c-1-1.1-2.2-1.8-2.6-3.6l-13.5,1.2-4-2.8-3.8-3.4-3.6-3.1c-1.9-1.7-3.2-4.1-5.9-5-.5-.9-1.3-2.1-2.2-2.9l-7.7-6.8-6.6-6.1-8.9-8.1c-1.1-1-2.2-1.8-3.1-3.1-1.8-2.6-5-3.6-6.6-6.9l20.5,6.3,8.2,2.6c5.1,1.6,9.8,3.1,14.9,4.5l14.3,4.2,4.7-1.4,27.1-9,31-11.1,20.3-7.5c.5-1.3,1.4-2.3,2.2-3.4l12.4-16.4,13.3-17.1,8.3-10.7,2.5-3.2,5.1-6.6c1.5,2.6,1,4.8,1,7.1v8.4s0,5.8,0,5.8l.4,3.2v4.3s-.1,9.2-.1,9.2v8.9c-.1,0-3.1,2.8-3.1,2.8-3.1,2.2-5.5,4.7-7.9,7.7s-6.2,5-9.6,6.6l-6.8,5.3-24,9.6-8.8,3.5c-2.5,1-5.2,1.4-7.5,3,.8,1.1,2.1,1.3,3.3,1.5l13.2,2.8,16.7,3.8,26.5-2.6,9.7-.8c2.1,3.9,5.4,6.3,8.7,8.9l4.9,3.8,8.7,7.7,2.7,2.6,15.8,14.5,8.1,7.2h0Z"/>
      <path class="st15" d="M223.3,523.2c.6,1.3,1.9,2,3.2,3l3.9,3.2,8.6,6.4,12.4,8.8,19.2,13.6c.8.5,1.4,1,2.2,1,.8,1,1.8,1.7,3.1,2.5l5,3.2,7.9,2,13.3,2.6,11.4,2.3h4.6s11.8-.4,11.8-.4l13.6-.9c-.5,2.2-2.2,4-3.5,6l-3.2,5.2-16.8,6.2-12.3,4.7-7.2,2.2c-1.4.4-3,.7-3.7,2.7-2.6-1.5-5.3-1.8-8.1-2.6l-6.2-1.6-16.5-4.9c-2-.6-2.6-.3-4.2-1.8l-49.9-46.6c-1.3-1.2-2-2.4-3.7-3.2l-7.1-33.1-4.5-18-4.2-19.9,6.7-6.1,2.7-2.3-.9,6.1c.3,3.8,0,8.1,1.2,11.6l3.9,10.5,14.5,35.8c.5,1.2,2.2,1.4,2.8,1.9h0Z"/>
      <path class="st2" d="M506.5,645.6c-.7,3.2-1.1,7.2.9,9.1,1.6,1.5,4.4.7,6.4-.3l1,1.4c-.9,1.7-1.5,3.7-.6,5.5.7,1.5,1.7,3,3.8,3.2l.5,2.7c7.1,2.4,1.7,9.1,4.9,10.4,1.7.7,2.3,2.8,3.5,3.7,2.3,1.7,2.7,3.5,4.1,5.9l3,2.8c.9.3,2.7-.3,3.9.8,0-1.6,0-2.2.3-3.2,1.3,1.8,3,3.3,3.7,5.5-1.2.6-1.7-1.5-2.4-1.9-1.1-.6-1.6.7-1.3,1.5.3.8.8,1.3,1.7,1.5,1.2.3.2,1.2.2,1.6,0,2.8-.8,5.8-1.7,8.3.7.5,1.6,1.1,1.6,1.6,0,1.1-2.6,2.4-3.4,2.5-.5,0-1.1-1.1-1.6-1.3-1.7-.8-3.1-1.4-4.3-3.4-1.2,1.6-.3,2.7-.2,4.1,0,.8-1.1,2.5-1.9,2.6-1.3.2-2.3-1.3-3-2.1-.5-.6-1.6-.8-1.7-1.2,0-.8.2-1.9.7-2.8-3.3-.3-6.1,1.8-5.6,2.8l.8,1.7c-.7.9-2.2.8-3.2.8-.9-.3-1-1-1.4-1.8.3,0,.5,0,.7-.1.3-.2,1.4-3.8-1.3-5.5-1-.6-1.8-1.5-3-1l-9.8-16.9-14.3-23.8c.6,0,.9-.5.6-1-3.2-5.1-5.1-10.5-7.2-16l-8.5-22.2-5.1-13.6-4.6-13.2s-.1-.2-.5-.5c.4.7,1.2,0,.4-.4l.7.8,9.2,10.7,12.4,15,4.5,5.3,8.3,9.7,5.8,7,3.1,4.1h0ZM526.1,706c-.4.6.1,1.1.7.9.2,0,.5.2.8-.3.2-.4,0-.7-.3-.8-.2,0-1,0-1.1.1h0Z"/>
      <path class="st3" d="M487.3,660.1l14.3,23.8,9.8,16.9,3.6,6.6c.4.8.5,1.5,1.4,1.8l9.7,18.3h-34.2l-.8-8.8-6.5-62.8c1.1,1,1.9,2.9,2.6,4.2h0Z"/>
      <path class="st0" d="M403.5,520.5l-3.3,4-21.9,25.4-9,5.8-14.1,8.1-11.8,6.6-13.6.9-11.8.4h-4.6s-11.4-2.3-11.4-2.3l-13.3-2.6c1.6-.8,3.5-.7,5.5-1.1l23.1-4.2,13.5-2.4c2-.4,4.2-.3,5.6-1.6l2.5.3,5.2-1,35.1-22,24.1-14.5h0Z"/>
      <path class="st0" d="M415.6,498.6l-6.5-15.7-5.5-13.6-6.9-4.5c-.9-.6-2.1-.8-2.1-1.9l16.1,4,3.4,4.4c5,6.4,5.7,6.8,3.8,15.9l-2.3,11.4h0Z"/>
      <path class="st3" d="M204.9,454.6l-2.3,4.1,3.2,12.4,5.3,15c-.7,1,.3,2.3.6,3.2l6.7,19.7,4.9,14.2c-.6-.5-2.3-.8-2.8-1.9l-14.5-35.8-3.9-10.5c-1.3-3.6-.9-7.8-1.2-11.6l.9-6.1,1.7-2c.1-.2.4-.5.5-.7h1.1s0,0,0,0Z"/>
      <path class="st15" d="M538.2,687.4c-.4,1-.4,1.6-.3,3.2-1.2-1-3-.5-3.9-.8l-3-2.8c-1.4-2.3-1.8-4.2-4.1-5.9-1.1-.9-1.8-3-3.5-3.7-3.3-1.3,2.2-8-4.9-10.4l-.5-2.7c-2.2-.2-3.1-1.8-3.8-3.2-.9-1.7-.3-3.8.6-5.5l7,9.1,7.5,10,3.3,4.9,5.6,7.7h0Z"/>
      <path class="st15" d="M513.8,654.4c-1.9,1-4.8,1.8-6.4.3-2.1-1.9-1.6-5.8-.9-9.1l2.6,3c1.7,1.9,3.4,4,4.7,5.8h0Z"/>
      <path class="st4" d="M526.2,727.5h-126.5l-5-5.2-7.7-8.1-3-3.1-9.6-10.1-5.6-5.8-3.9-4.3-3.5-3.2-21.7-23-11.9-12.3-7.4-7.6-4.3-4.5c-1-1.1-2.2-1.8-2.6-3.6l-13.5,1.2-4-2.8-3.8-3.4-3.6-3.1c-1.9-1.7-3.2-4.1-5.9-5-.5-.9-1.3-2.1-2.2-2.9l-7.7-6.8-6.6-6.1-8.9-8.1c-1.1-1-2.2-1.8-3.1-3.1-1.8-2.6-5-3.6-6.6-6.9l20.5,6.3,8.2,2.6c5.1,1.6,9.8,3.1,14.9,4.5l14.3,4.2,4.7-1.4,27.1-9,31-11.1,20.3-7.5c.5-1.3,1.4-2.3,2.2-3.4l12.4-16.4,13.3-17.1,8.3-10.7,2.5-3.2,5.1-6.6c1.5,2.6,1,4.8,1,7.1v8.4s0,5.8,0,5.8l.4,3.2v4.3s-.1,9.2-.1,9.2v8.9c-.1,0-3.1,2.8-3.1,2.8-3.1,2.2-5.5,4.7-7.9,7.7-2.3,2.9-6.2,5-9.6,6.6l-6.8,5.3-24,9.6-8.8,3.5c-2.5,1-5.2,1.4-7.5,3,.8,1.1,2.1,1.3,3.3,1.5l13.2,2.8,16.7,3.8,26.5-2.6,9.7-.8c2.1,3.9,5.4,6.3,8.7,8.9l4.9,3.8,8.7,7.7,2.7,2.6,15.8,14.5,8.1,7.2c1.1,1,1.9,2.9,2.6,4.2.6,0,.9-.5.6-1-3.2-5.1-5.1-10.5-7.2-16l-8.5-22.2-5.1-13.6-4.6-13.2.6-.2,9.2,10.7,12.4,15,4.5,5.3,8.3,9.7,5.8,7,3.1,4.1,2.6,3c1.7,1.9,3.4,4,4.7,5.8l1,1.4,7,9.1,7.5,10,3.3,4.9,5.6,7.7c1.3,1.8,3,3.3,3.7,5.5l5.2,6.5-7.2-24.5-13.3-48.3c1.1-.3,1.2.7,1.7,1.3l22.1,23.7,11.7,12.1,7.6,9.8c1,1.3,1.7,2.9,3.1,3.5v-102.9c-.9-.4-.8-1.5-1.2-2.4l-10.7-27.5-34.4-27.4-31.8-14.8-27-12.1-15.4-6.2-6-2.7-11.1-6-9.5-5-18.2-9.3-19.6-1.8c2,1.7,4.5,3.7,6.7,4.2l16.1,4,3.4,4.4c5,6.4,5.7,6.8,3.8,15.9l-2.3,11.4-1,4.6-.8,4.6-2.7,2.9-2.3,3.5c-.5.7-1.4,2.3-2.2,2.8-1.5,1-2.1,2.4-3.2,3.6l-3.3,4-21.9,25.4-9,5.8-14.1,8.1-11.8,6.6c-.5,2.2-2.2,4-3.5,6l-3.2,5.2-16.8,6.2-12.3,4.7-7.2,2.2c-1.4.4-3,.7-3.7,2.7-2.6-1.5-5.3-1.8-8.1-2.6l-6.2-1.6-16.5-4.9c-2-.6-2.6-.3-4.2-1.8l-49.9-46.6c-1.3-1.2-2-2.4-3.7-3.2l-7.1-33.1-4.5-18-4.2-19.9,6.7-6.1,2.7-2.3,1.7-2,.5-.7h1.1c5.3-1.4,8.6-4,12.8-5.2v-2.5c0,0-15.4,3.8-15.4,3.8l-24.2,17.4-18.2,8.3-22,6.8c-1-.4-12.7,1.2-13.6,2.3l-18.9,6.1-18.9,3-13.6,6.1-25.8,12.9s-23.5,19.7-24.2,19.7c0,0-17.7,35.1-19.7,37.1-.2.2-3.1,26.9-3,27.3,0,.2.6,129.9.6,129.9l572.2.5v-.5h-46.6s0,0,0,0ZM462.5,593c.8.4,0,1.2-.4.4l.4-.4Z"/>
      <path class="st15" d="M203.3,455.3l.5-.7c-.1.2-.3.5-.5.7Z"/>
      <rect class="st4" x="547.2" y="699.8" width=".4" height=".4" transform="translate(-334.7 591.9) rotate(-45)"/>
      <path class="st15" d="M515.2,707.4l-3.6-6.6c1.2-.4,2,.4,3,1,2.7,1.7,1.6,5.2,1.3,5.5-.1.1-.4.2-.7.1Z"/>
      <path class="st15" d="M526.1,706c.2-.2.9-.2,1.1-.1.2,0,.5.4.3.8-.2.5-.6.2-.8.3-.5.2-1.1-.4-.7-.9h0Z"/>
    </g>
    <g>
      <g>
        <path class="st5" d="M425.2,281.2l.3,14.9.4,20.3-8.4,25.1-2.8,8.8-4.5,2.5c.6-2.2.2-4.1,0-6.3l-1-15v-.9c-.1,0,0-.6,0-.6,1.3-.8,3.7-1,4.6-2.4l3-4.2,5-9.3-1.5-6.8-3.3-14.7,5.9-11.7c.4-.4,1.7,0,2.1.1h0Z"/>
        <path class="st5" d="M418.9,279.6v-9.8c-.1,0-.9-8.1-.9-8.1,0-.8-.8-1.6-.3-2.7.3-.5-.2-1.4-.2-2-.4-8.3-5.1-31.2-5.1-31.2,0,0-8-40.9-8.6-43.7-.5-2.7-3.5-11.6-4.3-16.2-.8-4.5-2.1-11.3-11.6-24.8l-14.9-12.9-27.8-14.9-17.9-4.3c-3.8-1.1-29.1-4-40.1-3.3l-24.6,6.4-27.7,13.6c-2.4,2.8-15.7,13.6-18.3,16.2s-10,16.7-11.1,17.7l-6.1,13.1-4.7,12.2-.3,1.2c-.8.9-1.2,11.9-1.2,14.4s0,4.4,0,6.3l-.3,3.4-2.4,42.3v12c0,0-.1,3.9-.1,3.9,0,.2-.1.5-.2.7v5.1c.2.4.2.8.2,1.1v1.8c0,.6.1,1.1-.1,1.7l.2,8.1c0,.6.2,1.4-.5,1.7v4.9c0,.9.1,1.5-.4,2.3-.3.5-.1,1.4-.2,2l-1.2,17.6.6,4.1c-.2,3.7,2,8.3,1.6,10.7-.3,2,.8,5.5,1.1,7.5l2.1,14.2,1.1,10,3.2,21.2,1.1,4.7,1.5,3.7.2.4h0c0,0,2.8,4,4,6.2l3.2,6.2,8.9,13.3c.9,1.4,2.2,2.3,2.7,3.8h.6c0,0,3,3.1,3,3.1l2.2,3.4c1.5,1,2.8,1.5,3.8,3.1,1.3,2,3.3,3.6,5.4,4.4-.2.6.3,1.1.4,1.5l5.1,3.7,3.5,2.8,3,2.6,8.9,7,2.5,2.2,4.6,3.1,5.8,3.9c2.3,1.5,4,2,6.7,2.1h9.1c0,.1,26-.2,26-.2l10.9-4.9,16.2-7.5,7.7-7.3c2.5-2,4.9-3.9,6.4-6.6-.7.2-1.3.5-2.4.2,1.3-.9,1.5-2,1.4-3.5,1.7.3,2,1.3,3,1.8l2.6-1.7c.7-1.5,1.6-1.7,2.7-2.8l2.6-2.8c1.4-.5,1.4-1.2,2.2-2.1l4.7-4.9,4.4-4,4.1-3.7c2.6-2.3,4.8-4.8,7.2-7.1l4.1-4.1,5.2-6.2c.8-1,2.6-2.8,3-4l4.4-24,1.1-8.2c.3-2.1,1-3,2.7-4.1l6.1-4.1c.6-2.2.2-4.1,0-6.3l-1-15c-1.6-.2-2.9.9-4.5,2.3-.8-1.6,0-3.1.2-4.8l1.5-10.3c.1-.8-.1-1.6-.7-2,.2-1.2,9-15.2,8.9-16.5-.4,0,4.1-20.1,4.1-20.7h0ZM217.5,406.8l-.3-.3.3-.3.3.3-.3.3Z"/>
        <path class="st0" d="M420.5,307.4l1.5,6.8-5,9.3-3,4.2c-1,1.4-3.4,1.6-4.6,2.4-.6-.3-.9.6,0,.6v.9c-1.5-.2-2.7.9-4.4,2.3-.8-1.6,0-3.1.2-4.8l1.5-10.3c.1-.8-.1-1.6-.7-2,.2-1.2.6-2.4.5-3.6l.7-.6c.3-.2.5-.6.7-1l2.5-4.8c1.8,1.4,4.1,2.6,4.7,2.2l2-1.3,3.5-.4h0Z"/>
        <path class="st12" d="M420.5,307.4l-3.5.4-2,1.3c-.6.4-2.9-.8-4.7-2.2l3-6,3.9-8.1,3.3,14.7h0Z"/>
        <rect class="st12" x="217.3" y="406.4" width=".4" height=".4" transform="translate(-223.8 272.8) rotate(-45)"/>
        <path class="st14" d="M409.2,330.7c-.9,0-.5-.9,0-.6v.6Z"/>
        <path class="st5" d="M252.3,387.7h1c3.3,2.4,7.2,3.6,11,5.4l10.5,5,4.2,3.5-7.1,12.4c-.3-.1-1,0-1.2,0-1.5-1.1-3.8-1-5.7-1.4l-7.7-2-5-15.1-1.5-5.1c0-.7.7-1.7.4-2.5h1.1c0-.1,0,0,0,0Z"/>
        <path class="st6" d="M252.3,387.7h-1.1c0,0,0-.4,0-.6.4,0,.8.3,1,.6Z"/>
        <path class="st7" d="M410.3,346.6l-1-15c-1.6-.2-2.9.9-4.5,2.3-.8-1.6,0-3.1.2-4.8l1.5-10.3c.1-.8-.1-1.6-.7-2l-5.5,29.5-6.9,6.3-14.2,13-10.5,11.9-7.1-.4c-1.1,0-2-.3-2.7-.7l1.1,2.2c-.8,1.3-1,2.7-1.2,4.2-1,1.3-1.8,2.7-1.5,4.2-1.4,1.3-1.6,3.3-2.4,5-1,.4-1.6-.5-2.4-1.3-1-1-2.9.4-3.2,1.5l-2.5-.3h-2.6c-1.5,1.1-1.8,2.9-2.6,4.6l-10.3,19.5c-1,2-1.4,4.1-3,6l-19-10.5,1.6-9.9h-10.9c-3.5,0-6.7-.1-10.1,0l-10.9.2-7.1,12.4c-.3-.1-1,0-1.2,0-1.5-1.1-3.8-1-5.7-1.4l-7.7-2-5-15.1-1.5-5.1c-.9-.2-1.6.4-1.7,1.4-.1,1.2-1.7,1.3-2.2,1.8-1.3,1.3-2.3,1.1-3.9,1.5l-7.2,2c-.2.3-.2.7-.4,1-.5,0-1.1.1-1.6.5l-10.6,6.9c-.9-2.3-.9-5-2.2-6.9,0-.1-.1-.4,0-.6l-2.3-10.7-2.2-8.2c-.5-2-2.8-3.3-4.1-4.4-.5-.8-1-1.8-1.9-2.8l-7-8.3-10.1-11.3,1.1,10,3.2,21.2,1.1,4.7,1.7,4.2s2.8,3.9,4,6.2l3.2,6.2,8.9,13.3c.9,1.4,2.2,2.3,2.7,3.8h.6c0,0,3,3.1,3,3.1l2.2,3.4c1.5,1,2.8,1.5,3.8,3.1,1.3,2,3.3,3.6,5.4,4.4-.2.6.3,1.1.4,1.5l5.1,3.7,3.5,2.8,3,2.6,8.9,7,2.5,2.2,4.6,3.1,5.8,3.9c2.3,1.5,4,2,6.7,2.1h9.1c0,.1,26-.2,26-.2l10.9-4.9,16.2-7.5,7.7-7.3c2.5-2,4.9-3.9,6.4-6.6-.7.2-1.3.5-2.4.2,1.3-.9,1.5-2,1.4-3.5,1.7.3,2,1.3,3,1.8l2.6-1.7c.7-1.5,1.6-1.7,2.7-2.8l2.6-2.8c1.4-.5,1.4-1.2,2.2-2.1l4.7-4.9,4.4-4,4.1-3.7c2.6-2.3,4.8-4.8,7.2-7.1l4.1-4.1,5.2-6.2c.8-1,2.6-2.8,3-4l4.4-24,1.1-8.2c.3-2.1,1-3,2.7-4.1l6.1-4.1c.6-2.2.2-4.1,0-6.3h0ZM217.5,406.8l-.3-.3.3-.3.3.3-.3.3Z"/>
        <path class="st7" d="M353.2,436.6c-.7.5-1.1,1.2-2.1,1.5-.7.2-1.3.5-2.4.2,1.3-.9,1.5-2,1.4-3.5,1.7.3,2,1.3,3,1.8h0Z"/>
        <polygon class="st0" points="328.7 279.9 329.1 279.9 329.4 279.9 329.1 279.9 328.7 279.9 328.4 279.9 328.7 279.9"/>
      </g>
      <g>
        <path class="st5" d="M387.8,403.4l-.4,19.4-1.2,35.4c0,.7,1.5.7,1.8.6,2,1.7,4.5,3.7,6.7,4.2,0,1.1,1.2,1.4,2.1,1.9l6.9,4.4,5.5,13.6,6.5,15.7-1,4.6-.8,4.6-2.7,2.9-2.3,3.5c-.5.7-1.4,2.3-2.2,2.8-1.5,1-2.1,2.4-3.2,3.6l-24.1,14.5-35.1,22-5.2,1-2.5-.3c-.6-1.1-2-1.4-3.2-2l-14.2-7.4c-3.1-1.6-6.2-2.8-9-5l3.3-12.5,2.6-8.2,7.4-23.4,8.7-10.3,3.1-4.1,5.4-5.9c1.1-1.2,1.6-2.6,2.5-3.8l10.3-13.9c1.2-1.6,2.5-3.2,3.8-5l4.5-6.2c1.2-1.7,3.3-3.2,3.8-5.2l6.9-26.4,4.1-3.7c2.6-2.3,4.8-4.8,7.2-7.1l4.1-4.1h0Z"/>
        <path class="st5" d="M222.8,424.8l2.2,3.4c1.5,1,2.8,1.5,3.8,3.1,1.3,2,3.3,3.6,5.4,4.4-.2.6.3,1.1.4,1.5l3.7,8.9,14.6,32.2c1.1,2.3,2.2,4.5,2.6,7,.2,1.3-.4,2.5.5,3.9.6,1-.1,2.7.1,3.6.8,2.8.9,5.5,1.2,8.3l1,10.4,4.3,35.1c1.9,1.7,3.1,3.5,4.5,5.4l5.7,7.2c-.8,0-1.4-.4-2.2-1l-19.2-13.6-12.4-8.8-8.6-6.4-3.9-3.2c-1.3-1-2.6-1.7-3.2-3l-4.9-14.2-6.7-19.7,1.5-6.9c.4-2.1.7-3.8,1.1-5.8l3.4-17.3c.1-.7-.4-1.2-.4-1.5-.2-1.1,0-3.1,0-4.4l.3-3.9v-2.5c0,0,1.2-17.4,1.2-17.4l-.2-3.9.5-4h.6c0,0,3,3.1,3,3.1h0Z"/>
        <path class="st10" d="M217.7,449.4l-.3,3.9c-.1,1.4-.3,3.3,0,4.4-.3.2-.6.5-.7,1l-4,21.7c-.4,2.1-.5,4-1.5,5.6l-5.3-15-3.2-12.4,2.3-4.1c5.3-1.5,8.6-4.1,12.8-5.2h0Z"/>
        <path class="st10" d="M239.8,440.8l3.5,2.8,3,2.6,8.9,7,2.5,2.2,4.6,3.1,5.8,3.9c2.3,1.5,4,2,6.7,2.1l4.2,8.6,8.7,4.8,4.4,2.8,3.2,1.8,8.4,5,19.7,11.5-7.4,23.4-2.6,8.2-3.3,12.5c2.8,2.2,5.9,3.4,9,5l14.2,7.4c1.2.6,2.6.9,3.2,2-1.5,1.3-3.6,1.2-5.6,1.6l-13.5,2.4-23.1,4.2c-2,.4-3.9.3-5.5,1.1l-7.9-2-5-3.2c-1.3-.8-2.3-1.5-3.1-2.5l-5.7-7.2c-1.5-1.9-2.6-3.7-4.5-5.4l-4.3-35.1-1-10.4c-.3-2.9-.4-5.5-1.2-8.3-.3-.9.5-2.7-.1-3.6-.9-1.4-.3-2.6-.5-3.9-.4-2.5-1.6-4.7-2.6-7l-14.6-32.2-3.7-8.9,5.1,3.7h0Z"/>
        <path class="st14" d="M372.4,418.4l-6.9,26.4c-.5,1.9-2.6,3.5-3.8,5.2l-4.5,6.2c-1.3,1.8-2.5,3.4-3.8,5l-10.3,13.9c-.9,1.2-1.3,2.5-2.5,3.8l-5.4,5.9-3.1,4.1-8.7,10.3-19.7-11.5-8.4-5-3.2-1.8-4.4-2.8-8.7-4.8-4.2-8.6h9.1c0,.1,26-.2,26-.2l10.9-4.9,16.2-7.5,7.7-7.3c2.5-2,4.9-3.9,6.4-6.6,1-.2,1.3-1,2.1-1.5l2.6-1.7c.7-1.5,1.6-1.7,2.7-2.8l2.6-2.8c1.4-.5,1.4-1.2,2.2-2.1l4.7-4.9,4.4-4h0Z"/>
        <path class="st4" d="M211.7,489.3c-.3-.8-1.2-2.2-.6-3.2,1-1.6,1.1-3.5,1.5-5.6l4-21.7c0-.5.4-.8.7-1,0,.3.6.8.4,1.5l-3.4,17.3c-.4,2-.7,3.8-1.1,5.8l-1.5,6.9h0Z"/>
      </g>
      <path class="st13" d="M261.9,287.2c0,.5,0,.6-.2.9l-8-5.4c-1.3-.9-2.5-1.7-4.3-2-3.2-.2-9.9-1.6-17.5.4l-8.5,2.8c-2.6.8-4.4,3.4-6.3,4.9l-2,1.6c-.3.2-.5.4-.7.3-.2,0-.4-.3-.6-.4,4.9-8.7,12.4-13.4,22.9-13.4,4.8,0,9.5-.6,14.3.3l6.1,5.6,4.8,4.3h0Z"/>
      <path class="st13" d="M353.1,276.3c3.2,0,8.9,3.4,7.9,3.3-.1.8,1,1.5,1.8,1.7,2.6,2.8,5.4,5.5,7.6,9.2-1.8.2-2.7-1-3.9-1.2-3.5-3.9-7.8-7-13-8.5,0,0-5.8-2.5-17-.9-5.5,1.1-9.3,4.2-13.3,6.9l-6.1,4.2c-.1-.2-.1-.5,0-.8l11.2-9.9,9.5-4.1,15.3.2h0Z"/>
      <path class="st13" d="M249.5,280.7c1.2,2.8,3,5.7,2,8.6l-1.9,6c-4.5,2-9.6,2.3-14.6,2.2l-3.9-6.1c-2-3-.6-6.9.8-10.2,0,0,10.7-8,17.5-.4h0Z"/>
      <path class="st13" d="M353.5,280.8l1.6,5.6c.5,1.6-2.4,8.3-3.9,9.4-.4.3-.6,1-.5,1.3-4.3.5-8.7,0-12.9-.8-3.8-6.7-4-9.3-1.2-16.4,2-2.7,10.7-5.7,17,.9h0Z"/>
      <path class="st13" d="M382.5,266.1l-16.4-7.7c-1-.5-2.2-.5-3.2-.5h-1.2c0,0-5.9.3-5.9.3-1,0-1.7,0-2.6.1l-13.7.4c-.2,0-.5.2-.8.2h-3.5c0,.1-3.2.6-3.2.6h-2s-1.5,0-1.5,0h-1s-6.1.5-6.1.5c-3.6.2-7.4,0-11.1,1.4-.8,1.4-1.4,3-1.8,4.4l-1.7,6.8c.1.9,1.8.1,2.3.1l5.7-.3,5.9-.2c2.3,0,4,.1,6.3,0l14.8-.9c4.1-.2,8-.6,11.7,0l8.5-.4,15.6,1.2c2.2.2,4.2.3,6.2-.1.2,0,.6,0,.9.1l-2.2-6h0Z"/>
      <path class="st13" d="M267.1,267.8c-1.1-.8-1.7-1.8-2.5-2.6l-1-1.1c-.8-.8-1.2-2-2.3-2.9-.6-.5-.9-1.1-.9-1.7l-4-.4h-4.1c0-.1-1.5-.1-1.5-.1-.6-.7-1.8-.7-2.6-.2l-15.4-.5c0,1-1.1.9-1.1,0l-7.6-.4c-1,0-2.2.1-3.1.5-1.2-.6-2.5-.5-3.7-.4-.8,0-2-.3-2.9.1l-14.4,7.2-1.5,6.2c1.8.3,3-.3,4.5-.4.6,0,1.3.3,1.9,0,0,.3,0,.7.4.8.3,0,.6-.2.8-.4l5.7-.2h11.8c0,.1,1.6-.4,1.6-.4,5.8-.6,20.2-1.2,22.6-.1.3.1.8,0,1.1,0h8.7c0,.1,12.5.2,12.5.2-.4-1.6-1.7-2.3-2.8-3.1h0Z"/>
      <g>
        <path class="st6" d="M304.9,377.1l11,.6,20.6,1.8c.3,1.1-.3,2-.3,2.6l-15.3,1.7-8.2.5-22.4,1.6-34.4-1.4c-2,0-3.9-1.3-5.6-.8-.5-.7-1.1-1.1-1.3-2.2l7.9-1.4,12.3-2.1,4.6-.8c6.4.9,12.9,2.3,19.4,1.4l11.7-1.5h0Z"/>
        <path class="st13" d="M336.2,382.1c.3,1.1.6,2.2.4,3.5-1,0-2.2.4-3,.8-.1-.5-.4-.7-.7-.7l-19.3.7-24.9,1.6c-11.1,0-21.8-1.4-33-.8-1,0-2-.5-2.5.5h-1c-.3-.4-.6-.5-1-.6-.9-.9-1.1-2.1-.9-3.3,1.7-.5,3.6.7,5.6.8l34.4,1.4,22.4-1.6,8.2-.5,15.3-1.7h0Z"/>
        <path class="st6" d="M333.6,386.4l-23.3,10.6-7.7.2c-4.5.1-8.6.2-13,.3l-14.8.6-10.5-5c-3.8-1.8-7.7-3.1-11-5.4.5-1,1.5-.5,2.5-.5,11.2-.6,21.8.7,33,.8l24.9-1.6,19.3-.7c.3,0,.6.2.7.7h0Z"/>
      </g>
      <path class="st13" d="M360.2,378.5l-1.1-2.2-7.4-15-2.3-.4-3.2-.9-7.5-1.7-8.4-1.7-14.3-3.1-4.3-1.3c-1.8-.6-6.1,2.2-9,2.1-2,0-2.3.9-3.3,1.8l-3.7,3.1-5.4,4.4c-.5.4-1.9,0-2.4-.3l-9-5c-.1-.3-.5-.7-.5-1.1l-8.3-4.5c-1.4-.8-3.1-.8-4.2.2-1.1,1-2.6.9-3.8,1.4l-13.5,6-7.4,3.1-7.2,3.5-5.4,19.6c.7,1.2,1.5,2.3,1.9,3.6.5,1.8,1.9,2.5,2.9,3.8l2.3,2.9,7.2-2c1.6-.4,2.6-.2,3.9-1.5.5-.5,2-.5,2.2-1.8.1-1,.8-1.6,1.7-1.4,0-.7.7-1.7.4-2.5,0-.2,0-.5,0-.7-.9-.9-1.1-2.1-.9-3.3-.5-.7-1.1-1.1-1.3-2.2l7.9-1.4,12.3-2.1,4.6-.8c6.4.9,12.9,2.3,19.4,1.4l11.7-1.5,11,.6,20.6,1.8c.3,1.1-.3,2-.3,2.6.3,1.1.6,2.2.4,3.5,1,0,2,1.7,3.1,2,2.3.8,3.5,2.2,4.6,4.1h2.6s2.5.4,2.5.4c.4-1.2,2.2-2.5,3.2-1.5.8.8,1.4,1.7,2.4,1.3.7-1.7,1-3.7,2.4-5-.2-1.5.6-2.8,1.5-4.2.2-1.5.5-2.9,1.2-4.2h0Z"/>
      <g>
        <path class="st10" d="M347.8,359l-18.5-13.2,2.6-18.8,2-13.8-4.9-3.3-18-11.7-5.5-11.7-2-2.7-2.6-5.4c-1,.5-1.2,1.6-1.5,2.9-2.8,14.8-4.6,29.5-5.8,44.9l23.9,7.7-.4,13.5c0,.4.3,1.1,0,1.3l-1,.6-5.9-1.7c0,0,0,.9-.2.9-4.3-.2-8.5.2-12.7,1.7-1.5.6-2.6,2.2-4.8,2.1,0-.4,0-1.1.2-1.7l-6.7,1.4c-2.8,0-6.1-1.2-8.2-2.8l-8.4-6.2c-3,1.5-6.1,3.1-8.1,5.7.6.6,1.8,1.8,2.7,1l2-1.8c.9-.8,2.9-2.4,4.5-1.7,1.8.9,2.9,3.3,3.9,4.8,1.4,2.1,3.7,3.5,4.1,6.1,0,.4.4.8.5,1.1l9,5c.5.3,1.9.7,2.4.3l5.4-4.4,3.7-3.1c1-.9,1.3-1.9,3.3-1.8,2.9.1,7.2-2.7,9-2.1l4.3,1.3,14.3,3.1,8.4,1.7,7.5,1.7,3.2.9c0-1-.8-1.3-1.7-1.9h0Z"/>
        <path class="st9" d="M310.4,347.5c0,0,0,.9-.2.9-4.3-.2-8.5.2-12.7,1.7-1.5.6-2.6,2.2-4.8,2.1,0-.4,0-1.1.2-1.7,3.3-2.3,5.7-6,10.8-4.8l6.7,1.7h0Z"/>
        <path class="st9" d="M274.4,351.2l-4.3-2.1c-1.3-.6-2.9-.2-4.1-1,.9-.8,2.9-2.4,4.5-1.7,1.8.9,2.9,3.3,3.9,4.8h0Z"/>
      </g>
      <g>
        <path class="st9" d="M311,84.1l-5.2,3.6c-.4.3-.5.7-.6.9-1.4.4-2.4,1.5-4,2.7l9.1,2.5,15.5,4.6,20.5,5.9,14.5,8.4,4.3,2.3c4.5,2.4,8.7,4.9,13.1,7.5l13.4,7.8,6.7,5.1,3.6,2.6,11.3,10.8,5.8,5.6,1.6,4.1c.7,1.8,1.5,3.2,2.1,4.8l8,21.2c1,2.8,2.2,5.4,2.5,8.4l4.3-4.4c.3,0,.6.5.4.9l-2.5,5.1-5.4,10.7-.4-11.1c0-2.1-1.4-4.4-2.4-6.2l-16.2-31.2-6.6-6.1-15.8-13c-6.6-2.9-12.8-5.6-19.5-8l-7.1-3.5c-3-.5-4.9-2.3-7.4-3.6-1.2-.6-3.2-.2-5.1-.9l18.8,14,18.7,15.8c.7.6,1.3,2.5,1.7,3.3l2.3,5.1,15.2,31.8c-3-2.6-5-6.1-7.4-9.3l-13.9-18.5-3.2-4.1-12-12.2c-1.9-1.9-3.6-4.9-6.1-6.3l-37-13.3,4.1,10.8,10.6,27.5,7.2,18.4c.9,2.2,1.3,2.3,3,3.9l10,9.1c2.3,2.1,5.4,3.6,7,6.2,1.1,1.7,1.9,2.1,4,3l3.5,1.5,7.4,3.9c1.5.8,2.3,2,3.4,2.8,1.9,1.4,4.7.8,6.8,1.5,2.3.8,4.5.7,6.9.6l-.3,1.5c-.1.5,4.7,2.2,8.3,3.6l-8.4.6,8.3,4.9c-.3,1.7-1.1,3.6-2.5,4.7-.5.4-1,.5-.5,1.6l11-2c1.5-.3.6-3.4-.4-4.2-1.5-1.2-1.9-3.5-1.4-5,.3-.9,1.6-.8,2-1.1l4.5-4.3c2.2-2.1,4.1-4,6.2-6l5.4-5.1c0-2,1-3.7,2.4-5.2.9-5.2,4.9-11.8,4.5-13.1-.1-.4-1-.6-1.4-.4l3.5-4.8,1.3,15c-2.4,3.7-4.2,7.1-7.1,10.8l9-1.9,5-1.5c-.2,1.1-.3,1.8-1.5,2.6l-3,2c-1.4,1-2.9,1.6-4.4,2.9l-10.1,7.2c-3.4,4-5.1,9-9.4,12.5l15.8,18.5c.7.9,1.5,1.7,2.4,1.7.8,2.5-1.5,5.6-2.8,7.8l-5,9-3,5.8-3.5,6.2c-.4,0-1.8-.5-2.1-.1l-5.9,11.7-3.9,8.1-3,6-2.5,4.8c-.5,0-.9-.4-.8-1.1l1.9-9.9,2.9-14.3,5.8-30.9-6.9-10.8c-.4-.6.5-1.9,0-2.3-.7-.7-2.2-1-2.6-.2-.3.4-.1,1.1-.1,1.3,0,1.7-2.9-2-4-1.1-.9.7-1.6,3.2-1.4,4.3l1,4.6.8,1.9c.2.6-.7,1.4-1.6,2.1.2.9.7,2.3,1.2,2.9-1.5.3-2.2-.6-3.2-1.7v-1c.5-.5.5-1.1.6-1.8,0-.8-.2-1.5-1.1-1.3v-1c.4-.3.5-.8.6-1.3,0-.6-.4-.9-1-.9,0-1.1.1-2.5-.2-3.5.7-.3.6-.9.7-1.3.1-.8-.2-1.4-1.1-1.4v-2.5c.1-.2.5-.5.5-.8,0-.6-.4-.9-.9-.9l-.2-4.6c.2,0,.7,0,.7-.5,0-3.1,1.5-5.6.4-6.9-.4-.4-1.5-.6-2-.4,0-.3,0-.6,0-.9l.7-.2c.3,0,.5-.5.3-.7-.2-.3-.7-.4-1.1-.2-3.2-.6-6.4,0-9.6-.1-.2-1,.5-1.7,1.1-3-4.3-.6-7.7-1.5-11.5-2.5l-7.1-3c-2.3-1-3.4-1.8-5-3.5l-13.8-14.2-13-27.9c-.9-1.9-2.3-3.7-3.4-5.4l-6.7-10.3c-.7-1.1-1.4-2.4-2.5-3l-21.7-34.8-14.7.4-19.3,4.9c.7-2.9,5.2-2.6,5-4.8l13.9-1.6c1.7-.2,3.1.2,5,0l8.7-1-1.5-3.2-12.3-3.8c-8.8,2.4-17.1,4.8-25.5,8.2-2.2.9-4.1,1.9-6,3.4l7-.4c.1,1.3-1.1,1.5-2.3,1.9-7.5,2.3-15,4.1-21.6,8.2-2.2,1.4-2.8,4.7-3.8,7-.8,1.9-3.1,4.6-1.9,6.5l5.6,9.5-20.7-3.9-29.6,10.8c-3.5,1.3-6.7,2.6-10.6,3.4l-6.5,15c-.6,1.5-1,2.7-1.6,4.1l-3.2,7.5c-2.9,6.9-5.2,13.8-8.2,20.7l2.5,15.8,2,11,.4,4.2,3.4,15.9,5.8-13.8c.6-1.4,1.1-2.6,1.6-4l3.1-7.7,5.8-13.9c.8.5.5,1.5.4,1.8,0,.3,1,.3,1.2-.1,1.4-3.5,3.4-7.8,5.9-8.5l-2.4,42.3v12c-.6,0-1-.3-1-1.1v-12.7c-.1,0-.6-17.6-.6-17.6,0-1.9-.9-3.7-.1-5.9-.8-.4-1.4-.5-2.4-.3-3.3,4.5-1,8.1-5.2,11.2l-3.5,16.6c-.4,1.9,2.7,11.8,4.1,16.9l5,18.8c1.2,4.4,0,7.9,2.6,7.5l-1.2,17.6-1.1-1c.4-.6-.1-1.1-.4-1.7l-3.5-6.9c-.3-.7-.5-1.2-1.3-1.3-.4-3.1-2.6-5.8-3.7-8.9-1-2.8,1.4-8.5,1.2-13.6l-5.3-15.1-6.2-6.5c-3-3.1-5.3-6.2-8.8-8.9l-4.6-31.8,3.3-15.3,3.4-14.1,4.6-18.1-4.4,5.4c-1,1.2-1.3,2-1.7,3.4-2.2,6.6-4.4,13-5.9,19.8l-4.8,20.8c.1-3.6.6-6.9,1.2-10.5l3.4-20.9c.4-2.5,1.3-4.6,1.7-7.2.3-2.1,1.3-4.2,1.9-6.4,1-3.9,1.5-8.3,3.4-11.6,1.9,1.2,4-2.5,7.2-4.6,1.7-1.1,3.4-2,5.1-3.2l22.5-16.8c7.7-.4,14.9,0,22.6,0s6.2.6,9.7-.3c-3.8-3.9-12.9-5.7-18.9-6.9-2.7-.5-5.9-2.1-9.3-2.7l9.8-8.3,4.2-2.9c4.3-3,9.1-6.3,13.7-8.6l7,1.8,14.9,5.2,2.1-1.9c0,.6.2,1.7-.4,2.3l-5.2,5.1c-1.1,1.1-2.9,1.6-3.1,3.6l7.9-5c2.6-1.7,4.4-4.1,6.4-6.4l3.9-4.5c.6-.7,2.2-1,1.9-2.2.4-.1,1.3-.4,1.5-.9l7.6-3.4,11.5-6.6c6.3-3.6,25.3-14.4,28-13.7h0Z"/>
        <path class="st11" d="M305.2,88.7h18c7.8,0,36,4.7,38.9,6.4l13.2,7.5,7,4.3,14.1,8.5,5.4,3.4,14,9.7,10.2,7.4,4.6,18.2c-.9,0-2.3-.3-3.2.4l-.4,4-2.4,3.3c-.6.8-1.2,1.4-1.9,1.6-.6-1.6-1.4-3-2.1-4.8l-1.6-4.1-5.8-5.6-11.3-10.8-3.6-2.6-6.7-5.1-13.4-7.8c-4.4-2.6-8.6-5-13.1-7.5l-4.3-2.3-14.5-8.4-20.5-5.9-15.5-4.6-9.1-2.5c1.5-1.2,2.6-2.3,4-2.7h0Z"/>
        <path class="st8" d="M268.1,102.1c.6,2.5-2.8,2.3-4.1,5.7-.2.5-1,.7-1.5.9-4.4,1.4-8.5,3.5-11.3,7.2l-2.1,1.9-14.9-5.2-7-1.8c-4.7,2.2-9.4,5.6-13.7,8.6l-4.2,2.9-9.8,8.3c3.4.6,6.6,2.2,9.3,2.7,6,1.2,15.1,3,18.9,6.9-3.5.9-6.5.3-9.7.3-7.7,0-15-.4-22.6,0l-22.5,16.8c-1.7,1.3-3.4,2.1-5.1,3.2-3.2,2.1-5.2,5.9-7.2,4.6,2-3.3,5.2-6.1,7.8-9.1l5.1-5.7c1.6-1.8,3.3-3.1,4.8-5,1.7-2.3,4.5-3.7,5.5-6.8l-9.4,3c-2.7.9-5.3,2.6-8.5,1.7l13.9-7.7,12.8-8.3,9-8.5,10.8-9.8c3.2-2.9,6.4-5.4,9.4-8.6,1.1-1.1,3.2-1,4.6-1.5l15-5.8c5.3,1.5,10.5,2.8,15.6,4.8l11.5,4.4h0ZM184,138.1l-.3.3.3.3.3-.3-.3-.3Z"/>
        <path class="st8" d="M449.7,204.9l-5,1.5-9,1.9c2.9-3.7,4.7-7,7.1-10.8l-1.3-15-3.5,4.8-.6,1.1-4.3,4.4c-.3-3.1-1.4-5.6-2.5-8.4l-8-21.2c.7-.2,1.3-.9,1.9-1.6l2.4-3.3.4-4c.9-.7,2.3-.4,3.2-.4l3.7,15,2.8,12.5,9.2-9.1c-2.3-8.9-6-17-10-25.3-1.1-2.3-.7-5.2-.6-7.6l5.4,9.5,3.5,6.3,5.7,10.7c1.5,2.7,3.5,5.4,3.2,8.6l-.7,7.6c.4,3-.4,5.3-.8,8.2l-2.1,14.4h0Z"/>
        <path class="st11" d="M311,84.1c-2.7-.7-21.6,10.1-28,13.7l-11.5,6.6-7.6,3.4c1.4-3.4,4.7-3.2,4.1-5.7,1.1.4,1.6-.3,2.5-1.1l5.3-4.5c3.5-2.4,6.6-5,9.5-8,3.5-1.1,6.7-2.6,10-4.4,1.5,0,2.5-1,3.7-1.5l7.4-2.8c6.6-2.5,12.9-4.9,19.8-6.7l11.2,4.9c3.2,1.4,6.8,2.7,9.6,5.2-6.8-1.5-12.8-5.6-19.9-5.5-4.2,0-8.6,2.8-12.6,4.3-1.3.5-2,2.4-3.6,2h0Z"/>
        <path class="st8" d="M445.2,209.6c0,.8-.6,1.4-1.2,2l-5.5,6-7,7.6,3.3,12.3,4.6,15c-.9,0-1.7-.9-2.4-1.7l-15.8-18.5c4.2-3.5,6-8.4,9.4-12.5l10.1-7.2c1.5-1.3,3-2,4.4-2.9h0Z"/>
        <path class="st13" d="M275.7,117.3c.3,2.2-4.2,1.9-5,4.8-1.1.3-1.8.3-2.7.8l-3.2,1.5-7.6,6.1c-3.2,4.3-7,8.6-8.3,13.8l.5,13.1c0,.3,1.5.6,1.7.4-.5.6.9-4.6.9-7.2,0-1.7,1-2.9,1.8-4.3l3-5.3c5-.6,9.7-1.7,14.6-2.3l15.8-2.1c2.2,2.5,5,3.7,7.4,5.6l12.7,10,13.1,10.4-16.1-24.3,22.2,13.5c1.1.7,1.7,1.9,2.5,3l6.7,10.3c1.1,1.7,2.5,3.5,3.4,5.4l13,27.9,13.8,14.2c1.6,1.7,2.8,2.5,5,3.5l7.1,3c3.8,1,7.3,1.9,11.5,2.5-.7,1.3-1.3,2-1.1,3l-14.5-.2-9.4-4c-2.4-.3-2.8-1.2-4.3-2.7-6.7-6.4-13.8-12.2-19.8-19.2l-3.5-3.4c-.5-.5-.8-2.4-2.5-1.7,4,7.1,16.1,25,20.4,27.2l10.4,5.5,9.6,4.7v1.1c0,0-20-7.7-20-7.7l-4.2-3.5-9.8-8.4-14.3-19-20.3-27.7-7.8.8c-3.7.4-7.6,1.6-11.4,1.2-4.5-.4-8.6-2.5-13-3.8-2.4-.7-4.9-1-7.1-2.1-2.5-1.2-9.1-.7-17.1-3.5l-6.7-4.2-4.4,3.7c-.3-.8-.6-1.8-1.3-2.7l-7.8,2.8c-1.8.7-3.2,1.3-3.4,3.2-1.9.3-2.8.9-4.2,2.1l-13.2,12-9.5,9.2-4.5,16.4-1.3,6.4-.3,3.4c-2.5.7-4.4,5-5.9,8.5-.2.4-1.2.4-1.2.1,0-.3.3-1.3-.4-1.8l-5.8,13.9-3.1,7.7c-.6,1.4-1,2.6-1.6,4l-5.8,13.8-3.4-15.9-.4-4.2-2-11-2.5-15.8c2.9-7,5.2-13.9,8.2-20.7l3.2-7.5c.6-1.4,1-2.7,1.6-4.1l6.5-15c3.9-.8,7.1-2.1,10.6-3.4l29.6-10.8,20.7,3.9-5.6-9.5c-1.1-1.9,1.1-4.6,1.9-6.5,1-2.3,1.6-5.6,3.8-7,6.6-4.2,14.1-6,21.6-8.2,1.2-.4,2.4-.5,2.3-1.9l10.7-1.6h0ZM333.5,191.9c.3.4.7,0,.3-.3l-.3.3ZM334.2,192.6l.3-.3c-.3-.4-.7,0-.3.3Z"/>
        <path class="st13" d="M190.3,264.8v3.9c-.1.2-.3.5-.3.7v5.1c0,0-.5.4-.5.4-.2.1-.2.6.1.6h.6v1.9c-.6,0-1,.3-.9.9,0,.3.4.6.8.8l.2,8.1c-.4,0-.7,0-.9.4-.3.6.4,1,.4,1.3v4.9c-.7,0-1,.4-1,.9,0,.6,0,1.1.6,1.3-.3.5-.1,1.4-.2,2-2.7.4-1.4-3-2.6-7.5l-5-18.8c-1.4-5.1-4.5-15-4.1-16.9l3.5-16.6c4.3-3.1,2-6.7,5.2-11.2,1-.1,1.6,0,2.4.3-.8,2.2,0,4,.1,5.9l.5,17.6v12.7c.1.8.5,1.1,1,1.1h0Z"/>
        <path class="st13" d="M407.8,311.6c-.2.4-.4.7-.7,1-.4,0-.5-.4-.5-1v-4.7c0-.4-.1-.8-.3-.9-.1-.1-.4-.2-.7-.1l-.7-8.1c.7-.4.8-1,.7-1.8,0-.5-.3-.9-1-.9.3-.5-.2-1.4-.2-2l.8-3.2c1.5-1.8,1.3-3.1,1.2-5.2l-.4-4.4c1.7-3.4.2-6.9-.1-10.2-.2-2.5,1.1-4.3-.2-7.1-.6-1.2-.3-3.6-1.6-4.8-.5-.5-1-2-1.2-2.9.9-.7,1.8-1.5,1.6-2.1l-.8-1.9-1-4.6c-.2-1.1.5-3.6,1.4-4.3,1.1-.9,4,2.8,4,1.1,0-.2-.1-.9.1-1.3.5-.8,1.9-.5,2.6.2.4.4-.4,1.8,0,2.3l6.9,10.8-5.8,30.9-2.9,14.3-1.9,9.9c-.1.6.3,1.1.8,1.1h0Z"/>
        <path class="st11" d="M404.1,258.1c1.3,1.3,1,3.6,1.6,4.8,1.3,2.8,0,4.5.2,7.1.3,3.3,1.8,6.8.1,10.2l.4,4.4c.2,2.1.3,3.5-1.2,5.2l-.8,3.2c-.4-8.3-1.5-16.6-2.4-25.2l-1.1-11.4c1,1.1,1.7,2,3.2,1.7h0Z"/>
        <path class="st9" d="M189.8,293.9c0,.9.2,1.5-.3,2.3-.6-.2-.7-.8-.6-1.3,0-.5.3-.9.9-.9h0Z"/>
        <path class="st9" d="M190.3,277.5c0,.6.1,1.1-.1,1.7-.3-.2-.7-.5-.8-.8-.1-.6.3-1,.9-.9Z"/>
        <path class="st9" d="M190.3,287.3c0,.6.2,1.4-.5,1.7,0-.3-.8-.7-.4-1.3.2-.3.5-.4.9-.4Z"/>
        <path class="st9" d="M190.3,275.6h-.6c-.4-.2-.4-.6-.1-.7l.6-.4c.1.4.2.8.2,1.1h0Z"/>
        <path class="st9" d="M190,269.4c0-.2.1-.5.2-.7,0,.2-.1.5-.2.7Z"/>
        <path class="st13" d="M437.5,188.6l.6-1.1c.5-.2,1.3,0,1.4.4.4,1.3-3.6,7.9-4.5,13.1-1.5,1.5-2.4,3.2-2.4,5.2l-5.4,5.1c-2.1,2-4.1,4-6.2,6l-4.5,4.3c-.4.4-1.7.3-2,1.1-.5,1.5,0,3.8,1.4,5,1,.8,2,3.9.4,4.2l-11,2c-.5-1,0-1.2.5-1.6,1.4-1,2.2-3,2.5-4.7l-8.3-4.9,8.4-.6c-3.6-1.4-8.4-3.1-8.3-3.6l.3-1.5c-2.4.2-4.5.3-6.9-.6-2-.7-4.9-.2-6.8-1.5-1.1-.8-2-2-3.4-2.8l-7.4-3.9-3.5-1.5c-2-.9-2.9-1.3-4-3-1.7-2.6-4.8-4.1-7-6.2l-10-9.1c-1.7-1.6-2.1-1.6-3-3.9l-7.2-18.4-10.6-27.5-4.1-10.8,37,13.3c2.5,1.4,4.2,4.3,6.1,6.3l12,12.2,3.2,4.1,13.9,18.5c2.4,3.2,4.4,6.6,7.4,9.3l-15.2-31.8-2.3-5.1c-.4-.8-1-2.7-1.7-3.3l-18.7-15.8-18.8-14c1.9.6,4,.3,5.1.9,2.5,1.3,4.4,3.1,7.4,3.6l7.1,3.5c6.7,2.5,12.9,5.1,19.5,8l15.8,13,6.6,6.1,16.2,31.2c1,1.9,2.3,4.2,2.4,6.2l.4,11.1,5.4-10.7,2.5-5.1c.2-.4,0-.9-.4-.9h0Z"/>
        <path class="st8" d="M326.4,151.6l-22.2-13.5-15.4-9h-8.2c0-.1-19.2.2-19.2.2l6.7-6.4c.9-.4,1.7-.5,2.7-.8l19.3-4.9,14.7-.4,21.7,34.8h0Z"/>
        <path class="st8" d="M275.7,117.3l-10.7,1.6-7,.4c1.9-1.5,3.8-2.5,6-3.4,8.3-3.4,16.7-5.8,25.5-8.2l12.3,3.8,1.5,3.2-8.7,1c-1.8.2-3.3-.2-5,0l-13.9,1.6h0Z"/>
        <path class="st13" d="M262.5,108.7c.3,1.3-1.3,1.6-1.9,2.2l-3.9,4.5c-2,2.3-3.8,4.8-6.4,6.4l-7.9,5c.2-2,1.9-2.5,3.1-3.6l5.2-5.1c.6-.6.4-1.7.4-2.3,2.9-3.7,6.9-5.8,11.3-7.2h0Z"/>
        <path class="st11" d="M397.9,225.7v-1.1c.3-.1.8-.1,1,.2.2.2,0,.6-.3.7l-.7.2h0Z"/>
        <rect class="st1" x="183.8" y="138.2" width=".4" height=".4" transform="translate(-43.9 170.6) rotate(-45)"/>
        <path class="st9" d="M268,122.9l-6.7,6.4,19.2-.3h8.2c0,.1,15.4,9.2,15.4,9.2l16.1,24.3-13.1-10.4-12.7-10c-2.4-1.9-5.2-3.1-7.4-5.6l-15.8,2.1c-4.9.7-9.6,1.7-14.6,2.3l-3,5.3c-.8,1.4-1.8,2.6-1.8,4.3,0,2.6-1.4,7.8-.9,7.2-.2.2-1.7,0-1.7-.4l-.5-13.1c1.4-5.2,5.1-9.5,8.3-13.8l7.6-6.1,3.2-1.5h0Z"/>
        <path class="st9" d="M238.4,157.8c-.3,1.4-1.6,2.1-3.2,1.9l-9.3,1.4c.3-1.9,1.6-2.5,3.4-3.2l7.8-2.8c.7.8,1,1.8,1.3,2.7h0Z"/>
        <path class="st0" d="M333.5,191.9c.3.4.7,0,.3-.3l.7.7c-.3-.4-.7,0-.3.3l-.7-.7Z"/>
        <path class="st0" d="M374.6,230.7l-9.6-4.7-10.4-5.5c-4.3-2.3-16.4-20.2-20.4-27.2,1.7-.6,2,1.2,2.5,1.7l3.5,3.4c6.1,7,13.1,12.8,19.8,19.2,1.5,1.5,1.8,2.4,4.3,2.7l9.4,4,14.5.2c3.2,0,6.4-.5,9.6.1v1.1c0,.3,0,.6,0,.9l-8.6,3.4-7.3,3.3-8.3,3.8c-2.4,1.1-4.6,2.2-7.2,3s-3.6,1.1-6.2.1c-4.2-1.7-8.4-3.5-12.6-5.3l-17.7-7.5-14.8-19.2-15.5-20c-1.7-2.1-3.3-3.9-4.5-6.6l-51-16.7-7-2.1c-2.4,2.8-5.5,4.6-8.1,7.3s-1.9,1.7-3,2.6l-5,4.2-10.7,9.5-11.5,14.1c-.8.9-.8,1.9-2.1,2.6-1.2.6-1.6,3.7-3.5,4l1.3-6.4,4.5-16.4,9.5-9.2,13.2-12c1.4-1.3,2.3-1.8,4.2-2.1l9.3-1.4c1.6.2,3-.5,3.2-1.9l4.4-3.7,6.7,4.2c8,2.8,14.6,2.3,17.1,3.5,2.3,1.1,4.8,1.5,7.1,2.1,4.3,1.2,8.5,3.4,13,3.8,3.8.3,7.7-.9,11.4-1.2l7.8-.8,20.3,27.7,14.3,19,9.8,8.4,4.2,3.5s21.2,7.2,20,6.6h0Z"/>
      </g>
    </g>
  </g>
</svg>