<?xml version="1.0" encoding="UTF-8"?>
<svg id="RĂ©teg_1" xmlns="http://www.w3.org/2000/svg" version="1.1" viewBox="0 0 572.9 728">
  <!-- Generator: Adobe Illustrator 30.4.0, SVG Export Plug-In . SVG Version: 2.1.4 Build 226)  -->
  <defs>
    <style>
      .st0 {
        fill: #25222f;
      }
    </style>
  </defs>
  <g id="portrait_part_content" transform="translate(57.22 111.52)">
    <path class="st0" d="M338.5,201.5l-16.4-7.7c-1-.5-2.2-.5-3.2-.5h-1.3c0,0-5.9.3-5.9.3-1,0-1.7,0-2.6.1l-13.7.4c-.2,0-.5.2-.8.2h-3.5c0,.1-3.2.5-3.2.5h-2.1s-1.5,0-1.5,0h-1s-6.1.4-6.1.4c-3.7.3-7.4,0-11.1,1.3-.8,1.4-1.4,3-1.8,4.3l-1.7,6.8c.1.9,1.8.1,2.3,0l5.7-.3,5.9-.2c2.3,0,4,.1,6.3,0l14.8-.9c4.1-.2,8-.6,11.7,0l8.5-.4,15.6,1.2c2.2.2,4.2.3,6.2-.1.2,0,.6,0,.9.1l-2.2-5.9Z"/>
      <path class="st0" d="M223.1,203.2c-1.1-.8-1.7-1.8-2.5-2.6l-1-1.1c-.8-.8-1.2-2-2.3-2.9-.6-.5-.9-1.1-.9-1.7l-4.1-.4h-4.1c0-.1-1.5-.1-1.5-.1-.6-.7-1.8-.7-2.6-.2l-15.4-.5c0,1-1.1.9-1.1,0l-7.6-.4c-1,0-2.2,0-3.1.5-1.2-.6-2.5-.5-3.7-.4-.8,0-2-.3-2.9.1l-14.4,7.2-1.5,6.2c1.7.3,3-.3,4.5-.4.5,0,1.3.3,1.9,0,0,.3,0,.7.4.8.3,0,.6-.2.8-.4l5.7-.2h11.8c0,.1,1.6-.4,1.6-.4,5.8-.6,20.2-1.2,22.6-.1.3.1.8,0,1.1,0h8.7c0,.1,12.5.3,12.5.3-.4-1.6-1.7-2.3-2.8-3.1Z"/>
  </g>
</svg>
