<?xml version="1.0" encoding="UTF-8"?>
<svg id="RĂ_xA9_teg_x5F_1" xmlns="http://www.w3.org/2000/svg" version="1.1" viewBox="0 0 572.9 728">
  <!-- Generator: Adobe Illustrator 30.5.1, SVG Export Plug-In . SVG Version: 2.1.4 Build 3)  -->
  <defs>
    <style>
      .st0 {
        fill: none;
      }

      .st1 {
        fill: #030001;
      }
    </style>
  </defs>
  <rect class="st0" width="572.9" height="728"/>
  <path class="st1" d="M269.2,266.2c-.2-.8-.7-1.5-1.3-1.9-.6-1.4-2.4-1.9-3.4-3.1-.9-1.2-1.6-3.2-3.2-3.9-1.5-.8-2.7-2-4.5-1.9-8.3-.7-16.6-.5-24.9-.5s-10.2-1-15.4-.3c-2.8.2-5.1,2-7.5,3.2-3.4.6-4.1.9-6.8,2.7-.6.7-1.2,1.4-1.9,2l-.6.7c.2-.2.4-.4.6-.6-.2.2-.5.5-.8.7,0,.3.3.6.5.7-1.4,1.5-2.2,3.7-.4,4.8,3.2-.2,6.3.3,9.6.2,4.1-1.2,8-1,12.2-1.2,4.6,0,9.1.4,13.6-.7,5.5-.2,11,.5,16.4,1,5.9.3,11.9-.6,17.5,1.7.4.1.7-.2.9-.6,1.1-.3.9-2.3-.7-2.9h0Z"/>
  <path class="st1" d="M382.2,266.3c-.2-1-.4-2-1-2.8h0c-.4-2.5-2.2-1.2-3.9-1.9-1.7-1.8-4.2-2.1-6.3-3.1-3.3-1.8-6.9-3.6-10.8-3.6-8,.3-15.9,0-23.8,1-2.9,0-5.8,0-8.7.2-2,.2-4,1.1-6.1.9-1.1,0-2.1,0-3,.3-2.6,0-5.2-.4-7.6.6-.8.3-1.8.2-2.2,1.1-.4,1.1,0,2.3-.4,3.3-.3,1.3-2.6,4.4-2.8,6.4-.3.7-.2,1.7.3,2.1h0c.5,1.4,1.6.2,2.5,0,7.6-1.8,15.6-1.1,23.4-1.7,4.7-.7,9.6-.3,14.2.5,1.4.2,2.9,0,4.1-.4,3.2,0,6.5,0,9.8-.2,6.7-.3,13.5.7,20.2.9,2.9.8,4.2-1.3,2.2-3.6h-.1Z"/>
</svg>