<?xml version="1.0" encoding="UTF-8"?>
<svg id="RĂ©teg_1" xmlns="http://www.w3.org/2000/svg" version="1.1" viewBox="0 0 572.9 728">
  <!-- Generator: Adobe Illustrator 30.4.0, SVG Export Plug-In . SVG Version: 2.1.4 Build 226)  -->
  <defs>
    <style>
      .st0 {
        fill: #25222f;
      }
    </style>
  </defs>
  <g id="portrait_part_content" transform="translate(51.17 81.91)">
    <path class="st0" d="M224,252.2c0,.5,0,.6-.2.9l-8-5.4c-1.3-.9-2.5-1.7-4.3-2-3.2-.2-9.9-1.6-17.5.4l-8.5,2.8c-2.6.8-4.4,3.4-6.3,4.9l-2,1.6c-.3.2-.5.4-.7.3s-.4-.3-.6-.4c4.9-8.7,12.4-13.4,22.9-13.4s9.5-.6,14.3.3l6.1,5.6,4.8,4.3Z"/>
      <path class="st0" d="M315.1,241.3c3.2,0,8.9,3.4,7.9,3.3-.1.8,1,1.5,1.8,1.7,2.6,2.8,5.4,5.5,7.6,9.2-1.8.2-2.7-.9-3.9-1.2-3.5-3.9-7.8-7-13-8.5,0,0-5.8-2.5-17-.9-5.5,1.1-9.3,4.2-13.3,6.9l-6.2,4.2c-.1-.2-.1-.5,0-.8l11.2-9.9,9.5-4.1,15.3.2Z"/>
  </g>
</svg>
