<?xml version="1.0" encoding="UTF-8"?>
<svg id="Réteg_1" xmlns="http://www.w3.org/2000/svg" version="1.1" viewBox="0 0 572.9 728">
  <!-- Generator: Adobe Illustrator 30.5.1, SVG Export Plug-In . SVG Version: 2.1.4 Build 3)  -->
  <defs>
    <style>
      .st0 {
        fill: none;
      }

      .st1 {
        fill: #030001;
      }
    </style>
  </defs>
  <rect class="st0" width="572.9" height="728"/>
  <g>
    <path class="st1" d="M367,286.3c-.8-1.7-1.5-3.7-3.4-4.6-1-.5-2.3-.9-3.3-1.2-2.1-1.1-3.9-2.6-6.2-3.3-3.6-1.8-7.9-.2-11.7,0-1.2.2-2.5,0-3.8,0-2.1-.1-4.1-.3-5.9.8-1,.3-1.9,1-2.8,1.7-2,.6-3.9,2-5.4,3.6,0,0,0,0,0,0-1.2,1.1-2.7,2.2-4.3,2.4-.3,0-.7,0-1.1,0-1.1,0-2.3,0-2.7.7.2,0,.4,0,.6,0,.5,0,1,.2,1.5.4,0,0,0,0,0,0,0,0,.2,0,.3,0,.3,0,.5.2.8.3.2,0,.3,0,.5,0,0,0,0,0,0,0,.4,0,.7.2,1.1.2h0c.4-.1.8-.2,1.2-.3.3,0,.7,0,1,0,.5-.3,1.1-.7,1.6-1.1,3.4-.3,4.5-3.2,7.2-4.1,2.3,0,4.7-.8,6.8-1.8,3.1-.6,6.3-.1,9.5.2.9.1,2,.1,2.9,0,1.8,0,3.6-.1,5.1.9,2.4,1.5,4.6,3.4,6.9,5.1,1.5,1.5,1.7,1.9,3.6,3.6.2.2.4.3.6.3.3,0,.6-.1.7-.4.8-1.3-.6-2.5-1.5-3.3Z"/>
    <path class="st1" d="M261.3,284.5c-.2,0-.4,0-.6,0,0,0,0,0,0,0-1.8-.6-3.3-2.1-5-2.7-2.3-1-4.6-2.5-7-3.7-2.4-1.3-5.2-2.4-7.9-2.4-3,.5-6,.3-8.9,1.3-3,1.3-4.8,3.2-8.3,3.7-2.9,1.2-5.6,3.4-8.1,5.4-1.4,1.1-5.3,2.8-2.4,4.6,1.3-.2,2.3-1.7,3.7-2.1,2.9-1.5,5.5-4,8.3-5.5h0c1.5-.6,3-1.3,4.6-1.4.7,0,1.2-.2,1.9-.3,1.5.1,2.9-.4,4.3-.9,1.5-.5,2.9-1,4.4-.8.4,0,.8,0,1.1.3,1.5,1.1,3.5,1.1,5.4,1.1.8,0,1.6,0,2.3,0h-.1c2.9.9,4.9,3.3,7.4,4.8.9,0,1.8,0,2.6,0h1.4c.1,0,.3,0,.4,0h.1s0,0,0,0c.7-.4,1.4-.7,2.2-1-.1-.1-.3-.2-.5-.2-.4,0-.8,0-1.3,0Z"/>
  </g>
</svg>