<?xml version="1.0" encoding="UTF-8"?>
<svg id="Réteg_1" xmlns="http://www.w3.org/2000/svg" version="1.1" viewBox="0 0 512 512">
  <!-- Generator: Adobe Illustrator 30.4.0, SVG Export Plug-In . SVG Version: 2.1.4 Build 226)  -->
  <defs>
    <style>
      .st0 {
        fill: #877788;
      }

      .st1 {
        fill: #7997b7;
      }

      .st2 {
        fill: #625757;
      }

      .st3 {
        fill: #3f3a3b;
      }

      .st4 {
        fill: #25222f;
      }

      .st5 {
        fill: #584e4c;
      }
    </style>
  </defs>
  <path class="st3" d="M267.1,69.5l-5.2,3.6c-.4.3-.5.7-.6.9-1.4.4-2.4,1.5-4,2.7l9.1,2.5,15.5,4.6,20.5,5.9,14.5,8.4,4.3,2.3c4.5,2.4,8.7,4.9,13.1,7.5l13.4,7.8,6.7,5.1,3.6,2.6,11.3,10.8,5.8,5.6,1.6,4.1c.7,1.8,1.5,3.2,2.1,4.8l8,21.2c1.1,2.8,2.2,5.3,2.5,8.4l4.3-4.4c.3,0,.6.5.4.9l-2.5,5.2-5.4,10.7-.3-11.1c0-2.1-1.4-4.4-2.4-6.2l-16.2-31.2-6.6-6.1-15.8-13c-6.6-2.9-12.8-5.6-19.5-8l-7.1-3.5c-3-.5-4.8-2.3-7.4-3.6s-3.2-.2-5.1-.9l18.8,14,18.7,15.8c.7.6,1.3,2.5,1.7,3.3l2.3,5.1,15.2,31.8c-3-2.7-5-6.1-7.4-9.3l-13.9-18.5-3.2-4.1-12-12.2c-1.9-1.9-3.6-4.9-6.1-6.3l-37-13.3,4.1,10.7,10.6,27.5,7.2,18.4c.9,2.2,1.3,2.3,3,3.9l10,9.1c2.3,2.1,5.4,3.6,7,6.2s1.9,2.1,4,3l3.5,1.5,7.4,3.9c1.4.8,2.3,2,3.4,2.8,1.9,1.4,4.7.8,6.8,1.5s4.5.7,6.9.6l-.3,1.5c0,.5,4.7,2.2,8.3,3.6l-8.4.6,8.3,4.9c-.3,1.7-1.1,3.6-2.5,4.7-.5.3-1,.5-.5,1.6l10.9-2.1c1.6-.3.6-3.4-.4-4.2-1.5-1.2-1.9-3.5-1.4-5s1.6-.8,1.9-1.2l4.5-4.3c2.2-2.1,4.1-4,6.3-6l5.4-5.1c0-2,1-3.7,2.4-5.2.9-5.2,4.9-11.8,4.5-13.1s-1-.6-1.4-.3l3.5-4.8,1.3,15c-2.4,3.7-4.2,7.1-7.1,10.8l9-1.9,5.1-1.5c-.2,1.1-.3,1.8-1.5,2.6l-3,2c-1.4,1-2.9,1.6-4.4,2.9l-10.1,7.2c-3.4,4-5.2,9-9.4,12.5l15.8,18.5c.7.9,1.5,1.7,2.4,1.7.8,2.5-1.6,5.6-2.8,7.8l-5,9-2.9,5.8-3.5,6.2c-.4,0-1.8-.5-2.1-.1l-5.9,11.7-3.9,8.1-3,6.1-2.6,4.7c-.4,0-.9-.4-.8-1.1l1.9-9.9,2.9-14.3,5.8-30.9-6.8-10.8c-.4-.6.5-1.9,0-2.3-.7-.7-2.2-1-2.6-.2s-.1,1.1-.1,1.3c0,1.7-2.9-2-4-1.1s-1.6,3.2-1.4,4.3l1,4.6.8,1.9c.2.6-.7,1.4-1.6,2.1.2.9.7,2.3,1.2,2.9-1.5.3-2.2-.6-3.2-1.7v-1c.5-.5.5-1.1.6-1.8s-.2-1.4-1.1-1.3v-1c.4-.3.5-.8.6-1.3s-.4-.9-1-.9c0-1.1.1-2.5-.2-3.5.7-.3.6-.9.7-1.3.1-.8-.2-1.4-1.1-1.4v-2.5c.1-.2.5-.5.5-.8,0-.6-.4-.9-.9-.8l-.2-4.6c.2,0,.7,0,.7-.4,0-3.1,1.5-5.7.4-6.9s-1.6-.6-2.1-.4c0-.3,0-.6,0-.9l.7-.2c.3,0,.5-.5.3-.7s-.7-.4-1.1-.2c-3.2-.6-6.4,0-9.6-.1-.2-1,.5-1.7,1.1-3-4.3-.6-7.7-1.6-11.5-2.5l-7.1-3c-2.3-1-3.4-1.8-5-3.5l-13.8-14.2-13-27.9c-.9-1.9-2.3-3.7-3.4-5.4l-6.7-10.3c-.7-1.1-1.4-2.4-2.5-3l-21.7-34.8-14.7.4-19.3,4.8c.7-2.9,5.2-2.6,5-4.8l13.9-1.6c1.7-.2,3.1.2,5,0l8.7-1-1.5-3.2-12.3-3.8c-8.8,2.4-17.1,4.8-25.5,8.2s-4.1,1.9-6,3.4l7-.4c.1,1.3-1.1,1.5-2.3,1.9-7.5,2.3-15,4.1-21.6,8.3s-2.8,4.7-3.8,7-3.1,4.6-1.9,6.5l5.6,9.5-20.7-3.9-29.6,10.8c-3.5,1.3-6.7,2.6-10.6,3.4l-6.5,15c-.6,1.5-1,2.7-1.6,4.1l-3.2,7.5c-2.9,6.9-5.2,13.8-8.2,20.7l2.5,15.8,2,11,.4,4.2,3.4,15.9,5.8-13.8c.6-1.4,1-2.7,1.6-4l3.2-7.7,5.8-13.9c.8.5.5,1.5.5,1.8s1,.3,1.2-.1c1.4-3.5,3.4-7.8,5.9-8.5l-2.4,42.3v12c-.7,0-1-.3-1-1.1v-12.7c-.1,0-.6-17.6-.6-17.6,0-1.9-.9-3.7-.1-5.9-.8-.4-1.4-.5-2.4-.3-3.3,4.5-1,8.2-5.2,11.2l-3.5,16.7c-.4,1.9,2.7,11.8,4.1,16.9l5,18.8c1.2,4.4,0,7.9,2.6,7.5l-1.2,17.6-1.1-1c.5-.6,0-1.1-.4-1.7l-3.5-6.9c-.3-.7-.5-1.2-1.3-1.3-.4-3.1-2.6-5.8-3.7-8.9s1.4-8.5,1.2-13.6l-5.3-15.1-6.2-6.5c-3-3.2-5.3-6.2-8.8-8.9l-4.6-31.8,3.3-15.3,3.4-14.1,4.6-18.1-4.4,5.4c-1,1.2-1.3,2-1.7,3.4-2.2,6.6-4.4,13-5.9,19.8l-4.8,20.8c.1-3.6.6-6.9,1.2-10.5l3.4-20.9c.4-2.5,1.3-4.6,1.7-7.2s1.3-4.2,1.8-6.5c1-3.9,1.5-8.3,3.4-11.6,1.9,1.2,4-2.5,7.2-4.6s3.4-2,5.1-3.2l22.5-16.8c7.7-.4,15,0,22.6,0s6.2.6,9.7-.3c-3.8-3.9-12.8-5.7-18.9-6.9s-5.9-2.1-9.3-2.7l9.8-8.3,4.2-2.9c4.3-3,9.1-6.3,13.7-8.6l7,1.8,14.9,5.2,2.2-1.9c0,.6.2,1.7-.4,2.3l-5.2,5.1c-1.1,1.1-2.9,1.6-3.1,3.6l7.9-5c2.6-1.7,4.4-4.1,6.4-6.4l3.9-4.5c.6-.7,2.2-1,1.8-2.2.4-.1,1.3-.4,1.5-.9l7.6-3.4,11.5-6.6c6.3-3.6,25.3-14.4,28-13.7Z"/>
  <path class="st5" d="M261.4,74h18c7.8,0,35.9,4.7,38.9,6.4l13.2,7.5,7,4.3,14.1,8.5,5.4,3.4,14,9.7,10.2,7.4,4.7,18.2c-.9,0-2.3-.3-3.2.4l-.4,4-2.4,3.3c-.6.8-1.2,1.4-1.9,1.6-.6-1.6-1.3-3-2.1-4.8l-1.6-4.1-5.8-5.6-11.3-10.8-3.6-2.6-6.7-5.1-13.4-7.8c-4.4-2.6-8.6-5-13.1-7.5l-4.3-2.3-14.5-8.4-20.5-5.9-15.5-4.6-9.1-2.5c1.6-1.2,2.6-2.3,4-2.7Z"/>
  <path class="st2" d="M224.2,87.4c.6,2.5-2.8,2.3-4.2,5.7s-1,.7-1.5.9c-4.4,1.4-8.5,3.5-11.3,7.2l-2.2,1.9-14.9-5.2-7-1.8c-4.7,2.3-9.4,5.6-13.7,8.6l-4.2,2.9-9.8,8.3c3.4.6,6.6,2.2,9.3,2.7,6,1.2,15.1,3,18.9,6.9-3.5.9-6.5.3-9.7.3-7.7,0-15-.4-22.6,0l-22.5,16.8c-1.7,1.3-3.4,2.1-5.1,3.2-3.2,2.1-5.3,5.9-7.2,4.6,2-3.3,5.2-6.1,7.8-9.1l5.1-5.7c1.6-1.8,3.3-3.1,4.8-5s4.5-3.7,5.5-6.8l-9.4,3c-2.7.9-5.3,2.6-8.5,1.7l13.9-7.7,12.8-8.3,9-8.5,10.8-9.8c3.2-2.9,6.4-5.4,9.4-8.6s3.2-1,4.6-1.5l15-5.8c5.3,1.5,10.5,2.8,15.7,4.8l11.5,4.4ZM140.1,123.4l-.3.3.3.3.3-.3-.3-.3Z"/>
  <path class="st2" d="M405.8,190.3l-5.1,1.5-9,1.9c2.9-3.7,4.7-7,7.1-10.8l-1.3-15-3.5,4.8-.6,1.1-4.3,4.4c-.3-3.1-1.4-5.6-2.5-8.4l-8-21.2c.7-.2,1.3-.9,1.9-1.6l2.4-3.3.4-4c.9-.7,2.3-.4,3.2-.4l3.7,15,2.8,12.5,9.2-9.1c-2.3-8.9-6-17-10-25.3-1.1-2.3-.7-5.2-.6-7.6l5.4,9.5,3.4,6.3,5.7,10.7c1.4,2.7,3.5,5.4,3.2,8.6l-.7,7.6c.4,3-.4,5.3-.8,8.2l-2.1,14.5Z"/>
  <path class="st5" d="M267.1,69.5c-2.7-.7-21.6,10.1-28,13.7l-11.5,6.6-7.6,3.4c1.4-3.4,4.7-3.3,4.2-5.7,1.1.4,1.6-.3,2.6-1.1l5.3-4.5c3.5-2.4,6.6-5,9.5-8,3.5-1.1,6.7-2.6,10-4.4,1.4,0,2.5-1,3.7-1.5l7.4-2.8c6.6-2.5,12.9-4.9,19.8-6.7l11.2,4.9c3.2,1.4,6.7,2.7,9.6,5.2-6.8-1.5-12.8-5.6-19.9-5.5s-8.6,2.8-12.6,4.3-2,2.4-3.6,2Z"/>
  <path class="st2" d="M401.3,194.9c0,.8-.6,1.3-1.2,2l-5.5,5.9-7,7.6,3.3,12.3,4.6,15c-.9,0-1.7-.9-2.4-1.7l-15.8-18.5c4.3-3.5,6.1-8.4,9.4-12.5l10.1-7.2c1.5-1.3,3-2,4.4-2.9Z"/>
  <path class="st4" d="M231.8,102.7c.3,2.2-4.2,1.9-5,4.8-1.1.3-1.8.3-2.7.8l-3.2,1.5-7.6,6.2c-3.2,4.3-7,8.6-8.3,13.8l.5,13.1c0,.3,1.5.6,1.7.4-.5.5.9-4.6.9-7.2s1-2.9,1.8-4.3l3-5.3c5-.7,9.7-1.7,14.6-2.3l15.8-2.1c2.3,2.5,5,3.7,7.4,5.6l12.7,10,13.1,10.4-16.1-24.3,22.2,13.5c1.1.7,1.7,1.9,2.5,3l6.7,10.3c1.1,1.7,2.5,3.5,3.4,5.4l13,27.9,13.8,14.2c1.6,1.7,2.8,2.5,5,3.5l7.1,3c3.8,1,7.3,1.9,11.5,2.5-.7,1.3-1.3,2-1.1,3l-14.5-.2-9.4-4c-2.4-.3-2.8-1.2-4.3-2.7-6.7-6.4-13.8-12.2-19.8-19.2l-3.5-3.4c-.5-.5-.8-2.4-2.5-1.7,4,7.1,16.1,25,20.4,27.2l10.4,5.5,9.6,4.7v1.1c0,0-20-7.7-20-7.7l-4.2-3.5-9.8-8.4-14.3-19-20.3-27.7-7.8.8c-3.7.4-7.6,1.6-11.4,1.3s-8.6-2.5-12.9-3.8-4.9-1-7.1-2.1-9.2-.7-17.1-3.5l-6.7-4.2-4.4,3.7c-.3-.8-.5-1.8-1.3-2.7l-7.8,2.8c-1.8.7-3.2,1.3-3.4,3.2-1.9.3-2.8.8-4.2,2.1l-13.2,12-9.5,9.2-4.5,16.4-1.3,6.4-.3,3.4c-2.5.7-4.4,5-5.9,8.5s-1.2.4-1.2.1.3-1.3-.5-1.8l-5.8,13.9-3.2,7.7c-.6,1.4-1,2.7-1.6,4l-5.8,13.8-3.4-15.9-.4-4.2-2-11-2.5-15.8c2.9-7,5.2-13.8,8.2-20.7l3.2-7.5c.6-1.4,1-2.7,1.6-4.1l6.5-15c3.9-.8,7-2.1,10.6-3.4l29.6-10.8,20.7,3.9-5.6-9.5c-1.1-1.9,1.1-4.6,1.9-6.5s1.6-5.6,3.8-7c6.6-4.2,14.1-6,21.6-8.3s2.4-.5,2.3-1.9l10.7-1.6ZM289.7,177.3c.3.4.7,0,.3-.3l-.3.3ZM290.4,178l.3-.3c-.3-.4-.7,0-.3.3Z"/>
  <path class="st4" d="M146.4,250.2v3.9c-.1.2-.3.5-.3.7v5.1c0,0-.5.4-.5.4-.2.1-.2.6.1.6h.6c0,.1,0,2,0,2-.6,0-1,.3-.9.9s.5.6.7.8l.2,8.1c-.4,0-.7,0-.9.4-.3.6.4,1,.4,1.3v4.9c-.7,0-1,.4-1,.9s0,1.1.6,1.3c-.3.5-.1,1.4-.2,2-2.7.4-1.4-3-2.6-7.5l-5-18.8c-1.4-5.1-4.5-15-4.1-16.9l3.5-16.7c4.3-3.1,2-6.7,5.2-11.2,1-.1,1.6,0,2.4.3-.8,2.2,0,4,.1,5.9l.5,17.6v12.7c.1.8.5,1.1,1,1.1Z"/>
  <path class="st4" d="M363.9,296.9c-.2.4-.4.7-.7,1-.3,0-.6-.4-.5-1v-4.7c0-.4-.1-.8-.3-.9s-.4-.2-.7-.1l-.7-8.2c.7-.3.8-1,.7-1.8s-.3-.9-1-.9c.3-.5-.2-1.4-.2-2l.8-3.2c1.5-1.8,1.3-3.1,1.2-5.2l-.4-4.4c1.7-3.4.2-6.9-.1-10.2s1.1-4.3-.2-7.1-.3-3.6-1.6-4.8-1-2-1.2-2.9c.9-.7,1.8-1.5,1.6-2.1l-.8-1.9-1-4.6c-.2-1.1.5-3.6,1.4-4.3s3.9,2.8,4,1.1-.1-.9.1-1.3c.4-.8,1.9-.5,2.6.2s-.4,1.8,0,2.3l6.8,10.8-5.8,30.9-2.9,14.3-1.9,9.9c-.1.6.3,1.1.8,1.1Z"/>
  <path class="st5" d="M360.3,243.4c1.3,1.3,1,3.6,1.6,4.8,1.3,2.8,0,4.6.2,7.1s1.8,6.8.1,10.2l.4,4.4c.2,2.1.3,3.4-1.2,5.2l-.8,3.2c-.4-8.3-1.5-16.6-2.4-25.2l-1.1-11.4c1,1.1,1.7,2,3.2,1.7Z"/>
  <path class="st3" d="M145.9,279.2c0,.9.2,1.5-.3,2.3-.6-.2-.7-.7-.6-1.3s.3-.9,1-.9Z"/>
  <path class="st3" d="M146.4,262.8c0,.6,0,1.1-.2,1.7-.3-.2-.7-.4-.7-.8-.1-.6.3-1,.9-.9Z"/>
  <path class="st3" d="M146.5,272.6c0,.6.2,1.4-.5,1.7,0-.3-.8-.7-.4-1.3s.5-.4.9-.4Z"/>
  <path class="st3" d="M146.4,261h-.6c-.4-.2-.4-.6-.1-.7l.6-.4c.1.4.2.8.2,1.1Z"/>
  <path class="st3" d="M146.2,254.7c0-.2.1-.5.2-.7,0,.2-.1.5-.2.7Z"/>
  <path class="st4" d="M393.6,173.9l.6-1.1c.5-.2,1.3,0,1.4.3.4,1.3-3.6,7.9-4.5,13.1-1.4,1.5-2.4,3.2-2.4,5.2l-5.4,5.1c-2.1,2-4.1,4-6.3,6l-4.5,4.3c-.4.3-1.7.3-1.9,1.2-.5,1.5,0,3.8,1.4,5s2,3.9.4,4.2l-10.9,2.1c-.5-1.1,0-1.2.5-1.6,1.4-1,2.2-3,2.5-4.7l-8.3-4.9,8.4-.6c-3.6-1.4-8.4-3.1-8.3-3.6l.3-1.5c-2.4.2-4.5.3-6.9-.6s-4.9-.2-6.8-1.5-2-2-3.4-2.8l-7.4-3.9-3.5-1.5c-2-.9-2.8-1.3-4-3-1.7-2.6-4.8-4.1-7-6.2l-10-9.1c-1.7-1.5-2.1-1.6-3-3.9l-7.2-18.4-10.6-27.5-4.1-10.7,37,13.3c2.5,1.4,4.2,4.3,6.1,6.3l12,12.2,3.2,4.1,13.9,18.5c2.4,3.2,4.4,6.6,7.4,9.3l-15.2-31.8-2.3-5.1c-.4-.8-1-2.7-1.7-3.3l-18.7-15.8-18.8-14c1.9.6,4,.3,5.1.9,2.5,1.3,4.3,3.1,7.4,3.6l7.1,3.5c6.7,2.5,12.9,5.1,19.5,8l15.8,13,6.6,6.1,16.2,31.2c1,1.9,2.3,4.2,2.4,6.2l.3,11.1,5.4-10.7,2.5-5.2c.2-.4,0-.9-.4-.9Z"/>
  <path class="st2" d="M282.5,137l-22.2-13.5-15.4-9h-8.2c0-.1-19.2.2-19.2.2l6.7-6.4c.9-.4,1.7-.5,2.7-.8l19.3-4.8,14.7-.4,21.7,34.8Z"/>
  <path class="st2" d="M231.8,102.7l-10.7,1.6-7,.4c1.9-1.5,3.8-2.5,6-3.4,8.3-3.4,16.7-5.8,25.5-8.2l12.3,3.8,1.5,3.2-8.7,1c-1.8.2-3.3-.2-5,0l-13.9,1.6Z"/>
  <path class="st4" d="M218.6,94c.3,1.3-1.3,1.6-1.8,2.2l-3.9,4.5c-2,2.3-3.8,4.8-6.4,6.4l-7.9,5c.2-2,1.9-2.5,3.1-3.6l5.2-5.1c.6-.5.4-1.7.4-2.3,2.9-3.7,6.9-5.8,11.3-7.2Z"/>
  <path class="st5" d="M354,211v-1.1c.3-.1.8-.1,1,.2s0,.6-.3.7l-.7.2Z"/>
  <rect class="st1" x="139.9" y="123.5" width=".4" height=".4" transform="translate(-46.4 135.3) rotate(-45)"/>
  <path class="st3" d="M224.1,108.2l-6.7,6.4,19.2-.3h8.2c0,.1,15.4,9.2,15.4,9.2l16.1,24.3-13.1-10.4-12.7-10c-2.4-1.9-5.2-3.1-7.4-5.6l-15.8,2.1c-4.9.7-9.6,1.7-14.6,2.3l-3,5.3c-.8,1.4-1.8,2.6-1.8,4.3,0,2.6-1.4,7.8-.9,7.2-.2.2-1.7,0-1.7-.4l-.5-13.1c1.4-5.2,5.1-9.5,8.3-13.8l7.6-6.2,3.2-1.5Z"/>
  <path class="st3" d="M194.6,143.1c-.3,1.4-1.6,2.1-3.2,1.9l-9.3,1.4c.3-1.9,1.6-2.5,3.4-3.2l7.8-2.8c.7.8,1,1.8,1.3,2.7Z"/>
  <path class="st0" d="M289.7,177.3c.3.4.7,0,.3-.3l.7.7c-.3-.4-.7,0-.3.3l-.7-.7Z"/>
  <path class="st0" d="M330.7,216l-9.6-4.7-10.4-5.5c-4.3-2.3-16.4-20.2-20.4-27.2,1.7-.6,2,1.2,2.5,1.7l3.5,3.4c6.1,7,13.1,12.8,19.8,19.2,1.5,1.5,1.8,2.4,4.3,2.7l9.4,4,14.5.2c3.2,0,6.4-.5,9.6.1v1.1c0,.3,0,.6,0,.9l-8.6,3.4-7.3,3.3-8.3,3.8c-2.4,1.1-4.7,2.2-7.2,2.9s-3.6,1.1-6.2,0c-4.2-1.7-8.4-3.5-12.6-5.3l-17.7-7.5-14.8-19.2-15.5-20c-1.7-2.1-3.3-3.9-4.5-6.6l-51-16.7-7-2.1c-2.4,2.8-5.5,4.6-8.1,7.3s-1.9,1.7-3,2.6l-5,4.2-10.7,9.5-11.5,14.1c-.8.9-.8,1.9-2.1,2.6s-1.7,3.7-3.5,4l1.3-6.4,4.5-16.4,9.5-9.2,13.2-12c1.4-1.3,2.3-1.8,4.2-2.1l9.3-1.4c1.6.2,3-.5,3.2-1.9l4.4-3.7,6.7,4.2c8,2.8,14.6,2.3,17.1,3.5s4.7,1.5,7.1,2.1c4.3,1.2,8.5,3.3,12.9,3.8s7.7-.9,11.4-1.3l7.8-.8,20.3,27.7,14.3,19,9.8,8.4,4.2,3.5s21.2,7.2,20,6.6Z"/>
</svg>