<?xml version="1.0" encoding="UTF-8"?>
<svg id="Layer_1" xmlns="http://www.w3.org/2000/svg" version="1.1" viewBox="0 0 512 512">
  <defs>
    <style>
      .base { fill: #8a5d3b; }
      .mid { fill: #5f3b25; }
      .dark { fill: #2b1a12; }
      .shadow { fill: #1b100b; }
    </style>
  </defs>
  <path class="shadow" d="M119,222 C111,178 129,127 171,101 C207,79 261,73 306,89 C354,106 384,147 389,198 C387,216 379,234 365,248 C359,209 346,177 320,154 C291,128 241,119 198,137 C160,153 137,184 128,225 Z"/>
  <path class="base" d="M126,188 C137,132 191,91 257,88 C326,85 379,127 386,190 C360,166 328,149 291,141 C251,132 208,137 172,154 C151,164 136,176 126,188 Z"/>
  <path class="mid" d="M150,176 C171,137 219,112 270,116 C310,119 343,136 369,167 C329,153 291,147 254,150 C214,153 179,162 150,176 Z"/>
  <path class="dark" d="M160,151 C190,126 225,112 266,111 C237,128 216,151 202,182 C190,167 176,156 160,151 Z"/>
  <path class="dark" d="M205,126 C243,107 291,111 326,132 C289,130 252,137 219,154 C217,143 212,134 205,126 Z"/>
  <path class="mid" d="M131,191 C116,210 112,239 121,263 C129,250 136,237 146,226 C142,213 137,202 131,191 Z"/>
  <path class="mid" d="M383,190 C397,209 400,237 391,263 C383,249 375,237 365,225 C371,213 377,201 383,190 Z"/>
  <path class="shadow" d="M151,233 C154,255 153,275 146,294 C134,275 128,253 131,230 Z"/>
  <path class="shadow" d="M363,232 C359,255 361,276 369,294 C381,274 386,253 383,229 Z"/>
</svg>
