<svg xmlns="http://www.w3.org/2000/svg" width="512" height="512" viewBox="0 0 512 512">
  <path d="M137 287c-18-126 31-195 119-195s137 69 119 195c-13-82-50-126-119-126s-106 44-119 126z" fill="#ffffff"/>
  <path d="M153 222c27-43 68-65 123-65 38 0 69 13 93 39-11-65-53-104-113-104-66 0-106 44-103 130z" fill="#dedede" opacity="0.58"/>
  <path d="M142 248c-27 35-26 82-15 122 24-20 37-54 37-103l-22-19z" fill="#ffffff"/>
  <path d="M370 248c27 35 26 82 15 122-24-20-37-54-37-103l22-19z" fill="#ffffff"/>
</svg>
