<svg xmlns="http://www.w3.org/2000/svg" width="512" height="512" viewBox="0 0 572.9 728">
  <g id="portrait_part_content" transform="translate(57.1 61.52)">
    <path d="M129 251c-2-99 47-158 125-158 82 0 132 59 130 158-23-51-61-77-114-77-63 0-108 26-141 77z" fill="#ffffff"/>
      <path d="M141 206c54-26 99-36 168-28 35 4 59 17 76 38-8-70-56-123-132-123-69 0-111 42-112 113z" fill="#dddddd" opacity="0.55"/>
      <path d="M161 165c-32 22-52 63-48 111 24-34 50-58 78-72l-30-39z" fill="#ffffff"/>
      <path d="M349 165c28 24 46 65 42 111-19-32-43-54-72-66l30-45z" fill="#ffffff"/>
  </g>
</svg>
