<?xml version="1.0" encoding="UTF-8"?>
<svg id="Layer_1" xmlns="http://www.w3.org/2000/svg" version="1.1" viewBox="0 0 572.9 728">
  <defs><style>.skin { fill: #f2bea8; }.shade { fill: #ae8f84; }.edge { fill: #927e88; }.neck { fill: #dca08d; }.shadow { fill: #a07375; }</style></defs>
  <g id="portrait_part_content" transform="translate(51.72 63.89)">
    <path class="edge" d="M132,250 C118,231 119,204 135,190 C153,175 174,188 177,215 C180,242 164,264 143,274 Z"/>
      <path class="edge" d="M380,250 C394,231 393,204 377,190 C359,175 338,188 335,215 C332,242 348,264 369,274 Z"/>
      <path class="skin" d="M168,199 C168,128 204,87 256,87 C309,87 344,128 344,199 L344,316 C344,357 322,384 286,401 L226,401 C190,384 168,357 168,316 Z"/>
      <path class="shade" d="M168,257 C154,250 147,230 153,215 C160,200 174,206 176,225 C178,240 174,251 168,257 Z"/>
      <path class="shade" d="M344,257 C358,250 365,230 359,215 C352,200 338,206 336,225 C334,240 338,251 344,257 Z"/>
      <path class="neck" d="M224,392 L288,392 L294,450 C270,461 242,461 218,450 Z"/>
      <path class="shadow" d="M226,384 L286,384 C277,403 235,403 226,384 Z"/>
      <path class="shade" d="M173,310 C184,365 204,397 226,414 L286,414 C308,397 328,365 339,310 C333,382 304,431 256,449 C208,431 179,382 173,310 Z"/>
  </g>
</svg>
