<?xml version="1.0" encoding="UTF-8"?>
<svg id="Layer_1" xmlns="http://www.w3.org/2000/svg" version="1.1" viewBox="0 0 572.9 728">
  <defs><style>.skin { fill: #f2bea8; }.shade { fill: #ae8f84; }.edge { fill: #927e88; }.neck { fill: #dca08d; }.shadow { fill: #a07375; }</style></defs>
  <g id="portrait_part_content" transform="translate(51.72 63.89)">
    <path class="edge" d="M135,249 C121,230 122,204 137,190 C154,175 174,187 176,213 C178,239 165,263 145,273 Z"/>
      <path class="edge" d="M377,249 C391,230 390,204 375,190 C358,175 338,187 336,213 C334,239 347,263 367,273 Z"/>
      <ellipse class="skin" cx="256" cy="246" rx="111" ry="152"/>
      <path class="skin" d="M210,362 C225,386 241,400 256,406 C271,400 287,386 302,362 L304,446 C276,461 236,461 208,446 Z"/>
      <path class="shade" d="M151,254 C140,247 135,229 141,215 C148,201 164,206 166,224 C168,239 162,250 151,254 Z"/>
      <path class="shade" d="M361,254 C372,247 377,229 371,215 C364,201 348,206 346,224 C344,239 350,250 361,254 Z"/>
      <path class="shadow" d="M212,358 C229,377 242,386 256,390 C270,386 283,377 300,358 C291,406 222,406 212,358 Z"/>
      <path class="shade" d="M157,286 C178,354 212,395 256,414 C300,395 334,354 355,286 C347,376 310,430 256,447 C202,430 165,376 157,286 Z"/>
  </g>
</svg>
