<?xml version="1.0" encoding="UTF-8"?>
<svg id="RĂ©teg_1" xmlns="http://www.w3.org/2000/svg" version="1.1" viewBox="0 0 572.9 728">
  <!-- Generator: Adobe Illustrator 30.4.0, SVG Export Plug-In . SVG Version: 2.1.4 Build 226)  -->
  <defs>
    <style>
      .st0 {
        fill: #877788;
      }

      .st1 {
        fill: #d99a7d;
      }

      .st2 {
        fill: #8f5d55;
      }

      .st3 {
        fill: #7f6771;
      }

      .st4 {
        fill: #9c6f62;
      }

      .st5 {
        fill: #7d6a6a;
      }
    </style>
  </defs>
  <g id="portrait_part_content" transform="translate(51.72 63.89)">
    <path class="st1" d="M386.7,264.2l.3,14.9.4,20.3-8.4,25.1-2.8,8.8-4.5,2.5c.6-2.2.2-4.1,0-6.3l-1-15v-.9c-.1,0,0-.6,0-.6,1.3-.8,3.7-1,4.6-2.4l3-4.3,5-9.3-1.5-6.8-3.3-14.7,5.9-11.7c.4-.4,1.7,0,2.1.1Z"/>
      <path class="st1" d="M380.4,262.6v-9.8c-.1,0-.9-8.2-.9-8.2,0-.8-.8-1.6-.3-2.7.3-.5-.2-1.4-.2-2-.4-8.3-5.1-31.2-5.1-31.2,0,0-8-40.9-8.6-43.7-.5-2.7-3.5-11.6-4.3-16.2-.7-4.5-2.1-11.3-11.6-24.8l-14.9-12.9-27.8-14.9-17.9-4.3c-3.8-1.1-29.1-4-40.1-3.3l-24.6,6.4-27.7,13.6c-2.4,2.8-15.7,13.6-18.3,16.2-1,1-10,16.7-11.1,17.7l-6.1,13.1-4.7,12.2-.3,1.2c-.8.9-1.2,11.9-1.2,14.4s0,4.4,0,6.3l-.3,3.4-2.4,42.3v12c0,0-.1,3.9-.1,3.9,0,.2-.1.5-.2.7v5.1c.2.4.2.8.2,1.1v1.8c0,.6,0,1.1-.2,1.7l.2,8.1c0,.6.2,1.4-.5,1.7v4.9c0,.9.1,1.5-.4,2.3-.3.5-.1,1.4-.2,2l-1.2,17.6.6,4.1c-.2,3.7,2,8.3,1.6,10.7-.3,1.9.8,5.5,1.1,7.5l2.1,14.2,1.1,10,3.2,21.2,1.1,4.7,1.5,3.7.2.4s0,0,0,0h0c0,0,2.8,4,4,6.2l3.2,6.2,8.9,13.3c.9,1.4,2.2,2.3,2.7,3.8h.6c0,0,3,3.1,3,3.1l2.2,3.4c1.5,1,2.8,1.5,3.8,3.1,1.3,2.1,3.3,3.6,5.4,4.4-.2.6.3,1.1.4,1.5l5.1,3.7,3.5,2.8,3,2.6,8.9,7,2.5,2.2,4.6,3.2,5.8,3.9c2.3,1.6,4,2,6.7,2.1h9.2c0,.1,26-.2,26-.2l10.9-4.9,16.2-7.5,7.7-7.3c2.5-2,4.9-3.9,6.4-6.6-.7.2-1.3.5-2.4.2,1.3-.9,1.5-2,1.4-3.5,1.7.3,2,1.3,3,1.8l2.6-1.7c.7-1.5,1.6-1.7,2.7-2.8l2.6-2.8c1.4-.5,1.4-1.3,2.2-2.1l4.7-4.9,4.4-4,4.1-3.7c2.6-2.3,4.8-4.8,7.2-7.1l4.1-4.2,5.2-6.2c.8-1,2.6-2.8,3-4l4.4-24,1.1-8.2c.3-2.1,1-3,2.7-4.1l6.1-4.1c.6-2.2.2-4.1,0-6.3l-1-15c-1.7-.2-2.9.8-4.5,2.3-.8-1.6,0-3.2.2-4.8l1.5-10.3c.1-.8-.1-1.6-.7-2,.2-1.2,9.1-15.2,8.9-16.5-.4,0,4.1-20.1,4.1-20.7ZM179,389.8l-.3-.3.3-.3.3.3-.3.3Z"/>
      <path class="st0" d="M382,290.4l1.5,6.8-5,9.3-3,4.3c-1,1.4-3.4,1.6-4.6,2.4-.6-.3-.9.6,0,.6v.9c-1.5-.2-2.7.8-4.4,2.3-.8-1.6,0-3.2.2-4.8l1.5-10.3c.1-.8-.1-1.6-.7-2,.2-1.2.6-2.4.5-3.6l.7-.6c.3-.3.5-.6.7-1l2.6-4.7c1.8,1.4,4.1,2.6,4.7,2.2l2-1.3,3.5-.4Z"/>
      <path class="st3" d="M382,290.4l-3.5.4-2,1.3c-.6.4-2.9-.8-4.7-2.2l3-6.1,3.9-8.1,3.3,14.7Z"/>
      <rect class="st3" x="178.8" y="389.3" width=".4" height=".4" transform="translate(-223 240.6) rotate(-45)"/>
      <path class="st4" d="M370.7,313.7c-.9,0-.5-.9,0-.6v.6Z"/>
      <path class="st1" d="M213.8,370.7h1c3.3,2.4,7.2,3.6,11,5.4l10.5,5,4.2,3.5-7.1,12.4c-.3-.2-.9,0-1.2,0-1.5-1.1-3.8-1-5.7-1.4l-7.7-2-5-15.1-1.5-5.1c0-.7.7-1.7.4-2.5h1.1Z"/>
      <path class="st2" d="M213.8,370.7h-1.1c0,0,0-.4,0-.6.4,0,.8.3,1,.6Z"/>
      <path class="st5" d="M371.9,329.6l-1-15c-1.7-.2-2.9.8-4.5,2.3-.8-1.6,0-3.2.2-4.8l1.5-10.3c.1-.8-.1-1.6-.7-2l-5.5,29.5-6.9,6.3-14.2,13-10.5,11.9-7.1-.4c-1.1,0-2-.3-2.7-.7l1.1,2.2c-.8,1.3-1,2.7-1.2,4.2-1,1.3-1.7,2.7-1.6,4.2-1.4,1.3-1.6,3.3-2.4,5-1,.4-1.6-.5-2.4-1.3-1-1-2.9.4-3.2,1.5l-2.5-.3h-2.6c-1.5,1-1.8,2.9-2.6,4.6l-10.3,19.5c-1,2-1.4,4.1-3,6l-19-10.5,1.6-9.9h-10.9c-3.5,0-6.7-.1-10.1,0l-10.9.2-7.1,12.4c-.3-.2-.9,0-1.2,0-1.5-1.1-3.8-1-5.7-1.4l-7.7-2-5-15.1-1.5-5.1c-.9-.2-1.6.4-1.7,1.4-.1,1.2-1.7,1.3-2.2,1.8-1.3,1.3-2.3,1.1-3.9,1.5l-7.2,2c-.2.3-.3.7-.4,1-.5,0-1.1.2-1.6.5l-10.6,6.9c-.9-2.3-.9-5-2.2-6.9,0-.1-.1-.4,0-.6l-2.3-10.7-2.2-8.2c-.5-2-2.8-3.3-4.1-4.4-.5-.8-1-1.8-1.9-2.8l-7-8.3-10.1-11.3,1.1,10,3.2,21.2,1.1,4.7,1.7,4.2s2.8,3.9,4,6.2l3.2,6.2,8.9,13.3c.9,1.4,2.2,2.3,2.7,3.8h.6c0,0,3,3.1,3,3.1l2.2,3.4c1.5,1,2.8,1.5,3.8,3.1,1.3,2.1,3.3,3.6,5.4,4.4-.2.6.3,1.1.4,1.5l5.1,3.7,3.5,2.8,3,2.6,8.9,7,2.5,2.2,4.6,3.2,5.8,3.9c2.3,1.6,4,2,6.7,2.1h9.2c0,.1,26-.2,26-.2l10.9-4.9,16.2-7.5,7.7-7.3c2.5-2,4.9-3.9,6.4-6.6-.7.2-1.3.5-2.4.2,1.3-.9,1.5-2,1.4-3.5,1.7.3,2,1.3,3,1.8l2.6-1.7c.7-1.5,1.6-1.7,2.7-2.8l2.6-2.8c1.4-.5,1.4-1.3,2.2-2.1l4.7-4.9,4.4-4,4.1-3.7c2.6-2.3,4.8-4.8,7.2-7.1l4.1-4.2,5.2-6.2c.8-1,2.6-2.8,3-4l4.4-24,1.1-8.2c.3-2.1,1-3,2.7-4.1l6.1-4.1c.6-2.2.2-4.1,0-6.3ZM179,389.8l-.3-.3.3-.3.3.3-.3.3Z"/>
      <path class="st5" d="M314.7,419.6c-.7.5-1.1,1.2-2.1,1.5s-1.3.5-2.4.2c1.3-.9,1.5-2,1.4-3.5,1.7.3,2,1.3,3,1.8Z"/>
      <polygon class="st0" points="290.2 262.9 290.6 262.9 290.9 262.9 290.6 262.9 290.2 262.9 289.9 262.9 290.2 262.9"/>
  </g>
</svg>
