<?xml version="1.0" encoding="UTF-8"?>
<svg id="Layer_1" xmlns="http://www.w3.org/2000/svg" version="1.1" viewBox="0 0 572.9 728">
  <defs><style>.skin { fill: #f2bea8; }.shade { fill: #ae8f84; }.edge { fill: #927e88; }.neck { fill: #dca08d; }.shadow { fill: #a07375; }</style></defs>
  <g id="portrait_part_content" transform="translate(51.72 63.89)">
    <path class="edge" d="M151,253 C140,236 139,213 151,199 C163,185 177,192 179,211 C181,234 172,252 156,263 Z"/>
      <path class="edge" d="M361,253 C372,236 373,213 361,199 C349,185 335,192 333,211 C331,234 340,252 356,263 Z"/>
      <path class="skin" d="M179,201 C179,130 208,89 256,87 C305,89 333,130 333,201 L333,270 C333,335 304,383 256,405 C208,383 179,335 179,270 Z"/>
      <path class="shade" d="M179,255 C165,248 158,228 164,213 C171,199 181,204 181,222 C181,236 180,247 179,255 Z"/>
      <path class="shade" d="M333,255 C347,248 354,228 348,213 C341,199 331,204 331,222 C331,236 332,247 333,255 Z"/>
      <path class="neck" d="M223,386 C236,396 247,401 256,405 C265,401 276,396 289,386 L292,446 C270,457 243,457 220,446 Z"/>
      <path class="shadow" d="M214,368 C229,387 243,399 256,405 C269,399 283,387 298,368 C291,414 220,414 214,368 Z"/>
      <path class="shade" d="M184,301 C194,352 220,386 256,405 C292,386 318,352 328,301 C321,366 294,406 256,428 C218,406 191,366 184,301 Z"/>
  </g>
</svg>
