<?xml version="1.0" encoding="UTF-8"?>
<svg id="Layer_1" xmlns="http://www.w3.org/2000/svg" version="1.1" viewBox="0 0 572.9 728">
  <defs><style>.skin { fill: #f2bea8; }.shade { fill: #ae8f84; }.edge { fill: #927e88; }.neck { fill: #dca08d; }.shadow { fill: #a07375; }</style></defs>
  <g id="portrait_part_content" transform="translate(51.72 63.89)">
    <path class="edge" d="M146,253 C133,235 134,211 148,198 C162,185 177,195 178,217 C180,239 169,257 152,266 Z"/>
      <path class="edge" d="M366,253 C379,235 378,211 364,198 C350,185 335,195 334,217 C332,239 343,257 360,266 Z"/>
      <path class="skin" d="M173,199 C173,126 206,79 256,78 C307,79 339,126 339,199 L339,292 C339,360 309,414 256,438 C203,414 173,360 173,292 Z"/>
      <path class="shade" d="M173,262 C160,254 154,235 160,219 C167,205 177,210 178,229 C179,244 177,255 173,262 Z"/>
      <path class="shade" d="M339,262 C352,254 358,235 352,219 C345,205 335,210 334,229 C333,244 335,255 339,262 Z"/>
      <path class="neck" d="M221,410 C234,425 247,434 256,438 C265,434 278,425 291,410 L295,455 C271,466 240,466 217,455 Z"/>
      <path class="shadow" d="M213,386 C228,417 244,433 256,438 C268,433 284,417 299,386 C294,436 219,436 213,386 Z"/>
      <path class="shade" d="M181,313 C193,381 220,423 256,447 C292,423 319,381 331,313 C325,399 297,456 256,472 C215,456 187,399 181,313 Z"/>
  </g>
</svg>
