<?xml version="1.0" encoding="UTF-8"?>
<svg id="RĂ©teg_1" xmlns="http://www.w3.org/2000/svg" version="1.1" viewBox="0 0 572.9 728">
  <!-- Generator: Adobe Illustrator 30.4.0, SVG Export Plug-In . SVG Version: 2.1.4 Build 226)  -->
  <defs>
    <style>
      .st0 {
        fill: #a07375;
      }

      .st1 {
        fill: #25222f;
      }
    </style>
  </defs>
  <g id="portrait_part_content" transform="translate(50.89 73.23)">
    <path class="st0" d="M267.2,350.8l11,.6,20.7,1.8c.3,1.1-.3,2-.3,2.6l-15.3,1.7-8.2.5-22.4,1.6-34.3-1.4c-2,0-3.9-1.3-5.6-.8-.5-.7-1.1-1.1-1.3-2.2l7.8-1.4,12.3-2.1,4.6-.8c6.4.9,12.9,2.3,19.4,1.4l11.7-1.5Z"/>
      <path class="st1" d="M298.5,355.8c.3,1.1.6,2.2.4,3.5-1,0-2.2.4-3,.7-.1-.4-.4-.7-.7-.7l-19.3.7-24.9,1.6c-11.1,0-21.8-1.4-33-.8s-2-.5-2.5.5h-1c-.3-.4-.6-.6-1-.6-.9-.9-1.1-2.1-.9-3.3,1.7-.5,3.6.7,5.6.8l34.3,1.4,22.4-1.6,8.2-.5,15.3-1.7Z"/>
      <path class="st0" d="M295.9,360l-23.3,10.6-7.7.2c-4.5.1-8.6.2-13,.3l-14.8.6-10.5-5c-3.8-1.8-7.7-3.1-11-5.4.5-1,1.5-.5,2.5-.5,11.2-.6,21.8.7,33,.8l24.9-1.6,19.3-.7c.3,0,.6.2.7.7Z"/>
  </g>
</svg>
