<?xml version="1.0" encoding="UTF-8"?>
<svg id="Layer_1" xmlns="http://www.w3.org/2000/svg" version="1.1" viewBox="0 0 512 512">
  <defs><style>.hair { fill: #4a2d1d; }.shadow { fill: #2b1a12; }</style></defs>
  <path class="hair" d="M255,246 C243,239 229,237 212,242 C193,247 181,260 176,277 C196,283 218,280 236,269 C246,263 251,255 255,246 Z"/>
  <path class="hair" d="M257,246 C269,239 284,237 300,242 C320,247 332,260 337,277 C317,283 295,280 277,269 C266,263 261,255 257,246 Z"/>
  <path class="shadow" d="M199,270 C214,271 229,267 241,257 C232,277 209,287 187,281 C190,276 194,273 199,270 Z"/>
  <path class="shadow" d="M313,270 C298,271 283,267 271,257 C280,277 303,287 325,281 C322,276 318,273 313,270 Z"/>
</svg>
