<?xml version="1.0" encoding="UTF-8"?>
<svg id="RĂ©teg_1" xmlns="http://www.w3.org/2000/svg" version="1.1" viewBox="0 0 572.9 728">
  <!-- Generator: Adobe Illustrator 30.4.0, SVG Export Plug-In . SVG Version: 2.1.4 Build 226)  -->
  <defs>
    <style>
      .st0 {
        fill: #25222f;
      }
    </style>
  </defs>
  <g id="portrait_part_content" transform="translate(51.12 165.3)">
    <path class="st0" d="M322.3,260.1l-1.1-2.2-7.4-15-2.3-.4-3.2-.9-7.5-1.7-8.4-1.7-14.3-3.1-4.3-1.3c-1.8-.6-6.1,2.2-9,2.1-2,0-2.3.9-3.3,1.8l-3.7,3.1-5.4,4.4c-.5.4-1.9,0-2.4-.3l-9-5c-.1-.3-.5-.7-.5-1.1l-8.3-4.5c-1.4-.8-3.1-.8-4.2.2-1.1,1-2.6.9-3.8,1.4l-13.5,6-7.4,3.1-7.2,3.5-5.4,19.6c.7,1.2,1.5,2.3,1.9,3.6.5,1.8,1.9,2.5,2.9,3.8l2.3,2.9,7.2-2c1.6-.4,2.6-.2,3.9-1.5.5-.5,2-.5,2.2-1.8.1-1,.8-1.6,1.7-1.4,0-.7.7-1.7.4-2.5,0-.2,0-.5,0-.7-.9-.9-1.1-2.1-.9-3.3-.5-.7-1.1-1.1-1.3-2.2l7.8-1.4,12.3-2.1,4.6-.8c6.4.9,12.9,2.3,19.4,1.4l11.7-1.5,11,.6,20.7,1.8c.3,1.1-.3,2-.3,2.6.3,1.1.6,2.2.4,3.5,1,0,2,1.7,3.1,2,2.3.8,3.5,2.2,4.6,4.1h2.6c0,0,2.5.4,2.5.4.4-1.2,2.2-2.5,3.2-1.5.8.8,1.4,1.7,2.4,1.3.7-1.7,1-3.7,2.4-5-.2-1.5.6-2.8,1.6-4.2.2-1.5.5-2.9,1.2-4.2Z"/>
  </g>
</svg>
