<?xml version="1.0" encoding="UTF-8"?>
<svg id="reteg" xmlns="http://www.w3.org/2000/svg" version="1.1" viewBox="0 0 572.9 728">
  <!-- Generator: Adobe Illustrator 30.5.1, SVG Export Plug-In . SVG Version: 2.1.4 Build 3)  -->
  <defs>
    <style>
      .st0 {
        fill: none;
      }

      .st1 {
        fill: #030001;
      }
    </style>
  </defs>
  <rect class="st0" width="572.9" height="728"/>
  <path class="st1" d="M359.7,380.3c.3-1.7.4-3.4-.6-4.9-.2-3.1-3-5-3.8-8.7-.7-1.4-2.1-6.2-3.8-6.1-.7-.2-1.5-.2-2.1-.4h0c-2.6-.8-5.5-1.3-8.3-1.9,0,0-.2,0-.3.2-.9-.2-1.7-.4-2.6-.6-1.5-.6-3.1-.9-4.8-1.1-2.7-.6-5.4-2.2-8.4-1.8-4.7-.5-9-3-13.7-3.3-.2,0-.4,0-.5.2-1.1-.2-2.5,0-3.6.4h.2c-.5.2-.8.4-1.3.6h.2c-.3.1-.5.3-.8.4-.2,0-.4.2-.7.4-1.8-.2-3.5.3-4.5,1.8-1.7,1.2-4.2,2.1-4.8,4.3h0c-2.5,1.3-3.1,2.3-4.7,3.5h0c-3.2-1.2-6.2-2.7-9.2-4.2-.7-.4-1.4-.9-2.1-1.3,0-.6-.3-1.2-.9-1.4-.6-.9-1.6-1.6-2.4-2h-.6s-.2,0-.3-.2c-.2,0-.3,0-.5-.2h0c-1.1-.8-2.9-.9-4.2-1.1-1-.7-2.3-1.3-3.6-1-2,.8-4,1.5-5.8,2.6h0c-.7.4-1.4.8-2.1,1.2-.2,0-.4,0-.6.2-2.1.5-4.1,1.1-5.2,2.1-.2,0-.3.2-.4.2-1.1.2-2.2.5-3.1,1.1-.4,0-.6.4-.8.8-.1,0-.3,0-.4.1-1.1.3-2.3.6-3.2,1-2,.6-3.9,1.2-5.8,1.9-.5,0-.8.2-1,.5-.3.1-.5.2-.7.3-.2,0-.3.3-.4.4-.6.2-1.2.5-1.7.8-.3.1-.7.2-1,.3-.2.1-.2.3-.4.5-.3,0-.7,0-1.2.5-.6,1.2-.9,2.5-1.4,3.8-.2,1.5-.2,3.1-.3,4.7-.4,1.4-.8,2.7-1.1,4.1-.7,1.3-2.1,4.5-1.1,6,0,.8.5,1.6.7,2.4,0,.7.5,1.6.7,2.4.2.9.9,1.5,1.6,1.8,1.2,1,2.3,2.2,3,3.6,0,.5,0,1,.6,1.3.7.4,1.4-.5,2.1-.6,1.8-.4,3.7-1.2,5.6-1.7,1.3-.5,2.7,0,3.5-1.2h.3c1.6.3,2.4-1.2,2.8-2.5h0c.8-1.2,1.4-2.7,1.3-4.2,0-.5,0-1-.3-1.5-.4-1.5-1.1-3-1.9-4.5h.2c2.4.3,4.4-.6,6.7-1.2,1.7,0,3.8,0,5.4-.8,1.9-.9,4.3-.2,6.4-.5,1.7-.6,3.5-.7,5.3-1.1,1-.4,2.2-.5,3.4-.3h1.4c1.8.5,3.8.8,5.3,1,2.8.6,5.9-.2,8.7.8,3.4,1,6.5-.7,9.8-1.3,1.5.1,2.9-.2,4.2-.7,3.1.5,6,.6,9.9.4,4,.9,7.1,1.9,11.3,1.2,2,.4,4,1.2,6.1.8,1.1-.1,2.2,0,3.2.3-.2.7-.4,1.4-.4,2.2v.2c-.9,4.4,5.3,4.8,7.2,7.3.7,1.7,2.6,2.7,4.4,2.8,1.3.3,2.4-.2,3.5-.7,0,.3,0,.6.3.9.8.7,1.4,0,1.8-.8h0c0,.4.2.6.5.8h.4c.8,1,1.7-.4,1.5-1.8,1.1-1.7,2.2-3.2,2.9-5v-.6c.3-.5.5-.9.6-1.3.3-.9.4-2.1.5-3.2h0v.6h-.1Z"/>
</svg>