<?xml version="1.0" encoding="UTF-8"?>
<svg id="Layer_1" xmlns="http://www.w3.org/2000/svg" version="1.1" viewBox="0 0 572.9 728">
  <defs><style>.hair { fill: #bd8d37; }.light { fill: #e0bf66; }.shadow { fill: #8f641f; }</style></defs>
  <g id="portrait_part_content" transform="translate(51.12 165.3)">
    <path class="hair" d="M253,250 C240,244 223,244 205,250 C190,255 181,265 178,276 C197,277 218,274 236,265 C246,260 252,255 253,250 Z"/>
      <path class="hair" d="M259,250 C272,244 289,244 307,250 C322,255 331,265 334,276 C315,277 294,274 276,265 C266,260 260,255 259,250 Z"/>
      <path class="light" d="M202,257 C217,251 234,250 247,254 C232,259 215,265 195,268 Z"/>
      <path class="light" d="M310,257 C295,251 278,250 265,254 C280,259 297,265 317,268 Z"/>
      <path class="shadow" d="M252,250 C253,258 253,265 251,272 C246,263 243,256 252,250 Z"/>
      <path class="shadow" d="M260,250 C259,258 259,265 261,272 C266,263 269,256 260,250 Z"/>
  </g>
</svg>
