<?xml version="1.0" encoding="UTF-8"?>
<svg id="Layer_1" xmlns="http://www.w3.org/2000/svg" version="1.1" viewBox="0 0 572.9 728">
  <defs><style>.skin { fill: #c39b91; }.line { fill: #3f3a3b; opacity: .72; }</style></defs>
  <g id="portrait_part_content" transform="translate(40.16 65.22)">
    <path class="skin" d="M272,258 C265,280 263,303 265,324 C258,327 252,333 249,341 C258,347 269,346 276,340 C282,346 294,347 303,341 C300,333 294,327 286,324 C285,303 282,279 272,258 Z"/>
      <path class="line" d="M257,338 C264,333 271,333 276,337 C270,343 263,343 257,338 Z"/>
      <path class="line" d="M296,338 C289,333 282,333 276,337 C282,343 289,343 296,338 Z"/>
  </g>
</svg>
