<?xml version="1.0" encoding="UTF-8"?>
<svg id="RĂ©teg_1" xmlns="http://www.w3.org/2000/svg" version="1.1" viewBox="0 0 512 512">
  <!-- Generator: Adobe Illustrator 30.4.0, SVG Export Plug-In . SVG Version: 2.1.4 Build 226)  -->
  <defs>
    <style>
      .st0 {
        fill: #a9796d;
      }

      .st1 {
        fill: #3f3a3b;
      }
    </style>
  </defs>
  <path class="st0" d="M320.9,340.7l-18.5-13.2,2.6-18.8,2-13.8-4.9-3.3-18-11.7-5.5-11.7-1.9-2.7-2.6-5.4c-1,.5-1.2,1.6-1.5,2.9-2.8,14.8-4.6,29.5-5.7,44.9l23.9,7.7-.4,13.5c0,.3.3,1.1,0,1.3l-1,.6-5.9-1.7c0,0,0,.9-.2.9-4.3-.2-8.5.2-12.7,1.7-1.5.6-2.6,2.2-4.8,2.1,0-.4,0-1.1.2-1.7l-6.7,1.4c-2.8,0-6.1-1.2-8.2-2.8l-8.4-6.2c-3,1.5-6.1,3.1-8.1,5.7.6.6,1.8,1.8,2.7,1l2-1.8c.9-.8,2.9-2.4,4.5-1.7,1.8.8,2.9,3.3,3.9,4.8,1.4,2.1,3.7,3.5,4.1,6.1,0,.4.4.8.5,1.1l9,5c.5.3,1.9.7,2.4.3l5.4-4.4,3.7-3.1c1-.9,1.3-1.9,3.3-1.8,2.9.1,7.2-2.7,9-2.1l4.3,1.3,14.3,3.1,8.4,1.7,7.5,1.7,3.2.9c0-1-.8-1.3-1.7-1.9Z"/>
  <path class="st1" d="M283.4,329.2c0,0,0,.9-.2.9-4.3-.2-8.5.2-12.7,1.7s-2.6,2.2-4.8,2.1c0-.4,0-1.1.2-1.7,3.3-2.3,5.7-6.1,10.8-4.8l6.7,1.7Z"/>
  <path class="st1" d="M247.4,332.8l-4.3-2.1c-1.3-.6-2.9-.2-4.1-1,.9-.8,2.9-2.4,4.5-1.7s2.9,3.3,3.9,4.8Z"/>
</svg>