<?xml version="1.0" encoding="UTF-8"?>
<svg id="Layer_1" xmlns="http://www.w3.org/2000/svg" version="1.1" viewBox="0 0 572.9 728">
  <defs><style>.skin { fill: #c39b91; }.shade { fill: #b8877d; }.line { fill: #3f3a3b; opacity: .7; }</style></defs>
  <g id="portrait_part_content" transform="translate(40.16 65.22)">
    <path class="skin" d="M273,259 C266,279 263,297 264,313 C252,318 246,329 249,340 C254,354 273,357 282,346 C294,354 313,349 316,336 C319,323 308,315 294,312 C291,293 285,274 273,259 Z"/>
      <ellipse class="shade" cx="284" cy="327" rx="18" ry="15" opacity=".6"/>
      <path class="line" d="M256,336 C263,330 272,330 280,335 C272,342 263,343 256,336 Z"/>
      <path class="line" d="M309,335 C300,330 291,331 283,336 C292,342 301,342 309,335 Z"/>
  </g>
</svg>
