<?xml version="1.0" encoding="UTF-8"?>
<svg id="Réteg_1" xmlns="http://www.w3.org/2000/svg" version="1.1" viewBox="0 0 512 512">
  <!-- Generator: Adobe Illustrator 30.4.0, SVG Export Plug-In . SVG Version: 2.1.4 Build 226)  -->
  <defs>
    <style>
      .st0 {
        fill: #25222f;
      }
    </style>
  </defs>
  <path class="st0" d="M209,255.7c1.2,2.8,3,5.7,2,8.6l-1.9,6c-4.5,2-9.6,2.3-14.6,2.2l-3.9-6.1c-2-3-.6-6.9.8-10.2,0,0,10.7-8,17.5-.4Z"/>
  <path class="st0" d="M313,255.8l1.6,5.6c.5,1.6-2.4,8.3-3.9,9.4s-.6,1-.5,1.3c-4.3.5-8.7,0-12.9-.8-3.8-6.7-4-9.3-1.2-16.4,2-2.7,10.7-5.7,17,.9Z"/>
</svg>