<?xml version="1.0" encoding="UTF-8"?>
<svg id="RĂ©teg_1" xmlns="http://www.w3.org/2000/svg" version="1.1" viewBox="0 0 572.9 728">
  <!-- Generator: Adobe Illustrator 30.4.0, SVG Export Plug-In . SVG Version: 2.1.4 Build 226)  -->
  <defs>
    <style>
      .st0 {
        fill: #877788;
      }

      .st1 {
        fill: #f7f1ed;
      }

      .st2 {
        fill: #f2bea8;
      }

      .st3 {
        fill: #c39b91;
      }

      .st4 {
        fill: #b6b4c4;
      }

      .st5 {
        fill: #9090a9;
      }

      .st6 {
        fill: #ae8f84;
      }

      .st7 {
        fill: #bebcc8;
      }
    </style>
  </defs>
  <g id="portrait_part_content" transform="translate(2.13 262.35)">
    <path class="st7" d="M583.9,461.5v50.5h-46.6l-9.7-18.3c.9,0,2.5,0,3.2-.8l-.8-1.7c-.5-1,2.4-3.1,5.6-2.8-.5.9-.8,1.9-.7,2.8s1.2.7,1.7,1.2c.7.8,1.7,2.3,3,2.1s2-1.8,1.9-2.6c0-1.4-1-2.5.2-4.1,1.2,2,2.5,2.6,4.3,3.4s1.1,1.4,1.6,1.3c.8,0,3.3-1.4,3.4-2.5s-.9-1.1-1.6-1.6c.9-2.5,1.6-5.6,1.7-8.4s1-1.4-.2-1.6-1.4-.7-1.7-1.5.2-2,1.3-1.5,1.2,2.5,2.4,1.9l5.2,6.5-7.3-24.5-13.3-48.3c1.1-.3,1.2.7,1.7,1.3l22.1,23.7,11.7,12.1,7.6,9.8c1,1.3,1.7,2.9,3.1,3.5h.2ZM558.5,484.2l-.3.3.3.3.3-.3-.3-.3Z"/>
      <path class="st7" d="M495.8,440.4l6.5,62.8.8,8.8h-92.3l-5-5.2-7.7-8.1-3-3.1-9.6-10.1-5.6-5.8-3.9-4.3-3.5-3.2-21.7-23-11.9-12.3-7.4-7.6-4.3-4.4c-1.1-1.1-2.3-1.8-2.6-3.6l-13.5,1.2-4-2.8-3.8-3.4-3.6-3.1c-1.9-1.6-3.3-4.1-5.9-5-.5-.9-1.3-2.1-2.2-2.9l-7.7-6.8-6.6-6.1-8.9-8.1c-1.1-1-2.2-1.8-3.1-3.1-1.8-2.6-4.9-3.6-6.6-6.9l20.5,6.3,8.2,2.6c5.1,1.6,9.8,3.1,14.9,4.6l14.3,4.2,4.7-1.4,27.1-9,31-11.1,20.3-7.5c.5-1.3,1.4-2.3,2.2-3.4l12.4-16.4,13.3-17.1,8.3-10.7,2.5-3.2,5.2-6.6c1.5,2.6,1,4.8,1,7.1v14.2l.4,3.2v13.5c-.1,0-.1,8.9-.1,8.9-.1,0-3.1,2.8-3.1,2.8-3.1,2.2-5.5,4.7-7.9,7.7s-6.2,5-9.7,6.6l-6.8,5.4-24,9.6-8.8,3.5c-2.5,1-5.2,1.4-7.5,3,.8,1.1,2.2,1.3,3.3,1.5l13.2,2.8,16.7,3.8,26.5-2.6,9.7-.8c2.1,3.9,5.4,6.3,8.7,8.9l4.9,3.8,8.7,7.7,2.7,2.6,15.8,14.5,8.1,7.2h.4Z"/>
      <path class="st7" d="M234.4,307.8c.6,1.3,1.9,2,3.2,3l3.9,3.2,8.6,6.4,12.4,8.8,19.2,13.6c.8.6,1.4,1,2.2,1,.8,1,1.8,1.7,3.1,2.5l5,3.2,7.9,2,13.3,2.6,11.4,2.3h4.6l11.8-.4,13.6-.9c-.5,2.3-2.2,3.9-3.5,6l-3.2,5.2-16.8,6.2-12.3,4.7-7.2,2.2c-1.4.4-3,.6-3.7,2.7-2.6-1.5-5.3-1.8-8.1-2.6l-6.2-1.6-16.5-4.9c-1.9-.6-2.6-.3-4.2-1.8l-49.9-46.6c-1.3-1.2-2-2.4-3.7-3.2l-7.1-33.1-4.5-18-4.2-19.9,6.7-6.1,2.7-2.3-.8,6.1c.3,3.8,0,8.1,1.2,11.6l3.9,10.5,14.5,35.8c.5,1.1,2.2,1.4,2.8,1.9h0Z"/>
      <path class="st4" d="M517.6,430.1c-.7,3.2-1.1,7.2.9,9.1s4.4.7,6.4-.3l1,1.4c-.9,1.7-1.5,3.7-.6,5.5s1.7,3,3.8,3.2l.4,2.7c7.1,2.4,1.7,9.1,4.9,10.4s2.3,2.8,3.5,3.7c2.3,1.7,2.7,3.5,4.1,5.9l3,2.8c.9.3,2.7-.3,3.9.8,0-1.6,0-2.2.3-3.2,1.3,1.8,3,3.4,3.7,5.5-1.2.6-1.7-1.5-2.4-1.9-1.1-.6-1.6.7-1.3,1.5s.8,1.3,1.7,1.5.2,1.2.2,1.6c0,2.8-.8,5.8-1.7,8.4.7.5,1.6,1.1,1.6,1.6,0,1.1-2.6,2.4-3.4,2.5s-1.1-1.1-1.6-1.3c-1.7-.8-3.1-1.4-4.3-3.4-1.2,1.6-.3,2.7-.2,4.1s-1.1,2.5-1.9,2.6c-1.3.1-2.3-1.3-3-2.1s-1.6-.7-1.7-1.2c0-.8.2-1.9.7-2.8-3.3-.3-6.1,1.8-5.6,2.8l.8,1.7c-.7.9-2.3.8-3.2.8-.9-.3-1-1-1.4-1.8.3,0,.6,0,.7-.1.3-.3,1.4-3.8-1.3-5.5s-1.8-1.5-3-1.1l-9.8-16.9-14.3-23.8c.6,0,.9-.4.6-1-3.2-5.1-5.1-10.5-7.2-16l-8.5-22.2-5.1-13.6-4.6-13.2s-.1-.2-.5-.5c.4.7,1.2,0,.4-.4l.7.8,9.2,10.7,12.4,15,4.5,5.3,8.3,9.7,5.8,7,3.1,4.1v-.4ZM537.2,490.5c-.4.6,0,1.1.7.9s.5.2.8-.3,0-.7-.3-.8-1,0-1.1.1h-.1Z"/>
      <path class="st5" d="M498.5,444.6l14.3,23.8,9.8,16.9,3.6,6.6c.4.8.5,1.5,1.4,1.8l9.7,18.3h-34.2l-.8-8.8-6.5-62.8c1.1,1,1.8,2.9,2.6,4.2h.1Z"/>
      <path class="st0" d="M414.6,305l-3.3,4-21.9,25.4-9,5.8-14.1,8.1-11.8,6.6-13.6.9-11.8.4h-4.6l-11.4-2.3-13.3-2.6c1.6-.8,3.6-.7,5.5-1.1l23.1-4.2,13.5-2.4c2-.4,4.2-.3,5.6-1.6l2.5.3,5.2-.9,35.1-22,24.1-14.5h.2Z"/>
      <path class="st0" d="M426.8,283.1l-6.4-15.7-5.5-13.6-6.9-4.4c-.9-.6-2.1-.8-2.1-1.9l16.1,4,3.4,4.4c5,6.4,5.7,6.8,3.8,15.9l-2.3,11.4h-.1Z"/>
      <path class="st5" d="M216.1,239.1l-2.3,4.1,3.2,12.4,5.3,15c-.7,1,.3,2.4.6,3.2l6.7,19.7,4.8,14.3c-.6-.5-2.3-.8-2.8-1.9l-14.5-35.8-3.9-10.5c-1.3-3.6-.9-7.8-1.2-11.6l.8-6.1,1.7-2"/>
      <path class="st7" d="M549.3,472c-.4,1-.4,1.6-.3,3.2-1.2-1-3-.5-3.9-.8l-3-2.8c-1.4-2.3-1.8-4.2-4.1-5.9s-1.7-3-3.5-3.7c-3.3-1.3,2.2-8-4.9-10.4l-.4-2.7c-2.1-.2-3.1-1.8-3.8-3.2s-.3-3.8.6-5.5l7,9.1,7.5,10,3.3,4.9,5.6,7.7h0Z"/>
      <path class="st7" d="M524.9,438.9c-1.9,1-4.8,1.8-6.4.3s-1.6-5.8-.9-9.1l2.6,3c1.7,1.9,3.4,4,4.6,5.8h.1Z"/>
      <path class="st1" d="M213.4,235.2l-24.2,17.3-18.2,8.3-22,6.8c-1-.4-12.7,1.2-13.6,2.3l-18.9,6.1-18.9,3-13.6,6.1-25.8,12.9s-23.5,19.7-24.3,19.7c0,0-17.7,35.1-19.7,37.1-.2.2-3.1,26.9-3,27.3,0,.2.6,129.9.6,129.9l572.2.5v-.5h-173.1l-5-5.2-7.7-8.1-3-3.1-9.6-10.1-5.6-5.8-3.9-4.3-3.5-3.2-21.7-23-11.9-12.3-7.4-7.6-4.3-4.4c-1.1-1.1-2.3-1.8-2.6-3.6l-13.5,1.2-4-2.8-3.8-3.4-3.6-3.1c-1.9-1.6-3.3-4.1-5.9-5-.5-.9-1.3-2.1-2.2-2.9l-7.7-6.8-6.6-6.1-8.9-8.1c-1.1-1-2.2-1.8-3.1-3.1-1.8-2.6-4.9-3.6-6.6-6.9l20.5,6.3,8.2,2.6c5.1,1.6,9.8,3.1,14.9,4.6l14.3,4.2,4.7-1.4,27.1-9,31-11.1,20.3-7.5c.5-1.3,1.4-2.3,2.2-3.4l12.4-16.4,13.3-17.1,8.3-10.7,2.5-3.2,5.2-6.6c1.5,2.6,1,4.8,1,7.1v14.2l.4,3.2v13.5c-.1,0-.1,8.9-.1,8.9-.1,0-3.1,2.8-3.1,2.8-3.1,2.2-5.5,4.7-7.9,7.7-2.3,2.9-6.2,5-9.7,6.6l-6.8,5.4-24,9.6-8.8,3.5c-2.5,1-5.2,1.4-7.5,3,.8,1.1,2.2,1.3,3.3,1.5l13.2,2.8,16.7,3.8,26.5-2.6,9.7-.8c2.1,3.9,5.4,6.3,8.7,8.9l4.9,3.8,8.7,7.7,2.7,2.6,15.8,14.5,8.1,7.2c1.1,1,1.8,2.9,2.6,4.2.6,0,.9-.4.6-1-3.2-5.1-5.1-10.5-7.2-16l-8.5-22.2-5.1-13.6-4.6-13.2.6-.2,9.2,10.7,12.4,15,4.5,5.3,8.3,9.7,5.8,7,3.1,4.1,2.6,3c1.7,1.9,3.4,4,4.6,5.8l1,1.4,7,9.1,7.5,10,3.3,4.9,5.6,7.7c1.3,1.8,3,3.4,3.7,5.5l5.2,6.5-7.3-24.5-13.3-48.3c1.1-.3,1.2.7,1.7,1.3l22.1,23.7,11.7,12.1,7.6,9.8c1,1.3,1.7,2.9,3.1,3.5v-102.9c-.9-.4-.8-1.5-1.2-2.4l-10.7-27.5-34.4-27.4-31.8-14.7-27-12.1-15.4-6.2-5.9-2.7-11.1-6-9.5-5-18.2-9.3-19.6-1.8c2,1.7,4.5,3.7,6.7,4.2l16.1,4,3.4,4.4c5,6.4,5.7,6.8,3.8,15.9l-2.3,11.4-1,4.6-.8,4.6-2.7,2.9-2.3,3.5c-.5.7-1.4,2.3-2.2,2.7-1.5,1-2.1,2.4-3.2,3.6l-3.3,4-21.9,25.4-9,5.8-14.1,8.1-11.8,6.6c-.5,2.3-2.2,3.9-3.5,6l-3.2,5.2-16.8,6.2-12.3,4.7-7.2,2.2c-1.4.4-3,.6-3.7,2.7-2.6-1.5-5.3-1.8-8.1-2.6l-6.2-1.6-16.5-4.9c-1.9-.6-2.6-.3-4.2-1.8l-49.9-46.6c-1.3-1.2-2-2.4-3.7-3.2l-7.1-33.1-4.5-18-4.2-19.9,6.7-6.1,2.7-2.3,1.7-2"/>
      <path class="st1" d="M473.6,377.5c.8.4,0,1.2-.4.4l.4-.4Z"/>
      <rect class="st1" x="558.3" y="484.2" width=".4" height=".4" transform="translate(-178.9 536.8) rotate(-45)"/>
      <path class="st7" d="M526.3,491.9l-3.6-6.6c1.2-.4,2.1.4,3,1.1,2.7,1.7,1.6,5.2,1.3,5.5s-.4.2-.7.1h0Z"/>
      <path class="st7" d="M537.2,490.5c.2-.2.9-.2,1.1-.1s.5.4.3.8-.6.2-.8.3c-.5.2-1.1-.4-.7-.9h.1Z"/>
      <path class="st2" d="M399.1,186.6l-1.8,56.1c0,.7,1.5.7,1.8.7,2,1.7,4.5,3.7,6.7,4.2,0,1.1,1.2,1.4,2.1,1.9l6.9,4.4,5.5,13.6,6.4,15.7-1,4.6-.8,4.6-2.7,2.9-2.3,3.5c-.5.7-1.4,2.3-2.2,2.7-1.5,1-2.1,2.4-3.2,3.6l-24.1,14.5-35.1,22-5.2.9-2.5-.3c-.6-1.1-2-1.4-3.2-2l-14.2-7.4c-3.1-1.6-6.2-2.8-9-5l3.3-12.5,2.6-8.2,7.4-23.4,8.7-10.3,3.1-4.1,5.4-5.9c1.1-1.2,1.6-2.6,2.5-3.8l14.2-18.9c1.2-1.6,8.2-60.3,9.5-62.1l21.2,8Z"/>
      <path class="st2" d="M251.9,193.6l12.1,69.1c1.1,2.4,2.2,4.5,2.6,7s-.4,2.5.5,3.9-.2,2.7.1,3.6c.8,2.8.9,5.5,1.2,8.3l1,10.4,4.3,35.1c1.9,1.7,3.1,3.5,4.5,5.4l5.7,7.3c-.8,0-1.4-.4-2.2-1l-19.2-13.6-12.4-8.8-8.6-6.4-3.9-3.2c-1.3-1-2.6-1.7-3.2-3l-4.8-14.3-6.7-19.7,1.5-6.9c.4-2.1.7-3.8,1.1-5.8l3.4-17.3c.1-.7-.3-1.2-.4-1.5-.2-1.2,0-3.1,0-4.4v-34.2c-.1,0,23.4-10,23.4-10Z"/>
      <path class="st3" d="M269.3,204.2l10,18.2,3.4,11.9c2.3,1.6.5,14.7,3.2,14.8l4.2,8.6,8.7,4.8,4.4,2.8,3.2,1.8,8.4,5,19.7,11.5-7.4,23.4-2.6,8.2-3.3,12.5c2.8,2.2,5.9,3.4,9,5l14.2,7.4c1.2.6,2.6.9,3.2,2-1.5,1.3-3.6,1.2-5.6,1.6l-13.5,2.4-23.1,4.2c-2,.4-3.9.3-5.5,1.1l-7.9-2-5-3.2c-1.3-.8-2.3-1.5-3.1-2.5l-5.7-7.3c-1.5-1.9-2.7-3.7-4.5-5.4l-4.3-35.1-1-10.4c-.3-2.9-.4-5.5-1.2-8.3s.5-2.7-.1-3.6c-.9-1.4-.3-2.6-.5-3.9-.4-2.5-1.6-4.7-2.6-7l-12.1-69.1,17.4,10.6Z"/>
      <path class="st6" d="M368.4,240.7c-1.3,1.8-2.5,3.3-3.8,5l-10.3,13.9c-.9,1.2-1.3,2.5-2.5,3.8l-5.4,5.9-3.1,4.1-8.7,10.3-19.7-11.5-8.4-5-3.2-1.8-4.4-2.8-8.7-4.8-7.1-9.6-13.8-44c0,.1,43,3.2,43,3.2l13.6-2.1,52.1-26-9.7,61.3Z"/>
      <g>
        <path class="st3" d="M228.5,242.3c-.2.1-.5.3-.6.6.1-.3.4-.6.6-.7-.3-1.1.1-36.4.2-37.8l-12.6,34.6-2.3,4.1,3.2,12.4,5.3,15c1-1.6,1.1-3.5,1.5-5.6l4-21.7c0,0,0-.1,0-.2,0,0,0,.2,0,.3l-4,21.7c-.4,2.1-.5,4-1.5,5.6-.6,1,.3,2.4.6,3.2l1.5-6.9c.4-2.1.7-3.8,1.1-5.8l3.4-17.3c.1-.7-.4-1.2-.4-1.5Z"/>
        <polygon class="st3" points="222.9 273.8 222.9 273.8 222.9 273.8 222.9 273.8"/>
      </g>
  </g>
</svg>
