<?xml version="1.0" encoding="UTF-8"?>
<svg id="Réteg_1" data-name="Réteg 1" xmlns="http://www.w3.org/2000/svg" viewBox="0 0 409.19 709.78">
  <defs>
    <style>
      .cls-1 {
        fill: #183557;
      }

      .cls-2 {
        fill: #e8b9ae;
      }

      .cls-3 {
        fill: #1c395c;
      }

      .cls-4 {
        fill: #38537b;
      }

      .cls-5 {
        fill: #f8f4e9;
      }

      .cls-6 {
        fill: #f39ea5;
      }

      .cls-7 {
        fill: #eca29f;
      }

      .cls-8 {
        fill: #32466b;
      }

      .cls-9 {
        fill: #3b5b85;
      }

      .cls-10 {
        fill: #f0f6ec;
      }

      .cls-11 {
        fill: #fcddb8;
      }

      .cls-12 {
        fill: #81748c;
      }

      .cls-13 {
        fill: #f5b6a7;
      }

      .cls-14 {
        fill: #3e649e;
      }

      .cls-15 {
        fill: #f3abb2;
      }

      .cls-16 {
        fill: #fbeddd;
      }
    </style>
  </defs>
  <g id="Generatív_objektum_0_30_" data-name="Generatív objektum (0, 30)">
    <path class="cls-5" d="M192.41,112.35c-1.6,6.31-1.65,12.92-1.49,19.94l1.14,51.26,1.49,29.7,11.39-.06c-1.18,3.92-4.55,6.39-8.09,7.83-7.21,2.93-15.99-.32-21.04,1.78-1.37-.1-2.51-.31-4.15-.55l-26.53-3.93-9.67-2.14c-4.82-1.07-8.83-5.55-14.79-5.12,4.19,5.07,10.32,6.23,15.47,7.39l21.84,4.94c.46.1.89,1.42,1.12,1.69.32.37,1.48-.34,2.01-.27l18.44,2.42c.86.99,2.79,2.27,4.17,2.55,8.05,1.63,11.78,7.45,11.81,15.51l.19,61.74c0,2.64.32,4.81-2.32,5.95.87,2.1,2.23,2.85,3.91,3.57-6.08.9-10.26-10.1-14.97-8.2l6.82,5.16c-.69,6.8,3.36,12.08.47,15.72l-12.78,3.14c-.44.71.73,2.34,2.44,1.93,1.59-.38,3.05-1.28,4.66-.91l17.64,2.19c-1.59.39-3.36,1.1-5.02,1.11h-3.57c-4.21.03-9.1,4.33-7.38,8.27,1.1,1.07,3.77,1.22,4.47,2.17.96,1.29.76,3.73.92,5.22.61,5.95-1.96,9.71-7.33,11.31.55.64.6,1.24.56,1.58-.05.43-.81.63-1.09.59.57-2.76-2.34-2.42-3.86-3.43l-11.59-7.67-2.8-2.46c-3.79-3.33-7.83-6.41-11.39-10.54l-14.08-16.36c-6.74-9.3-10.55-20.04-14.39-30.78-4.09-11.43-5.35-23.54-6.34-35.83-.36-4.47-2.31-8.51-3.7-12.54.74-.94,1.54-1.97.9-3.47-4.95,3.85-5.62,14.02-3.28,20.41-2.08,1.57-.38,5.22,1.25,9.37.52,1.32-.52,4.41.85,5.67,2.95,2.69,2.68,6,3.86,9.17l1.76,4.73c1.54,4.13,4.93,9.21,5.63,10.82l4.89,11.27c1.01,2.32,1.06,5.51,3.74,7l5.22,7.91-.29,2.86c-1.98-.93-3.62-1.22-5.97-.76,1.8,1.88,3.41,3.73,4.19,6.41l-11.58,19.64-8.26,15.77c-6.44,12.31-11.19,25.02-13.81,38.75l-.09,2.01c-.02.52-.97.81-1.49.72-16.33-2.37-39.68-4.31-49.55,7.49-1.3,1.01-2.25-.65-3.53-.4l.09-24.59,2.33-29.8c1.74-22.22,3.03-46.44,12.13-66.65,6.52-14.47,15.44-27.72,26.77-38.86,3.24-3.19,7.81-4.43,9.32-8.99,2.47-7.43,6.52-13.97,13.56-17.77l-.3-18.3c-.06-3.79,1.73-7.49,2.96-10.6-1.2-2.87-2.88-5.05-1.88-8.22,1.34-4.22.18-9.31.09-13.72.3-6.17.72-12.82.56-19.29l.4-14.3c-.04-4.4,2.59-5.22,5.83-6.92l19.91-10.4c2.03-1.06,3.8-2.24,5.76-2.54-1.25,3.05-.83,6.5-.19,10.08l7.29,40.29c2.5-.22,2.51-2.06,2.94-2.95.82-1.75-1.13-2.98-1.35-4.34l-6.63-42.11c-.52-.11-1.26-.35-1.28-1.27l36.26-17.96,8.39-.03ZM153.51,253.51c-2.8.12-6.85.85-8.48,3.56-1.18,1.97,1.07,5.12,2.99,5.23.61-6.48,8.38-6.13,16.16-6.44l6.04,1.76c3.05.89,3.19,6.4,1.9,9.68-1.05,2.68-3.93,6.04-7.75,5.97-.98-.19-1.64-.04-1.73.81-1.14-.11-1.69.61-2.43,1.26-.89.79-1.3,2.02-.21,2.43,8.67,3.26,17.98.23,21.14-7.73,1.69-1.14,3.13-3.26,1.99-5.78l-2.9-8.5c1.39.24,3.21.42,3.71-.05,1.11-2.81-.99-5.34-3.79-6.64-10.5-4.86-22.48-6.57-33.64-3.68-2.59.67-4.09,3.61-3.03,5.94,7.27-3.88,21.42-3.14,22.52-1.5.37.55-.16,2.34-.93,3.19l-11.57.49ZM166.72,268.08c1.96-2.05.92-4.87-.23-6.28-.83-1.02-3.48-2.26-4.69-.99-1.13,1.18-.97,4.14-.73,5.96.29,2.19,4.08,2.96,5.65,1.32Z"/>
    <path class="cls-14" d="M342.48,392.02c-.75-.36-1.39,4.96-1.36,7.82l.19,18.63c.03,2.82-4.01,5.18-6.92,5.92l-21.71,5.48c-2.24.57-4.13-.05-5.51,2.07,1.25-3.23,4.27-4.7,8.05-5.34-3.22-38.34-4.62-78.97-25.1-111.45-6.32,4.88-11.28,10.14-16.03,16.1l-.66,14.72c-.15,3.31-3.83,6.23-3.77,9.32l.25,12.87,1.47,54.34c.13,4.76,1.64,8.8,4.49,12.33-12.99,5.01-18.71-7.48-27.89-4.96l-.7-21.35c-.32-9.7.79-18.49,3.95-27.54,2.52-7.2-4.38-13.36-4-17.83.2-2.38,3.43-3.78,5.2-3.88l8.07-.49c8.81-2.82,12.13-11.55,11.16-20.47-.78-7.2-5.43-12.79-10.82-17.11,4.08-6.17,6.8-13.06,9.59-20.09l6.12-15.44c5.18-13.09,7.99-26.99,5.82-41.24l-5.52-8.08c-1.37,9.24-.44,17.81-.03,27.12-4.44,15.68-9.36,30.7-15.84,45.41-1.61,3.66-3.98,6.88-6.76,8.94-.49-.25-1.15-.23-1.65-.09-.22-.54-.68-1.08-2.36-.97,3.27-5.57,3.21-11.93,3.21-18.76l.04-32.12-1.9-6.53c-.36-.27-1.34-.12-1.48.04l-.04-6.66.65-2.11c.35-1.15-.36-1.35-1.29-1.67-9.61-3.3-19.98-2.61-29.56,1.61-2.31,1.02-4.27,2.62-5.32,4.74l-1.28.66c-.65.33-.81-1.38-4.8-1.67-.93-.07-1.49-1.01-1.68-2.17,2.68-2.9,6.35-4.63,9.7-6.65,3.78-2.28,8.45-1.92,13.09-3.61,3.5-1.27,3.29-7.93,1.79-10.65l-3.6-6.64c-.29-.86.2-1.7.93-1.97l2.15-.8,24.16-6.64c.2-.3.35-.92.33-.95-1.79-.58-3.45.89-5.25,1.37l-17.61,4.65c-2.18.58-4.05.13-5.67-1.15,2.17-.77,4.74-.99,5.9-3.52l3.32-7.24c-4.32,1.16-8.44,1.86-12.85,1.15,1.06-8.74,1.21-17.08,1.12-25.41.67.31,1.67,1.17,2.2.94s1.37-1.51,1.6-2.23c4.82-15.23-.21-32.2,4.85-51.1.2-.76.92-1.27,1.5-1.62l33.62,14.12,1.74,20.26,1.44,32.68c.09,1.97,1.82,4.23-.75,6.32,4.04,8.55,6.42,17.92,5.44,27.99,4.23,1.77,6.72,4.93,9.85,7.81,5.01,4.62,8.65,9.96,10.58,16.61,3.65,1.4,7.28,2.93,9.79,5.88,7.39,8.72,13.34,17.76,18.25,27.97,4.57,9.49,6.3,19.77,9.89,29.75,3.83,10.65,5.88,36.02,6.78,50.3l1.41,22.29ZM250.37,203.32c1.51-3.69-7.3-1.85-10.65,3.01,4.11-.09,7.68-.9,10.65-3.01ZM265.19,228.45c1.45-6.54-1.41-11.97-3.17-17.58-2.81,1.33-4.71,1.86-5.81,3.46,4.44,4.35,5.31,9.58,8.98,14.13ZM274.06,260.08c.63-1.22,1.03-2.98.8-4.32-.14-.79-2.03-1.56-2.67-.86l.49,7.84,1.38-2.67Z"/>
    <path class="cls-5" d="M94.33,504.11c1.47,2.19,4.25,3.16,7.03,3.66,12.4,2.23,22.43,7.83,24.45,19.99-12.01,13.26-18.29,41.33-19.24,59.66-.77,14.87-.36,29.01.92,43.75l3.1,35c-5.78-1.32-11.81-2.7-17.36-5.09-2.09-.9-3.03-1.26-5.92-3.43,2.54,9.06,16.99,15.8,27.17,16.16.33,7.17,1.17,14.38,3.59,20.97-9.89-2-20.86-5.51-29.09-12.05-9.58-7.61-16.92-16.96-22.83-26.9l2.24,1.04-2.63-88.23-1.84-12.83c-.83-5.76-1.32-15.56.23-18.91l5.25-11.36c1.22-2.64,2.96-4.69,1.92-7.43.82-.97,1.41-2.84,1.48-4.06,6.59-4.99,13.6-10.05,21.56-9.93Z"/>
    <path class="cls-5" d="M76.96,421.21c6.34-.32,12.99,1.89,18.74,3.89.18,1.01,1.52,1.3,2.32,1.81l12.68,8.12,7.34,7.4c5.21,5.25-3.5,6.84-8.92,17.43l-1.64,1.95c-4.56,5.41-9.69,10.47-14.06,16.13l-21.13,27.35-10.38,12.87c-.17,1.06-.1,2.4-.6,3.52-.24-.28-.92-.15-1.46-1.1-2.01,2.59-3.81,5.67-4.12,9.06l-8.7,13.37c-3.02,4.94-4.01,11.77-4.15,18.14l-1.48,69.73c1.1,1.86,2.46,2.82,2.49,4.59l-7.85-10.97c-3.68-5.42-4.94-11.39-4.93-18.18l.15-100.43c.01-8.64,2.69-16.78,4.33-24.97.96-4.77,7.96-6.83,9.64-10.59l1.75-15.6c1.27-11.32-2.34-18.73,3.59-16.35l3.01-1.95c2.26-5.36,5.26-10.55,9.9-13.02,1.43.98,3.1.89,5.04,1.37,2.09-2.87,5.31-3.42,8.46-3.58Z"/>
    <path class="cls-14" d="M353.07,481.82l.14,12.44c3.03,14.14,3.4,27.57,3.41,42.16l.1,91.99c0,1.41,1.25,2.4-.25,3.62-2.15-.17-6.55,6.6-7.62,10.54-.92.35-1.51-.09-2.15-.7.33-1.41-.02-2.4,0-4.14l.19-16.83c-.29-.32-.75-.67-.86-.73l-2.11,15.67-1.08,7.08c-.27-.55-.37-1.41-.9-1.7l-5.14,3.47-.12-25.97c.27-27.35,1.79-54.19-1.12-81.49l-5.73-23.02c-1.46-5.89-4.52-12.79-11.36-13.54-2.9-.32-7.03,2.25-8.86,3.82-1.26-1.59-.94-2.79-.64-4.01,11.53-14.22,12.75-15.61,30.17-16.76,8.1-.53,9.52,8.38,12.66,15.18.9-8.93-3.26-17.49-10.64-22.32-2.83.67-6.21,1.59-9.56.68l-9.38-2.53c.59-.09,1.59-.12,1.95-.68.27-.41.4-1.35.58-2.12,2.08-8.78-.63-17.74-7.33-23.51-12.65-10.88-21.12-4.07-26.17-9.42l.16-1.7c13.72-3.55,27.34-5.68,41.72-6.28,4.24-.18,6.66-6.7,9.93-9.39l6.99,32.87,2.99,27.32Z"/>
    <path class="cls-15" d="M223.81,125.33l.48,58.73c.08,8.33-.07,16.67-1.12,25.41,4.41.71,8.54,0,12.85-1.15l-3.32,7.24c-1.16,2.54-3.73,2.75-5.9,3.52l-4.7,1.68c-8.07.45-15.68,1.46-23.27,3.12.1-.38.34-1.62-.06-1.93-.35-.27-1.32-.42-1.9-.92,3.54-1.44,6.91-3.91,8.09-7.83l-11.39.06-1.49-29.7-1.14-51.26c-.16-7.02-.11-13.63,1.49-19.94,10.97,2.95,21.09,8.42,31.39,12.98Z"/>
    <path class="cls-5" d="M209.19,542.09c3.48,1.61,6.92,2.51,11.22,2.66l15.79.55c1.11,1.47-.89,4.47-2.61,5.33l4.25,1.45c-7.6,1.22-15.52.96-23.17-.44,3.33,2.51,6.48,1.96,9.32,3.19,1.74,14.87,1.25,29.71,1.74,44.95l.93,28.98.59,60.92.39,16.58c.79.46.93,1.64.48,1.57-.34-.05-1.43.13-1.45.55-5.31-.25-10.71-3.91-10.84-9.16l-1.77-70.56-.92-42.07c-.04-1.93.63-4.46-1.43-6.35l.35-27.43c.01-.96.95-2.05.57-2.45-2.45-2.53-7.31-3.19-5.31-9.23.75.71,1.33.71,1.86.96Z"/>
    <path class="cls-1" d="M249.16,354.18c.77,1.11,1.62,2.12,2.33,3.28l.94,1.8c-1.77.11-5,1.5-5.2,3.88-.38,4.47,6.52,10.62,4,17.83-3.16,9.05-4.27,17.83-3.95,27.54l.7,21.35c9.18-2.53,14.91,9.97,27.89,4.96h7.99s18.73-3.5,18.73-3.5c1.61-.3,3.05-.24,4.58.61,1.38-2.12,3.26-1.5,5.51-2.07l21.71-5.48c2.91-.73,6.95-3.09,6.92-5.92.54-.22.84-.12,1.3-.02-.02.86.24,2.08.48,3.18-3.27,2.69-5.69,9.22-9.93,9.39-14.38.6-28,2.73-41.72,6.28l-.16,1.7c-3.32,2.52-6.43.79-9.83,2.89-1.3-1.95-2.92-1.52-4.96-1.49-7.18.1-12.77,3.16-17.21,8.12l2.26,7.13c3.72,5.54,11.44,6.27,17.32,5.63,1.41-.15,3.17,1.65,4.43,1.38l1.75-.37c.54-.12,1.12.85,1.44,1.3-6.07,5.14-11.79-.08-19.91,10.12-2.29,2.88-4.03,5.28-3.69,9.4l-.53,2.41c-.15.68-2.11.66-2.74.99-.12,2.77-1.16,5.6-3.53,7.12-.38-.85-.47-1.51-.52-1.89-.05-.41-1.2-.81-1.56-.29l-2.31,4.57c-2.56-1.47,3.09-5.23,3.82-11.97-1.86.08-1.18,2.3.03,1.7.56.27,1.23-.03,1.49-.64l1.14-24.68c.18-3.88-1.61-7.72-.19-11.79.83-2.38-7.53-2.91-8.33-9.1-5.17,7.33,6.66,11.62,6.06,15.09-5.39,2.98-10.61,6.13-16.44,7.51-.68-.05-1.57.62-1.95,1.2-1.72-.91-2.31-2.92-2.36-4.72.61-.02.78-.58.93-.76.93-.17,1.36.09,1.55.72s.44,1.01.22,2.37l4.51-1.29c.08-.63,1.02-2.4-1.04-2.83,1.96-2.88,1.81-5.77,1.72-9.58-.46-18.42-.57-36.36-1.96-54.24,5.79-3.24,9.13-10.09,8.66-16.64-.78-.06-1.62.75-1.87.5l-.74-.75c-.33-.76-.76-1.76-1.32-2.35-.83-.86-1.36-.2-2.3.15.4-.66,1.71-1.46,1.26-2.08l-1.35-1.87c-1.93-2.67-.5-6.27,1.68-9.33-1.72-1.39-3.26-1.72-5-2.09l1.88,15.69c-1.56,2.2-4.27,2.67-6.64,3.65.55-1.47,1.53-2.76,1.46-4.4l-.97-22.09c-.04-.81,1.1-1.79,1.63-1.7,1.44.23,4.02,8.16,11.91,4.48Z"/>
    <path class="cls-14" d="M365.59,630.64c-.61-.04-1.04-.56-.91-.73.29-.37,1.06-1.12,1.63-1.5l-2.52-105.16c.66-5.38-1.3-9.47-4.6-12.73,1.98-5.3,1.29-10.63.18-15.73-1.01-.72-2.75-1.79-2.83-2.88-.24-3.6.06-6.8.63-9.83l4.95,1.85c2.47.92,7.49,2.16,8.26,5.39,2.86,12.12,2.97,24,3.5,36.3l2.11,48.65,1.25,32.14c.39,10.08-2.83,20.15-11.66,24.23Z"/>
    <path class="cls-14" d="M213.14,586.59l.92,42.07,1.77,70.56c-.39-.46-.52-1.5-.38-2.23-3.73-3.15-8.67-2.65-13.18-2.52-.24-.38-.85-.79-.84-1.53.66.03,1.77.13,2.45-.57-1.78-1.19-3.54-1.01-5.13-1,.13-1.36-.42-2.89-1.66-4.06-5.96-5.59-11.84-11.83-19.64-14.72-7.91-2.93-15.59,1.3-21.4,6.38-1.15,1-5.71.54-4.79,11-1.09.62-2.8.89-4.09.06-2.82-1.81-2.28-11.92-.46-16.31.94-2.26,4.24-3.5,6.62-4.02l19.16-4.18c3.34-.73,8.4.85,11.15,2.19l5.37,4.23c3.03,2.38,6.06,6.54,8.96,9.38.53.52.32,1.92,1.98,2.62l9.35,3.97c.91-.04,1.02-1.21,1.07-1.63l.39-3.69-.42-45.59-.4-3.81-2.68-40.98-1.53-26.19-.38-12.41c-.13-4.45-.98-9.11-3.09-12.47l-.13-3.24c2.13,5.74,5.39,9.63,6.13,16.61l2.82,26.63c.21,1.95.83,4.26,2.05,5.44Z"/>
    <path class="cls-11" d="M232.65,555.01c1.12,8.83.67,17.52.85,26.68l.74,37.91.66,21.56.74,58.89-.31,8.73-8.65-.41c.01-.42,1.11-.6,1.45-.55.45.07.31-1.1-.48-1.57l-.39-16.58-.59-60.92-.93-28.98c-.49-15.24,0-30.08-1.74-44.95,2.46,1.07,5.93.34,8.66.18Z"/>
    <path class="cls-1" d="M357.19,482.08c-.57,3.03-.87,6.23-.63,9.83.08,1.09,1.82,2.16,2.83,2.88,1.11,5.11,1.8,10.44-.18,15.73,3.3,3.26,5.26,7.36,4.6,12.73l2.52,105.16c-.57.38-1.34,1.13-1.63,1.5-.14.17.3.69.91.73-2.84,1.31-6.02,1.62-9.11,1.38,1.5-1.21.25-2.21.25-3.62l-.1-91.99c-.02-14.59-.39-28.01-3.41-42.16l-.14-12.44c1.22,1.52,3.08-.13,4.12.26Z"/>
    <path class="cls-6" d="M53,567.17l-3.01,66.24c-.91,1.04.33,3.52-1.63,4.34-.66.27-1.41-.03-2.07.11-.76-.55-2.39-1.43-2.4-2.38-.03-1.77-1.39-2.73-2.49-4.59l1.48-69.73c.13-6.37,1.13-13.19,4.15-18.14l8.7-13.37-1.54,17.4c-.44,4.96.61,9.63-.14,14.04l-1.04,6.08Z"/>
    <path class="cls-1" d="M252.24,545.76l-.1,32.64.15,20.03c.97.33,1.7.64,2,1.09.6.89-.34,2.66-.36,3.61l-.96,58.8c2.58.53,5.22.4,7.08-.82.19-.25.7-.2.66.18,3.3,1.59,7.22,1.71,10.81,2.27.22.33.63.58.75,1.33l-4.23.44c-2.32-1.46-6.06-1.6-8.61.02-2.92,1.85-5.26,5.09-5.46,8.53l-.77,13.3c-.14,2.44-1.33,5.73,1.45,6.62.11.55-.54,1.03-.82.85l-1.17-.73-1.9,6.35c-2.21-6.49-1.8-13.82-1.89-21.29l-.62-51.15-.61-47.79-.79-28.65c-.62-.62-1.39-1.09-1.84-1.38l7.25-4.26Z"/>
    <path class="cls-11" d="M63.89,555.8l1.84,12.83,2.63,88.23-2.24-1.04c-2.32-3.9-6.27-8.41-6.38-12.86l-.63-26.07c-.16-6.81-.09-13.86.05-20.87l.45-25.93c-.12-.33.13-.65.17-.87,1.02-.09,2.01.12,2.5-.94.43-.93.28-1.68.25-2.75l-.25-9.31c.09-.32,1.29-.41,1.6-.43Z"/>
    <path class="cls-1" d="M183.42,663.27l5.59,8.66-5.37-4.23c-2.74-1.34-7.81-2.92-11.15-2.19l-19.16,4.18c-2.38.52-5.69,1.77-6.62,4.02-1.82,4.39-2.36,14.5.46,16.31,1.3.83,3,.57,4.09-.06,2.14,1.35,4.94,1.6,8.09,1.58l39.4-.19c1.59,0,3.35-.19,5.13,1-.68.7-1.79.6-2.45.57-.87-.03-2,.02-2.81.88h-52.2c-.52-.76-1.13-.71-1.55.03-.15.26-.49.4-.36.86l-3.18-.11c.15-3.92.35-8.22-.48-12.13l.81-12.79c.05-1.37.58-2.23,1.69-2.72l17.46-3.06,11.16-1.9,8.7.25c1.24.03,1.82.81,2.74,1.04Z"/>
    <path class="cls-9" d="M234.44,130.05c-.57.35-1.29.87-1.5,1.62-5.07,18.91-.04,35.87-4.85,51.1-.23.72-1.07,2-1.6,2.23s-1.53-.63-2.2-.94l-.48-58.73,10.64,4.71Z"/>
    <path class="cls-11" d="M119.05,672.59c.11-.23.42-.34.6-.33-.05.83.81,1.61,2.12.94,1.83,2.37,2.6,6.41,5.4,8.32,2.56,1.28,7.73.65,8.32,4.12l1.59,9.75c-6.37.11-12.73.67-19.02-.61-2.42-6.59-3.26-13.8-3.59-20.97.73-1.37,2.46-1.92,4.58-1.22Z"/>
    <path class="cls-14" d="M268.04,665.35c2.14,1.35,4.4,3.87,4.33,6.34-3.27-1.05-8.76-1.42-10.8,2.25l-2.15,11.85c-.13.73-1.81,1.35-1.83,1.91-.04.78,1.52,1.06,2.18,1.35,5.27,2.3,14.38,2.76,20.55,2.93.5,1.56,1.48,2.26,2.55,2.38-.52.62-.07,1.25.6,1.17.52-.06,1.11-.26,2.41.29-1.09,1.27-2.56.2-3.46.13l-27.76-2.12c-2.78-.9-1.59-4.19-1.45-6.62l.77-13.3c.2-3.44,2.54-6.68,5.46-8.53,2.55-1.62,6.28-1.48,8.61-.02Z"/>
    <path class="cls-14" d="M343.29,655.05c.41,7.23-1.48,13.82-6.23,19.19-.28-.99-.1-2.02-1.01-3.01-.89,1.15-.24,1.81-.11,2.35.11.43-.46.89-.96.79.11-1.93.73-4.72-.09-6.88-6.02.77.2-5.57-2.05-14.47-1.73,1.13-2.5,2.18-3.34,3.11-.45-1.16-1.43-1.19-2.17-1.1,3.77-2.96,3.59-5.7,6.06-5.84,3.42-.19,6.23-3.03,9.26-4.83l.61,10.68Z"/>
    <path class="cls-6" d="M140.86,682.46c.83,3.92.62,8.22.48,12.13l-4.25.78-1.59-9.75c-.59-3.47-5.76-2.83-8.32-4.12-2.8-1.91-3.57-5.94-5.4-8.32-1.32.67-2.18-.11-2.12-.94,6.84.29,13.65-.3,20.7,2.04-.07,2.81-.03,5.59.52,8.17Z"/>
    <path class="cls-1" d="M337.06,674.24c-2.25,6.21-7.72,10.52-13.84,13.54-11.8,7.51-25.01,11.56-38.78,10.5-.89-.07-2.24-1.59-2.03-2.33.91.07,2.38,1.14,3.46-.13-1.3-.55-1.89-.35-2.41-.29-.67.08-1.12-.55-.6-1.17l3.55.31,10.36.12c8.97.11,23.11-7.7,32.27-13.44,2.79-1.75,4.7-4.46,5.95-6.97.49.1,1.07-.36.96-.79-.14-.54-.78-1.21.11-2.35.9.99.73,2.02,1.01,3.01Z"/>
    <path class="cls-11" d="M146.99,130.65c.27.03.68-.09.77-.31.02.92.76,1.16,1.28,1.27l6.63,42.11c.22,1.37,2.17,2.59,1.35,4.34-.42.9-.43,2.74-2.94,2.95l-7.29-40.29c-.65-3.58-1.06-7.02.19-10.08Z"/>
    <path class="cls-9" d="M59.35,419.86c.27,1.65,3.06.4,4.11,3.56-4.63,2.46-7.64,7.65-9.9,13.02l-3.01,1.95c-2.96-4.97-3.27-11.57-1.09-16.8,1.28-.24,2.23,1.41,3.53.4,1.87-1.45,4.31-1.73,6.36-2.13Z"/>
    <path class="cls-1" d="M346.72,641.86c-1.31,5.62-1.41,8.92.54,6.63l-2.71,8.7c-1.74-.9-.36-2.37-1.25-2.14l-.61-10.68c-.03-.58.11-1.03.17-1.46l1.08-7.08,2.11-15.67c.12.06.57.41.86.73l-.19,16.83c-.02,1.74.33,2.74,0,4.14Z"/>
    <path class="cls-6" d="M242.71,697.97l.58,2.46c.49,2.09-.64,4.46-1.35,7.01-2.18.06-4.04,1.48-6.61,1.35l.31-8.73c.46-.26.46-1.5.62-1.9,1.9-.33,4.67-.41,6.46-.19Z"/>
    <path class="cls-4" d="M57.71,641.12c.1.11.1.46-.08,1.02-3.93-.98-8.3-2.08-11.34-4.27.65-.15,1.41.16,2.07-.11,1.96-.82.72-3.3,1.63-4.34,1.1,1.2,1.21,2.7.57,4.21,3.24-1.54,2.71-7.84,5.64-9.97l.8,1.83.72,11.63Z"/>
    <path class="cls-3" d="M59.12,616.89l.63,26.07c-1.98-.24-.39-1.97-2.04-1.84l-.72-11.63-.8-1.83,1.03-1.45c-1.09-2.42-2.03-5.45-1.01-8.34.39-1.09,1.86-1.19,2.91-.98Z"/>
    <path class="cls-4" d="M201.44,692.93c-.02.75.6,1.15.84,1.53l-20.86.62c-5.33.16-10.76.19-16.06.07l-20.85-.45c-.13-.45.22-.6.36-.86.43-.74,1.03-.8,1.55-.03h52.2c.81-.87,1.94-.92,2.81-.89Z"/>
    <path class="cls-7" d="M342.61,418.45c-.46-.11-.76-.21-1.3.02l-.19-18.63c-.03-2.86.61-8.18,1.36-7.82l.36,16.29-.23,10.14Z"/>
    <path class="cls-4" d="M250.75,700.28c-1.99,3.59-4.76,7.04-8.81,7.15.71-2.54,1.84-4.92,1.35-7.01,3.44.55,6.35-2.7,6.26.61-.01.36.99-.57,1.2-.75Z"/>
    <path class="cls-4" d="M348.86,642.56l-1.61,5.93c-1.95,2.29-1.85-1-.54-6.63.64.61,1.22,1.05,2.15.7Z"/>
    <path class="cls-11" d="M166,354.65l.85,1.68,8.54,14.97-9.98,42.23-3.63,9.15-41.07-7.52c-6.72,2.05-12.39,1.28-19.08,2.5.29-1.01.83-2.02.91-3.16.52.09,1.47-.19,1.49-.72l.09-2.01c2.62-13.74,7.37-26.45,13.81-38.75l8.26-15.77,11.58-19.64c-.78-2.68-2.39-4.54-4.19-6.41,2.34-.46,3.98-.18,5.97.76l.29-2.86c1.14,5.99,3.2,10.69,8.06,15.06,4.14,3.73,7.86,7.49,13.76,8.55,1.54.28,3.12,1.23,4.34,1.94Z"/>
    <path class="cls-15" d="M178.97,363.44l2.91,5.58,1.29-3.19c.29.04,1.04-.16,1.09-.59.04-.34-.02-.94-.56-1.58,3.91.95,7.25,2.17,11.03,2.42-2.32,1.44,3.97,2.63,8.09,6.26-.62,1.64.16,2.73.57,3.56.82,1.67.2,5.21.05,7.1-1.45-.14-1.48,1.38-.42,2.3,1.54,3.59,2.59,6.3,2.69,10.03.23,7.7.75,15.05-.36,22.34-.16,1.07-.93,2.07-.78,3.21-3.48,3.42-9.15,4.81-13.6,5.85.02-2.92,2.55-4.86,3.82-7.53,2.55-5.37,1.74-11.69-.1-17.3l-8.47-25.83c-.15-.47-1.35-1.18-1.75-1.17s-1.08,1.11-1.08,1.72l.09,17.36c1.54,10.66.5,21.16-.8,31.76-2.07-.19-4.44.69-5.97,1.82-.85.5-1.84.9-2.6.34-.66-.49-1.42-2.02-1.92-2.68l-10.41-2.55,3.63-9.15,9.98-42.23-8.54-14.97c3.69,3.09,8.33,4.42,12.12,7.11Z"/>
    <path class="cls-11" d="M204.67,227.01c1.04,2.77,4.95,3.06,7.23,4.57,2.88,2.83,1.01,9.1.76,12.71,1.28,1.53,2.79,0,3.81,1.17-3.35,2.02-7.02,3.76-9.7,6.65-4.6,4.98-6.01,12.28-4.9,18.76l4.88,28.28,7.23-.54c1.99,5.32-.3,11.01-5.4,13.05-1.34.53-2.73.39-4.31,1.58-2.05,1.55-4.48,2.95-6.97,3.32-1.68-.72-3.04-1.47-3.91-3.57,2.64-1.14,2.33-3.31,2.32-5.95l-.19-61.74c-.02-8.06-3.75-13.89-11.81-15.51-1.38-.28-3.31-1.56-4.17-2.55.66.09,1.22.12,1.65.58.28.3,1.17-1.11,1.49-1.71,6.65.64,14.17.45,21-.04.37.74.71.9.96.94Z"/>
    <path class="cls-15" d="M181.14,270.05c-4.82-2.53-8.44,4.98-18.5,4.05.09-.86.76-1,1.73-.81,3.82.07,6.7-3.29,7.75-5.97,1.29-3.28,1.15-8.79-1.9-9.68l-6.04-1.76c-2.31-1.71-5.92-.33-8.62-.8-.75-1.14-2.08-.46-2.05-1.56l11.57-.49c.77-.85,1.3-2.64.93-3.19-1.1-1.63-15.25-2.38-22.52,1.5-1.06-2.33.44-5.27,3.03-5.94,11.16-2.9,23.14-1.18,33.64,3.68,2.81,1.3,4.91,3.83,3.79,6.64-.51.47-2.32.29-3.71.05l2.9,8.5c1.14,2.52-.3,4.64-1.99,5.78Z"/>
    <path class="cls-11" d="M196.59,336.69c-.13,1.79-2.54.71-3.2,1.2-1.62,1.2-1.61,6.35-.03,7.54,2.76,2.07,6.46,1.13,9.05,2.66l6.27,3.68.13.72c.35,1.95.36,5.05-1.02,7.51-2.44,4.35-8.33,6.4-13.05,6.08-3.78-.25-7.12-1.47-11.03-2.42,5.37-1.61,7.93-5.37,7.33-11.31-.15-1.49.04-3.94-.92-5.22-.7-.95-3.37-1.1-4.47-2.17-1.73-3.94,3.17-8.24,7.38-8.25h3.57Z"/>
    <path class="cls-9" d="M197.32,316.56c2.49-.37,4.92-1.77,6.97-3.32,1.58-1.19,2.97-1.04,4.31-1.58.15.99-.74,1.34-.38,3.19,1.98-1.89,4.14-.77,6.38-1.03,2.89-.34,5.57-2.46,7.98-1.61,1.43,3.41,2.52,7.26,1.99,10.83-4.1,3.06-7.88,7.33-9.83,12.04-1.7-1.35-3.59-1.09-4.94.09l-4.27-.82-1.37-.49-1.76.87c-.79.39-1.26-1.37-1.04-1.67.71-.99,3.39.36,3.52-1.2,4.08-.16,9.29-5.99,7.51-9.89-3.96-3.39-10.96-1.59-15.03-2.74-3.29-.93-5.67-3.81-8.19-5.71l-6.82-5.16c4.71-1.91,8.89,9.1,14.97,8.2Z"/>
    <path class="cls-3" d="M227.76,224.57c-2.75,1.74-5.93,1.57-8.84-.44l-14.25,2.89c-.25-.04-.59-.21-.96-.94-6.83.49-14.35.67-21,.04-.32.6-1.21,2.01-1.49,1.71-.43-.45-.99-.49-1.65-.58l-18.44-2.42c-1.23-.14-.99-1.09-.29-1.07l8.45-.17c1.23-.03,2.2-.4,2.39-1.32,1.63.24,2.78.45,4.15.55l8.09.59c4.95.36,10.02,1.56,14.91.49,7.59-1.67,15.21-2.67,23.27-3.12l4.7-1.68c1.61,1.28,3.48,1.73,5.67,1.15l17.61-4.65c1.81-.48,3.47-1.95,5.25-1.37.03.03-.12.66-.33.95l-24.16,6.64-2.15.8c-.74.27-1.23,1.11-.93,1.97Z"/>
    <path class="cls-7" d="M204.88,331.87c-5.66.22-11.21.32-16.86-.43l-2.63.48c-.81.15-1.71.08-1.42,1.48-1.61-.37-3.07.54-4.66.91-1.7.41-2.88-1.22-2.44-1.93l12.78-3.14c2.29-.56,5.02-.5,7.68-.85,2.07-1.9,1.29-6.97.03-9.16,4.07,1.15,11.06-.65,15.03,2.74,1.78,3.9-3.43,9.73-7.51,9.89Z"/>
    <path class="cls-4" d="M125.06,294.59c-2.31-.18-3.59-.44-4.69-2.5l-1.76-4.73c1.12-1.76-.72-4.99.28-6.29,1.53-1.91.46-4.26-.38-6.45-1.61-4.17-2.82-8.53-5.85-11.46-2.34-6.39-1.67-16.57,3.28-20.41.64,1.5-.15,2.53-.9,3.47,1.39,4.04,3.34,8.07,3.7,12.54.99,12.29,2.25,24.4,6.34,35.83Z"/>
    <path class="cls-15" d="M102.55,414.5c-.08,1.14-.62,2.15-.91,3.16-2.25.41-4.82.43-7.44.11-6.9-.84-13.45.23-19.86.29-5,.04-10.02.83-14.98,1.8-2.04.4-4.48.68-6.36,2.13,9.87-11.8,33.22-9.86,49.55-7.49Z"/>
    <path class="cls-6" d="M209.8,335.18c-.99,5.38-2.1,11.18-1.12,16.58l-6.27-3.68c-2.59-1.53-6.29-.59-9.05-2.66-1.58-1.19-1.59-6.34.03-7.54.66-.49,3.07.6,3.2-1.2,1.66,0,3.44-.71,5.02-1.11l3.92-1.22,4.27.82Z"/>
    <path class="cls-6" d="M139.45,325.37l14.08,16.36c3.55,4.13,7.6,7.21,11.39,10.54l1.09,2.38c-1.22-.71-2.8-1.66-4.34-1.94-5.89-1.07-9.62-4.82-13.76-8.55-4.86-4.37-6.92-9.07-8.06-15.06l-5.22-7.91c-1.19-1.8-2.98-3.75-2.2-6.82,1.98,4.12,4.19,7.72,7.02,11.01Z"/>
    <path class="cls-14" d="M181.14,270.05c-3.16,7.97-12.48,11-21.14,7.73-1.09-.41-.68-1.64.21-2.43.74-.65,1.29-1.37,2.43-1.26,10.06.93,13.68-6.58,18.5-4.05Z"/>
    <path class="cls-11" d="M197.36,319.23c1.25,2.18,2.04,7.26-.03,9.16-2.66.35-5.39.29-7.68.85,2.89-3.63-1.16-8.92-.47-15.72,2.51,1.9,4.9,4.78,8.19,5.71Z"/>
    <path class="cls-15" d="M171.68,222.25c-.2.92-1.17,1.29-2.39,1.32l-8.45.17c-.7-.01-.93.94.29,1.07-.53-.07-1.69.63-2.01.27-.24-.27-.66-1.59-1.12-1.69l-21.84-4.94c.12-1.12-.48-1.54-.68-2.27l9.67,2.14,26.53,3.93Z"/>
    <path class="cls-14" d="M118.61,287.36c-1.18-3.17-.91-6.48-3.86-9.17-1.37-1.25-.33-4.34-.85-5.67-1.64-4.15-3.33-7.81-1.25-9.37,3.03,2.93,4.24,7.29,5.85,11.46.85,2.19,1.91,4.54.38,6.45-1,1.31.84,4.53-.28,6.29Z"/>
    <path class="cls-2" d="M125.06,294.59c3.84,10.74,7.66,21.48,14.39,30.78-2.83-3.29-5.04-6.89-7.02-11.01-.79,3.07,1,5.02,2.2,6.82-2.68-1.49-2.74-4.68-3.74-7l-4.89-11.27c-.7-1.61-4.09-6.68-5.63-10.82,1.11,2.06,2.38,2.32,4.69,2.5ZM125.09,300.05c-.1.69.71,1.36.96,1.19.33-.22.4-.89.31-1.19-.16-.57-1.17-.74-1.27,0Z"/>
    <path class="cls-7" d="M153.51,253.51c-.03,1.09,1.3.41,2.05,1.56,2.71.47,6.31-.92,8.62.8-7.78.31-15.55-.04-16.16,6.44-1.92-.11-4.17-3.27-2.99-5.23,1.63-2.72,5.68-3.45,8.48-3.56Z"/>
    <path class="cls-14" d="M204.88,331.87c-.14,1.57-2.81.22-3.52,1.2-.22.3.26,2.06,1.04,1.67l1.76-.87,1.37.49-3.92,1.22-17.64-2.19c-.29-1.4.61-1.33,1.42-1.48l2.63-.48c5.65.75,11.2.65,16.86.43Z"/>
    <path class="cls-1" d="M166.72,268.08c-1.57,1.64-5.35.87-5.65-1.32-.24-1.82-.4-4.78.73-5.96,1.21-1.26,3.86-.02,4.69.99,1.15,1.42,2.19,4.24.23,6.28ZM162.96,263.75c-.02-1.46-1.3-1.13-1.26-.81s.11,1.06-.07,1.63c-.09.3,1.36.81,1.33-.82ZM162.74,266.47c-.44.8.49,1.44,1.11,1.08.27-.16.36-.51.13-.87-.16-.24-.73-1.14-1.25-.21Z"/>
    <path class="cls-1" d="M135.48,216.18c.2.73.8,1.15.68,2.27-5.15-1.17-11.27-2.32-15.47-7.39,5.96-.43,9.97,4.05,14.79,5.12Z"/>
    <path class="cls-6" d="M196.86,221.02c.58.5,1.54.65,1.9.92.4.31.16,1.55.06,1.93-4.89,1.07-9.97-.12-14.91-.49l-8.09-.59c5.05-2.09,13.83,1.15,21.04-1.78Z"/>
    <path class="cls-12" d="M179.31,362.4c-.06.34-.11.7-.34,1.04-3.79-2.69-8.42-4.03-12.12-7.11l-.85-1.68-1.09-2.38,2.8,2.46,11.59,7.67Z"/>
    <path class="cls-1" d="M183.17,365.83l-1.29,3.19-2.91-5.58c.23-.34.28-.7.34-1.04,1.52,1.01,4.44.67,3.86,3.43Z"/>
    <path class="cls-6" d="M307.17,431.93c-1.54-.85-2.97-.91-4.58-.61l-18.73,3.49h-7.99c-2.85-3.51-4.36-7.55-4.49-12.31l-1.47-54.34-.25-12.87c-.06-3.09,3.62-6.01,3.77-9.32l.66-14.72c4.75-5.96,9.71-11.23,16.03-16.1,20.48,32.48,21.87,73.1,25.1,111.45-3.78.63-6.79,2.11-8.05,5.34Z"/>
    <path class="cls-6" d="M245.19,258.14c-2.72,4.66-5.17,10.2-10.97,12.6-2.01.83-5.4-.38-6.46,2.59l10.15-1.57c5.73-2.04,10.23-7.1,12.19-12.37.14-.16,1.12-.31,1.48-.04l1.9,6.53-.04,32.12c0,6.83.05,13.19-3.21,18.76,1.68-.11,2.14.42,2.36.97l-1.33.38c-8.63-4.1-19.03-.75-26.68,4.95.53-3.57-.57-7.42-1.99-10.83,2.34-7.88-.72-15.63-7.13-20.76-1.57-6.08-2.08-12.56-1.44-19.22,4.68,1.15,8.1,1.34,12.35.94.93.3,1.42-1.16.16-1.35,7.58-2.41,14.37-11.38,9.7-17.44,1.54-1.67,3.87-1.06,5.94.5,1.07-.39,3.03.16,2.77,1.06s-.6,1.54-1.38,2.82c.46.44.67.07.66-.18-.01-.52.61-.92,1-.47Z"/>
    <path class="cls-11" d="M254.22,317.81c1.77.89,3.97,1.37,5.1,3.26-2.37,12.06,5.69,14.94,6.92,21.53.51,2.75.84,6.51-.59,8.95-1.85,3.15-5.81,3.88-8.9,5.26-2.14.96-3.17,1.8-5.26.65-.71-1.16-1.56-2.18-2.33-3.28-2.82-4.07-3.93-7.84-1.11-9.16,2.97-1.4,7.95,4.86,10.13,2.4,1.36-1.53.91-6.78-.74-8.19-4.55-3.9-11.68-3.46-16.86-1.37-1.16-4.23-9.17.87-11.74,9.05-1.75,5.56-2.26,11.13-1.56,17.04.63,5.37.66,10.6.53,15.66-2.03.32-5.13.16-6.51-1.36-.66-10.08.14-19.92,1.97-29.31,3.18-16.35,12.89-21.98,28.92-24.8.4-2.34-.32-4.31-.94-6.03l1.33-.38c.5-.14,1.16-.16,1.65.09Z"/>
    <path class="cls-1" d="M260.84,321.19l-1.52-.12c-1.13-1.89-3.33-2.37-5.1-3.26,2.78-2.06,5.14-5.28,6.76-8.94,6.48-14.71,11.39-29.73,15.84-45.41-.4-9.31-1.33-17.88.03-27.12l5.52,8.08c2.16,14.25-.64,28.15-5.82,41.24l-6.12,15.44c-2.78,7.03-5.51,13.92-9.59,20.09Z"/>
    <path class="cls-6" d="M227.76,224.57l3.6,6.64c1.5,2.73,1.72,9.38-1.79,10.65-4.64,1.69-9.31,1.32-13.09,3.61-1.02-1.16-2.53.36-3.81-1.17.24-3.61,2.12-9.88-.76-12.71-2.28-1.51-6.19-1.79-7.23-4.57l14.25-2.89c2.92,2.01,6.1,2.18,8.84.44Z"/>
    <path class="cls-7" d="M260.84,321.19c5.39,4.32,10.04,9.91,10.82,17.11.97,8.92-2.35,17.65-11.16,20.47l-8.07.49-.94-1.8c2.09,1.15,3.12.31,5.26-.65,3.09-1.39,7.05-2.11,8.9-5.26,1.43-2.44,1.1-6.21.59-8.95-1.23-6.58-9.28-9.47-6.92-21.53l1.52.12Z"/>
    <path class="cls-13" d="M249.42,248.94c.29,2.18-.96,3.61-1.94,5.3l-2.28,3.9c-.4-.46-1.02-.06-1,.47,0,.25-.21.63-.66.18.78-1.28,1.12-1.9,1.38-2.82s-1.7-1.46-2.77-1.06c-2.08-1.56-4.41-2.17-5.94-.5-6.45-.59-12.74,1.45-18.47,4.6-1.03-.27-1.54-1.03-2.18-1.36-.17-.66-.11-1.74-1-2.35,1.05-2.12,3.01-3.73,5.32-4.74,9.58-4.22,19.95-4.91,29.56-1.61ZM246.23,253.5c1.21-.84,2.01-2.58,2.02-3.23-.35-.14-.78-.15-1.09-.05-.45.89-1.5,1.96-.93,3.28Z"/>
    <path class="cls-3" d="M206.78,252.11c.19,1.16.75,2.11,1.68,2.17,3.99.29,4.15,2,4.8,1.67l1.28-.66c.89.61.83,1.69,1,2.35.83,3.22-6.55,6.12-2.48,10.8-3.94-2.5-7.86,2.41-11.17,2.44-1.12-6.49.3-13.79,4.9-18.76Z"/>
    <path class="cls-4" d="M250.1,259.38c-1.96,5.27-6.47,10.33-12.19,12.37l-10.15,1.57c1.06-2.97,4.46-1.76,6.46-2.59,5.8-2.4,8.25-7.94,10.97-12.6l2.28-3.9c.99-1.69,2.24-3.11,1.94-5.3.93.32,1.64.52,1.29,1.67l-.65,2.11.04,6.66Z"/>
    <path class="cls-1" d="M265.19,228.45c-3.67-4.55-4.55-9.78-8.98-14.13,1.1-1.6,3-2.13,5.81-3.46,1.76,5.61,4.61,11.04,3.17,17.58Z"/>
    <path class="cls-8" d="M250.37,203.32c-2.97,2.11-6.54,2.92-10.65,3.01,3.35-4.86,12.16-6.71,10.65-3.01Z"/>
    <path class="cls-3" d="M274.06,260.08l-1.38,2.67-.49-7.84c.64-.7,2.53.07,2.67.86.24,1.34-.16,3.1-.8,4.32Z"/>
    <path class="cls-11" d="M160.82,663.89l-17.46,3.06-18.61.97c-5.18.27-9.66-.72-14.16-1.75l-3.1-35c-1.28-14.74-1.69-28.88-.92-43.75.95-18.33,7.23-46.4,19.24-59.66l6.66,39.94c3.69,22.14,9.15,43.21,15.87,64.47,2.87,9.1,6.12,17.38,10.69,25.64l1.8,6.07Z"/>
    <path class="cls-15" d="M105.4,504.27c6.52,1.2,12.85,3.82,19.5,6.28,3.54,5.21,5.11,10.85,6.19,16.94l5.92,33.55,4.4,20.62c2.96,13.85,5.23,27.59,11.44,40.4l19.13,39.92-11.16,1.9-1.8-6.07c-4.57-8.26-7.81-16.54-10.69-25.64-6.71-21.26-12.18-42.33-15.87-64.47l-6.66-39.94c-2.03-12.17-12.05-17.76-24.45-19.99-2.78-.5-5.56-1.47-7.03-3.66l11.07.16Z"/>
    <path class="cls-14" d="M109.83,464.61l-5.8,9.9c-3.15.67-4.26,3.28-4.95,6.6-2.61,12.57,1.96,14.79,12.93,21.13-2.12,1.14-4.49.95-6.61,2.03l-11.07-.16c-7.95-.12-14.97,4.94-21.56,9.93.12-2.12.43-4.24,2.25-5.99l9.27-8.93c3.17-3.05,8.37-2.15,12.73-2.93-2.47-2.9-6.2-5.13-5.05-8.51l3.86-11.34c-1.06-.12-.81.79-1.06.91l-1.36.68c4.37-5.65,9.5-10.71,14.06-16.13,1.2,1.19,2.33,1.24,2.35,2.81Z"/>
    <path class="cls-1" d="M72.77,514.04c-.07,1.22-.66,3.09-1.48,4.06l-1.22-1.63c-2.77,1.4-5.41,2.22-8.17,1.69l10.38-12.87,21.13-27.35,1.36-.68c.26-.12,0-1.03,1.06-.91l-3.86,11.34c-1.15,3.38,2.58,5.61,5.05,8.51-4.37.77-9.56-.13-12.73,2.93l-9.27,8.93c-1.82,1.75-2.14,3.87-2.25,5.99Z"/>
    <path class="cls-7" d="M71.29,518.1c1.04,2.73-.7,4.79-1.92,7.43l-5.25,11.36c-1.55,3.35-1.06,13.15-.23,18.91-.31.03-1.51.11-1.6.43l.25,9.31c.03,1.07.18,1.82-.25,2.75-.49,1.06-1.48.85-2.5.94,1.2-5.73-1.71-22.89,2.39-41.06.62-2.75,1.49-4.65-.87-6.48.5-1.12.42-2.47.6-3.52,2.76.53,5.4-.29,8.17-1.69l1.22,1.63Z"/>
    <path class="cls-14" d="M110.58,666.16c4.5,1.03,8.98,2.02,14.16,1.75l18.61-.97c-1.11.49-1.64,1.35-1.69,2.72l-.81,12.79c-.54-2.58-.58-5.36-.52-8.17-7.04-2.34-13.86-1.75-20.7-2.04-.18,0-.49.1-.6.33-.29-1.77-2.33-.82-3.32-1.05-7.71-1.76-14.56-4.67-21.32-8.27-.74-.4-1.05-1.72-1.18-2.19,5.55,2.4,11.58,3.77,17.36,5.09Z"/>
    <path class="cls-15" d="M93.23,661.07c.13.47.44,1.8,1.18,2.19,6.76,3.6,13.61,6.52,21.32,8.27.99.23,3.03-.72,3.32,1.05-2.12-.7-3.86-.16-4.58,1.22-10.18-.35-24.63-7.09-27.17-16.16,2.89,2.16,3.84,2.53,5.92,3.43Z"/>
    <path class="cls-14" d="M161.78,422.68l10.41,2.55c.5.66,1.26,2.19,1.92,2.68.76.56,1.75.15,2.6-.34,0,.36.11.9-.02,1.2-.19.43-1,.55-1.44.69-7.97,2.37-16.01,1.23-24.17-.26l-19.68-3.59c-9.62-1.75-19.09-1.02-28.33-1.34,1.11,1.17,1.86,1.05,1.79,1.8-2.03-.42-4.13-.23-6.62-1.37.51-1.61-.87-1.13-.84-.78.18,1.77-1.38,1.28-1.7,1.17-5.75-1.99-12.4-4.21-18.74-3.89.1-.78-.23-1.02-.57-1.21-.49-.27-1.64.34-1.72.35-.59-.96-.38-1.8-.34-2.29,6.42-.06,12.96-1.12,19.86-.29,2.62.32,5.19.3,7.44-.11,6.69-1.21,12.36-.45,19.08-2.5l41.07,7.52Z"/>
    <path class="cls-4" d="M196.48,451.37c-2.7-.89-5.81-1.01-9.1-.79-12.92.85-25.42.43-38.17.54-7.6.07-15.07-.72-21.98,1.53-1.17.38-1.94,1.64-3.1,2.19-4.26,2.03-8.44,3.44-11.58,6.6-.44-1.57-1.08-.44-1.49-.19-1.08.65-1.64,1.7-.1,1.92l-.38,1c-.1.25-.45.42-.75.44-.02-1.57-1.16-1.62-2.35-2.81l1.64-1.95c5.23-3.99,10.04-8.89,15.53-12,5.59-.41,11.14-5.47,19.59-4.65-.37,1.23-.87,2.19-.06,3.31.79,1.1.59,2.73,3.09,2.36-.7-1.88-.83-3.65-.93-5.59l13.55.24c10.74.19,38.24.74,38.79,1.84.33.66.49,2.61-.2,2.69l-2.9.34c1.07.76,1.35,1.94.89,2.98Z"/>
    <path class="cls-6" d="M104.86,426.07c8.98,1.87,18.06,3.39,26.94,6.45.65,3.61-.7,6.4-2.03,9.27l-1.02,1.37-4.1,4.68c-5.49,3.11-10.3,8.01-15.53,12,5.42-10.59,14.13-12.18,8.92-17.43l-7.34-7.4-12.68-8.12c-.8-.51-2.13-.8-2.32-1.81.32.11,1.88.6,1.7-1.17-.04-.35,1.34-.83.84.78,2.49,1.14,4.59.95,6.62,1.37Z"/>
    <path class="cls-3" d="M61.31,521.68c2.36,1.83,1.49,3.73.87,6.48-4.1,18.17-1.18,35.33-2.39,41.06-.05.22-.29.55-.17.87-.57-.25-1.71-.01-1.83.49-.25,1.03.15,2.17,1.01,2.59-.33,7.31.48,13.75-1.42,20.32l-.54,7.17c-.14.06-.57-.12-.56-.43l.73-32.25c.02-.99-1.42-1.9-2.01-2.04-.86-.2-1.35.49-2,1.23l1.04-6.08c.76-4.4-.3-9.07.14-14.04l1.54-17.4c.3-3.39,2.11-6.47,4.12-9.06.54.95,1.22.82,1.46,1.1Z"/>
    <path class="cls-3" d="M74.34,418.06c-.03.49-.25,1.33.34,2.29.08-.01,1.22-.62,1.72-.35.34.18.67.43.57,1.21-3.15.16-6.37.71-8.46,3.58-1.94-.47-3.61-.38-5.04-1.37-1.05-3.15-3.84-1.91-4.11-3.56,4.96-.97,9.99-1.76,14.98-1.8Z"/>
    <path class="cls-6" d="M336.81,644.69c-1.1-1.04-1.37.97-1.5,1.32-3.43-1.79-2.54-6.56-2.59-10.01-7.48-7.11-17.95-10.44-28.1-11.14-.68.44-1.56.72-2.02.57l3.8-41.32,1.44-22.2c.17-15.29.11-30.25-5.23-45.41-3.15,18.93-4.53,36.55-8.63,54.73-6.37,28.26-16.07,55.07-28.83,80.74-1.6,3.21-3.91,5.7-4.45,9.34.04-.38-.47-.43-.66-.18l.42-3.6-.97-29.96-.64-38.2c-.38-.77-2.33-1.69-1.68-3.12.27-.61.69-1.19.69-2.07l5.92-18.41c3.26-11.43,7.24-22.25,9.53-33.57l22.59-15.94,13.73-11.77c1.83-1.57,5.95-4.14,8.86-3.82,6.84.75,9.9,7.66,11.36,13.54l5.73,23.02c2.91,27.3,1.39,54.14,1.12,81.49l.12,25.97Z"/>
    <path class="cls-13" d="M322.25,474.73l-6.92-2.83-3.24-.73c-.9-.61-2.32-1.43-2.69-2.33-1.78-4.4-24.41-12.22-30.56-8.51-1.74-1.82-5.57-3.83-5.61-7.32-.06-4.83,4.97-9.11,8.21-11.11s6.51-.36,9.83-2.89c5.05,5.35,13.52-1.46,26.17,9.42,6.7,5.76,9.41,14.73,7.33,23.51-.18.76-.31,1.7-.58,2.12-.36.55-1.36.59-1.95.68Z"/>
    <path class="cls-1" d="M322.25,474.73l9.38,2.53c3.36.9,6.73-.01,9.56-.68,7.38,4.84,11.55,13.39,10.64,22.32-3.14-6.8-4.56-15.71-12.66-15.18-17.42,1.14-18.64,2.53-30.17,16.76-.24-.46-.86-1.26-.61-2.1,3.38-3.47,5.24-7.82,7.69-12.28,2.66-4.84,3.12-10.16-.74-14.2l6.92,2.83Z"/>
    <path class="cls-4" d="M309,500.48c-.31,1.21-.62,2.42.64,4.01l-13.73,11.77-22.59,15.94c-2,1.41-4.61,2.62-6.48,4.24l-.33-1.78c1.49-.18,1.83-2.07,2.67-3.18.3-.39,1.02-.65.61-1.63,2.19.23,3.6-1.74,5.26-3l16.05-12.16c5.86-4.44,11.04-9.65,14.94-15.42.76-.09,1.78-.31,2.35-.89-.25.85.37,1.65.61,2.1Z"/>
    <path class="cls-14" d="M342.85,642.91c-.07.44-.21.88-.17,1.46-3.03,1.81-5.84,4.64-9.26,4.83.58-1.02,1.71-1.68,1.9-3.2.13-.35.4-2.37,1.5-1.32l5.14-3.47c.53.29.63,1.14.9,1.7Z"/>
    <path class="cls-11" d="M236.59,510.28c2.12,1.03,3.1,3.41,5.1,4.79,5.55,1.52,8.76,5.59,8.25,11.43,3,6.83.51,14.18-5.09,18.67l-4.77,6.35c-.22-.61-.67-.47-.92-.18l-1.32.74-4.25-1.45c1.72-.86,3.72-3.86,2.61-5.33l-15.79-.55c-4.3-.15-7.74-1.05-11.22-2.66.1-.28.23-.69.08-1.49,9.09.92,26.13,2.08,26.08-3.86,0-1.08-1.25-2.21-2.35-2.55-1.04-.32-1.96.13-2.95.14-5.51.05-10.93-.46-16.19-1.56l-.83-1.82c-.16-.25,1.81-.77,2.25-.8l17.36-1.05c1.68-.1,2.27-2.94,1.54-4.43-10.19.16-20.64-.41-29.63-4.25.25-.76.14-1.15-.07-1.44,1.93-1.36,3.78-.65,5.93-.02,4.38,1.28,17.22,2.4,20.37,1.35,2.83-.94,2.53-5.52,3.91-7.83.67-1.13-1.44-1.31-2.25-1.08,1.06-.87,2.99-.8,4.16-1.11Z"/>
    <path class="cls-1" d="M201.11,522.4c-1.2,3.05,1.35,4.47,3.3,6.19,3.13,2.75,5.76,3.41,9.45,4.18,5.26,1.1,10.68,1.6,16.19,1.56-.34.24-1,1.29-1.31,1.66-7.96.4-16.35-1.97-24.14-4.43-1.07-.34-2.34,1.9-2.26,2.82.09,1.03.53,2.53,1.63,3.58l3.36,3.19c-2,6.04,2.87,6.7,5.31,9.23.39.4-.55,1.49-.57,2.45l-.35,27.43c2.06,1.88,1.39,4.42,1.43,6.35-1.22-1.18-1.84-3.49-2.05-5.44l-2.82-26.63c-.74-6.98-4-10.87-6.13-16.61-.2-5.23-3.4-9.9-2.12-12.31.8-1.5-1.37-4.96,1.07-3.19Z"/>
    <path class="cls-5" d="M230.05,534.32c.99,0,1.91-.45,2.95-.14,1.1.34,2.34,1.47,2.35,2.55.05,5.95-16.99,4.78-26.08,3.86.16.8.03,1.22-.08,1.49-.53-.25-1.11-.24-1.86-.96l-3.36-3.19c-1.11-1.05-1.54-2.55-1.63-3.58-.08-.92,1.19-3.15,2.26-2.82,7.79,2.46,16.18,4.83,24.14,4.43.31-.37.97-1.42,1.31-1.66Z"/>
    <path class="cls-12" d="M237.84,552.08l1.32-.74c-.31,1.07.51,2.25,1.74.8.08,1.41-.63,1.99-1.67,2.39-2.31-.8-4.47.35-6.58.48-2.73.16-6.2.89-8.66-.18-2.83-1.23-5.99-.69-9.32-3.19,7.65,1.41,15.56,1.67,23.17.44ZM231.18,554.2c-.35-.86-2.73-.86-4.23-.17,0,0,.23.19.46.59,1.15-.18,2.59.31,3.77-.43Z"/>
    <path class="cls-5" d="M251.24,318.1c.62,1.72,1.34,3.69.94,6.03-16.03,2.83-25.74,8.45-28.92,24.8-1.82,9.38-2.63,19.23-1.97,29.31,1.38,1.53,4.48,1.68,6.51,1.36l-.06,2.45c-4.64,3.36-7.04,8.03-7.28,13.27l-6.79-.59c2.14,1.37,4.47,2.46,6.79,2.78l1.28,12.72.68,55.18c1.76-1.71,3.37-2.08,5.27-1.99,3.05.15,6.52-1.75,7.26-4.79.05,1.8.64,3.81,2.36,4.72-.96.85-2.68,1.26-2.62,2.78.11,3.06-6.76,4.93-8.07,7.71-.81,1.71-1.47,4.8.6,5.45l2.93.91c1.01-.08,2.94-.3,4.21-.91l10.86-5.14,1.47-.66c-1.31,2.12-1.82,4.63-2.78,7.17-10.03,2.85-21.36,5.22-17.1,12.01l.04,1.93c0,.45-1.09,1.06-1.79,1.11l-17.87,1.2c-3.98.27-7.34-1.16-10.06-3.5l-3.39-6.68.91-4.67-1.41-6.63c-.15-5.64,2.31-13.18,7.12-16.5l10.08-4.28c.92-3.66.22-7.34.2-10.64l-.18-23.41-.76-26.04c-.02-.61.7-1.52.5-1.93-.53-1.13-5.15-2.22-6.79-9.61.16-1.89.77-5.44-.05-7.1.86-3.76,3.52-6.29,7.13-7.82l.05-14.77c.02-6.21,1.81-12.5,4.17-18.22,1.94-4.71,5.72-8.98,9.83-12.04,7.65-5.71,18.05-9.05,26.68-4.95Z"/>
    <path class="cls-14" d="M286.47,463.6c-.57.75-1.02,1.6-.72,2.13.4.72,1.71.41,2.2.61l19.44,7.85c1.41.57,2.22.3,3.42-.31.98-.5,1.5-1.13,1.28-2.71l3.24.73c3.86,4.04,3.4,9.36.74,14.2-2.44,4.45-4.3,8.81-7.69,12.28-.57.58-1.59.8-2.35.89l-4.52-8.63c-1.29-2.41-1.86-6.23-4.83-7.46-2.96-1.23-7.51.43-9.49,2.7l-8.15,9.15c-.15-.44-.24-.81-.79-.94-.46-1.89-1.85-4.62-3.37-5.56-.52-.32-1.8-1.33-2.52-1.19l-7.16,6.91-3.92-1.19c-.85,1.86-.11,3.45.43,5.08,2.34,7.08,4.32,14.81,3.89,22.42-.6-.05-1.2-.33-1.51-1.69l-2.86-12.36c-2.85-12.31-8.43-.49-24.63,3.79-1.17.31-3.09.24-4.16,1.11l-1.33.53c-6.21.33-12.48-1.31-18.83-3.16-.28-.18-.24-1.03-.14-1.48,14.21,2.75,33.21,1.25,39.53-11.26l2.31-4.57c.36-.52,1.52-.12,1.56.29.04.39.14,1.05.52,1.89,2.37-1.52,3.41-4.35,3.53-7.12.64-.33,2.59-.31,2.74-.99l.53-2.41c-.34-4.12,1.4-6.53,3.69-9.4,8.12-10.2,13.85-4.97,19.91-10.12Z"/>
    <path class="cls-6" d="M235.88,457.86c-.15.18-.31.75-.93.76-.75,3.04-4.21,4.94-7.26,4.79,2.02-.98,2.54-2.99,2.54-5.43l.16-46.96c.02-4.61-.68-8.75-2.6-12.52,2.76.38,5.61.12,8.86,1.48l1.08,35.74,1.03,18.18c.06,1.01-.02,2.34-.88,2.89-.51.32-1.2.12-2,1.07Z"/>
    <path class="cls-14" d="M249.16,354.18c-7.89,3.68-10.47-4.25-11.91-4.48-.53-.08-1.66.89-1.63,1.7l.97,22.09c.07,1.64-.9,2.93-1.46,4.4-1.21.5-2.12,1.6-4.24.87,2.41-9.83-1.03-18.73,1.33-29.66.93-4.31,4.48-9.68,8.36-11.24,5.18-2.08,12.31-2.52,16.86,1.37,1.65,1.41,2.1,6.67.74,8.19-2.19,2.46-7.16-3.8-10.13-2.4-2.82,1.33-1.71,5.09,1.11,9.16Z"/>
    <path class="cls-6" d="M240.58,337.85c-3.88,1.56-7.43,6.93-8.36,11.24-2.35,10.94,1.08,19.84-1.33,29.66,2.13.73,3.03-.37,4.24-.87,2.37-.97,5.08-1.45,6.64-3.65.52.04,1.02-.12,1.52-.31.95-.35,1.47-1.01,2.3-.15.57.59,1,1.59,1.32,2.35.35,5.31-1.92,10.07-5.15,13.95-5.19,4.97-12.61,5.16-19.54,5.23-2.4-5.82,11.4.83,13.14-8.11.62-3.17-.85-6.72-4.19-7.74-1.3,1.28-2.6,1.15-3.38.16.13-5.06.1-10.29-.53-15.66-.7-5.91-.19-11.49,1.56-17.04,2.57-8.18,10.58-13.28,11.74-9.05Z"/>
    <path class="cls-6" d="M255.49,484.04c-.73,6.74-6.38,10.51-3.82,11.97-6.32,12.51-25.32,14.01-39.53,11.26-2.78-.54-5.39-2.13-7.79-3.54,7.69,1.49,15.64,3.08,23.86,1.55l2.57-9.71c3.68-5.76,14.23-3.9,19.58-10.21.44-.41.47-.91-.24-1.14,1.3-1.37,2.99-.6,5.37-.19Z"/>
    <path class="cls-14" d="M240.88,393.01c1.39,17.88,1.5,35.81,1.96,54.24.1,3.81.24,6.7-1.72,9.58,2.06.44,1.12,2.2,1.04,2.83l-4.51,1.29c.22-1.36-.03-1.73-.22-2.37s-.61-.89-1.55-.72c.8-.96,1.49-.75,2-1.07.86-.55.94-1.88.88-2.89l-1.03-18.18-1.08-35.74c-3.25-1.36-6.1-1.1-8.86-1.48l-7.34-1c-2.32-.32-4.65-1.41-6.79-2.78l6.79.59,1.77-.02c6.93-.07,14.35-.26,19.54-5.23l-.9,2.94ZM239.76,393l-1.99,1c-.36.18.74,1.26,1.15,1.2s1.03-.75,1.47-1.14c.49-.44-.24-1.26-.64-1.06Z"/>
    <path class="cls-14" d="M281.45,441.9c-3.24,2.01-8.26,6.28-8.21,11.11.04,3.49,3.86,5.5,5.61,7.32v.96c-5.88.64-13.6-.09-17.32-5.63l-2.26-7.13c4.44-4.96,10.03-8.02,17.21-8.12,2.04-.03,3.66-.46,4.96,1.49Z"/>
    <path class="cls-11" d="M249.42,470.53c-1.14.86-2.76,2.36-4.34,2.23-2.74-.21-4.77,1.6-7.37,2.33l-4.67,1.31c-2.18.61-3.13,1.85-2.88,3.78l-2.93-.91c-2.07-.64-1.42-3.74-.6-5.45,1.32-2.78,8.19-4.65,8.07-7.71-.06-1.52,1.66-1.93,2.62-2.78.38-.58,1.27-1.25,1.95-1.2,1.67.12,3.03-.04,4.93-1.03l1.66,6.02c.54,1.97,1.68,3.23,3.58,3.39Z"/>
    <path class="cls-14" d="M255.49,484.04c-2.38-.4-4.07-1.18-5.37.19-.47.06-1.22.19-1.62.49-.27-.17-.22-1.18,0-1.46.16-.19.1-.2.61-.26-.05.09.11.35.42.66,1.6-1.69,3.51-2.85,4.17-5.08.88-3,3.37-6.66.09-8.98l-7.08,3.87-1.47.66-.15-1.38c1.58.12,3.2-1.37,4.34-2.23,3.69-2.79,5.97-7.39,5.69-12.53l.59-3.38c.6-3.47-11.23-7.76-6.06-15.09.8,6.19,9.16,6.72,8.33,9.1-1.42,4.07.37,7.91.19,11.79l-1.14,24.68c-.27.61-.93.91-1.49.64-1.21.6-1.89-1.61-.03-1.7Z"/>
    <path class="cls-11" d="M309.41,468.84c-1.22.76-2.38.98-4.09.47l-18.85-5.71c-.32-.45-.9-1.42-1.44-1.3l-1.75.37c-1.27.27-3.02-1.53-4.43-1.38v-.96c6.14-3.71,28.78,4.11,30.56,8.51Z"/>
    <path class="cls-6" d="M255.7,454.63l-.59,3.38c.27,5.14-2.01,9.74-5.69,12.53-1.9-.17-3.03-1.42-3.58-3.39l-1.66-6.02c-1.89.99-3.26,1.15-4.93,1.03,5.83-1.38,11.05-4.53,16.44-7.51Z"/>
    <path class="cls-9" d="M240.88,393.01l.9-2.94c3.23-3.88,5.5-8.64,5.15-13.95l.74.75c.25.25,1.09-.56,1.87-.5.46,6.55-2.88,13.4-8.66,16.64Z"/>
    <path class="cls-9" d="M243.3,373.92c-.51.19-1,.36-1.52.31l-1.88-15.69c1.74.37,3.28.7,5,2.09-2.19,3.06-3.62,6.66-1.68,9.33l1.35,1.87c.45.62-.86,1.43-1.26,2.08Z"/>
    <path class="cls-11" d="M210.77,682.58l-.39,3.69c-2.23.7-4.26-1.41-5.92-2.71l-9.04-13.57c-15.93-26.14-27.39-54.08-35.08-83.5l-7.95-26.75-8.52-41.59c-.17-.81-1-1.87-.69-2.41.2-.34.8-.7,1.07-.9,7.24,2.26,11.74,8.09,13.85,15.45l10.5,36.6c9.77,34.04,22.5,66.08,39.62,97.11-.1,7.08-.65,16.73,2.54,18.59Z"/>
    <path class="cls-5" d="M142.68,511.37c1.45.88,1.55,2.09,1.58,3.46-.27.21-.88.56-1.07.9-.31.54.52,1.6.69,2.41l8.52,41.59,7.95,26.75c7.69,29.42,19.15,57.35,35.08,83.5l9.04,13.57c-1.77-1.39-4.26-1.77-6.49-2.25-2.9-2.84-5.94-7-8.96-9.38l-5.59-8.66c-2.86-4.17-5.8-8.36-8.31-13.35-9-17.88-17.7-35.35-24.89-54.15-5-13.08-7.13-26.23-10.13-39.11-2.58-11.07-9.89-48.28-6.86-46.99l2.25.96c2.36-.15,5.17.66,7.2.75Z"/>
    <path class="cls-15" d="M150.27,511.67c3.54.14,6.52,2.06,8.79,5.12.94-.44,1.46.04,1.69.23,2.63,2.03,4.92,5.18,5.84,8.77l3.58,13.86,20.62,58.36c4.71,13.33,9.64,25.98,17.42,37.89.6.92,1.3,1.19,2.12,1.1l.42,45.59c-3.19-1.86-2.64-11.51-2.54-18.59-17.13-31.03-29.85-63.07-39.62-97.11l-10.5-36.6c-2.11-7.36-6.61-13.2-13.85-15.45-.02-1.37-.13-2.58-1.58-3.46l7.58.3Z"/>
    <path class="cls-11" d="M207.27,592.21l2.68,40.98c-3.16-3.83-3.66-8.75-5.53-13.47l-9.76-24.71-15.14-41.89c-4.77-13.19-9.18-25.98-12.71-39.12,3.7,1.76,6.18.2,8.95,6.93l24.23,58.86c2.57,6.25,4.88,12.03,4.96,18.43,3.04-1.81.03-5.43,2.32-6ZM205.77,611.39l1.19-.04c-1.2-3.16-.28-6.59-.77-9.89-.28,0-.53.15-.64.44l.23,9.49Z"/>
    <path class="cls-15" d="M185.18,519.09c-.09.5-1.03,1.2-1.33,1.62,3.54,3.14,4.71,7.96,5.85,12.4,2.58,10.05,9.23,27,16.03,32.91l1.53,26.19c-2.29.57.72,4.19-2.32,6-.09-6.41-2.39-12.18-4.96-18.43l-24.23-58.86c-2.77-6.72-5.25-5.17-8.95-6.93-1.35.43-1.7-.43-1.67-1.19l.04-2.2,13.7,1.38c1.71,3.08,3.93,4.67,4.68,7.78.46-.45.76-.73,1.62-.69Z"/>
    <path class="cls-15" d="M198.76,691.36l-39.4.19c-3.16.02-5.96-.24-8.09-1.58-.92-10.47,3.64-10,4.79-11,5.81-5.08,13.49-9.31,21.4-6.38,7.8,2.89,13.68,9.13,19.64,14.72,1.24,1.17,1.79,2.7,1.66,4.06Z"/>
    <path class="cls-10" d="M165.18,510.61l-.04,2.2c-.02.76.32,1.62,1.67,1.19,3.53,13.14,7.95,25.93,12.71,39.12l15.14,41.89,9.76,24.71c1.86,4.72,2.37,9.64,5.53,13.47l.4,3.81c-.83.09-1.52-.19-2.12-1.1-7.78-11.91-12.71-24.56-17.42-37.89l-20.62-58.36-3.58-13.86c-.93-3.58-3.22-6.74-5.84-8.77,3.28-1.72-.26-6.88,4.42-6.41Z"/>
    <path class="cls-11" d="M202.27,541.14c2.1,3.36,2.95,8.02,3.09,12.47l.38,12.41c-6.8-5.91-13.46-22.86-16.03-32.91-1.14-4.44-2.31-9.26-5.85-12.4.29-.42,1.23-1.12,1.33-1.62l1.62-2.89c2.97,3.93,4.57,8.36,6.05,12.98,1.55,4.82,4.88,8.78,8.07,12.88.25-.25.67-.85,1.35-.91Z"/>
    <path class="cls-7" d="M200.03,525.59c-1.29,2.42,1.91,7.08,2.12,12.31l.13,3.24c-.68.06-1.11.66-1.35.91-3.19-4.1-6.52-8.06-8.07-12.88-1.48-4.62-3.08-9.04-6.05-12.98l-1.62,2.89c-.58-1.26-.47-2.66-.77-4.21l-.58-2.94c-.54-2.73,8.37-3.18,10.31-.54,2.66,3.63,3.84,8.09,5,12.54-.75,1,.02,1.91.9,1.66Z"/>
    <path class="cls-3" d="M204.46,683.56c1.66,1.3,3.69,3.41,5.92,2.71-.04.41-.16,1.59-1.07,1.63l-9.35-3.97c-1.66-.7-1.45-2.1-1.98-2.62,2.23.48,4.72.86,6.49,2.25Z"/>
    <path class="cls-7" d="M239.23,554.53c2.4,3.15,1.04,7.51,1.24,11.46l1,19.88c.14,18.02,1.11,35.51-.16,53.54-.08,1.06-.86,2.78.07,3.23l2,.98-.64,11.49v42.85c-1.81-.23-4.57-.14-6.47.19-.15.4-.15,1.64-.62,1.9l-.74-58.89-.66-21.56-.74-37.91c-.18-9.17.27-17.86-.85-26.68,2.11-.13,4.27-1.27,6.58-.48Z"/>
    <path class="cls-14" d="M59.62,570.1l-.45,25.93c-.14,7-.21,14.06-.05,20.87-1.04-.22-2.52-.11-2.91.98-1.02,2.89-.08,5.92,1.01,8.34l-1.03,1.45c-2.92,2.13-2.39,8.42-5.64,9.97.65-1.51.53-3.02-.57-4.21l3.01-66.24c.65-.74,1.14-1.43,2-1.23.59.14,2.04,1.06,2.01,2.04l-.73,32.25c0,.31.42.49.56.43l.54-7.17c1.9-6.57,1.08-13.01,1.42-20.32-.86-.42-1.27-1.56-1.01-2.59.12-.5,1.26-.74,1.83-.49Z"/>
    <path class="cls-11" d="M306.4,584.1l-3.16-1.39c-.88-2.79.47-5.73-1.44-9.23-4.9,9.44-7.86,19.38-10.29,29.88l-8.99,38.95c-2.63,11.41-9.5,14.62-9.23,21.07l-1.78.17c-3.59-.56-7.51-.68-10.81-2.27.54-3.64,2.85-6.13,4.45-9.34,12.76-25.67,22.45-52.48,28.83-80.74,4.1-18.18,5.49-35.79,8.63-54.73,5.34,15.15,5.4,30.11,5.23,45.41l-1.44,22.2Z"/>
    <path class="cls-14" d="M244.99,550.03c.46.29,1.22.77,1.84,1.38l.79,28.65.61,47.79.62,51.15c.09,7.47-.33,14.79,1.89,21.29-.21.18-1.21,1.11-1.2.75.09-3.31-2.82-.06-6.26-.61l-.58-2.46v-42.85s.65-11.49.65-11.49l-2-.98c-.92-.45-.14-2.17-.07-3.23,1.27-18.03.31-35.53.16-53.54l-1-19.88c-.2-3.94,1.16-8.31-1.24-11.46,1.04-.4,1.74-.98,1.67-2.39-1.23,1.45-2.05.27-1.74-.8.26-.29.7-.43.92.18l4.91-1.5Z"/>
    <path class="cls-14" d="M261.95,540.68l-4.26,3.6.03,8.82.14,31.08c0,.88-.41,1.47-.69,2.07-.65,1.44,1.3,2.35,1.68,3.12l.64,38.2.97,29.96-.42,3.6c-1.86,1.22-4.51,1.34-7.08.82l.96-58.8c.02-.96.96-2.73.36-3.61-.3-.45-1.04-.76-2-1.09l-.15-20.03.1-32.64,9.41-8.74c-1.36,2.9-2.65,5.29-1.3,4.06.37-.34.71-.79,1.59-.4Z"/>
    <path class="cls-15" d="M265.6,520.54c-.16,2.96-1.22,5.44-.12,8.3l-3.83,8.18-9.41,8.74-7.25,4.26-4.91,1.5,4.77-6.35c5.6-4.49,8.09-11.84,5.09-18.67.51-5.84-2.71-9.91-8.25-11.43-1.99-1.38-2.97-3.76-5.1-4.79,16.2-4.29,21.78-16.1,24.63-3.79l2.86,12.36c.32,1.36.91,1.64,1.51,1.69Z"/>
    <path class="cls-4" d="M327.35,655.05c.74-.09,1.72-.06,2.17,1.1-7.95,8.86-19.7,12.06-30.77,15.4-3.97,1.2-8.51,1.28-12.52.99.08-.71-1.02-2.69-2.27-1.68-.82.67-1.51,2.56-1.79,3.44-3.42-.34-6.51-1.54-9.81-2.6.06-2.47-2.19-5-4.33-6.34l4.23-.44c-.12-.75-.53-1.01-.75-1.33l1.78-.17,9.57,1.91c5.01,1,11.2,2.24,15.91,0l12.83-3.1c5.38-2.89,9.8-6.43,15.75-7.16Z"/>
    <path class="cls-14" d="M183.42,663.27c-.92-.23-1.5-1.01-2.74-1.04l-8.7-.25-19.13-39.92c-6.21-12.82-8.48-26.55-11.44-40.4l-4.4-20.62c3.8,3.04,1.96,11.53,5.84,15.5l-3.71-17.18c-.14-.66.64-2.34.96-2.7,3,12.89,5.13,26.04,10.13,39.11,7.19,18.79,15.89,36.27,24.89,54.15,2.51,4.98,5.45,9.17,8.31,13.35Z"/>
    <path class="cls-7" d="M272.37,671.69c3.3,1.06,6.39,2.26,9.81,2.6-1.54,4.92-2.08,11.48-1.73,16.84-3.8-1.87-2.54-11.17-9.01-13.68-5.97-2.32-5.21,11.7-12.9,9.83l1.23,1.77c-.67-.29-2.22-.57-2.18-1.35.03-.56,1.7-1.19,1.83-1.91l2.15-11.85c2.04-3.67,7.54-3.3,10.8-2.25Z"/>
    <path class="cls-11" d="M280.45,691.13l-.13.85c-6.18-.17-15.28-.62-20.55-2.93l-1.23-1.77c7.69,1.87,6.93-12.15,12.9-9.83,6.47,2.51,5.21,11.81,9.01,13.68Z"/>
    <path class="cls-10" d="M286.24,672.53c1.81,7.3,1.77,14.82.18,22.14l-3.55-.31c-1.07-.11-2.05-.82-2.55-2.38l.13-.85c-.35-5.36.2-11.92,1.73-16.84.27-.88.97-2.77,1.79-3.44,1.25-1.01,2.36.97,2.27,1.68Z"/>
    <path class="cls-15" d="M335.31,646.01c-.19,1.52-1.32,2.18-1.9,3.2-2.47.14-2.29,2.88-6.06,5.84-5.95.72-10.36,4.27-15.75,7.16l-12.83,3.1.31-7.27c5.17-1.53,10.07-.23,10.3-4.6-3.39.82-6.28-.44-9.15-.52l2.37-27.49c.45.15,1.33-.13,2.02-.57,10.15.7,20.62,4.04,28.1,11.14.05,3.45-.84,8.22,2.59,10.01Z"/>
    <path class="cls-6" d="M334.99,674.38c-1.24,2.51-3.15,5.22-5.95,6.97-9.17,5.75-23.3,13.55-32.27,13.44.82-1.31,2.72-1.1,4.45-.78-1.06-6.56-2.33-12.3-2.05-18.63.07-1.5.76-2.61-.41-3.83,11.07-3.34,22.82-6.53,30.77-15.4.84-.93,1.6-1.99,3.34-3.11,2.24,8.9-3.97,15.24,2.05,14.47.82,2.16.2,4.95.09,6.88Z"/>
    <path class="cls-11" d="M298.76,671.54c1.17,1.22.48,2.34.41,3.83-.28,6.34.99,12.07,2.05,18.63-1.73-.31-3.63-.53-4.45.78l-10.36-.12c1.59-7.32,1.63-14.84-.18-22.14,4.01.3,8.56.21,12.52-.99Z"/>
    <path class="cls-1" d="M206.79,423.36c1.99,0,2.82-1.18,3.69-2.77l.18,23.41c-6.75,1.27-9.66,8.42-14.2,8.3-.16-.35-.12-.62.02-.94.46-1.04.18-2.22-.89-2.98l2.9-.34c.69-.08.53-2.03.2-2.69-.55-1.1-28.05-1.66-38.79-1.84l-13.55-.24c.09,1.94.23,3.71.93,5.59-2.5.36-2.31-1.27-3.09-2.36-.8-1.12-.31-2.08.06-3.31-8.45-.82-14,4.24-19.59,4.65l4.1-4.68c7.31-.33,13.87-8.74,21.43-5.64.93,1.31,2.32.38,1.15-1.15-5.91-2.58-11.81-4.38-18.94-5.1,1.52,4,.65,8.24-2.62,10.53,1.33-2.88,2.68-5.66,2.03-9.27-8.88-3.06-17.96-4.58-26.94-6.45.08-.75-.67-.63-1.79-1.8,9.23.31,18.71-.41,28.33,1.34l19.68,3.59c8.16,1.49,16.2,2.63,24.17.26.44-.13,1.26-.25,1.44-.69.13-.3.01-.84.02-1.2,1.53-1.13,3.9-2.01,5.97-1.82,0,1.07.36,2.88,1.16,3.17,1.15.43,2.36.24,2.94-.31,1.97,1.21,3.44-1.69,4.19-1.87,4.45-1.05,10.12-2.43,13.6-5.85.46,3.42-2.94,5.12-5.3,7.16-2.59,2.23-4.32,4.25-8.78,3.41-10.41-1.96-13.32,3.6-19.15,3.17l-15.99-1.18c-1.25-.09-1.34,1.32-.87,1.82.23.25.68.75,1.32.87l15.11,3.01c11.93.8,23.31,2.64,35.46,1.24-.68-5.72-.87-11.55.42-17.02Z"/>
    <path class="cls-14" d="M206.79,423.36c-1.29,5.47-1.1,11.3-.42,17.02-12.15,1.4-23.53-.43-35.46-1.24l-15.11-3.01c-.63-.13-1.09-.63-1.32-.87-.47-.5-.38-1.91.87-1.82l15.99,1.18c5.83.43,8.74-5.12,19.15-3.17,4.47.84,6.19-1.18,8.78-3.41,2.36-2.03,5.76-3.73,5.3-7.16-.15-1.14.62-2.15.78-3.21.46-.18,1.86.08,1.89.56.11,2.08-.1,3.66-.45,5.12Z"/>
    <path class="cls-11" d="M190.97,426.74c-.75.18-2.23,3.08-4.19,1.87-.32-.33-1.25-.35-2.17-.46.48-1.49,1.69-3.16,1.7-4.88l.21-21.35c.04-4.18.1-8.37-1.94-11.76-.69,1.65-.29,3.02-1.1,3.82l-.09-17.36c0-.61.68-1.7,1.08-1.72s1.6.7,1.75,1.17l8.47,25.83c1.84,5.61,2.65,11.93.1,17.3-1.27,2.67-3.8,4.61-3.82,7.53Z"/>
    <path class="cls-8" d="M210.48,420.6c-.87,1.58-1.71,2.77-3.69,2.77.34-1.46.56-3.05.45-5.12-.03-.49-1.42-.74-1.89-.56,1.11-7.29.59-14.64.36-22.34-.11-3.72-1.15-6.43-2.69-10.03-1.06-.92-1.03-2.43.42-2.3,1.64,7.38,6.26,8.48,6.79,9.61.19.42-.52,1.33-.5,1.93l.76,26.04Z"/>
    <path class="cls-4" d="M210.56,353.32l-.05,14.77c-3.6,1.53-6.26,4.06-7.13,7.82-.41-.83-1.18-1.92-.57-3.56-4.11-3.63-10.41-4.82-8.09-6.26,4.72.32,10.61-1.73,13.05-6.08,1.38-2.46,1.37-5.56,1.02-7.51l1.76.83Z"/>
    <path class="cls-5" d="M186.78,428.6c-.57.55-1.79.74-2.94.31-.8-.3-1.16-2.11-1.16-3.17,1.3-10.6,2.34-21.1.8-31.76.81-.81.41-2.17,1.1-3.82,2.04,3.38,1.98,7.57,1.94,11.76l-.21,21.35c-.02,1.72-1.22,3.4-1.7,4.88.92.1,1.85.13,2.17.46Z"/>
    <path class="cls-14" d="M213.05,268.44c4.08,2.59,8.59,5.41,13.45,3.4,1.27.19.77,1.65-.16,1.35-4.25.4-7.67.2-12.35-.94-.64,6.66-.13,13.14,1.44,19.22l.02,1.21,1.4,1.2c.7.61-.74,2.19-1.13,2.65-1.42,1.65-4.14-.01-6.9,1.01l.46.66c1.45-.22,3.42-.73,4.72.43l-7.23.54-4.88-28.28c3.31-.02,7.23-4.94,11.17-2.44Z"/>
    <path class="cls-8" d="M222.57,312.22c-2.41-.85-5.09,1.27-7.98,1.61-2.24.26-4.39-.86-6.38,1.03-.36-1.85.52-2.2.38-3.19,5.1-2.04,7.39-7.73,5.4-13.05-1.3-1.16-3.27-.65-4.72-.43l-.46-.66c2.76-1.02,5.48.64,6.9-1.01.4-.46,1.84-2.04,1.13-2.65l-1.4-1.2-.02-1.21c6.41,5.13,9.47,12.88,7.13,20.76Z"/>
    <path class="cls-14" d="M214.73,335.09c-2.36,5.72-4.15,12.02-4.17,18.22l-1.76-.83-.13-.72c-.97-5.4.13-11.2,1.12-16.58,1.35-1.18,3.24-1.45,4.94-.09Z"/>
    <path class="cls-12" d="M125.09,300.05c.11-.75,1.11-.57,1.27,0,.09.3.02.97-.31,1.19-.25.17-1.06-.5-.96-1.19Z"/>
    <path class="cls-1" d="M162.96,263.75c.02,1.63-1.43,1.12-1.33.82.18-.57.12-1.32.07-1.63s1.24-.65,1.26.81Z"/>
    <path class="cls-1" d="M162.74,266.47c.51-.93,1.09-.03,1.25.21.23.35.13.71-.13.87-.63.37-1.55-.28-1.11-1.08Z"/>
    <path class="cls-5" d="M236.19,254.4c4.68,6.06-2.12,15.03-9.7,17.44-4.86,2.01-9.36-.81-13.45-3.4-4.06-4.68,3.32-7.58,2.48-10.8.64.33,1.15,1.09,2.18,1.36,5.74-3.15,12.03-5.19,18.47-4.6ZM230.76,261.62c-1.03-2.88-3.14-2.55-5.02-1.53-1.78.97-2.62,3.37-1.96,5.18.44,1.21,2.4,2.69,4.46,2.81,2.68.16,3.52-3.67,2.52-6.46Z"/>
    <path class="cls-7" d="M246.23,253.5c-.57-1.32.48-2.39.93-3.28.31-.09.74-.09,1.09.05,0,.65-.81,2.38-2.02,3.23Z"/>
    <path class="cls-9" d="M112.01,502.24c1.33.77,3.04,1.62,4.56,1.87l12.37,2.02,7.96-.1c-2.16,2.94,6.21.07,6.71,2.75.1.56-.27,1.75.54,1.95,2.26.56,5.62-.84,6.12.93l-7.58-.3c-2.03-.08-4.84-.9-7.2-.75l-2.25-.96c-3.03-1.29,4.28,35.93,6.86,46.99-.31.36-1.1,2.04-.96,2.7l3.71,17.18c-3.88-3.97-2.04-12.46-5.84-15.5l-5.92-33.55c-1.08-6.1-2.65-11.73-6.19-16.94-6.66-2.46-12.98-5.08-19.5-6.28,2.12-1.08,4.49-.89,6.61-2.03Z"/>
    <path class="cls-5" d="M190.78,457.45c-.54.36-.83,1.73-.36,2.1s1.5.72,1.65.88c.58,4.04-1.98,8.26-2.34,12.32-.54,6.1-.04,17.2.85,17.62,2.3,1.08,2.25,2.84,2.62,4.63-2.81-1.16-5.8-.07-9.12.17l-43.72,3.08-21.19,2.26c-.89,2.05-2.76,2.44-4.82,1.31-2.83-2.33-7.86-3.17-9.8-7.09-3.03-6.14-2.46-14.02-.51-20.2l5.8-9.9c.3-.03.66-.19.75-.44l.38-1c.24-.62,1.27-1.06,1.59-1.73,3.15-3.16,7.32-4.57,11.58-6.6,1.16-.55,1.93-1.81,3.1-2.19.73,2.62,3.29,2.9,5.7,3.12l29.84,2.77,19.77.45c2.22-1.71,4.58-4.94,8.31-4.38l3.95-2.49-2.14,2.68c-.47.69-1.98,1.26-1.88,2.66ZM188.35,459.58c.36-1.16-.9-2.31-1.62-1.02l1.04,1.94c.36.67,1.83-.2.58-.92ZM174.83,470.98c.81-1.59-.28-2.36-1.24-2.13l-8.68,2.06c3.14,1.78,7.29,1.57,9.92.07Z"/>
    <path class="cls-6" d="M104.03,474.51c-1.94,6.18-2.52,14.06.51,20.2,1.94,3.92,6.97,4.75,9.8,7.09.9.74,1.89,1.53,2.23,2.31-1.52-.25-3.23-1.1-4.56-1.87-10.97-6.34-15.54-8.56-12.93-21.13.69-3.32,1.8-5.93,4.95-6.6Z"/>
    <path class="cls-15" d="M196.48,451.37c-.14.32-.18.58-.02.94-1.39-.13-.94,1.3-1.38,1.88-2.09-.05-2.7,2.2-4.29,3.25-.1-1.39,1.42-1.97,1.88-2.66l2.14-2.68-3.95,2.49c-3.73-.55-6.09,2.67-8.31,4.38l-19.77-.45-29.84-2.77c-2.41-.22-4.97-.5-5.7-3.12,6.9-2.25,14.37-1.46,21.98-1.53,12.75-.11,25.24.31,38.17-.54,3.29-.22,6.41-.1,9.1.79Z"/>
    <path class="cls-14" d="M112.56,461.44c-.32.67-1.35,1.11-1.59,1.73-1.54-.21-.97-1.26.1-1.92.41-.25,1.05-1.38,1.49.19Z"/>
    <path class="cls-14" d="M128.75,443.17l1.02-1.37c3.27-2.29,4.14-6.53,2.62-10.53,7.14.72,13.04,2.53,18.94,5.1,1.16,1.53-.22,2.46-1.15,1.15-7.56-3.1-14.11,5.31-21.43,5.64Z"/>
    <path class="cls-5" d="M306.4,584.1l-3.8,41.32-2.37,27.49c-3.07-.09-7.15-1.1-10.71.01-3.42,1.68-4.5,7.97-3.47,11.68-.84.66-2.03.39-3.19.71l-9.57-1.91c-.27-6.46,6.6-9.66,9.23-21.07l8.99-38.95c2.43-10.51,5.39-20.45,10.29-29.88,1.91,3.49.55,6.44,1.44,9.23l3.16,1.39Z"/>
    <path class="cls-11" d="M257.87,584.17l-.14-31.08-.03-8.82,4.26-3.6,4.88-4.25c1.87-1.63,4.48-2.83,6.48-4.24-2.29,11.32-6.26,22.14-9.53,33.57l-5.92,18.41Z"/>
    <path class="cls-8" d="M309.41,468.84c.37.91,1.78,1.73,2.69,2.33.22,1.58-.3,2.21-1.28,2.71-1.21.61-2.01.88-3.42.31l-19.44-7.85c-.49-.2-1.8.11-2.2-.61-.3-.54.15-1.39.72-2.13l18.85,5.71c1.71.52,2.88.29,4.09-.47Z"/>
    <path class="cls-7" d="M306.04,499.26c-3.9,5.77-9.08,10.99-14.94,15.42l-16.05,12.16c-1.66,1.26-3.07,3.23-5.26,3-.54-1.28.77-3.23.75-5.05-.1-8.11-2.28-15.76-4.48-22.98.85-2.26,2.8-3.59,4.71-5.71-2.32-.12-4.21.11-5.76-1.04.51-.07.59-.56.19-.84l7.16-6.91c.72-.14,2,.87,2.52,1.19-.07,1.83,1.21,3.66.87,5.59-.5,2.8.65,5.44,1.35,8.59.52,2.34-.25,5.67,3.03,7.22,1.04-5.51.43-10.34-1.08-14.89l8.15-9.15c1.98-2.27,6.53-3.93,9.49-2.7,2.97,1.23,3.54,5.05,4.83,7.46l4.52,8.63Z"/>
    <path class="cls-5" d="M265.01,495.06c-.26,2.33.4,4.61,1.05,6.74,2.19,7.22,4.38,14.88,4.48,22.98.02,1.82-1.29,3.77-.75,5.05.41.98-.31,1.23-.61,1.63-.6.15-1.2.97-1.94.3l.15-2.36c.03-.51-1.4-.99-1.91-.56-1.09-2.86-.04-5.34.12-8.3.42-7.61-1.55-15.34-3.89-22.42,2.76,2.63-.12-2.53,1.17-3.04.53-.21,1.61-.02,2.14-.02Z"/>
    <path class="cls-1" d="M266.51,534.65l.33,1.78-4.88,4.25c-.88-.39-1.22.06-1.59.4-1.35,1.23-.06-1.16,1.3-4.06l3.83-8.18c.62,1.68.83,4.11,1.02,5.81Z"/>
    <path class="cls-5" d="M269.18,531.47c-.84,1.11-1.18,3.01-2.67,3.18-.19-1.7-.4-4.13-1.02-5.81.51-.43,1.95.05,1.91.56l-.15,2.36c.74.67,1.33-.15,1.94-.3Z"/>
    <path class="cls-10" d="M231.1,511.93l1.33-.53c.81-.23,2.92-.05,2.25,1.08-1.37,2.31-1.07,6.89-3.91,7.83-3.15,1.05-16-.07-20.37-1.35-2.15-.63-4-1.34-5.93.02-.74-1.02-1.06-2.3-2.65-2.61-.25-1.34-2.06-2.27-1.12-4.32.54-1.18,1.01-2.53,2.65-3.63l16.5,3.65c3.56.79,8.09,1.14,11.24-.13Z"/>
    <path class="cls-5" d="M204.55,520.42c9,3.84,19.45,4.4,29.63,4.25.72,1.49.13,4.33-1.54,4.43l-17.36,1.05c-.44.03-2.41.55-2.25.8l.83,1.82c-3.69-.77-6.32-1.43-9.45-4.18-1.96-1.72-4.51-3.14-3.3-6.19.11-1.23.75-2.28,1.85-2.57.52-.14,1.39-.09,1.59.59Z"/>
    <path class="cls-1" d="M204.48,518.98c.21.3.32.68.07,1.44-.21-.69-1.07-.73-1.59-.59-.74-.99-.89-2.23-1.12-3.46,1.59.31,1.91,1.59,2.65,2.61Z"/>
    <path class="cls-3" d="M193.25,475.43l1.41,6.63-.91,4.67,3.39,6.68c2.02,3.98,3.26,8,7.21,10.33,2.4,1.41,5.01,3,7.79,3.54-.11.45-.14,1.31.14,1.48,6.35,1.85,12.62,3.49,18.83,3.16-3.16,1.27-7.68.92-11.24.13l-16.5-3.65c-1.63,1.1-2.1,2.45-2.65,3.63-.95,2.06.86,2.99,1.12,4.32.23,1.23.38,2.47,1.12,3.46-1.1.29-1.74,1.35-1.85,2.57-2.44-1.77-.28,1.69-1.07,3.19-.88.25-1.65-.66-.9-1.66-1.16-4.44-2.33-8.9-5-12.54-1.93-2.64-10.84-2.19-10.31.54l.58,2.94c.3,1.55.19,2.95.77,4.21-.86-.04-1.17.24-1.62.69-.76-3.12-2.98-4.7-4.68-7.78l-13.7-1.38c-4.68-.47-1.14,4.69-4.42,6.41-.24-.18-.75-.67-1.69-.23-2.28-3.06-5.25-4.98-8.79-5.12-.5-1.78-3.86-.37-6.12-.93-.81-.2-.44-1.39-.54-1.95,4.35.13,8.67-.08,13.06.52,10.58-5.21,20.48-.14,31.63-5.12l9.01-.09c-2.71-2.8-3.43-5.88-4.11-9.11-.38-1.79-.32-3.55-2.62-4.63-.89-.42-1.39-11.52-.85-17.62.83-.6,1.27-1.09,1.86-.32,1.26,1.65.34,3.2,1.67,3.02ZM191.04,487.68c.92-1.27.71-2.53-.07-3.41-.6,1.21-.53,2.3.07,3.41ZM195.34,495.13c.65-2.44-.49-3.24-1.09-4.23-.72,1.85.28,3.08,1.09,4.23ZM201.21,503.29c-.56-1.52-1.28-1.93-2.14-2.46-.53,1.69.86,2.76,2.14,2.46Z"/>
    <path class="cls-8" d="M231.18,554.2c-1.18.73-2.62.25-3.77.43-.23-.4-.46-.58-.46-.59,1.5-.69,3.87-.69,4.23.17Z"/>
    <path class="cls-11" d="M227.8,398.51c1.92,3.77,2.61,7.91,2.6,12.52l-.16,46.96c0,2.44-.52,4.46-2.54,5.43-1.9-.09-3.51.28-5.27,1.99l-.68-55.18-1.28-12.72,7.34,1Z"/>
    <path class="cls-11" d="M250.12,484.24c.71.23.67.72.24,1.14-5.35,6.31-15.9,4.45-19.58,10.21l-2.57,9.71c-8.22,1.53-16.17-.07-23.86-1.55-3.95-2.33-5.19-6.35-7.21-10.33,2.72,2.34,6.08,3.77,10.06,3.5l17.87-1.2c.71-.05,1.8-.66,1.79-1.11l-.04-1.93,10.69-3.56c3.88-1.29,7.89-2.1,10.99-4.38.4-.29,1.15-.42,1.62-.49Z"/>
    <path class="cls-15" d="M253.7,478.59c-1.44,1.7-2.96,3.24-4.58,4.42-.5.06-.45.07-.61.26-.23.27-.28,1.29,0,1.46-3.1,2.28-7.11,3.09-10.99,4.38l-10.69,3.56c-4.26-6.79,7.07-9.17,17.1-12.01.96-2.54,1.47-5.05,2.78-7.17l7.08-3.87c3.28,2.31.79,5.98-.09,8.98Z"/>
    <path class="cls-14" d="M193.25,475.43c-1.32.18-.4-1.36-1.67-3.02-.59-.77-1.03-.28-1.86.32.36-4.05,2.92-8.27,2.34-12.32-.34-2.39,1.93-4.81,3.01-6.23.44-.58-.01-2.01,1.38-1.88,4.54.12,7.46-7.04,14.2-8.3.02,3.3.72,6.99-.2,10.64l-10.08,4.28c-4.82,3.32-7.27,10.86-7.12,16.5Z"/>
    <path class="cls-11" d="M222.24,395.3l-1.77.02c.25-5.24,2.64-9.91,7.28-13.27l.06-2.45c.78.99,2.09,1.12,3.38-.16,3.34,1.02,4.81,4.57,4.19,7.74-1.74,8.95-15.54,2.29-13.14,8.11Z"/>
    <path class="cls-12" d="M245.08,472.76l.15,1.38-10.86,5.14c-1.27.6-3.2.83-4.21.91-.25-1.94.69-3.17,2.88-3.78l4.67-1.31c2.6-.73,4.63-2.54,7.37-2.33ZM238.46,476.42c-3.51.09-5.49.27-7.92,2.52,3.31.2,5.6-.98,7.92-2.52Z"/>
    <path class="cls-11" d="M278.26,494.07c.55.13.64.5.79.94,1.51,4.56,2.12,9.38,1.08,14.89-3.28-1.55-2.52-4.88-3.03-7.22-.69-3.16-1.85-5.79-1.35-8.59.37-.07.94-.4,1.16-.13.25.3.46,1.31.65,2.15.78-.57.68-1.3.69-2.05Z"/>
    <path class="cls-2" d="M278.26,494.07c-.02.74.09,1.47-.69,2.05-.19-.85-.4-1.85-.65-2.15-.22-.27-.79.06-1.16.13.35-1.93-.94-3.76-.87-5.59,1.53.94,2.92,3.68,3.37,5.56Z"/>
    <path class="cls-5" d="M265.2,494.23c.4.27.32.77-.19.84-.53,0-1.61-.19-2.14.02-1.29.51,1.59,5.67-1.17,3.04-.54-1.63-1.28-3.22-.43-5.08l3.92,1.19Z"/>
    <path class="cls-9" d="M239.76,393c.4-.2,1.14.62.64,1.06-.44.39-1.06,1.08-1.47,1.14s-1.51-1.02-1.15-1.2l1.99-1Z"/>
    <path class="cls-3" d="M249.12,483.01c1.62-1.18,3.14-2.72,4.58-4.42-.65,2.23-2.57,3.39-4.17,5.08-.31-.31-.46-.57-.42-.66Z"/>
    <path class="cls-13" d="M205.77,611.39l-.23-9.49c.12-.29.36-.44.64-.44.49,3.29-.43,6.72.77,9.89l-1.19.04Z"/>
    <path class="cls-11" d="M300.24,652.91c2.87.08,5.76,1.34,9.15.52-.23,4.37-5.13,3.07-10.3,4.6l-.31,7.27c-4.71,2.24-10.9,1.01-15.91,0,1.17-.32,2.35-.06,3.19-.71-1.03-3.71.05-10,3.47-11.68,3.56-1.11,7.64-.1,10.71-.01Z"/>
    <path class="cls-1" d="M230.76,261.62c.99,2.79.16,6.61-2.52,6.46-2.05-.12-4.01-1.6-4.46-2.81-.66-1.81.19-4.21,1.96-5.18,1.87-1.02,3.99-1.35,5.02,1.53Z"/>
    <path class="cls-11" d="M193.2,494.99c.68,3.23,1.39,6.31,4.11,9.11l-9.01.09-4.23.04c.02-.41-.92-.79-.66-2.22-2.95.15-6.25.13-9.36,1.18-5.98,2.02-10.73,0-11.4,1.88l-13.62.32c-4.35.93-8.17.6-12.12.65l-7.96.1-12.37-2.02c-.34-.79-1.33-1.57-2.23-2.31,2.07,1.13,3.94.74,4.82-1.31l21.19-2.26,43.72-3.08c3.32-.23,6.31-1.33,9.12-.17Z"/>
    <path class="cls-14" d="M184.06,504.22l4.23-.04c-11.14,4.98-21.05-.08-31.63,5.12-4.39-.6-8.72-.39-13.06-.52-.49-2.68-8.86.19-6.71-2.75,3.95-.05,7.78.28,12.12-.65l13.62-.32,13.73-.36,7.7-.49Z"/>
    <path class="cls-11" d="M174.83,470.98c-2.63,1.5-6.78,1.72-9.92-.07l8.68-2.06c.97-.23,2.05.54,1.24,2.13Z"/>
    <path class="cls-1" d="M192.06,460.42c-.15-.15-1.2-.52-1.65-.88s-.18-1.74.36-2.1c1.59-1.05,2.2-3.31,4.29-3.25-1.08,1.42-3.35,3.84-3.01,6.23Z"/>
    <path class="cls-16" d="M188.35,459.58c1.25.72-.22,1.59-.58.92l-1.04-1.94c.72-1.29,1.98-.14,1.62,1.02Z"/>
    <path class="cls-11" d="M266.06,501.81c-.65-2.13-1.31-4.41-1.05-6.74,1.55,1.15,3.44.92,5.76,1.04-1.92,2.12-3.87,3.45-4.71,5.71Z"/>
    <path class="cls-14" d="M195.34,495.13c-.81-1.15-1.81-2.38-1.09-4.23.6.99,1.74,1.79,1.09,4.23Z"/>
    <path class="cls-14" d="M201.21,503.29c-1.28.3-2.67-.77-2.14-2.46.86.53,1.58.94,2.14,2.46Z"/>
    <path class="cls-1" d="M191.04,487.68c-.6-1.12-.67-2.2-.07-3.41.78.89.99,2.14.07,3.41Z"/>
    <path class="cls-8" d="M238.46,476.42c-2.32,1.54-4.61,2.72-7.92,2.52,2.43-2.25,4.41-2.42,7.92-2.52Z"/>
    <path class="cls-13" d="M184.06,504.22l-7.7.49-13.73.36c.67-1.89,5.42.14,11.4-1.88,3.12-1.05,6.42-1.03,9.36-1.18-.26,1.42.68,1.81.66,2.22Z"/>
  </g>
</svg>