<?xml version="1.0" encoding="UTF-8"?>
<svg id="Réteg_1" data-name="Réteg 1" xmlns="http://www.w3.org/2000/svg" viewBox="0 0 409.19 709.78">
  <defs>
    <style>
      .cls-1 {
        fill: #c1a6a5;
      }

      .cls-2 {
        fill: #183557;
      }

      .cls-3 {
        fill: #1c395c;
      }

      .cls-4 {
        fill: #38537b;
      }

      .cls-5 {
        fill: #f8f4e9;
      }

      .cls-6 {
        fill: #f39ea5;
      }

      .cls-7 {
        fill: #a9a1ac;
      }

      .cls-8 {
        fill: #5a70a6;
      }

      .cls-9 {
        fill: #d9bec6;
      }

      .cls-10 {
        fill: #f3ecf3;
      }

      .cls-11 {
        fill: #32466b;
      }

      .cls-12 {
        fill: #fcddb8;
      }

      .cls-13 {
        fill: #214d6b;
      }

      .cls-14 {
        fill: #f5b6a7;
      }

      .cls-15 {
        fill: #f7efe3;
      }

      .cls-16 {
        fill: #3e649e;
      }

      .cls-17 {
        fill: #f3abb2;
      }

      .cls-18 {
        fill: #f9d6c7;
      }
    </style>
  </defs>
  <g id="Generatív_objektum_180_30_" data-name="Generatív objektum (180, 30)">
    <path class="cls-16" d="M126.52,271.54c-3.88,11.46,10.2,16.76,21.73,21.46.94.38,1.49,2.78,2.58,2.33,1.31-.54,2.43,1.37,3.97,1.79,20.69,5.67,41.67,9.32,63.36,9.16,19.11-.14,37.24-3.98,55.17-8.2l10.45-3.86.63,18.65c-2.33.35-4.28,1.96-4.23,4.16-20.79,5.86-41.98,10.58-64.5,10.51-23.54-.07-46.22-4.8-68.04-11.51l-15.37,17.41c-21,23.8-35.37,57.21-36.46,89.05-.13,3.7,4.31,5.29,6.97,6.39,13.25,5.48,26.17,8.82,40.28,11.29,50.58,8.84,86.82,9.47,137.86,1.46,18.13-2.84,35.03-7.82,51.67-15.06l1.26,26.43c.03.7.95,1.65.19,2.63-3.08-.17-6.08,1.3-9.07,2.3l-15.18,5.07c-6.02,2.01-12.49,4.04-18.74,5.69.43,1.55-.23,3.25-1.53,3.93-3.71,1.54-8.2.97-11.95,1.94.01-.62-.22-.81-.52-.99-.35-.2-1.39-.26-1.97-.19l-9.89,1.07c-4.62,1.6-9.18,2.22-14.16,1.27-9.35,3.61-18.96,3.98-28.63,3.67l-11.37-.36-18.45-2.19-35.41-4.85-9.15-2.49c-8.68-2.36-17.67-2.86-26.13-6.03l-15.06-3.19c-2.3-.49-4.82-.67-6.79,1.62l-5.73-2.31c-1.21,9.55-2.86,21.57.25,28.92-5.19-2.42-9.25-6.27-13.99-10.09-6.34-5.11-11.33-11.07-12.85-18.97-3.57,16.33,20.09,33.87,34.46,39.39l23.17,8.91c22.95,6.39,46.41,8.39,70.49,9.77,27.21,1.56,53.87.09,80.62-3.81,35.97-5.25,56.79-20.51,59.87-21.17l2,38.78,2.93,30.47c-.05,2.01-2.11,2.82-4.06,3.68-13.26,5.87-26.88,10.37-40.84,12.7-.29-1.11-1.5-1.97-3-2.49-19.42-6.8-37.85-15-56.07-24.65-11.3-5.98-21.84-11.87-32.12-19.56-11.41,8.19-22.87,14.32-34.99,20.27l-22.12,10.86c-8.78,4.08-17.31,7.6-26.62,9.64-2.55.56-5.06,1.91-6.56,3.89l-7.93-2.14c-10.61-2.86-20.49-6.42-30.05-11.82l-7.36-4.16c-16.57-9.35-19.18-28.37-17.17-44.68.74.22,1.68.06,2.06-.24.85-.65.65-27.02,4.84-39.97l5.7-17.61c.7-2.15,1.64-3.86,1.87-5.92.56-5.08.4-10.75,0-16.07l-.9-10.23,2.61-30.57,3.59-29c3.19-3.22,3.43-7.03,4.39-11.46,4.77-22.19,16.9-42.74,33.36-58.47,2.65-2.53,4.17-3.26,4.99-7.2,1.26-6.07,6.77-11.04,10.8-15.14.44.25.71.15.85.09Z"/>
    <path class="cls-16" d="M47.9,514.69c.76.16,1.45.09,1.93.5-1.63,6.34-3.1,18.32-2.32,21.94,3.02,13.92,12.87,24.03,25.16,30.19,12.53,6.28,24.75,11.1,38.61,14.01,25.51,5.35,50.82,6.99,77.2,8.03,28.11,1.1,55.26.46,83.25-1.99l23.37-3.33c-.12.6-1.04.68-1.02,1.93l11.43-1.03c-.09.39,1.09,1.07,1.17,1.43,2.87,13.14,3.11,26.16,3.03,39.83l-.03,69.43-20.57,4.25c-27.02,3.83-53.96,5.33-80.81,5.02l1.71-99.94-27.24-.2-1.47,93.88c-.04,2.37-.28,4.23.6,5.95-23.03-.27-46-2.59-69.01-6.09-15.13-2.3-32.69-6.97-43.23-17.74l-9.41-9.62c-3.84-3.93-30.43-4-29.04-34.25l4.12-89.74c.39-8.54.66-16.63,3.14-25.05l4.69-4.05c1.71-1.47,3.18-2.47,4.74-3.35ZM71.82,679.38l2.12-51.58c.43-10.43.4-20.14,2.81-30.55-2.38.45-1,2.74-1.7,3.24-.56-1.34.59-2.99-1.36-4.18,1.34,4.01-1.15,6.78-1.38,9.94l-2.96,39.4-.73,24.48c-.1,3.23.14,6.78,3.21,9.24Z"/>
    <path class="cls-16" d="M280.02,230.53l.17,15.76c.04,3.46-1.77,6.71,2.46,8.9,4,2.07,2.43,4.82,2.6,8.52l-1.94,4.57c-5.99,4.27-4.16,14.44-6.69,21.09-6.47,2.13-13,2.79-19.86,3.58-13.15,1.52-25.93,2.8-39.48,3.37s-26.72-1.3-40.33-2.6c-12.75-1.22-24.27-4.79-35.21-11.11-4.95-2.86-4.57-10.43-6.89-16.09.46-.4.84-1.06.67-1.65l-1.65-5.74c-.79-13.05-1.68-26.13.08-38.57l2.94-10.33c.47-1.65,1.11-3.49,2.74-3.01l4.76,2.27c.16,4.89-1.03,9.33,1.53,13.78,1.53-6.3.83-11.96,7.02-15.03,1.73-.86,5.12-.3,6.01,1.45-3.36,8.04-7.24,17.67-1.78,23.56.17-8.76,2.79-15.7,8.43-21.94,5-5.54,37.69-4.72,51.75-4.79,17.98-.09,35.35.49,52.83,2.8,9.23,10.31,4.85,23.7,9.82,21.21ZM136.31,245.19c-.7,3.58-1.84,7.35,1.18,10.83,3.13-1.53,2.39-4.39,2.71-7,.42-3.48.43-6.36-.1-10.43-2.86,1.49-3.29,4.05-3.79,6.6ZM148.94,265.73c1.53-4.26,1.01-7.43-.82-10.48-3.04,3.16-3.52,8.94.82,10.48ZM181.89,278.55c1.45,1.23,2.65-.01,2.99-1,.23-.66.33-2.09-.85-2.33-1.08-.21-2.98,2.61-2.14,3.32Z"/>
    <path class="cls-12" d="M288.84,261.42c8.93,3.41,17.89,14.52,21.01,24.73.99,3.22,2.7,4.54,5.09,6.84,15.99,15.33,29.51,34.29,35.68,55.16,2.54,8.6,3.55,16.93,4.31,25.67l3.57,41.05.72,29.03c-.93,4.61-1.38,8.96-1.16,13.08-2.42,6.7-7.22,18.62-12.15,20.83l-2.1-25.72.16-3.96-2.26-26.51c-.04-.53.17-1.25-.29-1.58-.24-.17-.63-.08-.89-.08-2.01-16.45-5.86-33.22-13.21-47.99l-4.93-9.91c-5.85-11.76-14.03-22.1-23.33-31.96l-12.43-13.19c-1.15-1.22-2.2-2.84-2.24-4.07l-.63-18.65-10.45,3.86c.1-1.17.59-2.31.09-3.67,6.18-1.29,11.99-3.77,17.4-7.1.56-.32,1.2-.61.68-2.03,2.6-2.69,6.65-6.06,6.13-10.07-.58-4.49-4.36-8.02-8.64-9.75-2.22,1.9-1.96,4.69-2.17,7.08-1.36-.52-1.19-2.4-.78-4.19-.92,0-1.38.65-1.78.43l-.93-.49,1.94-4.57c.61-1.45.51-2.13,1.66-2.91.75-.5,1.6-1.32,1.92.61Z"/>
    <path class="cls-12" d="M367.67,661.77c.47-1.28.5-2.62.44-4.31l-1.7-50.25-1.81-32.38c-10.04-2.1-19.3-.57-28.35,1.88l-24.01,6.49-6.71,1.73-11.43,1.03c-.02-1.26.9-1.33,1.02-1.93,16.42-3.22,32.42-8.9,48.05-16.13l8.43-6.23c4.65-3.44,7.71-7.81,10.87-12.2l3.24-4.49c1.27-5.57.78-11.52-.33-17.03l-.55,11.43c-.15,3.09-1.05,6.12-3.42,8.03l-16.04,12.92c-1.3,1.05-2.68,1.79-4.09,1.46l-2.93-30.47-2-38.78,3.32-2.44c7.06-3.15,11.62-10.24,13.85-18.03.68-2.38,1.48-4.34,4.38-4.66l1.76-8.94c1.09,2.3,1.65,5.12,1.88,8.02l3.39,43.33c6.01,1.57,10.34,11.09,10.65,15.71l1.53,22.4.02,96.26c0,6.34-6.1,15.79-9.45,17.58Z"/>
    <path class="cls-17" d="M336.24,576.72c2.01,6.89,5.58,13.65,6.03,21.35l4.53,74.5c-3.43,1.64-15.14,18.52-37.11,23.06l.03-69.43c.08-13.68-.15-26.69-3.03-39.83-.08-.36-1.25-1.04-1.17-1.43l6.71-1.73,24.01-6.49Z"/>
    <path class="cls-16" d="M208.31,704.9l-26.4-.31c-.88-1.72-.64-3.58-.6-5.95l1.47-93.88,27.24.2-1.71,99.94Z"/>
    <path class="cls-16" d="M367.67,661.77l-2.05,2.14c-5.93,4.08-12.66,5.71-18.81,8.66l-4.53-74.5c-.45-7.7-4.02-14.45-6.03-21.35,9.05-2.45,18.31-3.98,28.35-1.88l1.81,32.38,1.7,50.25c.06,1.68.03,3.03-.44,4.31Z"/>
    <path class="cls-2" d="M52.37,513.34c-2.01,16.31.6,35.33,17.17,44.68l7.36,4.16c9.56,5.4,19.44,8.96,30.05,11.82l7.93,2.14c19.18,5.17,38.98,6.32,59.58,7.43,34.32,1.84,68.09,1.38,102.2-2.1l19.71-3.29c13.96-2.33,27.58-6.83,40.84-12.7,1.95-.86,4.01-1.67,4.06-3.68,1.41.33,2.78-.41,4.09-1.46l16.04-12.92c.42.65.07,1.66,1.06,2.07-3.16,4.39-6.22,8.77-10.87,12.2l-8.43,6.23c-15.62,7.23-31.62,12.91-48.05,16.13l-23.37,3.33c-27.99,2.44-55.14,3.09-83.25,1.99-26.39-1.03-51.7-2.67-77.2-8.03-13.86-2.91-26.08-7.73-38.61-14.01-12.29-6.16-22.15-16.27-25.16-30.19-.78-3.61.69-15.6,2.32-21.94-.48-.41-1.18-.34-1.93-.5,1.42-.8,3.11-1.24,4.46-1.36Z"/>
    <path class="cls-2" d="M231.33,202.24l3.33.95c8.8-.81,16.94.84,25.56,1.39l15.88,1.02c4.5.29,9.39,1.26,13.74.4,1.69,1.68.14,3.67.07,5-.26.13-.54.09-.79,0-2.66-1.01-5.75-1.36-9.08-1.23l1.23,10.66-.25,4.17-1.01,5.94c-4.97,2.5-.59-10.89-9.82-21.21-17.48-2.31-34.85-2.88-52.83-2.8-14.06.07-46.75-.75-51.75,4.79-5.64,6.25-8.26,13.19-8.43,21.94-5.47-5.9-1.58-15.52,1.78-23.56-.89-1.75-4.28-2.31-6.01-1.45-6.19,3.07-5.49,8.73-7.02,15.03-2.56-4.44-1.37-8.89-1.53-13.78l-4.76-2.27c.07-.3.08-.56.05-.91,6.08-1.83,12.17-.94,18.4-1.34l41.94-2.7,31.3-.04Z"/>
    <path class="cls-5" d="M291.53,205.46c-.15.15-.56.2-.82.1,2.05-1.68,2.06-4.08,1.14-6.45.2,1.98-1.64,1.44-1.79,1.06s0-1.04-.7-1.54c-1.1-18.12-.67-36.22-.43-54.85.06-4.44-.16-8.46-2.48-12.55-5.65-9.98-12.08-19.03-19.68-27.55-1.91-3.87-4.35-7.33-7.82-9.85-1.08-.78-2.47-2.44-3.71-3.65-8.18-8-16-15.81-25.49-22.25-2.23-1.52-4.54-2.06-6.5-2.76-1.26-.45-2.15-.4-4.4.34l-4.15,1.36c-1.52.5-3.24,1.92-4.77,2.51.16-1.09.56-1.69,1.73-2.46,6.24-4.11,8.85-7.94,16.53-2.48,13.04,9.27,24.65,19.62,35.6,31.18,7.82,8.25,28.94,34.9,29.02,42.39l.36,32.13.65,29.69c.03,1.28.66,2.66-.12,3.87-.44.69-1.24.99-2.19,1.76Z"/>
    <path class="cls-17" d="M289.8,255.74c-.12,1.71-.04,3.4-.96,5.68-.32-1.94-1.17-1.12-1.92-.61-1.15.78-1.05,1.46-1.66,2.91-.18-3.7,1.39-6.45-2.6-8.52-4.23-2.19-2.43-5.45-2.46-8.9l-.17-15.76,1.01-5.94c1.33-7.83,8.54-8.71,8.09-13.6.25.09.53.13.79,0,2.06,6.4,2.18,13.15,1.67,20.2l-1.78,24.54Z"/>
    <path class="cls-2" d="M175.13,104.01l3.26-3.44c.54.08,1.22-.04,1.41.19.26.31.13,1.21.18,1.78l3.59,40.38c.24,2.67,1.31,5.34-1.3,7.7-5.94-13.22-3.17-28.72-7.91-43.06.45-.95,1.44-2.47.76-3.55Z"/>
    <path class="cls-5" d="M291.64,206.77c-.8.47,1.54,1.55,1.73,2.34,3.78,15.49,2.16,32.19-3.57,46.63l1.78-24.54c.51-7.05.39-13.8-1.67-20.2.07-1.33,1.62-3.33-.07-5,.52.46,1.34.82,1.8.77Z"/>
    <path class="cls-16" d="M359.65,458.48l-1.76,8.94c-2.9.31-3.69,2.28-4.38,4.66-2.23,7.78-6.79,14.88-13.85,18.03-2.09-3.09,1.21-5.43,2.42-8.04.73-1.58,1.98-3.4,3.83-4.23,4.93-2.21,9.72-14.13,12.15-20.83.61-.09,1.31.36,1.53.86.09.21.03.25.05.62ZM346.11,480.32c0-.45-.36-.81-.81-.81s-.81.36-.81.81.36.81.81.81.81-.36.81-.81Z"/>
    <path class="cls-1" d="M66.84,449.6c-.13-.62-.58-1.39-1.21-1.84l.31-24.46.9,10.23c.4,5.32.56,10.99,0,16.07Z"/>
    <path class="cls-10" d="M133.12,265.53c.27.8.11,1.38.04,1.96-.56.2-1.64.92-2.43.71-.22-.06-.74.24-.84.43-.16.31-.79.27-.83-.58,1.13-1.16,2.59-1.83,4.06-2.52Z"/>
    <path class="cls-15" d="M130.72,268.2c-.69,1.59-2.58,2.63-4.2,3.34-.14.06-.41.17-.85-.09.63-1.44,2.43-2.42,3.38-3.4.04.85.66.89.83.58.1-.2.62-.49.84-.43Z"/>
    <path class="cls-7" d="M135.53,264.87c.17.59-.21,1.26-.67,1.65-.42.36-1.09.75-1.71.97.07-.59.23-1.16-.04-1.96.76-.36,1.41-.81,2.42-.66Z"/>
    <path class="cls-16" d="M280.18,317.04c.09,3.84,2.64,6.38,5.24,9.33,11.18,12.73,22.19,25.29,29.59,40.08l4.53,9.05c7.64,15.26,10.93,32.51,12.69,50.23,3.26-1.04,6.2-3.15,8.31-5.73.26,0,.65-.09.89.08.45.33.24,1.05.29,1.58l2.26,26.51-.16,3.96c-1.84-1.12-3.2,1.36-4.36,1.6-2.04.43-4.31-1.98-5.61-.7l-1.26-26.43c-16.64,7.23-33.54,12.21-51.67,15.06-51.05,8.01-87.28,7.38-137.86-1.46-14.12-2.47-27.04-5.8-40.28-11.29-2.66-1.1-7.1-2.69-6.97-6.39,1.1-31.85,15.46-65.26,36.46-89.05l15.37-17.41c21.82,6.71,44.5,11.45,68.04,11.51,22.52.06,43.71-4.66,64.5-10.51Z"/>
    <path class="cls-16" d="M296.37,578.17l-19.71,3.29c-34.11,3.48-67.88,3.94-102.2,2.1-20.6-1.1-40.39-2.26-59.58-7.43,1.5-1.98,4.01-3.33,6.56-3.89,9.32-2.04,17.84-5.56,26.62-9.64l22.12-10.86c12.12-5.95,23.58-12.08,34.99-20.27,10.28,7.7,20.82,13.58,32.12,19.56,18.23,9.65,36.66,17.85,56.07,24.65,1.5.52,2.71,1.37,3,2.49Z"/>
    <path class="cls-2" d="M94.58,488.52c3.67,1.71,7.26,3.36,11.53,5.06l9.78,3.9c.03.54-.39,1.04-.77,1.47,34.08,11.61,97.69,17.45,132.14,12.76l40.55-5.52c8.15-1.11,15.34-3.83,21.97-7.94,8.94-2.85,17.7-6.36,25.65-11.14l6.67-5.05c-1.21,2.62-4.51,4.95-2.42,8.04l-3.32,2.44c-3.08.66-23.89,15.92-59.87,21.17-26.75,3.9-53.41,5.37-80.62,3.81-24.08-1.38-47.54-3.38-70.49-9.77l-23.17-8.91c-14.37-5.52-38.03-23.06-34.46-39.39,1.52,7.9,6.51,13.86,12.85,18.97,4.73,3.82,8.8,7.67,13.99,10.09Z"/>
    <path class="cls-2" d="M276.63,289.38c-.31,1.01.53,1.51,1.27,1.19.28-.12.5-.24.52-.72,1.2-.37,1.81-1.83,2.6-2.49,1.34-1.1,1.79-2.62,2.37-4.18.77-.4,1.33-1.4,2.18-1.45,1.16,3.3,3.92,3.69,5.23,5.58-5.41,3.33-11.22,5.8-17.4,7.1-18.14,3.8-36.08,7.06-55.24,7.37-22.86.37-44.68-2.78-66.87-8.24-1.7-.11-1.77,1.23-.47,1.78-1.09.45-1.64-1.95-2.58-2.33-11.53-4.7-25.61-10-21.73-21.46,1.63-.71,3.51-1.75,4.2-3.34.79.21,1.87-.51,2.43-.71.62-.22,1.29-.61,1.71-.97,2.31,5.65,1.94,13.23,6.89,16.09,10.93,6.32,22.46,9.89,35.21,11.11,13.6,1.31,26.75,3.18,40.33,2.6s26.33-1.85,39.48-3.37c6.86-.79,13.39-1.45,19.86-3.58Z"/>
    <path class="cls-12" d="M273.41,294.41c.51,1.36.01,2.5-.09,3.67-17.93,4.23-36.06,8.06-55.17,8.2-21.68.16-42.67-3.49-63.36-9.16-1.54-.42-2.66-2.33-3.97-1.79-1.29-.56-1.23-1.89.47-1.78,22.19,5.46,44.02,8.61,66.87,8.24,19.16-.31,37.1-3.58,55.24-7.37Z"/>
    <path class="cls-6" d="M343.81,452.11l2.1,25.72c-1.85.83-3.1,2.65-3.83,4.23l-6.67,5.05-1.37-26.44c-.06-1.54,1.28-3.6-.01-5.03.76-.98-.15-1.93-.19-2.63,1.3-1.28,3.57,1.14,5.61.7,1.16-.25,2.51-2.72,4.36-1.6Z"/>
    <path class="cls-2" d="M71.82,679.38c-3.07-2.46-3.31-6.01-3.21-9.24l.73-24.48,2.96-39.4c.24-3.16,2.72-5.94,1.38-9.94,1.95,1.2.8,2.84,1.36,4.18.7-.5-.69-2.79,1.7-3.24-2.4,10.4-2.38,20.11-2.81,30.55l-2.12,51.58Z"/>
    <path class="cls-2" d="M266.78,103.68c-.41-.45-1.46-1.41-2.66-2.04l-8.28,41.89c-.48,2.41-.46,4.85-2.48,7-2.92-2.41-1.92-5.78-1.41-9.28l7.01-47.41c3.47,2.52,5.91,5.98,7.82,9.85Z"/>
    <path class="cls-3" d="M223.26,65.17c-.71.67-2.6.46-2.15,1.68l-1.91,43.07-.87,26.39-.27,21.35c-.6,1.26-2.15.81-1.55-.68l1.41-89.78-3.22-.34,4.15-1.36c2.25-.74,3.15-.79,4.4-.34Z"/>
    <path class="cls-18" d="M290.71,205.56l-4.78-1.84c-.85-.33-2.04-.8-1.8-1.79.62-2.51,5.4.1,5.24-3.3.71.5.56,1.17.7,1.54s1.99.92,1.79-1.06c.92,2.38.91,4.77-1.14,6.45Z"/>
    <path class="cls-14" d="M286.8,272.54c-.34,3.84-2.13,7.2-3.41,10.64-.58,1.56-1.03,3.08-2.37,4.18-.94-1.36-1.66.09-2.23.69-.37.39-2.13,1.01-.38,1.8-.02.48-.24.6-.52.72-.74.32-1.58-.18-1.27-1.19,2.53-6.64.7-16.82,6.69-21.09l.93.49c.4.22.85-.43,1.78-.43-.41,1.79-.59,3.67.78,4.19Z"/>
    <path class="cls-3" d="M140.2,249.02c-.32,2.61.42,5.47-2.71,7-3.02-3.48-1.89-7.25-1.18-10.83,1.8-.04,2.82,2.1,3.89,3.83Z"/>
    <path class="cls-13" d="M148.94,265.73c-4.33-1.54-3.85-7.32-.82-10.48,1.83,3.05,2.35,6.21.82,10.48Z"/>
    <path class="cls-8" d="M140.2,249.02c-1.07-1.73-2.09-3.88-3.89-3.83.5-2.55.93-5.11,3.79-6.6.53,4.08.52,6.96.1,10.43Z"/>
    <path class="cls-4" d="M181.89,278.55c-.84-.71,1.06-3.53,2.14-3.32,1.18.24,1.08,1.66.85,2.33-.34.98-1.54,2.22-2.99,1Z"/>
    <path class="cls-11" d="M290.81,287.31c-1.31-1.9-4.07-2.28-5.23-5.58-.85.05-1.41,1.05-2.18,1.45,1.28-3.44,3.07-6.8,3.41-10.64.21-2.39-.05-5.18,2.17-7.08,4.28,1.73,8.06,5.26,8.64,9.75.52,4.01-3.53,7.38-6.13,10.07.52,1.42-.11,1.71-.68,2.03Z"/>
    <path class="cls-9" d="M362.47,549.47c-.99-.41-.64-1.41-1.06-2.07,2.37-1.91,3.27-4.94,3.42-8.03l.55-11.43c1.11,5.51,1.6,11.46.33,17.03l-3.24,4.49Z"/>
    <path class="cls-16" d="M291.53,205.46c-.15.15-.56.2-.82.1l-4.78-1.84c-.85-.33-2.04-.8-1.8-1.79.62-2.51,5.4.1,5.24-3.3-1.1-18.12-.67-36.22-.43-54.85.06-4.44-.16-8.46-2.48-12.55-5.65-9.98-12.08-19.03-19.68-27.55-.41-.45-1.46-1.41-2.66-2.04l-8.28,41.89c-.48,2.41-.46,4.85-2.48,6.99-2.92-2.41-1.92-5.78-1.41-9.28l7.01-47.41c-1.08-.78-2.47-2.44-3.71-3.65-8.18-8-16-15.81-25.49-22.25-2.23-1.52-4.54-2.06-6.5-2.76-.71.67-2.6.46-2.15,1.68l-1.91,43.07-.87,26.39-.27,21.35c-.6,1.26-2.15.81-1.55-.68l1.41-89.78-3.22-.34c-1.52.5-3.24,1.92-4.77,2.51-11.26,9.49-21.39,20.48-31.54,31.18.54.08,1.22-.04,1.41.19.26.31.13,1.21.18,1.78l3.59,40.38c.24,2.67,1.31,5.34-1.3,7.7-5.94-13.22-3.17-28.72-7.91-43.06.45-.95,1.44-2.47.76-3.55l-15.31,16.88c-7.2,7.94-13.08,16.51-19.57,25.29l-1.31,18.22-.4,14.95c-.2,7.61.05,15.29-1.31,23.02.67,1.22,2.37,2.77,2.46,3.96,6.08-1.83,12.17-.94,18.4-1.34h0l41.94-2.7,31.3-.04,3.33.95c8.8-.81,16.94.84,25.56,1.39l15.88,1.02c4.5.29,9.39,1.26,13.74.4.52.46,1.34.82,1.8.77.1-.16-.12-.94-.11-1.31ZM272.33,195.25c.71-.18,1.41-.45,2.08-.87-.67.41-1.37.69-2.08.87ZM261.41,196.53l1.47-.39-1.47.39c-.54.14-.97.98-.94,1.65-.03-.67.4-1.51.94-1.65ZM273.39,192.98c-1.45-.67-3-1.05-4.58-1.25,1.58.2,3.13.58,4.58,1.25ZM212.99,188.25c-.22-.04-.44-.07-.66-.11.22.04.44.07.66.11ZM210.91,187.9c-.26-.04-.53-.07-.79-.11.26.04.53.07.79.11ZM202.84,187.22c-.28,0-.55,0-.82,0,.27,0,.55,0,.82,0ZM208.86,187.62c-.28-.03-.56-.06-.84-.09.28.03.56.05.84.09ZM206.83,187.42c-.29-.02-.57-.04-.85-.06.28.02.57.04.85.06ZM204.82,187.29c-.28-.01-.56-.02-.84-.03.28.01.56.02.84.03ZM200.9,187.22c-.27,0-.54,0-.8.02.27,0,.53-.01.8-.02ZM198.99,187.27c-.26.01-.52.02-.77.04.26-.01.51-.03.77-.04ZM197.12,187.37c-.25.02-.5.04-.74.06.25-.02.49-.04.74-.06ZM195.28,187.53c-.23.02-.47.05-.7.07.23-.02.46-.05.7-.07ZM193.49,187.72c-.22.03-.44.05-.65.08.22-.03.43-.06.65-.08ZM191.74,187.96c-.2.03-.4.06-.59.09.2-.03.39-.06.59-.09ZM190.02,188.24c-.17.03-.34.06-.5.09.16-.03.33-.06.5-.09ZM188.32,188.56c-.13.03-.26.05-.38.08.13-.03.26-.05.38-.08ZM186.59,188.93c-.06.01-.11.02-.17.04.06-.01.11-.02.17-.04ZM182.21,190.08c-.07.02-.14.04-.21.07.07-.02.14-.04.21-.07ZM180.98,190.46c-.11.04-.21.07-.32.11.11-.04.21-.07.32-.11ZM179.82,190.85c-.12.04-.24.08-.36.12.12-.04.23-.08.36-.12ZM178.75,191.23c-.13.05-.25.09-.38.14.13-.05.25-.09.38-.14ZM177.76,191.6c-.13.05-.25.1-.38.15.12-.05.25-.1.38-.15ZM176.87,191.96c-.13.05-.25.1-.37.15.12-.05.24-.1.37-.15ZM176.07,192.3c-.12.05-.24.11-.35.16.12-.05.23-.1.35-.16ZM175.36,192.61c-.12.05-.23.11-.34.16.11-.05.22-.11.34-.16ZM174.76,192.91c-.11.05-.21.11-.31.16.1-.05.2-.1.31-.16ZM173.33,193.74c-.05.04-.1.08-.12.11h0s0,0,0,0c-.03-.04-.07-.1-.13-.16.05.06.1.12.13.16.02-.03.07-.07.12-.11ZM174.25,193.17c-.1.05-.2.11-.28.16.09-.05.18-.1.28-.16ZM173.85,193.4c-.09.05-.17.1-.24.15.07-.05.15-.1.24-.15ZM173.54,193.59c-.07.05-.14.09-.19.13.05-.04.12-.09.19-.13ZM173.07,193.67c-.05-.06-.12-.13-.2-.21.08.08.15.15.2.21ZM172.83,193.42c-.08-.08-.18-.16-.28-.24.11.09.2.17.28.24ZM172.48,193.13c-.11-.09-.24-.18-.38-.27.14.09.27.18.38.27ZM172.04,192.82c-.15-.09-.3-.19-.48-.28.18.09.33.19.48.28ZM171.52,192.52c-.18-.1-.38-.19-.59-.28.21.09.41.19.59.28ZM170.83,192.19c-.21-.09-.44-.17-.68-.25.24.08.47.17.68.25ZM170,191.89c-.25-.08-.51-.15-.79-.22.28.07.54.14.79.22ZM169.03,191.62c-.29-.07-.6-.13-.92-.18.33.05.63.11.92.18ZM167.95,191.42c-.35-.05-.71-.09-1.1-.12.39.03.75.07,1.1.12ZM166.75,191.29c-.39-.03-.8-.04-1.23-.05.43,0,.84.02,1.23.05ZM165.4,191.24c-.44,0-.9.02-1.38.04.48-.03.94-.04,1.38-.04ZM160.1,191.8c-.59.11-1.21.25-1.85.4.64-.16,1.26-.29,1.85-.4ZM163.8,191.3c-.47.03-.97.08-1.49.15.52-.06,1.02-.11,1.49-.15ZM162.03,191.48c-.53.07-1.07.16-1.65.26.57-.11,1.12-.19,1.65-.26ZM158.82,198.96c0,.85.05,1.66.1,2.33l.84.15-.84-.15c-.06-.67-.1-1.48-.1-2.33ZM159.13,195.01c-.1.42-.17.91-.22,1.44.05-.53.12-1.02.22-1.44h0ZM158.03,192.26c-.68.17-1.39.36-2.13.58h0c.74-.22,1.45-.41,2.13-.58ZM157.05,194.32c.42.27.86.38,1.28.47-.42-.09-.86-.2-1.28-.47ZM160.07,201.76c.16-.07.34-.13.54-.16h0c-.2.03-.37.09-.54.16ZM188.82,191.59h0c1.2,2.28,3.13,3.92,5.09,5.35-1.96-1.43-3.9-3.07-5.09-5.35ZM221.97,188.88c-1.02-.04-1.9,0-2.73.03.83-.04,1.71-.08,2.73-.03.34-.27.77-.59,1.25-.9-.48.31-.91.63-1.25.9ZM245.72,191.98c-2.08-.58-4.15-1.02-6.23-1.34,2.07.32,4.15.76,6.23,1.34h0ZM228.48,187.23c-.31-.17-.61-.28-.92-.35s-.62-.1-.93-.1c.31,0,.62.03.93.1s.62.19.92.35c6.25.42,12.49,1.02,18.55,2.56-6.06-1.54-12.29-2.14-18.55-2.56ZM248.67,190.23c1.09.31,2.18.66,3.26,1.04-1.08-.38-2.17-.73-3.26-1.04ZM261.11,199.03c-.29-.07-.47-.24-.57-.47.09.23.28.4.57.47.9.21,1.85.38,2.83.54-.97-.16-1.92-.33-2.83-.54ZM275.39,204.67h0s0,.02.02.03c-.01-.01-.02-.02-.02-.03ZM276.3,203.11c-.53-.36-1.09-.68-1.67-.97.58.28,1.14.6,1.67.97h0Z"/>
    <path class="cls-16" d="M289.12,210.99c.44,4.89-6.76,5.77-8.09,13.6l.25-4.17-1.23-10.66c3.33-.13,6.42.22,9.08,1.23Z"/>
    <circle class="cls-11" cx="345.3" cy="480.32" r=".81"/>
    <path class="cls-16" d="M309.77,498.26c-6.63,4.1-13.81,6.83-21.97,7.94l-40.55,5.52c-34.44,4.69-98.06-1.15-132.14-12.76.38-.44.8-.93.77-1.47,8.85,3.53,18.19,4.56,28.01,6.21,21.58,3.61,42.85,5.59,64.59,6.81l16.34-.14c16.23-.14,31.76-1.75,47.76-4.57l30.25-5.32,6.92-2.21Z"/>
    <path class="cls-12" d="M281.02,287.36c-.8.65-1.4,2.12-2.6,2.49-1.75-.79.01-1.41.38-1.8.57-.6,1.29-2.05,2.23-.69Z"/>
    <path class="cls-16" d="M334.05,460.67c-.06-1.54,1.28-3.6-.01-5.03-3.08-.17-6.08,1.3-9.07,2.3h0l-15.18,5.07c-6.02,2.01-12.49,4.04-18.74,5.69.43,1.55-.23,3.25-1.53,3.93-3.71,1.54-8.2.97-11.95,1.94.01-.62-.22-.81-.52-.99-.35-.2-1.39-.26-1.97-.19l-9.89,1.07c-4.62,1.6-9.18,2.22-14.16,1.27-9.35,3.61-18.96,3.98-28.63,3.67h0l-11.37-.36-18.45-2.19-35.41-4.85-9.15-2.49c-8.68-2.36-17.67-2.86-26.13-6.03l-15.06-3.19c-2.3-.49-4.82-.67-6.79,1.62l-5.73-2.31c-1.21,9.55-2.86,21.57.25,28.92,3.67,1.71,7.26,3.36,11.53,5.06l9.78,3.9c8.85,3.53,18.19,4.56,28.01,6.21,21.58,3.61,42.85,5.59,64.59,6.81l16.34-.14c16.23-.14,31.76-1.75,47.76-4.57l30.25-5.32,6.92-2.21c8.94-2.85,17.7-6.36,25.65-11.14l-1.37-26.44ZM230.51,481.91c1.08-.3,2.18-.83,3.31-1.6-1.14.77-2.23,1.3-3.31,1.6ZM266.7,475.18c-.64-.06-1.3-.09-1.92.15.61-.24,1.28-.21,1.92-.15ZM264.78,476.06c-.3-.19-.44-.45-.45-.49,0,.05.14.31.45.49.56.01,1.13.05,1.71.07-.58-.02-1.15-.06-1.71-.07ZM268.23,476.06c.39-.05.77-.14,1.15-.27h0c-.38.13-.76.22-1.15.27Z"/>
    <path class="cls-6" d="M327.33,372h0l-4.93-9.91c-5.85-11.76-14.03-22.1-23.33-31.96l-12.43-13.19c-1.15-1.22-2.2-2.84-2.24-4.07-2.33.35-4.28,1.96-4.23,4.16.09,3.84,2.64,6.38,5.24,9.33,11.18,12.73,22.19,25.29,29.59,40.08l4.53,9.05h0c7.64,15.26,10.93,32.51,12.69,50.23,3.26-1.04,6.2-3.15,8.31-5.73-2.01-16.45-5.86-33.22-13.21-47.99ZM282.59,318.33c-.3-.24-.39-.51-.36-.75-.03.24.06.52.36.75.46,1.14,1.01,2.1,1.61,2.95-.6-.85-1.15-1.81-1.61-2.95ZM288.59,324.76c.17-.11.33-.25.47-.43-.14.18-.3.32-.47.43ZM288.03,325.02s.08-.03.12-.04c-.04.02-.08.03-.12.04ZM289.25,324.03c-.24-.19-.49-.4-.74-.62.25.22.5.43.74.62h0ZM292.25,327.05c.76.92,1.49,1.87,2.23,2.81-.74-.93-1.46-1.89-2.23-2.81ZM296.34,332.55c-.37.14-.64.31-.89.51.25-.2.52-.38.89-.51.12-.05.25-.09.4-.12h0c-.15.04-.28.08-.4.12ZM297.19,335.58c.21.32.36.71.4,1.23-.04-.52-.19-.91-.4-1.23ZM318.86,362.57c.12.21.36.42.62.6-.26-.18-.5-.38-.62-.6h0l-1.64-2.93,1.64,2.93ZM318.71,368.63h0l1.71,4.03-1.71-4.03ZM321.21,374.52c.13-.04.33-.02.53,0-.2-.02-.4-.04-.53,0ZM324.59,373.11c.42-.32.76-.6,1.16-.8-.41.2-.75.48-1.16.8ZM331.19,402.54c.51-.25.98-.38,1.47-.43-.49.05-.97.18-1.47.43Z"/>
  </g>
</svg>