<?xml version="1.0" encoding="UTF-8"?>
<svg id="Réteg_1" data-name="Réteg 1" xmlns="http://www.w3.org/2000/svg" viewBox="0 0 409.19 709.78">
  <defs>
    <style>
      .cls-1 {
        fill: #183557;
      }

      .cls-2 {
        fill: #e8b9ae;
      }

      .cls-3 {
        fill: #1c395c;
      }

      .cls-4 {
        fill: #38537b;
      }

      .cls-5 {
        fill: #f8f4e9;
      }

      .cls-6 {
        fill: #f39ea5;
      }

      .cls-7 {
        fill: #eca29f;
      }

      .cls-8 {
        fill: #32466b;
      }

      .cls-9 {
        fill: #3b5b85;
      }

      .cls-10 {
        fill: #fcddb8;
      }

      .cls-11 {
        fill: #81748c;
      }

      .cls-12 {
        fill: #f5b6a7;
      }

      .cls-13 {
        fill: #f7efe3;
      }

      .cls-14 {
        fill: #3e649e;
      }

      .cls-15 {
        fill: #f3abb2;
      }

      .cls-16 {
        fill: #fbeddd;
      }
    </style>
  </defs>
  <g id="Generatív_objektum_0_0_" data-name="Generatív objektum (0, 0)">
    <path class="cls-11" d="M197.94,701.82h4.27s8.06-.23,8.06-.23c1.41-.04,2.49.99,3.53,1.54l-71.41.14c-.09-.58.5-1.44,1.51-1.44h54.03Z"/>
    <g>
      <path class="cls-5" d="M189.93,46.55c1.68,4.15-.34,8.19-.24,12.58l1.35,57.09,1.41,32.47,11.56.74c-9.1,12.86-20.55,5.54-36.03,10.92-19.21,1.33-38.18,7.78-54.09,18.99l.67-55.74c.1-8.28,7.86-15.68,11.94-21.66-.39,3.41,4.76-2.95,9.97-10.17,2.37-3.29,4.7-6.55,8.98-5.76l7.65,37.25c5.52-4.37.65-9.16-.02-13l-5.37-31.17c2.44-.77,5.54-1.97,7.75-4.13,9.31-9.12,18.53-17.49,29.38-24.54.96,1.45,2.07,2.94,2.8,2.58-.07-2.95.02-4.74-1.1-5.43,1.02-.53,2.21-.85,3.39-1.02Z"/>
      <path class="cls-15" d="M222.45,70.91l.91,52.33c.17,8.37-.14,16.57-1.11,26.47l11.91,3.25c-.99,5.49-5.59,5.98-9.23,6.53l-5.51.82c-4.17-2.18-9.19-1.18-13.77-1.15l-3.12.02-18.73.19c-4.64.05-8.72,1.37-12.94,1.14l-2.89-.16c15.48-5.37,26.93,1.94,36.03-10.92l-11.56-.74-1.41-32.47c.41.18,1.44.24,1.86-.07.46-.34.96-1.53.95-2.71l-.89-65.34c2.77.67,6.35,3.13,9.06,5.43l20.44,17.37Z"/>
      <path class="cls-14" d="M269.18,182c.5-2.73-1.02-3.79-3.26-5.28-8.45-5.66-17.03-9.37-27.09-11.32-4.15-.8-7.95-2.94-11.81-2.68l-2.08-3.22c3.64-.54,8.23-1.04,9.23-6.53l-11.91-3.25c.97-9.9,1.28-18.11,1.11-26.47.76,1.07,1.15,2.58,2.61,3.25,7.14-18.3-.49-35.85,6.46-46.15l9.71,10.11c4.34,4.51,8.9,7.88,12.5,13.31,3.84,5.81,9.37,11.03,12.07,17.86l1.67,18.17,1.18,31.85c.14,3.8,2.31,7.51-.39,10.36ZM249.32,155.84c-3.34-3.42-7.34-3.74-11.59-3.48,3.66,1.92,6.77,4.26,11.59,3.48ZM251.58,156.93l-.93.03.93.03h.96l.93-.03-.93-.03h-.96Z"/>
      <path class="cls-9" d="M232.43,80.34c-6.95,10.29.68,27.85-6.46,46.15-1.46-.67-1.85-2.18-2.61-3.25l-.91-52.33,9.98,9.44Z"/>
      <path class="cls-6" d="M192.95,48.1l.89,65.34c.01,1.19-.49,2.37-.95,2.71-.42.31-1.45.25-1.86.07l-1.35-57.09c-.1-4.39,1.92-8.44.24-12.58,1.53-.22,2.16,1.34,3.03,1.55Z"/>
      <path class="cls-13" d="M186.54,47.56c1.11.7,1.03,2.49,1.1,5.43-.73.35-1.84-1.13-2.8-2.58-10.85,7.05-20.07,15.42-29.38,24.54-2.21,2.16-5.31,3.37-7.75,4.13-.13-.75.23-1.85,0-2.79,4.04-5.3,25.74-22.32,35.18-28,1.34-.81,2.91-.43,3.66-.75Z"/>
      <path class="cls-10" d="M147.71,79.1l5.37,31.17c.66,3.83,5.53,8.62.02,13l-7.65-37.25c-.32-1.56.36-4.33-1.85-5.64,1.22-1.08,3.18-2.86,4.1-4.07.24.94-.12,2.04,0,2.79Z"/>
      <path class="cls-13" d="M145.46,86.02c-4.28-.79-6.61,2.47-8.98,5.76-5.22,7.22-10.37,13.58-9.97,10.17,5.28-7.74,10.23-15.5,17.1-21.57,2.21,1.31,1.53,4.08,1.85,5.64Z"/>
      <path class="cls-15" d="M167.98,160.35l2.89.16c-.8,1.83-2.74,1.35-4.23,1.57-3.65.54-8.19.8-9.92,4.31-8.3-.85-15.25,2.93-22.03,6.49-8.35-1.33-16.57,6.11-19.26,13.43-1.97-1.87-1.56-4.44-1.53-6.96,15.91-11.21,34.88-17.66,54.09-18.99Z"/>
      <path class="cls-4" d="M202.53,159.17l-.32,4.34-17.07.14-4.29-.27-11.51.07c-1.52,0-2.58-.55-2.7-1.38,1.49-.22,3.43.26,4.23-1.57,4.22.23,8.29-1.1,12.94-1.14l18.73-.19Z"/>
      <path class="cls-8" d="M205.65,159.16c-.23.43.12,1.3.91,1.29l12.86-.13,5.51-.82,2.08,3.22c-3.11.21-7.29-.39-9.14,2.48-4.26-.74-8.59-.65-12.83-.64-.93,0-2.04-.68-2.82-1.03l.32-4.34,3.12-.02Z"/>
      <path class="cls-4" d="M219.42,160.31l-12.86.13c-.8,0-1.14-.86-.91-1.29,4.58-.03,9.61-1.03,13.77,1.15Z"/>
      <path class="cls-4" d="M249.32,155.84c-4.82.78-7.93-1.56-11.59-3.48,4.25-.26,8.25.05,11.59,3.48Z"/>
      <polygon class="cls-4" points="251.58 156.93 252.54 156.93 253.47 156.95 252.54 156.98 251.58 156.98 250.65 156.95 251.58 156.93"/>
      <g>
        <path class="cls-5" d="M112.63,272.16c3.18.6,4.44,3.86,5.35,7.04,1.35,4.75,4.92,7.79,7.17,11.33.38.59,1.27.93,1.83,1.26,1.07.64,1.99,1.47,2.77,2.42-.21,7.36,9.36,11.07,10.02,18.8-2.04-.08-3.44-1.4-6.43-.73,1.12,1.87,2.61,2.72,3.15,3.78.97,1.88-.13,3.93-1.36,5.91-15.3,24.68-27.51,50.72-32.74,78.91-21.23,1.03-44.27,16.47-48.17,37.04l-5.39,14.15-.25-21.67c.23-14.85,2.87-33.13,2.95-48.56.02-4.96,1.26-10.31,1.72-15.23,1.45-15.66,4.41-30.42,11.32-44.03,8.23-16.25,17.56-29.76,29.52-43.47,3.72-4.26,4.66-11.51,7.94-15.99,6.41,3.47,5.86,8.16,10.61,9.05ZM130.52,311.18l-.93.03.93.03h.96l.93-.03-.93-.03h-.96Z"/>
        <path class="cls-14" d="M341.5,423.35c-.63.1-1.22,1.21-1.23,2.73l-.16,16.25c-9.97-8.59-21.22-14.52-33.97-17.32,1.64-1.7,3.95-1.98,7.99-1.91-3.36-39.5-4.82-84.53-26.31-118.83-11.82,3.45-19.71,14.29-19.39,26.81l1.99,77.95c.14,5.48,1.21,9.66,4.67,13.35-2.43,3.9-12.81,3.5-14.83-.82-1.84-3.91-1.7-7.16-3.47-10.06-1.61-2.64-1.1-7.83-3.28-10.98-1.21-1.74-3.87-1.58-5.29-1.36-1.28-2.49-1.83-5.15-1.86-8.63l-.24-38.69c-.2-32.43,11.45-41.52,17.99-56.91,2.96-6.95,5.24-15.25,9.96-21.13,3.66-4.56,7.18-8.74,9.27-15.06,5.11,4.85,10.73,10.36,12.01,18.3,18.59,13.96,31.78,43.38,36.34,66.36l2.97,5.69,3.97,28.46,1.36,22.8c.5,8.28,1.39,15.57,1.51,23.01Z"/>
        <path class="cls-5" d="M95.11,412.91c8.33.12,16.2,3.66,23.77,8.54-5.92,5-9.91,9.57-13.52,14.72l-11.19,15.91c-5.25,10.3-10.53,20.41-15.01,30.93l-15.19,35.74c-.97,2.28-2.57,3.56-3.11,5.69-.7,2.72-1.94,5.42-2.68,8.57l-2.39,10.22-9.82,28.16c-2.69,8.26-4.08,16.56-4.3,26.22l-1.92,84.64c-3.23-1.74-6.36-3.52-9.66-5.51l-.07-90.48c0-3.84,1.85-7.66,1.44-11.5-.77-7.13,2.88-12.33,7.13-17.06,3.22-3.58,2.7-9.47,3.11-14.04l4.76-52.62c.31-3.44-2.81-7.05.79-10.9,1.1-1.18.8-5,1.75-6.25,2.47-3.26,2.78-9.25,3.68-13.33l9.37-10.4c1.86-2.16,4.08-2.71,4.72-5.08.88-3.23-.72-5.32-5.12-5.65,2.49-3.71,3.79-5.18,3.82-7.88.01-1,.59-1.8,1.19-2.56.61-.48,1.14-1.11,1.46-1.82.47-1.03.99-2.02,1.74-2.78,6.93-6.93,15.4-11.64,25.25-11.5Z"/>
        <path class="cls-14" d="M345.84,510.1c2.75,4.97,3.21,10.29,3.58,16.12,1-2.82,1.57-5.57,1.88-7.27-1.17,5.81,2.28,11.45,2.76,17.44.56,7.01,1.65,13.56,1.66,19.86l.29,132.43c2.28,1.58,9.37-.28,9.35-2.64l-1-61.34-1.5-49.84-3.78-8.38c.7-3.45,2.93-5.93,2.48-8.86l7.94,3.8c3.14,9.8,3.03,19.9,3.39,30.42l.59,17.13c.15,4.37.62,8.32.76,12.77l.83,26.54.23,11.15c.17,8.33,1.73,17.84-.4,26.03-1.55,4.78-10.83,8.67-15.04,7.15-4.4-1.59-9.62.22-15.25,2.97l.63-29.25c.11-4.91,1.62-9.87.23-17.11-1.71,5.55-2.57,11.16-2.3,16.94-1.13,1.75-2.96,2.85-4.89,3.57l-3.63-.5,1.2-44.57c.81-28.16.78-55.77-1.67-82.97l-6.85-29.55c-1.45-6.25-5.82-12.41-12.71-13.15-3.34-.36-7.67,1.62-9.83,3.2.58-2.4,2.48-3.87,5.42-4.81l-1.26-2.96,4.61-2.62c13.76-1.78,25.68,6.43,32.27,18.32Z"/>
        <path class="cls-14" d="M340,453.57l6.17,25.45c2.62,10.8,4.7,21.5,3.69,32.01-.78-.84-1.56-1.57-2.62-2.17-1.3-6.13-4.55-12.32-6.34-18.65-1.33-4.7-2.65-4.71-6.6-6.95-4.94-2.8-8.22-9.27-12.24-12.59,5.58-15.52-6.61-33.89-24.38-38.87-2.77-.77-5.21-1.59-7.08-2.96,14.7-6.01,46.72,13.69,49.39,24.72Z"/>
        <path class="cls-1" d="M361.58,557.62c.45,2.92-1.78,5.4-2.48,8.86l3.78,8.38,1.5,49.84,1,61.34c.02,2.36-7.07,4.22-9.35,2.64l-.29-132.43,5.85,1.38Z"/>
        <path class="cls-8" d="M58.71,597.69l-.1,8.34-.31,47.23.05,8.7v25.29c0,5.36,6.85,2.2,9.04,3.44,2.89,1.64,7.78,1.29,11.24,2.59,8.47,3.19,16.13,4.28,25.16,5.12l12.85,1.19c6.24.58,12.52.7,18.89.72l5.54.02c-9.07,2.81-15.2-.07-17.19,2.89-13.24-.02-26.37-1.09-39.87-4.25l-17.15-4.01c-5.26-1.23-8.71-3.66-13.56-5.09l-12.39-3.66c.71-1.35,2.03-1.79,3.28-1.57.79.43,2.17.33,3.03.38,8.75,4.04,2.28-5.29,8.97-13.31-5.06-5.07-4.38-11.64-.68-17.18l-.15-55c0-.66-2.73-2.09-2.31-2.57l2.16-2.48c.83-.96.73-2.41.46-3.31-.3-.99-1.79-1.46-3.38-.82.1-2.6.91-5.95.09-8.4l1.86-27.24c.25-4.18.75-8.02,1.56-11.48l2.39-10.22c.82-.24,2.02-1.46,2.49-.96.53.56,1.12,3.44.99,4.14-4.01,21.46-2.71,41.53-2.96,61.49Z"/>
        <path class="cls-14" d="M208.17,547.57c.76,6.95,1.59,13.51,1.34,21.67,2.46-2.87,1.05-6.01,1.14-8.8,2.16.97,1.39,3.23,1.45,5.74l3.37,133.88c1.58,2.99,7.39,2.92,9.93,2.97l8.95.17c.97.02,2.24,1.77,3.97,1.15,1.18-.43,2.54-1.69,3.58-2.88-.08,1.07.09,2.76,1.07,3.05,1.66.48,3.33.18,4.78.16-2.25,2.38-6.31,1.33-9.87,1.37-8.77.12-16.9.86-24.09-2.93-1.04-.55-2.12-1.58-3.53-1.54.6-.43,1.34-1.16,1.45-1.93.14-.98-1.11-1.49-1.36-2.03-.69-1.51-2.56-3.48-4.29-4.28,1,.32,2.54.04,3.16-.96.45-.73.97-2.45.95-3.39l-1.19-47.28.26-2.54-.02-2.34-1.12-19.24c-.51-8.77-.35-17.64-1.13-27.04l-2.69-32.56-.14-12.43c.95,1.25,2.33,1.93,4.03,2.02Z"/>
        <path class="cls-3" d="M275.09,422.37l6.84.89c8.64-.5,16.51.05,24.21,1.74,12.75,2.8,24,8.73,33.97,17.32l.05,8.13-.17,3.12c-2.67-11.03-34.69-30.73-49.39-24.72l-3.46.15c.19-1.74-.97-1.47-1.67-1.53-1.85-.17-3.27.22-3.56,1.68l-5.72,1.36c-3.12-3.5-7.93-.91-11.33,1.6-2.47-2.26-5.15-4.49-8.43-4.26,1.99-3.08-3.44-9.37.36-16.36,1.77,2.9,1.63,6.15,3.47,10.06,2.03,4.32,12.4,4.71,14.83.82Z"/>
        <path class="cls-4" d="M69.86,424.41c-.75.75-1.27,1.74-1.74,2.78l-1.46,1.82c-.6.76-1.18,1.57-1.19,2.56-6.35,1.58-10.43,18.23-12.79,29-.89,4.08-1.21,10.08-3.68,13.33-2.14-7.16-2.33-16.14-.16-21.84l5.39-14.15c2.98-7.83,9-12.49,15.28-17.64l.34,4.14Z"/>
        <path class="cls-1" d="M274.84,252.03c3.72.69,6.12,4.44,8.49,6.7-2.08,6.32-5.61,10.5-9.27,15.06l-3.8-.39c.72-5.13.39-10.51-1.09-15.56l3.54-8.86c.63,1.59,1.43,2.93,2.13,3.06Z"/>
        <path class="cls-14" d="M257.78,697.66c6.12,2.56,12.84,1.45,19.37,1.58l2.13.04.98,1.19c.65.79,1.57,1.38,2.64,1.28l3.15-.3,14.64.4-20.26,2.19-27,.58c.65-.71,1.69-1.87.68-2.77-2.04.31-2.91.02-3.94-.29-.88-.27-1.37-1.32-.89-2.54l2.83-1c1.41-.5,4.31-.94,5.7-.36ZM254.2,698.96l-.71.71.71.71.71-.71-.71-.71Z"/>
        <path class="cls-3" d="M359.87,692.6c-2.01,2.85-5.87,4.83-9.51,4.79-5.95-.08-9.95,4.13-15.09,4.72l-30.83,3.54-21.1.52c-1.59.04-2.64-.57-2.92-2.13l20.26-2.19c10.15.27,20.78-1.6,30.98-2.64,2.58-.26,9.4.19,9.51-3.5l.53-18.49c.08-2.81,1.18-6.92-2.86-6.8,0,.1-.43-.37-.54-.71,1.93-.72,3.75-1.82,4.89-3.57l2.07.17-.63,29.25c5.64-2.75,10.85-4.55,15.25-2.97Z"/>
        <path class="cls-13" d="M116.69,250.46c.54-.08,1.45,1.01,1.75,1.5-4.52,1.07-8.3,3.54-7.59,8.54l.2,1.42c-.7.42-.57,1.04-.04,1.44l.76,3.08.85,5.72c-4.75-.89-4.2-5.58-10.61-9.05,3.71-5.06,7.8-11.61,14.67-12.65Z"/>
        <path class="cls-1" d="M155.2,700.44l41.32-.06,1.43.03v1.41s-54.05,0-54.05,0c-1.01,0-1.6.86-1.51,1.44l-18.53-.03c1.98-2.96,8.11-.08,17.19-2.89,4.39-.67,9.61.11,14.15.1Z"/>
        <path class="cls-8" d="M253.41,704.62l-5.64.06c-1.45.02-3.12.32-4.78-.16-.98-.28-1.15-1.98-1.07-3.05l.09-1.15h3.3c1.43-.02,2.66-.84,3.96-1.3-.47,1.21,0,2.27.89,2.54,1.03.31,1.9.6,3.94.29,1.01.9-.03,2.06-.68,2.77Z"/>
        <path class="cls-4" d="M39.75,682.26l4.42,2.39c-1.26-.22-2.57.22-3.28,1.57-4.21-1.24-10.8-4.03-10.8-9.47,3.31,1.99,6.44,3.77,9.66,5.51Z"/>
        <path class="cls-8" d="M349.86,511.03l1.45,7.91c-.32,1.7-.89,4.45-1.88,7.27-.38-5.83-.83-11.15-3.58-16.12.8-.42,1.22-.76,1.4-1.23,1.06.6,1.84,1.33,2.62,2.17Z"/>
        <path class="cls-11" d="M340.16,450.45l-.05-8.13.16-16.25c.01-1.52.6-2.63,1.23-2.73l.41,25.62c.02,1.09-1.31,1.78-1.75,1.49Z"/>
        <path class="cls-3" d="M176.25,318.13c8.47,2.19,17.56.54,26.17-.31.26,2.2.65,4.21,2.4,5.68.44.37.99,1.23,1.68,1.23v1.47s-.13,18.93-.13,18.93c-1.9-.8-4.09-1.98-6.29-2l-15.09-9.64c-.64-.38-2.92-.6-3.36-.16s-.65,1.38-.81,3.32c1.63,1.24-1.06,3.99-1.59.88.3-1.65.85-4.6-.96-5.82l-8.59-5.82c-3.57-2.42-6.22-6.27-10.41-8.24l.18-6.31c5.19,2.76,10.93,5.29,16.79,6.8Z"/>
        <path class="cls-8" d="M159.46,311.33l-.18,6.31c-.99-.46-2.7-.68-3.8-.48l-3.09.55c-3.9-8.19-13.74-16.08-21.2-23.25-.08-.33-.4-2.39-.34-3.14.04-.42,1.14-.41,1.8-.44,7.58,8.73,16.69,15.05,26.81,20.44Z"/>
        <path class="cls-11" d="M116.61,268.48l6.92,13.73c.5.99,1.7,1.9,2.41,2.01.58.09,1.43-.67,1.87-1.18l4.85,7.85c-.66.02-1.76.02-1.8.44-.06.75.26,2.81.34,3.14l-1.44-.25c-.79-.95-1.7-1.78-2.77-2.42l-1.83-1.26c-2.25-3.54-5.82-6.58-7.17-11.33-.91-3.18-2.17-6.44-5.35-7.04l-.85-5.72,2.04-.03c.56,1,2.01,1.52,2.79,2.07Z"/>
        <path class="cls-8" d="M121.4,268.6c-1.15,1.88-3.41.59-4.79-.12-.78-.55-2.23-1.07-2.79-2.07.09-2.37-.76-4.8-2.97-5.91-.71-5,3.07-7.47,7.59-8.54,2.9,4.77,1.85,11.34,2.96,16.64Z"/>
        <path class="cls-10" d="M139.78,313c.38,4.43,3.88,7.27,6.2,9.48,4.25,4.06,7.06,6.66,13.39,8.64,6.16,1.93,10.23,9.94,12.77,15.12.75,1.52,2.15,4.9,1.67,7.05l-9.93,44.5c-.76,3.4-3.77,6.23-2.34,9.63l-33.38-5.93c-3.19-.57-7.68-2.07-11.09-.6-4.93.6-9.91-.25-14.68-.02,5.23-28.19,17.44-54.23,32.74-78.91,1.23-1.98,2.32-4.02,1.36-5.91-.55-1.07-2.04-1.92-3.15-3.78,2.99-.68,4.4.65,6.43.73Z"/>
        <path class="cls-15" d="M102.41,400.87c4.77-.23,9.74.62,14.68.02-9.93,4.28-27.88,3.23-47.57,19.38-6.28,5.14-12.3,9.81-15.28,17.64,3.91-20.57,26.95-36,48.17-37.04Z"/>
        <path class="cls-15" d="M152.4,317.7c-.59,2.89-3.22,4.32-6.41,4.78-2.33-2.22-5.82-5.05-6.2-9.48-.66-7.72-10.23-11.43-10.02-18.8l1.44.25c7.46,7.17,17.31,15.06,21.2,23.25Z"/>
        <polygon class="cls-10" points="130.52 311.18 131.48 311.18 132.41 311.2 131.48 311.23 130.52 311.23 129.59 311.2 130.52 311.18"/>
        <path class="cls-12" d="M126.99,291.79c-.56-.33-1.46-.67-1.83-1.26l1.83,1.26Z"/>
        <path class="cls-6" d="M306.14,425c-7.7-1.69-15.57-2.25-24.21-1.74l-6.84-.89c-3.46-3.68-4.53-7.87-4.67-13.35l-1.99-77.95c-.32-12.52,7.57-23.36,19.39-26.81,21.5,34.3,22.95,79.33,26.31,118.83-4.04-.06-6.35.21-7.99,1.91Z"/>
        <path class="cls-3" d="M248.21,399.15c2.57,5,6.41,5.46,3.83,8.31-3.05-1.54-6.56-.92-9.76-1.31l-6.96-.85-.46-1.86c2.14.07,4.43.42,7.27-.25l-2.48-75.26c-.58-3.52,4.03-2.91,5.56-4.04,4.68-3.42,2.95-10.43.79-14.16,6.96-2.66,12.4-8.54,15.7-15.09l2.42.27c-6.55,15.38-18.2,24.47-17.99,56.91l.24,38.69c.02,3.48.58,6.14,1.86,8.63Z"/>
        <path class="cls-15" d="M52.37,581.96c.83,2.45.01,5.79-.09,8.4l-3.46,90.07c-.09,2.26-.23,3.68-1.62,4.59-.86-.05-2.24.05-3.03-.38l-4.42-2.39,1.92-84.64c.22-9.66,1.61-17.96,4.3-26.22,6.47,1.89,4.54,5.07,6.4,10.56Z"/>
        <path class="cls-14" d="M128.17,401.49c-1.07,5.21,4.79,5.58,5.52,10.46-6.72-2-13.48-1.28-21.29-1.26-3.5,0-7.52-1.32-9.9,1.05-2.54,0-5.21-.32-7.39,1.17-9.85-.14-18.33,4.56-25.25,11.5l-.34-4.14c19.7-16.15,37.65-15.1,47.57-19.38,3.41-1.47,7.9.04,11.09.6Z"/>
        <path class="cls-1" d="M96.75,451.46c-2.05,9.19-8.91,16.41-4.58,29.7,3.89,5.09,12.87,6.3,18.38,7.08l.46,2.6c-9.06-.78-19.41-.43-26.66,5.64-1.58-5.72-2.97-9.04-5.19-13.47,4.47-10.52,9.75-20.63,15.01-30.93l2.59-.63Z"/>
        <path class="cls-15" d="M70.11,522.97c.3,4.5-2.38,8.1-3.52,12.57-1.21,4.72-1.69,8.98-3.52,13.52-2.43,6.04.12,13.04-.55,18.43-.77.4-1.37,1.37-1.36,2.84l.17,24.51c0,1.09-.44,2.19-.89,2.59-.38.33-1.19.43-1.72.28.25-19.96-1.06-40.04,2.96-61.49.13-.7-.46-3.58-.99-4.14-.48-.5-1.67.72-2.49.96.74-3.15,1.98-5.85,2.68-8.57.43.74-.68,2.03.9,3.69,2.29-2.52,4.88-5.12,8.34-5.17Z"/>
        <path class="cls-8" d="M84.35,496.48c-5.43,4.55-14.76,15.81-11.58,19.94-.9,1.58-2.79,4.73-2.67,6.54-3.47.05-6.05,2.65-8.34,5.17-1.58-1.66-.48-2.95-.9-3.69.55-2.13,2.15-3.41,3.11-5.69l15.19-35.74c2.23,4.43,3.61,7.75,5.19,13.47Z"/>
        <path class="cls-15" d="M102.5,411.74c9.25-.01,18.16,2.7,27.39,4.47-.67,4.94-7.5,4.32-11.76,9.86-4.54,2.23-7.95,6.25-11.28,9.98l-1.51.11c3.62-5.14,7.6-9.72,13.52-14.72-7.57-4.88-15.44-8.42-23.77-8.54,2.18-1.48,4.85-1.17,7.39-1.17Z"/>
        <path class="cls-5" d="M65.47,431.57c-.03,2.7-1.33,4.17-3.82,7.88,4.4.33,6,2.42,5.12,5.65-.64,2.36-2.86,2.92-4.72,5.08l-9.37,10.4c2.36-10.78,6.43-27.42,12.79-29Z"/>
        <path class="cls-7" d="M52.37,581.96c-1.85-5.49.08-8.67-6.4-10.56l9.82-28.16c-.81,3.47-1.31,7.31-1.56,11.48l-1.86,27.24Z"/>
        <path class="cls-14" d="M108.53,440.95c-2.1,3.78-5.03,8.12-5.74,12.36l-3.21,2.91,1.48-7.1-4.3,2.34-2.59.63,11.19-15.91,1.51-.11c.94,1.44,1.33,3.06,1.67,4.89Z"/>
        <path class="cls-13" d="M66.66,429l1.46-1.82c-.32.71-.85,1.34-1.46,1.82Z"/>
        <path class="cls-6" d="M334.67,669.21l-2.89-.13-.36-12.7c-2.13-8.95-8.77-14.53-14.83-20.65-4.43-4.47-8.69-8.56-15.1-8.12l3.4-46.75c2.15-23.42,3.44-47.01-2.95-70.71l-5.35,36.21c-5.47,37.05-17.37,71.89-30.16,107.04l-7.01,13.28-1.7-60.47-.02-21.44c0-.99-.76-1.54-1.37-1.48v-2.86s1.43-1.43,1.43-1.43c2.94-20.85,12.49-41.61,14.97-62.57,2.46-.18,4.77-3.7,6.81-4.11,5.96-1.19,11.6-4.54,17.21-6.88,2.63-1.1,5.34-1.28,8.05-3.26,2.16-1.58,6.49-3.56,9.83-3.2,6.89.74,11.26,6.9,12.71,13.15l6.85,29.55c2.45,27.21,2.48,54.81,1.67,82.97l-1.2,44.57Z"/>
        <path class="cls-1" d="M322.06,470.68c4.02,3.32,7.3,9.79,12.24,12.59,3.95,2.24,5.27,2.26,6.6,6.95,1.79,6.33,5.04,12.52,6.34,18.65-.18.46-.6.81-1.4,1.23-6.58-11.89-18.51-20.1-32.27-18.32l-1.77-5.75c6.25-6.25,6.9-16.88-.07-22.65l1.49-.02,8.84,7.32Z"/>
        <path class="cls-3" d="M313.58,491.78l-4.61,2.62-16.02,7.2c-5.17,2.32-10.2,5.06-15.61,6.93l-10.74,3.71c-2.17.75-3.87,1.02-4.55,2.89-1.31.38-3.32.37-4.48,1.1l-2.63-5.96,2.38-1.32c4.99,1.22,4.31-4.06,7.67-4.22l-.11,2.86c-1.79-.17-1.54,1.71-.08,1.45.58,0,1.25-.29,1.78-.48,13.76-4.76,36.98-14.3,45.22-22.54l1.77,5.75Z"/>
        <path class="cls-4" d="M308.97,494.4l1.26,2.96c-2.95.94-4.84,2.41-5.42,4.81-2.71,1.99-5.42,2.17-8.05,3.26-1.57-1.09-2.8-2.06-3.81-3.84l16.02-7.2Z"/>
        <path class="cls-8" d="M345.25,666.32l-2.07-.17c-.27-5.78.59-11.38,2.3-16.94,1.39,7.24-.12,12.2-.23,17.11Z"/>
        <path class="cls-9" d="M334.67,669.21l3.63.5c.11.34.54.81.54.71l-7.29,2.32.23-3.66,2.89.13Z"/>
        <path class="cls-12" d="M281.91,429.15l5.24-.15,3.46-.15c1.87,1.37,4.31,2.18,7.08,2.96,17.77,4.97,29.96,23.35,24.38,38.87l-8.84-7.32c-1.89-1.56-3.92-3.98-6.16-5.19-7.22-9.71-18.37-14.42-30.4-14.6-1.43-.02-3.32-.72-3.9-1.77-.82-1.47-1.51-3.72-.43-5.33l3.85-5.97,5.72-1.36Z"/>
        <path class="cls-5" d="M95.27,497.67l11.45-.26c9.66-.22,16.03,7.71,17.54,16.14-1.45.41-2.44,1.15-3.17,2.58-22.52,44.2-15.53,104.57-11.6,153.59l-19.66-1.11c-1.33-.07-2.77-2.4-4.38-.44,6.04,8.01,22.04,10.54,28.47,9.43-.07,7.22.55,14.65,2.72,21.98l-12.85-1.19c-9.03-.84-16.7-1.93-25.16-5.12-3.46-1.3-8.34-.95-11.24-2.59l-.25-28.63-.99-17.74-1.37-55.28c-.19-7.49-3.18-14.08-2.25-21.57.66-5.39-1.88-12.38.55-18.43,1.83-4.54,2.31-8.8,3.52-13.52,1.14-4.47,3.82-8.07,3.52-12.57-.12-1.82,1.77-4.96,2.67-6.54,3.46-6.09,15.48-18.6,22.49-18.75Z"/>
        <path class="cls-10" d="M67.13,662.07l-8.79-.11-.05-8.7c.99-.17,1.58-1.17,1.57-2.78l-.04-41.58c0-1.4-.61-2.39-1.22-2.88l.1-8.34c.53.15,1.34.05,1.72-.28.45-.39.9-1.5.89-2.59l-.17-24.51c0-1.47.59-2.44,1.36-2.84-.92,7.49,2.07,14.08,2.25,21.57l1.37,55.28.99,17.74Z"/>
        <path class="cls-14" d="M47.21,685.03c1.39-.91,1.53-2.34,1.62-4.59l3.46-90.07c1.59-.64,3.09-.17,3.38.82.27.9.37,2.35-.46,3.31l-2.16,2.48c-.42.48,2.3,1.91,2.31,2.57l.15,55c-3.7,5.54-4.39,12.11.68,17.18-6.69,8.02-.22,17.35-8.97,13.31Z"/>
        <path class="cls-10" d="M135.52,700.32c-6.37-.03-12.65-.15-18.89-.72-2.17-7.33-2.79-14.76-2.72-21.98,5.3-.94,9.81,1.04,11.47,7.1l8.13,3.02c3.06,3.68,1.97,8.8,2.01,12.59Z"/>
        <path class="cls-10" d="M67.13,662.07l.25,28.63c-2.19-1.24-9.04,1.91-9.04-3.44v-25.29s8.8.11,8.8.11Z"/>
        <path class="cls-15" d="M139.82,680.41l1.23,19.93-5.54-.02c-.04-3.78,1.05-8.91-2.01-12.59l-8.13-3.02c-1.66-6.05-6.17-8.03-11.47-7.1v-1.64s17.2,1.12,17.2,1.12c3.48.23,6.21,1.36,8.72,3.32Z"/>
        <path class="cls-2" d="M58.29,653.26l.31-47.23c.62.48,1.22,1.48,1.22,2.88l.04,41.58c0,1.61-.58,2.62-1.57,2.78Z"/>
        <path class="cls-10" d="M160.15,530.11l7.84,30.26c7.37,28.44,15.91,56.16,27.65,83.66,3.26,7.64,5.38,14.8,9.3,22.25,4.32,8.22,1.37,20.96,5.23,22.72.02.94-.5,2.66-.95,3.39-.62,1.01-2.16,1.28-3.16.96-.42-.19-.69-.99-.85-1.35-8.07-9.1-13.42-19.94-18.93-31.59-15-31.69-23.92-65.24-31.79-99.44l-4.2-12.84-8.25-47.54c7.89,1.23,13.83,8.73,14.49,17.21l3.61,12.3Z"/>
        <path class="cls-15" d="M194.2,608.86l8.23,20.05c1.48,3.61,4.25,7.2,5.49,10l1.05,2.8,1.19,47.28c-3.86-1.76-.91-14.5-5.23-22.72-3.92-7.45-6.04-14.61-9.3-22.25-11.75-27.5-20.28-55.22-27.65-83.66,7.46,1.37,8.95,8.33,11.06,14.79l9.05,27.81c1.03,3.17,3.5,5.56,6.11,5.9Z"/>
        <path class="cls-10" d="M208.1,617.59l1.12,19.24c-4.56-6.51-5.28-14.66-7.96-22.73l-30.91-93.05c-1.97-5.94-4.46-12.15-4.05-17.46,3.66-.62,6.36,1.53,7.78,5.3l17.86,47.42c3.66,9.71,7.7,19.07,10.93,28.98l4.18,30.7c-.42,1.01.13,1.75,1.04,1.61Z"/>
        <path class="cls-15" d="M183.2,509.76c1.44,2.24,3.09,4.35,3.78,7.5,2.54,11.55,6.29,22.23,11.06,33,1.5,3.37,2.66,6.44,6.23,7.72l2.69,32.56c.78,9.41.62,18.28,1.13,27.04-.91.14-1.46-.6-1.04-1.61l-4.18-30.7c-3.24-9.91-7.28-19.27-10.93-28.98l-17.86-47.42c-1.42-3.77-4.12-5.92-7.78-5.3l-1.47-4.46c4.24.12,9.45-.5,13.65,2.29,2.91,1.93,3.25,6.06,4.72,8.35Z"/>
        <path class="cls-14" d="M193.96,489.49c.47,5.25,4.39,11.12,7.23,16.04,3,5.18,1.83,11.79,3.05,17.33,1.92,8.71,3.05,16.63,3.93,24.71-1.7-.1-3.08-.78-4.03-2.02l-1.68-9.57c-2.11-12.03-5.59-31.79-11.45-33.9-2.26-.81-6.61-1.02-7.33.83-.78,2,.14,3.67.25,4.56.08.61-.5,1.86-.72,2.29-1.47-2.29-1.81-6.42-4.72-8.35-4.19-2.79-9.41-2.17-13.65-2.29-2.93-.08-4.04,2.04-4.88,5.27-6.74-7.07-18.51-6.86-27.39-8.27l-1.39-.22-1.13-.45-.35-2.61c.53-.29.97-.73,1.39-1.34l11.25,1.49c6.35-.5,11.64.24,17.31,3.1,5.11,2.58,12.04,1.66,17.87,1.67-.44-2-.94-3.64-.69-4.68.18-.76,1-2.4,1.63-3.3,5.43-1,10.49-.82,15.51-.28Z"/>
        <path class="cls-5" d="M164.83,499.12l1.47,4.46c-.41,5.31,2.08,11.52,4.05,17.46l30.91,93.05c2.68,8.08,3.4,16.22,7.96,22.73l.02,2.34-1.31-.26c-1.25-2.8-4.01-6.39-5.49-10l-8.23-20.05-25.42-80.14c-2.47-7.74-2.95-18.17-8.83-24.34.85-3.22,1.95-5.35,4.88-5.27Z"/>
        <path class="cls-14" d="M189.7,680.35c2.2,1.78,4.03,3.55,4.96,6.3,2.01,5.91,9.88,9.05,15.7,10.98.25.54,1.5,1.05,1.36,2.03-.11.76-.84,1.5-1.45,1.93l-8.06.24c-.77-1.56-2.71-1.38-4.26-1.42l-1.43-.03.08-1.67c.23-4.85-14.6-15.08-24.37-18.14,2.94-1.19,5.09-3.35,4.78-6.58,9.19.51,9.11,9.2,12.68,6.36Z"/>
        <path class="cls-10" d="M202.46,535.98l1.68,9.57.14,12.43c-3.57-1.28-4.73-4.35-6.23-7.72-4.78-10.77-8.52-21.45-11.06-33-.69-3.15-2.34-5.26-3.78-7.5.22-.43.79-1.68.72-2.29,2.02.52,3.93,2.56,4.9,5.02l7.66,19.42c1.12,2.84,3.37,4.3,5.98,4.08Z"/>
        <path class="cls-1" d="M223.7,464.63c-8,.92-20.08-1.59-23.49,4.47-1.24,2.2-1.45,5.4.36,7.06l3.18,3.09c-2.12.12-3.79,2.25-4.14,3.81-.57,2.55-.18,5.88,1.91,7.25.98.15,1.73.12,2.22-.11l-.16,3.12c-2.14,1.38-2.67,3.76-2.17,5.84.63,2.65,3.08,3.74,5.16,5.71-.75,1.46-3.3,3.83-2.52,5.75.71,1.75,2.11,3.06,3.73,4.17.95.65,1.65,1.38,3,1.36l.09,1.69c.81,14.22.25,28.34-.2,42.59-.09,2.79,1.32,5.93-1.14,8.8.25-8.15-.58-14.71-1.34-21.67-.88-8.08-2.01-16.01-3.93-24.71-1.22-5.54-.05-12.14-3.05-17.33s-6.76-10.79-7.23-16.04c.92-1.35,4.22-5.05,1.94-6.97-5.13-4.3-15.07-1.59-14.41-6.35,6.06-4.07,14.5-3.59,16.54-8,.73-1.58-.9-2.29-1.27-3.43l-1.86-5.66c1.77.56,3.59,1.67,5.56,3.28,9.4,1.78,19.05-.56,23.25,2.26Z"/>
        <path class="cls-8" d="M205.22,691.99c.16.36.43,1.16.85,1.35,1.73.8,3.6,2.77,4.29,4.28-5.82-1.92-13.69-5.07-15.7-10.98l10.56,5.35Z"/>
        <polygon class="cls-10" points="208.98 641.71 207.93 638.91 209.24 639.17 208.98 641.71"/>
        <path class="cls-1" d="M264.85,432.11c-2.45,1.81-3.51,5.36-3.21,8.28-1.18.01-2.69.64-3.14,1.49-.63,1.18-.22,3.03.58,4.47,1.66,2.98,5.06,3.27,7.92,3.63-2.68,1.52-4.26,4.2-7.7,4.43-1.63.11-3.42-.2-4.66-1.08-.9-4.59,1.93-9.39,1.8-14.37-.11-4.15-2.42-7.38-.01-11.11,3.28-.23,5.95,2,8.43,4.26Z"/>
        <path class="cls-14" d="M276.19,430.51l-3.85,5.97c-1.07,1.6-.39,3.86.43,5.33.59,1.04,2.48,1.74,3.9,1.77l.02,1.31c-5.28-.69-10.88-.77-15.05-4.48-.3-2.92.76-6.47,3.21-8.28,3.41-2.51,8.22-5.11,11.33-1.6Z"/>
        <path class="cls-14" d="M287.14,429l-5.24.15c.3-1.46,1.72-1.85,3.56-1.68.71.07,1.86-.21,1.67,1.53Z"/>
        <path class="cls-10" d="M294.17,679.77l4.68.98c-1.12,6.86.25,14.17,1.82,21.11l-14.64-.4c.12-7.41,1.13-15.08-1.1-22.07l9.24.39Z"/>
        <path class="cls-15" d="M271.92,679.38l9.09,2.34-1.74,17.57-2.13-.04c-.38-4.38-.83-11.47-5.71-14.04-6.74-3.55-6.97,12.07-13.77,11.31l.92-2.89,1.68-12.1c2.74-3.68,7.26-3.29,11.65-2.14Z"/>
        <path class="cls-14" d="M266.27,672.53c2.6,1.14,5.31,3.95,5.65,6.85-4.39-1.14-8.91-1.53-11.65,2.14-.95,1.27-2.53,2.05-3.26,5.59l-.82,4.02c-.24,1.18,1,2.3,2.39,2.49l-.92,2.89c-.04.25.11.66.11,1.15-1.39-.58-4.29-.14-5.7.36l.87-14.4c.21-3.18,2.17-7.61,4.72-10.53,1.62-1.85,6.64-1.43,8.61-.56Z"/>
        <path class="cls-10" d="M277.15,699.24c-6.53-.13-13.25.98-19.37-1.58,0-.49-.15-.9-.11-1.15,6.8.76,7.03-14.86,13.77-11.31,4.88,2.57,5.32,9.66,5.71,14.04Z"/>
        <path class="cls-5" d="M284.42,677.69l.51,1.69c2.23,6.99,1.22,14.67,1.1,22.07l-3.15.3c-.07-1.28-1.57-1.64-2.64-1.28l-.98-1.19,1.74-17.57c.21-1.99,1.33-4.28,3.41-4.02Z"/>
        <path class="cls-1" d="M252.95,683.63l-.87,14.4-2.83,1c.13-.85-.14-2.12-.29-2.9-.11-.59-.48-1.19-.75-1.69l-.46-12.61c1.85-.38,3.69.2,5.19,1.8Z"/>
        <path class="cls-10" d="M282.88,701.76c-1.06.1-1.98-.49-2.64-1.28,1.07-.36,2.56,0,2.64,1.28Z"/>
        <polygon class="cls-8" points="254.2 698.96 254.91 699.68 254.2 700.39 253.49 699.68 254.2 698.96"/>
        <path class="cls-15" d="M318.98,678.78c1.33,5.47,6.9,10.33,12.65,10.31l3.03.02c0,3.81.8,7.99-3.01,10.09-10.2,1.04-20.84,2.92-30.98,2.64-1.57-6.94-2.94-14.25-1.82-21.11l.29-1.75,19.84-.21Z"/>
        <path class="cls-9" d="M341.69,677.22l-.53,18.49c-.11,3.69-6.92,3.23-9.51,3.5,3.81-2.1,3.01-6.28,3.01-10.09v-8.76c0-1.84-2.11-1.95-3.03-1.39l.42-2.2c3.19.64,6.41.74,9.64.45Z"/>
        <path class="cls-14" d="M341.69,677.22c-3.23.29-6.45.19-9.64-.45-.76-.15-1.89-.9-2.85-.65l.03-1.29.12-2.01,2.18-.08,7.29-2.32c4.04-.13,2.94,3.99,2.86,6.8Z"/>
        <path class="cls-4" d="M113.82,266.41l-2.04.03-.76-3.08.04-1.44-.2-1.42c2.21,1.11,3.05,3.54,2.97,5.91Z"/>
        <path class="cls-16" d="M111.02,263.37c-.53-.41-.66-1.02.04-1.44l-.04,1.44Z"/>
        <path class="cls-3" d="M189.7,680.35c-3.57,2.84-3.49-5.85-12.68-6.36l-4.38-.24c-1.07-.55-2.98-.45-3.24,1.12-2.13-.56-5.03.81-7.27,1.03-4.65.47-11.14-.45-15.3,3.3-2.56,2.31-2.53,16.72-.76,18.33,1.11,1.01,3.52.11,4.77.41l4.36,1.06v1.43c-4.54,0-9.75-.78-14.15-.1l-1.23-19.93,1.19-10,16.9-1.11,12.82-.58c3.33-.15,6.93,1.13,10.08-1.3l8.89,12.92Z"/>
        <polygon class="cls-4" points="164.99 698.93 196.6 698.71 196.52 700.38 155.2 700.44 155.2 699.01 164.99 698.93"/>
        <path class="cls-3" d="M202.21,701.83h-4.27s.01-1.42.01-1.42c1.55.03,3.49-.14,4.26,1.42Z"/>
        <path class="cls-14" d="M247.91,663.25l-.15,18.58.46,12.61c.02.65.28,1.28.75,1.69.15.78.41,2.05.29,2.9-1.3.46-2.53,1.28-3.96,1.28l-.35-39.9,2.97,2.85Z"/>
        <path class="cls-14" d="M200.08,343.12l-13.38-.14c-.83.04-2.52-1.63-3.55-.93-1.14.78-1.36,3.08-2.16,3.98-2.36-3.32-4.23-7.22-7.61-9.71l5.86,1.19c.53,3.12,3.22.36,1.59-.88.15-1.94.37-2.88.81-3.32s2.71-.22,3.36.16l15.09,9.64Z"/>
        <path class="cls-14" d="M200.08,343.12c2.2.02,4.39,1.2,6.29,2l-.03,4.92c-1.54.78-3.74,1.93-5.41,1.81-1.04-.08-3.1-.52-3.93-1.15l-10.31-7.72,13.38.14Z"/>
        <path class="cls-14" d="M179.24,337.52l-5.86-1.19c-3.45-2.55-7.79-4.43-8.39-9.18,1.55.67,3.67.67,4.71-1.28l8.59,5.82c1.81,1.22,1.26,4.17.96,5.82Z"/>
        <path class="cls-14" d="M159.29,317.63c4.19,1.97,6.84,5.82,10.41,8.24-1.04,1.95-3.15,1.95-4.71,1.28l-6.12-4.6c-2.27-1.7-3.55-3.09-3.38-5.41,1.1-.2,2.81.02,3.8.48Z"/>
        <path class="cls-15" d="M155.49,317.15c-.17,2.32,1.11,3.71,3.38,5.41l6.12,4.6c.6,4.75,4.94,6.64,8.39,9.18,3.38,2.49,5.25,6.39,7.61,9.71l-1.48,1.7-7.36-1.49c-2.54-5.17-6.61-13.18-12.77-15.12-6.33-1.99-9.14-4.59-13.39-8.64,3.19-.46,5.82-1.9,6.41-4.78l3.09-.55Z"/>
        <path class="cls-15" d="M179.51,347.74c.68,1.48,1.1,4.47,3.01,5.49l-.32,17.3,1.57,16.96c-.25.26-1.03.94-.94,1.26l.55,1.9-1.07,18.83c-2.2,1.36-7.07,2.04-9.51,2.67-.76-1.45-1.84-2.21-3.57-2.67l-7.68-2.04c-1.43-3.4,1.58-6.23,2.34-9.63l9.93-44.5c.48-2.15-.93-5.53-1.67-7.05l7.36,1.49Z"/>
        <path class="cls-14" d="M161.55,407.43l7.68,2.04c1.73.46,2.81,1.22,3.57,2.67-2.77,3.98-8.6,4.04-13.57,4.34-4.2.26-9.42.28-13.45-.92l-12.09-3.6c-.72-4.88-6.59-5.26-5.52-10.46l33.38,5.93Z"/>
        <path class="cls-10" d="M193.76,456.08c.1.51.33,1.89-.33,2.79-6.33.08-13.65,4.42-22.52,6.86l-5.64,1.55c.65-4.83-5.23-6.17-4.1-11.37l27.81-7.44.12-5.16h1.75c.26,4.37,1.35,8.63,2.91,12.77Z"/>
        <path class="cls-15" d="M194.89,459.09l1.86,5.66c-8.44,5.39-14.9,1.6-20.45,7.16-1.46.03-3.74-.24-5.04.48l-.35-6.65c8.87-2.44,16.19-6.78,22.52-6.86.66-.9.43-2.28.33-2.79l1.13,3Z"/>
        <path class="cls-3" d="M259.3,454.41c-.13,1.55-.66,3.21-1.64,4.61l.06,1.58c-5.56,2.28-12.67-.33-13.64,2.68l-2.78-.05c-3.97-5.31,4.47-2.86,13.34-9.89,1.24.87,3.03,1.19,4.66,1.08Z"/>
        <path class="cls-8" d="M192.1,426.35c.35,2.16,2.31,6.52.61,8.13-2.73,2.52-2.07,5.24-1.86,8.82h-1.75c.19-7.75-1.49-11.34-.03-18.88.67,1.31,1.83,1.99,3.03,1.92Z"/>
        <path class="cls-8" d="M133.69,411.96l12.09,3.6c-.13.7-.28,1.8-.55,2.29-.22.39-.87.44-1.35.59-3.18-3.54-10.29-4.46-13.99-2.21-9.23-1.77-18.14-4.48-27.39-4.47,2.38-2.37,6.4-1.04,9.9-1.05,7.81-.02,14.57-.74,21.29,1.26Z"/>
        <path class="cls-14" d="M99.57,456.22c-1.34,6.44-3.88,13.61-1.98,20.84,1.2,4.56,6.73,6.41,10.35,7.28,8.28,2,16.31.03,25-1.46,2.54-.43,4.82.17,6.95-.89-.55,1.53-1.04,3.2-2.29,4.39-9.1,1.78-17.63,3.18-27.05,1.85-5.5-.78-14.49-1.99-18.38-7.08-4.34-13.29,2.53-20.51,4.58-29.7l4.3-2.34-1.48,7.1Z"/>
        <path class="cls-14" d="M111.01,490.84l9.99.86c3.13.27,5.08,2.35,6,4.57-.47.72-2.46,1.95-3.41,1.7-9.32-2.47-19.38-4.77-28.33-.3-7.01.16-19.04,12.66-22.49,18.75-3.18-4.13,6.15-15.39,11.58-19.94,7.24-6.07,17.6-6.42,26.66-5.64Z"/>
        <path class="cls-3" d="M137.6,486.39c.07.37.21.94.07,1.29l-.49,1.21c-.83,2.03,5.26.58,5.15,4.1l-11.25-1.49c-.61-.08-1.48.77-1.39,1.34l.35,2.61.49,2.78c.08.45-1.55.97-2.03.25l-1.5-2.22c-.93-2.22-2.87-4.3-6-4.57l-9.99-.86-.46-2.6c9.42,1.33,17.95-.06,27.05-1.85Z"/>
        <path class="cls-14" d="M143.88,418.43l-1.24.38-11.61,3.18c-1.17.32-2.21.26-2.94.58-1.02.46-1.49,1.79-.89,2.89-.53.13-1.27.42-1.75.76l-7.32-.15c4.26-5.55,11.09-4.92,11.76-9.86,3.7-2.24,10.81-1.33,13.99,2.21Z"/>
        <path class="cls-8" d="M125.45,426.23c-5.95,4.23-13.25,8.11-16.92,14.72-.33-1.83-.72-3.45-1.67-4.89,3.33-3.73,6.74-7.75,11.28-9.98l7.32.15Z"/>
        <path class="cls-16" d="M189.07,424.42c-1.45,7.54.22,11.13.03,18.89l-.12,5.16-27.81,7.44c-10.03,2.68-18.57,5.26-28.07,11.15-1.96,1.21-6.55,1.57-8.45,4.09-1.13.84-4.79.15-5.64,2.44-.55,1.49-1.23,3.4-.85,5.33-.44.06-1.15,0-1.67-.1-3.83-.66-10.67-.42-13.35-4.63-3.97-6.26-1.47-14.33-.36-20.88.72-4.24,3.65-8.58,5.74-12.36,3.67-6.61,10.98-10.48,16.92-14.72.48-.34,1.21-.63,1.75-.76l15.5-3.77c.82-.2,2.14.08,2.97.16.27.03.76-.02,1,.2,10.43,1.22,18.37,7.2,24.38,2.75,3.64-2.7,6.24-6.41,11.5-7.03,1.41-.17,2.34-2.07,2.2-3.01l1.95.08c4.82-3.99,4.32-.5,2.37,9.58Z"/>
        <path class="cls-15" d="M116.48,478.82c.74.96.7,4.19-1.04,4.32-3,.22-5.59-.16-7.5,1.2-3.62-.87-9.15-2.72-10.35-7.28-1.91-7.23.64-14.41,1.98-20.84l3.21-2.91c-1.11,6.55-3.62,14.62.36,20.88,2.67,4.21,9.52,3.97,13.35,4.63Z"/>
        <path class="cls-10" d="M304.88,580.86c-4.83-1.21-2.9-6.1-3.76-11.29-7.48,11.64-9.24,24.58-12.05,37.88l-9.5,45.04c-1.35,6.39-7.33,11.38-6.07,18.12l-7.19-.38-7.05-1.07c.21-.84.18-1.66.16-2.48l7.01-13.28c12.79-35.15,24.69-69.99,30.16-107.04l5.35-36.21c6.39,23.7,5.1,47.3,2.95,70.71Z"/>
        <path class="cls-5" d="M304.88,580.86l-3.4,46.75-2.5,29.05c-2.45-1.2-7.63-.73-10.44-.25-3.11,5.46-4.75,9.94-2.65,14.9l-12.39-.71c-1.26-6.74,4.72-11.73,6.07-18.12l9.5-45.04c2.81-13.3,4.57-26.24,12.05-37.88.85,5.19-1.08,10.08,3.76,11.29Z"/>
        <path class="cls-15" d="M331.77,669.08c-.7-.03-1.77-.03-2.4.28-2.97-.57-6.72-1.21-8.96,1.03l-3.44-.42c-1.32-4.61-5.24-7.83-9.51-8.3-1.94-3.6-6.81-1.46-8.48-5l2.5-29.05c6.41-.44,10.67,3.65,15.1,8.12,6.06,6.12,12.7,11.7,14.83,20.65l.36,12.7Z"/>
        <path class="cls-10" d="M272.73,516.42c-2.49,20.96-12.04,41.72-14.97,62.57l-1.32-.03.12-56.25c4.96-2.43,9.56-3.06,12.92-6.05l3.25-.23Z"/>
        <path class="cls-14" d="M256.33,583.28l-.07,20.11c0,1.51.6,2.51,1.45,2.81l1.7,60.47c.02.82.05,1.64-.16,2.48l-6.76-1c-.36-23.14-.3-45.84,1.09-69.26.12-2.03-1.92-2.91-2.99-2.69l.26-5.53c1.05.65,2.43.37,3-.35,2.2-2.79-.35-7.24,2.47-9.91v2.86Z"/>
        <path class="cls-9" d="M292.95,501.59c1.01,1.78,2.24,2.75,3.81,3.84-5.61,2.34-11.25,5.69-17.21,6.88-.42-1.63-1.08-2.72-2.21-3.8,5.41-1.87,10.44-4.6,15.61-6.93Z"/>
        <path class="cls-4" d="M277.34,508.52c1.13,1.08,1.79,2.16,2.21,3.8-2.05.41-4.36,3.93-6.81,4.11l-3.25.23c-1.74-2.31-4.83-2.3-7.44-1.54.68-1.87,2.38-2.14,4.55-2.89l10.74-3.71Z"/>
        <path class="cls-14" d="M257.72,606.2c-.86-.3-1.46-1.3-1.45-2.81l.07-20.11c.61-.06,1.37.49,1.37,1.48l.02,21.44Z"/>
        <polygon class="cls-11" points="256.33 580.42 256.44 578.96 257.76 578.99 256.33 580.42"/>
        <path class="cls-14" d="M311.73,463.38c6.98,5.76,6.33,16.4.07,22.65-8.25,8.24-31.46,17.77-45.22,22.54l1.06-3.98,9.45-3.25c.94-.34,1.62-2.33,2.03-2.93-.52.75,13.48.07,25.99-13.19,2.78-2.95,8.07-5.38,6.08-11.54-.69-2.14-2.12-6.08-3.52-7.6l.38-3.57c-.02-.72,3.26.57,3.69.88Z"/>
        <path class="cls-14" d="M269.48,516.66c-3.36,2.99-7.96,3.62-12.92,6.05l-.12,56.25-.1,1.46c-2.82,2.67-.28,7.12-2.47,9.91-.57.73-1.95,1-3,.35l-.14-25.64.28-5.65c.65-13.34,1.08-26.72.6-40.28,2.21-.01,4.3-1.83,5.98-2.89,1.16-.73,3.17-.72,4.48-1.1,2.6-.76,5.7-.77,7.44,1.54ZM255.07,523.29h-1.65s.08,22.86.08,22.86h1.65s-.08-22.86-.08-22.86Z"/>
        <path class="cls-16" d="M263.63,462.74c-.79,2.02.52,3.68.7,5.27.37,3.23,4.02,7.76,3.79,10.68-.36,4.63.7,6.68,1.49,10.89l-1.98,15.01-1.06,3.98c-.53.18-1.2.47-1.78.48l.08-1.45.11-2.86-.13-8.57.07-7.15c.08-7.7-1.31-15.75-4.09-22.94-.65-1.69-.29-4.03-1.66-5.61l4.44,2.29Z"/>
        <path class="cls-8" d="M257.57,516.22c-1.69,1.06-3.78,2.88-5.98,2.89-1.84.01-4.71.36-6.41-.24-1.6-.55-3.26-2.44-5.52-1.73l-2.01-2.36,1.6-1.32c2.81.35,5.68.15,8.43-.54.29.58.73,1.07,1.22,1.52.73.67,1.75.2,1.74-.48l-.04-2.19c.37,0,.86.1,1.19-.07l2.07-1.03,1.09-.41,2.63,5.96Z"/>
        <path class="cls-4" d="M264.8,509.04c-1.46.26-1.71-1.63.08-1.45l-.08,1.45Z"/>
        <path class="cls-8" d="M331.77,669.08l-.23,3.66-2.18.08-1.84-.04c-6.24-.14-12.84,1.79-18.62-.81l8.08-2.01,3.44.42c3.06.38,6.17.32,8.96-1.03.62-.3,1.7-.31,2.4-.28Z"/>
        <path class="cls-4" d="M283.64,447.56c7.62,1.81,16.24,6.7,23.43,10.61,2.24,1.21,4.27,3.63,6.16,5.19l-1.49.02c-.43-.31-3.7-1.6-3.69-.88l-.38,3.57c-12.31-10.43-25.17-20.08-39.07-11.7-.66.89.54,3,.31,4.92-4.06-2.53-8.1-2.86-11.24-.27.99-1.41,1.51-3.06,1.64-4.61,3.44-.23,5.02-2.91,7.7-4.43,8.63-4.9,13.66.71,16.63-2.41Z"/>
        <path class="cls-10" d="M307.07,458.17c-7.19-3.9-15.81-8.8-23.43-10.61-2.79.74-5.11-2.45-6.94-2.69l-.02-1.31c12.03.18,23.17,4.89,30.4,14.6Z"/>
        <path class="cls-10" d="M157.91,669.31l-16.9,1.11c-10.5.69-21.05-.09-31.53-.68-3.93-49.02-10.91-109.39,11.6-153.59.73-1.43,1.72-2.18,3.17-2.58l2.55,14.21c5.36,41.61,12.6,82.56,25.52,122.69,2.07,6.42,7.49,11.52,5.59,18.85Z"/>
        <path class="cls-15" d="M123.59,497.97c5.06,5.85,6.02,13.94,7.47,21.37l1.06,5.42,4.91,34.29c4.98,21.89,8.02,44.74,16.32,65.84l12.19,30.97c1.74,4.41,5.52,8.05,5.18,12.87l-12.82.58c1.9-7.33-3.52-12.43-5.59-18.85-12.92-40.13-20.17-81.09-25.52-122.69l-2.55-14.21c-1.51-8.44-7.88-16.36-17.54-16.14l-11.45.26c8.94-4.47,19.01-2.17,28.33.3Z"/>
        <path class="cls-14" d="M109.48,669.73c10.49.59,21.03,1.37,31.53.68l-1.19,10c-2.51-1.96-5.24-3.1-8.72-3.32l-17.2-1.12-19.01-3.63c-2.32-.44-4.18-2.17-5.08-3.72l19.66,1.11Z"/>
        <path class="cls-15" d="M89.82,668.62c.9,1.55,2.76,3.28,5.08,3.72l19.01,3.63v1.64c-6.42,1.11-22.42-1.42-28.46-9.43,1.61-1.95,3.05.37,4.38.44Z"/>
        <path class="cls-5" d="M142.05,500.59l8.25,47.54,4.2,12.84c7.87,34.2,16.79,67.75,31.79,99.44,5.52,11.65,10.86,22.49,18.93,31.59l-10.56-5.35c-.93-2.75-2.76-4.51-4.96-6.3l-8.89-12.92c-11.61-20.12-18.5-42.08-27.07-64.02-5.9-15.1-9.89-30.32-12.75-45.69l-5.82-31.3-2.72-16.14-1.28-14.38,1.39.22c1.58,3.14,5.89,3.91,9.49,4.47Z"/>
        <path class="cls-15" d="M168.79,528.73l25.42,80.14c-2.61-.34-5.07-2.73-6.11-5.9l-9.05-27.81c-2.1-6.47-3.6-13.43-11.06-14.79l-7.84-30.26,8.63-1.38Z"/>
        <path class="cls-15" d="M159.95,504.39c5.88,6.17,6.36,16.6,8.83,24.34l-8.63,1.38-3.61-12.3c-.66-8.48-6.6-15.98-14.49-17.21-3.6-.56-7.91-1.33-9.49-4.47,8.88,1.41,20.65,1.2,27.39,8.27Z"/>
        <path class="cls-14" d="M237.65,514.79l2.01,2.36c-2.45.1-5.06.85-6.29,3.15l-4.16-.17-2.28.07c-1.84-1.59-4.51-1.46-6.63-.43-2.98-1.32-6.14-2.17-9.44-1.9l-.09-1.69,3.43-.04,1.62-.69c7.19.81,14.61-.19,21.83-.64Z"/>
        <path class="cls-3" d="M181.49,476.17c-.67,4.76,9.28,2.06,14.41,6.35,2.29,1.92-1.02,5.62-1.94,6.97-5.02-.54-10.08-.72-15.51.28-.63.89-1.45,2.54-1.63,3.3-1.51-3.08-4.57-2.83-7.37-2.62.32-3.24-.19-6.56-1.56-9.82l11.05-4.32c.65-.25,1.83-.21,2.55-.14Z"/>
        <path class="cls-1" d="M167.88,480.63c1.37,3.26,1.88,6.58,1.56,9.82-3.36.25-6.67-.37-10.67,1.06l.86,4.58c-5.66-2.86-10.95-3.6-17.31-3.1.1-3.51-5.98-2.07-5.15-4.1l.49-1.21,22.7-5.94,7.51-1.12Z"/>
        <path class="cls-12" d="M202.46,535.98c-2.61.22-4.86-1.23-5.98-4.08l-7.66-19.42c-.97-2.46-2.88-4.5-4.9-5.02-.11-.89-1.03-2.55-.25-4.56.72-1.85,5.07-1.64,7.33-.83,5.86,2.1,9.34,21.87,11.45,33.9Z"/>
        <path class="cls-14" d="M169.45,490.45c2.8-.21,5.86-.45,7.37,2.62-.25,1.04.25,2.68.69,4.68-5.83,0-12.76.91-17.87-1.67l-.86-4.58c4.01-1.44,7.31-.81,10.67-1.06Z"/>
        <path class="cls-14" d="M130.04,495.45l1.13.45,1.28,14.38c.28,3,.33,6.57-1.39,9.06-1.45-7.43-2.41-15.53-7.47-21.37.94.25,2.93-.98,3.41-1.7l1.5,2.22c.48.72,2.11.2,2.03-.25l-.49-2.78Z"/>
        <path class="cls-4" d="M129.69,492.84c-.08-.57.78-1.42,1.39-1.34-.42.61-.87,1.05-1.39,1.34Z"/>
        <path class="cls-15" d="M172.23,680.57c9.78,3.06,24.61,13.29,24.37,18.14l-31.61.22c-.01-9.64-9.49-5.49-9.79-12.03,2.3-3.22,6.08-5.36,10.01-6.23,1.92-.42,5.13-.7,7.02-.11Z"/>
        <path class="cls-14" d="M177.02,673.99c.3,3.23-1.85,5.39-4.78,6.58-1.89-.59-5.1-.32-7.02.11-1.72-1.18-2.87-2.78-3.08-4.78,2.24-.23,5.14-1.59,7.27-1.03.47.29,1.08,1.2,1.87.88s1.12-1.57,1.36-2.01l4.38.24Z"/>
        <path class="cls-14" d="M246.49,570.42c.39,9.04-.25,18.14.97,27.12-1.68,7.7-.05,15.81.03,24.32l.42,41.39-2.97-2.85h-2.85s-.6-1.53-.6-1.53l.34-6.9.24-22.99.07-22.96c0-1.41-.63-2.41-1.3-2.85v-5.54c1.51,0,1.44-1.65.02-1.58l-.38-25.59,6.01-.04Z"/>
        <path class="cls-3" d="M261.64,440.39c4.18,3.72,9.78,3.79,15.05,4.48,1.83.24,4.15,3.43,6.94,2.69-2.97,3.13-8-2.49-16.63,2.41-2.86-.36-6.26-.65-7.92-3.63-.8-1.44-1.21-3.29-.58-4.47.45-.85,1.96-1.47,3.14-1.49Z"/>
        <path class="cls-4" d="M299.09,671.8c3.02-.1,6.96-1.11,9.81.17,5.78,2.59,12.38.66,18.62.81.47.78,1.04,1.48,1.72,2.05l-.03,1.29-10.22,2.66-19.84.21c-1.7.02-3.38.12-4.97.77l-9.24-.39-.51-1.69c1.91.24,5.18.24,7.43-.64,1.62-.64,2.86-2.85,3.27-5.12l3.97-.13Z"/>
        <path class="cls-7" d="M299.14,678.99l-.29,1.75-4.68-.98c1.59-.65,3.27-.76,4.97-.77Z"/>
        <path class="cls-8" d="M273.5,670.61l12.39.71,9.23.61c-.42,2.27-1.65,4.48-3.27,5.12-2.25.88-5.52.88-7.43.64-2.08-.26-3.2,2.03-3.41,4.02l-9.09-2.34c-.34-2.9-3.05-5.71-5.65-6.85l.04-2.31,7.19.38Z"/>
        <path class="cls-4" d="M260.27,681.52l-1.68,12.1c-1.39-.19-2.63-1.31-2.39-2.49l.82-4.02c.72-3.54,2.31-4.32,3.26-5.59Z"/>
        <path class="cls-3" d="M259.26,669.15l7.05,1.07-.04,2.31c-1.97-.87-6.99-1.29-8.61.56-2.55,2.92-4.51,7.35-4.72,10.53-1.5-1.6-3.34-2.17-5.19-1.8l.15-18.58-.42-41.39c-.09-8.51-1.71-16.62-.03-24.32,1.23.19,2.92-.08,3.13-1.34,1.07-.23,3.12.66,2.99,2.69-1.4,23.42-1.45,46.11-1.09,69.26l6.76,1Z"/>
        <path class="cls-4" d="M248.97,696.12c-.47-.41-.73-1.04-.75-1.69.27.5.64,1.1.75,1.69Z"/>
        <path class="cls-7" d="M329.2,676.12c.96-.25,2.09.5,2.85.65l-.42,2.2v10.13c-5.75.02-11.32-4.85-12.65-10.31l10.22-2.66Z"/>
        <path class="cls-14" d="M334.66,689.11l-3.03-.02v-10.13c.92-.56,3.02-.45,3.02,1.39v8.76Z"/>
        <path class="cls-9" d="M329.23,674.83c-.68-.58-1.25-1.27-1.72-2.05l1.84.04-.12,2.01Z"/>
        <path class="cls-14" d="M140.99,557.73c2.86,15.37,6.85,30.59,12.75,45.69,8.57,21.93,15.46,43.9,27.07,64.02-3.15,2.43-6.75,1.15-10.08,1.3.34-4.82-3.45-8.46-5.18-12.87l-12.19-30.97c-8.31-21.1-11.34-43.94-16.32-65.84.88-1.05,2.27-1.49,3.96-1.33Z"/>
        <path class="cls-14" d="M162.13,675.9c.2,2,1.36,3.6,3.08,4.78-3.93.87-7.71,3.01-10.01,6.23-4.87,1-5.27,6.62-4.36,11.04-1.25-.3-3.66.59-4.77-.41-1.77-1.61-1.8-16.03.76-18.33,4.16-3.75,10.65-2.83,15.3-3.3Z"/>
        <path class="cls-15" d="M155.2,686.9c.3,6.54,9.78,2.39,9.79,12.03l-9.79.08-4.36-1.06c-.91-4.43-.51-10.04,4.36-11.04Z"/>
        <path class="cls-9" d="M172.64,673.74c-.24.44-.6,1.71-1.36,2.01s-1.41-.6-1.87-.88c.26-1.57,2.16-1.68,3.24-1.12Z"/>
        <path class="cls-15" d="M186.7,342.99l10.31,7.72c-.1,4.45-5.63,3.74-11.02,7.25-.48-2.06-1.74-3.81-3.47-4.73-1.91-1.01-2.34-4-3.01-5.49l1.48-1.7c.81-.91,1.02-3.2,2.16-3.98,1.03-.71,2.72.96,3.55.93Z"/>
        <path class="cls-15" d="M200.94,351.85c.62,8.79,2,17.39,4.57,25.89l-.63,17c-.29,7.68-8.25,13.51-15.29,16.29l4.91-12.66c.94-11.5-2.41-22.83-6.84-33.31l-1.66-7.11c5.38-3.51,10.91-2.8,11.02-7.25.83.63,2.89,1.08,3.93,1.15Z"/>
        <path class="cls-14" d="M206.34,350.05l.14,11.85c.06,5.45.53,10.51-.97,15.85-2.57-8.5-3.96-17.1-4.57-25.89,1.66.12,3.86-1.02,5.41-1.81Z"/>
        <path class="cls-3" d="M207.91,383.33v5.71s0,7.14,0,7.14l-3.04-1.44.63-17c1.5-5.35,1.03-10.4.97-15.85h1.43s0,21.43,0,21.43Z"/>
        <path class="cls-10" d="M185.99,357.95l1.66,7.11c4.42,10.49,7.78,21.81,6.84,33.31l-4.91,12.66c-1.81.72-3.07,1.61-2.89,3.8l-1.95-.08c.32-.6.22-1.7-.44-2.11-.31-.19-1.03-.13-1.38.02l-.62-3.2c.62-.38,2.79.22,2.8-1.88l.13-34.33c0-1.21-.4-2.35-.88-2.69-.43-.32-1.58-.25-2.15-.04l.32-17.3c1.73.92,2.99,2.67,3.47,4.73Z"/>
        <path class="cls-16" d="M182.31,409.46l1.07-18.83.39-3.15-1.57-16.96c.57-.21,1.72-.28,2.15.04.47.34.88,1.48.88,2.69l-.13,34.33c0,2.11-2.18,1.5-2.8,1.88Z"/>
        <path class="cls-8" d="M182.31,409.46l.62,3.2c-.85,2.16-3.4,3.3-6.07,3.77l-14.53,2.56c-.84-.96-1.89-1.82-3.09-2.52,4.97-.31,10.79-.36,13.57-4.34,2.44-.63,7.31-1.31,9.51-2.67Z"/>
        <path class="cls-10" d="M183.38,390.63l-.55-1.9c-.09-.32.69-1,.94-1.26l-.39,3.15Z"/>
        <path class="cls-3" d="M159.23,416.47c1.2.7,2.25,1.57,3.09,2.52l-12.45,1.38c-1.51.17-3.5-.27-4.21,1.48-.83-.08-2.14-.36-2.97-.16l-.06-2.88,1.24-.38c.48-.15,1.13-.2,1.35-.59.27-.49.43-1.59.55-2.29,4.03,1.2,9.25,1.18,13.45.92Z"/>
        <path class="cls-14" d="M181.49,476.17c-.72-.07-1.91-.11-2.55.14.39-2.09-.71-3.87-2.64-4.41,5.56-5.56,12.01-1.76,20.45-7.16.37,1.14,2,1.85,1.27,3.43-2.04,4.41-10.48,3.93-16.54,8Z"/>
        <path class="cls-10" d="M161.16,455.91c-1.13,5.2,4.75,6.54,4.1,11.37-6.07,1.67-12.03,4.45-18.88,5.75-4.12.79-7.67,3.2-11.69,3.72l-16.53,2.16c-.38-1.93.3-3.83.85-5.33.85-2.3,4.51-1.6,5.64-2.44,1.9-2.52,6.49-2.88,8.45-4.09,9.5-5.88,18.04-8.47,28.07-11.15Z"/>
        <path class="cls-15" d="M170.91,465.73l.35,6.65c-4.22,2.35-8.94,3.57-13.56,4.78-5.87,1.54-12.25,2.07-17.81,4.84-2.13,1.06-4.41.46-6.95.89-8.69,1.49-16.72,3.46-25,1.46,1.91-1.37,4.5-.99,7.5-1.2,1.74-.13,1.78-3.36,1.04-4.32.52.09,1.23.15,1.67.1l16.53-2.16c4.02-.52,7.57-2.94,11.69-3.72,6.85-1.31,12.81-4.09,18.88-5.75l5.64-1.55Z"/>
        <path class="cls-14" d="M176.3,471.9c1.93.54,3.03,2.32,2.64,4.41l-11.05,4.32-7.51,1.12c.3-.99.63-2.35.3-3.24-.4-1.06-1.96-1.32-2.97-1.34,4.62-1.21,9.34-2.43,13.56-4.78,1.3-.72,3.58-.45,5.04-.48Z"/>
        <path class="cls-14" d="M307.66,466.07c1.4,1.51,2.83,5.45,3.52,7.6,1.99,6.17-3.29,8.59-6.08,11.54l-5.55-13.81c-1.28-3.41-3.98-5.81-6.76-6.98-6.29-2.64-10.36,4.11-15.4,4.14-.53-2.27-2.09-4.09-4.01-5.22-.6-.35-1.16-1.42-2.04-1.08l-2.39.92c-1.42.54-3.91.3-5.33-.43l-4.44-2.29c-.38-.2-1.13.01-1.47.15l-.06-1.58c3.15-2.59,7.18-2.26,11.24.27.23-1.92-.98-4.03-.31-4.92,13.91-8.38,26.76,1.28,39.07,11.7Z"/>
        <path class="cls-14" d="M207.92,396.18l-.27,8.44c-.01.38-.28.81-.51,1.02-6.24,2.16-12.19,6.59-13.87,13.1-.62,2.4-1.62,4.9-1.18,7.6-1.2.06-2.36-.62-3.03-1.92,1.94-10.09,2.44-13.57-2.37-9.58-.18-2.19,1.08-3.08,2.89-3.8,7.04-2.79,15.01-8.62,15.29-16.29l3.04,1.44Z"/>
        <path class="cls-14" d="M157.7,477.16c1.01.02,2.57.28,2.97,1.34.33.89,0,2.25-.3,3.24l-22.7,5.94c.14-.35,0-.92-.07-1.29,1.25-1.2,1.74-2.86,2.29-4.39,5.56-2.76,11.94-3.3,17.81-4.84Z"/>
        <path class="cls-8" d="M142.64,418.81l.06,2.88-15.5,3.77c-.6-1.1-.13-2.43.89-2.89.73-.33,1.78-.27,2.94-.58l11.61-3.18Z"/>
        <path class="cls-13" d="M184.75,414.76c.14.94-.8,2.85-2.2,3.01-5.26.62-7.86,4.34-11.5,7.03-6.01,4.45-13.95-1.53-24.38-2.75,1.31.06,2.65-.44,3.21-1.68l12.45-1.38,14.53-2.56c2.67-.47,5.22-1.6,6.07-3.77.36-.15,1.07-.22,1.38-.02.66.42.76,1.51.44,2.11Z"/>
        <path class="cls-8" d="M149.87,420.37c-.56,1.24-1.9,1.74-3.21,1.68-.24-.21-.73-.17-1-.2.71-1.75,2.7-1.31,4.21-1.48Z"/>
        <path class="cls-10" d="M298.99,656.67c1.67,3.55,6.53,1.41,8.48,5l-8.43.44c-.74,3.51-.23,6.61.05,9.69l-3.97.13-9.23-.61c-2.1-4.97-.46-9.44,2.65-14.9,2.82-.48,8-.95,10.44.25Z"/>
        <path class="cls-15" d="M307.46,661.67c4.27.47,8.19,3.69,9.51,8.3l-8.08,2.01c-2.84-1.28-6.79-.27-9.81-.17-.29-3.08-.79-6.19-.05-9.69l8.43-.44Z"/>
        <path class="cls-7" d="M329.38,669.36c-2.79,1.35-5.9,1.41-8.96,1.03,2.23-2.24,5.99-1.6,8.96-1.03Z"/>
        <path class="cls-1" d="M250.71,565.04l.14,25.64-.26,5.53c-.21,1.26-1.9,1.53-3.13,1.34-1.23-8.98-.58-18.08-.97-27.12l-.24-5.72c1.37-1.17,3.2-1.04,4.47.34Z"/>
        <path class="cls-12" d="M273.4,463.34l5.11,20.22c1.94-5.67-.03-10.43-1.1-15,5.04-.03,9.1-6.78,15.4-4.14,2.78,1.17,5.47,3.57,6.76,6.98l5.55,13.81c-12.51,13.26-26.51,13.94-25.99,13.19-.42.6-1.09,2.59-2.03,2.93l-9.45,3.25,1.98-15.01c-.79-4.2-1.86-6.26-1.49-10.89.23-2.92-3.42-7.44-3.79-10.68,2.8-.1,5.04-1.92,4.63-4.83l2.39-.92c.89-.34,1.45.73,2.04,1.08Z"/>
        <path class="cls-1" d="M251.59,519.11c.49,13.56.05,26.94-.6,40.28l-4.85-.39-.97-40.12c1.71.59,4.58.25,6.41.24Z"/>
        <rect class="cls-4" x="253.45" y="523.29" width="1.65" height="22.85" transform="translate(-1.96 .94)"/>
        <path class="cls-3" d="M250.99,559.39l-.28,5.65c-1.27-1.38-3.1-1.51-4.47-.34l-.1-5.71,4.85.39Z"/>
        <path class="cls-10" d="M268.97,463.17c.41,2.91-1.83,4.74-4.63,4.83-.18-1.58-1.49-3.25-.7-5.27,1.42.73,3.91.98,5.33.43Z"/>
        <path class="cls-14" d="M239.65,517.15c2.26-.71,3.92,1.17,5.52,1.73l.97,40.12.1,5.71.24,5.72-6.01.04-1.12-37.18c-.09-2.89.78-6.2-.55-9.59-.93-2.36-3.58-3.33-5.45-3.4,1.23-2.29,3.84-3.04,6.29-3.15Z"/>
        <path class="cls-14" d="M135.17,526.43l5.82,31.3c-1.7-.17-3.08.28-3.96,1.33l-4.91-34.29,3.05,1.67Z"/>
        <path class="cls-14" d="M135.17,526.43l-3.05-1.67-1.06-5.42c1.72-2.49,1.67-6.06,1.39-9.06l2.72,16.14Z"/>
        <g>
          <path class="cls-8" d="M274.07,273.78c-4.72,5.88-7.01,14.18-9.96,21.13l-2.42-.27c1.03-2.05,2.06-3.95,1.81-7.11l-4.12,1.93-.21-3.08c3.19-1.24,5.36-3.15,7.28-5.83,1.47-2.06,3.42-4.33,3.82-7.15l3.8.39Z"/>
          <path class="cls-10" d="M252.18,243.01l5.44,2.04c.6,2.21.37,6.84,2.09,9.16,6.57,6.51,8.52,15.3,5.41,23.56-5.49,3.99-12.04,5.34-18.7,4.14-1.42-2.28-1.92-4.93-1.54-7.78.3-2.22,2.2-5.53,6.08-5.15l6.14,4.68c1.24-4.02.43-7.06.53-10.01.12-3.45-2.88-6.08-5.07-7.48-5.71-3.67-14.67.05-21.21,6.37-4.16,9.39-5.48,20.33-4.59,30.58.42,4.84,2.2,9.04-.14,13.03-1.43.6-5.6.46-5.99-1.08l.08-17.49c.02-4.09,2.2-7.93,2.23-11.63.1-14.52,8.7-26.79,23.37-29.92,2.21-.47,3.21-2.1,2.73-3.94l3.14.91Z"/>
          <path class="cls-7" d="M269.18,257.83c1.48,5.05,1.81,10.43,1.09,15.56-.4,2.82-2.35,5.09-3.82,7.15-1.09-.24-1.62-2.03-1.34-2.78,3.12-8.26,1.16-17.05-5.41-23.56-1.72-2.32-1.49-6.95-2.09-9.16,5.62,2.1,8.64,7.72,11.56,12.79Z"/>
          <path class="cls-5" d="M220.29,519.75c.72.32,1.77,1.11,2.56,1l2.58,82.53,1.39,92.85c.04,2.77-.32,5.09-1.42,6.89-2.55-.05-8.35.02-9.93-2.97l-3.37-133.88c-.06-2.52.71-4.77-1.45-5.74.46-14.25,1.01-28.37.2-42.59,3.3-.27,6.45.59,9.44,1.9Z"/>
          <path class="cls-10" d="M226.92,520.19l2.28-.07c2.53,7.45,2.83,15.32,2.88,23.13.1,15.54.64,31.09,1.05,47.32l1.08,42.52.26,20.92.53,38.15-.64,11.03-8.95-.17c1.09-1.8,1.46-4.12,1.42-6.89l-1.39-92.85-2.58-82.53,4.07-.57Z"/>
          <path class="cls-7" d="M242.1,660.4l-.1,39.92-.09,1.15c-1.04,1.19-2.4,2.45-3.58,2.88-1.73.62-3-1.13-3.97-1.15l.64-11.03c1.02.14,5.34-.28,5.39-1.68l1.11-31.62.6,1.53Z"/>
          <polygon class="cls-14" points="244.94 660.4 245.3 700.31 242 700.32 242.1 660.4 244.94 660.4"/>
          <path class="cls-5" d="M249.04,242.1c.48,1.84-.52,3.46-2.73,3.94-14.68,3.13-23.27,15.39-23.37,29.92-.03,3.7-2.21,7.54-2.23,11.63l-.08,17.49c.39,1.54,4.56,1.68,5.99,1.08.16-.07.48.01.67.04.94,4.63-9.07,3.78-6.19,16.14-5.42,1.04-10.66,1.35-16.28,1.18-1.74-1.47-2.13-3.48-2.4-5.68-.48-4,1.04-8.73,4.19-11.36.84-.7,2.95-.49,2.9-2.47l-.08-3.47c-.29-12.13.13-24.21,4.56-35.62.8-2.06,1.19-5.82,2.4-7.41,1.9-1.5,3.11-4.95,4.64-6.52,7.48-7.69,17.85-11.81,28.01-8.86Z"/>
          <path class="cls-7" d="M257.62,263.64c-2.51-3.39-7.35-5.72-11.51-5.67-4.99.07-8.41,2.57-11.09,6.57-3.73,5.57-4.22,12.8-4.2,20.22l.06,19.99c-.06.62-.09,1.53,1.18,1.58l6.97.27c.45,1.22,1.86,2.25,2.92,2.83.25.14.67.06.95.08.48,1.76,2.83,5.55,1.72,7.79-4.33,8.72-20.71,7.51-33.86,7.44l-4.27-.02c-.69,0-1.24-.86-1.68-1.23,5.62.17,10.86-.14,16.28-1.18,4.98-.95,11.54-1.34,13.62-7.63.69-2.1-.85-5.69-2.16-6.77s-3.54-1.52-5.27-1.74c-.2-.03-.52-.1-.67-.04,2.34-4,.56-8.2.14-13.03-.9-10.25.43-21.19,4.59-30.58,6.54-6.31,15.51-10.04,21.21-6.37,2.19,1.41,5.18,4.04,5.07,7.48Z"/>
          <path class="cls-1" d="M207.88,327.63l.03,4.28v29.99s-1.43-.01-1.43-.01l-.14-11.85.03-4.92.12-18.93c.65.11,1.39.76,1.4,1.43Z"/>
          <path class="cls-11" d="M210.76,324.75l.15,2.82-3.03.06c0-.67-.74-1.32-1.4-1.43v-1.47s4.28.02,4.28.02Z"/>
          <path class="cls-11" d="M209.43,300.51c-1.04-1.15-2.71-2.84-2.65-4.33l.49-13.83c.04-1.14-.49-2.4-.47-3.52,2.71-2.94,3.13-7.27,3.79-11.09l3.4-2.86c-4.43,11.41-4.84,23.49-4.56,35.62Z"/>
          <path class="cls-14" d="M239.64,327.93l2.48,75.26c-2.84.67-5.13.32-7.27.25l-.17-1.78-.17-1.03c1.88-.47,3.02-1.92,2.92-4.42l-.73-18.99-1.67-44c-.05-1.35-.5-2.88.68-4.04.93-.92,2.46-1.31,3.92-1.25Z"/>
          <path class="cls-2" d="M261.69,294.64c-3.3,6.55-8.73,12.43-15.7,15.09l-3.09-.23c-.28-.02-.7.06-.95-.08l.4-14.41c3.41-.77,5.88-2.24,8.43-3l8.6-2.56,4.12-1.93c.25,3.16-.78,5.06-1.81,7.11Z"/>
          <path class="cls-14" d="M245.99,309.74c2.16,3.73,3.88,10.74-.79,14.16-1.54,1.12-6.14.52-5.56,4.04-1.45-.06-2.98.33-3.92,1.25-1.18,1.16-.73,2.69-.68,4.04-3.34-2.86-7.15-4.15-11.51-4.34l-4.31-.2-8.31-1.12-.15-2.82c13.15.07,29.52,1.28,33.86-7.44,1.11-2.24-1.23-6.03-1.72-7.79l3.09.23Z"/>
          <path class="cls-15" d="M234.51,400.63l.17,1.03c-1.66.18-1.29,2.16.17,1.78l.46,1.86-4.74,1.1-7.91.84c-.27-.29-.66-1.38-.3-1.64.41-.3,1.91-.6,2.59-.63,3.23-.16,4.54-2.47,4.44-4.82,1.68.53,3.42.68,5.12.49Z"/>
          <path class="cls-15" d="M266.45,280.55c-1.92,2.69-4.09,4.59-7.28,5.83-3.21,1.25-6.8,1.53-10-.02l-2.76-4.45c6.66,1.19,13.21-.15,18.7-4.14-.28.75.25,2.55,1.34,2.78Z"/>
          <path class="cls-14" d="M259.17,286.38l.21,3.08-8.6,2.56c-1.87-1.23-3.85-1.52-5.88-1.46,1.42-1.15,2.61-2.56,3.29-4.31.29.01.7-.03.97.1,3.2,1.55,6.79,1.27,10,.02Z"/>
          <path class="cls-14" d="M257.62,263.64c-.1,2.95.71,5.99-.53,10.01l-6.14-4.68c-3.88-.37-5.78,2.94-6.08,5.15-.38,2.85.12,5.5,1.54,7.78l2.76,4.45c-.27-.13-.69-.09-.97-.1-9.73-.35-7.67-10.88-13.05-7.91.6-4.62.67-9.08-.13-13.81,2.68-4,6.1-6.5,11.09-6.57,4.16-.06,9,2.27,11.51,5.67Z"/>
          <path class="cls-7" d="M226.92,520.19l-4.07.57c-.78.11-1.83-.69-2.56-1,2.12-1.03,4.79-1.15,6.63.43Z"/>
          <path class="cls-12" d="M240.48,570.46l.38,25.59-.02,1.58v5.54s-.16,25.81-.16,25.81l-.06,20.1c0,1.4.62,2.4,1.21,2.89l-.34,6.9-1.11,31.62c-.05,1.4-4.37,1.82-5.39,1.68l-.53-38.15-.26-20.92-1.08-42.52c-.41-16.23-.95-31.78-1.05-47.32,1.85.26,3.94,1.69,6.07.78-.77-4.53-.98-8.56,1.21-10.75l1.12,37.18Z"/>
          <path class="cls-7" d="M233.36,520.29c1.87.08,4.52,1.04,5.45,3.4,1.33,3.39.46,6.7.55,9.59-2.19,2.19-1.98,6.22-1.21,10.75-2.13.92-4.21-.51-6.07-.78-.05-7.81-.35-15.68-2.88-23.13l4.16.17Z"/>
          <path class="cls-10" d="M221.1,322.32c-2.87-12.36,7.13-11.51,6.19-16.14,1.73.22,3.95.66,5.27,1.74s2.85,4.67,2.16,6.77c-2.08,6.29-8.64,6.67-13.62,7.63Z"/>
          <path class="cls-14" d="M235.15,278.35c-2.03,15.53,6.83,28.84-4.28,26.4l-.06-19.99c-.02-7.41.47-14.65,4.2-20.22.8,4.72.73,9.19.13,13.81Z"/>
          <path class="cls-3" d="M248.2,286.26c-.68,1.75-1.87,3.16-3.29,4.31-1.93.06-3.75.07-6.39.9-.96,5.19-1.2,10.51.51,15.13l-6.97-.27c-1.28-.05-1.25-.97-1.18-1.58,11.1,2.44,2.25-10.87,4.28-26.4,5.38-2.97,3.32,7.56,13.05,7.91Z"/>
          <path class="cls-14" d="M244.91,290.57c2.02-.06,4.01.23,5.88,1.46-2.55.76-5.02,2.22-8.43,3l-.4,14.41c-1.06-.58-2.47-1.61-2.92-2.83-1.71-4.62-1.47-9.95-.51-15.13,2.64-.83,4.45-.84,6.39-.9Z"/>
          <path class="cls-5" d="M210.91,327.57l8.31,1.12c-.22,7.03,1.76,14.12,1.81,21.73l.39,54.46-6.75,2.09c3.42,1.46,5.71.51,7.99.27l7.91-.84c1.05.8,2.32,1.12,4.65,1.84-1.55,1.04-2.95,1.61-4.3,2.33-2.86,1.52-6.02,3.98-5.4,8.37.21,1.49,2.8,2.22,3.87,2.19l15.33-.55c.31.98.37,2.21-.04,3.14s-1.53,1.92-3.06,2.05l-11.71,1.01c-1.92.17-3.94,2.2-4.43,3.42-.76,1.9.33,4.27,1.12,6.11-.06.94-.98,3.04-2.75,3.23-13.61,1.5-26.99,8.38-28.13-1.18l-2.44-19.62c1.68-6.51,7.62-10.95,13.87-13.1l4.44,1.5-.94-63.72c-.02-1.03-.67-1.56-1.33-1.56,0-3.33.9-7.33-1.41-9.96l-.03-4.28,3.03-.06Z"/>
          <path class="cls-14" d="M209.32,341.87v39.96c0,.99-.84,1.59-1.41,1.5v-21.42s0-29.99,0-29.99c2.31,2.63,1.41,6.63,1.41,9.96Z"/>
          <path class="cls-15" d="M235.04,333.22l1.67,44c-1.57,2.86-4.5,3.95-7.47,3.01l-.4-39.42c-.05-5.12-1.82-8.84-5.3-11.94,4.35.2,8.17,1.49,11.51,4.34Z"/>
          <path class="cls-15" d="M234.51,400.63c-1.7.18-3.44.04-5.12-.49l-.15-19.91c2.97.94,5.9-.15,7.47-3.01l.73,18.99c.1,2.5-1.05,3.95-2.92,4.42Z"/>
          <path class="cls-15" d="M234.85,403.45c-1.46.38-1.83-1.59-.17-1.78l.17,1.78Z"/>
          <path class="cls-10" d="M223.53,328.88c3.48,3.1,5.25,6.82,5.3,11.94l.4,39.42.15,19.91c.11,2.35-1.2,4.66-4.44,4.82-.69.03-2.18.33-2.59.63-.36.26.03,1.35.3,1.64-2.28.24-4.57,1.19-7.99-.27l6.75-2.09-.39-54.46c-.05-7.61-2.04-14.7-1.81-21.73l4.31.2Z"/>
          <path class="cls-14" d="M242.08,628.98h-1.4s.17-25.81.17-25.81c.67.45,1.3,1.44,1.3,2.85l-.07,22.96Z"/>
          <path class="cls-7" d="M241.83,651.97c-.59-.49-1.21-1.49-1.21-2.89l.06-20.1h1.4s-.24,22.99-.24,22.99Z"/>
          <path class="cls-9" d="M240.84,597.63l.02-1.58c1.43-.07,1.5,1.57-.02,1.58Z"/>
          <path class="cls-13" d="M207.15,405.65c.22-.21.49-.65.51-1.02,2.53-1.82,2.6-11.4.26-15.58v-5.71c.56.09,1.41-.51,1.41-1.5v-39.96c.65,0,1.31.53,1.32,1.56l.94,63.72-4.44-1.5Z"/>
          <path class="cls-14" d="M207.65,404.62l.27-8.44v-7.14c2.33,4.19,2.26,13.76-.27,15.58Z"/>
        </g>
        <path class="cls-10" d="M277.41,468.56c1.07,4.56,3.04,9.32,1.1,15l-5.11-20.22c1.92,1.14,3.48,2.96,4.01,5.22Z"/>
      </g>
      <g>
        <path class="cls-5" d="M175.12,164.98c6.34.73,15.33,2.93,17.25,6.69,2.86,5.62,2.11,12.67,2.26,18.23-3.72.92-7.64-.12-11.22,1.77-12.76-10.79-39.58-6.71-40.99,8.34,7.06-5.55,13.65-7.21,21.35-7.94l1.41-.13,1.69.12c-.89,1.42-1.91,2.69-3.24,3.61-11.32.2-21.29,9.07-19.49,13.83.27.72,1.96.5,2.58.95,5.92,4.23,12.54,4.18,19.87,3.63l-.32,1.87c-3.72.28-7.1,2.76-8.36,7.15,9.42,1.96,18.37-1.55,21.98-9.44.93-2.04,2.65-4.17,2.5-6.72,5.05,1.92,7.99-2.64,12.62-2.14l-.3,41.88c-5.12,1.05-9.83-.14-12.64,3.31-1.42,1.74-1.15,3.4.08,4.21,1.69,1.11,3.21,2.09,4.94,2.57,1.61,6.2,3.7,11.92,2.25,18.46-4.16,1.7-9.82,3.66-14.32,7.11,1.96,2.76,4.32,0,5.88-.15,6.25-.64,13.99-.44,20.25.42-2.21,2.92-5.63,2.32-8.89,2.06-2.06-.16-5.25,1.17-6.36,2.96-1.19,1.94-2.16,6.07-.92,7.96,5.78-1.75,6.89,13.07,2.63,17.83-2.31,2.58-7.07,4.13-11.36,4.69-5.86-1.51-11.59-4.04-16.79-6.8-10.12-5.39-19.23-11.71-26.81-20.44l-4.85-7.85c-2.8-4.54-5.28-9.03-6.41-14.44s-.05-11.86-2.96-16.64c-.3-.49-1.21-1.58-1.75-1.5,3.85-4.34.14-8.29-1.24-12.84-3.94-13.02-3.55-27.07-2.26-40.47,1.62-2.6,3.73-5.45,4.18-8.16.3-1.83,2.57-4.65,3.79-6.79,5.7-1.97,10.08-4.96,13.53-9.32,6.78-3.56,13.73-7.34,22.03-6.49,5.84-1.6,12.39-2.09,18.41-1.4Z"/>
        <path class="cls-14" d="M269.11,182.92l5.49,24.83.24,44.27c-.69-.13-1.5-1.47-2.13-3.06l-3.54,8.86c-2.92-5.07-5.94-10.69-11.56-12.79l-5.44-2.04c.7-8.96,1.09-17.92-1.79-26.54-.23-.7-.5-1.34-1.06-1.88l-.15-1.27c-1.01-8.42.37-8.8-2.65-11.44-4.68-4.1-9.5-8.88-15.78-9.8-6.27-4.99-13.45,3.18-22.82,1.15,1.51-2.1,2.53-3.52,2.93-5.59,4.74-2.34,10.13-3.56,15.62-2.61,1.16.2,4.08.57,4.35-1.46.87-6.38-2.07-11.4-4.61-16.33,4.86-1.25,10.1.56,15.4,2.31,14.82,1.08,17.55,16.52,22.73,31.24,1.99-8-2.21-14.31-3.98-21.8-.33-1.4,2.43-1.54,3.15-.6l1.54,2.03c1.3,1.71,2.59,2.66,4.06,2.5ZM271.05,238.97c3.9-3.81,1.93-7.6-.84-10.22-.99,3.34-1.52,6.54.84,10.22Z"/>
        <path class="cls-3" d="M227.02,162.71c3.86-.26,7.67,1.88,11.81,2.68,10.05,1.95,18.64,5.67,27.09,11.32,2.24,1.5,3.76,2.55,3.26,5.28.07.28.06.72-.07.92-1.47.16-2.76-.79-4.06-2.5l-1.54-2.03c-.72-.94-3.48-.81-3.15.6,1.77,7.48,5.97,13.8,3.98,21.8-5.18-14.72-7.92-30.16-22.73-31.24-5.3-1.74-10.54-3.55-15.4-2.31-2.87.74-5.75-1.6-8.33-2.05,1.85-2.86,6.03-2.27,9.14-2.48Z"/>
        <path class="cls-4" d="M134.69,172.88c-3.45,4.36-7.83,7.35-13.53,9.32-1.22,2.14-3.48,4.96-3.79,6.79-.88-.89-1.29-2.06-1.94-2.68,2.69-7.32,10.91-14.76,19.26-13.43Z"/>
        <path class="cls-10" d="M202.22,163.51c.79.35,1.89,1.04,2.82,1.03-.39,1.3.38,2.35,1.06,2.76.89.55,4.35.52,4.95,1.43,2.42,3.67,1.22,10.05.7,14.72,6.61,1.18,12.85-2.11,14.71,1.55-5.49-.95-10.88.27-15.62,2.61-5.1,2.52-9.17,6.59-8.73,12.73-2.65,3.34-.86,7.64-.17,11.96l3.98,24.87c2.81.37,5.59.67,7.65,2.03,1.17,4.71.08,9.81-5.07,10.87-1.81-.94-4.16-1.12-6.14.54-6.58,5.53-11.71-1.71-20.29-.64,2.82-3.45,7.52-2.25,12.64-3.31l.3-41.88-.39-14.91c-.15-5.56.6-12.6-2.26-18.23-1.91-3.76-10.91-5.96-17.25-6.69l5.69-.1c1.74.01,3.19-1.1,4.33-1.23l17.07-.14Z"/>
        <path class="cls-10" d="M192.27,284.68c-.37,2.98-1.19,6.17-.03,9.77,4.05.31,8.54.85,9.92,3.61l4.45,8.4c-3.15,2.63-4.67,7.36-4.19,11.36-8.61.85-17.7,2.5-26.17.31,4.3-.56,9.05-2.11,11.36-4.69,4.27-4.76,3.15-19.58-2.63-17.83-1.24-1.89-.27-6.02.92-7.96,1.11-1.8,4.3-3.12,6.36-2.96Z"/>
        <path class="cls-5" d="M166.6,214.09c-7.33.55-13.95.6-19.87-3.63-1.4-6.3,9.17-12.07,16.47-11.8,1.92.07,3.75.06,5.89-.31,2.43,2.15,3.91,6.42,2.68,9.07-1.01,2.18-2.84,6.5-5.17,6.67ZM159.85,209.9c.36,1.63,4.71,1.85,6.2-.56,1.13-1.82.98-4.43-.89-6.3-1.12-1.11-4.23-1.47-4.91.8-.37,1.25.98,3.8-.4,6.06Z"/>
        <path class="cls-7" d="M210.59,267.75c-.66,3.82-1.08,8.15-3.79,11.09-11.68,2.86-21.59-2.76-25.89,3.36-1.56.16-3.91,2.91-5.88.15,4.5-3.45,10.16-5.41,14.32-7.11,1.45-.59,5.21.14,6.74-.8,1.71-3.71.67-8.02.6-11.42,5.05-.62,10.52.71,13.89,4.73Z"/>
        <path class="cls-15" d="M179.39,195.56c1.2,3.93,2.79,7.6,3.01,11.39.15,2.55-1.56,4.68-2.5,6.72-1.47-6.19-6.21,1.73-13.62,2.29l.32-1.87c2.33-.17,4.16-4.49,5.17-6.67,1.23-2.65-.25-6.92-2.68-9.07-2.14.37-3.97.38-5.89.31l.44-2.97c1.33-.92,2.35-2.19,3.24-3.61,3.59-1.5,11.29-.53,12.52,3.49Z"/>
        <path class="cls-15" d="M183.41,191.67c.45,1.3.82,4.05.1,5.3-1.56.49-3.36-.52-4.11-1.42-1.23-4.02-8.93-4.99-12.52-3.49l-1.69-.12c.14-1.84-1.8-1.52-1.41.13-7.7.72-14.28,2.39-21.35,7.94,1.4-15.05,28.22-19.13,40.99-8.34Z"/>
        <path class="cls-5" d="M194.63,189.9l.39,14.91c-4.63-.51-7.57,4.06-12.62,2.14-.22-3.79-1.81-7.47-3.01-11.39.76.9,2.56,1.91,4.11,1.42.72-1.25.36-4-.1-5.3,3.58-1.9,7.5-.85,11.22-1.77Z"/>
        <path class="cls-15" d="M206.78,296.18c-1.77-.32-3.73.05-4.62,1.87-1.39-2.76-5.87-3.31-9.92-3.61-1.16-3.59-.35-6.79.03-9.77,3.26.25,6.68.86,8.89-2.06,1.93.26,3.92.12,6.12-.26l-.49,13.83Z"/>
        <path class="cls-14" d="M208.5,250.09c.61,2.32-1.25,4.15-1.89,6-5.72.56-11.8-1.09-17.31,1.29l-2.2-.61c-1.73-.48-3.25-1.46-4.94-2.57-1.23-.81-1.5-2.47-.08-4.21,8.58-1.08,13.7,6.16,20.29.64,1.98-1.66,4.33-1.48,6.14-.54Z"/>
        <path class="cls-14" d="M179.9,213.67c-3.6,7.88-12.56,11.39-21.98,9.44,1.26-4.39,4.64-6.87,8.36-7.15,7.41-.56,12.15-8.48,13.62-2.29Z"/>
        <path class="cls-10" d="M189.31,257.38l7.39,5.64c.07,3.41,1.11,7.72-.6,11.42-1.53.93-5.29.2-6.74.8,1.45-6.55-.64-12.27-2.25-18.46l2.2.61Z"/>
        <path class="cls-14" d="M206.8,278.83c-.01,1.12.51,2.38.47,3.52-2.2.38-4.18.52-6.12.26-6.26-.86-14-1.05-20.25-.42,4.3-6.13,14.21-.51,25.89-3.36Z"/>
        <path class="cls-15" d="M163.64,195.68l-.44,2.97c-7.3-.26-17.87,5.5-16.47,11.8-.63-.45-2.31-.23-2.58-.95-1.8-4.77,8.18-13.63,19.49-13.83Z"/>
        <path class="cls-4" d="M121.4,268.6c1.13,5.41,3.61,9.9,6.41,14.44-.44.51-1.29,1.27-1.87,1.18-.7-.11-1.91-1.01-2.41-2.01l-6.92-13.73c1.38.71,3.64,2,4.79.12Z"/>
        <path class="cls-11" d="M166.64,162.07c.12.83,1.18,1.39,2.7,1.38l11.51-.07-.04,1.51-5.69.1c-6.02-.69-12.57-.19-18.41,1.4,1.73-3.51,6.27-3.77,9.92-4.31Z"/>
        <path class="cls-2" d="M165.18,191.94l-1.41.13c-.38-1.66,1.55-1.98,1.41-.13Z"/>
        <path class="cls-14" d="M256.79,411.49c-3.8,7,1.63,13.28-.36,16.36-2.41,3.73-.1,6.96.01,11.11.13,4.99-2.7,9.78-1.8,14.37-8.87,7.03-17.31,4.59-13.34,9.89l-3.61.57-4.14-.31-9.85,1.13c-4.2-2.81-13.86-.47-23.25-2.26-1.97-1.61-3.79-2.72-5.56-3.28l-1.13-3c-1.56-4.14-2.65-8.4-2.91-12.78-.21-3.58-.88-6.3,1.86-8.82.85,6.76,3.91,12.75,6.46,18.61,3.05,7,14.36,6.86,25.77,5.99,10.32-.78,24.49-3.23,25.78-8.77.33-1.41-.59-3.12-1.84-4.6,3.21-2.38,5.66-7.33,3.79-10.71l-6.58-1.92c2.34-.39,4.86-2.22,6.01-3.68,1.39-1.77,2.1-6.11.4-7.84-1.65-1.67-4.42-1.45-5.99-1.23l-.05-1.55c2.47-.29,4.95-2.08,5.37-3.92.5-2.18.14-5.7.23-7.41,2.57-2.85-1.26-3.31-3.83-8.31,1.43-.22,4.09-.38,5.29,1.36,2.18,3.15,1.67,8.35,3.28,10.98Z"/>
        <path class="cls-15" d="M249.32,214.58c.08.71.68,1.33,1.06,1.88,2.88,8.62,2.49,17.58,1.79,26.54l-3.14-.91c-10.16-2.94-20.52,1.17-28.01,8.86.03-6.06-3.71-9.95-5.84-14.66-2.66-5.9-3.33-13.52-2.07-20.3l11.87,3.03c2.63.67,5.79-.34,8.51.69,5.66,2.16,12.18-1.67,15.66-6.4l.15,1.27Z"/>
        <path class="cls-15" d="M217.87,165.19c2.58.45,5.46,2.78,8.33,2.05,2.54,4.93,5.48,9.95,4.61,16.33-.28,2.03-3.2,1.66-4.35,1.46-1.85-3.66-8.09-.37-14.71-1.55.52-4.68,1.71-11.05-.7-14.72-.6-.91-4.06-.88-4.95-1.43-.68-.42-1.45-1.46-1.06-2.76,4.24-.01,8.57-.1,12.83.64Z"/>
        <path class="cls-8" d="M230.74,192.07c-9.33-1.37-18.31,3.7-16.2,7.16.21.35.23,1.06.29,1.6-1.15,2.12-4.53,5.47-3.44,7.78-1.94.95-6.23,2.88-7.96.86-2.03-2.37-1.07-6.73-1.31-9.11-.44-6.14,3.63-10.21,8.73-12.73-.4,2.07-1.41,3.49-2.93,5.59,9.37,2.04,16.55-6.14,22.82-1.15Z"/>
        <path class="cls-10" d="M230.74,192.07c6.28.92,11.1,5.7,15.78,9.8.48,1.73-1.27,3.15-1.42,4.27l-1.71.02c-.98-1.78-2.19-3.66-3.83-5.02-7.17-5.95-17.18-7.03-25.04-1.92-2.1-3.46,6.88-8.53,16.2-7.16Z"/>
        <path class="cls-9" d="M249.17,213.32c-3.49,4.73-10,8.55-15.66,6.4,3.97-4.36,10.61-5.94,11.6-13.57.14-1.12,1.9-2.54,1.42-4.27,3.02,2.64,1.64,3.03,2.65,11.44Z"/>
        <path class="cls-4" d="M271.05,238.97c-2.36-3.68-1.83-6.88-.84-10.22,2.77,2.62,4.74,6.41.84,10.22Z"/>
        <path class="cls-9" d="M250.39,216.46c-.39-.55-.98-1.17-1.06-1.88.56.54.83,1.18,1.06,1.88Z"/>
        <path class="cls-14" d="M211.38,208.61c3.47,5.13,8.91,8.9,14.92,7.38l-1.32,3.03-11.87-3.03c-1.27,6.78-.6,14.4,2.07,20.3-1.41.17-1.89,1.84-1.62,2.92-2.06-1.36-4.84-1.66-7.65-2.03l-3.98-24.87c-.69-4.32-2.48-8.62.17-11.96.24,2.37-.72,6.74,1.31,9.11,1.73,2.02,6.03.09,7.96-.86Z"/>
        <path class="cls-8" d="M221.03,250.96c-1.53,1.57-2.74,5.02-4.64,6.52-3.15-2.63-6.51-1.7-9.78-1.38.64-1.86,2.5-3.68,1.89-6,5.15-1.07,6.24-6.16,5.07-10.87-.27-1.08.21-2.75,1.62-2.92,2.13,4.71,5.88,8.61,5.84,14.66Z"/>
        <path class="cls-15" d="M185.14,163.65c-1.15.13-2.59,1.24-4.33,1.23l.04-1.51,4.29.27Z"/>
        <path class="cls-7" d="M206.78,296.18c-.05,1.48,1.61,3.18,2.65,4.33l.08,3.47c.05,1.98-2.06,1.77-2.9,2.47l-4.45-8.4c.89-1.83,2.85-2.19,4.62-1.87Z"/>
        <path class="cls-3" d="M159.85,209.9c1.38-2.26.03-4.81.4-6.06.67-2.27,3.79-1.91,4.91-.8,1.87,1.86,2.02,4.47.89,6.3-1.49,2.41-5.84,2.19-6.2.56Z"/>
        <path class="cls-14" d="M206.61,256.09c3.27-.32,6.63-1.25,9.78,1.38-1.21,1.6-1.6,5.36-2.4,7.41l-3.4,2.86c-3.37-4.02-8.85-5.35-13.89-4.73l-7.39-5.64c5.51-2.38,11.58-.73,17.31-1.29Z"/>
        <path class="cls-15" d="M252.04,407.46c-.09,1.71.27,5.23-.23,7.41-.42,1.84-2.9,3.63-5.37,3.92-4.11.47-8.49.43-12.5-.47.55-2.31,2.89-4.15,4.95-4.83l4.78-.67c-1.02-2.26-1.61-4.55-1.41-6.66,3.21.39,6.71-.23,9.76,1.31Z"/>
        <path class="cls-10" d="M242.28,406.15c-.2,2.11.39,4.4,1.41,6.66l-4.78.67c.16-.77.17-1.92-.55-2.5-3.3,1.28-5.61.86-7.43-.41,1.35-.72,2.75-1.29,4.3-2.33-2.33-.72-3.6-1.04-4.65-1.84l4.74-1.1,6.96.85Z"/>
        <path class="cls-10" d="M237.69,463.8c.4,4.31,5.11,5.84,7.66,9.01,3.95,4.92,4.54,11.83,4.79,17.51.21,4.75-2.47,10.71-5.7,14.19-2.09,2.25-7.47,4.52-5.19,8.97l-1.6,1.32c-7.22.45-14.64,1.45-21.83.64,4.79-9.15,15.74-4.56,18.66-9.01.84-1.28.15-3.57-.89-3.84-5.64-1.45-11.92,5.2-22.64,1.05,8.53-9.06,19.45.02,22.56-9.68.93-2.91-2.34-4.7-4.15-3.66-8.75,1.33-17.31,2.76-25.62-.09-.49.22-1.24.26-2.22.11l12.32-2.38c5.41-1.05,9.47-3.61,15.28-3.25,1.88.12,3.01-2.12,3.83-2.75,1.31-1.01-.22-5.01-2.17-4.39-5.73,1.83-10.33.75-16.09,1.08l-10.95.63-3.18-3.09c9.18-1.7,18.47-2.48,28.45-3.29,2.71-1.45,3.84-6.9,4.53-9.37l4.14.31Z"/>
        <path class="cls-15" d="M241.3,463.23l2.78.05,7.79-.21c5.32-.15,6.66,2.48,7.51,5.87l5.56,20.06-.07,7.15c-.95.53-1.52,1.55-1.69,2.6-4.14-2.9-8.02-6.6-13.03-8.44-.25-5.68-.84-12.59-4.79-17.51-2.55-3.18-7.26-4.7-7.66-9.01l3.61-.57Z"/>
        <path class="cls-10" d="M226.6,436.31l19.49-3.22,6.58,1.92c-7.43,5.32-18.19-.03-22.9,5.24-1.66,1.86-2.24,5.26-1.63,7.54,2,7.47-14.44,5.28-28.97,5.3-2.55-5.86-5.61-11.85-6.46-18.61,1.7-1.62-.25-5.97-.61-8.13-.44-2.69.56-5.2,1.18-7.6l2.44,19.62c1.15,9.55,14.52,2.67,28.13,1.18,1.77-.19,2.69-2.29,2.75-3.23Z"/>
        <path class="cls-13" d="M233.55,463.49c-.69,2.47-1.81,7.92-4.53,9.37-9.98.81-19.27,1.59-28.45,3.29-1.81-1.67-1.6-4.87-.36-7.06,3.41-6.06,15.49-3.55,23.49-4.47l9.85-1.13Z"/>
        <path class="cls-15" d="M246.09,433.09l-19.49,3.22c-.79-1.84-1.88-4.2-1.12-6.11.49-1.22,2.51-3.26,4.43-3.42l11.71-1.01c1.53-.13,2.65-1.14,3.06-2.05s.36-2.16.04-3.14l1.78-.24c1.57-.21,4.34-.44,5.99,1.23,1.7,1.73,1,6.06-.4,7.84-1.15,1.46-3.67,3.3-6.01,3.68Z"/>
        <path class="cls-15" d="M248.88,445.72c1.25,1.47,2.17,3.19,1.84,4.6-6.09.13-13.57-1.28-19.91,2.09-1.93,1.1-2.91,6.23-5.87,6.67-11.41.87-22.72,1.01-25.77-5.99,14.54-.02,30.98,2.17,28.97-5.3,2.85.66,5.91.22,9.56-.35l11.17-1.72Z"/>
        <path class="cls-15" d="M248.88,445.72l-11.17,1.72c-3.65.56-6.71,1.01-9.56.35-.61-2.28-.03-5.68,1.63-7.54,4.71-5.27,15.47.08,22.9-5.24,1.87,3.38-.59,8.33-3.79,10.71Z"/>
        <path class="cls-15" d="M250.72,450.32c-1.29,5.54-15.46,7.98-25.78,8.77,2.95-.44,3.94-5.57,5.87-6.67,6.34-3.38,13.82-1.96,19.91-2.09Z"/>
        <path class="cls-11" d="M233.95,418.31c4.01.91,8.39.95,12.5.47l.05,1.55-1.78.24-15.33.55c-.09-1.01.44-2.42,1.25-2.69,1.06-.36,2.32-.35,3.31-.13Z"/>
        <path class="cls-15" d="M244.44,504.51c4.12,4.17,7.98,5.16,12.89,3.27v1.17s-2.39,1.32-2.39,1.32l-1.09.41c-.75.22-1.45.58-2.07,1.03-.33.16-.82.06-1.19.07-1.08.01-2.22.33-2.92,1.16-2.75.7-5.61.89-8.43.54-2.27-4.45,3.1-6.72,5.19-8.97Z"/>
        <path class="cls-4" d="M264.99,504.73c-3.36.15-2.68,5.44-7.67,4.22v-1.17c3.73-1.43,5.22-5.01,5.86-9.02.17-1.05.74-2.07,1.69-2.6l.13,8.57Z"/>
        <path class="cls-8" d="M233.51,219.71c-2.72-1.04-5.88-.02-8.51-.69l1.32-3.03,1.3-.08,1.66.24c-.21,1.65,1.43,1.6,1.37.07,5.93-.86,10.51-4.54,12.75-10.05l1.71-.02c-.99,7.63-7.63,9.2-11.6,13.57Z"/>
        <path class="cls-5" d="M219.4,200.6l4.3,2.89c-1.08,1.44-1.68,4.24-.62,5.46,1.53,1.77,4.06,1.9,5.88,1.9l.63,1.53c-.34,1.34-1.06,2.53-1.96,3.53l-1.3.08c-6.02,1.51-11.46-2.25-14.92-7.38-1.09-2.31,2.29-5.66,3.44-7.78l4.58-.23Z"/>
        <path class="cls-15" d="M239.57,201.15c-1.07.57-3.01,1.21-4.21,1.07-.13-4.23-10.02-4.62-15.96-1.62l-4.58.23c-.06-.54-.08-1.25-.29-1.6,7.85-5.11,17.87-4.03,25.04,1.92Z"/>
        <path class="cls-15" d="M243.39,206.17c-2.23,5.51-6.82,9.2-12.75,10.05l-1.37-.07-1.66-.24c.9-1,1.62-2.18,1.96-3.53,4.57-1.24,6.58-5.51,5.78-10.16,1.19.15,3.14-.49,4.21-1.07,1.64,1.36,2.85,3.24,3.83,5.02Z"/>
        <path class="cls-13" d="M215.82,515.43l-1.62.69c-1.72-1.53-4.11-1.76-6.42-1.32-1.62-1.11-3.02-2.42-3.73-4.17-.78-1.92,1.77-4.29,2.52-5.75-2.08-1.97-4.53-3.06-5.16-5.71-.5-2.08.03-4.46,2.17-5.84l21.47-.27c3.04-.03,3.24-2.15,4.31-2.76,1.81-1.04,5.08.74,4.15,3.66-3.1,9.7-14.03.61-22.56,9.68,10.72,4.14,17-2.51,22.64-1.05,1.04.27,1.73,2.56.89,3.84-2.92,4.46-13.88-.13-18.66,9.01ZM208.62,503.3l-.71.71.71.71.71-.71-.71-.71Z"/>
        <path class="cls-10" d="M214.2,516.11l-3.43.04c-1.35.02-2.04-.71-3-1.36,2.31-.44,4.71-.21,6.42,1.32Z"/>
        <path class="cls-10" d="M238.9,413.48c-2.06.69-4.4,2.52-4.95,4.83-.99-.22-2.25-.23-3.31.13-.8.27-1.34,1.67-1.25,2.69-1.08.04-3.66-.7-3.87-2.19-.62-4.39,2.54-6.85,5.4-8.37,1.83,1.27,4.13,1.69,7.43.41.73.58.71,1.73.55,2.5Z"/>
        <path class="cls-13" d="M201.52,490.31c-2.09-1.38-2.48-4.71-1.91-7.25.35-1.56,2.02-3.69,4.14-3.81l10.95-.63c5.76-.33,10.36.74,16.09-1.08,1.95-.62,3.47,3.38,2.17,4.39-.82.63-1.95,2.87-3.83,2.75-5.81-.36-9.87,2.2-15.28,3.25l-12.32,2.38Z"/>
        <path class="cls-7" d="M263.17,498.76c-.64,4.01-2.13,7.59-5.84,9.02-4.92,1.89-8.77.9-12.89-3.27,3.23-3.47,5.91-9.43,5.7-14.19,5.02,1.83,8.89,5.54,13.03,8.44Z"/>
        <path class="cls-14" d="M229.36,490.29c-1.07.62-1.27,2.73-4.31,2.76l-21.47.27.16-3.12c8.32,2.85,16.88,1.42,25.62.09Z"/>
        <path class="cls-11" d="M264.94,489l-5.56-20.06c.89-.43,1.35-1.61,1.47-2.88,2.77,7.19,4.17,15.24,4.09,22.94Z"/>
        <path class="cls-14" d="M257.72,460.6c.34-.14,1.09-.35,1.47-.15,1.37,1.58,1.01,3.93,1.66,5.61-.12,1.27-.58,2.45-1.47,2.88-.86-3.4-2.2-6.02-7.51-5.87l-7.79.21c.96-3.01,8.08-.4,13.64-2.68Z"/>
        <path class="cls-3" d="M250.59,511.77l.04,2.19c.01.68-1.01,1.15-1.74.48-.49-.45-.92-.94-1.22-1.52.7-.83,1.85-1.14,2.92-1.16Z"/>
        <path class="cls-3" d="M251.78,511.7c.63-.45,1.32-.81,2.07-1.03l-2.07,1.03Z"/>
        <path class="cls-4" d="M229.28,216.15l1.37.07c.06,1.52-1.58,1.57-1.37-.07Z"/>
        <path class="cls-5" d="M235.36,202.21c.8,4.65-1.21,8.92-5.78,10.16l-.63-1.53c1.62-1.95,2.37-4.53.77-7.08-1.19-1.88-4.06-2.15-6.02-.29l-4.3-2.89c5.94-3.01,15.83-2.61,15.96,1.62Z"/>
        <path class="cls-3" d="M228.95,210.85c-1.82,0-4.34-.13-5.88-1.9-1.06-1.22-.45-4.02.62-5.46,1.96-1.86,4.83-1.59,6.02.29,1.61,2.54.85,5.13-.77,7.08Z"/>
        <polygon class="cls-10" points="208.62 503.3 209.34 504.01 208.62 504.73 207.91 504.01 208.62 503.3"/>
      </g>
    </g>
  </g>
</svg>