<?xml version="1.0" encoding="UTF-8"?>
<svg id="Réteg_1" xmlns="http://www.w3.org/2000/svg" version="1.1" viewBox="0 0 18 18">
  <!-- Generator: Adobe Illustrator 30.4.0, SVG Export Plug-In . SVG Version: 2.1.4 Build 226)  -->
  <defs>
    <style>
      .st0 {
        fill: #67270a;
      }

      .st1 {
        fill: #6d4617;
      }

      .st2 {
        fill: #e6c48a;
      }
    </style>
  </defs>
  <rect class="st1" y="0" width="18" height="18"/>
  <path class="st2" d="M17,1v16H1V1h16M18,0H0v18h18V0h0Z"/>
  <rect class="st0" y="0" width="1" height="1"/>
  <rect class="st0" x="17" y="0" width="1" height="1"/>
  <rect class="st0" x="17" y="17" width="1" height="1"/>
  <rect class="st0" y="17" width="1" height="1"/>
  <rect class="st0" x="2.9" y="17" width="1.6" height="1"/>
  <rect class="st0" x="10" y="17" width="1.6" height="1"/>
  <rect class="st0" x="13.5" y="17" width="1.6" height="1"/>
  <rect class="st0" x="6.4" y="17" width="1.6" height="1"/>
  <rect class="st0" x="2.9" y="0" width="1.6" height="1"/>
  <rect class="st0" x="6.4" y="0" width="1.6" height="1"/>
  <rect class="st0" x="10" y="0" width="1.6" height="1"/>
  <rect class="st0" x="13.5" y="0" width="1.6" height="1"/>
  <rect class="st0" x="17" y="2.9" width="1" height="1.6"/>
  <rect class="st0" x="17" y="6.4" width="1" height="1.6"/>
  <rect class="st0" x="17" y="10" width="1" height="1.6"/>
  <rect class="st0" x="17" y="13.5" width="1" height="1.6"/>
  <rect class="st0" y="2.9" width="1" height="1.6"/>
  <rect class="st0" y="6.4" width="1" height="1.6"/>
  <rect class="st0" y="10" width="1" height="1.6"/>
  <rect class="st0" y="13.5" width="1" height="1.6"/>
</svg>