<?xml version="1.0" encoding="UTF-8"?>
<svg id="Réteg_1" xmlns="http://www.w3.org/2000/svg" version="1.1" viewBox="0 0 18 18">
  <!-- Generator: Adobe Illustrator 30.4.0, SVG Export Plug-In . SVG Version: 2.1.4 Build 226)  -->
  <defs>
    <style>
      .st0 {
        fill: #631b11;
      }

      .st1 {
        fill: #67270a;
      }

      .st2 {
        fill: #684923;
      }

      .st3 {
        fill: #4c3011;
      }

      .st4, .st5 {
        fill: #846c4a;
      }

      .st5 {
        display: none;
      }

      .st6 {
        fill: #6d4617;
      }

      .st7 {
        fill: #895c21;
      }

      .st8 {
        fill: #e6c48a;
      }
    </style>
  </defs>
  <g>
    <rect class="st6" y="0" width="18" height="18"/>
    <path class="st8" d="M17,1v16H1V1h16M18,0H0v18h18V0h0Z"/>
    <rect class="st1" y="0" width="1" height="1"/>
    <rect class="st1" x="17" y="0" width="1" height="1"/>
    <rect class="st1" x="17" y="17" width="1" height="1"/>
    <rect class="st1" y="17" width="1" height="1"/>
    <rect class="st1" x="2.9" y="17" width="1.6" height="1"/>
    <rect class="st1" x="10" y="17" width="1.6" height="1"/>
    <rect class="st1" x="13.5" y="17" width="1.6" height="1"/>
    <rect class="st1" x="6.4" y="17" width="1.6" height="1"/>
    <rect class="st1" x="2.9" y="0" width="1.6" height="1"/>
    <rect class="st1" x="6.4" y="0" width="1.6" height="1"/>
    <rect class="st1" x="10" y="0" width="1.6" height="1"/>
    <rect class="st1" x="13.5" y="0" width="1.6" height="1"/>
    <rect class="st1" x="17" y="2.9" width="1" height="1.6"/>
    <rect class="st1" x="17" y="6.4" width="1" height="1.6"/>
    <rect class="st1" x="17" y="10" width="1" height="1.6"/>
    <rect class="st1" x="17" y="13.5" width="1" height="1.6"/>
    <rect class="st1" y="2.9" width="1" height="1.6"/>
    <rect class="st1" y="6.4" width="1" height="1.6"/>
    <rect class="st1" y="10" width="1" height="1.6"/>
    <rect class="st1" y="13.5" width="1" height="1.6"/>
  </g>
  <rect class="st7" x="3.8" y="3.8" width="10.4" height="10.4" transform="translate(-3.7 9) rotate(-45)"/>
  <polygon class="st4" points="9 9 1.6 9 9 16.4 9 16.4 9 9"/>
  <polygon class="st4" points="9 9 16.4 9 9 1.6 9 1.6 9 9"/>
  <polygon class="st4" points="16.4 9 12.7 12.7 9 9 16.4 9"/>
  <polygon class="st7" points="16.4 9 12.7 5.3 9 9 16.4 9"/>
  <polygon class="st7" points="9 9 5.3 12.7 1.6 9 9 9"/>
  <polygon class="st4" points="9 9 5.3 5.3 1.7 9 9 9"/>
  <path class="st3" d="M9,2.4l6.6,6.6-6.6,6.6-6.6-6.6,6.6-6.6M9,1.6L1.6,9l7.4,7.4,7.4-7.4L9,1.6h0Z"/>
  <g>
    <polygon class="st3" points="12.7 5.3 5.3 5.3 9 9 12.7 5.3"/>
    <polygon class="st2" points="5.3 5.3 5.3 12.7 9 9 5.3 5.3"/>
    <polygon class="st3" points="9 9 5.3 12.7 5.3 9 9 9"/>
    <polygon class="st2" points="5.3 12.7 12.7 12.7 9 9 5.3 12.7"/>
    <polygon class="st3" points="9 9 12.7 12.7 12.7 5.3 9 9"/>
    <polygon class="st3" points="9 9 12.7 12.7 9 12.7 9 9"/>
    <polygon class="st2" points="9 9 12.7 5.3 9 5.3 9 9"/>
    <polygon class="st2" points="9 9 12.7 12.7 12.7 9 9 9"/>
  </g>
  <rect class="st5" x="5.3" y="5.3" width="7.3" height="7.3"/>
  <g>
    <polygon class="st0" points="9 10.2 6.7 12.5 5.5 11.3 7.8 9 5.5 6.7 6.7 5.5 9 7.8 11.3 5.5 12.5 6.7 10.2 9 12.5 11.3 11.3 12.5 9 10.2"/>
    <path class="st8" d="M6.7,5.7l2.1,2.1.2.2.2-.2,2.1-2.1,1,1-2.1,2.1-.2.2.2.2,2.1,2.1-1,1-2.1-2.1-.2-.2-.2.2-2.1,2.1-1-1,2.1-2.1.2-.2-.2-.2-2.1-2.1,1-1M11.3,5.3l-2.3,2.3-2.3-2.3-1.4,1.4,2.3,2.3-2.3,2.3,1.4,1.4,2.3-2.3,2.3,2.3,1.4-1.4-2.3-2.3,2.3-2.3-1.4-1.4h0Z"/>
  </g>
</svg>