<?xml version="1.0" encoding="UTF-8"?>
<svg id="Réteg_1" xmlns="http://www.w3.org/2000/svg" version="1.1" viewBox="0 0 18 18">
  <!-- Generator: Adobe Illustrator 30.4.0, SVG Export Plug-In . SVG Version: 2.1.4 Build 226)  -->
  <defs>
    <style>
      .st0 {
        fill: #171a23;
      }

      .st1 {
        fill: #67270a;
      }

      .st2 {
        fill: #4c3011;
      }

      .st3 {
        fill: #846c4a;
      }

      .st4 {
        fill: #6d4617;
      }

      .st5 {
        fill: #e6c48a;
      }
    </style>
  </defs>
  <g>
    <rect class="st4" y="0" width="18" height="18"/>
    <path class="st5" d="M17,1v16H1V1h16M18,0H0v18h18V0h0Z"/>
    <rect class="st1" y="0" width="1" height="1"/>
    <rect class="st1" x="17" y="0" width="1" height="1"/>
    <rect class="st1" x="17" y="17" width="1" height="1"/>
    <rect class="st1" y="17" width="1" height="1"/>
    <rect class="st1" x="2.9" y="17" width="1.6" height="1"/>
    <rect class="st1" x="10" y="17" width="1.6" height="1"/>
    <rect class="st1" x="13.5" y="17" width="1.6" height="1"/>
    <rect class="st1" x="6.4" y="17" width="1.6" height="1"/>
    <rect class="st1" x="2.9" y="0" width="1.6" height="1"/>
    <rect class="st1" x="6.4" y="0" width="1.6" height="1"/>
    <rect class="st1" x="10" y="0" width="1.6" height="1"/>
    <rect class="st1" x="13.5" y="0" width="1.6" height="1"/>
    <rect class="st1" x="17" y="2.9" width="1" height="1.6"/>
    <rect class="st1" x="17" y="6.4" width="1" height="1.6"/>
    <rect class="st1" x="17" y="10" width="1" height="1.6"/>
    <rect class="st1" x="17" y="13.5" width="1" height="1.6"/>
    <rect class="st1" y="2.9" width="1" height="1.6"/>
    <rect class="st1" y="6.4" width="1" height="1.6"/>
    <rect class="st1" y="10" width="1" height="1.6"/>
    <rect class="st1" y="13.5" width="1" height="1.6"/>
  </g>
  <rect class="st0" x="3.8" y="3.8" width="10.4" height="10.4" transform="translate(-3.7 9) rotate(-45)"/>
  <polygon class="st1" points="8 2.6 8 15.4 9 16.4 10 15.4 10 2.6 9 1.6 8 2.6"/>
  <polygon class="st1" points="1.6 9 2.6 10 15.4 10 16.4 9 15.4 8 2.6 8 1.6 9"/>
  <polygon class="st3" points="6.5 4.2 4.2 6.5 4.2 11.5 6.5 13.8 11.5 13.8 13.8 11.5 13.8 6.5 11.5 4.2 6.5 4.2"/>
  <polygon class="st2" points="10.1 6 9.9 5.8 9.2 6.5 9.2 6.2 9.2 6.2 9.7 5.7 9.5 5.5 9.2 5.7 9.2 5.3 8.9 5.3 8.9 5.7 8.6 5.5 8.4 5.7 8.9 6.2 8.9 6.2 8.9 6.5 8.2 5.8 8 6 8.9 6.9 8.9 6.9 8.9 12.7 9.2 12.7 9.2 6.9 9.2 6.9 10.1 6"/>
  <polygon class="st2" points="11.9 7.6 11.9 7.3 10.9 7.3 11.2 7.1 11.2 7.1 11.9 7.1 11.9 6.8 11.5 6.8 11.8 6.5 11.6 6.3 11.2 6.6 11.2 6.2 10.9 6.2 10.9 6.9 10.9 6.9 10.7 7.1 10.7 6.2 10.4 6.2 10.4 7.4 10.4 7.4 6.3 11.5 6.5 11.7 10.6 7.6 10.6 7.6 11.9 7.6"/>
  <polygon class="st2" points="7.7 6.2 7.4 6.2 7.4 7.1 7.2 6.9 7.2 6.9 7.2 6.2 6.9 6.2 6.9 6.6 6.5 6.3 6.3 6.5 6.6 6.8 6.2 6.8 6.2 7.1 6.9 7.1 6.9 7.1 7.2 7.3 6.2 7.3 6.2 7.6 7.5 7.6 7.5 7.6 11.6 11.7 11.8 11.5 7.7 7.4 7.7 7.4 7.7 6.2"/>
  <polygon class="st2" points="6.1 8 5.9 8.2 6.5 8.8 6.2 8.8 6.2 8.8 5.7 8.4 5.5 8.6 5.8 8.8 5.3 8.8 5.3 9.1 5.8 9.1 5.5 9.4 5.7 9.6 6.2 9.2 6.2 9.1 6.5 9.1 5.9 9.8 6.1 10 7 9.2 7 9.1 12.7 9.1 12.7 8.8 7 8.8 7 8.8 6.1 8"/>
  <polygon class="st2" points="6.2 10.4 6.2 10.7 7.2 10.7 6.9 10.9 6.9 10.9 6.2 10.9 6.2 11.2 6.6 11.2 6.3 11.5 6.5 11.7 6.9 11.4 6.9 11.8 7.2 11.8 7.2 11.1 7.2 11.1 7.4 10.9 7.4 11.8 7.7 11.8 7.7 10.6 7.7 10.6 11.8 6.5 11.6 6.3 7.5 10.4 7.5 10.4 6.2 10.4"/>
  <polygon class="st2" points="8 12 8.2 12.2 8.9 11.5 8.9 11.8 8.9 11.8 8.4 12.3 8.6 12.5 8.9 12.3 8.9 12.7 9.2 12.7 9.2 12.3 9.5 12.5 9.7 12.3 9.2 11.8 9.2 11.8 9.2 11.5 9.9 12.2 10.1 12 9.2 11.1 9.2 11.1 9.2 5.3 8.9 5.3 8.9 11.1 8.9 11.1 8 12"/>
  <polygon class="st2" points="10.4 11.8 10.7 11.8 10.7 10.9 10.9 11.1 10.9 11.1 10.9 11.8 11.2 11.8 11.2 11.4 11.6 11.7 11.8 11.5 11.5 11.2 11.9 11.2 11.9 10.9 11.2 10.9 11.2 10.9 10.9 10.7 11.9 10.7 11.9 10.4 10.6 10.4 10.6 10.4 6.5 6.3 6.3 6.5 10.4 10.6 10.4 10.6 10.4 11.8"/>
  <polygon class="st2" points="12 10 12.2 9.8 11.6 9.2 11.9 9.2 11.9 9.2 12.4 9.6 12.6 9.4 12.3 9.2 12.7 9.2 12.7 8.9 12.3 8.9 12.6 8.6 12.4 8.4 11.9 8.8 11.9 8.9 11.6 8.9 12.2 8.2 12 8 11.1 8.8 11.1 8.9 5.3 8.9 5.3 9.2 11.1 9.2 11.1 9.2 12 10"/>
  <polygon class="st0" points="2.6 13.6 2.6 13.6 2.6 15.4 4.4 15.4 4.4 15.4 2.6 13.6"/>
  <polygon class="st0" points="13.6 15.4 13.6 15.4 15.4 15.4 15.4 13.6 15.4 13.6 13.6 15.4"/>
  <polygon class="st0" points="4.4 2.6 4.4 2.6 2.6 2.6 2.6 4.4 2.6 4.4 4.4 2.6"/>
  <polygon class="st0" points="15.4 4.4 15.4 4.4 15.4 2.6 13.6 2.6 13.6 2.6 15.4 4.4"/>
</svg>