<?xml version="1.0" encoding="UTF-8"?>
<svg id="Réteg_1" xmlns="http://www.w3.org/2000/svg" version="1.1" xmlns:xlink="http://www.w3.org/1999/xlink" viewBox="0 0 18 18">
  <!-- Generator: Adobe Illustrator 30.4.0, SVG Export Plug-In . SVG Version: 2.1.4 Build 226)  -->
  <defs>
    <style>
      .st0 {
        fill: #e1b06a;
      }

      .st1 {
        fill: #67270a;
      }

      .st2 {
        fill: #291b0c;
      }

      .st3 {
        fill: #8f7b61;
      }

      .st4 {
        fill: #e6c48a;
      }
    </style>
  </defs>
  <rect class="st2" y="0" width="18" height="18"/>
  <path class="st4" d="M17,1v16H1V1h16M18,0H0v18h18V0h0Z"/>
  <rect class="st1" y="0" width="1" height="1"/>
  <rect class="st1" x="17" y="0" width="1" height="1"/>
  <rect class="st1" x="17" y="17" width="1" height="1"/>
  <rect class="st1" y="17" width="1" height="1"/>
  <g>
    <rect class="st1" x="2.9" y="17" width="1.6" height="1"/>
    <rect class="st1" x="10" y="17" width="1.6" height="1"/>
    <rect class="st1" x="13.5" y="17" width="1.6" height="1"/>
    <rect class="st1" x="6.4" y="17" width="1.6" height="1"/>
    <rect class="st1" x="2.9" y="0" width="1.6" height="1"/>
    <rect class="st1" x="6.4" y="0" width="1.6" height="1"/>
    <rect class="st1" x="10" y="0" width="1.6" height="1"/>
    <rect class="st1" x="13.5" y="0" width="1.6" height="1"/>
  </g>
  <g>
    <rect class="st1" x="17" y="2.9" width="1" height="1.6"/>
    <rect class="st1" x="17" y="6.4" width="1" height="1.6"/>
    <rect class="st1" x="17" y="10" width="1" height="1.6"/>
    <rect class="st1" x="17" y="13.5" width="1" height="1.6"/>
    <rect class="st1" y="2.9" width="1" height="1.6"/>
    <rect class="st1" y="6.4" width="1" height="1.6"/>
    <rect class="st1" y="10" width="1" height="1.6"/>
    <rect class="st1" y="13.5" width="1" height="1.6"/>
  </g>
  <image width="225" height="225" transform="translate(-208.6 -94.7) scale(.8)" xlink:href="../../../../Downloads/images.jpg"/>
  <path class="st3" d="M12.7,5.3v7.5h-7.5v-7.5h7.5M13,5h-8v8h8v-8h0Z"/>
  <path class="st0" d="M12.7,1.6v3.6h3.6l-3.6,3.6-.2.2.2.2,3.6,3.6h-3.6v3.6l-3.6-3.6-.2-.2-.2.2-3.6,3.6v-3.6H1.6l3.6-3.6.2-.2-.2-.2-3.6-3.6h3.6V1.6l3.6,3.6.2.2.2-.2,3.6-3.6M13,1l-4,4-4-4v4H1l4,4-4,4h4v4l4-4,4,4v-4h4l-4-4,4-4h-4V1h0Z"/>
  <rect class="st0" x="6.3" y="6.3" width="5.5" height="5.5"/>
  <g>
    <rect class="st0" x="8.7" y="5.5" width=".6" height=".6" transform="translate(6.7 -4.7) rotate(45)"/>
    <rect class="st0" x="11.9" y="8.7" width=".6" height=".6" transform="translate(9.9 -6) rotate(45)"/>
    <rect class="st0" x="5.5" y="8.7" width=".6" height=".6" transform="translate(8.1 -1.5) rotate(45)"/>
    <rect class="st0" x="8.7" y="11.9" width=".6" height=".6" transform="translate(11.3 -2.8) rotate(45)"/>
  </g>
  <g>
    <rect class="st0" x="5.3" y="5.3" width="1" height="1" transform="translate(11.5 0) rotate(90)"/>
    <rect class="st0" x="11.7" y="5.3" width="1" height="1" transform="translate(18 -6.5) rotate(90)"/>
    <rect class="st0" x="11.7" y="11.7" width="1" height="1" transform="translate(24.5 0) rotate(90)"/>
    <rect class="st0" x="5.3" y="11.7" width="1" height="1" transform="translate(18 6.5) rotate(90)"/>
  </g>
</svg>