<?xml version="1.0" encoding="UTF-8"?>
<svg id="Réteg_1" xmlns="http://www.w3.org/2000/svg" version="1.1" viewBox="0 0 18 18">
  <!-- Generator: Adobe Illustrator 30.5.1, SVG Export Plug-In . SVG Version: 2.1.4 Build 3)  -->
  <defs>
    <style>
      .st0 {
        fill: #f4e0d2;
      }

      .st1 {
        fill: #785d54;
      }

      .st2 {
        fill: #774b47;
      }
    </style>
  </defs>
  <rect class="st1" width="18" height="18"/>
  <path class="st0" d="M17,1v16H1V1h16M18,0H0v18h18V0h0Z"/>
  <rect class="st2" width="1" height="1"/>
  <rect class="st2" x="17" width="1" height="1"/>
  <rect class="st2" x="17" y="17" width="1" height="1"/>
  <rect class="st2" y="17" width="1" height="1"/>
  <rect class="st2" x="2.9" y="17" width="1.6" height="1"/>
  <rect class="st2" x="10" y="17" width="1.6" height="1"/>
  <rect class="st2" x="13.5" y="17" width="1.6" height="1"/>
  <rect class="st2" x="6.4" y="17" width="1.6" height="1"/>
  <rect class="st2" x="2.9" width="1.6" height="1"/>
  <rect class="st2" x="6.4" width="1.6" height="1"/>
  <rect class="st2" x="10" width="1.6" height="1"/>
  <rect class="st2" x="13.5" width="1.6" height="1"/>
  <rect class="st2" x="17" y="2.9" width="1" height="1.6"/>
  <rect class="st2" x="17" y="6.4" width="1" height="1.6"/>
  <rect class="st2" x="17" y="10" width="1" height="1.6"/>
  <rect class="st2" x="17" y="13.5" width="1" height="1.6"/>
  <rect class="st2" y="2.9" width="1" height="1.6"/>
  <rect class="st2" y="6.4" width="1" height="1.6"/>
  <rect class="st2" y="10" width="1" height="1.6"/>
  <rect class="st2" y="13.5" width="1" height="1.6"/>
</svg>