<?xml version="1.0" encoding="UTF-8"?>
<svg id="Réteg_1" xmlns="http://www.w3.org/2000/svg" version="1.1" xmlns:xlink="http://www.w3.org/1999/xlink" viewBox="0 0 112 156">
  <!-- Generator: Adobe Illustrator 30.3.0, SVG Export Plug-In . SVG Version: 2.1.3 Build 182)  -->
  <defs>
    <style>
      .st0 {
        isolation: isolate;
        opacity: .2;
      }

      .st0, .st1 {
        stroke: #171717;
      }

      .st0, .st1, .st2, .st3, .st4 {
        display: none;
      }

      .st0, .st3 {
        stroke-width: 2px;
      }

      .st1 {
        fill: #fbfbf7;
        stroke-width: 3px;
      }

      .st5, .st3 {
        fill: none;
      }

      .st2, .st4 {
        fill: #bf80a4;
      }

      .st6 {
        fill: #3f2948;
      }

      .st7 {
        fill: #ff8b72;
      }

      .st8 {
        fill: url(#inda);
      }

      .st3, .st4 {
        stroke: #dedbd0;
      }

      .st4 {
        stroke-miterlimit: 10;
        stroke-width: .5px;
      }
    </style>
    <pattern id="inda" x="0" y="0" width="301.9" height="243.2" patternTransform="translate(0 156)" patternUnits="userSpaceOnUse" viewBox="0 0 301.9 243.2">
      <g>
        <rect class="st5" width="301.9" height="243.2"/>
        <g>
          <rect class="st6" x="264.2" y="186.5" width="75.5" height="81.1"/>
          <path class="st7" d="M326.3,269.9c-1.5,0-3,.3-4.4.7,1.2-2.7,1.8-5.6,1.8-8.7,0-12-9.8-21.8-21.7-21.8h0c-10.3,0-18.8-8.4-18.8-18.8s8.4-18.8,18.8-18.8v-3c-4.1,0-7.9,1.1-11.2,3.1.2-.9.3-1.8.3-2.7,0-7.4-6-13.4-13.4-13.4v3c5.8,0,10.4,4.7,10.4,10.4s-4.7,10.4-10.4,10.4-10.4-4.7-10.4-10.4,0-.3,0-.4h-3c0,.1,0,.2,0,.4,0,7.4,6,13.4,13.4,13.4s3-.3,4.4-.7c-1.2,2.7-1.8,5.6-1.8,8.7,0,12,9.8,21.8,21.7,21.8h0c10.3,0,18.8,8.4,18.8,18.8s-8.4,18.8-18.8,18.8v3c4.1,0,7.9-1.1,11.2-3.1-.2.9-.3,1.8-.3,2.7,0,7.4,6,13.4,13.4,13.4v-3c-5.8,0-10.4-4.7-10.4-10.4s4.7-10.4,10.4-10.4,10.4,4.7,10.4,10.4,0,.3,0,.4h3c0-.1,0-.2,0-.4,0-7.4-6-13.4-13.4-13.4Z"/>
        </g>
        <g>
          <rect class="st6" x="113.2" y="227" width="75.5" height="81.1"/>
          <path class="st7" d="M175.3,310.5c-1.5,0-3,.3-4.4.7,1.2-2.7,1.8-5.6,1.8-8.7,0-12-9.8-21.8-21.7-21.8h0c-10.3,0-18.8-8.4-18.8-18.8s8.4-18.8,18.8-18.8v-3c-4.1,0-7.9,1.1-11.2,3.1.2-.9.3-1.8.3-2.7,0-7.4-6-13.4-13.4-13.4v3c5.8,0,10.4,4.7,10.4,10.4s-4.7,10.4-10.4,10.4-10.4-4.7-10.4-10.4,0-.3,0-.4h-3c0,.1,0,.2,0,.4,0,7.4,6,13.4,13.4,13.4s3-.3,4.4-.7c-1.2,2.7-1.8,5.6-1.8,8.7,0,12,9.8,21.8,21.7,21.8h0c10.3,0,18.8,8.4,18.8,18.8s-8.4,18.8-18.8,18.8v3c4.1,0,7.9-1.1,11.2-3.1-.2.9-.3,1.8-.3,2.7,0,7.4,6,13.4,13.4,13.4v-3c-5.8,0-10.4-4.7-10.4-10.4s4.7-10.4,10.4-10.4,10.4,4.7,10.4,10.4,0,.3,0,.4h3c0-.1,0-.2,0-.4,0-7.4-6-13.4-13.4-13.4Z"/>
        </g>
        <g>
          <rect class="st6" x="37.7" y="206.7" width="75.5" height="81.1"/>
          <path class="st7" d="M99.8,290.2c-1.5,0-3,.3-4.4.7,1.2-2.7,1.8-5.6,1.8-8.7,0-12-9.8-21.8-21.7-21.8h0c-10.3,0-18.8-8.4-18.8-18.8s8.4-18.8,18.8-18.8v-3c-4.1,0-7.9,1.1-11.2,3.1.2-.9.3-1.8.3-2.7,0-7.4-6-13.4-13.4-13.4v3c5.8,0,10.4,4.7,10.4,10.4s-4.7,10.4-10.4,10.4-10.4-4.7-10.4-10.4,0-.3,0-.4h-3c0,.1,0,.2,0,.4,0,7.4,6,13.4,13.4,13.4s3-.3,4.4-.7c-1.2,2.7-1.8,5.6-1.8,8.7,0,12,9.8,21.8,21.7,21.8h0c10.3,0,18.8,8.4,18.8,18.8s-8.4,18.8-18.8,18.8v3c4.1,0,7.9-1.1,11.2-3.1-.2.9-.3,1.8-.3,2.7,0,7.4,6,13.4,13.4,13.4v-3c-5.8,0-10.4-4.7-10.4-10.4s4.7-10.4,10.4-10.4,10.4,4.7,10.4,10.4,0,.3,0,.4h3c0-.1,0-.2,0-.4,0-7.4-6-13.4-13.4-13.4Z"/>
        </g>
        <g>
          <rect class="st6" x="-37.7" y="186.5" width="75.5" height="81.1"/>
          <path class="st7" d="M24.3,269.9c-1.5,0-3,.3-4.4.7,1.2-2.7,1.8-5.6,1.8-8.7,0-12-9.8-21.8-21.7-21.8H0c-10.3,0-18.8-8.4-18.8-18.8S-10.3,202.7,0,202.7v-3c-4.1,0-7.9,1.1-11.2,3.1.2-.9.3-1.8.3-2.7,0-7.4-6-13.4-13.4-13.4v3c5.8,0,10.4,4.7,10.4,10.4s-4.7,10.4-10.4,10.4-10.4-4.7-10.4-10.4,0-.3,0-.4h-3c0,.1,0,.2,0,.4,0,7.4,6,13.4,13.4,13.4s3-.3,4.4-.7c-1.2,2.7-1.8,5.6-1.8,8.7,0,12,9.8,21.8,21.7,21.8H0c10.3,0,18.8,8.4,18.8,18.8S10.3,280.7,0,280.7v3c4.1,0,7.9-1.1,11.2-3.1-.2.9-.3,1.8-.3,2.7,0,7.4,6,13.4,13.4,13.4v-3c-5.8,0-10.4-4.7-10.4-10.4s4.7-10.4,10.4-10.4,10.4,4.7,10.4,10.4,0,.3,0,.4h3c0-.1,0-.2,0-.4,0-7.4-6-13.4-13.4-13.4Z"/>
        </g>
        <g>
          <rect class="st6" x="264.2" y="105.4" width="75.5" height="81.1"/>
          <path class="st7" d="M326.3,188.9c-1.5,0-3,.3-4.4.7,1.2-2.7,1.8-5.6,1.8-8.7,0-12-9.8-21.8-21.7-21.8h0c-10.3,0-18.8-8.4-18.8-18.8s8.4-18.8,18.8-18.8v-3c-4.1,0-7.9,1.1-11.2,3.1.2-.9.3-1.8.3-2.7,0-7.4-6-13.4-13.4-13.4v3c5.8,0,10.4,4.7,10.4,10.4s-4.7,10.4-10.4,10.4-10.4-4.7-10.4-10.4,0-.3,0-.4h-3c0,.1,0,.2,0,.4,0,7.4,6,13.4,13.4,13.4s3-.3,4.4-.7c-1.2,2.7-1.8,5.6-1.8,8.7,0,12,9.8,21.8,21.7,21.8h0c10.3,0,18.8,8.4,18.8,18.8s-8.4,18.8-18.8,18.8v3c4.1,0,7.9-1.1,11.2-3.1-.2.9-.3,1.8-.3,2.7,0,7.4,6,13.4,13.4,13.4v-3c-5.8,0-10.4-4.7-10.4-10.4s4.7-10.4,10.4-10.4,10.4,4.7,10.4,10.4,0,.3,0,.4h3c0-.1,0-.2,0-.4,0-7.4-6-13.4-13.4-13.4Z"/>
        </g>
        <g>
          <rect class="st6" x="188.7" y="166.2" width="75.5" height="81.1"/>
          <path class="st7" d="M250.8,249.7c-1.5,0-3,.3-4.4.7,1.2-2.7,1.8-5.6,1.8-8.7,0-12-9.8-21.8-21.7-21.8h0c-10.3,0-18.8-8.4-18.8-18.8s8.4-18.8,18.8-18.8v-3c-4.1,0-7.9,1.1-11.2,3.1.2-.9.3-1.8.3-2.7,0-7.4-6-13.4-13.4-13.4v3c5.8,0,10.4,4.7,10.4,10.4s-4.7,10.4-10.4,10.4-10.4-4.7-10.4-10.4,0-.3,0-.4h-3c0,.1,0,.2,0,.4,0,7.4,6,13.4,13.4,13.4s3-.3,4.4-.7c-1.2,2.7-1.8,5.6-1.8,8.7,0,12,9.8,21.8,21.7,21.8h0c10.3,0,18.8,8.4,18.8,18.8s-8.4,18.8-18.8,18.8v3c4.1,0,7.9-1.1,11.2-3.1-.2.9-.3,1.8-.3,2.7,0,7.4,6,13.4,13.4,13.4v-3c-5.8,0-10.4-4.7-10.4-10.4s4.7-10.4,10.4-10.4,10.4,4.7,10.4,10.4,0,.3,0,.4h3c0-.1,0-.2,0-.4,0-7.4-6-13.4-13.4-13.4Z"/>
        </g>
        <g>
          <rect class="st6" x="113.2" y="145.9" width="75.5" height="81.1"/>
          <path class="st7" d="M175.3,229.4c-1.5,0-3,.3-4.4.7,1.2-2.7,1.8-5.6,1.8-8.7,0-12-9.8-21.8-21.7-21.8h0c-10.3,0-18.8-8.4-18.8-18.8s8.4-18.8,18.8-18.8v-3c-4.1,0-7.9,1.1-11.2,3.1.2-.9.3-1.8.3-2.7,0-7.4-6-13.4-13.4-13.4v3c5.8,0,10.4,4.7,10.4,10.4s-4.7,10.4-10.4,10.4-10.4-4.7-10.4-10.4,0-.3,0-.4h-3c0,.1,0,.2,0,.4,0,7.4,6,13.4,13.4,13.4s3-.3,4.4-.7c-1.2,2.7-1.8,5.6-1.8,8.7,0,12,9.8,21.8,21.7,21.8h0c10.3,0,18.8,8.4,18.8,18.8s-8.4,18.8-18.8,18.8v3c4.1,0,7.9-1.1,11.2-3.1-.2.9-.3,1.8-.3,2.7,0,7.4,6,13.4,13.4,13.4v-3c-5.8,0-10.4-4.7-10.4-10.4s4.7-10.4,10.4-10.4,10.4,4.7,10.4,10.4,0,.3,0,.4h3c0-.1,0-.2,0-.4,0-7.4-6-13.4-13.4-13.4Z"/>
        </g>
        <g>
          <rect class="st6" x="37.7" y="125.7" width="75.5" height="81.1"/>
          <path class="st7" d="M99.8,209.1c-1.5,0-3,.3-4.4.7,1.2-2.7,1.8-5.6,1.8-8.7,0-12-9.8-21.8-21.7-21.8h0c-10.3,0-18.8-8.4-18.8-18.8s8.4-18.8,18.8-18.8v-3c-4.1,0-7.9,1.1-11.2,3.1.2-.9.3-1.8.3-2.7,0-7.4-6-13.4-13.4-13.4v3c5.8,0,10.4,4.7,10.4,10.4s-4.7,10.4-10.4,10.4-10.4-4.7-10.4-10.4,0-.3,0-.4h-3c0,.1,0,.2,0,.4,0,7.4,6,13.4,13.4,13.4s3-.3,4.4-.7c-1.2,2.7-1.8,5.6-1.8,8.7,0,12,9.8,21.8,21.7,21.8h0c10.3,0,18.8,8.4,18.8,18.8s-8.4,18.8-18.8,18.8v3c4.1,0,7.9-1.1,11.2-3.1-.2.9-.3,1.8-.3,2.7,0,7.4,6,13.4,13.4,13.4v-3c-5.8,0-10.4-4.7-10.4-10.4s4.7-10.4,10.4-10.4,10.4,4.7,10.4,10.4,0,.3,0,.4h3c0-.1,0-.2,0-.4,0-7.4-6-13.4-13.4-13.4Z"/>
        </g>
        <g>
          <rect class="st6" x="-37.7" y="105.4" width="75.5" height="81.1"/>
          <path class="st7" d="M24.3,188.9c-1.5,0-3,.3-4.4.7,1.2-2.7,1.8-5.6,1.8-8.7,0-12-9.8-21.8-21.7-21.8H0c-10.3,0-18.8-8.4-18.8-18.8S-10.3,121.6,0,121.6v-3c-4.1,0-7.9,1.1-11.2,3.1.2-.9.3-1.8.3-2.7,0-7.4-6-13.4-13.4-13.4v3c5.8,0,10.4,4.7,10.4,10.4s-4.7,10.4-10.4,10.4-10.4-4.7-10.4-10.4,0-.3,0-.4h-3c0,.1,0,.2,0,.4,0,7.4,6,13.4,13.4,13.4s3-.3,4.4-.7c-1.2,2.7-1.8,5.6-1.8,8.7,0,12,9.8,21.8,21.7,21.8H0c10.3,0,18.8,8.4,18.8,18.8S10.3,199.7,0,199.7v3c4.1,0,7.9-1.1,11.2-3.1-.2.9-.3,1.8-.3,2.7,0,7.4,6,13.4,13.4,13.4v-3c-5.8,0-10.4-4.7-10.4-10.4s4.7-10.4,10.4-10.4,10.4,4.7,10.4,10.4,0,.3,0,.4h3c0-.1,0-.2,0-.4,0-7.4-6-13.4-13.4-13.4Z"/>
        </g>
        <g>
          <rect class="st6" x="264.2" y="24.3" width="75.5" height="81.1"/>
          <path class="st7" d="M326.3,107.8c-1.5,0-3,.3-4.4.7,1.2-2.7,1.8-5.6,1.8-8.7,0-12-9.8-21.8-21.7-21.8h0c-10.3,0-18.8-8.4-18.8-18.8s8.4-18.8,18.8-18.8v-3c-4.1,0-7.9,1.1-11.2,3.1.2-.9.3-1.8.3-2.7,0-7.4-6-13.4-13.4-13.4v3c5.8,0,10.4,4.7,10.4,10.4s-4.7,10.4-10.4,10.4-10.4-4.7-10.4-10.4,0-.3,0-.4h-3c0,.1,0,.2,0,.4,0,7.4,6,13.4,13.4,13.4s3-.3,4.4-.7c-1.2,2.7-1.8,5.6-1.8,8.7,0,12,9.8,21.8,21.7,21.8h0c10.3,0,18.8,8.4,18.8,18.8s-8.4,18.8-18.8,18.8v3c4.1,0,7.9-1.1,11.2-3.1-.2.9-.3,1.8-.3,2.7,0,7.4,6,13.4,13.4,13.4v-3c-5.8,0-10.4-4.7-10.4-10.4s4.7-10.4,10.4-10.4,10.4,4.7,10.4,10.4,0,.3,0,.4h3c0-.1,0-.2,0-.4,0-7.4-6-13.4-13.4-13.4Z"/>
        </g>
        <g>
          <rect class="st6" x="188.7" y="85.1" width="75.5" height="81.1"/>
          <path class="st7" d="M250.8,168.6c-1.5,0-3,.3-4.4.7,1.2-2.7,1.8-5.6,1.8-8.7,0-12-9.8-21.8-21.7-21.8h0c-10.3,0-18.8-8.4-18.8-18.8s8.4-18.8,18.8-18.8v-3c-4.1,0-7.9,1.1-11.2,3.1.2-.9.3-1.8.3-2.7,0-7.4-6-13.4-13.4-13.4v3c5.8,0,10.4,4.7,10.4,10.4s-4.7,10.4-10.4,10.4-10.4-4.7-10.4-10.4,0-.3,0-.4h-3c0,.1,0,.2,0,.4,0,7.4,6,13.4,13.4,13.4s3-.3,4.4-.7c-1.2,2.7-1.8,5.6-1.8,8.7,0,12,9.8,21.8,21.7,21.8h0c10.3,0,18.8,8.4,18.8,18.8s-8.4,18.8-18.8,18.8v3c4.1,0,7.9-1.1,11.2-3.1-.2.9-.3,1.8-.3,2.7,0,7.4,6,13.4,13.4,13.4v-3c-5.8,0-10.4-4.7-10.4-10.4s4.7-10.4,10.4-10.4,10.4,4.7,10.4,10.4,0,.3,0,.4h3c0-.1,0-.2,0-.4,0-7.4-6-13.4-13.4-13.4Z"/>
        </g>
        <g>
          <rect class="st6" x="113.2" y="64.9" width="75.5" height="81.1"/>
          <path class="st7" d="M175.3,148.3c-1.5,0-3,.3-4.4.7,1.2-2.7,1.8-5.6,1.8-8.7,0-12-9.8-21.8-21.7-21.8h0c-10.3,0-18.8-8.4-18.8-18.8s8.4-18.8,18.8-18.8v-3c-4.1,0-7.9,1.1-11.2,3.1.2-.9.3-1.8.3-2.7,0-7.4-6-13.4-13.4-13.4v3c5.8,0,10.4,4.7,10.4,10.4s-4.7,10.4-10.4,10.4-10.4-4.7-10.4-10.4,0-.3,0-.4h-3c0,.1,0,.2,0,.4,0,7.4,6,13.4,13.4,13.4s3-.3,4.4-.7c-1.2,2.7-1.8,5.6-1.8,8.7,0,12,9.8,21.8,21.7,21.8h0c10.3,0,18.8,8.4,18.8,18.8s-8.4,18.8-18.8,18.8v3c4.1,0,7.9-1.1,11.2-3.1-.2.9-.3,1.8-.3,2.7,0,7.4,6,13.4,13.4,13.4v-3c-5.8,0-10.4-4.7-10.4-10.4s4.7-10.4,10.4-10.4,10.4,4.7,10.4,10.4,0,.3,0,.4h3c0-.1,0-.2,0-.4,0-7.4-6-13.4-13.4-13.4Z"/>
        </g>
        <g>
          <rect class="st6" x="37.7" y="44.6" width="75.5" height="81.1"/>
          <path class="st7" d="M99.8,128.1c-1.5,0-3,.3-4.4.7,1.2-2.7,1.8-5.6,1.8-8.7,0-12-9.8-21.8-21.7-21.8h0c-10.3,0-18.8-8.4-18.8-18.8s8.4-18.8,18.8-18.8v-3c-4.1,0-7.9,1.1-11.2,3.1.2-.9.3-1.8.3-2.7,0-7.4-6-13.4-13.4-13.4v3c5.8,0,10.4,4.7,10.4,10.4s-4.7,10.4-10.4,10.4-10.4-4.7-10.4-10.4,0-.3,0-.4h-3c0,.1,0,.2,0,.4,0,7.4,6,13.4,13.4,13.4s3-.3,4.4-.7c-1.2,2.7-1.8,5.6-1.8,8.7,0,12,9.8,21.8,21.7,21.8h0c10.3,0,18.8,8.4,18.8,18.8s-8.4,18.8-18.8,18.8v3c4.1,0,7.9-1.1,11.2-3.1-.2.9-.3,1.8-.3,2.7,0,7.4,6,13.4,13.4,13.4v-3c-5.8,0-10.4-4.7-10.4-10.4s4.7-10.4,10.4-10.4,10.4,4.7,10.4,10.4,0,.3,0,.4h3c0-.1,0-.2,0-.4,0-7.4-6-13.4-13.4-13.4Z"/>
        </g>
        <g>
          <rect class="st6" x="-37.7" y="24.3" width="75.5" height="81.1"/>
          <path class="st7" d="M24.3,107.8c-1.5,0-3,.3-4.4.7,1.2-2.7,1.8-5.6,1.8-8.7,0-12-9.8-21.8-21.7-21.8H0c-10.3,0-18.8-8.4-18.8-18.8S-10.3,40.5,0,40.5v-3c-4.1,0-7.9,1.1-11.2,3.1.2-.9.3-1.8.3-2.7,0-7.4-6-13.4-13.4-13.4v3c5.8,0,10.4,4.7,10.4,10.4s-4.7,10.4-10.4,10.4-10.4-4.7-10.4-10.4,0-.3,0-.4h-3c0,.1,0,.2,0,.4,0,7.4,6,13.4,13.4,13.4s3-.3,4.4-.7c-1.2,2.7-1.8,5.6-1.8,8.7,0,12,9.8,21.8,21.7,21.8H0c10.3,0,18.8,8.4,18.8,18.8S10.3,118.6,0,118.6v3c4.1,0,7.9-1.1,11.2-3.1-.2.9-.3,1.8-.3,2.7,0,7.4,6,13.4,13.4,13.4v-3c-5.8,0-10.4-4.7-10.4-10.4s4.7-10.4,10.4-10.4,10.4,4.7,10.4,10.4,0,.3,0,.4h3c0-.1,0-.2,0-.4,0-7.4-6-13.4-13.4-13.4Z"/>
        </g>
        <g>
          <rect class="st6" x="264.2" y="-56.7" width="75.5" height="81.1"/>
          <path class="st7" d="M326.3,26.7c-1.5,0-3,.3-4.4.7,1.2-2.7,1.8-5.6,1.8-8.7,0-12-9.8-21.8-21.7-21.8h0c-10.3,0-18.8-8.4-18.8-18.8s8.4-18.8,18.8-18.8v-3c-4.1,0-7.9,1.1-11.2,3.1.2-.9.3-1.8.3-2.7,0-7.4-6-13.4-13.4-13.4v3c5.8,0,10.4,4.7,10.4,10.4s-4.7,10.4-10.4,10.4-10.4-4.7-10.4-10.4,0-.3,0-.4h-3c0,.1,0,.2,0,.4,0,7.4,6,13.4,13.4,13.4s3-.3,4.4-.7c-1.2,2.7-1.8,5.6-1.8,8.7C280.2-9.8,289.9,0,301.9,0h0c10.3,0,18.8,8.4,18.8,18.8s-8.4,18.8-18.8,18.8v3c4.1,0,7.9-1.1,11.2-3.1-.2.9-.3,1.8-.3,2.7,0,7.4,6,13.4,13.4,13.4v-3c-5.8,0-10.4-4.7-10.4-10.4s4.7-10.4,10.4-10.4,10.4,4.7,10.4,10.4,0,.3,0,.4h3c0-.1,0-.2,0-.4,0-7.4-6-13.4-13.4-13.4Z"/>
        </g>
        <g>
          <rect class="st6" x="188.7" y="4.1" width="75.5" height="81.1"/>
          <path class="st7" d="M250.8,87.5c-1.5,0-3,.3-4.4.7,1.2-2.7,1.8-5.6,1.8-8.7,0-12-9.8-21.8-21.7-21.8h0c-10.3,0-18.8-8.4-18.8-18.8s8.4-18.8,18.8-18.8v-3c-4.1,0-7.9,1.1-11.2,3.1.2-.9.3-1.8.3-2.7,0-7.4-6-13.4-13.4-13.4v3c5.8,0,10.4,4.7,10.4,10.4s-4.7,10.4-10.4,10.4-10.4-4.7-10.4-10.4,0-.3,0-.4h-3c0,.1,0,.2,0,.4,0,7.4,6,13.4,13.4,13.4s3-.3,4.4-.7c-1.2,2.7-1.8,5.6-1.8,8.7,0,12,9.8,21.8,21.7,21.8h0c10.3,0,18.8,8.4,18.8,18.8s-8.4,18.8-18.8,18.8v3c4.1,0,7.9-1.1,11.2-3.1-.2.9-.3,1.8-.3,2.7,0,7.4,6,13.4,13.4,13.4v-3c-5.8,0-10.4-4.7-10.4-10.4s4.7-10.4,10.4-10.4,10.4,4.7,10.4,10.4,0,.3,0,.4h3c0-.1,0-.2,0-.4,0-7.4-6-13.4-13.4-13.4Z"/>
        </g>
        <g>
          <rect class="st6" x="113.2" y="-16.2" width="75.5" height="81.1"/>
          <path class="st7" d="M175.3,67.3c-1.5,0-3,.3-4.4.7,1.2-2.7,1.8-5.6,1.8-8.7,0-12-9.8-21.8-21.7-21.8h0c-10.3,0-18.8-8.4-18.8-18.8S140.6,0,151,0v-3c-4.1,0-7.9,1.1-11.2,3.1.2-.9.3-1.8.3-2.7,0-7.4-6-13.4-13.4-13.4v3c5.8,0,10.4,4.7,10.4,10.4s-4.7,10.4-10.4,10.4-10.4-4.7-10.4-10.4,0-.3,0-.4h-3c0,.1,0,.2,0,.4,0,7.4,6,13.4,13.4,13.4s3-.3,4.4-.7c-1.2,2.7-1.8,5.6-1.8,8.7,0,12,9.8,21.8,21.7,21.8h0c10.3,0,18.8,8.4,18.8,18.8s-8.4,18.8-18.8,18.8v3c4.1,0,7.9-1.1,11.2-3.1-.2.9-.3,1.8-.3,2.7,0,7.4,6,13.4,13.4,13.4v-3c-5.8,0-10.4-4.7-10.4-10.4s4.7-10.4,10.4-10.4,10.4,4.7,10.4,10.4,0,.3,0,.4h3c0-.1,0-.2,0-.4,0-7.4-6-13.4-13.4-13.4Z"/>
        </g>
        <g>
          <rect class="st6" x="37.7" y="-36.5" width="75.5" height="81.1"/>
          <path class="st7" d="M99.8,47c-1.5,0-3,.3-4.4.7,1.2-2.7,1.8-5.6,1.8-8.7,0-12-9.8-21.8-21.7-21.8h0c-10.3,0-18.8-8.4-18.8-18.8s8.4-18.8,18.8-18.8v-3c-4.1,0-7.9,1.1-11.2,3.1.2-.9.3-1.8.3-2.7,0-7.4-6-13.4-13.4-13.4v3c5.8,0,10.4,4.7,10.4,10.4s-4.7,10.4-10.4,10.4-10.4-4.7-10.4-10.4,0-.3,0-.4h-3c0,.1,0,.2,0,.4,0,7.4,6,13.4,13.4,13.4s3-.3,4.4-.7c-1.2,2.7-1.8,5.6-1.8,8.7,0,12,9.8,21.8,21.7,21.8h0c10.3,0,18.8,8.4,18.8,18.8s-8.4,18.8-18.8,18.8v3c4.1,0,7.9-1.1,11.2-3.1-.2.9-.3,1.8-.3,2.7,0,7.4,6,13.4,13.4,13.4v-3c-5.8,0-10.4-4.7-10.4-10.4s4.7-10.4,10.4-10.4,10.4,4.7,10.4,10.4,0,.3,0,.4h3c0-.1,0-.2,0-.4,0-7.4-6-13.4-13.4-13.4Z"/>
        </g>
        <g>
          <rect class="st6" x="-37.7" y="-56.7" width="75.5" height="81.1"/>
          <path class="st7" d="M24.3,26.7c-1.5,0-3,.3-4.4.7,1.2-2.7,1.8-5.6,1.8-8.7C21.8,6.8,12-3,0-3H0c-10.3,0-18.8-8.4-18.8-18.8S-10.3-40.5,0-40.5v-3c-4.1,0-7.9,1.1-11.2,3.1.2-.9.3-1.8.3-2.7,0-7.4-6-13.4-13.4-13.4v3c5.8,0,10.4,4.7,10.4,10.4s-4.7,10.4-10.4,10.4-10.4-4.7-10.4-10.4,0-.3,0-.4h-3c0,.1,0,.2,0,.4,0,7.4,6,13.4,13.4,13.4s3-.3,4.4-.7c-1.2,2.7-1.8,5.6-1.8,8.7C-21.8-9.8-12,0,0,0H0C10.3,0,18.8,8.4,18.8,18.8S10.3,37.5,0,37.5v3c4.1,0,7.9-1.1,11.2-3.1-.2.9-.3,1.8-.3,2.7,0,7.4,6,13.4,13.4,13.4v-3c-5.8,0-10.4-4.7-10.4-10.4s4.7-10.4,10.4-10.4,10.4,4.7,10.4,10.4,0,.3,0,.4h3c0-.1,0-.2,0-.4,0-7.4-6-13.4-13.4-13.4Z"/>
        </g>
        <g>
          <rect class="st6" x="188.7" y="-77" width="75.5" height="81.1"/>
          <path class="st7" d="M250.8,6.5c-1.5,0-3,.3-4.4.7,1.2-2.7,1.8-5.6,1.8-8.7,0-12-9.8-21.8-21.7-21.8h0c-10.3,0-18.8-8.4-18.8-18.8s8.4-18.8,18.8-18.8v-3c-4.1,0-7.9,1.1-11.2,3.1.2-.9.3-1.8.3-2.7,0-7.4-6-13.4-13.4-13.4v3c5.8,0,10.4,4.7,10.4,10.4s-4.7,10.4-10.4,10.4-10.4-4.7-10.4-10.4,0-.3,0-.4h-3c0,.1,0,.2,0,.4,0,7.4,6,13.4,13.4,13.4s3-.3,4.4-.7c-1.2,2.7-1.8,5.6-1.8,8.7,0,12,9.8,21.8,21.7,21.8h0c10.3,0,18.8,8.4,18.8,18.8s-8.4,18.8-18.8,18.8v3c4.1,0,7.9-1.1,11.2-3.1-.2.9-.3,1.8-.3,2.7,0,7.4,6,13.4,13.4,13.4v-3c-5.8,0-10.4-4.7-10.4-10.4s4.7-10.4,10.4-10.4,10.4,4.7,10.4,10.4,0,.3,0,.4h3c0-.1,0-.2,0-.4,0-7.4-6-13.4-13.4-13.4Z"/>
        </g>
        <path class="st7" d="M175.3-13.8c-1.5,0-3,.3-4.4.7,1.2-2.7,1.8-5.6,1.8-8.7,0-12-9.8-21.8-21.7-21.8h0c-10.3,0-18.8-8.4-18.8-18.8s8.4-18.8,18.8-18.8v-3c-4.1,0-7.9,1.1-11.2,3.1.2-.9.3-1.8.3-2.7,0-7.4-6-13.4-13.4-13.4v3c5.8,0,10.4,4.7,10.4,10.4s-4.7,10.4-10.4,10.4-10.4-4.7-10.4-10.4,0-.3,0-.4h-3c0,.1,0,.2,0,.4,0,7.4,6,13.4,13.4,13.4s3-.3,4.4-.7c-1.2,2.7-1.8,5.6-1.8,8.7,0,12,9.8,21.8,21.7,21.8h0c10.3,0,18.8,8.4,18.8,18.8s-8.4,18.8-18.8,18.8V0C155,0,158.9-1.1,162.1-3.1c-.2.9-.3,1.8-.3,2.7,0,7.4,6,13.4,13.4,13.4v-3c-5.8,0-10.4-4.7-10.4-10.4s4.7-10.4,10.4-10.4,10.4,4.7,10.4,10.4,0,.3,0,.4h3c0-.1,0-.2,0-.4,0-7.4-6-13.4-13.4-13.4Z"/>
      </g>
    </pattern>
  </defs>
  <rect class="st1" x="4" y="4" width="104" height="148" rx="10" ry="10"/>
  <rect class="st3" x="10" y="10" width="92" height="136" rx="7" ry="7"/>
  <path class="st0" d="M14,123h84"/>
  <rect class="st8" x="4" y="4" width="104" height="148" rx="10" ry="10"/>
  <circle class="st4" cx="56" cy="69.4" r="46"/>
  <circle class="st2" cx="56" cy="69.4" r="46"/>
</svg>