<?xml version="1.0" encoding="UTF-8"?>
<svg id="Réteg_1" xmlns="http://www.w3.org/2000/svg" version="1.1" viewBox="0 0 112 156">
  <!-- Generator: Adobe Illustrator 30.3.0, SVG Export Plug-In . SVG Version: 2.1.3 Build 182)  -->
  <defs>
    <style>
      .st0 {
        fill: #343330;
      }

      .st1 {
        fill: #bf80a4;
      }

      .st2 {
        fill: #dedbd0;
      }

      .st3 {
        fill: #dd8e03;
      }
    </style>
  </defs>
  <rect class="st3" x="4" y="4" width="104" height="148" rx="10" ry="10"/>
  <path class="st2" d="M95,146.5H17c-4.1,0-7.5-3.4-7.5-7.5V17c0-4.1,3.4-7.5,7.5-7.5h78c4.1,0,7.5,3.4,7.5,7.5v122c0,4.1-3.4,7.5-7.5,7.5ZM17,10.5c-3.6,0-6.5,2.9-6.5,6.5v122c0,3.6,2.9,6.5,6.5,6.5h78c3.6,0,6.5-2.9,6.5-6.5V17c0-3.6-2.9-6.5-6.5-6.5H17Z"/>
  <circle class="st0" cx="91" cy="21.2" r="6.6"/>
  <circle class="st1" cx="56" cy="69.4" r="46"/>
  <path class="st2" d="M56,115.7c-25.5,0-46.2-20.7-46.2-46.3S30.5,23.1,56,23.1s46.2,20.7,46.2,46.2-20.7,46.3-46.2,46.3h0ZM56,23.6c-25.2,0-45.8,20.5-45.8,45.8s20.5,45.8,45.8,45.8,45.8-20.5,45.8-45.8-20.5-45.8-45.8-45.8Z"/>
</svg>