<?xml version="1.0" encoding="UTF-8"?>
<svg id="Réteg_1" xmlns="http://www.w3.org/2000/svg" version="1.1" xmlns:xlink="http://www.w3.org/1999/xlink" viewBox="0 0 112 156">
  <!-- Generator: Adobe Illustrator 30.3.0, SVG Export Plug-In . SVG Version: 2.1.3 Build 182)  -->
  <defs>
    <style>
      .st0 {
        letter-spacing: .2em;
      }

      .st1 {
        letter-spacing: .2em;
      }

      .st2, .st3, .st4, .st5 {
        isolation: isolate;
      }

      .st2, .st6, .st7, .st8 {
        display: none;
      }

      .st9 {
        fill: #343330;
      }

      .st3 {
        font-size: 11px;
      }

      .st3, .st10 {
        font-family: Rosemartin, Rosemartin;
      }

      .st3, .st4 {
        fill: #dfdbd1;
      }

      .st11, .st12 {
        fill: #bf80a4;
      }

      .st13, .st14, .st7 {
        fill: none;
      }

      .st10 {
        fill: #191919;
        font-size: 3px;
      }

      .st4 {
        font-family: OldEnglishTextMT, 'Old English Text MT';
        font-size: 29px;
      }

      .st15 {
        letter-spacing: .2em;
      }

      .st14, .st12, .st7 {
        stroke: #dedbd0;
      }

      .st16 {
        fill: #969696;
      }

      .st12 {
        stroke-width: .5px;
      }

      .st12, .st7 {
        stroke-miterlimit: 10;
      }

      .st17 {
        fill: #190813;
      }

      .st18 {
        fill: #dd8e03;
      }

      .st19 {
        clip-path: url(#clippath);
      }

      .st8 {
        opacity: .4;
      }
    </style>
    <clipPath id="clippath">
      <path class="st13" d="M53.8,13.2c4.1,0,12.5,8.4,16.2,10.5,17.5,10.1,31.7,24.3,31.7,45.5s-20.5,45.9-45.7,45.9S10.2,94.6,10.2,69.2s12.4-33.2,26.3-45.2,11.5-10.8,17.3-10.8Z"/>
    </clipPath>
    <image id="image" width="687" height="490" xlink:href="card_base-1.png"/>
  </defs>
  <rect class="st18" x="4" y="4" width="104" height="148" rx="10" ry="10"/>
  <rect class="st14" x="10" y="10" width="92" height="136" rx="7" ry="7"/>
  <circle class="st12" cx="56" cy="69.4" r="46"/>
  <use class="st2" transform="translate(19.9 44.1) scale(.1)" xlink:href="#image"/>
  <g class="st5">
    <text class="st4" transform="translate(13 33.7)"><tspan x="0" y="0">5</tspan></text>
  </g>
  <g class="st8">
    <circle class="st16" cx="27.1" cy="40.5" r="1"/>
    <circle class="st16" cx="27.1" cy="98.4" r="1"/>
    <circle class="st16" cx="27.1" cy="83.9" r="1"/>
    <circle class="st16" cx="27.1" cy="69.4" r="1"/>
    <circle class="st16" cx="27.1" cy="55" r="1"/>
    <circle class="st16" cx="41.7" cy="40.5" r="1"/>
    <circle class="st16" cx="41.7" cy="98.4" r="1"/>
    <circle class="st16" cx="41.7" cy="83.9" r="1"/>
    <circle class="st16" cx="41.7" cy="69.4" r="1"/>
    <circle class="st16" cx="41.7" cy="55" r="1"/>
    <circle class="st16" cx="56.3" cy="40.5" r="1"/>
    <circle class="st16" cx="56.3" cy="98.4" r="1"/>
    <circle class="st16" cx="56.3" cy="83.9" r="1"/>
    <circle class="st16" cx="56.3" cy="69.4" r="1"/>
    <circle class="st16" cx="56.3" cy="55" r="1"/>
    <circle class="st16" cx="70.1" cy="40.5" r="1"/>
    <circle class="st16" cx="70.1" cy="98.4" r="1"/>
    <circle class="st16" cx="70.1" cy="83.9" r="1"/>
    <circle class="st16" cx="70.1" cy="69.4" r="1"/>
    <circle class="st16" cx="70.1" cy="55" r="1"/>
    <circle class="st16" cx="84.9" cy="40.5" r="1"/>
    <circle class="st16" cx="84.9" cy="98.4" r="1"/>
    <circle class="st16" cx="84.9" cy="83.9" r="1"/>
    <circle class="st16" cx="84.9" cy="69.4" r="1"/>
    <circle class="st16" cx="84.9" cy="55" r="1"/>
  </g>
  <g class="st5">
    <text class="st3" transform="translate(14.2 129.2)"><tspan x="0" y="0">Silver General</tspan></text>
  </g>
  <image class="st2" width="326" height="409" transform="translate(-9.9 -3.8) scale(.4)" xlink:href="../../../../Pictures/Screenshots/Képernyőkép 2026-03-29 121926.png"/>
  <use transform="translate(-278.3 -59.9) scale(.3)" xlink:href="#image"/>
  <text class="st10" transform="translate(14.5 135.9)"><tspan x="0" y="0">A</tspan><tspan class="st1" x="2.5" y="0"> </tspan><tspan x="4" y="0">King</tspan><tspan class="st1" x="11.6" y="0"> </tspan><tspan x="13.1" y="0">card.</tspan><tspan class="st1" x="21.3" y="0"> </tspan><tspan x="22.7" y="0">Keep</tspan><tspan class="st0" x="31" y="0"> </tspan><tspan x="32.5" y="0">at</tspan><tspan class="st1" x="36" y="0"> </tspan><tspan x="37.4" y="0">least</tspan><tspan class="st1" x="45.4" y="0"> </tspan><tspan x="46.9" y="0">one</tspan><tspan class="st0" x="53" y="0"> </tspan><tspan x="54.4" y="0">King</tspan><tspan class="st15" x="62.1" y="0"> </tspan><tspan x="63.6" y="0">available</tspan><tspan class="st15" x="77.9" y="0"> </tspan><tspan x="79.4" y="0">to </tspan><tspan x="0" y="3.6">stay in the game. This card is invisible to enemy.</tspan></text>
  <path class="st9" d="M91.9,16.4c-.7,0-1.2.2-1.6.6v-1.2h.6c0,0,.2,0,.2,0,0,0,0-.1,0-.2s0-.2,0-.2c0,0-.1,0-.2,0h-.6v-.6c0,0,0-.2,0-.2,0,0-.1,0-.2,0s-.2,0-.2,0c0,0,0,.1,0,.2v.6h-.6c0,0-.2,0-.2,0,0,0,0,.1,0,.2s0,.2,0,.2c0,0,.1,0,.2,0h.6v1.2c-.4-.4-1-.6-1.6-.6-.6,0-1.1.2-1.6.6-.4.4-.6,1-.6,1.6,0,1.1.5,1.8,1,2.2.2.2.5.4.8.5v.7c0,.2,0,.3.2.4.1.1.3.2.4.2h3.5c.2,0,.3,0,.4-.2.1-.1.2-.3.2-.4v-.7c.3-.1.5-.3.8-.5.4-.4,1-1.1,1-2.2,0-.6-.2-1.1-.6-1.6-.4-.4-1-.6-1.6-.6ZM92,20.8c0,0-.1,0-.1.1,0,0,0,.1,0,.2v.9h-3.5v-.9c0,0,0-.1,0-.2,0,0,0,0-.1-.1,0,0-1.6-.5-1.6-2.2,0-.4.2-.8.5-1.1.3-.3.7-.5,1.1-.5.9,0,1.6.6,1.6,1.5v2.3c0,0,0,.2,0,.2s.1,0,.2,0,.2,0,.2,0,0-.1,0-.2v-2.3c0-.8.7-1.5,1.6-1.5.4,0,.8.2,1.1.5.3.3.5.7.5,1.1,0,1.7-1.5,2.2-1.6,2.2Z"/>
  <line class="st7" x1="53.2" y1="52.1" x2="58.8" y2="57.8"/>
  <line class="st7" x1="58.8" y1="52.1" x2="53.2" y2="57.8"/>
  <polygon class="st11" points="44.4 25.8 45.4 24.1 46.5 23.1 48.2 22.6 48.3 21.7 47.3 20 47.2 19.3 47.9 18.6 48.2 17.9 48.4 17 49.4 16.4 50.4 16.8 51.4 17.3 52.1 18.2 52.9 19 53.5 19.2 54.7 20 53.8 21.2 53.6 23.1 54.5 23.6 56 24.5 57.2 26.2 57.8 27.7 44.4 25.8"/>
  <g class="st19">
    <g class="st6">
      <path class="st17" d="M84.6,127.3l-1.2-1.7c-.1-.2,0-.7.1-.8,1.1-.7,2.3-1.3,3.6-1.5l1.5-.3,2.2-.2c-.6-1-1.4-1.9-2.5-2.6s-2.3-2.1-3.5-3.2l-3.8-3.3-1.9-1.7-2.5-2.4c-1-.9-1.7-2.1-2.2-3.4,1.4,1.9,2.8,3.6,4.6,5.1l1.8,1.6,3.5,2.9c0-.5-.1-.7-.2-1l-.4-1.3c0-.3-.2-.8-.4-.9l-1.2-.8c-.2-.2-.2-1.1,0-1.2.7-.3,1.6-.8,2.1-1.4-1.9-.9-3.3-2.6-2.5-3.1s1.5-1,1.9-1.6c.3-1.3,0-2-.6-3s-1.4-2.6-1.8-4.1l-.6-2.6v-1.7s.9-.2.9-.2h.4c.1-.1.1-.4.1-.6l.2-1.8c0-.5.2-1.4.6-1.7.5-.4,1.1-.9,1.3-1.5l.4-1.3c0-.2.2-.7.4-.7.3-.1,1.1-.3,1.5-.2.8.1,1.9.4,2.5.8l2.1,1.4,2.3,1.6,2.2,1.5,1,.8c.8.6,1.2,1.5,1.6,2.5.6,1.5,1.5,2.7,2.4,4l.7.9c-1.4-.8-2.9-3.3-3.6-5s-.7-1.6-1.4-2.1l-1.8-1.4-2-1.3-1-.8-1.6-1.2c-.2-.2-.7-.5-.9-.6l-2.8-.8c-.3,0-1.2.2-1.3.5l-.4,1.5c-.2.7-.8,1.3-1.4,1.7s-.5,1.1-.5,1.4l-.2,1.8c0,.2-.2.8-.4.9l-1.2.2c0,1.7.9,5.4,1.5,6.5l1.2,2c.7,1.1.5,2.9-.2,3.4l-1.4,1c-.5.3,0,1.3,1.1,1.9l1.4.8c0,.2-.3.9-.5,1l-1.3.8-.5.3c-.1,0,0,.5.2.6l.9.5c.8.5.4,1.3,1,2.6l.6,1.4c.2.5.7,1.2,1.1,1.5l3.5,2.8c.5.4,1,1.3,1.4,1.8l.5.7.2.2c0,0-1,1-2.1,1.1.6-.4.9-.6,1.5-1.3h-2.5c0,0-1.6.4-1.6.4l-2.1.6,1.7.8.9.3-.6.2c-.1,0-.4-.1-.6-.2l-1.7-.9-1.2.6,1,1.5.3.6h0c0,.1,0,.7,0,.7,0,.2.3.6.4.8l.9,1.3,2.1,3c.6.9.9,3.6-.5,4.8l-1.5,1.3c-.5.4-1.4.6-2,.5,1.5-.5,3.4-1.9,3.9-2.9s.2-3.1-.7-4.4l-3-4.3.3-.7h0Z"/>
      <path class="st17" d="M83.1,88.1c-.4-.2-.9-.7-1.1-1l-1.4-2.6c-.4-.6-1-1.3-1.6-1.7l-2.9-2c-.7-.5-1.4-1.1-1.9-1.8l-1.8-2.7-1.8-2.5-1.4-1.7s.4.1.5.2l1.6,1.8.9,1.2,1.9,2.8c.9,1.3,2.1,2.2,3.4,3.1l2.1,1.5c.6.4,1.2,1.1,1.5,1.8l.9,1.7,1.2,2Z"/>
      <path class="st17" d="M74.5,144.3l-2-.9c.2-.1.4-.2.4-.2s-.1-.1-.2-.2l-.5-.6,2.1,1.3,2.9,1.8,2.8,1.5h.7c.7,0,1.4,0,2-.1l1-.2v-3.1c0-1,0-1.8,0-2.8v-1.8s.3,1.5.3,1.5l.2,1.3c0,.6,0,1.1,0,1.7v3.1c0,.2-.4.6-.6.7h-1.9c0,.1-1,.2-1,.2l1.6.8c0,0,.3.2.4.3l-2-.6-3.6-1.9-2.7-1.6Z"/>
      <path class="st17" d="M95.9,67.4l-3-.7-2.5-.6-3.5-.7-2.7-.8-2.8-1.3c-1.1-.5-2.2-1-3.2-1.8-.2-.4,0-.4.2-.2,1.1.7,2.1,1.3,3.2,1.8l3.5,1.4,4.6,1.1,2.4.5c1.4.3,2.6.7,3.8,1.3Z"/>
      <path class="st17" d="M75.1,124l-.8-1.2c-.1-.2-.2-.7-.2-.9l1.1,2h.1c0,.1.9,1.3.9,1.3l.6,1,.9,1.6,1.2,2,1.4,2.8,1.3,3,.8,1h-.6c-.2-.1-.5-.6-.6-.9l-2.9-6.4-1-1.8-.9-1.5-.7-1.1-.5-.7-.2-.2Z"/>
      <path class="st17" d="M82.9,76.7l1.5,1.4-.2.2-1.2-1.1-2.3-1.5-2.4-1.9-1.2-1-1.3-1.1-.8-.7c-.9-.7-1.6-1.4-2.1-2.4l1.2,1.1,1.7,1.6,1,.7,1.3,1.2,1.2,1,2.3,1.7,1.2.8Z"/>
      <path class="st17" d="M76,99c-1.3-.8-2.3-2.1-3-3.4l-1.2-2.2-.7-1-1-1.8c-.3-.5-.6-1-.7-1.6l1.4,2.2.6,1,1.3,1.9c.7,1.9,2,3.4,3.4,5Z"/>
      <path class="st17" d="M92.6,74.3l-1.9-.5c-1.5-.4-2.9-1-4.2-1.6s-3.1-1.1-4.3-2.2l4.2,1.8c1.1.5,2.2,1.1,3.4,1.4s2,.5,2.9,1.1Z"/>
      <rect class="st17" x="89.9" y="81" width=".4" height="1.5" transform="translate(-23.3 125.8) rotate(-63.4)"/>
      <path class="st17" d="M70.9,99.4c0-.2,0-.5,0-.7l-.3-1.3c0-.3-.4-.8-.7-.9l-4.2-1.1-1.8-.2h-1.8c-.2-.1-.5-.4-.8-.6h1.6c0,.1,2.2.3,2.2.3l3.9.9,1,.4c0-.3,0-1-.2-1.2s-.7-.4-1-.4l-2.7-.8-1.9-.4-1.5-.3h-1.7c0-.1.3,1.1.3,1.1,0,0-.3.2-.3.2v-.4c0,0-.3-1.6-.3-1.6l-.8-2.9c-.3-1.3-.5-2.6-.7-3.9l-.2-1.4-.5-2.4c0,0,.3-.4.3-.3l.3.2c.4.3-.1.5,0,1.3l.2.8.3,1.9,1.2.2,1.5.2v-1.5c0,0-2.4-.5-2.4-.5.7,0,1.2,0,2.1.1l.2-.9.6,1.3c0,.4-.3,1.3,0,1.5s.9.3,1.3.4l-.7-2.5.2-.2.8,2.7,1.1.3-.9-2.9h.1c0-.1,1,2.9,1,2.9l1.4.5-1-2.4-.7-1.7c-.3-.7-1.4-1-2.1-1.2l-5.7-1.2-4.2-1h-1.5c0,0-2.6-.2-2.6-.2l-4.2.3c-1.1,0-2.3.3-3.4.7l-1.9.7c-.8.3-2,.1-2.9.1v1.4s.3,1.2.3,1.2l.5,2.2c.3,1.2.7,2.4,1.2,3.5s.6,1.2.7,1.9c-.7-.8-1.2-1.6-1.5-2.7l-.8-2.7-.5-2c-.5-2.1,0-3.5-.6-3.3-.8.4-.8,1.3-2.3,2s-.4.1-.4.2v.5c0,0,.6-.4.6-.4l-.9,4.2-.5,1.6-.4,1.4,1.2-.5c0-.1.1-.6.2-.7l.5-2.8v1.8c0,0-.3,3-.3,3l-.5,3.9-.6,2.9-.2,2.9-.5,3.3-.7,3.5,2-.7.3.4c-.9.2-1.5.5-2.2.8l-1.1.6-.3,2-.2,1.4,1.4-1c.5-.4,1.2-.7,1.8-.4l-1.5.7-1.8,1.2-.4,3c1.2-.9,2.9-2.1,4-1.5l-1.4.4c-.4.1-1.1.5-1.5.8l-1.1.8c-.2.1,0,.9,0,1.2.9-1,1.9-1.9,3.4-1.5l-1.9.7c-.4.2-1.2,1-1.4,1.4-.5.9.5,1.9,1.1,2.1s0,.4,0,.4l-.4-.2c-1.9-1-1.5-3.7-1.2-5.9l.6-3.4.4-2.9v-2.3c.1-.4-.3-1.2-.2-1.6l.5-3.2.4-1.8c.2-1-.1-2.2.1-3.3l.4-1.8c.1-.7.3-1.3.3-2l.2-1.6.7-2.6.4-1.5-1.4-1.4v-1.6c0,0,.9-2.1.9-2.1l.6-1.6c0-.3.4-.8.6-1l1.9-1c-.6-.3-1.2,0-1.7.2l-1.6.9c-.4.2-.5,1.3-.5,1.9-.6-1.1-.2-2.6.2-3.9l.4-1.5.3-1.2c0,0,.4-.3.3-.2l.2,1.2c0,0-.4.4-.4.6l-.4,1.4-.3,1.2,1-.5,1.3-.7v-.6c0-.1-.2-.2-.5-.3v-.8s.6.2.6.2l-.5.4.7.3.2-1.8.2-2.1-1.2.5c.8-.8,1.8-1.5,2.8-1.2v-2.3c-.1,0-.3-.4-.4-.4s-.3.2-.3.3l-.2,2-.3-1.6c0-.1-.4-.2-.5-.2l-1,.3-.8,1c-.2.3-.2,1.2-.1,1.4l1.7-.8.4-.8c.1.2,0,1-.2,1.1l-1.3.7c-.6.3-.9.9-1.2,1.6v-1.1c.1,0,.2-1.7.2-1.7,0-.5.1-1.1.3-1.5,0,0-.6-.2-.7-.2l-2.4-.2c-.8,0-1.6-.5-2.1-1.2s-.8-1-1-1.5-.6-1.6-.6-2.3v-2.2s.2-1.4.2-1.4v-1.4c.4-2,2.4-3,4.1-3.8l.9-.4-.5-.7c-.1-.2-5.3,1.5-5.9,3.8s-.2,1.9,0,2.7.7,1.4,1,2.1l-1.2-1.6c-.3-.4-.2-1.5-.3-2,0-1,.2-1.6.6-2.4l.9-1.7c.2-.4.3-.9.3-1.4,0-.9.8-1.7,1.2-2.5l.9-1.5.8-1.1,1.2-1.8.4-1.2c.3-.9,1.7-1.2,2.1-1.9s1.3-1.1,2.3-1.2l1.3-.8c.6-.4,1.7,0,2.7-.4l1-.4c.6-.5,1.3-1,2-1h.9c0-.1.6-1.3.6-1.3-.2-1.5.4-2.6.2-4.8l-.2-2.5c-.2-2.1-.6-4.7.7-6.6l.7-1.1c.2-.4,1-.8,1.4-1l1.6-.7c0-.1,0-.7-.2-.9l-.6-1.2c-.1-.2-.3-.7-.3-.9.2-.8.9-.5.9-1.4s.6-1.6,1.5-1.7,1.2.4,1.6.7.7.3.9.5c.3.3.6.9.9,1l.9.5c.3.3.7.6,1.1.8s.2.7,0,.9l-.7.9-.5.7-.3-.8h-.8s.4.9.4.9l-1.6-.8c-.2-.1-.6,0-1,.4,0,.2-.2,0-.4-.2,0-.2.6-.7.8-.7.5,0,1.1.3,1.7.5l-.3-.5-.9-1.1h.4c.2.1.5.4.7.4h.8c.2,0,.3.3.5.7l.8-.7h-.8c0,0-.4-.8-.4-.8-1.5-.2-2-2.3-2.1-1.7l-.3.9h-.5c0,0-.2.2-.2.4h-.5s.7-1.1.7-1.1c.1-.2,0-.7,0-.8s-.7-.5-.9-.3l-1.1,1c.7.4.9.8.8,1.5l-.6-.6-.6.3-.4.2c0,0-.1.4,0,.5l.2.7c.4-.2.8-.6,1.1-.7,1-.3,2.1-.2,2.2.3,0,.3,0,.6,0,.2h-1.9c0-.1.2.2.2.2h.4c0-.1.3.2.3.2l-1.6.4.8-.7-.2-.2c-.3.2-.7.5-.9.9l.4.6h.5c0,0-.1.3-.2.3l-.3.3s.3.2.3.2h3.2c1.2,0,3.4,1.3,4.4,2.3s1.2,1.9,1.5,3l.9,3.1c0,.3-.2,1-.2,1.3l-.4-.9-.2.2c.2.8.5,1.7.9,2.5l.6,1.2c.4.8,1.8,1,2.6,2.5h1.6c.5,0,1.1.4,1.5.6,1.6,0,3.2,0,4.7.7s3,1.7,4.3,3,1.3,1.8,1.8,2.7c1.3,2,2.5,3.9,4.1,5.8s1.4,1.1,2,1.7c1.2,1.1,2.4,1.9,3.7,2.8s1.5,1.2,2.2,1.5l3,1.1,1.6.5,4.4,1.1,3.4.9,1.7.6v.3s-1.2-.5-1.2-.5l-2.8-.8-3.6-.8-1.8-.4-4.2-1.5c-1.5-.6-3.1-1.3-4.4-2.3s-3.4-2.4-4.8-4.1l-1.5-1.9-2.1-3-.6-1.1c-.6-1-1.2-1.9-2-2.7s-2.3-1.8-3.7-2.4c-2.3-1-7.6-.7-9.5.2l-2.3,1.1.7,1.2,2.7-.8,2.4-.3h2.2c2.7-.2,6.3,1.4,7.7,3.6l1.3,2-1.4-1.2-1-1.1c-1.1-1.2-2.5-2.1-4.2-2.6l-.5,1.9,1.5,1,.2-1.5c0-.1.2-.4.3-.6v2c0,.2,0,.7.3.9l.8.9.2-2c0-.2.3-.2.4,0l-.2,2.3c0,.4.3.9.6,1.4,0,0,.3-.3.3-.3l.3-1.7c.9,1.8-1.1,3.8-.4,5.3l.3.7c.3,0,.4.1.3,0v1.5c0,0-.3,0-.4,0l-.4.2c0-.4.3-1.2.2-1.5l-.4-1.1-.8.7.4-1.3-.8-1.4-.7,1.1.4-1.6-.9-1.4-1.3,1.2.8-1.4-1.5-1.1-1.2,1.5.6-1.4c0-.1-.1-.5-.2-.6l-1.1-.4-.7,1.4.2-1.1c0-.1,0-.7-.1-.7l-1.8-.2-.6,1.6h-.1c0-.1.5-1.6.5-1.6l-1.5-.3h1.1c.2,0,.7-.2.8-.4l.4-1-1.7-.3h1.5c.2,0,.5-.3.6-.4l.3-.5-.2,1h1.7c0,0,.4-.8.4-.8l.2,1.1,1.2.3.5-1.8c-1.6-.3-3.1-.5-4.6-.2l-1.8.3-1.2,2.3-1,2.4c5.6.5,9,2.6,12.1,7.2s1.2,2.5,1.4,4l.4-.2c.3-2,.5-3.8.5-5.8v-2c0-.7-.1-1.6-.4-2.2l-.9-2.5c.2,0,.5.3.6.4.8,1.3,1.2,3,1.2,4.7v4.1c-.1,0-.3,1.7-.3,1.7-.3,2.5-1.2,4.1-2.7,6s-1.2.9-1.8,1.1c.3-1,.7-1.8.8-2.7.4-4.4-2.6-8.9-6.8-10.1l-4-1.2-2.9-.5c-.4,0-.3-.2,0-.2,1.1,0,2,0,3,.3l2.9.8c1.3.3,2.5.8,3.7,1.4s1.7,1.3,2.4,2.1c1.7,2.2,2.6,4.9,2.2,7.6l-.4,1.6c.9-.8,1.4-1.6,1.9-2.5v-1c0-1.8-.5-3.5-1.6-5l-1.8-2.4c-1.9-2.5-5.1-3.9-8.2-4.4l-1.9-.3,1-2.8,1-2.2-2.3.6-1.1,1.6c-.7,1.1-1.2,2.2-1.6,3.5s0,1.2.4,1.7l-.3.4c-1.4-1.3-.3-3.5.9-5.5-2.1.3-3.5-.5-3.7-.4l-2.4.8,2.4.4c.2.1-.2.4-.3.2l-2-.4c-.3,0-.8,0-1.1,0l-1.9.6.2.6c0,0,.3,0,.4,0l1.3-.2,2,.3c.7.1,1.3.3,2,.7l-2.7-.4-3-.3-.4,2.3h3.3c.6,0,1.4.4,2,.5s1.4.3,1.9.8c-1.3-.3-2.5-.8-3.8-.9h-3.8c-1.9,1.6-3.3,2.6-5.8,2l-.6-1c-.2.1-.6.3-.9.4l-2.1.6-1.7.4,1.8-.8c.8-.4,1.9-.6,2.8-.8l-.2-.7.9.7-.5-1.8c.4-.3,0,0,0,0l-.3.7-.2-.7-2.8,1.1c.2-.2.5-.5.8-.6l2.6-1.2.6-.6c-.5,0-1.4-.1-1.7,0-1.2.8-2.7,1.3-3.9,1.1l-.3-1.1-1.4,1.4-1.2,1.7-1.2,1.4-1.2,1.4s0,.1,0,.2c0,.1-.3.5-.5.5-1.3.6-2.5,1.2-3.8,2l-.7,1.5,2.2-1.2c1.7-.9,2.8-.6,3.4-1.3v.9c0,.2.5.5.7.5l.8-1c.7-.9,1.1-1.9,1.7-2.8l1-1.7,1.3-1.7c-.2.9-.6,1.4-1.1,2.1l-.6,1-.6,1,.4,1.9c.4-.4.7-.8,1.1-1.1l1.9-1.1c2-1.2,2.6,0,3.8-.2l1.8-.2,5.5-.4,2.5-.3c.3,0,.9-.4,1.2-.4h1.9c0,.1,1.2.2,1.2.2l.2-1.1c3.4,0,6.6.9,9.6,2.6s2.6,2.3,3.2,3.8,1.1,4.8-.2,5.8l.3-1.9c.1-1-.2-2.2-.5-3.2-.7-2.3-2.4-3.9-4.5-4.8s-4.9-1.9-7.6-1.8c-.1,1.1,2.5,0,4.5,1.7l-1.7-.4-1.4-.3h-1.6s.6.5.6.5c0,0,.1.2.2.5l-1.4-.8c-.2-.4-.4,0-.2.3l.5,2.4c.3,1.2.6,2.3.6,3.5l-.2,4.5-.4,2.3,2.8-.2c1.7-.1,3.1-.2,4.6-.9s2-.9,2.6-1.7l1.6-2.2c.3-.4.6-.7,1.1-1.1-.2.8-.7,1.5-1.1,2.2l.7,1.5c.1.2.4.6.6.7l.3.2s-.2.2-.3.3l-.8-.5-.7,1.3-1.6,3.8c-.2.4,0,.9.1,1.4s0,1.2,0,1.8v2.4c-.2.3-.3.7-.4,1v-1.3c-.7-.5-1.5-1.1-2.2-1.4l-2.6-1.1-3.3-.8-1.3-.2h-3.5s0,3.1,0,3.1v2.3c.3-.3.4-.5.4-.7v-2.7c0,0-.1-1.5-.1-1.5h.3s.1,2.1.1,2.1v2.5s2.5.2,2.5.2l3.4.5,1.7.3,2.7.8,1.6.6c0,0,.3.2.3.2s0-.2.1-.2l.3-1.2v1.8s0,.3,0,.3c0,0-.3.2-.3.2h-1.2c-.6,0-1.5-.9-3.3-.8h-1.8c-.2.3-.2.4.2.2,1.9.5,3.5.8,5.2,1.5-1.1-.1-2.1-.4-3.1-.6l-4.4-.8v1.4c0,0-.2-1.3-.2-1.3l-1.8.3c-.7.1-1.5.4-2.2.8l-.9.5,2.6.4,1.5.3.2-1.6v1.7c.1,0,1.2.2,1.2.2l5.2,1.1,3.3.9h.4s-.4.4-.4.4l.4,1,.8,2,.9,1.8c0,.2.2.5.2.7.9,2.4,1.6,4.7,2.3,7.2l.4,1.3,1,3.1c.5,1.6,1.3,3.2-.1,4.3v.7c.1,0-.3,0-.3,0,.5,1.6,1,3.1,1.3,4.8l.6,3,1.3,3.7c.2.5-.1,1.6-.4,2s-1.1.9-1.6,1.1v1.8s.1,3,.1,3v2.2c.1,0,.5,3.2.5,3.2l.3,2,.5,2.8.5,2.8c.2.8-.3,1.4-1,1.8l-1.5.7c0,0-.2.3-.2.3s-.2-.2-.3-.2l-.4-.2.5-.5-.5-1.8c0-.2,0-.6,0-.9l.6,1.4c.1,0,.4-.6.5-.8.2-.6-.9-1.3-2.1-1.6l-2.5-.6c.3-.3.7-.2,1.2,0l2.6.8c.5.1,1.1.6,1.2,1.1.3,1.1-1.4,1.6-.7,2.5.7-.2,1.5-.6,1.8-1,.7-1.2-.5-2.7-1.8-3.2s-1.6-.6-2.3-.6h-2.2c1.1-.9,4.5.1,5.3.7l1.1.8-.3-1.9-.5-3-.6-5.3-.2-5.7-.4-1.4-.3-1.8-1.5-.6-2-.7h-1.5s-1.3-.2-1.3-.2l-1.3-.2h-1.9c0,0,0-.2,0-.2h2.7s.8.2.8.2h2.5c0,0,2.2.8,2.2.8.8.2,1.8.7,2.3,1.2s.2,1,0,1.2l-.4.3s.1.2.3.4l1.3-.9c.9-.6-.4-2.4-2.3-2.8l-3.8-.9h-1.3c0,0-1.4-.3-1.4-.3-.9-.1-1.7,0-2.6,0h-1.2c.1,0,.5-.3.5-.3h3.1s1.6.2,1.6.2h1c0,.1,3.2.7,3.2.7,1.2.2,2.2.8,3.3,1.5l-.5-1.7c-.2.2-.3.3-.3.3s-.2,0-.3,0l-3.3-1-1.7-.5c-.4-.1-1.1-.1-1.6-.2h-3.3c-.2,0-.5-.2-.7-.2-.3-.1-.2-.2,0-.2h3.8c.4,0,1.2.1,1.6.2l1.5.4,1.3.4,2.7.9-1-3.4-.8-4.1-1.3-4.6-1.8-.9c-.5-.3-1.2-.4-1.8-.6l-2.2-.5-2-.4-1.4-.3c.4,0,.9,0,1.3,0l.9.2,1.2.2,2.9.7,2.2.8c.4.1,1.1.5,1.2.8l.6,1.6c1-.5.8-2,.1-2.4l-1.3-.7-2.9-1-1.2-.2-1.4-.2-1.4-.2-1.5-.2h-2.7c0,0,0-.2,0-.2h4.3s1.2.2,1.2.2l1.5.2c.9.1,1.9.4,2.8.7l3,1.2-.4-1.1c0-.2-.4-.5-.6-.6h-.2s-2.1-.6-2.1-.6l-1.5-.3-1.2-.2-1.6-.3c.6,0,1.3-.1,1.9,0l3.4.8,1.3.4h.1ZM50.1,24.4l-1.8-.2c.6-.3.9-.2,1.4-.2,2.8.5,5.2,1.1,7.4,2.9l-.3-.7c-.4-1-1.3-1.7-2.2-2.3-2.3-1.6-5.1-1.4-7.7-.7.3.3.7.6.7.8l.2,1.5c2.5,0,4.5.4,6.7,1.5s2.4,1.4,3.5,2.7c-.2.3,0,0,.2-.3,0-.4-.2-.8-.5-1.1-.8-.7-1.5-1.6-2.4-2.1-1.6-.8-3.5-1.6-5.2-1.8ZM58.2,31.1l-.8-1.3c-.2-.4-.7-.8-1.1-1,.2,1.8-.1,4.3-.9,4.4s-.7-.3-.7-.5l.6-.2c.1,0,.3-.3.3-.5l.3-2.6c0-.2-.5-.6-.7-.5l-1,.8.6-1c.1-.2.8-.2,1.2-.2-.2-.2-.7-.5-.9-.7l-1.7-.7c.3.4.5.8.7.9l.7.6-1.9-.6,1.1.8-.7.2.7.8-1-.2c0,.9,0,1.8-.5,2.4l-1.2,1.5c.7.4,1,.5,1.3,1.1l-1.3-.7c-.1,0-.5.1-.6.2l-.2.3s-.3-.1-.2-.2l.2-.3,1.3-1.7c.4-.5.9-1,.8-1.7v-1.6c-.1-.8-.3-1.7-1-2.2l-1-.7c-.6-.4-1.7-.5-2.4-.4-1.2,0-1.5.8-2.4.7.7-.3,1.4-.7,1.5-1.5s-.4-1.3-1-1.1-1.1.8-1.3,1.4.4.9.7,1.3c-.3.1-.9.3-1,.5l-.9,1.2,1.2.4s0,.2-.1.3h-1c0,.2-.1.8-.1.8l1.1.3.7-1c-.1.8-.3,1.3-.6,2h1.5c0,0,.3.1.3.1,0,0,.1.3,0,.3h-.4s-1.8,0-1.8,0l.3,1c1.7-.5,2.9-.6,3.8.6s1.1,1.3,1.8,1.8l1,.7-.4.4c-1-.2-1.6-.5-2.4-.9s-.9-1.4-1.8-1.3l-.2.2.4.5h-1.1c.2,1,1.1,1.3.6,2.4l-.4-1.1-.6-1.2h-.8c-.1,0-.2.3-.1.4l.3.3-1,1.6c-.2.4-.3,1.3-.2,1.8s.6.8.9,1l1.1.8.4-.6.5-.9.7-1.4c.2-.3.1-1,.2-1.5.4.3.4,1.4,0,1.8l-1.1,1.5,1.3-.4,1.1-.4c1.4-.6,2.7-1.2,4-2s1-1.8,1-2.6l-.5-.5-.9-1.1c0,0,.4,0,.5,0l.8.7v-.7c0,0-.3-1.7-.3-1.7l.6,1.4c.4,1,.7,2.2.3,3.2l-.7,1.8,1.6-.5c-.1-.8-.1-1.3,0-2l.3,1.5c0,.2.6.4.8.4l.4,1.3,1.3-.4-1.5-1.9c-.3-.4-.6-.9-.8-1.4l1.4,1.6c.4.4,1,1,1.5,1.2l1.7.7c.2,0,.8-.1,1.1-.2l-.8-.8-1.2-1-.9-1c-.7-.7-1-1.7-1.4-2.6,0-.4.2-.4.3,0l.8,1-.2-1.7v-.2c.1,0,.3-.2.3-.2ZM47,33.8l-.8-.3v-.2c.8.3,1,.3,1.5,0l1,1c.3.4.9.7,1.5.9l-1.2-1.3c-1.2-1.3-1.1-1.6-3.5-1.1s-1.3,1.3-1.1,2.2c.2-.9.3-1.4,1.1-1.6l-.2.7h1.4c0,0,.2-.3.2-.3ZM47,41.6c.2.2,1,.4,1.3.3l3.2-.5,1.5-.2,1.1-1,1-1,1.2-1-.4-1-1.5.4-1.7.7c-.6.2-1.1.7-1.5,1.2l-.5.6c-.2.3-.6.6-1,.8l1.3-1.6,1.2-1.4-3.1,1.3-2.4,1.1c-.2,0-.5.6-.4.8l.6.6ZM61.7,38.7l1.4-.3c-1.4-.2-2.8,0-4.3.5l-1.1.3,1.6-1c0,0,0-.3,0-.4-1.9.6-3.3.7-4.4,2.2,2.1,0,2.4.9,3.5.2s2.2-1.2,3.4-1.5ZM56.8,41.7c.1,0,.2-.6.1-.7-.4-.5-1.5-.6-2.6-.4l1.1.3-.6.3c-.2,0-.4.4-.4.6,0,.4,1.2.6,2.4-.2ZM45.9,45.1h-1.5c0-.1.4-.3.6-.3h1.3c0-.1-.8-.6-.8-.6h1c0,0,2.9-1.9,2.9-1.9-.3,0-.7,0-.9,0l-2.2.4-3,.5.9,1.2c0,0,0,.4-.1.4l-1.1-1.2c-.1-.1-.5-.2-.8-.3.4-.6,1-1,1.6-1.3l1.4-.6c.2-.2.3-.3,0,0l-1.3-.5h-1.5c-.7.1-1.4.5-1.8,1.1s-.3,1.4-.2,2l.2,1,1.6.2v.3s-2.1,0-2.1,0c-.1,0-.5.3-.4.4h2.2c.1,0,0,.5,0,.8,0,0,.1,0,.5-.2,0-.3,0,0,0,.2-.4.4-.8,1.2-.7,1.8.2,1.4,3.7,1.1,4.7-.8s.2-2.5-.5-2.6ZM56.5,43c-.8.3-2,.1-2.7-.1l1.1-.2c-.3-.1-.8-.3-.8-.5v-1.2c-.9.5-.9,2,0,2.5s1.6.3,2,.1l1.1-.4c.2,0,.5-.5.5-.6l-1.3.4ZM46.9,42.1c-.4-.3-.6-.3-.9-.2l-.3-.3-1.8.9c1.2,0,2-.2,3.1-.5ZM48.8,44c1-.4,1.8-.8,2.7-1l1.5-.3v-1.2s-2.6.5-2.6.5l-1.9,1.3-1.4.8c0,0-.4.3-.3.3s.4,0,.5,0l1.5-.5ZM39.9,43.3v-1.2c-.3,0-.8.3-.9.5s-.1.8-.1.9l1-.3ZM36.9,44.8c.2.3.7.5.8.4l1.3-.7-1.2-.2.5-.7v-1.1c.1,0-1.9.3-1.9.3-.1,0-.4.5-.3.5.5.2,1,.5,1.2.8l-1.8-.4c-.9-.2-1.9.3-2.4.9h1.8c0,0,1.8.2,1.8.2ZM65.2,44.8l.4-1.6-1.8-.2-.7,1.5,2.1.3ZM67.4,44.4c0-.2-.3-.6-.5-.7l-.9-.3-.6,1.6,1.6.6.3-1.3ZM37,47.2l1.9-.6c.2,0,.4-.5.4-.6v-.7c.2-.1.8,0,.7-.2v-1.2s-1.2-.1-1.2-.1l.5.5c0,0,0,.6,0,.6l-1.7.8c-.3.1-.6,0-1-.3-.4.6-.4,1.4-.1,1.7s.4,0,.6,0ZM69,46.9l.4-1.6-1.6-1.2-.3,1.7c.2.2.6.6.8.7l.8.5ZM32.5,46.4c1-.4,2.2-.6,3.3-.6l.4-.8c-2.2.1-4.6.1-5.2,2l1.5-.6ZM70.5,48.4c.1-.2.5-1.1.3-1.4l-.9-1.3-.4,1.5,1.1,1.2ZM30.7,52.3l1-1.3.9-1.1,1.4-2.1,1.2-1.4h-1.5c0,0-1.8.6-1.8.6-.3,0-.9.5-1.2.8l-1.3,1.4c1.2-.4,1.8-.7,2.9-.9l-2.4,1.2c-.3.1-.9.5-1,.7l-.9,1.2,1.5-.4c0,.2,0,.8-.2,1.1l-.7,1.2.3-1.7-1.4.9c-.7.5-1.2,1.4-1.3,2.3l2.5-1.3,1.7-.9v-.2ZM72,49.3c0-.3,0-.9-.2-1.2l-.6-.7-.5,1.4.9,1.5.3-1ZM44,50.4l-1.6-.2h-.4c0-.1,0,.3,0,.3h2ZM55,64.8c.3-.5.6-1.2.6-1.7l.2-3c.1-1.3.2-2.8,0-4.1l-.5-2.8c-.1-.7-.3-1.6-.6-2.2h-2.4c0,.1,0,3.1,0,3.1,0,1.4-.2,2.8,0,4.3l.2,2.5v.9c-.2.8-.3,1.6-.7,2.5l3.2.6ZM46,61.2l2.6,1.1,3.3,1.1v-2c.2-.7.2-1.5,0-2.2-.3-1.6-.1-3.1-.1-4.7v-3c0,0-3.5.3-3.5.3l-3.2.2-3.3.3c-2.2.2-2.7,3.6-1.7,6.2l2,1.1.8.4,3.1,1.2ZM39.5,58.2l-.2-2v-2.1c.2-.7.9-1.4,1.4-1.9l-.8-.2-1.4,1.3c-.3.3-.5.9-.6,1.4v1.3c0,.7,0,1.5.4,2.1l1,.2ZM37.6,55.3v-1.6c.1,0,.5-.9.5-.9l-.9.7c-.5,1.7-.7,4.2.4,4.4,0-1-.1-1.6,0-2.5ZM33.2,65.5c.3.9,1,1.6,1.7,2.1l1.1.7c-1.5-.3-2.7-1.3-3.1-2.6l-.7-2c-.3-.8-.1-1.9,0-2.9s1.1-2.4,2.3-3.3h-1.8c-.4.1-1.1.6-1.3.9l-.9,1.6c-1.2,2.1-.8,3.9,0,6.1l.5,1.7c-1.2-1.7-1.8-3.8-1.5-6s.5-1.4.7-2l.7-1.5-1.5.3,2.6-1.3.4-.2c.2,0-.5-.4-.3-.7l.9.8.5-.5.2.5c0,0,.4,0,.5,0l1.1.3c.4.1,1.3.2,1.8.2l-.3-1.2v-1.8s.2-1.6.2-1.6c-.8.5-1.2.9-1.8,1.5l-1.4,1.6c.2-.6.6-1.1,1-1.6l-.2-1.7c-.6,1-1.2,2-2.2,2.7l-1.5.6c-.9.4-1.6.7-2.3,1.3s-1.1,1-1.2,1.5l-.5,1.7,1-.7-.8,1.4c-.2.4-.3,1.3-.3,1.8,0,1.8.4,3.4,1.5,4.7s1.2,1.2,2.1,1.3l2.6.2,1.8.2c.3,0,1.1-.1,1.4-.3l1-.6-.8-.4,1.1.2c1.4-1,2.8-2,4.3-2.7l2.7-1.2,2.4-1.2c.5-.3,1.1-.5,1.8-.7l-2.2-.9-.4.7v-1c-.1,0-3.1-1.2-3.1-1.2l-3.6-1.7c-.9-.5-2.2-.3-3.2-.5l-1.3-.2-.8.6c-.5.3-1.3,1.6-1.4,2.3-.1,1-.3,2.1,0,3l.7,1.8ZM64.1,65.9l1,.7-.6-.2c-.2,0-.7-.2-.8,0l-.5.5s0-.3,0-.4l.3-.5c0,0-.3-.2-.3-.2l-.9-.4-1,1,3.6,1.9c0,0,.3.3.4.2v-.4c.1,0,.4-.9.4-.9.5-1.5,1.1-3,1.8-4.4s.3-.3.3-.4l-.2-.3-.7-1.1c-.6.9-1,1.7-1.8,2.1l-1.8.9c-1,.5-2,.7-3.2.8h-4.2c0,0-.4,0-.4,0,0,0-.2.3-.1.3h.4c0,.1,1.4.3,1.4.3l3.2.8c.7.2,1.5,0,1.5-1l1.1.3,1,.3.5-1,.6-.6c-.3.7-.6,1.2-1,1.8ZM41.8,69.9c.3-.3,1.1-.6,1.6-.6h1.1s1.2-.1,1.2-.1c.5,0,.8,0,1.1.6l1.3-.8c-.1-.2-.5-.5-.7-.4l-.7.4.2-.8c-.1-.3-.9-.7-1.1-.5l-.9,1.1.4-1.3h-1.7c0,0-1.2.3-1.2.3-.2,0-.6.4-.7.6-.2.1-.8.4-1,.6l-.9,1v-.9c0,0,.7-.4.7-.4l.9-.7c1-.7,1.4-.5,1.8-1.1l.2-.3c.1-.2.3.8,1.1.5s1.8,0,2.6.6l1.4,1c.2.1.7.3.8.5l.2.3c0,0,.4-.2.3-.3l-1.2-1.5-1.7-1.7h.1c0-.1.6.3.6.3l2-1.9v.3c0,0-1.8,1.9-1.8,1.9l1.1,1c.5-.4.8-.6,1.5-.6l-1.3.9,1.2,1.6c.2,0,.9.1,1.1,0l.7-.7v-2.9s0-1.1,0-1.1c-.1,0-.4,0-.4,0v.5s0,3.3,0,3.3c0,.2-.2.6-.3.7v-2.8c0,0,0-1.8,0-1.8l.4-.7-2.7-.9-1,.4c-.6.2-.9.5-1.1,1.1l-.4,1.2-.5-.2.9-1.5-2.1.9-2.5,1.2c-.5.2-1.6.6-1.9,1l-1.7,2.7c0,.2-.4.4-.6.4l.4-.9.3-.6c0-.1-.2-.4-.3-.4l-1.2.6c-.1,0-.1.6-.1.7v2.2c.1.8,0,1.5-.2,2.3l-.5,2.7h.4s1.7-.9,1.7-.9c.2,0,.5-.5.5-.6h1.3s-.7-.7-.7-.7l-.5-1c0-.1-.4-.4-.5-.4s-.4.3-.4.5v1c0,0-.7-1-.7-1l1.1-.8c.3,0,.4-.1,0-.2-.5-.4-.7-.7-.9-1.2l-.3-.7,1-.2,1.5.7-.5.3c-.4-.1-.3.1,0,.2.2,0,.5.1.4.2l-.2.2-.4.4c0,0,.3.3.4.4s.1.4.2.6l.2.8.8.6c.3.2,1.2,0,1.7-.2l.4.3-1.8.6c.2.8,2,1.1,2.3.9l1.5-1,.2.4c-.1,0,.3.6.4.5l.5-.4c.2-.1.5-.1.8-.1h1.1c0-.1,0,.2,0,.2h-1.5s-.8.5-.8.5l2.3-.2,2.7-.4c.5,0,.8-.1,1.4-.4l-2.6-.4h-.8c0,0-.4.6-.4.6l-.3-.7h-1.5c.2-.2.6-.3.8-.3l2.3.2,2.2.2-.3-.5-3.8-.3c.4-.4.8-.3,1.3-.3h2.7c.1-.6-.2-1.5-.6-1.8s-.7-.1-.8,0l-.2.7c0,.2-.2.6-.3.8-.2-.7-.3-1.3-.7-1.9-.5,0-.8.8-.8,1.2l-.7-.2v.6c-.1.1-.8,0-.7,0l.9-1.1-.9-1c0,0-.5-.2-.4-.3v-.5c.1,0-.6-.2-.6-.2l-.2-.8-1.3.2c-.7.1-1.3.5-1.7,1.1h-.3s.6-1.2.6-1.2l-1.3.3-.2.8-.3-.6h-.1c0,0-.5,0-.7,0l-.9.6-.2-.3.7-.4c.3-.2.9-.3,1.2-.2s0,0,.1,0ZM64.9,71.1v-.2s.8-.5.8-.5l-.9-.8-1.8-1.4,2.6,1.6c0-.3-.3-.9-.6-1.1l-2-1.1c-1.2-.7-2.5-1.2-3.8-1.5l-6-1.3h-.9c0-.1,0,.7,0,.7v3.2c0,0,.8.1.8.1l2.4.3,2.7.6,2.4.6,2.3,1,2.5,1.5v-2s-.6.3-.6.3ZM48.6,70.8c.2-.2.4-.3.5-.5s0-.5,0-.7l-.2-.5c0,0-.4,0-.4,0,0,.4-.3.9-.6,1l-.5.3c.4.4.9.4,1.3.2ZM49.5,69.9v.6s2.6,0,2.6,0v-.6s-2.6,0-2.6,0ZM39,71.8l-.5-.4s0-.2.2-.4c0,0-.6,0-.6.2,0,.4.5,1.1.8,1.1.2-.4.3-.6.2-.5ZM52,72.2v-1.3c0,0-2.6,0-2.6,0l.8,1.1,1.3-.8.5,1ZM35.9,77.7l.4-2.4.5-2.4c0-.2-.5-.5-.7-.5s-.4.4-.5.6l-.2,2.1-.4,2.3.9.3ZM65.5,78l-1-.5-1.4-.6c-1.2-.5-2.6-.8-3.9-1h-.9c0-.1-2.7-.6-2.7-.6l-1.1-.2c-.4,0-1.1-.1-1.5,0s-.6.7-.7.8h3.4c0,.1,1,.2,1,.2l1.6.2c1.2.1,2.3.3,3.4.7l2.4,1h1.3ZM41.7,76.6l-.8-.4c-1,.6-1.3-.7-2-.4l-2,1.2h2.3c.8,0,1.5-.1,2.4-.4ZM42.1,80.2c1.8-.7,3.6-.7,5.4-.8l2.6-.2c1.7-.1,3.1-1.2,4.7-1.4l1.3-.2,4.3-.4-1.7-.4-1.7-.2h-1.6c0-.1-1.6-.3-1.6-.3h-1.9c0-.1-1.9.1-1.9.1-2.6.4-4.9.6-7.5.6l-2.1.4h-2.5c0,0-1.4-.1-1.4-.1-.1.4-.3.9-.5,1.2l-2.2,1,.8.6c1.7,1.2,3.9,1.5,5.8.8l1.8-.7ZM33.4,85.3l-.3-1.4c0-.4.2-.9.6-1,1.4-.5,1.8-1.7,1.7-1.8l-.3-.2-1.7-1.2v.9c0,0-1.1,2.3-1.1,2.3-.3.5-.7,1.7-.3,2.1l1.1,1.2.2-.8ZM60.7,90.5h2.4s-.1-1-.1-1l-1.5-.4h1.2c0,0,.3-.1.3-.1l-.5-2.6-2.7-.4v1.5s.2.9.2.9l.8,3.1.2,1.2c.2,0,.6,0,.8,0l2.1.3-.3-1.1c0-.3-.3-.9-.5-1.1l-2.3-.4ZM66.6,90.2l-.3-1.3c0-.4-.4-1.1-.6-1.5s-.8-.3-1.1-.4l.2,1.4-.6-1.5-1.5-.5.7,2.9,1.7.4-.2-.7c0-.1,0-.5,0-.5l.6,1.3c.1.2.9.4,1.1.4ZM67.8,91.7l1.3.4-1.6-4.3-1.4-.5.5,1.7.5,1.6c.1.3.5.9.6,1.1ZM65.5,90.9l-.2-.8-1.8-.6c-.1,0-.2.5-.2.6,0,.3.5.6.7.6l1.5.2ZM66.6,90.5l-1-.4c0,.9.7,1.3,1.6,1.2,0-.2-.4-.8-.6-.8ZM31.5,99.4c0,0,.1,0,.6,0,.2-.3.3-.6.4-.9l.5-2.7.3-2.3.3-3.2-.9.5c-.2.1-.5.6-.5.8v2.4c-.1.3-.6.9-.6,1.2s.4.4.3.4c-.2.2-.5.7-.5,1v2.5ZM69.7,94.6c-.3-1.8-.4-2.3-2-2.6v.8c0-.3-.3-.9-.6-1l-1.1-.4.5,1.4h-.2c0,.1-.6-1.5-.6-1.5l-2.1-.4.6,2.2,1.5.2h.7c0,.1.2-.4.2-.4l.2.8,1.4.4-.2-.9c.8.6.7,1.5,1.7,1.5ZM31.9,103c.3-1,.5-2.2.4-3.5-.5,0-1.1.4-1.2.7l-.4,2.6-.2,1.3c.6-.6.6-.8,1.4-1.1ZM30.7,108.9l.3-.3.7-4.3c-.3.2-.6.5-.6.8l-.4,1.5c-.2.7-.1,1.5,0,2.4Z"/>
      <path class="st17" d="M26.1,151.7c-.3,0-1-.4-1.3-.6s-.2-.8,0-.9c.4-.2,1.1-.4,1.5-.4h3.8c2.4,0,4.6.2,7,.1h3c0,0-.7-1.1-.7-1.1l-.7-1.4-.5-1v-1.3c0-.4-.1-.9-.2-1.3l-.6-2.2-.3-1.4-.7-4.1-.6-2.9c0-.1-.2-.6-.2-.7h-2c-.4.1-1,.3-1.3.5l-1,.4c.6-.7,1.5-1.1,2.4-1.1h1.7s-.4-3.8-.4-3.8l-.4-3.3-.2-1.8-.3-2.3-.2-2v-2.2c-.1,0-.4-3.5-.4-3.5l.2-2.3.2-3.9c0-1.6.2-3.2.5-4.8l.5-2.2v-1.8c0,0,.3-1.4.3-1.4l.2-1.2.3-1.4v-4.3s.2-.9.2-.9v-1.8s.2-.1.2-.1v6.3s-.2,1.3-.2,1.3l-.2,1.2-.3,2.2v1.7c0,0-.5,2-.5,2l-.5,3.6-.3,5.2c0,1.4-.2,2.6,0,3.9l.2,2.2v3.1c.1,0,.3,1.1.3,1.1l.4,3.3.5,3.9c.1,1.1.2,2.3.5,3.3l.6,2.8.8,3.4.3,2.5.5,2.5c.2,1.1.5,1.9.6,3s.4,1.9.8,2.5l1.3,2c-.3,0-.8-.1-1-.1l-2.4.2c-2.3.2-4.5.2-6.7,0h-4.9c-.3,0-.9.3-.8.5.1.4.8.7,1.2.7h1.6s3.3,0,3.3,0h3.5c0-.1,4.8-.4,4.8-.4l1.5-.2-.4.4h-1.2c0,.1-3.7.4-3.7.4h-4.5c0,.1-1.4.1-1.4.1l-3.7-.2Z"/>
      <path class="st17" d="M33,139.4v-2c-.4,0-1,.3-1.1.7s.3,1,.5,1.4c-.7,0-1-1-.8-1.7s.9-.9,1.3-.8h2.3c.4,0,1.1.4,1.6.6l-1.8-.2h-1.5c0,0,0,2.1,0,2.1l-.3,2-.6,2.2h1.3c0,0,.5,0,.5,0,.1,0,.1-.4.2-.5l.2-.5v1.4s-.9-.1-.9-.1c-.9-.1-1.9.8-2.3,1.6h2.3c.3,0,1.6.7,1.9,1.3l-2-.9h-1.3c-.3,0-.8.2-1.1.4l-1.5,1,1,.7c-2.1-.4-3.3-.5-4.9,1.2.6-2.2,3.2-1.5,3.8-2.1l1-1,.6-.9,1.1-1.1c.3-.3.4-1.3.5-1.8v-.4c0,0-.3,0-.4,0-1.1-.9-2.2-2.4-2.2-3.8v-1.6c0,0,.5-1.2.5-1.2.2-.3,0-1.2,0-1.6v-3.3s.3-5.8.3-5.8l.2-2.2c0-.8.2-2.1.2-2.9l-.4-1.1c.1-.9,2-1.7,3-1.3l-2.1.7v4c0,0,1.4-1.1,1.4-1.1v-1.1c.1,0,.4-1.7.4-1.7v2.3c.1,0,.4.5.4.5,0,.1-.2.4-.2.5v2.2c-.1,0,.5.4.5.4-.3,0-.7.2-.7.4l-.2,1.6v1.3c-.1,0,1.5.5,1.5.5h-1.5c0,.1.1,2.4.1,2.4,0,.4,0,1.1-.2,1.5.7-.1,1.5-.2,2.2-.1l-1.3.3-1.5.3h-.9c0,0,1.2-.3,1.2-.3v-3c0-.2-.2-.6-.3-.6l-1.1.6h-.1c0-.1,1.3-1,1.3-1v-1.1c0,0,.3-2.4.3-2.4-1,.2-1,1.4-1.1,2.7v1.1s-.2-.2-.2-.2v-2.4c0,0,.2-.7.2-.7-.2,0-.7.4-.7.7l-.2,3.4-.2,3.8c0,.3.2.9.3,1.1v.9c-.1,0-.4,1.6-.4,1.6,1.6-.9,4-.9,5.6.2l-1.5-.2c-1.7-.2-2.9-.5-4.2.8,0,.6,0,1.6.2,2l1,1.7,1.3.7v-1.3c0,.1.2-.4.2-.5ZM32.3,123.9c.4-.1.7-.4.7-.6v-2.3s-.8.6-.8.6v2.3ZM31.1,124.6c.5-.2.9-.7.9-1v-1.8c-.9.6-.9,1.7-.9,2.8Z"/>
      <path class="st17" d="M68.7,138.6l-.4-.6-1.5-3.2-.7-1.5c-.7-1.4-1.1-2.9-1.7-4.4l-1.2-3.3c-.3-.8-.5-1.8-.7-2.7l-.4-2.6-1.8-6.6-1-4.1-.8-3.4-.5-2.6-.5-3.2-.3-4c0-.8-.5-1.7-.5-2.5v-3.6c-.1,0-.2-2.1-.2-2.1v-4.9s.1.1.1.1v1.3c0,0,.2,1.8.2,1.8v2.4c0,0,.4,5.7.4,5.7l.5,2.1.2,2.2.2,2.8.5,2.1.4,2.1.2.9.6,2.7,1,4.1,1.8,6.7.5,3.1c.1,1,.5,1.8.8,2.7l1,2.8c.4,1.3.8,2.6,1.3,3.8l1,2,1.7,3.7s0,0,.1.2l.9,1.3c-.5-.2-.9-.7-1.1-1.2h0Z"/>
      <path class="st17" d="M59.4,132.6l-.6-1.4-.8-2.2-.9-2.3-.7-2.1-.4-2.2-.2-1.6-.4-2.6-.4-1.7-.6-2.2-.6-2.4-.6-3.8v-2c-.1,0-.2-3.3-.2-3.3v-5.1c0,0-.4-2.9-.4-2.9,0-.5-.7-1.3-.7-1.8l-.2-2v-4.1s.1-2,.1-2v-3.3c0,0,.4-.4.4-.4v4c0,0-.2,2-.2,2v4.6c0,1.7,1,2.6,1.1,3.8v2.1c0,0,.3,6.7.3,6.7,0,2.6,0,5.2.7,7.8l.5,2,.7,2.5.6,3.4.5,3.3.5,2.1,1,2.9.7,2,.7,2,1.1,2.3c-.2-.2-.5-.5-.6-.6l-.8-1.6Z"/>
      <path class="st17" d="M45.4,145.5c-.5-.8-.9-1.6-1.2-2.4l-.7-1.7-.7-1.7-.5-2.4-.4-1.6-.8-3.9-.3-1.6-.2-1.7c-.2-1.2-.3-2.2-.7-3.3s-.9-2.5-1-3.7l-.2-2v-2.3c-.1,0-.5-3.2-.5-3.2l-.2-2.4-.2-1.6-.3-2.2-.2-2.8-.2-2.9v-7.3s-.2-.8-.2-.8v-3.4s.1-.1.1-.1v2.8c.1,0,.2,1.8.2,1.8v2c.1,0,.3,5.1.3,5.1v2.2c.1,0,.4,3.5.4,3.5l.6,5.9.4,3.2v1.9c.1,0,.4,3,.4,3l.3,1.5,1,3.1.6,4,.2,1.4.8,3.9.5,2.1c.2,1.1.6,2.2,1,3.2l1.1,2.7c.1.4.4.8.6,1.1l1,1.7h-.2c0,.1-.8-1-.8-1Z"/>
      <path class="st17" d="M54.6,134.5l1.2,1.9c0,.1.1.3.2.6l-.7-1c-1.1-1.5-2.1-3-2.7-4.7l-.8-2.2c-.6-1.5-1.1-3-1.9-4.4s-1.3-3.7-1.9-5.6l-1.8-5.8c-.5-1.5-1.2-2.8-1.1-4.4l1,2.8,2.1,6.2.4,1.6c.5,1.8,1.1,3.6,1.8,5.3l1.6,3.7,1,2.9,1,2.1.7,1.2Z"/>
      <path class="st17" d="M69.6,106l.3,2c0,.3,0,.8,0,1.1l-.4-1.7-.2-1.6-2.2-.6.7,2.2h-.2c0,.1-.8-2.2-.8-2.2l-1.5-.2.9,3c-1.1-1.2-.7-3.1-1.6-3.1h-2.3c0-.1-.3.4-.3.4l-.3-.6-.2-2.3c0-.3-.5-.7-.7-.8l.5-.4.5.3,3.2.5,3.1.7c.2,0,.6.3,1.1.5h-.3c0,0-1.4-.3-1.4-.3l-1.5-.3-1.1-.2.4,2.2,1.5.2v-1.2c.1,0,.3,1.2.3,1.2l2.1.6v-1.8s.1.1.1.1l.2,1.8,1.1.6h-1ZM63.5,104.5h1.4c0,0-.2-1.6-.2-1.6,0-.3-.4-.8-.6-.9l-2.4-.3.3,2.1c0,.2.3.6.5.6h1.1Z"/>
      <path class="st17" d="M45.2,94c-.2.4-.4.6-.6.9.3-1.3.9-2.2,1.7-3.3s.4-1.1.5-1.6c.2-.9.6-1.7,1-2.5l.9-1.9.7-2.3.6-2c.1-.5.4-1,.8-1.5,0,.2,0,.6,0,.8l-.6,1.8-.6,2-1,2.4c-.5,1.1-1,2.1-1.4,3.2s-.3,1.2-.5,1.6l-1.4,2.3Z"/>
      <path class="st17" d="M65.3,81.2c-.3-.9-.6-1.2-.4-2.2.8,1,.3,2.1,1.5,2.6h-.8s-1.3-.4-1.3-.4l-3.1-.6-4.4-.8h1.7c.4-.4,1-.9,1.7-.8l-1.3.9,1.3.2,1.6.2,1.4.2,1.1.3,1.2.4Z"/>
      <path class="st17" d="M71.8,111.7l-3.5-1-2.8-.5-1.6-.2-1.6-.2h3.4c.7,0,1.3.3,2,0l-2.5-.5-1.5-.2-2.6-.2c1.2-.1,2.6-.2,3.9,0l2.9.4,3,.8,1.2.6c-.2,0-.6,0-.8,0l-3.8-1c0,.5.4.5.7.4l3.6,1.2c.2.3.1.4-.1.2Z"/>
      <path class="st17" d="M41.6,87.6l1.1-.5c.2,0,.7-.4.9-.6l1.3-1.3c1-1,1.5-3.2,3.2-4.8,0,.3,0,.6-.2.7l-1.2,1.8c-.6.8-.9,2-1.7,2.6l-1,.9c-.7.7-1.5,1.2-2.6,1.1Z"/>
      <path class="st17" d="M32.3,53.1c0-.3.2-.4.3-.7l1.4-2.4c.5-.9,1-1.8,1.9-2.2l-2,3.3c-.5.8-.9,1.4-1.5,2Z"/>
      <path class="st17" d="M62.9,73.5c.6.2,1.2.5,1.6.9l-3.5-1.3-2.6-.7-1.8-.2c-.3.1-.2-.4,0-.4l1,.2,1.2.2,2,.5,1.2.4.9.3Z"/>
      <path class="st17" d="M42.6,86.8c-.8,0-1.6-.4-1.9-1l-.8-1.8,1.3,1.7c.3.4.9.8,1.4,1.1Z"/>
      <path class="st17" d="M69.5,129.3c-.1-.3,0,0,.1.3l-.8.5c-1.1.1-2.1-.1-2.9-.9.2,0,.5,0,.7.1l1.2.4c.6.2.9,0,1.7-.5Z"/>
      <path class="st17" d="M70.5,121.8l.4-.5-.2-1-.5-2.5c0-.3,0-.4.2,0l.6,2.3c0,.4.2,1.1.1,1.5s-.5.2-.6.2Z"/>
      <path class="st17" d="M68.2,121.3c-.5.7-2.2.5-3.1-.5s-.7-.8-.8-1.4l1.2,1.4c.7.8,1.7.7,2.7.5Z"/>
      <path class="st17" d="M55.7,71.5c0,.6,0,1.3,0,2l-.4-1.8-.2-1.4c0-.2.5-.2.4,0l.2,1.2Z"/>
      <path class="st17" d="M61.3,75.4c-.4,0-.9,0-1.4,0l-3.5-.8h1.1s3.8.8,3.8.8Z"/>
      <path class="st17" d="M68.6,125.8l-.2.5c-1.1.2-2.6-.7-2.9-1.7l2,1.4c.2.2.9,0,1.2-.2Z"/>
      <path class="st17" d="M67.6,146.5c-.4,0-.8,0-1,0l-1.7-.6c-.2,0-.5-.3-.7-.5l1.7.5,1.7.6Z"/>
      <path class="st17" d="M63.8,75.6l-.3-.6c-.1-.2-.7.6-1.3.4l1.4-.9.6,1.4s-.4-.2-.4-.2Z"/>
      <path class="st17" d="M35.4,147.7c-.9.5-2.1,1.1-3.2,1l2.3-.9c.2,0,.6-.1.9-.2Z"/>
      <path class="st17" d="M63.3,79.8l-1.2.4c-.7-.3-1.2-.6-1.6-1.3l1.6,1h1.2Z"/>
      <path class="st17" d="M31.3,131.9v-1.8c0-.3.1-.8.2-1.2,0,.4.1,1.2,0,1.5l-.3,1.4Z"/>
      <path class="st17" d="M69.5,121.3l-.4.5-.7-.8c-.2-.2-.3-.5-.4-.9l.6.6.9.6Z"/>
      <path class="st17" d="M61.4,74.6c-.3-.3-.4-.4-.4-.4l-.4.3s-.3,0-.2-.1l.2-.4c0-.2.7-.3.8-.2l.6.9-.6-.2Z"/>
      <polygon class="st17" points="37.4 148.8 37.1 148.9 35.7 146.9 35.9 146.8 37.4 148.8"/>
      <path class="st17" d="M32,147.8c0-.1.4-.4.5-.4l1.5-.5c-.6.6-1.1.7-2.1.9Z"/>
      <path class="st17" d="M32.4,147c0,0-.4.3-.5.2l-.3-.2,1.6-1.1-.8,1.1Z"/>
      <path class="st17" d="M54.6,73.4c.1,0-.2.3-.4.3-.3-.3-.5-.5-.5-.7s.6-.6.6-.5c.3.2.4.3.1,0l-.4.5c0,0,.2.2.6.4Z"/>
      <path class="st17" d="M69.8,125.6c.3-.1-.2,0-.5.2v-1.8c0,0,.2.4.2.4l.3,1.2Z"/>
      <rect class="st17" x="70.1" y="129.9" width="2.5" height=".2"/>
      <path class="st17" d="M32,146.3c-.4.4-.8.7-1.4,1,.3-.5.6-.8,1.4-1Z"/>
      <path class="st17" d="M63.2,122l1.2-.9c0,.7-.5,1.1-1.2.9Z"/>
      <path class="st17" d="M59.8,74c-.3,0-.5,0-.5-.1l-.5-.9c.4.2.7.5,1,1Z"/>
      <path class="st17" d="M34,80.3l-.5,1.8v.4c-.2.4,1.1-.3.5-2.2Z"/>
      <path class="st17" d="M32.3,123.9v-2.3c0,0,.7-.6.7-.6v2.3c0,.2-.3.5-.7.6Z"/>
      <path class="st17" d="M31.1,124.6c0-1.1,0-2.2.9-2.8v1.8c0,.3-.4.8-.9,1Z"/>
      <path class="st17" d="M38.9,62.4l-1,.2c.2-.2.7-.5,1-.6l3.1-.8c.2,0,.8,0,1,0l-1.4.3-2.8.7Z"/>
      <path class="st17" d="M41.5,73.7l.7.7h-.8c0,0,0-1.4,0-1.4-.2-.1-.6-.4-.7-.5l-.4-1s.2-.5,0-.2l1.1.6-.4-.8.7.4c.2,0,.1.6,0,.8l-.2.4c0,.1.2.3.4.4l-.5.7Z"/>
      <path class="st17" d="M43.3,75.2c-.1-.2,0-.6.1-.4h1.5c.1.1.6-.2.6-.4,0-.4-.6-.8-.9-1.1l.9.3c.3,0,.6.8.4,1s-.7.6-1,.6h-1.7Z"/>
      <path class="st17" d="M45,72v.6c-.8,0-1.2-.3-1.3-1l2-.2c-.3.2-.9.3-1.3.4,0,0-.1.3,0,.3h.6Z"/>
      <path class="st17" d="M45.1,70.7l-1.7.8c0-.6,1.1-1.1,1.5-.9s.5.5.2.2Z"/>
      <polygon class="st17" points="44.2 72.9 44 73.9 43.6 72.8 44.2 72.9"/>
      <rect class="st17" x="43.5" y="68.1" width=".8" height=".5" transform="translate(-27.1 107.8) rotate(-86.4)"/>
      <path class="st17" d="M48.8,27.3l-2.1,1.2c0,0-.4,0-.5,0-.1,0,0-.4,0-.6l2.5-1.5.7-.5,1,1c0,.2,0,.4,0,.4l-.5-.2c-.1,0-.4-.3-.5-.3l-.6.3Z"/>
      <path class="st17" d="M48.7,28.5v1.2c-.4,0-.9-.4-.8-.6l.2-.8c0,0,.6.1.6.2Z"/>
      <path class="st17" d="M52.4,30.5l-2.1,1.2.4-.7c.5-.4.9-.8,1.7-.5Z"/>
      <path class="st17" d="M53.3,34.6l-1.4-1.3c.9-.2,1.5.5,1.4,1.3Z"/>
      <path class="st17" d="M49.9,37.4c0,.1-.5.5-.6.5l.4-1.8c.1.3.3,1,.1,1.3Z"/>
      <path class="st17" d="M45.5,38.3c-.5-.6-.5-1.2,0-1.8v1.8Z"/>
      <path class="st17" d="M48.8,36.1v1.4s-.5-1.3-.5-1.3c0,0,0,0,.5-.1Z"/>
      <path class="st17" d="M44.5,78.8l-1.8.3h1.6c0,.1.1.2.1.2h-3.1c0,0-2.7.2-2.7.2,0-.3,0-.5,0-.6l-.8-.6,1.7.7,3.3-.5v-1.3s.4,1.2.4,1.2c.8,0,2,0,2.7-.4l1.1-.6-.7.8h3.4c-.4.2-1,.4-1.4.4h-2s-1.8,0-1.8,0Z"/>
      <path class="st17" d="M58.2,66.9l1,1.3c-.5-.2-.9-.6-1.1-1l-1.2.9-1.5-1c-.1,0-.6.1-.6,0l-.2-1.2h-1.5c-.2.4-.5,0-.3-.2.9-.3,1.5-.2,2.2,0l2.9.9c-1,0-1.7-.2-2.7-.5-.3,0-.4,0,0,.2l.4.5,1.5,1,1.3-.8Z"/>
      <path class="st17" d="M43.8,44.7c-.7.5-1.3.2-1.7-.4l1.7.4Z"/>
      <polygon class="st17" points="34.9 74.6 34.2 74.5 34.4 73.4 34.9 74.6"/>
      <path class="st17" d="M34,80.3c.6,1.9-.7,2.6-.6,2.2v-.4c.1,0,.6-1.8.6-1.8Z"/>
    </g>
    <image width="594" height="825" transform="translate(-5.2 -3.3) scale(.2)" xlink:href="A:\Dávid\Projektek\card_game\silver_general.png"/>
  </g>
</svg>