<?xml version="1.0" encoding="UTF-8"?>
<svg id="Réteg_1" data-name="Réteg 1" xmlns="http://www.w3.org/2000/svg" viewBox="0 0 255.81 209.18">
  <defs>
    <style>
      .cls-1 {
        fill: #d4c3bf;
      }

      .cls-2 {
        fill: #f4ccbb;
      }

      .cls-3 {
        fill: #564f5d;
      }
    </style>
  </defs>
  <path class="cls-3" d="M94.99,119.27c-5.07,2.77-9.84,5.38-15.47,7.91,1.26,2.81,1.13,5.79.68,8.06-5.35,7.67-4.15,13.52-4.76,22.96l.21,1.99c.47,3.28,1.5,9.52-.53,8.84-1.6-1.63-.8-.53-2.26-2.29-5.08-6.17-10.49-11.88-13.6-19.45-2.81-6.81-5.49-24.12-5.7-26.74,4.32,5.6,7.48,12.48,15.2,10.66,3.28-.77,4.54-4.62,7.02-6.01l20.6-11.57,14.92-12.26c1.39-1.15,4.08,1.2,3.3,2.14-5.56,6.73-12.47,11.87-19.59,15.76Z"/>
  <g>
    <path class="cls-3" d="M244.65,58.24l-15.08,8.92c-4.11,2.55-7.93,6.98-10.27,11.33l-4.54,8.44-3.78,17.4-3.46,12.57c-8.3,15.97-19.99,23.9-28.09,44.89l-5.88,15.26c-4.07,10.54-22.75,7.11-28.46,8.36l-14.64,2.38c-.79.17-2.82-1.99-3.61-4.85,0,0-.95-6.38.27-10.32,3.54-11.47,11.87-16.26,24.03-16.2l1.69-16.98c.22-2.2-1.19-4.18-2.29-5.13-3.15-2.72-13.21.73-22.41-.02l-5.94,5.21c-3.71,3.26-8.09,5.37-12.18,7.44l-9.63,4.86c-2.1,6.52-5.22,21.75-8.21,21.56-1.94-2.32,4.25-15.01,4.71-18.85-2.18,1.5-6.52,1.5-7.1-.11-.94-3.45,4.1-4.38,6.17-4.79,14.45-2.85,24.18-12.43,34.85-21.54,3.85-3.29,21.71-7.37,27.08-1.55,4.59,4.97-7.95,30.78-4.09,48.28-4.81-3.97-5.2-9.02-3.52-14.81-6.39,1.37-9.32,14.98-7.34,22.24,5.77,1.64,10.23-1.04,14.78-2.93,14.04-5.83,18.47-18.13,23.89-31.65,3.92-9.8,11.73-17.39,18.17-25.46,2.71-3.4,2.94-7.56,3.49-11.77,1.07-9.92,1.77-19.58,5.32-28.98-.56-11.21,4.88-20.14,12.51-28.33,1.9-1.93,6.6-4.92,5.71-8.18l-9.62-11.48c-3.07-3.67-5.64-6.8-8.42-10.8-2.52-3.62-6.99-6.49-7.55-11.33,2.11-.6,3.8-2.64,6.85-2.86,2.09-.15,4.1-1.76,5.29-3.01,3.19,2.03,3.35,5.8,5.16,8.57,5.33,8.16,9.3,16.5,14.3,24.73l11.85,19.49Z"/>
    <g>
      <path class="cls-2" d="M201.19,11.32c.57,4.84,5.04,7.71,7.55,11.33,2.78,3.99,5.35,7.13,8.42,10.8l9.62,11.48c.89,3.26-3.81,6.24-5.71,8.18-7.63,8.19-13.07,17.12-12.51,28.33-3.56,9.41-4.26,19.06-5.32,28.98-.55,4.21-.78,8.37-3.49,11.77-6.44,8.07-14.25,15.66-18.17,25.46-5.41,13.52-9.85,25.82-23.89,31.65-4.55,1.89-9.01,4.57-14.78,2.93-1.97-7.26.95-20.87,7.34-22.24-1.67,5.78-1.29,10.84,3.52,14.81-3.86-17.5,8.68-43.31,4.09-48.28-5.38-5.82-23.23-1.75-27.08,1.55-10.67,9.11-20.39,18.69-34.85,21.54-2.07.41-7.11,1.34-6.17,4.79.59,1.6,4.93,1.6,7.1.11-.46,3.84-1.81,8.03-3.1,11.78-.14.47-.28,1-.59,1.7-.5,1.85-9.61,14.45-4.99,15.66,1.57.41,3.43-1.69,4.36-3.44,7.69,5.57,8.28,12.16,7.91,21.62-1.58.73-2.74,2.62-4.75,2.33-2.18-.31-3.84-1.06-5.1-3.17-4.41-7.36-10.87-11.81-13.66-17.3l.06-21.01c0-1.82-.91-3.47-2.14-4.22.62-9.44-.24-15.89,3.93-21.57l4.47-5.19,11.73-12.41c7.12-3.89,14.04-9.03,19.59-15.76.78-.95-1.91-3.29-3.3-2.14l-14.92,12.26-20.6,11.57c-2.48,1.39-3.74,5.24-7.02,6.01-7.72,1.82-10.88-5.06-15.2-10.66-.51-6.16,2.39-10.44,7.88-13.98l20.53-13.24c2.03-1.31,3.32-2.1,5.59-3.76,1.89-1.61,2.84-1.14,9.59-7.99-7.68,3.6-15.04,6.69-24.08,7.05-6.17.24-13.34,1.44-18.04,5.67-6.76,6.09-13.58,11-20.91,16.25-6.71,4.81-13.98,6.63-21.78,3.07-.79-6.81,8.16-10.93,13.87-16.08l20.05-18.07c5.53-4.98,10.43-9.48,18.43-10.55l5.49-3.36c7.37-2.04,14.75-3.8,22.28-6.78l4.46-2.69c5-1.9,10.7-1.18,15.87-4.45-7.52-2.1-14.87.34-21.26,3.16-4,1.76-6.13.84-9.78.41-11.41-1.36-21.46-4.24-31.85-9.47-5.46-2.75-10.96-6.27-16.52-7.48-.42-1.76.29-3.67,2.61-4.03,1.25-.2,2.16-.77,2.71-1.49.59.1,1.21.15,2.03.27,8.27,1.49,11.18,2.61,16.07,4.71l2.17.8c-.59,2.37,4.28,3,7.93,1.03.57.11,1.37.14,1.94.15.13,1.64,2.37,2.45,4.18,1.87,3.78-1.21,6.65-.06,9.91.03,7.42.22,18.68-4.62,35.89-2.73,2.15.24,4.8-.64,5.39-2.44l1.88-.3c.74,1.47,4.67.51,9.79-1.15,6.44-2.1,12.85-4.88,19.24-3.76-7.21,4.95-15.12,7.92-23.6,12.61,11.67-1.02,21.45-6.89,31.48-12.5,2.26-1.26,4.37-2.54,5.36-4.69,10.5-6,21.09-11.95,32.84-15.3Z"/>
      <path class="cls-3" d="M70.18,65.56c.43-1.66,5.87-2.11,6.09-4.54-13.85-2.09-31.67-2.64-41.78-10.76-3.76-3.02-5.53-6.38-5.36-10.71,1.48.09,3.07-.81,4.24-1.3,5.56,1.21,11.06,4.73,16.52,7.48,10.39,5.23,20.45,8.11,31.85,9.47,3.65.44,5.78,1.36,9.78-.41,6.4-2.82,13.74-5.26,21.26-3.16-5.17,3.27-10.87,2.54-15.87,4.45l-4.46,2.69c-7.52,2.98-14.91,4.75-22.28,6.78Z"/>
      <path class="cls-3" d="M86.38,88.44c-9.21,2.36-16.48,6.88-26.4,7.64-4.23,5.96-10.51,8.98-16.34,12.91l-11.37,7.66c-4.92,3.32-10.33,5.48-16.15,2.74-2.61-1.23-3.52-3.42-3.79-5.76,7.8,3.57,15.07,1.74,21.78-3.07,7.32-5.25,14.15-10.17,20.91-16.25,4.69-4.23,11.87-5.43,18.04-5.67,9.04-.36,16.39-3.45,24.08-7.05-2.28,4.5-7.13,5.92-10.76,6.85Z"/>
      <path class="cls-3" d="M168.36,26.62c-1,2.15-3.11,3.43-5.36,4.69-10.04,5.61-19.81,11.48-31.48,12.5,8.48-4.69,16.38-7.67,23.6-12.61,3.24-.34,4.39-1.37,6.58-2.16l6.67-2.42Z"/>
      <path class="cls-2" d="M124.21,36.42c-.59,1.8-3.24,2.68-5.39,2.44-17.21-1.89-28.48,2.95-35.89,2.73-3.27-.1-6.13-1.24-9.91-.03-1.8.58-4.05-.23-4.18-1.87l16.34.3c8.66-1.39,17.15-4.27,26.05-3.33,4.59.49,7.26.18,12.98-.24Z"/>
      <path class="cls-2" d="M161.69,29.04c-2.18.79-4.21,2.58-6.58,2.16-6.38-1.11-12.79,1.67-19.24,3.76-5.11,1.66-9.05,2.62-9.79,1.15,2.68-.5,3.57-.78,5.07-1.36,7.08-2.73,13.78-3.72,20.95-5.25,3.39-.72,6.42-1.45,9.58-.47Z"/>
      <path class="cls-2" d="M38.7,32.73c-.55.72-1.46,1.3-2.71,1.49-2.33.37-3.03,2.27-2.61,4.03-1.17.5-2.76,1.4-4.24,1.3.11-2.78,1.25-4.11,3.17-5.58,2.17-1.65,4.09-1.66,6.39-1.25Z"/>
      <path class="cls-2" d="M66.9,39.53c-3.66,1.97-8.52,1.34-7.93-1.03,2.63.58,5.1,1,7.93,1.03Z"/>
      <path class="cls-3" d="M100.46,201.81c.37-9.46-.23-16.05-7.91-21.62-.92,1.76-2.78,3.86-4.36,3.44-4.63-1.21.16-9.68,5.99-15.86.75.84.99,2.32-.35,4.21,9.56,5.92,14.37,26.24,6.63,29.83Z"/>
      <path class="cls-1" d="M76.95,183.67c-.59-1.16-1.84-2.18-1.84-4.25l-.09-18.64-.16-2.35c1.23.75,2.13,2.4,2.14,4.22l-.06,21.01Z"/>
    </g>
  </g>
</svg>