<?xml version="1.0" encoding="UTF-8"?>
<svg xmlns="http://www.w3.org/2000/svg" width="32" height="26" viewBox="0 0 179.87 146.53">
  <defs>
    <style>
      .cls-1 {
        fill: #261f2f;
      }

      .cls-2 {
        fill: #524b59;
      }

      .cls-3 {
        fill: #f2cbba;
      }
    </style>
  </defs>
  <g id="Réteg_1" data-name="Réteg 1" shape-rendering="geometricPrecision">
    <g>
      <path class="cls-3" d="M157.72,123.76l-22.34-7.06c-10.31,6.83-19.73,14.09-30.82,19.48-1.63.79-4.04.26-5.85-.38l-35.47-12.58c-12.84,2.53-29.84,6.73-38.04-.9-1.99-4.75-3.06-12.99,1.72-16.47,6.07-4.41,13.41-7.16,19.54-9.13,1.58.41,3.5,1.05,5.84.94l21.25-1.07c5.17-2.72,9.6-8.34,13.82-12.45,1.43-1.39-1.14-4.4-1.55-5.65-1.87-5.69-2.05-13.42-6.49-17.85s-11.76-5.86-17.09-9.03l-13.49-8.01c-7.82-2.86-14.09-6.73-21.11-10.75-10.14-5.81-19.47-13.44-23.08-24.72.53-.67.64-2.19,1.98-2.87,5.69-2.91,12.3-2.71,18.03-.06,6.89,5.96,14.52,10.02,23.52,11.03,9.64,4.61,19.43,9.03,29.93,11.31,7.06,1.54,14.38-.51,21.44-.12,3.06.17,6.34.74,9.4-.18,6.45,4.6,13.69,5.99,21.66,4.8,11.54,1.36,16.01,7.02,22.34,16.9l16.22,25.31c2.82,4.4,7.52,7.01,10.68,11.93-5.32,8.12-9.64,16.37-14.46,24.64-1.04,1.77-3.19,3.01-3.52,5.64-.4,3.23-2.83,5.23-4.06,7.3ZM101.25,39.6c1.03-2.13,1.13-3.32,1.28-5.11-6.46-1.9-12.13-4.37-19.14-3.28l17.86,8.39Z"/>
      <path class="cls-2" d="M46.47,96.72c1.36-11.3-6.1-22.76-.92-33.27,4.53-2.13,10.8-5.27,16.86-8.25l-9-5.08c-5.54-3.13-11.46-5.26-17.44-8.38l-15.94-8.31C12.27,27.92.05,13.84,4.56,8.14c3.6,11.28,12.94,18.9,23.08,24.72,7.02,4.03,13.29,7.89,21.11,10.75l13.49,8.01c5.33,3.17,12.76,4.71,17.09,9.03s4.62,12.16,6.49,17.85c.41,1.24,2.98,4.25,1.55,5.65-4.22,4.11-8.65,9.73-13.82,12.45l-21.25,1.07c-2.35.12-4.26-.53-5.84-.94ZM79.73,74.93c1.13-.9.44-2.56-.77-2.25-9.67,5.58-15.58,1.66-26.44-2.68,6.15,8.2,19.17,11.3,27.21,4.93ZM71.48,81.41c-3.24-2.06-9.93,4.31-11.8,9.69l11.8-9.69Z"/>
      <path class="cls-2" d="M157.72,123.76c-2.43,4.1-3.31,9.52-6.98,13.38-1.07,1.13-9.74.74-15.52-.12-12.35,2.85-23.57,7.6-35.34,3.97s-23.4-7.03-34.38-13.12l-24.68,2.56c-6.85.71-13.12-2.16-15.62-8.11,8.2,7.62,25.2,3.43,38.04.9l35.47,12.58c1.81.64,4.22,1.17,5.85.38,11.09-5.38,20.5-12.64,30.82-19.48l22.34,7.06Z"/>
      <path class="cls-3" d="M45.55,63.46c.57-3.12,1.26-7.66,5.26-9.09,1.76-.63,2.02-3.16,2.61-4.25l9,5.08c-6.06,2.98-11.06,5.46-16.86,8.25Z"/>
      <path class="cls-2" d="M101.25,39.6l-17.86-8.39c7-1.09,12.68,1.38,19.14,3.28-.14,1.79-.25,2.98-1.28,5.11Z"/>
      <path class="cls-1" d="M79.73,74.93c-8.04,6.37-21.06,3.27-27.21-4.93,10.86,4.34,16.77,8.26,26.44,2.68,1.21-.31,1.9,1.36.77,2.25Z"/>
      <path class="cls-1" d="M71.48,81.41l-11.8,9.69c1.87-5.38,8.56-11.75,11.8-9.69Z"/>
    </g>
  </g>
</svg>
