<?xml version="1.0" encoding="UTF-8"?>
<svg id="Réteg_1" data-name="Réteg 1" xmlns="http://www.w3.org/2000/svg" viewBox="0 0 409.19 709.78">
  <defs>
    <style>
      .cls-1 {
        fill: #1c395c;
      }

      .cls-2 {
        fill: #566e9e;
      }

      .cls-3 {
        fill: #f39ea5;
      }

      .cls-4 {
        fill: #1a4b7d;
      }

      .cls-5 {
        fill: #f5aba1;
      }

      .cls-6 {
        fill: #f6b3a8;
      }

      .cls-7 {
        fill: #916390;
      }

      .cls-8 {
        fill: #fbedde;
      }

      .cls-9 {
        fill: #fcddb8;
      }

      .cls-10 {
        fill: #fdd8af;
      }

      .cls-11 {
        fill: #3e649e;
      }

      .cls-12 {
        fill: #f8c0ab;
      }

      .cls-13 {
        fill: #f1b3a7;
      }

      .cls-14 {
        fill: #fcd4af;
      }
    </style>
  </defs>
  <g id="Generatív_objektum_-180_30_" data-name="Generatív objektum (-180, 30)">
    <path class="cls-11" d="M166.17,513.54c1.37,6.19-1.66,12.01-2.12,18.41-1.26,17.5.42,34.59,1.4,52.06l9.62-7.6,11.89-6.84c3.82,1.75,7.33,1.47,10.79.92l3.14,3.11c-.65.23-.84,0-1.05-.24-.3-.34-1.1.35-.66,1.2-1.48,3.81-.31,7.34-.07,10.8l2.02,29.27c1.51-5.06,1.53-10.46.96-15.53,3.28-2.63,12.25.32,18.76-2.12,8.59-3.21,6.98-15.88,3.28-24.63,2.45-2.76,3.26-7.45.6-10.22,1.06-.85,1.35-1.57,1.77-2.04,4.17.22,8.27-.77,12.91-.86.23-.69.61-.88,1.1-.93l1.26,3.47c12.32-2.31,23.88-4.35,35.73-5.02l1.77,68.64-39.36-.81,1.84,54.89,1.02,20.99c-37.28,4.5-75.25.73-110.67-11.91-18.23-6.51-34.36-16.51-47.39-30.65-4.87-5.29-6.27-9.62-6.88-16.43-2.6-28.82-6.97-57.11-11.55-85.54-1.36-8.46-3.53-16.08-5.7-24.29-2.72-10.29-5.4-20.33-9.29-30.07-1.38-.31-1.86.43-2.01,1.06-.12.52-.75,1.98-.51,2.63l5.39,14.42c1.18,2.86-1.36,4.75-1.93,7.01-1.61,6.46,0,13.04.42,19.69l3.1,50.6c.84,13.64,1.22,26.86,3.16,40.52l-1.91-.6c-5.79-3.83-8.06-8.27-12.21-11.71l-2.37-41.46-4.65-68.75-.51-18.63c-.11-3.84,2.48-7.19,1.04-11.53,2.63-1.03,3.79-2.78,6.3-3.83l7.21-3.02c-.8-4.84.36-9.06.31-13.24l2.83,8.83c1.17,4.47,5.72,7.41,8.27,10.91,5.19,7.13,12.11,9.79,20.62,10.55,9.98.89,19.73,2.92,29.77,3.11,4.54.09,7.59,2.34,11.14,4.03l9.84,4.69c9.88,4.71,21.11,4.92,31.58,6.66ZM141.82,531.17c-.62-1.31-2.12-.68-1.42.59-.37,10.7-.58,33.02,2.61,32.24,2.84-.7-1.83-21.62-1.18-32.83ZM135.36,647.74c5.62-.83,10.53-1.8,14.71-4.73-2.39-3.13-6.54-4.23-10.58-3.73-2.21.28-6.4,7.46-4.13,8.46Z"/>
    <path class="cls-11" d="M262.89,239.11l-.59,36.21c-.05,3.35-.61,6.78-2.44,9.51l5.02,34.51,14.37,2.1-2.29,25.03-3.28,20.86-4.41,21.72-5.91,23.03c-3.29,1.06-6.18,2.23-9.01,3.95-26.92,16.32-56.01,16.94-87.87,9.71.34,5.73,2.52,10.34,4.07,15.28l4.09,13.09c.49,1.58,2.62,2.73,3.64,3.43l2.9,3.69.52,8.21c.11,1.74,2.53,2.35,3.56,3.34-11.79-4.8-19.75-12.71-25.85-24.02-6.8-12.63-13.47-25.28-18.6-39.29l-13.49-36.81c-.07,7.92,2.75,14.65,4.83,22.1,4.3,15.42,10.35,29.74,18.56,43.55,1.19,2,2.96,3.42,2.31,5.89-5.01-2.96-11.46-2.63-17.27-3.54-8.46-7.07-10.05-21.7-13.32-15.14-3.33-5.47-4.2-11.93-5.81-18.47-3.81-15.49-4.84-30.93-7.06-47.39-1.65,2.88-1.3,6.2-1.49,9.2-3.29,13.04-4.01,26.62-4.38,40.7-.42,15.91.74,31.33,1.21,47.27l.43,14.34c-8.17,1.36-15.87-.35-23.95-2.39-9.36-2.35-17.88-7.6-24.37-14.43-.74-2.92-4.06-11.66-3.53-11.13-.2-.2-.65-.28-1.08-.26l-.1-10.31c-.11-10.93.71-21.72,1.22-32.39.05-1.12-.73-2.73-.31-4,1.08-3.28.51-6.87.9-10.19l2.15-18.2c1.37-11.62,1.85-23.33,4.43-34.96,4.59-20.68,17.4-37.39,36.4-46.64,3.35-1.63,6.31-4.01,10.09-2.98l-2.04,2.7c4.61,14.39,9.85,28.79,18.42,41.52,20.25,30.08,57.24,55.5,93.12,45.91,16.24-4.35,30.75-13.24,41.77-25.75,1.85-2.1,3.28-4.24,3.53-7.2-3.63,3.89-7.02,7.09-10.54,10.28-5.89,1.46-11.66-3.9-12.85-10.45.79-4.69,3.18-8.9,6.05-13.26,3.74-8.95,8.74-17.62,9.17-27.5l2.26-16.22c1.35-9.67,2.06-19.9.45-29.54-1.07-6.39-6.97-11.75-10.51-17.09-3.11-4.69-7.94-7.55-11.97-10.56-.08-.49-.71-.77-.79-1.64,8.86-1.26,17.09-4.63,24.42-9.56,1.3,7.54.27,15.1.4,23.3,2.08-.42,3.58-.06,4.85.9Z"/>
    <path class="cls-11" d="M266.53,200.37c-.24,1.13-.79,2.44-1.84,3.12-2.48.38-4.04,3.21-5.95,4.1l-11.02,5.14c-7.32,3.42-14.71,5.53-22.82,6.54l9.13,6.83c4.03,3.02,8.86,5.88,11.97,10.56,3.54,5.34,9.44,10.7,10.51,17.09,1.62,9.64.9,19.87-.45,29.54l-2.26,16.22c-.43,9.88-5.43,18.55-9.17,27.5-2.87,4.36-5.25,8.57-6.05,13.26-6.58,9.37-15.81,16.22-26.8,22.57,9.02,2.43,18.74,1.71,26.65-2.11,2.92-1.41,9.77-7.09,13-10.01,3.52-3.19,6.91-6.4,10.54-10.28-.25,2.95-1.68,5.1-3.53,7.2-11.02,12.51-25.52,21.41-41.77,25.75-35.88,9.6-72.87-15.83-93.12-45.91-8.57-12.74-13.81-27.14-18.42-41.52l2.04-2.7c5.11-6.75,11.25-13.28,14.31-21.84l.84-8c3.8.96,6.63-.8,9.52-3.58,9.95-9.56,20.26-18.2,32.48-24.79,3.57-1.93,7.2-3.21,10.21-6.31-15.62-1.29-29.73-4.91-42.92-12.15-5.92-3.25-7.27-6.78-10.79-9.69.06-.4.2-.95,0-1.28l.48-1.87c1.93,4.31,5.47,7.66,9.88,9.98,13.21,6.95,27.53,10.25,42.38,11.6l18.88.72c25.53.97,55.4-.7,74.07-15.7ZM199.9,341.55c15.53.56,28.87-7.82,38.66-18.7,10.16-11.3,10.91-19.14,5.78-33.03.24-1.09,1.97-1.8,2.43-2.47l.85-12.9c1.55-23.37-13.11-29.21-5.61-37.47-.59-2.53-3.27-3.46-5.4-4.71-6.51-3.8-12.75-7.26-20.24-8.5l-15.19,9.1c-4.09,2.45-7.8,5.34-12.44,6.93-2.21.75-3.77,2.08-5.64,3.19-11.09,6.65-22.75,10.17-32,22.25-1.81,4.42-1.35,11.12-.4,15.69.61,2.94,4.1,4.58,5.48,6.57-.04,2.12-2.6,3.35-3.62,4.9-4.1,24.5,22.87,48.26,47.34,49.14Z"/>
    <path class="cls-1" d="M301.14,345.59c-1.5.96-.97,2.37-.99,3.91l-.71,43.64-4.29,79.75c6.69,8.74,19.34,4.2,29.9,2.31-2.27-1.63-.23-3.41-.51-4.91l10.24-2.11c2.17-.45,4.87.25,6.59-1.42,1.32-1.28,2.68-3.01,3.81-4.3l2.71-3.11,2.39-6.59c.84,7.04-1.63,14.29-6.5,19.52-.03-.72.09-1.35-.62-1.79-2.76,4.04-6.85,5.28-10.8,7.45-3.48,1.91-6.25,4.77-10.56,5.6.98,2.23,3.5-1.7,9.76-2.65l-.8,2.63c-4.08,2.5-8.37,4.42-13.04,5.86-4.54,1.39-9.24,2.47-14.17,2.93-.51.91-1.09,1.4-1.58,1.62-2.5,1.16-5.64,1.63-8.16,3.49-1.64,1.21-1.26,5.13-.32,6.33.05.52-.2.47-.36.6-.37.29-.25.87-.12,1.27.17.52-.16,1.92-.68,1.94l-2.69.07c-2.51.06-4.45,1.63-6.64,1.54.01-.36-.16-.76-.23-.96.92-.84.22-2.15.36-2.92,1.34-2.74,1.84-7.41.23-11.02l-29.32,5.15c-5.7,1-11.66.75-17.07,2.66-2.54.89-1.99,5.77-2.35,7.78l-.44,2.48c-.13.73-1.42,1.52-3.04.72-.44,1.34-.52,2.5-.32,5.74-.65-1.8.32-.81.74-1.01.46-.23,1.36.28.94,1.16l-.03,1.34c0,.37-1.47-.03-1.93-.31-5.59-3.38-11.76-2.75-17.71-2.38-.01-.3.05-.68.17-.97,1.15-2.86.9-6.58.33-9.7-4.61-1.6-8.51-2.03-12.83-2.14l-32.35-.8-.93,9.52c-.31.11-.67.1-1.06.03-10.48-1.74-21.7-1.95-31.58-6.66l-9.84-4.69c-3.55-1.69-6.61-3.95-11.14-4.03-10.04-.19-19.79-2.22-29.77-3.11-8.5-.76-15.43-3.42-20.62-10.55-2.55-3.5-7.1-6.44-8.27-10.91l-2.83-8.83-.09-7.22.38-14.59c.43-.01.88.06,1.08.26-.53-.53,2.79,8.2,3.53,11.13,1.25,4.93,3.64,9.31,7.91,12.64,12.71,9.91,29.55,14.15,44.68,8.61,3.72-1.36,4.94-5.71,4.75-9.08l-3.6-62.89-.81-17.42c-.2-4.26.16-8.75-1.09-12.32-.59-1.67-.88-3.35-.77-5.03.19-3-.16-6.31,1.49-9.2,2.22,16.46,3.25,31.9,7.06,47.39,1.61,6.54,2.47,13,5.81,18.47.25.4.48.85.45,1.18l-.14,1.83c-1.16-.34-4.21-.36-4.25.77-.4,11.55,2.38,22.21,4.84,33.21,1.18,5.3,4.43,7.88,9.85,9.57l3.12.98c29.68,9.29,85.68,9.41,117.2,2.67,6.12-1.31,12.32-2.53,17.3-6.45,1.69,2.42,3.72,1.61,5.74,1.47,4.41-.3,6.87-2.26,7.67-6.67l7.12-39.29,4.05-32.28,1.72-21.91,1.92-18.11.35-14.87c.02-.23.54-.37.77-.15l.98,8.14Z"/>
    <path class="cls-11" d="M135.18,139.15l4.27,25.06c1.35-.96,3.35-2.34,3.61-3.79l1.82-10.27c.87-4.9,2.61-9.07,6.26-12.11.05,1.8-.98,3.47-.11,5.53,1.5,3.54,1.21,7.64,1.38,11.46.15,3.41,3.52,3.6,5.67,3.53-1.22.15-.69,1.52-1.11,2.05-2.47,2.87-6.79,5.91-11.18,7.58,2.84,2.66,7.27,3.61,10.4,4.62.07.36.88,1.72,1.91,1.04,6.39-4.24,12.98-6.98,19.32-10.49.28-.09,1.12.82,1.55-.03.09-1.3,1.28-1.18,1.69-1.39.76-.39.98-1.35.95-2.15.82,1.17,1.03,2.72,3.04,2.53l1.1-10.19c.06-.55,1.73-1.34,1.7-1.82,6.88-4.25,16.09-4.39,23.31.41.97.65,2.02,1.06,3.11,1.01-.65,3.22.47,6.82.91,10.8,1.04-4.54,5.01-6.29,8.82-7.54.11.56-.11.98-.81,1.34,1.51.29,1.77,1.4,1.56,2.86-1.54,1.38-3.22,3.97-3.46,5.88l20.94,9.14,4.41-2.81c3.62-2.3,8.38-2.83,11.47-6.59l-2.98-3.79c.1-1.09-.67-2.09.07-3.3l-3.48-7.77c-.93,1.05-.14,1.65-.14,2.18,0,.4-.1,1.26-1.2,1.27l.05-12.51c4.47,5.67,7.42,11.73,7.85,19.33l2.6-21.47c3.55,1.4,7.75.72,11.64.53l-6.77,59.87c1.15-.24,1.84.54,1.15,1.18-18.67,15-48.54,16.67-74.07,15.7l-18.88-.72c-14.86-1.34-29.17-4.64-42.38-11.6-4.41-2.32-7.96-5.67-9.88-9.98l-.48,1.87c-2.97-5-3.05-10.95-3.87-17.16l-5.69-43.47c6.35,4.41,14.18,6.59,21.8,2.87.8-.39,2.02,1.11,2.1,1.27Z"/>
    <path class="cls-8" d="M275.46,123.52c1.27.54,2.65,2.45,4.79,1.85l-8.3,64.88c-.91,1.76-1.92,3.56-1.85,5.21l1.03,24.92-.78,19.62c-.26,6.42.06,13.16,1.18,20.11,1.24,7.69,5.76,16.93,11.74,21.95l16.95,9.19c28.32,17.13,36.86,42.79,40.72,73.85l2.22,17.9c5.82-.59,10.32,3.08,14.22,6.76,4.32,4.06,4.54,8.49,5.43,13.48-.47,1.88-.91,3.67-2.21,4.84-2.09,1.87-11.66,1.33-15.25-4.02l1.26,12.55c.47,4.65.68,9.55,1.78,14.21l2.67,11.34,2.39,7.6c-1.56-.29-1.81,1.06-2.68,1.69-1.22-4.04-.59-.11-6.44,7.92l-8.4,7.22c-.82-.08-1.58.68-2.45.62-2.35-3.28-2.76-6.85-3.24-10.61l-4.47-35.39c.98-.13,1.53.38,2.56,1.21.75-36.59-1.33-65.64-23.56-94.46-2.16-2.8-3.82-5.41-7.37-6.41-.91,2.94-.77,5.47-.9,7.89l-.76,13.69c-.08,1.47-.13,2.76-.19,4.11-.31.45-.12,1.47-.29,1.95-.37,1.09-1.88.73-2.81.3.72-7.79.71-15.69-.15-23.44-.28-2.48-.26-5.12.56-8.29l-8.87-8.73-1.14,13.99-3.73,22.91c-.85-.12-1.07.46-.96.87.14.5.45,1.47-.46,1.87-.18-.48.27-1.71-.75-2.18l2.29-25.03c.46-5.01.74-9.94.73-15.84-3.32-7.2-7.09-14.36-9.95-22.15-1.34-3.95-4.13-7.23-7.73-8.13l.59-36.21c.18-11.13-1.07-24.24,1.87-34.71-.11-.33-.1-.68-.08-.91,1.06-.67,1.61-1.98,1.84-3.12.68-.64,0-1.43-1.15-1.18l6.77-59.87c-3.9.19-8.09.86-11.64-.53l-12.1-4.88c-.39-1.16-1.57-2.84-.31-4.41,1.46-1.82,3.45-4.53,5.51-5.37l8.17-3.34c4.26-1.74,9.53.97,13.69,2.75Z"/>
    <path class="cls-1" d="M214.43,104.93c1.82.59,2.76-.75,4.16-1.61,3.77,3.36,11.67,3.99,16.02,8.27.48.47-.32,2.65.35,3.13.54.4,1.62.4,2.21.89,2.61,2.22,4.37,5.14,5.65,8.75l7.34-2.46c.26-1.54-.28-2.77-.57-3.92l.87-.04c.36-.02.39.43.35.8l-.14,1.22c-.07.59.52.91,1,.54.36,1.17.67,2.7,1.94,3.6-2.06.84-4.05,3.55-5.51,5.37-1.26,1.57-.08,3.25.31,4.41.74,2.2,1.66,4.72,1.65,7.02l-.05,12.51c1.09,0,1.2-.87,1.2-1.27,0-.52-.79-1.12.14-2.18l3.48,7.77c-.74,1.21.03,2.21-.07,3.3-4.05-1.76-8.69-2.25-13.35-1.99-.16-.47-.56-.72-.88-.7l-16.15.86c.2-1.47-.05-2.57-1.56-2.86.7-.36.92-.78.81-1.34,1.02-.34,3.01-1.44,3.93-2.16,3.54-5.32.74-10.79-3.79-14.35-2.6-2.04-5.65-3.12-8.42-1.21-1.05.73-2.32,1.73-3.54,3.39-3.46-3.45-8.05-6.53-13.39-6.37-4.81.14-8.11,3.84-10.81,7.01-.45-.7-.85-1.01-1.16-1.17-1.74-1.43-4.33-3.96-7.51-2.93-4.16,1.35-8.23,6.1-8.69,10.52-.31,3.01,2.55,5.99,4.49,7.12.46.4.74.81.76,1.11.03.4-.19.72-1.27.85l.95,1.81c.3.57,1.11,1.15-.19,1.37-.49-1.09-1.52-1.89-3.21-1.84l-13.67.43c-2.15.07-5.53-.12-5.67-3.53-.16-3.82.12-7.92-1.38-11.46-.87-2.06.15-3.73.11-5.53-.17-6.16-.94-6.82-5.21-10.97.34-.92.91-2.79,1.67-2.84,2.66-.19,4.47-1.72,5.48-4.09.83,2.1,3.03,4.25,5.59,4.36.82-2.8,2.13-5.52,3.33-7.28l1.37-.92c.72-.48.85-1.96-.94-1.76.62-5.08,10.69-7.29,18.2-9.71-.09-.9.27-1.53,1.01-1.68.19-.04.47-.18.6-.27.89-.17.93-.83,1.25-1.97l1.18,6.23c7.89,6.84,20.38,6.9,29.17.45l.6-2.67Z"/>
    <path class="cls-8" d="M358.53,490.79c-1.39-.7-2.19-1.89-3.27-1.71-1.71.28-2.19,2.38-2.06,4.05.87,11.36-.51,21.68-3.71,32.38l-5.37,24.84-1.28,4.27-.82,2.9-9.49,33.36c-2.63,9.26-7.59,17.05-13.05,24.91l-.59,1.47c-.22.55-.15,1.28.86,1.09l-2.64,2.23c-.56.09-.79-.12-.96-.43-.78-1.5,10.82-27.18,13.46-44.68,2.24-14.86-4.46-38.22-11.98-50.66-4.61-7.63-11.56-13.07-18.26-18.97l-5.6.83c.09-.48-.21-.91-.74-1.02-.13-.39-.24-.97.12-1.27.16-.13.41-.08.36-.6,2.84-.37,6.03-.59,8.12-2.49.85-.77,1.6-.28,2.48-.64l14.02-5.72c8.92-3.64,18.1-7.15,25.71-13.66,2.53-2.16,4.14-4.57,2.55-7.3-.82,2.03-3.19.53-4.04.28l1.44-1.96c4.87-5.23,7.33-12.49,6.5-19.52-.07-.58.19-.92.51-1.34.88-.63,1.12-1.98,2.68-1.69,3.07,13.37,4.91,27.12,5.07,41.05ZM349.3,478.37c1.59-1.19-.49-2.19-1.04-.73-1.54,1.26.27,2.37,1.04.73Z"/>
    <path class="cls-1" d="M242.78,700.48c21.5-2.59,42.31-7.13,60.72-16.81.26.14.85-.25,1.11-.4l12.17-6.99,2.87-2.73c4.64-2.25,7.97-6.12,9.6-10.94,1.85-5.45,2.23-11.49,2.28-17.59-.13-.19-.69-.21-.8-.19-.52-.09-.92.3-.8.82l-.63.05c.59-4.46,1.97-6.93,2.63-10.33.09-3.32-.12-6.93,2.41-9.71-1.17-5.53-.25-10.32.63-15.46l5.11-29.58,4.45-16.5,2.92-8.12.87.29c.38,3.43-1.33,6.77-1.95,10.28l-2.49,14-3.9,43.26-2.08,37.99c.46,2.43,4.7,2.71,6.43,1.97l12.2-5.18c5.68-2.41,9.79-8.04,13.45-13.1,1.37.07,1.03,1.14.41,1.69-3.08,9-10.26,14.61-18.54,18.11-6.71,2.84-12.77,5.67-20.63,3.05-15.62,20.58-52.99,32.26-78.51,35.68-31.72,4.24-63.55,3.38-94.8-3.36-26.5-5.72-56.75-18.78-74.7-39.64-3.71-4.31-6.59-8.55-7.97-13.95-2.17-1.73-5.14-1.78-7.34-.25-9.79-2.69-22.69-14.45-23.1-21.63,4.15,3.45,6.42,7.89,12.21,11.71l5.87,3.88c1.47.97,4.02,1.04,5.65-.23l-1.8-33.65-2.81-38.15c-.88-11.93-1.85-23.64-5.43-35.18l-4.31-13.89-5.39-14.42c-.24-.65.38-2.11.51-2.63.15-.62.63-1.37,2.01-1.06,3.9,9.74,6.58,19.78,9.29,30.07,2.17,8.21,4.33,15.83,5.7,24.29,4.58,28.43,8.95,56.72,11.55,85.54.61,6.81,2.01,11.14,6.88,16.43,13.03,14.14,29.17,24.14,47.39,30.65,35.42,12.65,73.39,16.41,110.67,11.91Z"/>
    <path class="cls-8" d="M369.99,645.51c-3.66,5.06-7.77,10.69-13.45,13.1l1.43-29.95,4.73-76.12-8.8-2.07c-.89-1.88-.35-4.68.53-6.54.63-1.31.56-3.03.48-4.65-.53-.22-1.22.03-1.82-.03,2.05-4.73,2-10.66,2.6-16.2l1.76-16.12c1.33.22,1.26-.46,1.25-.89,11.68-2.72,19.92,11.5,19.33,23.03l-5.17,101.97c-.26,5.15-.09,10.62-2.87,14.47ZM365.2,637.59l-.55,13.12,2.13-2.57,6.59-106.49c-2.76,1.43-2.9,4.24-3.09,7.23l-3.79,58-1.29,30.71Z"/>
    <path class="cls-11" d="M122.34,253.43c-2.44-7.22-2.63-17.02-2.81-25.77-.22-10.54-.22-20.73,1.3-30.75,3.51,2.91,4.87,6.45,10.79,9.69,13.2,7.24,27.31,10.86,42.92,12.15-3.02,3.1-6.64,4.39-10.21,6.31-12.22,6.59-22.53,15.23-32.48,24.79-2.89,2.78-5.71,4.54-9.52,3.58Z"/>
    <path class="cls-8" d="M145.37,91c-2.73.56-4.55,3.07-7.03,4.77-1.93,1.32-4.84,2.07-4.84,4.97l-.02,17.33c0,1.06.42,2.61,1.17,3.07l-.4,3c3.4.23,6.44.61,9.22,1.87-.03.31.84.89.69,1.25-.16.41-.62,1.37-.96,1.73l-7.57,7.79c-.75-.16-1.08.54-.89.8.51.68.34.91.45,1.57-.08-.16-1.3-1.67-2.1-1.27-7.62,3.71-15.45,1.54-21.8-2.87-.3-2.26-.72-5.16-.36-7.57,1.27-.4,2.26-1.6,2.98-1.94l6.03-2.88c4.11-1.97,8.17-2.99,12.82-3.32-.42-2.94-2.71-2.37-4.5-2.58l-16.84-1.98c-1.24-5.82.77-9.4,5.53-13.09,5.26-4.07,11.89-11.38,16.27-10.44,3.87.83,8.78-1.54,12.17-.2Z"/>
    <path class="cls-9" d="M228.63,87.22c-.65,1.76-2.8.82-1.67-.71-1.11-.87-2.26-2.28-3.51-2.56-3.76.37-7.15,2.41-9.48,5.16l-.97,1.82c-.23.43-1.3-.27-1.95-.35-4.41-5.01-11.16-6.78-17.46-5.12-2.44.64-4.07,2.36-6.21,3.69-4.08,2.55-4.01,6.49-4.71,10.72l-.42,3.01c-.13.09-.41.23-.6.27l-4.81-6.75c-1.56-2.19-5.78-3.13-6.97-6.34-2.02-5.48,2.38-12.41,8.34-13.17,3.45-.44,5.58,2.5,8.05,4.56,4.12-8.1,13.24-11.32,20.43-6.49l6.43,5.94c.97-2.2,2.91-3.55,4.43-3.96,5.27-1.41,11.04,4.05,11.1,10.27Z"/>
    <path class="cls-8" d="M281.44,112.34c-1.77.26-3.9.68-4.95,2.28-4.65,1.87-9.72,1.26-15.07.12l-.07-2.01c-.01-.32-.35-.76-.94-.54-.06-.43.06-1.09.31-1.61-1.16-.99-1.3-2.17-.43-2.91l2.44-2.11c.35-1.44.49-4.81-.68-6.1l-7.32-8.1,11.5,1.08c3.92,1.39,11.8,7.98,14.88,12.82,1.02,1.98.5,5.24.33,7.07Z"/>
    <path class="cls-14" d="M358.53,490.79l.17,15.25c0,.43.08,1.11-1.25.89l-1.76,16.12c-.61,5.54-.55,11.47-2.6,16.2l-4.43,10.23c-1.32,1.12-2.7,1.36-4.54.86l5.37-24.84c3.21-10.69,4.59-21.02,3.71-32.38-.13-1.67.35-3.77,2.06-4.05,1.08-.18,1.88,1.01,3.27,1.71ZM350.01,535.48c.31.35.67.42,1.23.06l2.24-12.9c-.19-.06-.43-.23-.62-.49l-2.84,13.33Z"/>
    <path class="cls-3" d="M53.22,396.23c-.42,1.27.37,2.88.31,4-5.06,1.04-4.33,7.54-4.13,13.9l-6.76,3.89c-2.7,1.66-6.24,1.46-8.59-.03-2.56-1.62-3.19-4.03-2.83-7.18l1.48-13.12c.29.89.21,2.55.68,3.41,1.92,3.51,12.06-.31,16.99-3.65.91-.62,1.25-2,2.85-1.23Z"/>
    <path class="cls-8" d="M54.12,386.04c-.39,3.32.18,6.91-.9,10.19-1.6-.77-1.94.61-2.85,1.23-4.93,3.34-15.08,7.15-16.99,3.65-.47-.86-.39-2.51-.68-3.41l5.06-7.97c1.69-2.66,4.77-6.41,8.12-5.77,2.31.44,5.06,4.75,8.24,2.08Z"/>
    <path class="cls-3" d="M145.37,91c3.61,1.42,4.52,6.94,4.3,10.03-2.37.58-3.27,1.3-4.33,2.24-3.17,2.83-7.47,2.14-8.85,11.52-.35,2.35-.43,4.84-1.84,6.34-.75-.46-1.17-2.01-1.17-3.07l.02-17.33c0-2.89,2.92-3.64,4.84-4.97,2.48-1.7,4.29-4.21,7.03-4.77Z"/>
    <path class="cls-11" d="M38.47,428.99c-3.64-2.51-6.9-6.37-6.28-11.68l1.87.69c2.35,1.49,5.89,1.68,8.59.03l6.76-3.89.21,6.9c.84,3.05-.04,7.86-3.72,7.75l-7.43.2Z"/>
    <path class="cls-3" d="M362.97,415.69c-4.83,4.43-9.8,2.63-16.34.91l-1.26-12.55c3.58,5.36,13.16,5.89,15.25,4.02,1.3-1.16,1.74-2.95,2.21-4.84.74,4.18.67,8.23.15,12.46Z"/>
    <path class="cls-4" d="M145.87,121.88c.23.98,1.1,1.57,1.73,2.35-.76.05-1.32,1.92-1.67,2.84-.48-.54-1.71-.72-2.48-1.07-2.78-1.26-5.82-1.64-9.22-1.87l.4-3c1.42-1.5,1.5-4,1.84-6.34,1.39-9.38,5.68-8.7,8.85-11.52.13.56-.12,1.14-1.1,1.18.08,5.98.32,11.79,1.63,17.43Z"/>
    <path class="cls-11" d="M348.4,430.8c-1.1-4.66-1.31-9.56-1.78-14.21,6.55,1.72,11.51,3.52,16.34-.91-1,8.19-5.87,14.75-14.57,15.11Z"/>
    <path class="cls-9" d="M254.73,91.37l7.32,8.1c1.17,1.28,1.02,4.65.68,6.1l-2.44,2.11c-.87.75-.73,1.92.43,2.91l-4.16-3.26-2.39-2.46-4.79-4.77c-.37-.37-.15-1.31-.24-1.42l1.7-5.68c.61-2.04,2.49-1.75,3.89-1.62Z"/>
    <path class="cls-3" d="M56.27,367.85l-2.15,18.2c-3.18,2.67-5.94-1.65-8.24-2.08.14-3.18-.72-6.87.67-9.73,1.73-3.55,6.14-5.72,9.72-6.39Z"/>
    <path class="cls-9" d="M228.63,87.22l.05,4.46c-1.32.11-2.24.76-2.97,1.03-3.15,1.15-5.89,3.08-8.53,5.18-1.23.81-2.47.99-2.96-.48l-1.04-3.18-2.14-3.65c.66.08,1.73.78,1.95.35l.97-1.82c2.33-2.75,5.72-4.79,9.48-5.16,1.24.29,2.4,1.7,3.51,2.56-1.13,1.53,1.02,2.47,1.67.71Z"/>
    <path class="cls-1" d="M53.53,400.24c-.51,10.67-1.32,21.46-1.22,32.39-5.24.57-9.73-.79-13.85-3.64l7.43-.2c3.68.1,4.56-4.71,3.72-7.75l-.21-6.9c-.2-6.36-.93-12.87,4.13-13.9Z"/>
    <path class="cls-3" d="M113.89,125.49c-1.47-3.52-1.79-7.43-2.49-10.76l16.84,1.98c1.79.21,4.08-.36,4.5,2.58-4.64.33-8.7,1.35-12.82,3.32l-6.03,2.88Z"/>
    <path class="cls-13" d="M249.59,117.99c.28,1.15.82,2.38.57,3.92l-7.34,2.46c-1.29-3.61-3.04-6.53-5.65-8.75,3.45,1.47,7.36.96,11.24.03.21.98.63,1.87,1.19,2.35Z"/>
    <path class="cls-9" d="M162,117.22c-1.19,1.76-2.51,4.48-3.33,7.28-2.56-.11-4.76-2.27-5.59-4.36.19-.41.28-.8.1-1.03-.38-.47-1.35-.56-2.09.33l.7-3.96,9.25.68,1.45-.52c.73-.26.17.3-.49,1.57Z"/>
    <path class="cls-11" d="M225.71,92.71c.68.08.96.76.29,1l-3.33,4.86c-1.41,2.05-2.17,3.6-4.07,4.76-1.4.86-2.34,2.2-4.16,1.61-.75-2.5.62-5.35,2.74-7.04,2.64-2.1,5.38-4.04,8.53-5.18Z"/>
    <path class="cls-3" d="M281.44,112.34l-1.19,13.02c-2.14.6-3.52-1.31-4.79-1.85l1.98-6.38c.35-1.12-.12-2.14-.95-2.51,1.05-1.6,3.18-2.02,4.95-2.28Z"/>
    <path class="cls-11" d="M254.18,104.86l-2.19,8.16c-.81-.48-1.92-2.07-2.11-2.99-.69-3.73-1.73-8.05-.74-11.36.1.11-.13,1.05.24,1.42l4.79,4.77Z"/>
    <path class="cls-3" d="M151.79,115.49l-.7,3.96c.74-.89,1.71-.81,2.09-.33.18.23.1.62-.1,1.03-1.01,2.37-2.82,3.9-5.48,4.09-.63-.78-1.51-1.37-1.73-2.35,1.6-.91,2.82-2.23,3.81-3.56-2.17-.82-1-2.17-.43-2.42,1.07-.48,1.71-.47,2.54-.41Z"/>
    <path class="cls-11" d="M256.57,107.32c-.51-.06-.99-.33-1.31-.16-.35.19-.69,1.09-.77,1.62l-1.44,9.7c-.13.9-.82,1.87-1.37,2.03-.48.36-1.07.05-1-.54l.14-1.22c.68.25,1.38.1,1.6-.66.58-2.03-.52-3.91-.42-5.08l2.19-8.16,2.39,2.46Z"/>
    <path class="cls-11" d="M293.75,506.67c-.4,2.15.5,4.14.66,6.75l6.05,96.39,2.06,35.49.05,6.71,1.14,14.38c-7.26,2.03-14.56,3.04-22.66,3.08,1.13-7.75.93-14.59.18-21.94-10.64,2.62-20.06,3.41-30.55,4.32,1.39,4.66,2.16,8.69,1.76,13.06l-6.37,4.64,2.18,9.11c4.55,6.77,3.62,13.57,7.04,16.31,1.44,1.15,3.44.46,5.28.17l15.24-2.42c4.25-.68,7.92-2.86,12.22-3.52l10.74-4.15c1.49-.58,2.62-2.49,4.73-1.38-18.42,9.68-39.22,14.22-60.72,16.81l-1.02-20.99-1.84-54.89,39.36.81-1.77-68.64,3.74-1.18,1.76-46.4c2.19.09,4.13-1.48,6.64-1.54l2.69-.07c.52-.01.84-1.42.68-1.94.53.11.83.54.74,1.02Z"/>
    <path class="cls-11" d="M213,516.63c-.12.29-.18.68-.17.97.16,4.17-.06,8.66,1.5,12.93.9,2.46,7.43-2.05,13.28.37.69.29,1.96.11,2.31.53.23.28.03,1.49.08,1.69.3,7.62-2.17,25.5-3.5,26.97-.42.47-.71,1.18-1.77,2.04-6.38-6.66-16.69-6.03-24.22-.64-1.13.81-3.85,1.1-3.98,2.98-.13,1.97-.03,4.76,1.22,5.99-3.46.55-6.98.83-10.79-.92l-11.89,6.84-9.62,7.6c-.98-17.47-2.65-34.55-1.4-52.06.46-6.39,3.49-12.21,2.12-18.41.38.06.75.08,1.06-.03,15.13,2.05,30.45,3.11,45.77,3.13ZM200.69,522.96l-15.17-.52-17.11.05c3.94,2.28,8.12,1.74,12.03,2.42,8.56,1.49,21.2,2.85,20.26-1.95Z"/>
    <path class="cls-11" d="M282.77,508.23c.07.2.25.6.23.96l-1.76,46.4-3.74,1.18c-11.85.67-23.4,2.72-35.73,5.02l-1.26-3.47c-3.33-9.15-6.22-18.45-6.87-28.18l-.7-10.45c6.35.36,11.94-.09,17.78-1.67,5.85-1.58,12.03-2.76,17.22-5.3.26-.13,1.01-.08,1.48-.11,3.62-1.85,6.99-3.29,10.63-3.68.94-.1,1-.54,1-1.06,0-.41,1.74.02,1.71.37Z"/>
    <path class="cls-4" d="M57.01,636.91l1.91.6c-1.94-13.66-2.33-26.88-3.16-40.52l-3.1-50.6c-.41-6.65-2.03-13.24-.42-19.69.57-2.27,3.11-4.15,1.93-7.01l4.31,13.89c3.58,11.54,4.55,23.26,5.43,35.18l2.81,38.15,1.8,33.65c-1.63,1.28-4.18,1.2-5.65.23l-5.87-3.88Z"/>
    <path class="cls-11" d="M202.1,599.11l-1.49-13.27c-.07-.6-.88-.73-1.49-.48-.24-3.46-1.41-6.99.07-10.8-.44-.86.36-1.54.66-1.2.21.24.4.47,1.05.24,6.38,6.34,17.2,5.58,23.24-1.23,3.71,8.75,5.31,21.41-3.28,24.63-6.51,2.44-15.48-.51-18.76,2.12Z"/>
    <path class="cls-4" d="M224.73,562.15c2.65,2.77,1.84,7.46-.6,10.22-6.03,6.81-16.85,7.56-23.24,1.23l-3.14-3.11c-1.24-1.23-1.34-4.02-1.22-5.99s2.85-2.18,3.98-2.98c7.52-5.38,17.84-6.02,24.22.64ZM220.44,570.96c1.44-1.19,1.8-2.44,1.4-4.39.81.5,1.08.57,1.4.42.24-.11.25-1.29.03-1.45-.19-.14-.27-.37-1.11.27-1.62-5.95-8.14-7.9-13.91-5.54-2.47,1.01-4.89,1.56-5.52,3.97-.54,2.06-.57,4.8,1.25,6.62,4.37,4.36,11.81,3.96,16.46.11Z"/>
    <path class="cls-2" d="M240.51,558.32c-.49.05-.87.24-1.1.93-4.64.08-8.74,1.08-12.91.86,1.33-1.47,3.8-19.35,3.5-26.97l1.3-2.38c1.2.88,1.95.19,2.35-.61.65,9.73,3.54,19.03,6.87,28.18Z"/>
    <path class="cls-11" d="M135.36,647.74c-2.27-1,1.92-8.18,4.13-8.46,4.05-.51,8.19.6,10.58,3.73-4.18,2.94-9.09,3.9-14.71,4.73Z"/>
    <path class="cls-4" d="M141.82,531.17c-.65,11.21,4.02,32.12,1.18,32.83-3.19.79-2.97-21.53-2.61-32.24-.7-1.27.8-1.91,1.42-.59Z"/>
    <path class="cls-11" d="M202.1,599.11c.57,5.07.55,10.47-.96,15.53l-2.02-29.27c.61-.24,1.42-.12,1.49.48l1.49,13.27Z"/>
    <path class="cls-11" d="M270.83,389.04l-5.23,19.66c-3.65,13.73-8.48,26.75-14.51,39.45-4.99,3.48-7.61,9.53-12.27,13.37l-6.64,5.07c.04-1.19,1.46-1.81,2.23-2.68.59-.66-.07-1.68-.49-1.9-.82-.44-1.71-.22-2.75.03l-13.62,3.37c-12,2.97-23.09.06-34.25-4.22-1.98-.76-3.16-2.39-5.03-3.66-1.02-.7-3.15-1.85-3.64-3.43l-4.09-13.09c-1.54-4.94-3.73-9.55-4.07-15.28,31.86,7.23,60.94,6.61,87.87-9.71,2.83-1.72,5.72-2.89,9.01-3.95l5.91-23.03h1.55Z"/>
    <path class="cls-11" d="M57.03,454.33c6.49,6.84,15.02,12.08,24.37,14.43,8.08,2.03,15.78,3.75,23.95,2.39l-.43-14.34c-.48-15.94-1.63-31.36-1.21-47.27.37-14.07,1.09-27.66,4.38-40.7-.11,1.68.18,3.36.77,5.03,1.26,3.57.9,8.05,1.09,12.32l.81,17.42,3.6,62.89c.19,3.38-1.02,7.72-4.75,9.08-15.13,5.54-31.97,1.3-44.68-8.61-4.28-3.34-6.66-7.71-7.91-12.64Z"/>
    <path class="cls-11" d="M153.03,444.19c2.06,1.21,3.5,4.6,6.39,4.55,6.1,11.32,14.06,19.23,25.85,24.02-.71.2-.57.95-.47,1.16-25.19-.48-40.25-4.48-54.17-26.08-2.9-6.95-5.63-13.97-7.74-21.17.02-.33-.21-.77-.45-1.18,3.27-6.56,4.85,8.07,13.32,15.14,5.81.91,12.26.59,17.27,3.54Z"/>
    <path class="cls-3" d="M279.26,321.44l-14.37-2.1-5.02-34.51c1.83-2.73,2.39-6.16,2.44-9.51,3.61.89,6.39,4.18,7.73,8.13,2.86,7.79,6.64,14.95,9.95,22.15,0,5.9-.27,10.84-.73,15.84Z"/>
    <path class="cls-11" d="M232.19,466.59c-.18,0-.41.08-.73-.22l-11.34,8.47c-10.37.75-21.02,1.79-31.67.05l-3.64-.96c-.1-.21-.24-.96.47-1.16-1.03-.99-3.45-1.6-3.56-3.34l-.52-8.21-2.9-3.69c1.87,1.27,3.04,2.91,5.03,3.66,11.16,4.27,22.25,7.19,34.25,4.22l13.62-3.37c1.04-.26,1.92-.47,2.75-.03.42.22,1.08,1.24.49,1.9-.78.87-2.19,1.48-2.23,2.68Z"/>
    <path class="cls-11" d="M251.44,350.73c-3.23,2.92-10.08,8.6-13,10.01-7.91,3.81-17.63,4.53-26.65,2.11,10.99-6.35,20.22-13.2,26.8-22.57,1.19,6.56,6.96,11.91,12.85,10.45Z"/>
    <path class="cls-1" d="M159.42,448.74c-2.89.05-4.34-3.34-6.39-4.55.65-2.47-1.12-3.9-2.31-5.89-8.21-13.82-14.26-28.13-18.56-43.55-2.08-7.45-4.9-14.18-4.83-22.1l13.49,36.81c5.13,14.01,11.8,26.66,18.6,39.29Z"/>
    <path class="cls-11" d="M264.76,204.4l-5.75,6.3c-1.14,1.38-1.59,2.89-1.37,4.21-7.33,4.92-15.56,8.3-24.42,9.56.08.87.71,1.15.79,1.64l-9.13-6.83c8.11-1.01,15.5-3.13,22.82-6.54l11.02-5.14c1.92-.89,3.48-3.73,5.95-4.1-.02.24-.03.58.08.91Z"/>
    <path class="cls-11" d="M262.89,239.11c-1.27-.96-2.77-1.32-4.85-.9-.13-8.2.9-15.76-.4-23.3-.23-1.32.23-2.83,1.37-4.21l5.75-6.3c-2.94,10.47-1.69,23.58-1.87,34.71Z"/>
    <path class="cls-11" d="M275.25,366.5l-1.56.82,3.28-20.86c1.02.47.57,1.7.75,2.18.91-.4.6-1.37.46-1.87-.11-.41.11-1,.96-.87l-3.9,20.6Z"/>
    <polygon class="cls-11" points="270.83 389.04 269.28 389.04 273.69 367.32 275.25 366.5 270.83 389.04"/>
    <path class="cls-11" d="M199.9,341.55c-24.47-.88-51.44-24.64-47.34-49.14,1.01-1.54,3.58-2.77,3.62-4.9-1.38-1.99-4.87-3.63-5.48-6.57-.95-4.57-1.41-11.27.4-15.69,9.26-12.08,20.91-15.6,32-22.25,1.86-1.12,3.43-2.44,5.64-3.19,4.65-1.58,8.35-4.48,12.44-6.93l15.19-9.1c7.49,1.24,13.73,4.7,20.24,8.5,2.13,1.24,4.81,2.17,5.4,4.71-7.5,8.27,7.16,14.1,5.61,37.47l-.85,12.9c-.46.67-2.19,1.38-2.43,2.47,5.13,13.89,4.38,21.73-5.78,33.03-9.79,10.88-23.13,19.26-38.66,18.7Z"/>
    <path class="cls-3" d="M325.78,421.19l4.47,35.39c.48,3.76.89,7.33,3.24,10.61.86.07,1.62-.7,2.45-.62-.75.65-1.31,1.29-1.16,1.61l-10.24,2.11-16.76.22c.93-40.47,1.69-85.99-6.64-124.92l-.98-8.14.04-5.97c8.88,6.27,19.06,42.25,21.02,56.52l4.56,33.2Z"/>
    <path class="cls-11" d="M136.32,473.03c-.4-.81-1.33-1.35-3.01-1.84,2.25-5.9,1.08-12.27-1.97-18.32l-.7-5.02c13.92,21.6,28.98,25.6,54.17,26.08l3.64.96c10.65,1.74,21.31.7,31.67-.05,9.69-.71,19.31-1.8,28.89-4.45,14.77-4.09,29.79-17.18,31.38-32.37l1.97-3.77c.36-2.6,1.87-5.88,1.16-8.41-.52-1.84,1.26-2.51,1.46-3.47l8.33-39.19,1.12-9.35c.37.08,1.02.72,1.31.46.86-.8-.49-3.5,1.37-3.71l-1.72,21.91-4.05,32.28-7.12,39.29c-.8,4.41-3.26,6.38-7.67,6.67-2.02.14-4.05.95-5.74-1.47-4.98,3.92-11.18,5.14-17.3,6.45-31.52,6.74-87.51,6.62-117.2-2.67Z"/>
    <path class="cls-11" d="M324.54,470.29c.28,1.49-1.76,3.28.51,4.91-10.56,1.89-23.21,6.44-29.9-2.31l4.29-79.75.71-43.64c.03-1.54-.51-2.95.99-3.91,8.33,38.94,7.57,84.45,6.64,124.92l16.76-.22Z"/>
    <path class="cls-4" d="M283.13,505.31c-1.37.57-2.67.66-3.88.89l-11.63,2.15-29.83,3.5c-3.4.4-4.52,4.62-5.29,7.11.42-.88-.48-1.39-.94-1.16-.42.21-1.39-.78-.74,1.01-.21-3.24-.12-4.4.32-5.74,1.62.8,2.91.01,3.04-.72l.44-2.48c.36-2.01-.2-6.89,2.35-7.78,5.42-1.9,11.37-1.65,17.07-2.66l29.32-5.15c1.61,3.61,1.11,8.28-.23,11.02Z"/>
    <path class="cls-11" d="M213,516.63c-15.32-.01-30.65-1.07-45.77-3.13l.93-9.52,32.35.8c4.31.11,8.22.54,12.83,2.14.57,3.12.82,6.84-.33,9.7Z"/>
    <path class="cls-11" d="M267.95,512.71c-5.19,2.54-11.37,3.72-17.22,5.3-5.84,1.58-11.43,2.03-17.78,1.67l.7,10.45c-.4.8-1.14,1.49-2.35.61l-1.3,2.38c-.04-.2.16-1.41-.08-1.69-.35-.41-1.62-.24-2.31-.53-5.84-2.43-12.38,2.09-13.28-.37-1.56-4.27-1.35-8.76-1.5-12.93,5.95-.37,12.13-1,17.71,2.38.46.28,1.93.68,1.93.31l.03-1.34c.78-2.49,1.89-6.71,5.29-7.11l29.83-3.5.33,4.37Z"/>
    <path class="cls-11" d="M130.64,447.85l.7,5.02c3.05,6.04,4.22,12.42,1.97,18.32,1.68.49,2.62,1.03,3.01,1.84l-3.12-.98c-5.41-1.7-8.66-4.27-9.85-9.57-2.46-10.99-5.24-21.65-4.84-33.21.04-1.12,3.08-1.11,4.25-.77l.14-1.83c2.11,7.2,4.83,14.22,7.74,21.17Z"/>
    <path class="cls-13" d="M318.11,494.93c.55-1.01,1.12-2.91-.52-3.61-.69-.24.16-1.28.14-1.93,4.66-1.43,8.96-3.36,13.04-5.86,4.21-2.58,8.63-5.28,11.57-9.29.85.25,3.21,1.75,4.04-.28,1.58,2.72-.03,5.13-2.55,7.3-7.61,6.52-16.79,10.02-25.71,13.66Z"/>
    <path class="cls-11" d="M300.2,331.47l-.04,5.97c-.23-.22-.75-.08-.77.15l-.35,14.87-1.92,18.11c-1.86.2-.51,2.9-1.37,3.71-.28.26-.93-.38-1.31-.46l.18-4.13.94-22.49c.06-1.35.11-2.64.19-4.11l.76-13.69c1.92-.3,2.73,1.38,3.69,2.06Z"/>
    <path class="cls-3" d="M317.72,489.4c.02.65-.83,1.69-.14,1.93,1.64.7,1.07,2.6.52,3.61l-14.02,5.72c-.88.36-1.63-.14-2.48.64.29-2.38-.82-4.98.37-7.34.49-.23,1.07-.72,1.58-1.62,4.93-.46,9.63-1.54,14.17-2.93Z"/>
    <path class="cls-11" d="M301.61,501.29c-2.08,1.9-5.28,2.12-8.12,2.49-.94-1.21-1.32-5.12.32-6.33,2.52-1.86,5.66-2.34,8.16-3.49-1.19,2.36-.08,4.96-.37,7.34Z"/>
    <path class="cls-11" d="M343.77,472.3l-1.44,1.96c-2.94,4.01-7.36,6.71-11.57,9.29l.8-2.63c-6.26.94-8.77,4.88-9.76,2.65,4.31-.83,7.07-3.69,10.56-5.6,3.95-2.17,8.03-3.41,10.8-7.45.71.44.59,1.08.62,1.79Z"/>
    <path class="cls-3" d="M350.78,451.43c-.31.42-.57.76-.51,1.34l-2.39,6.59-2.71,3.11c-1.42,1.09-3.18,2.48-3.81,4.3-1.72,1.67-4.42.97-6.59,1.42-.15-.32.41-.97,1.16-1.61l8.4-7.22c5.85-8.02,5.22-11.95,6.44-7.92Z"/>
    <path class="cls-3" d="M283.13,505.31c-.14.77.56,2.07-.36,2.92.03-.35-1.71-.78-1.71-.37,0,.52-.06.96-1,1.06.17-1.2-.96-1.47-1.59-1.6-.37-.08.8-1.05.78-1.13,1.21-.22,2.51-.32,3.88-.89Z"/>
    <path class="cls-3" d="M341.36,466.77c.63-1.82,2.39-3.21,3.81-4.3-1.13,1.29-2.49,3.02-3.81,4.3Z"/>
    <path class="cls-9" d="M215.34,137.29l-3.17,4.88c3.7,3.18,2.36,6.33,1.71,9.58-1.09.05-2.13-.37-3.11-1.01-7.22-4.8-16.42-4.66-23.31-.41-.65.4-1.81.27-2.71,1.62-.68-3.86,0-6.94,2.73-9.89-.89-.4-1.5-1.05-1.05-1.92.31.17.71.47,1.16,1.17,2.7-3.16,6-6.86,10.81-7.01,5.33-.16,9.93,2.93,13.39,6.37,1.22-1.66,2.49-2.67,3.54-3.39Z"/>
    <path class="cls-3" d="M145.94,127.07c4.27,4.15,5.04,4.81,5.21,10.97-3.65,3.03-5.39,7.2-6.26,12.11l-1.82,10.27c-.26,1.45-2.26,2.82-3.61,3.79l-4.27-25.06c-.11-.67.06-.89-.45-1.57-.19-.26.14-.96.89-.8l7.57-7.79c.34-.35.8-1.32.96-1.73.14-.36-.72-.94-.69-1.25.77.35,2,.52,2.48,1.07Z"/>
    <path class="cls-3" d="M223.61,155.01c-3.81,1.25-7.78,2.99-8.82,7.54-.44-3.97-1.56-7.58-.91-10.8s2-6.4-1.71-9.58l3.17-4.88c2.77-1.91,5.82-.83,8.42,1.21,4.53,3.57,7.33,9.03,3.79,14.35-.92.72-2.91,1.82-3.93,2.16Z"/>
    <path class="cls-3" d="M186.44,140.14c-.45.87.16,1.51,1.05,1.92-2.73,2.96-3.4,6.03-2.73,9.89.9-1.35,2.05-1.22,2.71-1.62.04.47-1.64,1.27-1.7,1.82l-1.1,10.19c-2.02.19-2.22-1.36-3.04-2.53-1.75-2.49-4.42-3.5-6.91-4.95-1.94-1.13-4.8-4.11-4.49-7.12.46-4.42,4.53-9.17,8.69-10.52,3.18-1.03,5.77,1.5,7.51,2.93Z"/>
    <path class="cls-9" d="M240.51,158.35c-2.23,5.16,1.63,13.56,5.75,13.08l-4.41,2.81-20.94-9.14c.24-1.92,1.92-4.5,3.46-5.88l16.15-.86Z"/>
    <path class="cls-8" d="M174.98,159.98c.52,1.16,2.07,1.84,2.46,3.39-6.34,3.5-12.92,6.24-19.32,10.49-1.03.68-1.85-.68-1.91-1.04,1.95-4.44,3.06-11.07.77-12.19.42-.53-.11-1.9,1.11-2.05l13.67-.43c1.7-.05,2.72.75,3.21,1.84Z"/>
    <path class="cls-7" d="M254.74,161.05l2.98,3.79c-3.09,3.76-7.85,4.29-11.47,6.59-4.12.48-7.97-7.92-5.75-13.08.32-.02.72.23.88.7,4.67-.25,9.3.24,13.35,1.99Z"/>
    <path class="cls-3" d="M260.5,138.78l-2.6,21.47c-.43-7.6-3.38-13.66-7.85-19.33,0-2.3-.91-4.82-1.65-7.02l12.1,4.88Z"/>
    <path class="cls-3" d="M156.22,172.81c-3.14-1.01-7.56-1.96-10.4-4.62,4.39-1.67,8.71-4.71,11.18-7.58,2.29,1.12,1.17,7.76-.77,12.19Z"/>
    <path class="cls-4" d="M181.63,159.8c.03.8-.19,1.76-.95,2.15-.4.21-1.59.09-1.69,1.39-.44.84-1.27-.06-1.55.03-.39-1.55-1.94-2.23-2.46-3.39,1.3-.22.49-.8.19-1.37l-.95-1.81c1.08-.13,1.29-.45,1.27-.85-.02-.29-.3-.7-.76-1.11,2.49,1.45,5.16,2.46,6.91,4.95Z"/>
    <path class="cls-11" d="M292.32,326.02c.86,7.75.87,15.65.15,23.44l-1.7,18.27-3.08,24.33-8.21,1.63c-1.12,5.13-4.76,9.07-6.78,13.94l-8.3,20.04-6.52,13.5c-1.52,3.14-4.13,5.14-6.78,6.98,6.02-12.7,10.85-25.72,14.51-39.45l5.23-19.66,4.42-22.54,3.9-20.6,3.73-22.91c3.22,1.06,6.06,2.74,9.44,3.03Z"/>
    <path class="cls-9" d="M325.78,421.19l-4.56-33.2c-1.96-14.27-12.15-50.25-21.02-56.52-.96-.68-1.77-2.36-3.69-2.06.13-2.43-.01-4.95.9-7.89,3.55,1.01,5.21,3.61,7.37,6.41,22.23,28.82,24.31,57.86,23.56,94.46-1.03-.83-1.58-1.33-2.56-1.21Z"/>
    <path class="cls-4" d="M256.57,107.32l4.16,3.26c-.25.52-.37,1.19-.31,1.61l1.36,8.57-8.17,3.34c-1.26-.9-1.57-2.43-1.94-3.6.56-.15,1.24-1.13,1.37-2.03l1.44-9.7c.08-.53.42-1.43.77-1.62.32-.17.8.1,1.31.16Z"/>
    <path class="cls-3" d="M292.32,326.02c-3.38-.29-6.22-1.97-9.44-3.03l1.14-13.99,8.87,8.73c-.82,3.17-.84,5.81-.56,8.29Z"/>
    <path class="cls-3" d="M276.49,114.63c.83.36,1.3,1.39.95,2.51l-1.98,6.38c-4.16-1.77-9.43-4.49-13.69-2.75l-1.36-8.57c.59-.21.93.23.94.54l.07,2.01c5.35,1.14,10.42,1.75,15.07-.12Z"/>
    <path class="cls-11" d="M294.62,369.7l-3.41,1.14c.18-1.65.05-2.3-.45-3.11l1.7-18.27c.92.43,2.44.79,2.81-.3.16-.49-.02-1.51.29-1.95l-.94,22.49Z"/>
    <path class="cls-3" d="M217.18,97.89c-2.13,1.69-3.49,4.54-2.74,7.04l-.6,2.67c-8.79,6.44-21.28,6.39-29.17-.45l-1.18-6.23c-.33,1.14-.36,1.8-1.25,1.97l.42-3.01,4.5,1.16c2.63,4.27,6.74,6.52,11.64,6.58,5.3.06,9.37-2.26,11.92-7.06.27-.51.37-1.87,1.76-2.07.78-1.2.29-2.95.71-4.25l1.04,3.18c.48,1.48,1.73,1.29,2.96.48Z"/>
    <path class="cls-11" d="M317.09,620.58c-2.14,1.8-3.41,5.21-5.98,7.02s-4.79,3.05-4.51,6.78c.32,4.17-1.03,8.44-4.07,10.91l-2.06-35.49-6.05-96.39c-.16-2.61-1.07-4.6-.66-6.75l5.6-.83c6.7,5.9,13.65,11.34,18.26,18.97,7.52,12.44,14.22,35.8,11.98,50.66-2.63,17.49-14.23,43.18-13.46,44.68.16.31.39.52.96.43Z"/>
    <path class="cls-5" d="M344.54,564.12l-4.45,16.5-5.11,29.58c-.89,5.14-1.8,9.92-.63,15.46-2.54,2.78-2.32,6.39-2.41,9.71-.67,3.4-2.04,5.87-2.63,10.33l-1.61,12.09c-.32,2.39-.33,3.87,1.55,4.82-1.63,4.82-4.96,8.69-9.6,10.94-2.35.07-2.82-1.59-3.57-3.14-1.02-2.1-.52-3.59.58-5.7,4.82-9.27,7.07-19.2,9.59-29.33,3.26-13.11,2.82-22.44,4.71-29.77.3-1.14,1.45-2.59-.13-3.75l-2.41,7.49-6.88,7.86c-.63-.17-1.3.71-1.81,1.15-1.02.19-1.08-.55-.86-1.09l.59-1.47c5.46-7.87,10.42-15.65,13.05-24.91l9.49-33.36c.88-.11,2.02.16,2.28.77.37.88.21,2.25-.09,3.09l-.55,1.55c-.19.54.01,1.26.9,1.21Z"/>
    <path class="cls-11" d="M302.58,652.01l-.05-6.71c3.04-2.48,4.39-6.74,4.07-10.91-.28-3.73,1.84-4.9,4.51-6.78s3.84-5.22,5.98-7.02l2.64-2.23c.51-.43,1.18-1.32,1.81-1.15,2.42.67,2.28-2.32,3.59-1.9.96.31.77,1.13,0,1.49-4.97,11.06-10.56,21.58-16.97,31.94-1.21,1.96-3.8,4.1-5.58,3.27Z"/>
    <path class="cls-6" d="M347.46,556l-2.92,8.12c-.89.05-1.09-.67-.9-1.21l.55-1.55c.3-.84.46-2.21.09-3.09-.26-.61-1.4-.88-2.28-.77l.82-2.9c1.91-.14,3.48-.98,5.04-1.75-.24,1.05-.74,2.07-.41,3.14Z"/>
    <path class="cls-12" d="M347.87,552.87c-1.56.77-3.13,1.61-5.04,1.75l1.28-4.27c1.84.5,3.22.26,4.54-.86l-.78,3.38Z"/>
    <path class="cls-8" d="M349.3,478.37c-.78,1.64-2.58.54-1.04-.73.55-1.46,2.64-.46,1.04.73Z"/>
    <path class="cls-11" d="M303.72,666.39c.15,1.9.33,2.59-.69,4.92-1.08,2.48-1.19,11.49,1.58,11.96-.26.15-.86.54-1.11.4-2.11-1.11-3.24.8-4.73,1.38l-10.74,4.15c-4.3.66-7.97,2.85-12.22,3.52l-15.24,2.42c-1.85.29-3.84.98-5.28-.17-3.42-2.73-2.49-9.53-7.04-16.31l-2.18-9.11,6.37-4.64c.41-4.37-.37-8.41-1.76-13.06,10.49-.91,19.91-1.69,30.55-4.32.75,7.34.95,14.18-.18,21.94,8.1-.04,15.4-1.05,22.66-3.08Z"/>
    <path class="cls-3" d="M356.54,658.61l-12.2,5.18c-.99-.02-2.32.11-2.56-.74-.11-.41.52-1.28.58-2.06l4.07-55.68c1.39-18.95,4.2-36.87,7.45-54.84l8.8,2.07-4.73,76.12-1.43,29.95Z"/>
    <path class="cls-11" d="M319.65,673.55l-2.87,2.73-12.17,6.99c-2.77-.47-2.67-9.48-1.58-11.96,1.02-2.32.84-3.02.69-4.92l-1.14-14.38c1.78.83,4.37-1.31,5.58-3.27,6.41-10.36,12.01-20.89,16.97-31.94.77-.37.96-1.19,0-1.49-1.31-.42-1.17,2.57-3.59,1.9l6.88-7.86,2.41-7.49c1.58,1.16.42,2.6.13,3.75-1.89,7.32-1.45,16.65-4.71,29.77-2.52,10.13-4.77,20.06-9.59,29.33-1.1,2.11-1.6,3.6-.58,5.7.75,1.56,1.22,3.22,3.57,3.14Z"/>
    <path class="cls-11" d="M354.42,543.93c-.88,1.86-1.42,4.66-.53,6.54-3.25,17.98-6.07,35.89-7.45,54.84l-4.07,55.68c-.06.78-.7,1.65-.58,2.06.24.85,1.56.72,2.56.74-1.72.73-5.97.46-6.43-1.97l2.08-37.99,3.9-43.26,2.49-14c.63-3.51,2.34-6.85,1.95-10.28-.17-1.55,1.86-2.9,2.5-3.96.23-.38.87-6.05,1.15-10.19,1.94.09,1.62,1.25,2.44,1.78Z"/>
    <path class="cls-11" d="M329.25,662.61c-1.88-.95-1.87-2.43-1.55-4.82l1.61-12.09.63-.05c.01.87-.46,2.02.34,3.38.87-1.38.48-2.85.46-4.2.11-.02.67,0,.8.19-.05,6.1-.43,12.14-2.28,17.59Z"/>
    <path class="cls-4" d="M354.42,543.93c-.82-.52-.5-1.69-2.44-1.78-.28,4.14-.92,9.81-1.15,10.19-.64,1.06-2.67,2.41-2.5,3.96l-.87-.29c-.33-1.07.17-2.09.41-3.14l.78-3.38,4.43-10.23c.59.06,1.29-.19,1.82.03.08,1.62.15,3.34-.48,4.65Z"/>
    <path class="cls-3" d="M329.93,645.65c-.11-.52.28-.91.8-.82.02,1.35.41,2.82-.46,4.2-.8-1.36-.33-2.51-.34-3.38Z"/>
    <path class="cls-3" d="M365.2,637.59l1.29-30.71,3.79-58c.2-2.99.33-5.8,3.09-7.23l-6.59,106.49-2.13,2.57.55-13.12Z"/>
    <path class="cls-11" d="M211.04,90.58l2.14,3.65c-.42,1.31.08,3.06-.71,4.25-1.38.19-1.49,1.56-1.76,2.07.62-3.94-1.59-7.74-5.13-9.94-6.13-3.81-13.29-2.69-17.84,2.43.19-.49.46-1.06.83-1.33-1.92,1.43-2.16-2.5,5-6.26,6.3-1.66,13.06.11,17.46,5.12Z"/>
    <path class="cls-3" d="M193.57,85.46c-7.16,3.76-6.92,7.69-5,6.26-.37.27-.64.84-.83,1.33-.98,2.55-1.25,5.32-.6,7.99l-4.5-1.16c.7-4.24.63-8.17,4.71-10.72,2.14-1.34,3.78-3.05,6.21-3.69Z"/>
    <path class="cls-10" d="M350.01,535.48l2.84-13.33c.19.26.43.43.62.49l-2.24,12.9c-.56.35-.92.29-1.23-.06Z"/>
    <path class="cls-11" d="M200.69,522.96c.94,4.8-11.7,3.44-20.26,1.95-3.9-.68-8.08-.14-12.03-2.42l17.11-.05,15.17.52Z"/>
    <path class="cls-11" d="M280.06,508.92c-3.64.39-7.02,1.83-10.63,3.68-.47.03-1.22-.02-1.48.11l-.33-4.37,11.63-2.15c.02.08-1.15,1.05-.78,1.13.63.13,1.76.4,1.59,1.6Z"/>
    <path class="cls-11" d="M220.44,570.96c-4.65,3.85-12.09,4.25-16.46-.11-1.82-1.82-1.79-4.56-1.25-6.62.63-2.4,3.05-2.96,5.52-3.97,5.77-2.36,12.29-.41,13.91,5.54.84-.63.92-.41,1.11-.27.22.16.21,1.34-.03,1.45-.32.14-.6.07-1.4-.42.4,1.96.04,3.2-1.4,4.39Z"/>
    <path class="cls-11" d="M258.78,444.64l.05,1.35c-1.27-.69-2.78,1.05-3.22,1.94-1.06,1.02-2.82,2.17-4.16,3.11l-2.82,2.04-6.66,8.76,12.94-3.3c.7-.18,1.38-1.07,1.69-1.56,2.11-.16,4.24-1.65,5.73-3.18,1.14-1.17,2.75-2.35,3.12-4.22l1.55-.54c1.49-.52,2.76-1.31,4.19-1.79l-4.62,5.14c-11.38,12.67-20.97,7.56-36.09,17.21-1.05-1.66.71-2.23.98-3.21.32.3.55.22.73.22l6.64-5.07c4.66-3.85,7.27-9.9,12.27-13.37,2.65-1.84,5.27-3.84,6.78-6.98.39.6-1.09,1.3-.22,2.03.38.32,1.06.58,1.11,1.45Z"/>
    <path class="cls-11" d="M282.36,434.25l-1.97,3.77c-1.59,15.19-16.61,28.28-31.38,32.37-9.58,2.65-19.2,3.74-28.89,4.45l11.34-8.47c-.27.98-2.03,1.55-.98,3.21,15.12-9.64,24.71-4.53,36.09-17.21l4.62-5.14,4.28-6.25c1.72-2.51,3.93-4.58,4.55-7.4.35-.66,1.52-1.01,1.88-.62.26.28-.3,1.11.46,1.29Z"/>
    <path class="cls-11" d="M294.62,369.7l-.18,4.13-1.12,9.35-8.33,39.19c-.2.96-1.98,1.63-1.46,3.47.71,2.52-.8,5.81-1.16,8.41-.76-.17-.19-1-.46-1.29-.37-.4-1.53-.04-1.88.62l.31-1.43c.06-.29-.89-.25-1.29-.22.2-1.37.95-.75,1.33-.86.43-.12.53-1.4.49-1.61,1.52-1.19.38-2.85.17-4.09-.14-.83.6-2.41,1.04-3.06,1.71-1.36,1.87-4.72,2.25-6.51l4.55-21.52c-3.64-.21-7.88.62-8.69,3.86-1.13,4.54-4.43,7.54-6.04,11.4l-3.22,7.73c-.68,1.64-1.65,3.15-1.61,5.02-.51-.14-1.06.05-.98.64.13,1.01-.53,2.27-.86,3.1l-1.11,2.75c.03-.45-.25-.97-.57-.98l-1.37-.13,8.3-20.04c2.02-4.87,5.66-8.8,6.78-13.94l8.21-1.63,3.08-24.33c.5.81.62,1.46.45,3.11l3.41-1.14Z"/>
    <path class="cls-11" d="M266.35,428.78c-.14.13-.23.39-.14.64-.76,1.02-1.17,2.05-1.71,3.21l-1.87,3.96c-.43.91-1.55,2.05-1.32,3.45.2,1.25-.24,2.25-.65,3.2-.64.6-.93,1.4-1.89,1.4-.05-.87-.73-1.13-1.11-1.45-.88-.73.61-1.43.22-2.03l6.52-13.5,1.37.13c.32.02.61.53.57.98Z"/>
    <path class="cls-1" d="M210.71,100.55c-2.55,4.8-6.62,7.13-11.92,7.06-4.9-.06-9.01-2.31-11.64-6.58-.65-2.67-.39-5.43.6-7.99,4.54-5.13,11.71-6.24,17.84-2.43,3.54,2.2,5.75,6,5.13,9.94Z"/>
    <path class="cls-11" d="M254.9,458.53l-12.94,3.3,6.66-8.76,2.82-2.04c1.34,2.67,3.78,4.6,3.45,7.49Z"/>
    <path class="cls-11" d="M262.33,453.79c-1.49,1.53-3.62,3.02-5.73,3.18-.98-2.48-2.78-4.6-5.14-5.94,1.34-.94,3.1-2.1,4.16-3.11l6.72,5.87Z"/>
    <path class="cls-11" d="M280.02,433.58c-.61,2.82-2.83,4.9-4.55,7.4l-4.28,6.25c-1.44.48-2.7,1.27-4.19,1.79-.45-.73.65-1.12,1.7-2.53l2.43-3.26c1.07-1.44,1.22-2.6.84-4.16,1.58.31,3.31-.9,4.04-2.16l2.58-4.44c.05-.17.14-.55.44-.54.4-.03,1.36-.06,1.29.22l-.31,1.43Z"/>
    <path class="cls-11" d="M265.45,449.57c-.37,1.88-1.98,3.05-3.12,4.22l-6.72-5.87c.44-.89,1.95-2.63,3.22-1.94l6.62,3.58Z"/>
    <path class="cls-11" d="M268.7,446.49c-1.06,1.41-2.15,1.8-1.7,2.53l-1.55.54-6.62-3.58-.05-1.35c.96,0,1.25-.8,1.89-1.4,2.76.45,5.45,1.9,8.03,3.25Z"/>
    <path class="cls-11" d="M256.59,456.98c-.31.48-.99,1.38-1.69,1.56.33-2.89-2.11-4.83-3.45-7.49,2.36,1.34,4.16,3.46,5.14,5.94Z"/>
    <path class="cls-11" d="M284.31,415.8c-3.49-2.36-7.2-3.57-10.18-6.26,1.61-3.86,4.91-6.86,6.04-11.4.81-3.23,5.05-4.06,8.69-3.86l-4.55,21.52Z"/>
    <path class="cls-11" d="M284.31,415.8c-.38,1.8-.54,5.16-2.25,6.51l-2.84-1.68-8.31-3.36,3.22-7.73c2.98,2.69,6.69,3.9,10.18,6.26Z"/>
    <path class="cls-11" d="M282.06,422.32c-.45.65-1.18,2.23-1.04,3.06l-11.72-3.08c-.04-1.87.93-3.38,1.61-5.02l8.31,3.36,2.84,1.68Z"/>
    <path class="cls-11" d="M281.02,425.37c.21,1.24,1.35,2.9-.17,4.09l-9.91-2.46c-.02-.85-1.14-4.45-2.62-4.06-.08-.59.47-.78.98-.64l11.72,3.08Z"/>
    <path class="cls-11" d="M280.85,429.47c.04.2-.06,1.49-.49,1.61-.38.11-1.13-.51-1.33.86-.3-.01-.39.38-.44.54l-7.57-1.47-.08-4,9.91,2.46Z"/>
    <path class="cls-11" d="M270.94,427l.08,4c-1.64-.51-3.3-.73-4.81-1.58-.1-.26,0-.51.14-.64l1.11-2.75c1.43-.35,2.48.7,3.48.97Z"/>
    <path class="cls-11" d="M270.94,427c-1-.27-2.05-1.31-3.48-.97.34-.83.99-2.09.86-3.1,1.48-.38,2.6,3.21,2.62,4.06Z"/>
    <path class="cls-11" d="M271.97,439.07c.38,1.56.24,2.72-.84,4.16-4.18-1.15-7.04-3.89-9.82-3.19-.23-1.4.89-2.54,1.32-3.45l9.34,2.48Z"/>
    <path class="cls-11" d="M271.13,443.23l-2.43,3.26c-2.58-1.35-5.28-2.8-8.03-3.25.4-.95.85-1.96.65-3.2,2.78-.69,5.64,2.05,9.82,3.19Z"/>
    <path class="cls-11" d="M271.01,434.51c-.01.15-.07.35-.04.48l1,4.08-9.34-2.48,1.87-3.96c1.98,1.17,4.35,1.33,6.51,1.87Z"/>
    <path class="cls-11" d="M271.02,431c.02,1.13.1,2.39-.01,3.5-2.16-.54-4.53-.71-6.51-1.87.54-1.16.96-2.19,1.71-3.21,1.51.84,3.17,1.07,4.81,1.58Z"/>
    <path class="cls-11" d="M278.59,432.47l-2.58,4.44c-1.09-1.33-3.47-1.62-5.03-1.92-.03-.13.03-.34.04-.48.11-1.11.03-2.38.01-3.5l7.57,1.47Z"/>
    <path class="cls-11" d="M276,436.92c-.73,1.26-2.46,2.47-4.04,2.16l-1-4.08c1.57.3,3.95.59,5.03,1.92Z"/>
  </g>
</svg>