<?xml version="1.0" encoding="UTF-8"?>
<svg id="Réteg_1" data-name="Réteg 1" xmlns="http://www.w3.org/2000/svg" viewBox="0 0 409.19 709.78">
  <defs>
    <style>
      .cls-1 {
        fill: #f1b3b2;
      }

      .cls-2 {
        fill: #3b63a3;
      }

      .cls-3 {
        fill: #1f3759;
      }

      .cls-4 {
        fill: #f5aeb7;
      }

      .cls-5 {
        fill: #fcdab3;
      }

      .cls-6 {
        fill: #fcd9b1;
      }

      .cls-7 {
        fill: #3c6091;
      }

      .cls-8 {
        fill: #1f3351;
      }

      .cls-9 {
        fill: #f4aeb4;
      }

      .cls-10 {
        fill: #f5debf;
      }

      .cls-11 {
        fill: #f7f3e4;
      }

      .cls-12 {
        fill: #3a64a4;
      }

      .cls-13 {
        fill: #203759;
      }

      .cls-14 {
        fill: #f5aeb8;
      }

      .cls-15 {
        fill: #203351;
      }
    </style>
  </defs>
  <g id="Generatív_objektum_0_30_" data-name="Generatív objektum (0, 30)">
    <path class="cls-12" d="M256.11,540.5c-4.43.07-104.53,2.92-109,1.81-.32-.08-1.2.26-1.46.34-.37.11-.43.74-.26,1.04-5.14-1.18-8.57-5.67-13.11-6.83-3.14-.81-6.47-1-9.84-1.13l-8.2,34.23c-2.96,33.34-.98,67.75-2.54,100.99.48.07.69.29.46.45,10.04,3.55,6.99,18.28,9.18,18.6l59.68,9.66c-.87-.96,62.53-8.16,63.09-9.28l10.48-130.12,1.51-19.76Z"/>
    <path class="cls-11" d="M123.23,285.56l2.02.97c.77.26,4.83-1.45,5.13-3.12,1.04.16,26.94-3.47,26.94-3.47l21.22,1.39,34.11,2.08c14.91-.63,29.64,5.88,42.57,12.32l20.59,12.63c4,3.6,10.36,5.15,13.01,28.17.05.4.1,19.1.38,27.16l.25,19.07c.31,9.6.36,21.78,0,31.71l-.88,29.18-14.81,15.5,6.56-1.43c.2,1.08.3,1.67.5,2.02.32.59,1.13-.18,1.57-.05.99-.54,2.41-1.69,3.19-2.65l6.17-7.35c-.38-1.1.59-1.85,1.12-2.74.71-1.2.7-2.85.99-3.91l.64-2.36,1.11-29.56.29-33.67-.7-32.94c-.51-24.16-2.06-53.69-24.89-65.51-9.61-4.97-19.78-7.09-30.79-7.94-26.19-2.03-51.93-1.14-77.82,2.03-13.25,1.62-28.74,4.72-38.45,12.49Z"/>
    <path class="cls-11" d="M306.61,527.91c6.46.26,11.82-11.61,16.72-18.36-.99,5.56-4.15,9.7-7.36,13.98l-4.49,5.99c-13.02,3.57-26.02,5.62-39.42,6.95l-28.01,2.77-46.27,4.26c-.24.27-.25,1.05-.21,1.26,7.53.98,15.25-.26,23.27-.97l29.06-2.56,13.43-1.55c5.12-.59,10.34-2.08,15.62-1.03l17.74,3.54-17.29,57.08-5.3,17.12c-2.71,8.73-5.5,17.15-7.84,25.85l-2.85,8.23,1.33-.61,11.62-27.74,5.94-14.14,17.97-44.61c3.01-7.47,4.9-14.78,8.47-21.96-.6-.62.29-.84.92-.31-.71-1.12.13-4.04,1.65-4.12,2.13-.11,3.23,2.78,4.88,4.49l-25.81,107.65c6.29,6.12,11.14,12.08,17.35,17.02.84.67.73,1.88.3,2.44,2.27-.52,3.94-1.98,5.79-3.82l8.6-8.52.69.52-10.39,11.6-.85,13.2,1.24-.09c5.19-3.73,8.52-8.9,11.42-14.49,3.62-6.96,5.15-13.66,5.25-21.7l.69-57.62,1.01-99.1c.08-7.79-.35-14.64-2.17-22.11-3.23-13.3-7.83-23.8-14.71-35.24l.88,22.41c-3.53,4.78-7.53,8.49-11.39,12.91-3.51,3.98-7.39,7.23-10.04,11.81l-15.23,12.17,27.97,19.41-.18,18ZM329.42,492.99c-.14-1.41.13-2.18.38-3.66,1.57,1.34.55,2.69-.38,3.66ZM325.15,505.9l-.93-.08,4.66-12.22.9.04-4.63,12.25Z"/>
    <path class="cls-6" d="M293.84,443.03c.46.24-4.93,4.44-4.91,5.11.25,9.41-.27,10.46-1.52,19.96l-3.79,3.66-26.5,11.68-22.13,5.67c-20.82,6.13-41.85,9.19-63.26,10.31.96,1.33-.21,2.25-1.04,3.42l-10.46,14.71c10.02,7.36,20.92,13.27,31.49,18.74l17.91-.41,20.55-1.27,10.19-.72,13.26-1.2,16.61-1.35,17.73-2.09,10.05-.36c1.04-.04,2.01-.78,3.08.02,1.7-.3,3.74-1.08,5.49-1.01l.18-18-27.97-19.41,15.23-12.17c2.65-4.58,6.53-7.83,10.04-11.81,3.86-4.42,7.86-8.13,11.39-12.91l-.88-22.41c-4.42-7.35-13.51-14.84-19.17-15.85l-.95,25.3-.64,2.36Z"/>
    <path class="cls-2" d="M122.16,530.58c.35-.07.86.49,1.14.93l32.67,5.66,24.9,2.96h19.82c27.56-2.26,73.7-6.47,100.44-11.22-1.06-.8-2.03-.06-3.08-.02l-10.05.36-17.73,2.09-16.61,1.35-13.26,1.2-10.19.72-20.55,1.27-5.09.12c-10.57-5.46,9.82-21.89,30.28-33.26l53.05-32.84c.83-1.16,7.27-20.65,6.32-21.98l-78.06,19.45-102.57,1.77c-1.73,2.44-8.19-4.41-16.67,6.32l.47,13.86,24.79,41.26Z"/>
    <path class="cls-15" d="M82.08,455.65l4.32,8.53c4.44,8.82,23.04,10.07,34,10.59,7.96.38,12.89-.07,23.87-.57,5.62-.25,5.2.04,11.94-.76,2.92-.35,13.15-1.23,15.68-1.42,3.32-.21,11.08-1.07,9.09-1.01-1.52.05-22.25,1.24-40.25.12-.74-.05-1.76-1.89-2.38-1.55-1.74.96-3.12-.49-4.83-1.02-12.09-3.71-21.94-12.23-27.19-23.8l-1.69-23.46c-8.25,2.59-13.72,10.57-18.99,21.73l-3.56,12.62Z"/>
    <path class="cls-6" d="M208.47,683.85c-.68.33-5.15,3.94-5.81,4.55-.59.54-2.96,2.38-2.02,3.28,2.97,2.05.5,3.59,4.04,3.79l5.81.76,8.26.64,24.36-.26,8.23-.5,6.82-1.03,18.89-2.73c.13-.01.48.02.62.34l7.18-2.64c9.27-2.69,18.54-4.58,27.02-8.48l.85-13.2c-2.64,2.94-28.99,7.78-38.14,8.53-21,1.71-17.89,1.8-38.92,2.76l-22.64.9,11.1-.2-9.07,2.47-6.57,1.01Z"/>
    <path class="cls-6" d="M287.18,313.51c-2.9-7.98-13.42-12.48-13.42-12.48l-35.89-20.84s-55.79-1.14-56.92-1.52c-1.14-.38-31.45-.76-42.06,1.89s-9.54,2.79-9.54,2.79l-2.2,2.74c-.84.35-1.59.53-1.88.43l-2.02-.97-7.79,6.23c.76,1.6-.71,3.31-.45,4.85l3.35,3.57c1.23,1.03,4.58,3.68,5.87,3.22l7.77-1.03,3.61,3.55,16.14,14.02,23.14-2.65,54.34,4.17,20.95,38.89,14.35,99.58,9.54,2.84,9.49-7.15,8.22-17.05,3.02-88.29s-4.71-28.8-7.61-36.78Z"/>
    <path class="cls-1" d="M311.87,681.57c-8.47,3.9-17.75,5.8-27.02,8.48l-7.18,2.64c9.1-1.72,18.43-3.29,27.47-6.41,3.02-1.04,5.69-3.17,7.97-4.81l-1.24.09Z"/>
    <path class="cls-7" d="M255.21,694.14c-3.93.32-6.77.1-6.6.92.73.02-11.68.15-11.68.15,1.89.88,4.04.14,6.61.69-1.02.79-12.54,5.05-13.64,5.35,1.02-.02,8.32,1.96,9.99,1.83l11.68-1.01,19.89-2.8c1.91-.2,30.14-10.48,31.25-12.18l-47.51,7.05Z"/>
    <path class="cls-8" d="M95.64,674.67c6.83,6.79,14.82,12.8,24.38,14.53l12.25,2.21,8.62.4c.1.03.41,0,.6.53l77.97,3.6,17.47-.73c1.89.88,11.06,2.14,13.63,2.69-1.02.79-9.86,5.07-10.96,5.37l-11.18.57-15.35.38-50.4-1.33c-14.04.19-32.76-9.53-46.05-13.27-8.74-2.46-15.66-8.84-21.89-14.81.04-.12.69-.36.91-.14Z"/>
    <path class="cls-8" d="M306.61,527.91c-1.75-.07-3.78.71-5.49,1.01-26.74,4.74-72.88,8.96-100.44,11.22l-18.57-.07-26.68-2.95-32.13-5.6c-.28-.45-.79-1.01-1.14-.93-1.77.37-2.99-1.01-4.48-2.03-8.34-5.71-16.63-11-23.54-18.38-2.56-2.73-5.15-5.45-8.35-7.09,10.52,13.47,23.32,23.51,37,31.87,1.21.74,2.96-.93,4.4-.85l11.35.64c4.45.25,13.78,3.7,18.39,4.84.71.18,2.41-.87,2.59.56l19.09,2.17,13.18,1.57c2.09-.06,3.81.35,5.17,1.73.03-.45.42-.44.73-.25-.03-.21-.14-1.6.1-1.86l46.27-4.26,28.01-2.77c13.4-1.32,26.4-3.38,39.42-6.95l4.49-5.99c3.21-4.28,6.37-8.42,7.36-13.98-4.9,6.75-10.26,18.62-16.72,18.36Z"/>
    <path class="cls-9" d="M215.32,695.87c-.02.43-6.59,1.2-6.25,1.52-1.16.25-2.11,1.38-2.08,2.27l.76,2.84c.1.03,4.17.04,4.36.57l11.75-.38,8.53-.38,6.05-.38,9.95-.73c21.88-1.06,37.35-7.76,54.73-14.24l-52.07,6.61-12.54.99-10.47.74-6.63-.38-6.06.95Z"/>
    <path class="cls-8" d="M308.04,668.59c-16.4,3.74-32.99,6.39-49.88,7.74l-2.26.43-73.03,2.69-15.01.12c-14.2.73-28.39-3.57-42.1-5.55l-7.1-1.03c-2.19-.32-4.23-1.69-6.49-1.59-.93.04-1.25-1.03-1.29-1.8-2.29-.08-3.69-2.58-5.19-3.74l-15.49-11.97c5.86,7.73,13.43,12.92,20.35,19.45l10.44,2c.15.31.39,1.35.67,1.28.25-.07.78.21,1.2.25l8.29.8,54.14,4.03,5.46.09,21.79-.99c21.03-.96,41.62-.99,62.28-3.51,9.11-1.11,35.28-5.96,37.92-8.9l10.39-11.6-.69-.52-8.6,8.52c-1.85,1.84-3.53,3.3-5.79,3.82Z"/>
    <path class="cls-7" d="M122.78,534.94c-.12.33,11.99,12.14,11.78,12.24,14.78,24.25,19.87,60.66,24.73,122.94,23.75-2.78,41.89-122.7,38.48-126.63l-38.26-3.36c-.19-1.43-1.88-.39-2.59-.56-4.61-1.13-13.94-4.59-18.39-4.84l-11.35-.64c-1.44-.08-3.18,1.59-4.4.85Z"/>
    <path class="cls-14" d="M186.92,353.01s21.6,121.56,71.69,111.48l15.44-1.71-2.13-22.08.78-21.39c.36-9.92-2.53-19.45-2.85-29.05l-.42-12.92c-.26-7.88.09-16.11-3.38-23.56-2.25-4.83-4.9-11-8.9-14.6l-18.41-16.56c-10.16-2.54-19.52-5.78-29.54-9.13l-36.38.71,14.1,38.8Z"/>
    <path class="cls-12" d="M250.47,463.64c-17.24.66-21.25-24.17-21.25-24.17l-12.98-74.51-16.29-32.35-27.13-18.39-13.99-4.59-10.25-4.57c-3.47,1.35-6.36-.87-7.52-4.11-2.19.26-3.96.45-5.46.98l-10.62.38c-1.3.46-4.83-1.63-6.06-2.65l-3.92-3c-.26-1.55,1.21-3.25.45-4.85-3.53,2.82-5.61,7.52-7.62,12.02-2.47,5.52-2.86,11.88-3.01,18.08l-.6,25.92.13,70.42c.02,1.04.75,2.16.28,3.08l1.69,23.46c5.25,11.58,15.1,20.09,27.19,23.8,1.71.53,3.09,1.98,4.83,1.02.62-.34,1.64,1.5,2.38,1.55,18,1.12,34.62.16,53.02-.67,23.44-1.05,46.17-3.16,69.25-6.24,2.25-.3-12.53-.58-12.53-.58Z"/>
    <path class="cls-6" d="M309.66,541.11l-13.81,41.13c-10.45,31.13-22.42,61.12-36.31,90.67-.62,1.31-1.17,2.31-1.39,3.43,16.89-1.35,33.48-4,49.88-7.74.43-.56.54-1.77-.3-2.44-6.2-4.94-11.05-10.9-17.35-17.02l25.81-107.65c-1.65-1.72-2.75-4.6-4.88-4.49-1.52.08-2.36,3-1.65,4.12Z"/>
    <path class="cls-2" d="M264.74,649.86l-2.11,3.69-5.18,11.82c.03,3.81.47,3.61.11,7.12l.09,3.57.52.27c.22-1.11.77-2.11,1.39-3.43,13.89-29.55,25.85-59.54,36.31-90.67l13.81-41.13c-.63-.53-1.53-.3-.92.31-3.57,7.18-5.46,14.49-8.47,21.96l-17.97,44.61-5.94,14.14-11.62,27.74Z"/>
    <polygon class="cls-5" points="325.15 505.9 329.78 493.65 328.88 493.6 324.21 505.82 325.15 505.9"/>
    <path class="cls-10" d="M329.42,492.99c.93-.97,1.96-2.32.38-3.66-.25,1.48-.53,2.26-.38,3.66Z"/>
    <path class="cls-4" d="M235.4,675.71c-.31-.18-66.16,4.15-67.17,4.17,0,0-.63-44.69-.91-44.08l-1.55,16.55-.54,10.2-1.26,3.54-2.78,1.77-2.81-3.28-7.77-16.58-5.31-10.99,12.4,33.7-7.78,2.85-4.18.55-5.05.47c-7.82.48-15.81-1.52-14.95-.56,13.71,1.98,27.9,6.28,42.1,5.55l15.01-.12,75.3-2.63,6.58-26.95-1.33.61,2.85-8.23c2.34-8.71,5.13-17.12,7.84-25.85l5.3-17.12,17.29-57.08-17.74-3.54c-5.28-1.05-10.5.44-15.62,1.03l-4.02.46-3.19.37c-12.4,14.55,1.02,131.8-20.71,135.21Z"/>
    <g>
      <path class="cls-13" d="M137.49,616.71l-18.71-49.38-3.69,4.14,3.41,6.29,11.96,31.26,16.91,42.38,6.04,14.18c.74,1.75,2.88,4.25,4.3,5.12-.37-2.07-1.31-5.01-2.07-6.99l-18.15-47Z"/>
      <path class="cls-13" d="M178.63,471.41l-17.24,1.33c-17.77,1.06-18.76,1.52-37.33,1.89-10.98.22-33.23-1.64-37.67-10.46l-4.32-8.53c-3.62,9.65-4.34,16.43-4.31,27.31l.93,33.47-.82,66.25c0,3.4.47,6.51-.18,10.18-.47,2.63,1.3,6.02.04,8.65-.44.92.35,1.85.22,2.84-.36,2.56-.61,5.53.68,7.76l-1.07,1.06.5,1.58c-1.01,5.58-.02,11.1-.18,16.7-.22,7.96.94,14.99,3.67,22.25,2.98,7.94,6.56,15.85,13.16,21.11.04-.12.69-.36.91-.14,6.83,6.79,14.82,12.8,24.38,14.53l11.49,3.15,14.7,2.74-14.69-9.7c-2.99-2.05-6.38-3.58-9-6.12-.94-.91-2.11-1.45-1.52-2,.66-.61,1.17-.08,1.85-.41-.42-.04-.94-.32-1.2-.25-.28.07-.52-.97-.67-1.28l-10.44-2c-6.92-6.53-14.49-11.71-20.35-19.45l15.49,11.97c1.5,1.16,2.9,3.66,5.19,3.74.04.77.36,1.85,1.29,1.8.22-.16.02-.37-.46-.45,1.52-32.33.57-67.07,3.39-99.48.08-.92,3.12.73,3.2-.19l4.14-35.56c.21-.1.22-.45.34-.78-13.68-8.36-26.48-18.4-37-31.87,3.2,1.64,5.79,4.36,8.35,7.09,6.91,7.38,15.2,12.68,23.54,18.38,1.49,1.02,2.71,2.39,4.48,2.03l1.08-18.76-4.29-23.92c-3.03-7.2,24.44-1.71,59.68-16.48Z"/>
    </g>
    <path class="cls-2" d="M256.11,540.5c-.98,1.34-.26,3.51-.29,5.4l-.24,15.41.34,45.63.62,37.24.4,2.35.74,30.9c1.76-.42,2.4-2.19,2.45-3.65l.62-20.03-1.21-56.57-.94-50.38c-.04-2.12-.88-4.98-2.48-6.29Z"/>
  </g>
  <path class="cls-14" d="M166.97,541.66c-.98,1.34-.18,6.61-.21,8.5l.57,25.96-.19,41.31.19,23.87-.19,8.91.47,29.8c1.76-.42,2.4-2.19,2.45-3.65l.62-20.03-1.21-56.57-.94-50.38c-.04-2.12.05-6.4-1.55-7.71Z"/>
  <path class="cls-6" d="M256.11,540.5c-.98,1.34-2.25,10.39-2.28,12.29l-.09,21.03.54,34.75.63,28.28,2.15,38.4.62,2.16c2.34-1.24-.27-14.98-.22-16.44l-.46-14.78-1.14-49.11.16-50.31c-.04-2.12-.19-2.81.1-6.29Z"/>
  <path class="cls-3" d="M166.91,541.28c1.03,1.31,1.18,1.45,1.58,5.07l2.19,30.05,1.03,35.02.34,28.29-1.97,37.03-.31,1.43-.74,1.21-1.41.62c1.3-1.98,1.38-15.18,1.28-16.64l.38-14.78-.38-48.69-1.04-50.16c-.03-2.12-.53-4.99-.94-8.45Z"/>
  <path class="cls-3" d="M233.28,467.69c-.2-.36-10.94-1.08-15.3-2.5l-5.4-1.04-3.69-.19c-8.34.66-13.75-.47-13.75-.47l-11.65-1.5-16.48-4.93-11.56-2.08-8.15-3.22-7.77-6.63c-1.52-9.98-4.53-6.03-5.31-21.03-.33-1.42-4.17-19.89-5.31-27.28l-7.58-42.44c-3.79-12.88-13.83-38.65-7.96-50.21l1.62-7.52c-.26-1.55,1.21-3.25.45-4.85-3.53,2.82-5.61,7.52-7.62,12.02-2.47,5.52-2.86,11.88-3.01,18.08l-.6,25.92.13,70.42c.02,1.04.75,2.16.28,3.08l1.69,23.46c5.25,11.58,15.1,20.09,27.19,23.8,1.71.53,3.09,1.98,4.83,1.02.62-.34,1.64,1.5,2.38,1.55,18,1.12,34.62.16,53.02-.67,23.44-1.05,13.19-.53,26.95-1.48,6.92-.48,12.57-1.29,12.57-1.29Z"/>
</svg>