<?xml version="1.0" encoding="UTF-8"?>
<svg xmlns="http://www.w3.org/2000/svg" viewBox="0 0 409.19 709.78">
  <g id="golem_fragment_bottom_left">
    <path fill="#f7f3e4" d="M99.5 525.2c18.3 4.9 42.1 8.7 71.4 11.4l-10.2 137.2c-20.6-1.4-40.4-4.2-59.5-8.2-7.8-6.1-14.1-13.8-18.7-23.1l-6.2-111.8 23.2-5.5z"/>
    <path fill="#fcd9b1" d="M113.1 538.6l18.3 59.4c5.5 17.9 11.9 35.6 19.2 53.1l5.2 13.6-4.6 8.3-16.9-2.3c-11.4-31.3-22.4-67.6-33-108.8-3.3-12.8-5.2-20-5.6-21.6 4.6-5 10.4-5.5 17.4-1.7z"/>
    <path fill="#f5aeb5" d="M130.4 536.4c15 1.8 29.2 3.4 42.5 4.7l-12.1 128.1-8.3 4.6c-7.1-24.4-15.3-49.2-24.5-74.5l-15.6-59.2 18-3.7z"/>
    <path fill="#3b62a2" d="M76.5 589.1l-.7-57.9 23.7-5.9 15 47.1-3.3 98.2c-17.3-10.8-29.4-38-34.7-81.5z"/>
    <path fill="#20375a" d="M93.1 653.2c14 8.8 33.8 15 59.4 18.7l-3.7 15.5c-26.8-3.3-45.4-10.8-55.8-22.5l.1-11.7z"/>
  </g>
</svg>
