<?xml version="1.0" encoding="UTF-8"?>
<svg xmlns="http://www.w3.org/2000/svg" viewBox="0 0 409.19 709.78">
  <g id="golem_fragment_bottom_right">
    <path fill="#f7f3e4" d="M246.7 540.6c23.7-1.1 48-5.5 72.9-13.3l12 57.3c1.8 35.1-5.3 62.5-21.4 82.1-16.7 5.9-35.9 9.2-57.7 9.9l-9.2-20.4 3.4-115.6z"/>
    <path fill="#fcd9b1" d="M287.5 541.3c6.8 2.2 13.5 1.3 20.2-2.8l8.3 4.1-24.8 105.7c7.1 6.5 12.3 12.4 15.5 17.6-15 4.9-31.1 8-48.3 9.2l-4.8-8 33.9-125.8z"/>
    <path fill="#f5aeb5" d="M248.3 548.2c7.2-1.1 17.6-2.9 31.4-5.3l-19.2 127.7-8.8 5.1-18.2-25 14.8-102.5z"/>
    <path fill="#3b62a2" d="M286.9 536.8c13.8-2.1 25.2-5.4 34.4-9.9 7.2 17.6 10.8 40.2 10.8 67.8-1.4 35.5-9.7 59.5-24.9 72l-16.9-18.1 25.5-107.7c-10.1 5-19.7 4.7-28.9-4.1z"/>
    <path fill="#20375a" d="M253.6 675.1c22.9-1.6 43.3-6.9 61.2-15.9l-9.6 20.6c-16.1 9.6-40.1 15.1-72 16.6l20.4-21.3z"/>
  </g>
</svg>
