<?xml version="1.0" encoding="UTF-8"?>
<svg id="Réteg_1" data-name="Réteg 1" xmlns="http://www.w3.org/2000/svg" viewBox="0 0 409.19 709.78">
  <defs>
    <style>
      .cls-1 {
        fill: #f5aeb5;
      }

      .cls-2 {
        fill: #f1b3b2;
      }

      .cls-3 {
        fill: #fcdab3;
      }

      .cls-4 {
        fill: #3b62a2;
      }

      .cls-5 {
        fill: #20375a;
      }

      .cls-6 {
        fill: #fcd9b1;
      }

      .cls-7 {
        fill: #3c6091;
      }

      .cls-8 {
        fill: #1f3351;
      }

      .cls-9 {
        fill: #f4aeb4;
      }

      .cls-10 {
        fill: #f5debf;
      }

      .cls-11 {
        fill: #f7f3e4;
      }

      .cls-12 {
        fill: #eef5e8;
      }
    </style>
  </defs>
  <g id="Generatív_objektum_0_30_" data-name="Generatív objektum (0, 30)">
    <path class="cls-11" d="M285.96,283.31l-2.02.97c-.77.26-4.83-1.45-5.13-3.12-1.04.16-.79.92-.57,1.33.37.7.99.92,1.74,1.15l-6.38,16.04c-1.51-.53-3.27-.72-5.46-.98-1.16,3.24-4.04,5.47-7.52,4.11l-8.34,9.82-27.78-1.15-24.51-.21c-10.01,3.35-19.38,6.59-29.54,9.13l-18.41,16.56c-4,3.6-6.65,9.77-8.9,14.6-3.47,7.45-3.12,15.68-3.38,23.56l-.42,12.92c-.31,9.6-3.21,19.13-2.85,29.05l.78,21.39-1.83,18.43-6.56-1.43c-.2,1.08-.3,1.67-.5,2.02-.32.59-1.13-.18-1.57-.05-.99-.54-2.41-1.69-3.19-2.65l-6.17-7.35c.38-1.1-.59-1.85-1.12-2.74-.71-1.2-.7-2.85-.99-3.91l-.64-2.36-1.11-29.56-.29-33.67.7-32.94c.51-24.16,2.06-53.69,24.89-65.51,9.61-4.97,19.78-7.09,30.79-7.94,26.19-2.03,51.93-1.14,77.82,2.03,13.25,1.62,28.74,4.72,38.45,12.49Z"/>
    <path class="cls-11" d="M102.58,525.66c-6.46.26-11.82-11.61-16.72-18.36.99,5.56,4.15,9.7,7.36,13.98l4.49,5.99c13.02,3.57,26.02,5.62,39.42,6.95l28.01,2.77,46.27,4.26c.24.27.25,1.05.21,1.26-7.53.98-15.25-.26-23.27-.97l-29.06-2.56-13.43-1.55c-5.12-.59-10.34-2.08-15.62-1.03l-17.74,3.54,17.29,57.08,5.3,17.12c2.71,8.73,5.5,17.15,7.84,25.85l2.85,8.23-1.33-.61-11.62-27.74-5.94-14.14-17.97-44.61c-3.01-7.47-4.9-14.78-8.47-21.96.6-.62-.29-.84-.92-.31.71-1.12-.13-4.04-1.65-4.12-2.13-.11-3.23,2.78-4.88,4.49l25.81,107.65c-6.29,6.12-11.14,12.08-17.35,17.02-.84.67-.73,1.88-.3,2.44-2.27-.52-3.94-1.98-5.79-3.82l-8.6-8.52-.69.52,10.39,11.6.85,13.2-1.24-.09c-5.19-3.73-8.52-8.9-11.42-14.49-3.62-6.96-5.15-13.66-5.25-21.7l-.69-57.62-1.01-99.1c-.08-7.79.35-14.64,2.17-22.11,3.23-13.3,7.83-23.8,14.71-35.24l-.88,22.41c3.53,4.78,7.53,8.49,11.39,12.91,3.51,3.98,7.39,7.23,10.04,11.81l15.23,12.17-27.97,19.41.18,18ZM79.77,490.74c.14-1.41-.13-2.18-.38-3.66-1.57,1.34-.55,2.69.38,3.66ZM84.05,503.65l.93-.08-4.66-12.22-.9.04,4.63,12.25Z"/>
    <path class="cls-6" d="M115.35,440.78c-.46.24-.91,1.36-.93,2.03-.25,9.41,1.22,18.73,2.47,28.22l6.93,1.7,28.25,8.46,22.13,5.67c20.82,6.13,41.85,9.19,63.26,10.31-.96,1.33.21,2.25,1.04,3.42l10.46,14.71c-10.02,7.36-20.92,13.27-31.49,18.74l-17.91-.41-20.55-1.27-10.19-.72-13.26-1.2-16.61-1.35-17.73-2.09-10.05-.36c-1.04-.04-2.01-.78-3.08.02-1.7-.3-3.74-1.08-5.49-1.01l-.18-18,27.97-19.41-15.23-12.17c-2.65-4.58-6.53-7.83-10.04-11.81-3.86-4.42-7.86-8.13-11.39-12.91l.88-22.41c4.42-7.35,13.51-14.84,19.17-15.85l.95,25.3.64,2.36Z"/>
    <path class="cls-4" d="M304.56,419.05l-1.69,23.46c-5.25,11.58-15.1,20.09-27.19,23.8-1.71.53-3.09,1.98-4.83,1.02l11.42-9.72c.5-29.87.1-58.37-.9-87.51-.13-6.74.34-12.92-.86-19.25-1.13-5.95-2.16-11.65-3.81-17.55,5.32-7.2,14.68-21.76,15.67-27.76l1.84-11.15c.26-1.55-1.21-3.25-.45-4.85,3.53,2.82,5.61,7.52,7.62,12.02,2.47,5.52,2.86,11.88,3.01,18.08l.6,25.92-.13,70.42c-.02,1.04-.75,2.16-.28,3.08Z"/>
    <path class="cls-5" d="M327.12,453.4l-4.32,8.53c-4.44,8.82-27.6,14.99-38.53,16.06-17.54,1.72-34.86.06-52.63-1-22.63-1.35-44.42-3.85-66.78-7.13-14.99-2.2-29.5-3.83-44.29-7.76-2.07-3.64-2.1-8-2.3-12.24-.04-.83-1.02-1.82-.81-2.43l6.17,7.35c.78.96,2.2,2.11,3.19,2.65,5.96,2.53,12.5,3.62,19.37,4.54,23.08,3.11,45.8,5.19,69.25,6.24,17.98.8,35.12,1.78,53.02.67.74-.05,1.76-1.89,2.38-1.55,1.74.96,3.12-.49,4.83-1.02,12.09-3.71,21.94-12.23,27.19-23.8l1.69-23.46c8.25,2.59,13.72,10.57,18.99,21.73l3.56,12.62Z"/>
    <path class="cls-6" d="M286.22,678.79c.68.33,1.19-.2,1.85.41.59.54-.58,1.09-1.52,2-2.97,2.05-6.32,2.94-9.87,3.15l-27.7,8.24-58.55,2.03-24.36-.26-8.23-.5-6.82-1.03-18.89-2.73c-.13-.01-.48.02-.62.34l-7.18-2.64c-9.27-2.69-18.54-4.58-27.02-8.48l-.85-13.2c2.64,2.94,28.81,7.79,37.92,8.9,20.66,2.52,41.25,2.55,62.28,3.51l21.79.99,5.46-.09,54.01.15,8.29-.8Z"/>
    <path class="cls-6" d="M285.96,283.31l7.79,6.23c-.76,1.6.71,3.31.45,4.85l-1.84,11.15c-1.23,1.03-2.17.02-3.47-.44l-15.3-5.42,6.38-16.04c-.75-.24-1.37-.45-1.74-1.15-.22-.41-.47-1.17.57-1.33.3,1.68,4.36,3.39,5.13,3.12l2.02-.97Z"/>
    <path class="cls-2" d="M97.33,679.32c8.47,3.9,17.75,5.8,27.02,8.48l7.18,2.64c-9.1-1.72-18.43-3.29-27.47-6.41-3.02-1.04-5.69-3.17-7.97-4.81l1.24.09Z"/>
    <path class="cls-7" d="M153.99,691.89c3.93.32,6.77.1,6.6.92-.73.02,11.68.15,11.68.15-1.89.88-4.04.14-6.61.69,1.02.79,12.54,5.05,13.64,5.35-1.02-.02-8.32,1.96-9.99,1.83l-11.68-1.01-19.89-2.8c-1.91-.2-30.14-10.48-31.25-12.18l47.51,7.05Z"/>
    <path class="cls-8" d="M313.43,676.6c-6.83,6.79-14.82,12.8-24.38,14.53l-12.25,2.21-8.62.4c-.1.03-.41,0-.6.53l-77.84-.59-17.47-.73c-1.89.88-11.06,2.14-13.63,2.69,1.02.79,9.86,5.07,10.96,5.37l11.18.57,15.35.38,50.4-1.33c14.04.19,32.63-5.34,45.92-9.08,8.74-2.46,15.66-8.84,21.89-14.81-.04-.12-.69-.36-.91-.14Z"/>
    <path class="cls-1" d="M287.44,541.72l3.33,31.5c2.96,33.34,5.04,66.42,6.6,99.67-.48.07-.69.29-.46.45-2.26-.1-4.3,1.27-6.49,1.59l-7.1,1.03c.87-.96-.08-2.08-.65-3.2l-3.49-6.88-12.74-26.55-9.48-20.29-31.83-70.12c-.28-.61-.46-.92.1-1.33.47.4,1.42,1.01,1.83,1.75l47.8,87.75c.33.61.79,1.14,1.07,1.36.42.33,1.7-.26,1.39-1.16l-15.09-44.18c-4.87-14.25-9.81-28.96-15.56-42.62-.07-.18.61-.95.35-1,1.82.09,10.57-2.46,16.65-3.86,5.14-1.18,9.39-1.61,13.93-2.78,3.14-.81,6.47-1,9.84-1.13Z"/>
    <path class="cls-8" d="M102.58,525.66c1.75-.07,3.78.71,5.49,1.01,26.74,4.74,54.13,6.84,81.69,9.1l37.32,2.05,39.13.36,20.37-.67c.28-.45.79-1.01,1.14-.93,1.77.37,2.99-1.01,4.48-2.03,8.34-5.71,16.63-11,23.54-18.38,2.56-2.73,5.15-5.45,8.35-7.09-10.52,13.47-23.32,23.51-37,31.87-1.21.74-2.96-.93-4.4-.85l-11.35.64c-4.45.25-9.31-.03-13.92,1.11-.71.18-2.41-.87-2.59.56l-23.65-.36-13.78-.41c-2.09-.06-3.74-.07-5.1,1.32-.03-.45-.37-.63-.68-.44.03-.21.02-.99-.21-1.26l-46.27-4.26-28.01-2.77c-13.4-1.32-26.4-3.38-39.42-6.95l-4.49-5.99c-3.21-4.28-6.37-8.42-7.36-13.98,4.9,6.75,10.26,18.62,16.72,18.36Z"/>
    <path class="cls-9" d="M276.69,684.35c.02.43-.16.77-.5,1.09,1.16.25,1.39.99,1.36,1.88l-9.38,6.43c-.1.03-5.13,2.75-5.32,3.28l-12.39,1.41-51.28,2.4-28.42-1.14-9.95-.73c-21.88-1.06-37.35-7.76-54.73-14.24l52.07,6.61,12.54.99,23.34.86,54.94-.58,27.7-8.24Z"/>
    <path class="cls-8" d="M101.16,666.34c16.4,3.74,32.99,6.39,49.88,7.74l2.26.43,73.03,2.69,15.01.12c14.2.73,28.26.62,41.97-1.37l7.1-1.03c2.19-.32,4.23-1.69,6.49-1.59.93.04,1.25-1.03,1.29-1.8,2.29-.08,3.69-2.58,5.19-3.74l15.49-11.97c-5.86,7.73-13.43,12.92-20.35,19.45l-10.44,2c-.15.31-.39,1.35-.67,1.28-.25-.07-.78.21-1.2.25l-8.29.8-54.01-.15-5.46.09-21.79-.99c-21.03-.96-41.62-.99-62.28-3.51-9.11-1.11-35.28-5.96-37.92-8.9l-10.39-11.6.69-.52,8.6,8.52c1.85,1.84,3.53,3.3,5.79,3.82Z"/>
    <path class="cls-7" d="M287.1,540.94c.12.33.14.69.34.78-3.38.13-6.7.32-9.84,1.13-1.97-.51-4.26-.45-6.61-.45h-16.15c.19-1.43,1.88-.39,2.59-.56,4.61-1.13,9.47-.86,13.92-1.11l11.35-.64c1.44-.08,3.18,1.59,4.4.85Z"/>
    <path class="cls-1" d="M286.56,681.2c-2.63,2.54-6.02,4.07-9,6.12.03-.9-.2-1.63-1.36-1.88.33-.32.52-.65.5-1.09,3.54-.2,6.9-1.09,9.87-3.15Z"/>
    <path class="cls-6" d="M252.28,312.63l6.84,20.23c.06.84-1.56,1.73-2.54,2.14-12.37,5.19-24.7,9.72-37.54,13.99-1.28,3.35-.77,6.49-1.17,10.12l-7.96,74.01-25.75-3.17-.19-34.12-.15-41.76c-.38-.47-.79-.78-1.04-.91-1.9-1.04-2.1,3.58-4.06,5.79-.5-1.57-.86-2.47-1.92-3.27l-.5-1.03c-.16-.33-1.12-.12-1.14.54-2.82-3.87-7.91-4.78-12.5-3.5-.21,0-.98-.72-.75-.74.37-.03.97-.68.42-1.04-2.51.39-5.58,2.61-6.92,5.37-2.64,5.44,1.72,12.01,7.65,12.83,1.73.9,3.15.85,4.4.2,4.53,1.66,9.61-2.68,10.94-7.17-.55-.79.2-.7.37-.54.51.49.93.94.89,1.72l-2.24,43.19c-.49,9.43-1.44,18.38-1.3,27.73.02,1.17,1.41.74,1.9.78l5.82.58,38.8,5.72,15.14,2.68,16.68,3.97-3.54,7.59-5.77,13.01-42.99-2.89-26.82-2.66c-7.84-.78-15.32-1.59-23.14-2.71l-16.79-2.42,1.83-18.43-.78-21.39c-.36-9.92,2.53-19.45,2.85-29.05l.42-12.92c.26-7.88-.09-16.11,3.38-23.56,2.25-4.83,4.9-11,8.9-14.6l18.41-16.56c10.16-2.54,19.52-5.78,29.54-9.13l24.51.21,27.78,1.15Z"/>
    <path class="cls-1" d="M273.6,299.67l15.3,5.42c1.3.46,2.24,1.47,3.47.44-.99,6-10.35,20.56-15.67,27.76,1.65,5.9,2.68,11.6,3.81,17.55,1.2,6.33.72,12.51.86,19.25,1,29.14,1.4,57.64.9,87.51l-11.42,9.72c-.62-.34-1.64,1.5-2.38,1.55-17.9,1.11-35.04.14-53.02-.67-23.44-1.05-46.17-3.13-69.25-6.24-6.87-.93-13.42-2.02-19.37-4.54.44-.14,1.24.64,1.57.05.2-.36.3-.94.5-2.02l6.56,1.43,16.79,2.42c7.82,1.13,15.31,1.94,23.14,2.71l26.82,2.66,42.99,2.89,5.77-13.01,3.54-7.59-16.68-3.97,15.35-13.57-5.66-25.15c-2.51-11.14-5.06-21.92-6.8-32.93,6.48.77,12.62-2.26,12.22-8.05-.11-1.69-1.37-3.17-3.05-3.81-.87-.49-2.21-1.93-2.89-3.07-.1-.31.88-1.02,1.14-1.2.34-.23.41-.73-.32-1.1-6.74-3.41-15.24-.38-18.92,6.81-.73,1.43-.36,3.88-.33,5.38l.32,19.18-.12,7.47.19,17.73.6,27.9-4.38.45c-1.2.12-2.27.32-2.48,1.27l-38.8-5.72-5.82-.58,6.12-4.06,25.75,3.17,7.96-74.01c.39-3.63-.11-6.77,1.17-10.12,12.84-4.27,25.18-8.8,37.54-13.99.98-.41,2.59-1.3,2.54-2.14l-6.84-20.23,8.34-9.82c3.47,1.35,6.36-.87,7.52-4.11,2.19.26,3.96.45,5.46.98Z"/>
    <path class="cls-6" d="M99.53,538.86l13.81,41.13c10.45,31.13,22.42,61.12,36.31,90.67.62,1.31,1.17,2.31,1.39,3.43-16.89-1.35-33.48-4-49.88-7.74-.43-.56-.54-1.77.3-2.44,6.2-4.94,11.05-10.9,17.35-17.02l-25.81-107.65c1.65-1.72,2.75-4.6,4.88-4.49,1.52.08,2.36,3,1.65,4.12Z"/>
    <path class="cls-1" d="M144.46,647.62l2.11,3.69,5.49,12.49c1.45,3.29,2.77,6.34,3.13,9.85l-1.89.87-2.26-.43c-.22-1.11-.77-2.11-1.39-3.43-13.89-29.55-25.85-59.54-36.31-90.67l-13.81-41.13c.63-.53,1.53-.3.92.31,3.57,7.18,5.46,14.49,8.47,21.96l17.97,44.61,5.94,14.14,11.62,27.74Z"/>
    <polygon class="cls-3" points="84.05 503.65 79.41 491.4 80.32 491.36 84.98 503.58 84.05 503.65"/>
    <path class="cls-10" d="M79.77,490.74c-.93-.97-1.96-2.32-.38-3.66.25,1.48.53,2.26.38,3.66Z"/>
    <path class="cls-6" d="M211.63,542.5c.31-.18.65,0,.68.44-.38-.09-.88.13-.78.64-1.99.58-2.65,3.05-3.5,4.98l-20.4,46.07-23.05,51.67-7.2,18.7c-.52,1.36-.62,3.24.84,4.31l12.66-28.19,1.28-2.01c1.7-.16,2.88,1.16,4.76,2.27l23.46-57.86,14.13-37.41c.45-1.2,1.9-2.25,2.91-2.23l5.6.57c1.87.05,2.02,2.1,2.19,3.12-.56.41-.38.72-.1,1.33l31.83,70.12,9.48,20.29,12.74,26.55,3.49,6.88c.57,1.12,1.52,2.24.65,3.2-13.71,1.98-27.77,2.09-41.97,1.37l-15.01-.12-73.03-2.69,1.89-.87c-.36-3.51-1.68-6.56-3.13-9.85l-5.49-12.49-2.11-3.69,1.33.61-2.85-8.23c-2.34-8.71-5.13-17.12-7.84-25.85l-5.3-17.12-17.29-57.08,17.74-3.54c5.28-1.05,10.5.44,15.62,1.03l13.43,1.55,29.06,2.56c8.03.71,15.74,1.95,23.27.97Z"/>
    <path class="cls-1" d="M287.72,536.57c-.35-.07-.86.49-1.14.93l-20.37.67-39.13-.36-37.32-2.05c-27.56-2.26-54.95-4.36-81.69-9.1,1.06-.8,2.03-.06,3.08-.02l10.05.36,17.73,2.09,16.61,1.35,13.26,1.2,10.19.72,20.55,1.27,17.91.41c10.57-5.46,21.47-11.38,31.49-18.74l-10.46-14.71c-.83-1.16-1.99-2.09-1.04-3.42l9,.47,27.19-.68c.92-1.62,2.24-.6,3.3,0l16.37,9.21-5.59,30.4Z"/>
    <path class="cls-4" d="M117.45,447.43c-.21.61.77,1.6.81,2.43.2,4.24.24,8.6,2.3,12.24,14.79,3.92,29.31,5.56,44.29,7.76,22.36,3.28,44.15,5.79,66.78,7.13,17.77,1.06,35.08,2.72,52.63,1,10.93-1.07,34.09-7.24,38.53-16.06l4.32-8.53c3.62,9.65,4.21,20.61,4.18,31.49l-.11,37.53v62.19c0,3.4-.47,6.51.18,10.18.47,2.63-1.3,6.02-.04,8.65.44.92-.35,1.85-.22,2.84.36,2.56.61,5.53-.68,7.76l1.07,1.06-.5,1.58c1.01,5.58.02,11.1.18,16.7.22,7.96-.94,14.99-3.67,22.25-2.98,7.94-6.56,15.85-13.16,21.11-.04-.12-.69-.36-.91-.14-6.83,6.79-14.82,12.8-24.38,14.53l-11.49,3.15-14.7,2.74,14.69-9.7c2.99-2.05,6.38-3.58,9-6.12.94-.91,2.11-1.45,1.52-2-.66-.61-1.17-.08-1.85-.41.42-.04.94-.32,1.2-.25.28.07.52-.97.67-1.28l10.44-2c6.92-6.53,14.49-11.71,20.35-19.45l-15.49,11.97c-1.5,1.16-2.9,3.66-5.19,3.74-.04.77-.36,1.85-1.29,1.8-.22-.16-.02-.37.46-.45-1.56-33.25-3.64-66.33-6.6-99.67l-3.33-31.5c-.21-.1-.22-.45-.34-.78,13.68-8.36,26.48-18.4,37-31.87-3.2,1.64-5.79,4.36-8.35,7.09-6.91,7.38-15.2,12.68-23.54,18.38-1.49,1.02-2.71,2.39-4.48,2.03l5.59-30.4-16.37-9.21c-1.06-.6-2.38-1.61-3.3,0l-27.19.68-9-.47c-21.41-1.12-42.43-4.18-63.26-10.31l-22.13-5.67-28.25-8.46-6.93-1.7c-1.24-9.5-2.72-18.81-2.47-28.22.02-.67.47-1.78.93-2.03.29,1.06.28,2.71.99,3.91.53.89,1.5,1.64,1.12,2.74Z"/>
    <path class="cls-12" d="M254.83,542.4h16.15c2.35,0,4.64-.05,6.61.45-4.54,1.17-8.79,1.6-13.93,2.78.17-.3.11-.93-.26-1.04-.26-.08-1.13-.42-1.46-.34-4.47,1.1-8.5.25-12.93.18l-31.6-.53c-1.01-.02-2.46,1.03-2.91,2.23l-14.13,37.41-23.46,57.86c-1.88-1.11-3.06-2.43-4.76-2.27l15.01-34.08,18.01-41.92,5.75-14.3c.71-1.76.99-3.62.6-5.24-.1-.51.4-.74.78-.64,1.35-1.39,3.01-1.38,5.1-1.32l13.78.41,23.65.36Z"/>
    <path class="cls-10" d="M263.67,545.63c-6.09,1.39-14.83,3.94-16.65,3.86l-6.66-.32-11.98-.17c.13,1.74-1.11.71-1.33.35-.41-.74-1.36-1.35-1.83-1.75-.18-1.03-.32-3.07-2.19-3.12l-5.6-.57,31.6.53c4.43.07,8.46.93,12.93-.18.32-.08,1.2.26,1.46.34.37.11.43.74.26,1.04Z"/>
    <path class="cls-6" d="M247.02,549.48c.25.05-.43.82-.35,1,5.75,13.66,10.69,28.36,15.56,42.62l15.09,44.18c.31.9-.97,1.49-1.39,1.16-.28-.22-.74-.75-1.07-1.36l-47.8-87.75c.22.36,1.47,1.39,1.33-.35l11.98.17,6.66.32Z"/>
    <path class="cls-4" d="M247.78,354.11c-.49,3.44-5.67.13-11.48,2.54-2.57,1.07-4.21,3.96-4.1,6.56.17,3.92,4.23,6.48,9.02,6.71-.16.53-.62.93-.54,1.42,1.74,11.01,4.29,21.79,6.8,32.93l5.66,25.15-15.35,13.57-15.14-2.68c.21-.95,1.28-1.15,2.48-1.27l4.38-.45c1.22-.12,4.12.25,4.61-1.4.94-3.17.36-6.66.19-9.77l-1.18-22.1c-.47-8.9-.92-17.59-1.91-26.49-.43-3.87-.43-7.49-2.07-11.41.19-.32.24-.85.02-.96-.26-.13-.51-.17-.65-.15-.03-1.5-.4-3.95.33-5.38,3.68-7.2,12.18-10.22,18.92-6.81Z"/>
    <path class="cls-11" d="M184.16,429.95l-6.12,4.06c-.49-.05-1.89.39-1.9-.78-.14-9.34.81-18.3,1.3-27.73l2.24-43.19c.04-.79-.39-1.23-.89-1.72-.16-.16-.92-.24-.37.54-1.34,4.5-6.41,8.83-10.94,7.17-.23-1.18-.04-2.16,1-2.64,2.43.2,4.84-1.52,5.94-3.02,1.85-2.52,1.58-5.01.76-7.46.02-.66.98-.87,1.14-.54l.5,1.03c1.06.8,1.41,1.69,1.92,3.27,1.96-2.21,2.16-6.82,4.06-5.79.25.13.66.44,1.04.91l.15,41.76.19,34.12Z"/>
    <path class="cls-8" d="M175.17,355.19c.82,2.45,1.09,4.93-.76,7.46-1.1,1.5-3.51,3.22-5.94,3.02s-5.29-.31-7.39-1.81c-2.2-2.06-3.77-4.28-3.08-7.64.61-1.36,2.5-3.92,4.66-4.52,4.59-1.28,9.68-.37,12.5,3.5Z"/>
    <path class="cls-2" d="M162.67,351.69c-2.16.6-4.05,3.17-4.66,4.52-.69,3.36.88,5.58,3.08,7.64,2.1,1.5,4.92,1.61,7.39,1.81-1.04.49-1.24,1.47-1,2.64-1.25.65-2.68.7-4.4-.2-5.92-.82-10.28-7.39-7.65-12.83,1.34-2.76,4.41-4.98,6.92-5.37.54.36-.06,1.01-.42,1.04-.23.02.54.73.75.74Z"/>
    <path class="cls-8" d="M229.52,438.59l-.6-27.9-.19-17.73.12-7.47-.32-19.18c.14-.03.39.02.65.15.22.11.17.63-.02.96,1.64,3.92,1.64,7.54,2.07,11.41.99,8.9,1.44,17.59,1.91,26.49l1.18,22.1c.17,3.11.75,6.6-.19,9.77-.49,1.65-3.39,1.28-4.61,1.4Z"/>
    <path class="cls-8" d="M249.86,359.49c.5,2.83-.04,5.37-2.02,7.62-1.49,1.69-4,2.95-6.61,2.82-4.79-.23-8.85-2.79-9.02-6.71-.11-2.6,1.52-5.49,4.1-6.56,5.81-2.41,10.99.9,11.48-2.54.74.37.66.87.32,1.1-.26.18-1.24.89-1.14,1.2.68,1.14,2.01,2.59,2.89,3.07Z"/>
    <path class="cls-11" d="M240.68,371.35c-.08-.49.38-.89.54-1.42,2.61.13,5.13-1.13,6.61-2.82,1.98-2.25,2.52-4.79,2.02-7.62,1.68.64,2.94,2.12,3.05,3.81.39,5.8-5.75,8.82-12.22,8.05Z"/>
    <path class="cls-1" d="M211.53,543.59c.38,1.62.11,3.48-.6,5.24l-5.75,14.3-18.01,41.92-15.01,34.08-1.28,2.01-12.66,28.19c-1.46-1.08-1.37-2.95-.84-4.31l7.2-18.7,23.05-51.67,20.4-46.07c.86-1.94,1.52-4.4,3.5-4.98Z"/>
  </g>
</svg>