<?xml version="1.0" encoding="UTF-8"?>
<svg xmlns="http://www.w3.org/2000/svg" viewBox="0 0 409.19 709.78">
  <g id="golem_fragment_top_right">
    <path fill="#f7f3e4" d="M285.2 285.3c16.9 11.3 21.5 31 21.7 60.4l-.3 69.8c-.1 17.8-5.7 34.8-17.2 48.7l-20.8 10.3-19.8-12.9 8.6-130.1 14.7-19.7-9.9-31.8c8.7 1.1 16.4 2.9 23 5.3z"/>
    <path fill="#fcd9b1" d="M275.2 298.3l17 7.1c-.9 8.7-6.2 19.7-16.2 33.4 4.2 20.6 6 48.9 5.5 85-.1 13.2-.5 24.4-1 33.7l-14 14.1-26.3-16.9 13.5-33.9-5.4-43.8c-1.6-12.9 2.9-26.2 9-37.4l17.9-41.3z"/>
    <path fill="#f5aeb5" d="M256.2 335c13.2-4.8 25.2-11.1 36-18.8-2.4 9.4-8.3 19.4-17.7 30 5 25.7 6.7 61.9 5.1 108.8l-12.9 14.1-22.9-16.2 9.4-24.1-6.3-26.2c-2.1-8.8-4-17.2-5.2-25.3 9.6-1.1 15.8-6.5 14.7-13.3-.6-3.6-3.4-6.5-7.3-7.8l7.1-21.2z"/>
    <path fill="#3b62a2" d="M249.4 449c22.4-2.7 41-12.5 55.9-29.5 14.9 5.6 23.7 16.5 26.3 32.6l-9 13.9c-12 12.9-33.7 19.5-65.2 19.8l-28.7-15.5 20.7-21.3z"/>
    <path fill="#20375a" d="M267.3 466.5c16.9-.9 29.7-3.7 38.5-8.6 7.6-4.3 14-9.5 19.2-15.6l2.2 10.5-4.5 9.1c-8.9 13.7-30.1 22.1-63.7 25.3l-15.5-13.8 23.8-6.9z"/>
  </g>
</svg>
