<?xml version="1.0" encoding="UTF-8"?>
<svg id="Réteg_1" xmlns="http://www.w3.org/2000/svg" version="1.1" viewBox="0 0 1984 561.9">
  <!-- Generator: Adobe Illustrator 30.5.1, SVG Export Plug-In . SVG Version: 2.1.4 Build 3)  -->
  <defs>
    <style>
      .st0 {
        fill: #b4b4bf;
      }

      .st1 {
        display: none;
        fill: #36915b;
      }

      .st1, .st2 {
        fill-rule: evenodd;
      }

      .st2 {
        fill: #9e9aaf;
      }

      .st3 {
        fill: #efba45;
      }
    </style>
  </defs>
  <path class="st0" d="M975.8,561.7c-26.5-24.5-50.5-48.3-68.7-68.8l1-341.4c0-28.6-15.2-56.6-35.9-90.5L993.4,0v419.2c0,37.9,17.7,62.3,48.5,95.2l-66.1,47.3h0Z"/>
  <path class="st0" d="M1314.9,452l-51.7,93c-105.3,9.9-189-69.8-186.1-177.3,1.1-42.3,15.8-84.6,45.5-112.6l88.8-83.8,107.8,84.7-156.5,152.1c34.1,49.3,80,47.9,152.2,43.9h0ZM1235.1,304.6l-58-34.4c-36.1,30.4-46.8,78-18.3,110.7l76.3-76.3h0Z"/>
  <path class="st0" d="M1747.7,279.6l-4.1,282.1h-93.4l-5.1-267.6c-.9-46.9-108-47.9-125.6-15l-2,282.5-94.9.2v-259.6c0-11.3-5.3-40.8-15.8-45.4l-49.3-21.6c25.3-24.6,58.6-53.4,91.9-68.4,25.1,3.4,57,44.6,71.1,69.7l102.2-60.2c16.9-10,36.1-10.7,54.6-5.5s31,13.2,43.8,24.3,25.7,27.6,31.5,42.9c42.7-23.6,85.5-56,124.7-66.3,59.6-15.6,105.8,50.4,105.9,96.9l.8,293.2-95.3-.3c-.4-91.2,1.7-174.1-7.5-264.5-4.7-46.7-103.9-53.1-133.5-17.5h0Z"/>
  <path class="st0" d="M833.6,434c-25.6,70.7-105.6,119.6-168.9,127.8-91.7-39.5-155.9-159.9-120.5-259.4,23.5-66.1,103.8-127.1,170.9-130.6,94.7,28,154.8,162,118.6,262.2h0ZM788.9,437.9c11.3-93.8-61.5-168.5-147.5-169.6-24.2,6.4-56.8,25.8-62,45.6-4.7,18,6,51.9,15.2,69.7,46.3,68,118.7,105.1,194.2,54.2h0Z"/>
  <path class="st0" d="M278.5,279.9c.2,11.2,20.8,30.7,36.7,45.2l-51.2,74.7c-39.4-12.2-58.8-54.1-63.5-91.4-5.1-40.7,23.7-83.6,60.9-100.8,80.9-37.4,168-8.6,220.1,64.1,36,50.1,34.5,108.8.3,161.2-86.5,132.6-266,149.4-373.7,30.6-39.3-43.3-90.8-102.5-89.9-168.9C20.6,125,171.2.7,323.6,17.4c68.8,7.5,117.9,27.1,183.2,59.9-22.9,38.4-40.3,65.2-63.5,98.1-51.6-98.7-136.2-145.1-231.8-101.8-83.2,37.7-106.4,246.5-49.3,365.6,33.5,69.8,138.5,84.3,192.1,32.3,51-49.5,61.2-136.2,30.3-197.7-10.4-20.8-38-39.2-54.8-40.7-16.2-1.4-52,22.6-51.5,46.7h.2Z"/>
  <g>
    <path class="st2" d="M1450,561.9l3-1,5,1h8l1-1,26,1,1-1h-42l-2,1ZM1245,560.9l4-1-3-1-1,2ZM1956,557.9l2-1,1,2-2,1-1-2ZM1428,561.9h7l1-1,10,1v-1l-10-1-1-2-5,1-2,3ZM1216,555.9l10,2,4,2,3-2h-5l-11-3-1,1ZM1969,551.9l2,1-1,3,2,3-1,1h-6l-1-4,3-1,2-3ZM678,550.9l3-1,1,2-3,1-1-2ZM673,550.9l3-1,1,2-3,1-1-2ZM321,549.9l2-1,1,2-2,1-1-2ZM1195,548.9l1,2h3l3,2,5-2-4-1-4,1-4-2ZM1674,549.9l3-3,4,3v2l-2,2h-3l-2-2v-2ZM654,546.9l2-1,1,2-2,1-1-2ZM240,546.9l2-1,1,2-2,1-1-2ZM269,545.9l2-1,1,2-2,1-1-2ZM231,545.9l2-1,1,2-2,1-1-2ZM1235,541.9l1-3,3,1-2,3-2-1ZM1677,538.9l2-1,1,2-2,1-1-2ZM1890,537.9l2-1,1,3-2,1-1-3ZM1171,537.9l2-1,1,2-2,1-1-2ZM219,537.9l3-1,5,2h6-2l-1-2,1-1,9,1,1,2-3,1,5,2,13,2,1,2-1,1-6-1-2,2h-3l-1-2-9-1-3-3h-8l-4-2-1-2ZM216,536.9l2-1,1,2-2,1-1-2ZM348,534.9l2-1,1,2-2,1-1-2ZM1939,532.9l3,1-2,4-2-1,1-4ZM235,533.9l2-1,1,2-2,1-1-2ZM1711,532.9l-3,1v2l3,1-2,2v2l3,2-1-2v-6l1-1-1-1ZM1218,531.9l1-1,7,1,1,3-1,1h-5l-3-2v-2ZM295,531.9l2-1,1,2-2,1-1-2ZM227,531.9l2-1,1,2-2,1-1-2ZM386,528.9l2-1,1,2-2,1-1-2ZM1886,556.9l1-2,2,1,1-2h2l-1-6-2-2,2-3,3,1v4h2l3,4v-4l-2-2v-6l1-1,3,1,1-1v-6l4-3,3,1,2-5,3,1,1,5,4,4,9,3,2,3,1-1-3-2v-2l2-1-1-3,2-1,5,3,1,3-2,3,1,1,9-3,6,5-1,2-3-2,1,4h2l2-2h3l8,3-1,2,1,5-1,1h-8l-2,3h-14l-1,1-25-1-1,1h-6l-2-2h-15l-2-2ZM192,526.9l2-1,1,2-2,1-1-2ZM189,524.9l2-1,1,2-2,1-1-2ZM179,524.9l2-1,1,2-2,1-1-2ZM1237,523.9l2-1,1,2-2,1-1-2ZM1227,523.9l4-1,1,2-4,1-1-2ZM1705,522.9l2-1,1,2-2,1-1-2ZM257,522.9l5-1,1,2-5,1-1-2ZM247,521.9l5-1,1,2-5,1-1-2ZM174,521.9l2-1,3,3-2,1-3-3ZM378,522.9l2-3,3,1-3,3-2-1ZM267,520.9l2-1,1,2-2,1-1-2ZM262,519.9l2-1,2,3-2,1-2-3ZM1728,518.9l1,1-1,8,1,1,1-5,2,1v5l-3,2-1,4,1,1,1-3,2,1-1,14,2,9v-28l-1-1,1-8-1-1v3l-2,1-1-5h-1ZM1271,518.9l2-1,1,2-2,1-1-2ZM673,518.9l2-1,1,2-2,1-1-2ZM273,518.9l2-1,1,2-2,1-1-2ZM257,518.9l2-1,1,2-2,1-1-2ZM1969,516.9l2,1v9l-1,1-2-1v-9l1-1ZM1709,517.9l2-1,2,4-3,1-1-4ZM386,517.9l2-1,1,2-2,1-1-2ZM165,517.9l3-1,1,2-3,1-1-2ZM936,516.9l2-1,1,2-2,1-1-2ZM669,514.9l2-1,1,2-2,1-1-2ZM944,513.9l2-1,1,2-2,1-1-2ZM665,513.9l3-1,1,2-3,1-1-2ZM1905,514.9l3-3h2l7,9-5,3-1-1v-5l-2-1-1,5-2,1-1-1v-7ZM1493,512.9l2-1,1,2-2,1-1-2ZM1505,509.9l3,1v5l-1,1-3-3,1-4h0ZM1501,510.9l2-1,1,2-2,1-1-2h0ZM400,510.9l2-1,1,2-2,1-1-2h0ZM1969,507.9l2,1-1,5-2-1,1-5h0ZM926,508.9l4-1,2,2v2l-3,2-3-5h0ZM403,508.9l2-1,1,2-2,1-1-2ZM651,508.9l4,1,4,3-6-5-2,1h0ZM1915,505.9l2,1-1,4-2-1,1-4ZM715,507.9l-3-1-3,4h-4v2l2-1,2,2,6-6h0ZM671,506.9l3-1,1,2-3,1-1-2ZM666,505.9l2-1,1,2-2,1-1-2ZM1968,504.9l2-1,1,2-2,1-1-2ZM931,505.9l4-3,3,4-1,1-2-1-3,1-1-2ZM601,501.9l3,3-1,3-4-2v-2l2-2ZM1702,501.9l2-1,1,2-2,1-1-2ZM781,502.9l-4,2-1-3-3,4-15,11-6,3-4,4,8-6,9-3,2-2-1-2,7-5,3,1,5-4h0ZM414,500.9l2-1,1,2-2,1-1-2ZM640,499.9l3-1,3,1,1,2-5,3-2-2v-3ZM616,497.9l-1,1,4,4v-2l-3-3ZM594,497.9l3-1,1,2-3,1-1-2ZM734,496.9l-3,2-1,3-2-2h-2l-6,6,10-4h4v-5ZM679,496.9l3-1,1,2-3,1-1-2ZM635,496.9l2-1,2,3-2,1-2-3ZM1436,494.9h-2l-1,6-3,2v8l1-1-1-1,1-5,2-1,1,2,3-2-1-1,1-2-1-5ZM1035,494.9l2-1,1,2-2,1-1-2ZM911,495.9l2-2h2l1,4-3,1-2-3ZM937,492.9l2,1-1,2,5,6-2,3-5-3-1-6,2-3ZM646,493.9l3-1,1,2-3,1-1-2ZM630,493.9l2-1,1,2-2,1-1-2ZM1727,491.9l2,1,1,8-2,2-2-1,1-2-1-7,1-1ZM759,492.9l-5,2,1,1,4-3ZM712,492.9l-5,1-2,2-3-2-3,4,7-1,2-2h3l1-2ZM658,492.9l2-1,1,2-2,1-1-2ZM1505,490.9l2,1v8l-1,1-2-1v-8l1-1ZM688,491.9l2-1,1,2-2,1-1-2ZM739,490.9l-2,2-2-1-3,2-6,1-4,3,5-1,8-4,2,2h2v-4ZM679,490.9l3-1,5,5-3,1-5-5ZM673,493.9l1-4,5,1-4,4-2-1ZM1930,489.9l2-1,1,2-2,1-1-2ZM660,489.9l2-1,1,2-2,1-1-2ZM1702,488.9l2-1,1,3-2,1-1-3ZM916,488.9l2-1,1,2-2,1-1-2ZM1129,487.9l2-1,5,2,1,2-1,1-5-1-2-3ZM1110,487.9l2-1,1,2-2,1-1-2ZM623,487.9l2-1,1,2-2,1-1-2ZM1505,485.9l2,1-1,4-2-1,1-4ZM169,486.9l2-1,1,2-2,1-1-2ZM1124,487.9l3-3,2,1-3,3-2-1ZM1431,484.9l3-1,1,3-2,1-2-3ZM642,484.9l2-1,1,2-2,1-1-2ZM612,484.9l2-1,1,2-2,1-1-2ZM915,483.9l2-1,1,2-2,1-1-2ZM755,484.9l-5,1-1-2v2l-3,3h-2l-1,2,3-1,3-3h5l1-2ZM919,482.9l2-1,1,2-2,1-1-2ZM351,482.9l2-1,1,2-2,1-1-2ZM1931,481.9l2-1,1,2-2,1-1-2ZM933,480.9l4,11-2,1-5-6-1,6,3,3,1,4-3,1-1-3h-1l1,2-1,4-4,4-9-9,3-2v-5l1-1,3,1v4l4,1v-4h-2l-1-2,3-2v-2l3-2,1-3,3-1ZM746,480.9h-5l-2,3-5,1-1-2-1,3,4,1-3,3,5-1-2-3,4-1,4-4h2ZM647,480.9l2-1,1,2-2,1-1-2ZM1662,479.9l2-1,1,2-2,1-1-2ZM786,479.9v2l-4,4,1,2-2,2-3-1,1,3-2,1h4l-1-2,4-1v-4l4-4-2-2ZM616,479.9l1-1,3,1,2,4-2,2h-2l-2-6ZM581,478.9l3,1,3,3,1,3,7,9-1,2-4-2-1-4-8-8-1-2,1-2ZM147,478.9l2-1,1,2-2,1-1-2ZM1505,476.9l2,1v7l-1,1-2-1v-7l1-1ZM922,477.9l2-1,1,2-2,1-1-2ZM453,477.9l2-1,1,2-2,1-1-2ZM1130,476.9l2-1,3,3-3,1-2-3ZM610,477.9l2-2,5,1-1,3h-5l-1-2ZM581,476.9l2-1,1,2-2,1-1-2ZM1942,473.9l2,1,1,5-1,3-3-1v-7l1-1ZM1938,473.9l1,4-3,2-1-2,1-3,2-1ZM767,474.9l-4,4h-2l-4,3v1h5l2,2-1,2-4,2,5-3h2l2,2-1-1,1-2-4-1v-4l3-2v-3ZM636,474.9l2-1,2,3-2,1-2-3ZM605,474.9l2-1,1,2-2,1-1-2ZM920,472.9l2-1,2,3-3,1-1-3ZM707,472.9l2-1,1,2-2,1-1-2ZM633,472.9l2-1,1,2-2,1-1-2ZM1504,471.9l2-1,1,3-2,1-1-3ZM741,470.9l-2,3-4-1,1-2,3-1,2,1ZM616,470.9l2-1,1,3-2,1-1-3ZM461,469.9l1,2-6,6-1-1,1-3,5-4ZM1168,469.9l2-1,1,2-2,1-1-2ZM760,469.9l-5,1v1l2,1,3-3ZM1929,468.9l2-1,1,2-2,1-1-2ZM799,468.9l2-1,1,2-2,1-1-2ZM628,468.9l2-1,4,4-2,1-4-4ZM577,467.9l2,1-1,4-2-1,1-4ZM362,468.9l2-1,3,3-3,2-2-4ZM1943,466.9l3,2-2,5-3-2v-3l2-2ZM621,467.9l1-1,4,1,2,3-3,1-4-4ZM461,467.9l2-1,1,2-2,1-1-2ZM1717,465.9l2,1v5l1,1-1,11-1,1-3-2v-13l2-4ZM1429,466.9l2-1,2,3-3,1-1-3ZM698,466.9l3-1,3,3-5,1-1-3ZM598,466.9l4-1,2,3-2,1-3-1-1-2ZM1702,464.9l3,1v5l-1,1-3-2,1-5ZM1505,464.9l2,1-1,4-2-1,1-4ZM703,464.9l3-1,1,2-3,1-1-2ZM1716,463.9l2-1,1,2-2,1-1-2ZM1432,463.9l2-1,1,3-2,1-1-3ZM1266,463.9l1-1h5l1,3-4,1-3-3ZM694,463.9l2-1,1,2-2,1-1-2ZM611,463.9l3-1,3,4-5,2-1-5ZM675,462.9l2-1,1,2-2,1-1-2ZM465,462.9l2-1,1,3-2,1-1-3ZM571,461.9l2-1,4,5-2,1-4-5ZM148,463.9l4,5-1-1,1-2,4,3-4-7h-1l-1,3-2-1ZM1658,459.9l2,1v7l-1,1-2-1v-7l1-1ZM1293,460.9l2-1,1,2-2,1-1-2ZM1128,460.9l4-1,4,5,7,5v2l-3,2-2-4h-3l-4-3-3-6ZM755,459.9l1,2-5,3-1-2,5-3ZM679,460.9l3-1,1,2-3,1-1-2ZM609,462.9l2-3,2,1-2,3-2-1ZM601,460.9l2-1,4,2,1,2-2,1-4-2-1-2ZM1925,459.9l2-1,1,2-2,1-1-2ZM780,459.9l-1,2-5,3-2-1,2-3,4-2,2,1ZM1702,458.9l2-1,1,3-2,1-1-3ZM1310,457.9l1,2-3,6-2,2h-2l-2-2v-2l1-1,3,1v-1l-3-1-1-2,4-2h4ZM770,458.9l3-1,1,3-3,1-1-3ZM613,458.9l2-1,1,2-2,1-1-2ZM598,458.9l2-1,1,2-2,1-1-2ZM1943,456.9l2-1,1,2-2,1-1-2ZM925,455.9h2l2,2-2,8-2-1v-5l-1-1,1-3ZM593,456.9l3-1,2,5-3,1-2-5ZM472,455.9l1,2-5,4-1-2,5-4ZM1497,455.9l2-1,1,2-2,1-1-2ZM1091,455.9v3l4,3-1-3-3-3ZM928,455.9l2-1,1,2-2,1-1-2ZM916,455.9l2-1,1,3-2,1-1-3ZM152,455.9l9,15v3l7,10-2,1-6-5,5,7,3,2,2,4,1-4,7,3,1,4,7,2,7,6-1,2,1,1,5,1v-2l2-1,2,2v3l3,2h2l-4-2,1-2,5,1,1,4h3l-2-2,3-1,11,4,4-1,6,1-11-2-7-3-1-2,2-1-4-2-1,3-6-2-2-2-4-1-2-5-6-1-4-4h-4l-3-3v-3l-10-9-4,1-5-5,1-2-4-7,2,4-2,1-3-4,1-3-3-1,1-3-2-2h-2ZM1433,453.9l1,4-2,6-2,1-1-1,1-5-1-4,4-1ZM664,454.9l1-1,5,1,3,3h2l2,3-1,1-5-1-6-4-1-2ZM602,454.9l2-1,1,3-2,1-1-3ZM582,453.9l5,1,2,2-1,2h-2l-2,5-3-2,1-2-1-5,1-1ZM1662,453.9l2-1,1,2-2,1-1-2ZM1299,455.9l2-3,3,1-3,3-2-1ZM1962,452.9l2-1,1,2-2,1-1-2ZM1930,452.9l2-1,1,2-2,1-1-2ZM1926,451.9l2,1-1,4-3-2,2-3ZM1131,452.9l1-1,3,1,1,3-3,2-2-5ZM401,452.9l2-1,1,2-2,1-1-2ZM374,454.9l2-3,2,1-2,3-2-1ZM1731,451.9l-1,3-3-1,2,1,3,5-3,3,3,4-3,5v3h2l1,2-3,1v8l-1,1-2-1v-4,8l-2,1,2,12,2,2,6,1-2-2v-6l3-1-3-4,1-3-1-18,2-4v-3l-2-5,1-7-2-1ZM1445,450.9l2,1-1,4-2-1,1-4ZM467,451.9l2-1,1,2-2,1-1-2ZM475,449.9l1,3-4,3-1-2,4-4ZM75,450.9l2-1,1,2-2,1-1-2ZM1135,449.9l2-1,1,2-2,1-1-2ZM924,449.9l2-1,1,2-2,1-1-2ZM781,449.9l2-1,1,2-2,1-1-2ZM663,449.9l2-1,3,4-2,1-3-4ZM655,449.9l1-1,5,1,1,3-1,1-4-1-2-3ZM651,448.9l1,4-3,2-1-4,3-2ZM1661,447.9l2-1,2,3-3,1-1-3ZM657,447.9l4-1,1,2-4,1-1-2ZM69,447.9l2-1,1,2-2,1-1-2ZM784,446.9l3-1,1,4-2,1-2-4ZM568,446.9l2-1,2,2v2l-2,1-2-4ZM597,444.9l3,2,2,4-1,2-4-3-1-3,1-2ZM381,444.9l1,2-2,4-2,1-1-3,4-4ZM1125,446.9l3-3,4,3v2l-1,1-2-1-3,1-1-3ZM927,444.9l2-1,1,2-2,1-1-2ZM583,444.9l3-1,6,7,1,3-2,1-8-7v-3ZM661,443.9l2-1,5,2,1,2-4,1-4-4ZM647,443.9l2-1,1,2-2,1-1-2ZM622,443.9l2-1,1,2-2,1-1-2ZM575,443.9l4-1,5,9-3,1-1-3v2l-2,1-1-4-2-2v-3ZM1701,444.9l3-3,2,1-3,3-2-1ZM1116,442.9l-4,1,2,4,1-2h2l-1-3ZM924,442.9l2-1,1,2-2,1-1-2ZM786,443.9l2-2,3,1v2l-2,2-3-3ZM917,440.9l3,3,2,8-1,3-2-2-1,1-2-1v-3l2-1-2-6,1-2ZM1962,440.9l2-1,1,3-2,1-1-3ZM589,440.9l4-1,1,2-4,1-1-2ZM1925,439.9l2-1,1,3-2,1-1-3ZM927,439.9l2-1,1,2-2,1-1-2ZM1432,437.9l1,1v7l-1,1,1,4-3,2-1-1v-7l1-1v-5l2-1ZM789,438.9l2-1,1,2-2,1-1-2ZM583,437.9l2,1-1,4-2-1,1-4ZM564,438.9l2-1,1,2-2,1-1-2ZM125,438.9l2-1,1,2-2,1-1-2ZM1658,436.9l2,1-1,3,1,3v13l-1,1-2-1-1-5,1-5-1-6,2-4ZM1131,437.9l2-1,3,3,1,3-4,2-1-1,1-3-2-1v-2ZM634,437.9l2-1,1,2-2,1-1-2ZM602,436.9l2-1,1,2-2,1-1-2ZM484,435.9l1,1-1,5-3,1,1,2-4,5h-2l-1-1,6-11,3-2ZM638,435.9l2-1,1,2-2,1-1-2ZM386,434.9l1,2-2,4-3,2-1-3,5-5ZM916,434.9l2-1,1,2-2,1-1-2ZM623,434.9l2-1,2,3-2,1-2-3ZM586,434.9l2-1,1,2-2,1-1-2ZM1451,433.9l3-1,1,3-2,1-2-3ZM925,432.9l3,1-2,5-2-1,1-5ZM561,433.9l2-1,2,4-2,1-2-4ZM1111,432.9l-1,2,2,4,2-2-3-4ZM620,432.9l2-1,1,2-2,1-1-2ZM584,432.9l2-1,1,2-2,1-1-2ZM60,432.9l2-1,1,2-2,1-1-2ZM1925,431.9l2-1,1,2-2,1-1-2ZM1431,430.9l3,3-2,4-2-1v-5l1-1ZM642,431.9l2-1,1,2-2,1-1-2ZM610,431.9l2-1,1,2-2,1-1-2ZM556,431.9l2-1,1,2-2,1-1-2ZM385,431.9l2-1,1,2-2,1-1-2ZM122,430.9l2,1,1,3-1,2-3-3,1-3ZM1660,429.9l2,1v5l-1,1-3-2,2-5ZM808,429.9l1,2-1,3-2,1-1-3,3-3ZM629,430.9l2-1,2,3-2,1-2-3ZM1729,429.9l2-1,2,3-2,1-2-3ZM57,429.9l2-1,1,2-2,1-1-2ZM601,428.9l2-1,1,2-2,1-1-2ZM579,428.9l2-1,1,2-2,1-1-2ZM1963,427.9l2-1,1,2-2,1-1-2ZM923,427.9l5-1,1,3-2,1-3-1-1-2ZM1496,425.9l2,1v7l-1,1-2-1v-7l1-1ZM1454,424.9l2,1-1,4-2-1,1-4ZM627,425.9l2-1,2,3-2,1-2-3ZM617,425.9l3-1,3,2h3l2,6-2,1-3-4-5-2-1-2ZM633,424.9l2-1,6,6-1,1-3-1-4-5ZM606,427.9v-2l2-2,4,1-1,3-3,1-2-1ZM1496,423.9l2-1,1,2-2,1-1-2ZM1431,422.9l2,1-1,5-2-1,1-5ZM601,423.9l2-1,1,2-2,1-1-2ZM562,423.9l2-1,2,3-2,1-2-3ZM931,421.9l3,2-2,4-3-1,2-5ZM391,421.9l1,2-2,4-2,1-1-3,4-4ZM1723,420.9l3,1v5l-1,1-3-2,1-5ZM1452,421.9l2-1,1,2-2,1-1-2ZM624,421.9l2-1,1,2-2,1-1-2ZM599,421.9l2-1,1,2-2,1-1-2ZM597,420.9l2,1,1,3-1,2-3-2,1-4ZM1964,419.9l2,1-1,5-2-1,1-5ZM1925,420.9l2-1,1,2-2,1-1-2ZM1660,419.9l2,1v8l-1,1-2-1-1-6,2-3ZM603,420.9l2-1,1,2-2,1-1-2ZM561,420.9l2-1,1,2-2,1-1-2ZM552,419.9l3,1,3,7-1,2h-2l-3-4-1-4,1-2ZM1936,419.9l2-1,1,2-2,1-1-2ZM1496,419.9l2-1,1,2-2,1-1-2ZM592,419.9l2-1,1,3-2,1-1-3ZM485,419.9l2-1,1,2-2,1-1-2ZM1117,417.9l3,3,4,13,1,1,1-1v-6l1-1,2,1,3,6-1,4h-5l2,2-1,4-5-3v-3l-2,1-3-1,2-3h2l-3-7v-4l-2-3,1-3ZM607,418.9l2-1,3,5-2,1-3-5ZM1151,417.9l2-1,2,4-2,1-2-4ZM611,417.9l2-1,10,6,1,2-2,1-7-3-4-5ZM551,417.9l2-1,1,2-2,1-1-2ZM1491,414.9l2,1v6l-1,1-3-1,2-7ZM1484,415.9l2-1,1,2-2,1-1-2ZM609,415.9l2-1,1,2-2,1-1-2ZM1452,414.9l3-1,1,4-3,1-1-4ZM909,414.9l2-1,1,2-2,1-1-2ZM838,413.9l2,2-2,7-2,1-1-5,2-2-1-2,2-1ZM826,414.9l2-1,1,2-2,1-1-2ZM123,414.9l2-1,1,3-2,1-1-3ZM558,413.9l2-1,2,4-2,1-2-2v-2ZM1658,412.9l2-1,1,2-2,1-1-2ZM1082,411.9l2-1,1,2-2,1-1-2ZM915,411.9l2-1,1,2-2,1-1-2ZM618,411.9l1-1,4,1,6,8-2,1-9-9ZM554,410.9l3,3-1,3-2-1-1-3,1-2ZM1934,409.9l2,1-1,4-2-1,1-4ZM837,410.9l2-1,1,2-2,1-1-2ZM395,409.9l1,1-1,5-4,4-1-2,2-3v-3l3-2ZM1937,409.9l2-1,1,2-2,1-1-2ZM578,409.9l2-1,1,2-2,1-1-2ZM557,409.9l2-1,1,3-2,1-1-3ZM449,409.9l-3,7-1,6,4-10v-3ZM1449,409.9l4-2,2,1-1,3h-4l-1-2ZM552,408.9l2-1,1,2-2,1-1-2ZM46,408.9l2-1,1,2-2,1-1-2ZM1478,406.9l2,1-1,4-3-1,2-4ZM1443,405.9l1,1-1,3,1,7-2,4v10l-2,1-3-3,2-3-1-6,2-2v-3l-2-2v-4l5-3ZM1451,405.9l2-1,1,2-2,1-1-2ZM44,405.9l2-1,1,2-2,1-1-2ZM1943,403.9l2,1-1,5,1,8-1,1-3-1v-12l2-2ZM1931,404.9l2-1,1,3-2,1-1-3ZM931,404.9l2,2-1,13-1,1-2-1-3,1-1-1-1,3-2-2-3,1-1,7-2,1-1-3-2-1v-2l3-1v-3l3-4,3,2v-12l2-2,3,2v2l-2,1v4h2l1,2-2,1,3,1-1-6,1-5,2-1ZM836,403.9l1,1-1,6-5,3-1-2,4-7,2-1ZM111,404.9l2-1,1,2-2,1-1-2ZM1464,403.9l2-1,1,2-2,1-1-2ZM1106,403.9l1,5,2-2-3-3ZM919,401.9l2,1-1,4-2-1,1-4ZM575,402.9l2-1,1,2-2,1-1-2ZM1933,403.9l2-3,2,1-2,3-2-1ZM1658,401.9l2-1,1,2-2,1-1-2ZM556,400.9l2,1,1,4-1,3-3-3,1-5ZM565,400.9l2-1,1,2-2,1-1-2ZM1490,399.9l2-1,1,2-2,1-1-2ZM1451,399.9l2-1,1,2-2,1-1-2ZM928,399.9l2-1,1,3-2,1-1-3ZM484,398.9l1,3-2,3h-2l-1-3,4-3ZM109,398.9l2-1,2,4-2,1-2-2v-2ZM39,398.9l2-1,2,3-2,1-2-3ZM1941,397.9l2-1,1,3-2,1-1-3ZM574,397.9l2-1,1,2-2,1-1-2ZM918,396.9l2-1,1,2-2,1-1-2ZM564,396.9l2-1,1,2-2,1-1-2ZM399,395.9l1,4-2,5-2,1-1-4,2-5,2-1ZM1934,396.9l2-2,2,1-1,3h-2l-1-2ZM1658,395.9l2-1,1,2-2,1-1-2ZM1120,395.9l2-1,1,2-2,1-1-2ZM573,394.9l2-1,1,2-2,1-1-2ZM1730,392.9l2,1-1,4-2-1,1-4ZM481,393.9l2-1,2,3-2,1-2-3ZM1943,390.9l2,1-1,5-2-1,1-5ZM563,391.9l2-1,1,2-2,1-1-2ZM35,391.9l2-1,1,2-2,1-1-2ZM1496,390.9l2-1,1,2-2,1-1-2ZM1119,390.9l2-1,1,2-2,1-1-2ZM922,389.9l3,3-2,4-2-1,1-3-1-2,1-1ZM1473,388.9l2,1-1,4-2-1,1-4ZM482,389.9l2-1,1,2-2,1-1-2ZM506,388.9l-1,5-1,1-2-1v1l3,1,1-7ZM401,387.9l1,4-1,3-2,1-2-4,4-4ZM1441,386.9h2l2,3-1,15-1,1-3-2v-3l-2-1,2-2,1-5-1-5,1-1ZM1104,387.9l2,8-1,4,2,1,1-4-2-1v-8h-2ZM494,387.9l2-1,1,2-2,1-1-2ZM257,387.9l2-1,1,2-2,1-1-2ZM1937,386.9l2-1,1,2-2,1-1-2ZM1964,384.9l1,3-3,3-1-2,1-3,2-1ZM1727,384.9l2,1-1,4-2-1,1-4ZM32,385.9l2-1,1,2-2,1-1-2ZM839,383.9l2,1-1,4-3-1,2-4ZM562,384.9l2-1,1,3-2,1-1-3ZM796,382.9l2,1,1,7,2,2-2,3-2-1-1-3v-6l-1-1,1-2ZM484,383.9l2-1,1,2-2,1-1-2ZM921,382.9l2-1,1,2-2,1-1-2ZM567,382.9l2-1,1,2-2,1-1-2ZM553,381.9l2-1,1,3-2,1-1-3ZM547,380.9l2,1-1,4-2-1,1-4ZM240,381.9l2-1,1,2-2,1-1-2ZM1937,380.9l2-1,1,2-2,1-1-2ZM1442,378.9l2,1-1,4-2-1,1-4ZM1723,377.9l2,1v10l1,2,3,1v8l-1,1-3-1v5l2-1,2,1v14l-1,1-2-1v-7h-1l1,3-2,2-2-1v-6l-1-1,1-2-1-16,1-1v-11l1-1ZM1189,378.9l2-1,1,2-2,1-1-2ZM1091,377.9l1,2-1,3-2,1-1-3,3-3ZM795,377.9l2,1-1,4-2-1,1-4ZM556,378.9l2-1,1,3-2,1-1-3ZM227,377.9l2-1,1,2-2,1-1-2ZM921,376.9l2-1,1,2-2,1-1-2ZM403,375.9l1,5-2,6-2,1-1-1,2-10,2-1ZM102,375.9l2,1,3,6-1,2-5-5,1-4ZM1431,375.9l4-1,1,3-2,1-3-3ZM1092,375.9l3-1,1,2-3,1-1-2ZM544,375.9l2-1,3,4-3,2-2-5ZM1938,373.9l2,1-1,4-2-1,1-4ZM830,374.9l2-1,1,2-2,1-1-2ZM793,374.9l2-1,1,3-2,1-1-3ZM262,376.9l1-3,3,1-2,3-2-1ZM1727,372.9l2,1v9l-1,1-2-1v-9l1-1ZM813,373.9l2-1,1,2-2,1-1-2ZM234,373.9l3-1,1,2-3,1-1-2ZM1472,372.9l2-1,1,3-2,1-1-3ZM920,372.9l3-1,1,2-3,1-1-2ZM123,371.9l2,1-1,4-2-1,1-4ZM100,372.9l2-1,1,3-2,1-1-3ZM1196,371.9l2-1,1,2-2,1-1-2ZM499,370.9l2,5-2,6-2,1-1-1v-5l1-1-1-3,3-2ZM1498,370.9l2-1,1,2-2,1-1-2ZM230,372.9l3-3,2,1-3,3-2-1ZM220,370.9l2-1,5,7-2,1-5-7ZM103,370.9l2-1,1,2-2,1-1-2ZM967,369.9l2-1,1,2-2,1-1-2ZM912,369.9l2-1,1,2-2,1-1-2ZM831,368.9l2,1-1,4-2-1,1-4ZM122,369.9l2-1,1,2-2,1-1-2ZM484,368.9l2-1,1,2-2,1-1-2ZM824,367.9l2-1,1,2-2,1-1-2ZM403,366.9l2,1-1,4-2-1,1-4ZM21,366.9l2-1,1,3-2,1-1-3ZM1935,364.9l2-1,1,2-2,1-1-2ZM544,363.9l2,1v6l-1,1-2-1v-6l1-1ZM475,364.9l2-1,1,2-2,1-1-2ZM935,363.9l2-1,1,2-2,1-1-2ZM262,364.9l3-2,2,1-1,3h-3l-1-2ZM222,362.9l2-1,1,2-2,1-1-2ZM1498,361.9l2-1,1,2-2,1-1-2ZM208,361.9l2-1,1,2-2,1-1-2ZM1731,359.9l2,1-1,4-2-1,1-4ZM1431,360.9l2-1,1,2-2,1-1-2ZM235,360.9l3-1,1,2-3,1-1-2ZM215,360.9l2-1,1,2-2,1-1-2ZM115,359.9l3,3,1,4-1,3-2-1-2-5,1-4ZM543,359.9l2-1,1,2-2,1-1-2ZM1963,357.9l2,1v17l-1,1-3-3,1-15,1-1ZM1944,357.9l2,1-1,5-2-1,1-5ZM849,358.9l-2,3,2,5-1,10,2,5-1-23ZM1217,356.9l1,2-7,6-1-2,7-6ZM934,357.9l2-1,3,3-3,1-2-3ZM496,357.9l-1,6,2,1-1-2,1-5h-1ZM486,357.9l2-1,1,2-2,1-1-2ZM282,354.9l1,2-7,7-1-1,1-3,6-5ZM231,355.9l2-1,1,2-2,1-1-2ZM255,354.9l2-1,1,2-2,1-1-2ZM212,354.9l2-1,1,2-2,1-1-2ZM1431,353.9l2-1,1,3-2,1-1-3ZM1218,355.9l2-3,2,1-2,3-2-1ZM935,353.9l2-1,1,2-2,1-1-2ZM120,352.9l2,1v4l3,7-1,3h-2l-2-3v-6l-1-1,1-5ZM1499,351.9l2,1v5l-1,1-2-1v-5l1-1ZM229,352.9l2-1,1,2-2,1-1-2ZM16,352.9l2-1,1,2-2,1-1-2ZM811,351.9l1-1,4,1,2,2,2,6-2,1-2-5-4-1-1-3ZM240,350.9l2,1-1,4-2-1,1-4ZM1944,348.9l2,1v6l-1,1-2-1v-6l1-1ZM284,348.9l2,1-1,4-2-1,1-4ZM113,348.9l2,1-1,4-2-1,1-4ZM57,349.9l2-1,1,2-2,1-1-2ZM1220,348.9l2-1,1,2-2,1-1-2ZM922,348.9l2-1,1,2-2,1-1-2ZM807,348.9l5-1,1,2-5,1-1-2ZM100,347.9l2-1,1,2-2,1-1-2ZM815,345.9l2,1-1,5-2-1,1-5ZM111,346.9l2-1,1,2-2,1-1-2ZM1107,345.9l2-1,1,2-2,1-1-2ZM42,345.9l3-1,1,4-2,1-2-2v-2ZM1658,344.9l2-1,1,2-2,1-1-2ZM50,344.9l2-1,1,2-2,1-1-2ZM813,343.9l2-1,1,2-2,1-1-2ZM238,343.9l1-1,4,1,2,2v2l-3,1-1-3h-2l-1-2ZM216,343.9l2-1,3,1,7,14,6,6-1,2,1,3-1,1-4-1-2,3h-2l-2-3-5-1,1-2h7l2-2-5-4,2-2-1-2-3,1-3-3v-2l2-1v-3l-1-1-3,1-1-1,1-3ZM15,342.9l2,1-1,5-2-1,1-5ZM1449,342.9l2-1,1,2-2,1-1-2ZM911,342.9l2-1,1,2-2,1-1-2ZM228,342.9l2-1,1,2-2,1-1-2ZM1499,340.9l2,1-1,5-2-1,1-5ZM923,340.9l2,1-1,4-3-2,2-3ZM552,339.9l4,2,1,6,2,2v3l-3,1v4l2-2,2,1,1,9-2,2-2-1,1,2,2-1,2,2,2,9-1,4-3-2-1-8-3,4h-6l-2-3v-5l1-1-1-5,1-1,2,1v-1h-2l-2-3,1-1,4,2,2-1-6-3,1-2,4,1-1-3,1-9-2-1,1-2ZM467,339.9l2,1-1,5-2-1,1-5ZM457,340.9l2-1,2,2v2l-2,1-2-4ZM804,338.9l3,3,1-3,2,1v3l-3,3v7l4,3,1,3-3,1,1,1-1,3-2-1-3-12-2-1,1-10,1-1ZM48,339.9l2-1,1,2-2,1-1-2ZM224,338.9l2-1,1,2-2,1-1-2ZM214,338.9l4-1,1,3-4,1-1-3ZM1965,336.9l1,1v14l-1,3-2,1-1-1,1-3v-14l2-1ZM1432,336.9l2,1-1,4-2-1,1-4ZM453,337.9l2-1,1,3-2,1-1-3ZM42,336.9l2,1,1,4-1,2h-2l-2-3,2-4ZM1658,336.9l2-1,1,2-2,1-1-2ZM832,336.9l2-1,1,2-2,1-1-2ZM1935,334.9l2,1v6l2,7-1,2,1,8-2,5-2-1v-7l-1-1v-5l1-1-1-13,1-1ZM1230,334.9l4,4-7,3,1,3-2,1-2-5,6-6ZM1201,337.9l2-3,2,1-2,3-2-1ZM936,334.9l2,1v8l-1,1-2-1v-8l1-1ZM837,335.9l2-1,1,3-2,1-1-3ZM425,335.9l2-1,1,3-2,1-1-3ZM212,335.9l4-1,1,2-4,1-1-2ZM1938,333.9l2-1,1,2-2,1-1-2ZM1499,333.9l2-1,1,2-2,1-1-2ZM473,332.9l2,1v5l3,4,1-3,2,1-1,3,1,3-4,1v2l3,2-3,5-7-7v-3l2-2-1-10,2-2ZM1235,332.9l2-1,1,2-2,1-1-2ZM458,331.9l2,1,1,4-1,2-3-2,1-5ZM222,332.9l2-1,3,4-3,1-2-4ZM1964,330.9l2,1-1,4-2-1,1-4ZM1437,331.9l2-1,1,2-2,1-1-2ZM1231,331.9l2-1,1,2-2,1-1-2ZM935,331.9l2-1,1,2-2,1-1-2ZM831,331.9l2-1,1,2-2,1-1-2ZM262,330.9l3,1,1,3-2,2v4l-5,5-3-3v-2l3-4,1-5,2-1ZM213,330.9l2-1,1,3-2,1-1-3ZM11,329.9l2,1,1,4-1,3-3-2v-5l1-1ZM290,328.9l-5,1,4,3-3,3-1,4-2-1-1-4,2,6,4-3,2-5-1-1,1-3ZM1431,327.9l2-1,1,3-2,1-1-3ZM821,327.9l2-1,1,2-2,1-1-2ZM403,327.9l2-1,1,3-2,1-1-3ZM1938,326.9l2-1,1,2-2,1-1-2ZM1249,325.9l1,2-5,4-1-2,5-4ZM556,325.9l1,1-1,13-2,1-2-3,1-9,3-3ZM489,325.9l2,1,2,5-1,5-3-1,1-3-2-5,1-2ZM1964,324.9l2-1,1,2-2,1-1-2ZM44,323.9l2,1-1,4-2-1,1-4ZM38,323.9h2l2,3v8l-1,1-3-3-1-4,1-5ZM1442,322.9l2,1-1,4-2-1,1-4ZM1434,323.9l2-1,1,2-2,1-1-2ZM224,323.9l-2,2,1,3,2-1-2-2,1-2ZM1658,321.9l2,1v6l-1,1-2-1v-6l1-1ZM1226,321.9l2,8,2,2-1,1-6-1-2,2h-3l-3,3-1-3,12-12ZM482,321.9l3,1v6l-1,1-2-1-1-3,1-4ZM1944,320.9l2,1v18l-1,1,1,7-1,1-2-1-1-3,1-2-1-1v-11l2-10ZM504,321.9l-1,1,4,5-1-6h-2ZM487,321.9l2-1,1,2-2,1-1-2ZM935,319.9l3,1v9l-1,1-3-2,1-2-1-6,1-1ZM468,320.9l2-1,2,3-2,1-2-3ZM464,319.9l2,1v4l2,2v7l-1,1-2-1-1-3v-5l-1-1,1-5ZM42,320.9l3-1,1,3-2,1-2-3ZM833,318.9l2,1,4,11-1,4-2-1-2-4v-4l-2-4,1-3ZM1442,317.9l3,1-2,4-3-1,2-4ZM479,318.9l2-1,1,3-2,1-1-3ZM445,318.9l2-1,1,2-2,1-1-2ZM1943,317.9l2-1,1,2-2,1-1-2ZM928,317.9l2-1,1,2-2,1-1-2ZM922,316.9l2,1-1,5-2-1,1-5ZM556,317.9l2-1,1,3-2,1-1-3ZM242,317.9l2-1,1,2-2,1-1-2ZM1436,316.9l3-1,1,3-2,1-2-3ZM1432,315.9l2,1v8l-1,1-2-1v-8l1-1ZM1225,315.9l2-1,1,2-2,1-1-2ZM115,314.9l2,1-1,4-2-1,1-4ZM60,315.9l-1,8,1,5,2,3,1-2-2-3v-9l-1-2ZM835,314.9l2-1,1,2-2,1-1-2ZM552,314.9l2-1,1,2-2,1-1-2ZM463,313.9l2,1-1,4-2-1,1-4ZM36,313.9l3,2,1,5-1,3-2-1-2-5,1-4ZM4,314.9l3-1,2,1,3,12-1,2-3-2-1-6-4-2,1-4ZM467,313.9l2-1,1,2-2,1-1-2ZM1438,311.9l2-1,1,2-2,1-1-2ZM982,310.9l2-1,1,3-2,1-1-3ZM189,310.9l2-1,1,3-2,1-1-3ZM1655,309.9l2-1,1,2-2,1-1-2ZM439,308.9l2-1,1,2-2,1-1-2ZM490,307.9l2-1,1,2-2,1-1-2ZM283,307.9l6,4,1-2-1-2-3,1-3-1ZM1658,306.9l2-1,1,2-2,1-1-2ZM40,306.9l2-1,1,2-2,1-1-2ZM1432,304.9l2,1v7l-1,1-2-1v-7l1-1ZM399,304.9l2-1,1,3-2,1-1-3ZM260,303.9l3,1v5l-1,1-2-1-1-3,1-3ZM263,303.9l2-1,2,2v2l-3,1-1-4ZM982,302.9l2-1,1,2-2,1-1-2ZM936,300.9l2,1v16l-1,1-3-2v-13l2-3ZM826,300.9l3,3-1,3-2-1-1-3,1-2ZM924,299.9l1,3-3,3-1-4,3-2ZM398,300.9l2-1,1,2-2,1-1-2ZM257,300.9l2-1,1,2-2,1-1-2ZM110,300.9l2-1,1,2-2,1-1-2ZM487,300.9l2-2,2,1-1,3h-2l-1-2ZM908,298.9l2-1,1,3-2,1-1-3ZM420,297.9l3,2v5l-1,1-3-2v-5l1-1ZM266,298.9l2-1,2,3-2,1-2-3ZM1665,295.9l2-1,1,2-2,1-1-2ZM1236,296.9l2-2,2,1-1,3h-2l-1-2ZM495,295.9l3,5-1-5h-2ZM920,294.9l3-1,1,2-3,1-1-2ZM918,293.9l1,1v11l-1,1,1,8,3-3,2,1v3l-3,1-2,3v8l1,3h1v-7l1-1,3,1-1,5,1,11-2,1-2-2,1-5-2,1,1,15-2,8,3,3-3,2v19l-3,3-1-1,1-2v-11l-1-1,1-13-3-1,3-9-1-1v-5l-4-1,1-2h2l1-4-1-4,2-4v-3l-1-1v-11l-1,2-3-1v-9l1-4,3-1,1-3,2-1ZM1659,293.9l2-1,2,3-2,1-2-3ZM449,293.9l3-2,2,2v2l-4,1-1-3ZM106,291.9l2,1-1,4-2-1,1-4ZM1280,290.9l1,2-10,9-1-3,10-8ZM1274,291.9l2-1,1,2-2,1-1-2ZM1233,291.9l3-1,2,3-4,2-1-4ZM418,291.9l2-1,1,2-2,1-1-2ZM268,291.9l2-1,1,2-2,1-1-2ZM908,290.9l2-1,1,2-2,1-1-2ZM826,289.9l3,1,1,5,2,1,2,7,4,6v2l-3,2-2-1-8-20,1-3ZM439,290.9l2-1,1,2-2,1-1-2ZM1276,289.9l2-1,1,2-2,1-1-2ZM822,288.9l2,1,3,9-1,2-2-1-3-8,1-3ZM452,289.9l2-1,1,2-2,1-1-2ZM395,289.9l2-1,1,2-2,1-1-2ZM1243,288.9l2-1,1,2-2,1-1-2ZM963,287.9l3,2-2,5-2-1v-5l1-1ZM936,287.9l2,1v6l-1,1-2-1v-6l1-1ZM803,288.9l2-1,1,3-2,1-1-3ZM1268,287.9l2-1,1,2-2,1-1-2ZM448,287.9l2-1,1,2-2,1-1-2ZM1657,285.9l3,2,1,3-1,2-3-2-1-3,1-2ZM1278,287.9l3-2,2,4-2,1-3-3ZM1227,286.9l2-1,1,2-2,1-1-2ZM104,286.9l2-1,2,4-2,1-2-2v-2ZM1430,284.9l2,1-1,5-2-1,1-5ZM1231,285.9l2-1,2,3-3,1-1-3ZM801,285.9l2-1,1,2-2,1-1-2ZM1722,283.9l2,1,1,6-2,2-2-1v-7l1-1ZM1662,283.9l2,1,2,6-1,2-5-4v-3l2-2ZM1224,284.9l2-1,1,2-2,1-1-2ZM908,284.9l2-1,1,3-2,1-1-3ZM429,284.9l3-1,2,2v2l-2,1-3-4ZM1637,283.9l2-1,1,2-2,1-1-2ZM935,283.9l2-1,1,2-2,1-1-2ZM916,282.9l2,1v8l-1,1-2-1v-8l1-1ZM823,283.9l2-1,3,5-3,1-2-5ZM392,283.9l2-1,2,4-2,1-2-2v-2ZM1731,281.9l3,1-2,6-2-1v-5l1-1ZM1651,281.9l5,5v3l3,4-1,5-4-2,2,3,1,5-1,2-2-1-5-14-4-6,2-2,3,3,1-5ZM962,282.9l2-1,1,2-2,1-1-2ZM799,281.9l2-1,1,2-2,1-1-2ZM4,279.9l2,1-1,8,1,1,1,17,1,1-1,3-4-3-1-25,2-3ZM1636,279.9l2-1,3,3-4,1-1-3ZM1722,278.9l2-1,1,2-2,1-1-2ZM974,278.9l-1,3,1,10,1-1-1-1v-11ZM1655,276.9l2,1,1,4-1,2-3-3,1-4ZM230,276.9l1,2-2,2v3l-2,1-1-4,4-4ZM1290,276.9l2-1,1,2-2,1-1-2ZM216,276.9l2-1,1,2-2,1-1-2ZM1638,274.9l2-1,1,2-2,1-1-2ZM592,302.9l7-8,17-12,13-5,18-4,15-1,1,1h11l1,1,10,1,18,6,16,8,9,6,11,10h2l17,16,1,3,9,9,8,13,4,4v2l10,18,1,5,3,4,3,19,1-2,2,1,1,6-2,2,2,2-1,4,1,5-3,6-2-1v-6l-3,11-2,2-1,4-5,4,2-2,2,2-6,7-17,10-13,4-2-2h-7l-5,2h-13l-2,1-1-1h-11l-1-1-16-2-22-8-15-9-4-1-3-3-3-1-1-2-10-6-18-17-1,1-3-1-5-7,1-4-4-1-4-4v-5l-5-9-3-3v-2l-7-14v-4l-2-3-3-12,1-20,8-17ZM1735,276.9v-2l3-3,5,1-1,3-3-1-2,3-2-1ZM430,272.9l3-1,1,2-3,1-1-2ZM6,271.9l1,5-3,2-1-5,3-2ZM1726,270.9l2,1-1,4-2-1,1-4ZM434,271.9l2-1,1,2-2,1-1-2ZM422,270.9l2-1,1,2-2,1-1-2ZM1968,269.9l2-1,2,4-2,1-2-4ZM1648,269.9l2-1,1,2-2,1-1-2ZM1436,269.9l2-1,1,2-2,1-1-2ZM818,268.9l2,1v2l2,2-1,3-2-1-2-4,1-3ZM748,269.9l1-1,3,1,5,7-1,1-5-1-3-7ZM1633,268.9l2-1,3,3v2l-2,1-3-5ZM1420,268.9l2-1,1,2-2,1-1-2ZM437,268.9l3-1,1,3-2,1-2-3ZM385,267.9l2,1,4,7-1,2-4-3-2-5,1-2ZM218,268.9l2-1,1,2-2,1-1-2ZM4,268.9l2-1,1,2-2,1-1-2ZM1743,267.9l3-1,3,3-3,2-3-2v-2ZM915,267.9l2-1,1,2-2,1-1-2ZM815,267.9l2-1,1,2-2,1-1-2ZM787,267.9l2-1,2,2v2l-2,1-2-2v-2ZM27,265.9l2,1-1,5-2-1,1-5ZM1182,264.9l3,2,5,1,10,7,5,2,4,4,3,1,6,7,5,3-6-7,1-2h3l9,9-1,4-2-2h-2l10,10-17,17,2,1-1,3-8,8-4,1-1-2-4,3-5,6h-2l-15,13v2l-6,6-3,1v2l-6,4-7,7-3,1-5-8v-6l-2-3v-5l-3-7,1-9-1-1,1-19,2-4,1-9,6-17,4-4,3-6,12-11,5-3h3ZM455,264.9l4,4-2,3-4-3v-2l2-2ZM1648,264.9l2-1,1,2-2,1-1-2ZM1736,263.9l2-1,2,3-3,2-1-4ZM1313,263.9l2-1,1,2-2,1-1-2ZM470,263.9l2-1,1,2-2,1-1-2ZM210,263.9l2-1,1,2-2,1-1-2ZM1745,262.9l2-1,2,4-2,1-2-4ZM1637,262.9l2-1,4,6-2,1-4-4v-2ZM1264,263.9l3-2,2,2v2l-3,1-2-3ZM787,262.9l2-1,1,2-2,1-1-2ZM761,262.9l3-1,3,4-2,1-4-4ZM1434,260.9l3,2,1,3-1,3-2-1v-2l-2-2,1-3ZM457,259.9l2-1,1,3-2,1-1-3ZM420,261.9l1-3,3,1-2,3-2-1ZM379,259.9l2-1,1,2-2,1-1-2ZM435,257.9l2,2v2l-6,2-1-3,5-3ZM5,258.9l2-1,1,3-2,1-1-3ZM466,257.9l4-1,1,2-4,1-1-2ZM118,256.9l2-1,1,2-2,1-1-2ZM1732,255.9l2-1,1,2-2,1-1-2ZM804,254.9l4,4,14,26,2,1-2,3-4-4-9-19-6-9,1-2ZM779,255.9l2-1,2,4-2,1-2-4ZM454,255.9l2-1,1,2-2,1-1-2ZM279,255.9l-4,3,1,2,3-5ZM219,255.9l5-1,1,3-2,1-3-1-1-2ZM6,255.9l2-1,1,2-2,1-1-2ZM238,256.9l2-3,2,1-2,3-2-1ZM1291,253.9h-1l1,3-1,4,2,3-2,1-1,3-4,4,4,2,5-7,2,2-2,4-6,5v2l4-1,6-5-2-3,5-4,1-3,2,2,1-1-1-3-3,3-4,1-4-5-2-7ZM1251,253.9l2-1,1,2-2,1-1-2ZM1731,252.9l2-1,1,2-2,1-1-2ZM259,252.9l2-1,1,3-2,1-1-3ZM1723,250.9h2l2,3,4,1-3,3v7l-4,6-2-1,2-6-4-1,3-12ZM1424,251.9l2-1,3,3-3,1-2-3ZM748,251.9l3-1,9,5,2,2v2l-2,1-1-2h-3l-2-2h-2l-4-5ZM1248,250.9l2-1,1,2-2,1-1-2ZM398,249.9l3,1,4-1,7,6,4,1,1,3-8,5,1,1,1-1,4,1,1-2h3l4,4-1,2h-2l-3-3,2,4,5,5,3-1,2,1v3l-3,4h-2l-5-5v-3h-2l-1,2,3,1,8,10,1,3-3,1h3l6,9h1v-2l-3-1-1-4-3-3,5-1,6,5-2,3,3,2-1,3,2,2v2l-4,1v4l7,4,1,5-2,2-2-3v5l-1,1,5,2-1-1,1-4h2l2,2,3,14v12l1,2,5-1-1-1v-5l3-1,2,2v5l2,2-1,3,1,4-1,1h1l2-8,3,2-2,4,3,2-1,3,1,1v5l-3,12v6l-3,5v5l-3,5-3-3v3l-3,3-1,5-2,2,1,2-2,3-1,7-4,5h-3l-3,3-3,6-5,4v2l-3,4-4,2v2l-3,4-4-1v-2l4-6v-3l-6,5-1-1,1-2-1-9-1,2-3,1v2l-2,2-3,1-1-2,3-5-2-3,4-7v-4l5-6v-3l3-5v-4l2-2,1-7-2,3-2-2,5-25,4-7-2-1v-12l2-10-1-4,3-1,2,2v-4l3-2-1-5,1-8-3,1-4-6,1-3,3-1v-1l-3-2-1-5-2-1,1-4-4-5,1-2-1-3,2-2-5-7-2,1,1,6-1,1-3-1v-3l-3-3-1-5-2-1-1-6-4-3,1-2-2-6,1-1,3,2,1-1-3-4-6-4,1-2ZM218,250.9l-5,7-4-2,1-2,3-1,3-3,2,1ZM1737,248.9l2,1-1,4-2-1,1-4ZM800,249.9l2-1,2,4-2,1-2-4ZM763,249.9l2-1,2,2v2l-2,1-2-4ZM434,250.9l4-2h3l2,3h2l4,4v3h2l3,3v2l-3,2-6-6h-4l-3-4,2-3-3,1-3-3ZM417,249.9l-1,2,3,1,1-3h-3ZM268,248.9l2,1-1,2,2,2-1,2-5-1,1-4,2-2ZM261,251.9l1-3,3,1-2,3-2-1ZM981,248.9l-1,1,1,1-1,7,1,3h1v-6l-1-1,1-4-1-1ZM1729,247.9l2-1,1,2-2,1-1-2ZM1726,247.9l2-1,2,4-2,1-2-4ZM247,247.9l2-1,1,2-2,1-1-2ZM7,247.9l2-1,1,2-2,1-1-2ZM1188,246.9l2-1,1,2-2,1-1-2ZM1169,246.9l2-1,1,2-2,1-1-2ZM393,246.9l2-1,1,3-2,1-1-3ZM1241,245.9l4-1,2,4-2,1-4-4ZM91,245.9l-2,9,3-3-1-2,1-3-1-1ZM748,245.9l3-2h5l3,2-1,2h-2l3,1,2-2,1,4-5,1-7-3-2-3ZM429,246.9l4-3,3,4-1,1-2-1-3,1-1-2ZM1725,245.9l1-3,3,1-2,3-2-1ZM1717,243.9l3-1,4,5-3,2-3-3-1-3ZM1418,243.9l2-1,5,6-3,1-4-6ZM1284,243.9l1,5,2-2,1,1-1,4h2l1-3-2-2v-2l-4-1ZM1254,243.9l2-1,2,3-3,1-1-3ZM1739,242.9l2-1,1,2-2,1-1-2ZM1733,242.9l3-1,1,3-2,1-2-3ZM85,242.9l-2,2,2,1-1,10h1l1-3-1-10ZM1723,241.9l2-1,1,2-2,1-1-2ZM1589,241.9l2-1,1,2-2,1-1-2ZM1236,241.9l2-1,1,2-2,1-1-2ZM773,241.9l2-1,1,2-2,1-1-2ZM741,241.9l3-1,3,1,1,2-4,2-3-4ZM426,241.9l2-1,2,3-2,1-2-3ZM8,241.9l2-1,1,3-2,1-1-3ZM1190,240.9v4l-3,1,1,4-3,3-1,3-2-2-9,1-3,2-2-1,6-7,2,1-1,2h2l8-7-4-1-3,3h-2l-1-2,6-5h2l2,2-1-1,1-2h3l2,2ZM736,239.9l2-1,1,2-2,1-1-2ZM404,239.9v2l3,2,2-1,1,3,3,3,3-1-10-8h-2ZM1739,239.9l2-2,2,1-1,3h-2l-1-2ZM980,238.9l-2,1v3l3-1-1-3ZM80,238.9l-2,1v5l2-1v-5ZM9,238.9l2-1,1,2-2,1-1-2ZM1595,237.9l4-1,1,2-4,1-1-2ZM1364,244.9l1-5,2-3h4l3,2,5,1-1,2h-3l-2,2h-3l-4,2-2-1ZM721,234.9l2-1,1,2-2,1-1-2ZM1390,233.9l2-1,1,2-2,1-1-2ZM1303,233.9l-1,1,4,3-1,2h-2l17,16-3,5-5,3,2,3,8-8v-3l-19-22ZM278,233.9l2-1,1,2-2,1-1-2ZM266,232.9l1,2-9,7-1-2,5-6,4-1ZM1184,233.9l2-2,2,1-1,3h-2l-1-2ZM756,232.9l2-1,7,4,15,19-3,2-4-4v-2l-8-8h-2l-2-2,2,3-5,1-4-4v-5l2-1,4,3,1-1-3-1-2-3ZM710,232.9l1-1h8l2,3-5,1-5-1-1-2ZM403,232.9l2-1,1,2-2,1-1-2ZM240,232.9l2-1,1,2-2,1-1-2ZM1769,231.9l2-1,1,2-2,1-1-2ZM1727,231.9l2-1,1,2-2,1-1-2ZM690,231.9l2-1,1,2-2,1-1-2ZM267,231.9l2-1,1,2-2,1-1-2ZM1187,230.9l2-1,1,2-2,1-1-2ZM761,230.9l3-1,1,2-3,1-1-2ZM610,230.9l2-1,1,2-2,1-1-2ZM446,230.9l13,13-1-3-4-2-5-7-3-1ZM392,230.9l2-1,7,5h2l13,7,4,5,11,7,2,3-3,1-4,4-2-1,1-2-1-3,2-2-5,4-5-1-8-8h-3l-7-7,2-3h2l-2-2h-3l-5-4v-2ZM966,229.9l2-1,2,3-3,2-1-4ZM660,229.9l2-1,1,2-2,1-1-2ZM237,228.9l2,3-4,4,1,3-6,5-3,1,1,9-3,2-1-1,1-2-1-5,1-1h-2l-3,3h-2l-1-3,10-10,1-3,3,1-2,4h1l5-7v-2l2-1ZM1246,228.9l2-1,2,3,4,1,2,3-2,2-2-1-2,1-4-4,1-2-1-2ZM1895,227.9l3-1,2,3-3,1-2-3ZM1706,226.9l2,1-1,2,2,1-1,2-4-2,2-4ZM385,227.9l2-1,1,2-2,1-1-2ZM1242,226.9l2-1,1,3-2,1-1-3ZM1192,226.9l2-1,1,2-2,1-1-2ZM1159,226.9l2-1,1,2-2,1-1-2ZM240,228.9l2-3,2,1-2,3-2-1ZM1914,225.9l2-1,1,2-2,1-1-2ZM1700,225.9l2-1,1,2-2,1-1-2ZM756,225.9l3-1,1,2-3,1-1-2ZM657,224.9l3-1,1,2-3,1-1-2ZM624,224.9l2-1,1,2-2,1-1-2ZM282,224.9l2-1,1,2-2,1-1-2ZM1938,223.9l2-1,1,2-2,1-1-2ZM1919,223.9l2-1,1,2-2,1-1-2ZM1905,223.9l2-1,1,2-2,1-1-2ZM1698,223.9l2-1,1,2-2,1-1-2ZM1290,223.9l1,3,4,3h2l-7-6ZM1233,223.9l2-1,1,2-2,1-1-2ZM419,223.9l2-1,2,3-2,1-2-3ZM1721,222.9l2-1,1,2-2,1-1-2ZM1444,222.9l2-1,2,2v2l-2,1-2-4ZM753,222.9l2-1,1,2-2,1-1-2ZM84,221.9l-2,1v5l-2,1-1,6,3-4v-4l2-5ZM1697,220.9l2-1,1,2-2,1-1-2ZM1935,219.9l2-1,1,2-2,1-1-2ZM1908,219.9l2-1,1,2-2,1-1-2ZM1621,219.9l2-1,1,2-2,1-1-2ZM1439,219.9l4-1,2,3-4,2-2-4ZM685,219.9l2-1,1,3-2,1-1-3ZM678,219.9l5-1,1,2-5,1-1-2ZM422,219.9l3-1,2,3-3,1-2-3ZM309,219.9l2-1,1,2-2,1-1-2ZM1911,218.9l2-1,1,2-2,1-1-2ZM1450,218.9l2-1,3,5-2,1-3-5ZM645,220.9l3-3,4,1-1,2-3,1-3-1ZM766,217.9l2-1,3,4-2,1-3-4ZM760,216.9l3,3-1,3h-2l-2-2v-2l2-2ZM709,219.9l1-1h6l5,2h5l7,3-6-6,1-1,7,1,4,3,10,4,7,6v2l-1,1-4-1-3-5-10-4-1,1,4,1,3,4,10,4-1,2-8-2,7,3-1,3-4,1-4-4-6-3,1-2,5,1h-3l-11-7-6-2-2,1-9-1-3-2v-2ZM614,219.9l2-3,2,1-2,3-2-1ZM1376,216.9l2-1,1,2-2,1-1-2ZM717,227.9l-1,3-7-4-1,2-2-2-7,1-2,2h-2l-1-2-2,2-5-1v1l3,1-2,3h-4l-7-4h-2l-2,2-2-1-7,1-2-3,1-2,10-3h6l2-2,3,1,9-1v-1l-4-1,3-4h2l2,2h8l2,2-1,2-3-1-1,1h-5l13,1,8,5ZM96,215.9l1,4-1,4-2,1-1-4,1-4,2-1ZM1722,215.9l2-1,2,3-2,1-2-3ZM1250,215.9l2-1,2,3-2,1-2-3ZM1173,215.9l2-1,1,2-2,1-1-2ZM721,215.9l3-1,3,2v2l-4,1-2-2v-2ZM717,214.9l2-1,2,3-3,1-1-3ZM1921,212.9l3,2v2l4,1,4,5,1,3-1,2-13-12,2-3ZM1895,213.9l2-1,3,3-2,1-3-3ZM1714,213.9l3-1,1,2-3,1-1-2ZM1443,214.9l3-2,4,5-5,1-2-2v-2ZM1167,213.9l2-1,1,2-2,1-1-2ZM686,213.9l4-1,1,2-4,1-1-2ZM1608,212.9l2-1,1,2-2,1-1-2ZM1267,212.9l2-1,2,3-2,1-2-3ZM733,212.9l2-1,1,2-2,1-1-2ZM691,212.9l2-1,1,2-2,1-1-2ZM653,212.9l2-1,1,2-2,1-1-2ZM404,212.9l1-1,4,1,3,4-2,1-2-2h-2l-2-3ZM1624,211.9l-2,3-5,3-3-2,1-3h5l2-2,2,1ZM1388,211.9l-4,4-3-1,1-3,4-1,2,1ZM729,211.9l3-1,1,3-2,1-2-3ZM1800,210.9l2-1,1,2-2,1-1-2ZM1599,210.9l2-1,1,2-2,1-1-2ZM1583,210.9l2-1,1,2-2,1-1-2ZM1170,210.9l2-1,1,3-2,1-1-3ZM762,210.9l2-1,4,4-5,1-1-4ZM337,210.9l5-1,3,3-3,1-4-1-1-2ZM1713,209.9l2-1,1,2-2,1-1-2ZM724,209.9l3-1,2,3-2,1-3-3ZM1622,208.9l2-1,1,2-2,1-1-2ZM1403,208.9l-1,2h-2l-3,3-2-1,3-4,2-1,3,1ZM733,208.9l1-1h5l3,3,7,3,4,4h2l1,3-3,1-3-3h-3l-1-1,1-2-2,2-4-1-1-4-6-2-1-2ZM720,208.9l3-1,1,2-3,1-1-2ZM1606,207.9l2-1,1,2-2,1-1-2ZM628,207.9l2-1,1,2-2,1-1-2ZM1611,206.9l2-1,1,2-2,1-1-2ZM1177,205.9l1,2-4,3-1-2,4-3ZM92,204.9l1,3-3,2-1-2,3-3ZM1394,203.9l2,7-5,3-2-5,5-5ZM655,203.9l2-1,1,2-2,1-1-2ZM1895,200.9l2-1,9,3,2,3h3l1,2h3l4,4-4,2-4-4-7-4-8-2-1-3ZM661,200.9l2-1,1,3-2,1-1-3ZM1910,199.9l2-1,7,3,2,2-2,3,4-1,1,2,4,1,7,8-3,1-5-6-7-1-5-3-2-3,1-1,3,1-6-3-1-2ZM1492,199.9l2-1,1,2-2,1-1-2ZM652,199.9l-2,3-8,5-4,6,3-1,2-4h4l1,2-3,2,3,4-2,2-3,1-3-1-2,2h-2l-1,1,1,3-3,2-3-1,2-3-2,2h-2l-1-2-5,3-2-1,1-3,6-3-1-1,1-4,5-2,1,2-2,3,3,1,1-1-2-6,10-8,7-4,2,1ZM77,199.9l2-1,1,2-2,1-1-2ZM1883,198.9l4-1,1,2-4,1-1-2ZM1905,197.9l3-1,1,2-3,1-1-2ZM1898,195.9l4-1,1,2-4,1-1-2ZM43,195.9l2-1,1,3-2,1-1-3ZM1889,193.9l4-1,1,2-4,1-1-2ZM1243,193.9l2-1,1,2-2,1-1-2ZM1605,192.9l2-1,1,2-2,1-1-2ZM1884,191.9l3-1,2,3-3,1-2-3ZM1486,191.9l2-1,3,4-2,1-3-4ZM1869,190.9l2-1,1,2-2,1-1-2ZM1239,190.9l2-1,2,3-2,1-2-3ZM1933,189.9l2-1,1,2-2,1-1-2ZM94,188.9l2-1,1,2-2,1-1-2ZM663,210.9l1-2,12-3-1-1,1-2,6-2v-2h-3l-7,3h-6l-1-2,6-6,8-2,1,1-1,2-7,2h3l12-3-1-1-5,1-1-2,2-2h3l4-2h15l1-1h2l2,2-1,2,4,1-2-2,1-2h7l2,2,3-1,5,3,1-1h5l2,3,10,4,16,11-2,2-13-8-1,1,7,3,4,4v2l-2,2h-2l-2-4h-3l-10-7h-4l-2-2h-8l-3-3-3,1-6-2h-10l2,2,5,1,1-1,9,1,5,3-1,2h-6l-6-2-1,1,3,3-3,3h-4v1l10,2,1,1-1,4-4-3-2,1-2-2-4,2-8-1-2-3,2-2h2-13l-1-3-9,1-8,3-4-1ZM1481,186.9l2-1,1,2-2,1-1-2ZM1889,188.9l6-2,4,3,2-2-2-2,2-1,5,2-2,2,9,4,2-1-2-1-2,1-1-1,1-3h3l3,2,3-2,1,3,3-1,1,3,5,5-4,2-1-4-8-3,5,3-1,2,5,3-1,2h-3l-13-8-9-1-3-2h-5l-3-3ZM1232,185.9l2-1,1,2-2,1-1-2ZM735,185.9l2-1,1,2-2,1-1-2ZM1474,184.9l2-1,5,5-2,1-5-5ZM1905,183.9l3-1,1,3-2,1-2-3ZM1607,183.9l2-1,1,2-2,1-1-2ZM1203,182.9l1,2-3,3-1-3,3-2ZM1469,182.9l2-1,1,2-2,1-1-2ZM694,181.9l1,3-5,3-1-3,3-3h2ZM1849,183.9l2-3,3,1-3,3-2-1ZM96,183.9l2-3,2,1-2,3-2-1ZM1464,180.9l3-1,2,3-2,1-3-3ZM1204,180.9l3-1,1,3-3,1-1-3ZM1897,179.9l3-1,1,3-3,1-1-3ZM1615,179.9l2-1,1,2-2,1-1-2ZM1460,179.9l3-1,1,2-3,1-1-2ZM982,179.9l-3,3,2,3,1-6ZM93,178.9l1,3-3,2-1-3,3-2ZM87,179.9l2-1,1,2-2,1-1-2ZM1889,176.9l5-1,1,3-2,1-3-1-1-2ZM1899,184.9l-1,2h-6l-1-1-4,1-3,5-2-1-1-3-27,4-11,5v2l2,1-1,3h-2l-2-2v-3l-8,4h-3l-19,7-2-1,1-2,4-1,4-3h3l4-5,9-4-10,4-1-2,4-3h2l15-8,5,1-3,3,10-2,1-4h5l1-2,2,1-1,2,2-1-1-3,2-2,3,2,8-3,1,3-3,1,2,1,1-1,11,1,10,4ZM1885,175.9l2-1,1,2-2,1-1-2ZM1878,175.9l1-1,4,1,2,3-5,1-2-2v-2ZM1641,174.9l3,2v3l3,2-1,2-5-1-2-2,2-6ZM1207,178.9l2-2h3l2,2-1-3,5-1,1,1-1,4,1-1h5l2,2v2l-2,3h-2l-2-2-2,2h-2l-3-2h-3l-3-5ZM909,175.9l2-1,2,3-3,1-1-3ZM75,174.9l2-1,1,2-2,1-1-2ZM714,171.9h-15l-10,6-12,1-7,7h-9l-10,10-10,2-13,9-2,7-2-4-18,19-12,7-21,24-16,25-14,30-6,29,1,39,4,5-1,4-2-2,1,5,4,1,7-7,2,4-3,1,6,5-3,6-3-1,1,11-5-8v10l29,58,22,30,30,29,29,17,17,4,18-1,3-4,24-9-19,8-4-2-1,3-11,1-17-1-26-10-25-18,6-3,7,5-18-10,1-5-7-6,3-1-3-8h5l-2-3,3-1-7-10-4,2,8,3-4,6-11-10,13,19-3,1-14-21h-3l-12-27,8,2,1,5h-4l11,15-5-11,2-4,6,1,2,5-7-1,9,2,14,13,3,8,6,1-2,3,5,4v-6l3,8h4l-2,4,5-2-2,7,3-4,14,6,1-6,10,1-2,3,19,4,6-1,2-4v7l-9,3-11-4,1,6-5,1,10,3-2-3,4-1,4,6,4-4-1,5,3,1,5-18,6,2v-4l3,3,8-3h-32l-15-6-4-6,27,7,6-3,1,3,19-16-4-1,3-5,4,5-4-7,7-2v-3l16-4-3,4,6-1,2,3-6,4,11-1,6-7-9,1v-4l14-4,4,6,11-13,13-7,2,2-13,10,4,1-1,5-5,1,3,3-13,7,13-5,3-6v6h8l-3-3,10-8,4,7,2-7-2-3-6,2-1-6,12-7v-7l5,2,7-7,1,7,6,4-1,10,3-7,1,3,6-6,2,3-6,7,1,4-6,1-1,6-5-7-9,10-5-1,6,4-10,4h4l-1,5,9-8,4-9,5,2-3,5,10-6-17,17,23-22-5,1,24-48h4l2-5-3-3v-32l-3,5,3,2-6,1v-20l6,4,1,6v-7l-5-1-1-26,4,8-3-19,4,4,4,22-1-12-6-15,2-3-7-3,3-3,3,4-18-48-25-40-27-30-23-18-7-1-1-4-5,1-6-6,2,4-18-8h0ZM76,171.9l2-1,1,2-2,1-1-2ZM1220,170.9l-11,2-10,6-66,60-32,34-17,33-10,54,3,65,4,19,3,3-4-12,2-6,6,20-5-34,7,3-3-3,3-1,1-29,4-5,3,5,1-10h5l2-13,3,8,1-16,3,2v5l5,3-3,5,6,16-2,4-3-2-1,6,3,24-4-1-1-6,1,14-4,5,18,25,1,5-3,1,2,6h-5l2,4,8,4-3,3-11-3,2,7-5-5,3,9,2-4,2,1-3,9,2,4-8-1,1-6-9-17,2,14-11-9-1-7-5-2-8-16,12,28,15,20,21,19,25,16,27,12,3-1-12-6,39,8-9-5,1-3-5-3v-5l10,2v3l2-3,4,1,6,6h10v3l-6,1,22-2,3-5h4l-3-4,14-20,2,4-3,7-6,4,4,1,7-9,2,2-3,3,6-5,1,3-5,7,17-28,6-2-3,6,20-38,2-12-7,1-2-2,2-3-11,1-3,5-3-1,2-3-7,1-1,3-2-4-7,7h-15v-4l-13,2-42-8-20-11-12-13-8-15,1-4,24-20,1-5h3l2-5,3,1,43-46,1,3,21-20-2-2,31-30-9,4,2-6-12,9,3-6-5,2v-7l13-4-6-4-13,13-2-1,4-11-2-5,6-1-2-3,3-4,4,4,1-7-4,2-9-8-3-8-7-5,2-3,14,10-3,4,3-3,3,4,5-1-3,4,7,5-2,3,4,3-1,6,4-8-3-1-5-13-31-26,2-5,3,6v-4h6l7,6-20-20,5-1,2,4,18,10,2-3-14-12-2,2-1-4-27-21,12,6-21-15h0ZM88,170.9l2-3,2,1-2,3-2-1ZM66,168.9l2-1,1,2-2,1-1-2ZM1363,221.9l2,27,32-6,36,20-4,16-7-13,4-3,3,7-2-9-9,4-11-12,12,20,5,35-1,254,7-10v-9l-5,1,5-4-4-48,7-23-3,30,7-8-1-53,5-6,6,48,5-42,7,36,2-54,3,22-1-22,4-2,3,16,3-40,3,24,6,3-5,27h7l-1-27,6,4-2,13,6-12-1,91,8,7,3-10,6,46-9,1h9l5-278,10-15,42-13,47,10,39,35-7,2,7,39-2,118,6,58-6,13,6-9,4,35-8-10,1,15,78-1-14-9-12,2,1-25,10,3-1,11,9-6-8-2,7-10-4-9-3,9,2-25,1,13,8-91-1,26,9-13-5-68,9-74-6,65-4-10v24l-4-8-1,12-4-77,5-6,2,9v-13l7,3,5-14-2,10,37-26,38-10,30,4,29,24,9,25,3,258,92-1-2-307-13-36-25-30-38-15-48,5-94,58-16-11,7,11-16-1,3-7-4,3-4-9,4-3,7,8v-6l-33-28-72-23-46,24,21-8-22,16,18-8-15,13,8,1-55,22,7-11-27,18-38-55-39-15-15,3-65,52h0ZM981,165.9v3l-1,1-2-1v4l2-1,1,3,1-3-1-6ZM90,165.9l2-1,1,2-2,1-1-2ZM81,159.9l3-4,3,1-3,4-3-1ZM442,152.9l2-1,1,2-2,1-1-2ZM917,149.9l2,1-1,4-2-1,1-4ZM449,149.9l2-1,2,2v2l-2,1-2-2v-2ZM105,147.9l2,4-1,5-5,7v4l-3,5-3,3h-2l-3-3,2-1,4-9-2,2-2-2,3-4h3l-1-3,8-8ZM105,147.9l3-5,4,1-5,5-2-1ZM987,141.9l-1,2,1,4-1,6h1v-5l1-1-1-1,1-3-1-2ZM110,138.9l2-1,2,3-2,1-2-3ZM94,138.9h-1l-6,10,3,4-1,1-4-1-5,8,3,2-3,4,1,2-2,1-1-2-6,11-5,3v1l2-1,1,3-3,5h-3v3l-5,12-1,6,4-3-1-1,1-7,3-1,1,2-1-4,3-2v-5l2-6,3-5,2-1,1,2-3,5-2,11,3-7v-3l2-2,2-7,3-5v-3l3-2,3-8,7-12v-2l-3-1,3-3v-2ZM464,137.9l2-1,1,2-2,1-1-2ZM916,134.9l2-1,1,2-2,1-1-2ZM112,132.9l2-1,1,2-2,1-1-2ZM921,128.9l1,4-3,2-1-2,1-3,2-1ZM470,129.9l2-1,1,2-2,1-1-2ZM473,125.9l2-1,1,2-2,1-1-2ZM121,128.9v-2l2-2,3,1-3,4-2-1ZM914,124.9l2-1,1,3-2,1-1-3ZM926,123.9l2-1,1,2-2,1-1-2ZM923,122.9l2,1-1,5-2-1s1-5,1-5ZM129,120.9l1,2-4,3-1-2,4-3ZM424,119.9l2-1,1,2-2,1-1-2ZM922,116.9l2,1v3l-4,1-1-2,3-3ZM132,118.9l2-3,2,1-2,3-2-1ZM987,115.9l-1,1,1,4-2,7,2,4-1,8,2-6v-3l-2-1s1-14,1-14ZM914,117.9l2-3,2,1-2,3-2-1ZM919,114.9l3-1,1,2-3,1-1-2ZM130,113.9l1,2-4,4-1-2,4-4ZM119,112.9l-4,5-4,2-10,10v2l-5,6,5-4,5-8,2-1,2,1-1-3s10-10,10-10ZM912,111.9l2-1,1,2-2,1-1-2ZM130,111.9l2-1,1,2-2,1-1-2ZM135,107.9l2-1,1,2-2,1-1-2ZM142,102.9l1,2-4,3-1-2,4-3ZM143,101.9l2-3,2,1-2,3-2-1ZM147,97.9l2-1,1,2-2,1-1-2ZM432,91.9l2-1,1,3-2,1-1-3ZM890,90.9l2-1,2,3-3,1-1-3ZM886,86.9l2-1,3,4-3,1-2-4ZM425,88.9l2-5,5,3-3,3-4-1ZM168,81.9l1,2-4,3-1-2,4-3ZM422,81.9l2-1,1,2-2,1-1-2ZM418,79.9l2-1,1,2-2,1-1-2ZM428,78.9l3-1,3,4-2,1-4-4ZM178,73.9l2-1,1,2-2,1-1-2ZM181,71.9l2-1,1,2-2,1-1-2ZM395,70.9l3-1,1,3-2,1-2-3ZM135,69.9l2-1,1,2-2,1-1-2ZM393,68.9l2-1,1,2-2,1-1-2ZM974,66.9l2,1-1,4-2-1,1-4ZM386,66.9l2-1,1,2-2,1-1-2ZM889,65.9v1h3l5,6-1,2-5-2,3,5,3-4,8-2-2-5-2,2-3-3-1,1-3-1-4,1-1-1ZM139,66.9l2-2,2,1-1,3h-2l-1-2ZM381,64.9l2-1,1,2-2,1-1-2ZM351,63.9l2-1,1,2-2,1-1-2ZM391,61.9l2-1,1,2,4,1,1,2-1,1-4-1-3-2v-2ZM170,60.9l-14,8-3-1-3,4-2-1,1-2-4,4-9,5-9,8,1,3-4,3v3l-2,1,8-4,8-6,8-9,3-1,3-3,4-1,5-6h2l7-5ZM364,59.9l2-1,1,2-2,1-1-2ZM973,57.9l2-1,1,2-2,1-1-2ZM401,54.9l2-1,1,2-2,1-1-2ZM235,51.9l2-1,1,2-2,1-1-2ZM974,50.9l2-1,1,2-2,1-1-2ZM914,49.9l2-1,1,2-2,1-1-2ZM263,46.9l2-1,1,2-2,1-1-2ZM219,44.9l2-1,1,2-2,1-1-2ZM222,43.9l2-1,1,2-2,1-1-2ZM235,42.9l2-1,1,2-2,1-1-2ZM974,40.9l2,1,1,3-1,5-2-1-1-4,1-4ZM241,39.9l2-1,1,2-2,1-1-2ZM231,38.9l2-1,1,2-2,1-1-2ZM972,39.9l1-3,3,1-2,3-2-1ZM968,36.9l-1,2-4,1-1,4-5-2v-2l3-3,3-1,5,1ZM274,36.9l3-1,1,2-3,1-1-2ZM915,35.9l2-1,1,2-2,1-1-2ZM268,34.9l2-1,1,2-2,1-1-2ZM972,33.9l2-1,1,2-2,1-1-2ZM969,33.9l2-1,1,2-2,1-1-2ZM273,33.9l4-1,1,2-4,1-1-2ZM942,30.9l2-1,1,2-2,1s-1-2-1-2ZM925,30.9l2-1,1,2-2,1s-1-2-1-2ZM928,29.9l2-1,1,2-2,1-1-2ZM257,28.9l3-1,1,2-3,1-1-2ZM231,28.9l-1,1,3,2,1-3h-3ZM267,27.9l2-1,1,2-2,1-1-2ZM270,26.9l2-1,1,2-2,1-1-2ZM952,24.9l1,2-4,4-1-3,4-3ZM266,24.9l1,3-5,2-1-2,5-3ZM258,24.9l2-1,1,2-2,1-1-2ZM414,33.9l-120-18-116,24-87,58L21,195.9,0,275.9v35l18,56,65,98,93,69,75,21,57-1,61-15,52-28,44-41,27-41-8,4,12-30,6,4,6-28-10-60,5,39-14,50,2-51-9-11,4-15,5,21,1-42,12,3-19-18-12-26,19,18-23-35-16-9,8,15-35-28,14-5-19-11-5,9-7-16-106-14-56,22-47,46-11,37,7,40v-65l23-21-7,27,12,8-10,14,12-16,10,10,4,56-26-33-6,16,12,24-14-17,4,16-12-11,31,43,22,15,58-78-17-12,10,9-32,40-2-12-8,5,8-21-6-21,15-8-12-23,12-34-10-8,27-20,4,9-18,17,29-17,27-1,45,37,24,53-7,67-27,78-33,33-52,19-49-1,15,3-12,8-50-16-9,12-30-37-37-94,2,19-11-21,5-18-19-53,6-46-3,22-8-5,8-27-12,31-7-9-7,11v-18l-1,86-23-29-2-44-5,24-10-20,4-66,43-67-17,22,2-21,13-14,4,10,19-31-22,21,5-17,24-23-10,15,27-24-16,10,5-14,52-45,63-23,34,2-48,17h9l-7,8,42-7-69,20-59,40-53,107,17-27-2,43,7-5v9l11-23v22l8-3-12,39,12,70-6-8-2,11,26,72-11-182,13-58,29-58,31-32,35-18,85-6,75,35,36,33,22,38,61-86-93-46h0ZM982,9.9l-4,22-2-3h-8l-2,5-7,2-2-3-8,3,2-5,14-6-7,4-4-3,11-4-5-1,8-7-31,15-4-1,4-3-21,9-3,7-11,3-5,7,17-9-6,7v7l6,10-6,2-2,12-8-2,4,5-3,6-1-6-2,3-6-2-2-12-12-8,11-9-12,7,1,10,11,19,10,11,1-3,4,3-2,3,3-2,4,5,3,41-1,33h3l-3,64h5l-1,5-4-2v5l4-2,1,3-3,2,2,6-5,21v20l3,3-3,31,3,2-3,1,2,29-3,37,3,7-3,4,5,2v15l4,2v29l-5-2,1-5-3-3-2,2,2,41,3,4,8,2,6,7-1,5,30,28,24,15,16-5,53-42-2-11-7-3-6-9-1,4-4-5-1,3-6-6,2-2h-4l-1-5,4,1-4-5-10-5,2-3-5-8-9-8-5-23-2-112-3-11,3-1v-9l-3-1,3-4-3-127v58l-5,1v-8l-3,4,3,2-3,15h3v-9l4-2,1,72-7,7,5,49-2,1-3-6-4,1-1,4,4-3v5l-4,2h4l-1,6-6-3-7-34v-11l4-5h-4v-10l4-7,2,2-5-51,4-6,2,12v-42l-1,6h-3v-19l7-18-3-42h4l1,7,1-6-1-19-4-6v-28l3-10,3,15-1-15,3-7,7,10v-5l-9-10-1-11,1-17,3,3v8l5,1-4-34h0Z"/>
    <path class="st1" d="M1233,553.9l2-2h4l1,1-2,2h-4l-1-1ZM1240,550.9l2-2,2,2-1,1-3-1ZM1676,548.9v3l1,1,3-1-1-2-3-1ZM702,548.9l-4,1v1h2l2-1v-1ZM1216,545.9l2-1,1,2-2,1-1-2ZM1657,544.9v4l2,1-1-5h-1ZM695,540.9l1-1,2,1-1,1-2-1ZM682,540.9l1-1,1,2-1,1-1-2ZM701,540.9v-1l3-2h4l1,1-2,2-3,1-3-1ZM729,536.9l-9,4v1l9-4v-1ZM232,536.9v1l3,2-1,3,2,1h8l1,2h4l-2-3-8-1-2-2,3-1v-1l-8-1ZM1908,537.9v-2l2-1,1,2-2,2-1-1ZM1220,532.9v1l2,1h4v-1l-2-1h-4ZM698,529.9l-1,2h-3l-1-1,4-2,1,1ZM671,529.9l1-1,2,2,2-1,2,2-1,1h-4l-2-3ZM1710,528.9v3h4v-1h-2l-1-2h-1ZM629,528.9l1-1,2,1-1,1-2-1ZM1891,543.9v2l2,3v5l-2,1v2h2l2-2h4l2,3h4l1-1,2,2h21l1,1h3l1-1h13l-1-2,1-1h3l1,1,2-1h9l-1-2v-5h-5l-2-2-3,2h-4l-1-1v-6l-1-1-6,2h-4l-1-1,1-6-4-2,1,2-2,1v2l2,2-1,2h-2l-1-3-2,1-2-1-1,2h-5l-1-3,1-1,3,1v-1h-1l-3-4-3-1-1-5h-1v2l-2,2h-4l-3,2,1,4-3,3h-2v6l1,1v5l-1,1-2-1v-3h-2l-2-2v-3l-2-1ZM695,526.9l1-1,2,1-1,1-2-1ZM651,526.9l1-1,2,1-1,1-2-1ZM1656,522.9l-4,3v9l-1,2,3,3-1,5h1l2-3h2l-3-6,1-2-1-3,1-8ZM625,522.9h-1l-1,2-2-1v1l2,1,2-3ZM1489,520.9l1,1-2,3-1-3,2-1ZM1263,521.9h-2l-3,2v1h4l1-3ZM704,520.9l1,1-2,3-1-3,2-1ZM699,519.9l2,3-2,2h-3l-1,1-1-3,1-1h3l1-2ZM1434,516.9l2,1v4l1,1-1,3,1,3-2,2-1-1v-10l-1-1,1-2ZM1912,516.9v5l3-1-2-4h-1ZM648,516.9l2-1,1,1v3l3,1-1,1h-3l-2-5ZM637,516.9l2-1,1,2-2,1-1-2ZM257,514.9v1h12v-1h-12ZM1910,513.9l-3,1v1h3v-2ZM212,514.9l3,6,6,1,5-3h2l2,2v3h2l1-2,6,2,4-5h4v-1l-2-1-2,1-3-1v1l-2,1-1-1,1-2h-3v2l-2,1-1-1v-3h-3l-1,1-5-1v2l-2,1v2l-2,1-1-1,1-2-1-2,3-1v-1l-2-1h-5v1l-2,1ZM175,511.9l4,5,1,3h2l1-2-1-3-7-3h0ZM1286,510.9l-2,1-6,11-7,9-1-3,2-3h-5l1,5-3,3-2-1,2-4-3,2-1-2h-3l1,4,1,1,3-1,2,3-1,1-3-1,1,2-1,3-3-1v-4l-2-5h-1l2,6-2,2h-3v2l5-1,1,2-1,1h-4l-1,3-3-1,1-3-6,2v2l-2,2h-4l-1-1,1-2-2,1h-8l-3-2,2-3-8-1-1-3-3-2-4,3-2-2v-2h-5l-2,1v1l4,3,11,2,1,1-1,2-5-1v1l3,1-1,3h-8l-1-1h-5l-3-2h-7l-2-1v1l9,3,3,2,3-2,2,2h2l1,2,5,2h6l1,1h4l5,2h6l3,2h7l1-1,6,1,7-4,1-2-1-3,1-1,2,1,5-5v-2l3-2,1-3,2-1v-3l3-2-1-2,3-6,3-2v-2l3-4v-2l2-3h0ZM617,510.9l1-1,2,3-1,1-2-3h0ZM689,510.9l-2-1-1,3,3-1v-1h0ZM666,509.9v1l7,1,1,1,8-1v-1l-8,1-4-2h-4ZM1463,508.9l2-1,1,2-2,1-1-2ZM927,508.9l2,3h2l-2-3h-2ZM1652,507.9v12h2v-3l-1-1v-8h-1ZM656,507.9v1l4,3,2-1v-2l-2-1h-4ZM764,507.9l1-2,2,1-2,2-1-1ZM709,507.9h-1l-1-2h-2v2l-2,2-3-1v2l3,2,2-3h3l1-2h0ZM1290,505.9l-2-1-1,3,3-1v-1ZM176,504.9l3-1,5,6-2,1-3-2-3-4ZM762,503.9l2-1,1,3-1,1-2-3ZM736,503.9l2-1,1,2-2,1-1-2ZM650,506.9h4l2-3h-2l-1,2-3-2v3ZM620,503.9l3-1,2,2-3,2-2-3ZM606,502.9l3,4h2l-1-2h-2l-1-2h-1ZM1474,501.9l3-1,1,2-2,1-2-2ZM739,502.9l2-2,2,1-2,2-2-1ZM747,497.9l2-1,1,2-2,1-1-2ZM1464,495.9l3,2-2,5-5-3v-1l4-3ZM936,496.9l1,4,2,2h2l-3-5-2-1ZM660,496.9v3h4l2,2h3l3,2,6-1-1-2h-4l-1-1-4,1-6-4h-2ZM1428,495.9v9h1v-9h-1ZM1723,494.9v4l-2,1v3l1,1-1,2,1,2-1,3v8l2,1v3l2,1-1,3v7l1,3-3,4-3-2h-2v3l-1,2,3,1,1-3h3l1,1-3,2,2,3-3,1-2-2h-3l-1-1v-3h-1l-1,2-5-5v-3l-1-1,1-6-2,1v11l1,1-1,8,2,1,2-2,1-3,3-1,1,1-1,4,4-1,1,2h3l1,1v4l9,1v-7l-2-3-1-5-2-1-2,1-1-2,1-1h6v-1l-3-2v-19l1-1,2,2v2h1v-6l3-2v-6h-2v6l-1,1-6-4v-2l1-1,3,1v-2h-2l-3-4v-7h-1ZM734,494.9v1l2,1-1,2h1l1-2-1-2h-2ZM919,493.9v4l-2,1v1h2l1,2,5,4,1-4-6-2,3-2v-1l-4-3ZM750,493.9l-1,2h-2l-2,2-2-1v-1l4-3,3,1ZM752,494.9l1-2,3-1h4l1,1-1,2-4,2h-2l-2-2ZM597,492.9v1l5,4v-2l-3-3h-2ZM790,490.9l-1,2-4,4-3,1-1-1,4-3,3-4,2,1ZM590,490.9l1,3,2,1-2-4h-1ZM444,489.9l-2-1-7,7v1h2l1-2,3-3h2l1-2ZM1430,487.9h-2v6h1l1-6ZM734,486.9h-3l-2,2h-3v1l3,1,1-2,4-1v-1ZM931,482.9v3l1,2,2,1-1-6h-2ZM582,480.9l2,4h2v-1l-4-3ZM1450,479.9l1-1,2,2-2,1-1-2ZM759,477.9h-2l-2,2-1,3h1l4-5ZM1485,476.9l1-1,1,2-1,1-1-2ZM1466,475.9l1,1-1,1,1,3-1,1v7l-1,1,1,4-2,1-2-2,1-3v-5l-1-1,1-1v-5l3-2ZM707,476.9v1h4v-1h-4ZM159,475.9l1,3h3l-2-3h-2ZM1718,471.9h-1l-1,2v4h2v-6ZM1465,470.9l1,3-2,1-1-2,2-2ZM1432,471.9l-2,3,3,2v-5h-1ZM752,482.9h-1l-2-3h-2l-1-2-3-1,1-2h2l-1-4h-1v1l-7,6-12,1-3,4h-1l-1-2h-2l-2-3,3-1,1-3,3,1-2,2v1h1l4-3,4-1v-1l-2,1h-3l-2-2-3,1h-8l2,6-3,2h-2l1,3-1,1h-3l-2,2h-2v2l-2,2h-2l-2,3h1l1,2h2l2-3,3,1,3-2h6l1-1,3,1,2-3,3-1,1-2h2v-1l-3-1,2-3h4l1,1,7,1,3-4h6l1,1v3l-1,1-2-1-2,1-2,3-2-1v1l2,1v2l3-2h2l4-6h1l1,2h1v-1ZM152,470.9l2-1,1,3-2,1-1-3ZM764,469.9h-2l-1,2,3-1v-1ZM1484,469.9l2-2,2,1-1,2-3-1ZM1477,467.9l2,1v4l-1,1-2-1v-4l1-1ZM589,469.9v2l2,3h4l2-1,4,5,2-1,2,1v-1h-1l-8-9h-2l-2,2-3-1ZM150,468.9l1,2-1,4,3,2v2l2,2v3l3,4,2,1,3-1,2,2-1,1,1,3h2l2,3,5,4v5l2,2h2l3,4,5,2h2v-1l-3-1,2-3h4l1,3h3l1,1h2v-1l2-1v-1l-2-1h-5l-6-8h-1l-1,2h-2l-3,2-1-1v-3l-4-2-3-3v-1l2-1v-2l-2-1v2l-3,1-6-9-8-8-1-3,3-2h2v-2l-2-1v1l-2,1-1-2h-1l-1,2-1-2h-1ZM1943,467.9v4h1v-4h-1ZM1723,467.9l-2,2v5l1,1v11l1,2h1v-7l1-1-1-7,1-1v-4l-2-1ZM1461,466.9l1-1,1,2-1,1-1-2ZM1107,467.9l2-2,1,1-1,2-2-1ZM806,466.9h-1v3l-2,1-2,3,1,4h1v-3l4-6-1-2ZM1102,466.9l1-2,2,1-2,2-1-1ZM1114,464.9l3-1,1,2-2,2-2-3ZM750,464.9h-3l-3,2v1h4l2-3ZM612,464.9l1,2h2l-1-2h-2ZM1268,463.9v1l2,1,2-1v-1h-4ZM1723,463.9v2l3-1,2,2-1,2v5h1v-3l2-2v-2l-2-2v-2l-5,1ZM796,462.9l3-1,1,3-2,1-2-3ZM763,465.9h-4l-1-1,1-2h-1l-4,6-2,1h-4l-1,2,4,4h3l2-1-2-4,3-2,5-1,1-2ZM578,462.9l4,9,2,1,1,3h1l1,2h3l1,1-2,3,5,9h2v-3l-6-6,1-2,6,3,4,5,4,1v-2l-3-1-5-4v-3l-1-1h-4l-2-1-7-7-4-7h-1ZM1130,460.9v2l2,3h2l1,3h3l-4-6-4-2ZM1091,460.9v2l2,1-1-3h-1ZM587,460.9v2l2,2,3-1-1-2-4-1ZM1486,458.9l2,2v4l-2,2-1-1v-6l1-1ZM1309,458.9l-4,1v1l3,1,1-3ZM145,458.9v3l1,1h3v-2l-2-2h-2ZM1465,457.9l1-1,2,1-1,1-2-1ZM1268,457.9v1h6v-1h-6ZM1097,457.9l2-1,2,4-2,1-2-4ZM1727,455.9l1,5h2l-2-5h-1ZM805,455.9l2-1,1,2-2,1-1-2ZM667,455.9v1l3,2,4,1v-1h-2l-2-2-3-1ZM583,455.9v2l2,1,1-3h-3ZM1114,454.9l3-1,1,2-2,1-2-2ZM574,454.9l1,3,4-1v-1l-3,1-1-2h-1ZM1119,454.9l2-2,3,1-1,3h-3l-1-2ZM794,451.9l2,2-1,1v4l-2,2h-2l-2-3v-2l5-4ZM1722,451.9l1,2-1,6,1,2h1l1-9-3-1ZM774,451.9h-2l-3,3-5,2-2,2-1,3h3v-2l3-1v-1l6-4,1-2ZM1086,449.9l2,6h2l-2-3v-3h-2ZM768,449.9l-6,3h-2v1h2l6-3v-1ZM1658,448.9v7h1v-7h-1ZM1109,449.9l1-2,2,1-2,2-1-1ZM805,447.9l1-1,2,1-1,1-2-1ZM585,445.9v2l2,1v-2l-2-1ZM576,444.9l2,3h2l-1-3h-3ZM480,443.9l-3,2-1,3h2v-2l2-3ZM1136,441.9h-2l-1,2,3-1v-1ZM782,441.9l-5,2-2,3,3-1,4-3v-1ZM484,437.9l-2,1-1,3,2-1,1-3ZM816,455.9l-2-1-3,3-2-1,1-10-5-4-1-6-6,7-5-1,5,5h-4l-2,2-2-1-1,5-3,2,5,5-2,8h-3l-1-6-2,3-7,4,3,3-2-3,5-1,2-3,1,4,3,2-3,6-1-2h-2l-1,2-2-3v2l-4,3-2-2,1-3-3-2v4h-3v2l-3,2v2h3l1-4,7,2,1,2-5,5-3-1-1,3-2-1-2,3h-2l-1-2h-3v-2l4-3-5-1-3,5h-5l-4,3h-4l-1,4,2,2-2,3-20,7-1-4,3-1v-3l-2-2,7-4-3-3-2,3h-8l-13,6-6-3-1,2-5,1-2,2-2-2-4,1-1,3h18l1-2,4,2,1-2-2-1,6-2,1,2-3,2h5l6,5-3,2,1,2-5,3-4-1-3,2h-7v2l3,2-1,1h-10l-1-2,5-1,1-3-7,1,1,7h2l1-2,3,1-2,4-4,1-1,6h-4l-2-2,5-5-6,1-5-3-2,3-7-1-2-3-1,5,5,1,2,2-1,1-12-2-1-3h4v-2l-3-1,2-2-1-3,5-1-1-3-10-4-1-2-6,1-6-5-6,1,5,2,4,5,5,1,2,2-1,1-7-1-2-3h-3l-2-4h-6l-1-1,2-1v-4l-3-1,1-3-5,1v-3l-8-8-1,3,3,5,6,3v3l-3,1-4-5h-3l-2-2,2-3-4,2v3l11,11h-5l-1,4,4-1,10,7,5,5h-4l-2,3,9,7,2-1,3,4,7,4,24,7h19l6-4,2,3,17-6,21-11,28-19,15-13,2,1-2,2,1,1,5-5,8-4,10-10-1-1-3,3-2-1,1-3-2-2,4-3-3,1-3,4v2l3,2-1,2h-2l-1,2-5-2-4,4-2-1v4h-4l-2,3-5,1-3,4-1-1,5-7,6-3-1-3,2-2,4,1-1-3,10-12,5,2-6-4,2-3h6l2-3h2l1-4,2,2-1-2,2-2,4,3v4-6l4-4h2ZM419,436.9l1-1,2,1-1,1-2-1ZM1082,434.9l2,11h1l-1-9-1-2h-1ZM1491,433.9l-2,1,1,2-1,3h2v-6ZM1105,432.9l2,5-2,2-1,3-2-3-1-4,3-1,1-2ZM421,432.9l1-1,2,2-2,1-1-2ZM1474,431.9l3-1,1,2-3,1-1-2ZM1460,431.9l-1,2v5l2,1v-8h-1ZM839,431.9h-3l-4,9-3,4v2l-3,3-1,4-5,7h1l6-6,1-4,4-5,1-6,3-1-1-3,1-2,3-1v-1ZM1726,430.9v6l-2,1v3h1l1,2-3,1v5h2l2,3,3,1,4-5v-5l1-2-1-1v-4h-2v7l-1,2-4,3-3-1v-1l3-2v-2l-2-1v-3l2-1v-6h-1ZM1092,430.9l1-1,1,2-1,1-1-2ZM910,430.9v5l-1,1,1,3v9l3,1-3,1v5l4,3v-11l-3-2,2-1,1-8-3-2v-4h-1ZM1128,427.9h-1v7l-1,1h-3l1,5h2l-1-3,2-2,4,1-3-9ZM1120,427.9v3l2,3h1l-2-6h-1ZM1492,426.9h-1l-1,4h1l1-4ZM1088,428.9l2-4,3,1v2l-2,2-3-1ZM1485,422.9l-2,3v7l2,3-1,1-1,7,2,1v3h1v-4l1-1v-3l-1-1v-9l2-2v-3l-3-2ZM1439,420.9l1,3-1,6h1l1-2v-4l-1-3h-1ZM428,420.9v-2l2-1,1,2-2,2-1-1ZM1465,417.9v24h1v-7l2-1v-1l-2-1v-6l2-1v-1l-2-1v-5h-1ZM433,417.9l1-1,2,1-1,1-2-1ZM844,414.9h-2l-3,11,3-1,1-2,1-8ZM1108,414.9l2-2,1,1-1,2-2-1ZM1099,414.9l4-2,3,3-1,1-2-1-2,1-2-2ZM428,413.9l1-1,2,1,1,3-1,1-3-4ZM1098,409.9l2-1,1,2-2,1-1-2ZM431,409.9l2-1,1,2-2,1-1-2ZM450,407.9l1,3-3,9-3,4-1-1,1-8h-1l-1-2,1-1h3v-3l3-1ZM1100,407.9l3-1,1,2-3,1-1-2ZM439,406.9l1,3-3,2-1-2,3-3ZM126,407.9l1,4,2,3v3l3-2,2,2,2,5-2,1-3-4h-1l1,6-3,2v2h1l1-2,2,2,1,3-2,1v1l2,1-2,1,1,5h1l-1-3,2-1,2,5,2,2v3l1,1,3-2,3,1,2,2-3,1,1,3h1l1-2,2,2-2,3h2l2,3,2,1-2-4v-3l-2-1v-2l-3-4-1-7-2-4-3-2v-4l-5-3,3-2-3-9v-3l-3-2v4l-1,1-2-2-2-6h-1ZM1443,406.9l-3,2,1,2-1,2h1l2-6ZM926,405.9h-3v4h1l2-4ZM441,403.9l1,2-2,2-1-2,2-2ZM498,403.9h-1v2l-3,5v3l-2,3v2l-2,2-3,9,3-2v-4l5-6v-6l1-3,2-1v-4ZM130,403.9v2l2,1v-2l-2-1ZM1096,401.9l2,1v3l-1,1-2-1v-3l1-1ZM121,401.9l-1,3,3,1,1-4h-3ZM1474,399.9h-1v3l-2,1v13l1,1-2,2,1,2v7l-1,2,2,2-3,3v3l3,2-2,5-5-1v6l2-2,2,3-2,2-4,1-3-5,2-3v-2l-3,2v17l2,1-1,2v8l-1,1v4l2,5v7l-1,1-3-4-1-4v-9l1-2-2-1,1-8-2-2v-19h-1v4l-1,1v6l-3,2,3,4v3l-3,1,3,4v3l-4,1v9l1,1-2,2-2-2,1-1-1-5-3-2-1-4,2-2,1,1,1-1-4-2,1-3v-4l-1-1,1-2-2-2,1-2-1-3,1-1v-9l-3-2v11l-1,1,1,15-1,4,2,2v2l-2,4,1,2-1,4,1,9-1,3,1,1v9l2,6-2,1-2-2,1,3-3,3-1-1,1-8-2-1v5l-1,1-2-1v-4h-1v6l1,1-1,4,2-1,2,1v4l-2,1,1,4-3,1,3,3v21l1,1-3,1-1,3h-2v3l6-3h3l5,3,2-1,2,1h46l1-1,2,1h15l-1-2v-15l-1-1,1-3-3-1,3-3-3,2-1-1v-6l-1-1v-7l1-2-2-2v9l-2,2-1-1,1-3-3-1-1-7h-1l-1,3-3-4v-8l-1-1,1-2v-4l-1-1,1-1v-14l-1-1,1-1v-23l-1-1,1-5-3,3-2-2,2-3h3v-4h-1l-1,3-10-3,1,3,2-1,1,1-1,3h-3l1,2,2-1,2,2v5l-1,1h-2l-1-3h-2l-2-2,1-1-1-2,1-9-2-8,3-2,1,4h1l1-8-1-2-4-1,1-4,3,2v-8l-1-1-2,1-2-1v-10l-1-1,2-3-1-4h0ZM1109,399.9l2-1,1,2-2,1-1-2ZM1099,397.9l2-1,1,3-2,1-1-3ZM847,396.9h-1l-1,10h1l1-2v-8ZM444,395.9l1,1v3l-4,3-1-2,4-5ZM1723,395.9v19h1v-19h-1ZM549,395.9l2,7,2,1-1-3,2-3h-2l-3-2ZM545,395.9l1,7,3,6v4h1v-6l-2-2v-4l-2-5h-1ZM449,395.9l1-1,1,2-1,1-1-2ZM1734,394.9v5h1v-5h-1ZM128,394.9l1,5,2,1v-2l-2-4h-1ZM443,391.9l2-1,1,2-2,1-1-2ZM1723,388.9v5l3-1v-1h-1l-1-3h-1ZM1442,388.9v9l-2,1,2,4h1v-14h-1ZM846,387.9v5h1v-5h-1ZM106,387.9l1,2,5,1v-3h-1l-1,2h-1l-1-2h-2ZM444,387.9l2-2,2,1-2,3-2-2ZM455,385.9l1-1,1,2-1,1-1-2ZM446,383.9l1-1,2,1-1,1-2-1ZM450,382.9l1-1,1,2-1,1-1-2ZM463,380.9l1,1v6l-2,2-1-1,1-3-1-3,2-2ZM455,380.9l1-1,1,2-1,1-1-2ZM1115,376.9l2,4-4,2-1-2,1-3,2-1ZM463,376.9l1-1,2,1-1,1-2-1ZM1734,373.9h-1l-1,6h2v-6ZM449,370.9l1,1v6l-2,4-2-2v-3l3-6ZM111,368.9v5l1,1v3l2-1v-5l-2-3h-1ZM839,367.9v8l1,1-1,2h1l1-2-1-1v-8h-1ZM550,367.9v2l4-1,2,2v3l-3,1v1h2l3-4h2v-2l-2,1-3-3h-5ZM467,366.9l1,3-3,2-1-2,1-2,2-1ZM461,366.9l1-1,2,1-1,1-2-1ZM455,367.9v-2l2-1,1,2-2,2-1-1ZM506,364.9h-1l-1,2v9l-1,2,4-1v-1l-2-1v-8l1-2ZM1106,363.9v4h1v-4h-1ZM846,363.9v14l1,1-1,6h1l1-2v-4l-1-1,1-6-1-1v-7h-1ZM918,361.9h-1v4l-1,2h2v-6ZM555,361.9l2-1,1,3-1,1-2-3ZM1110,359.9l1,8-2,3-3-1-1,6,2,1-1,4,2,1-1,3v10l3,1v1l-2,1v5l1,2,3-2,1,1v3l-3,1-1,2h-3l-2-4,1-3-1-2v-8h-2l-1,3h-2l-2-2v-6l2-1,1,3h3v-3l1-1v-4l-3-1,2-3v-2h-3v8l-3,2-1-1v-3h-1l-2,2v3l-1,1v4l-1,1,1,3-2,2,1,3v10l1,1-1,2v5l-3,1-3-3h-1v1l3,4-1,3,2,1-2,2,1,3v8l2,3,1,8,2,3v2l3,3v2l2,2v2l-2,3,2,1,1,4,2,1-1,3,2,3h1l1-2,2,2v2h1l-1-8-1-1v-2l2-1,8,12,2,6v2l-2,3h2l1,2h2l-1-2,2-3,1-6h-1v2l-2,1-5-8,1-3,2-1-1-4,2-1,2,3,6,4h4v-1l-3-3h-4l-1-1,2-3-5-6v-1l2-1,3,4,2-1,1,3h1v-2l-3-4v-1l2-1v-4l-3-2-4-7h-1v2l2,4-1,1-2-1-3,1-1-1-2-8,3-2,3,1-1-5-4,3-4-5,3-4-2-2v-4l-2-1,3-2,1,3h1l1-2v-6l-1-1v-4l-1-2,1-1,4,1-1-8-1-1,1-4-2-3,2-3v-2h-1l-1,2-3-2,5-4,4,2-3-16-3-1,3-4v-2l-6-4ZM225,359.9v1l5,4h2l-4-5h-3ZM498,358.9v6h1v-6h-1ZM559,357.9l-3,2-4,1,1,3,2,2h4l1-2-2-3,1-3ZM806,354.9l1,4,3-1-1-2-3-1ZM494,352.9l2-2,1,1-1,2-2-1ZM1731,350.9v4h1v-4h-1ZM222,350.9v4h1l1-2-1-2h-1ZM63,350.9v2l1,2h1l-1-4h-1ZM1936,348.9v8h1v-8h-1ZM554,346.9v6l4-1v-2l-4-3ZM1727,344.9v4h1v-4h-1ZM845,343.9h-1v5l-1,1-2-2v-2h-1l1,11,1,1v6h2l-1-3,4-2v-3h-2l-3-3v-1l2-1,1,2,2,1-2-10ZM278,343.9l1-2,2,1-2,2-1-1ZM434,340.9l2,1v3l-1,1h-3l-1-1,3-4ZM804,340.9v4h3l-2-4h-1ZM473,338.9l1,5-2,2-1,3,4,3,1,3h1v-3l-2-2,2-6-3-5h-1ZM202,337.9l2,4-1,2-2-2v-3l1-1ZM1228,337.9v2h3v-1l-3-1ZM1725,335.9l2,1v3l-1,1-2-1v-3l1-1ZM936,336.9v4h1v-4h-1ZM277,335.9l2,2v2l-1,1h-3l-1-2,3-3ZM440,333.9l2,1v4l2-1v-3l1-1,2,2v4l-3,5,4-2,1,1v3l-1,1h-4l-2-2,1-5-2,1-2-2v-5l1-1ZM1732,332.9h-1v11l-1,2h1l1-2v-11ZM485,332.9v9l1,1v3l-2,1v4l1,1v4l4-1v-1l-2-2,1-1v-7l-2-2v-9h-1ZM265,332.9l-2,1-2-1v2l-3,5,2,3h1l2-3v-4l2-3ZM271,329.9l3,2v3l-1,1-3-2v-3l1-1ZM439,330.9l2-2,3,1-3,3-2-2ZM840,328.9l2,8h1v-4l-2-4h-1ZM502,327.9l1,2v5l1,1v7l1,1v11h1l1-2-1-2,1-3-2-6v-9l-1-1v-3l-2-1ZM465,326.9l1,5h1v-3l-1-2h-1ZM274,325.9l3,4-2,2-2-4,1-2ZM96,325.9l1-1h3l1,1-1,1h-3l-1-1ZM39,325.9v7l2,1-1-8h-1ZM1225,324.9h-1l-6,6v1h3l5-2-1-5ZM917,323.9v3l-1,1v9l-1,1,2,4-1,2,1,4-1,1v4l-1,2,2,2v3h1l-1-5,2-2,1-5-2-2,1-1-1-3,1-1v-9l-1-1v-7h-1ZM1944,322.9v5h1v-5h-1ZM936,321.9v8h1v-8h-1ZM272,321.9l1-1,3,1-1,1-3-1ZM497,320.9h-1l-1,3-1-2h-1v6l2,3v9l-1,1-3-1,2,4-1,3,2-1,1-3,2,2v4l-4,2-1-2h-1v1l2,1-2,3v2l2,2-1,1,1,2-1,1v14l-2,3v8l-1,1,1,4-1,2h2l1-8,1-1v-7l1-1v-7l1-1v-4l-2-3,1-1v-3l2-2h2v-12l3-2-3-5,1-1v-7l-2-2,1-2-1-4ZM1725,318.9l2,2v3l-1,1-2-1-1-3,2-2ZM227,321.9v-2l2-1,1,2-2,2-1-1ZM837,318.9v1l4,3-1-3-3-1ZM1727,317.9l2-2,2,1-2,3-2-2ZM918,316.9h-1l-1,4h2v-4ZM219,316.9l2-1,1,2-2,1-1-2ZM4,316.9l1,2,4,2-1-5-4,1ZM271,311.9l3-1,1,2-2,1-2-2ZM493,310.9v2l2,1v3l1,1h3v-1l-3-2-1-3-2-1ZM435,308.9h-1v4l2,3-1,1h-2l-1-2-4,1,2,6,2-1,3,4-2,3v3l2,2v2l-1,2-2,1-2,6-2-3h-1l-1,14-1,1,1,2-1,8,3,1-1,1v3l-3,3v1l3,1-4,2-1,7-2,6,2-1,2,2-2,2h-2v4l3,2-1,1-1,6-2,2v4l-2,3v4l-5,5v1l3,2-1,1h-3v2l-2,2-1,3,1,5-2,4h2v-2l4-3,2-3,2,1v4h1l2-3,1,1-3,7,4-2,1,1v4l-2,2-2,5h2l3-3-1-2,5-3,3-4v-2l5-4v-2l3-2,2-4,1-7,1-1,2,1-1,2v3l2,1,2-3v-3l2-1,1-10,2-1v-3h-1l-1-2,5-2,4-12,1-1h3l2-4,1-12,2-5v-4l-1-1,1-4h-2l-1-2h-1v3l-1,1-2-1v-7l1-2-2-1v-5l-2-1v5l-2,2-2-1v2l3,1v5l-2,1-4-5-2-1h-3l-1,1-2-2,2-2,3-1,3,2-1-2v-9l-1-1-1-12-2-3v-2h-2l1,2-1,2-5-1-3-3,3-2-1-3,2-2,2,1v-2l-1-2-5-1-2-5ZM1729,306.9l1-1,1,2-1,1-1-2ZM280,305.9h-1l-1,2-5-2,1,3-1,1-4-1-2,3v2l2,1-1,2-4-2v2l4,3v2l2,1,1,3-3,1-4-2-1-2,2-1v-1l-3,1v3l2,3h2l3,4v6l3,1-5,4-5,7v4l-1,2,3-1v-2l3-4h1l1,2,3-1v-1l-2,1-1-1,1-2-1-3,2-2,3,1-1,4,3-1,1,2-1,2-5,4-1,3h1l7-7h2l1-3,4-4,5-1v-4h-1l-3,4h-2l-2-2-1-5,2-1,1,2h1l2-3-5-1v1l-2,1-2-3v-3l-1-1,1-1,2,1v2h4l1-1,4,1,1-2,1,1v3h1l3-4h2l-4-6,1-1,2,2h3v-1l-4-3-4,1-2-2,1-3-4-2-6-6ZM230,306.9l2-2,1,1-1,2-2-1ZM47,304.9l2-1,1,2-2,1-1-2ZM914,302.9l1-1,1,2-1,1-1-2ZM221,302.9l1-1,2,1-1,1-2-1ZM1729,301.9l2-1,1,3-2,1-1-3ZM937,301.9h-1v3l-1,1v8h2v-12ZM426,301.9v3l2,1-1,3,2,2h2l1-5h-2l-1-2-3-2ZM54,300.9l1,1v5l-1,1-1-1v-5l1-1ZM227,299.9l1,3-2,2-1-1v-3l2-1ZM436,299.9v3l2,2-1,2h3l-2-3v-4h-2ZM94,299.9h-2v3l2-1v-2ZM1645,298.9v1l3,2h2v-2l-5-1ZM278,298.9l1,3h1v-2l-2-1ZM913,299.9v8l2-1,1,1v3h2l-1-2v-11l-4,2ZM829,297.9l5,15,2-1v-3l-3-4-1-6-3-1ZM59,296.9l4,6-1,1h-2l-2-3v-3l1-1ZM53,298.9l2-2,1,1-1,2-2-1ZM4,297.9v9l1,2,2,1-1-2-1-10h-1ZM1644,295.9v1h4v-1h-4ZM972,293.9l3,2v2l-2,2-2-2v-3l1-1ZM56,293.9l2-1,1,3-2,1-1-3ZM432,291.9l1,5h3l1-2-3-3h-2ZM936,289.9v4h1v-4h-1ZM423,286.9l2,3-2,1v6l2,3h1l1-3,4,3-1-4-3-3-3-1,2-3-3-2ZM82,286.9h-2v3h1l1-3ZM1741,285.9l-3,2-3-2,1,2v2l-2,3,1,3-2,2h-2l-1,2h-2l-1,3,1,2v5l-2,6-2-2,1-1v-10l-1-1,1-2v-3l-1-1,1-2h-1l-2,3,1,5-1,3-2,2v2l2,1v4l-1,1,1,2v7l-2,1v2h1l2,3-1,2-2,1v2l2,1,1,4-2,1,1,2v7l1,1v3l-1,1,1,3-1,1,1,2v8h1v-12l3-1v-1l-3-1v-9l4-3v-8h-2l-1-2,1-1h6v-2h-3l-1-1v-4l2-1,1,1v3h1v-11l2-6v-8l1-1v-3l2-6,2-3h2v-3ZM1652,285.9l-3,4,2-1,4,3v4h2v-2l-2-3v-3l-3-2ZM1292,285.9l-5,3v1l-2,1v2h1v-2l3-1,3-4ZM55,285.9l3-1,1,2-2,1-2-2ZM1220,284.9v2l2,1,3,4,3,1v-1l-7-7h-1ZM203,284.9l1-1,1,2-1,1-1-2ZM270,283.9l-3,1v3l1,1,2-1v-4ZM219,283.9l-1,4,3,1,1-3-3-2ZM32,283.9l2-1,1,2-2,1-1-2ZM91,282.9l1,6-2,2-1-2h-1l1,3,3,1,1-8-1-2h-1ZM1278,280.9l-3,1v1h2l1-2ZM39,281.9l1-2,2,1-2,2-1-1ZM1739,279.9h-1l-2,4,2-1,1-3ZM817,278.9l2,5h1l-2-5h-1ZM483,278.9l1,4-2,1v1h1l1-2,2,2,1,4,3,4v3l2,2,1,5,3,1v-4l-5-7-1-5-2-2-1-4-4-3ZM38,277.9l1-1,2,1-1,1-2-1ZM78,275.9l1-1,2,2-2,1-1-2ZM200,273.9l1,1-1,1v4l-2,2-1-3,1-1v-3l2-1ZM1285,273.9v4l-2,3h3l1,2h1v-1l-2-1v-2l2-3-3-2ZM420,273.9v3l4,4,4-3v-1l-4,1-3-4h-1ZM32,273.9l1-1,2,2-2,1-1-2ZM6,273.9l-2,1v2l2-1v-2ZM79,272.9l1-1,2,1-1,1-2-1ZM981,269.9l2,2-1,3-2-1v-3l1-1ZM750,270.9l1,4,1,1h3v-1l-5-4ZM412,272.9l1-3h3l1,1-2,3-3-1ZM50,270.9l-2,3h-3l-1-1,1-2,3-1,2,1ZM98,269.9l1,2-1,2v6l-1,1,1,2-1,3,1,2v8l-2,1v2l3,2-3,4h-2v3l2,2v5l2-1,1,1v4l-1,1h-3l-1-1v-4l-1-2h-1v2l2,6v7h3l1,1v4h1v-3l1-1,2,3v5l1,1v5l1,1v3h1l-1-7,3-1v-3h-1l-1,2-2-2v-5l1-1h4l1,2h1v-3l-1-2-3,2-1-2-2-1,1-4-2-1,1-1h2l1,2,3-1-1-3,1-2-3-8h-1l1,2-1,3,1,1-1,1h-3l-1-1,1-4-1-1v-5l-1-1,1-7-2-4,1-1v-4l-1-2,2-2,1-12-4-1ZM34,269.9l1-1,1,2-1,1-1-2ZM410,268.9l1-1,2,1-1,1-2-1ZM1303,270.9l3-4,3,2-4,3-2-1ZM972,266.9l3,1-1,3,1,2v9l1,1-1,2,1,2v5l-1,1-3-1,1-3-1-2v-16l-1-1,1-3ZM56,269.9l1-3,3,2-2,2-2-1ZM36,267.9l1-1,2,1-1,1-2-1ZM1273,268.9l1-3,2,2-2,2-1-1ZM455,266.9v2l3,1v-1l-3-2ZM48,266.9l1-1,2,1-1,1-2-1ZM1425,264.9l1,9h2v-3l-2-6h-1ZM981,262.9l2,1v4l-1,1-2-1v-4l1-1ZM65,263.9l1-1,1,2-1,1-1-2ZM1290,262.9h-2l-4,7,4-3,2-4ZM68,262.9l1-1,2,1-1,1-2-1ZM1727,261.9l-2,1v2h1l1-3ZM402,260.9l3,8,2,1,1,6,3,3,1,5,3,2-1-3,3-2,1-2-4-3,4-3v-2h-1l-3-4h-3l-1,1-2-2,1-4-4,1-3-2ZM273,260.9h-1l-5,9-1,12h2l1-8,1-1v-5l3-7ZM207,260.9l-1,1v5l-1,1-1-3h-1l-2,3-1,4-3,2v4l-1,1,1,8-2,2-1,4,2,2v3l-1,1,1,2v6l-1,1,1,2v6l2,5v5l2,4v3l-1,1-1-2-2-1v3l3,9,3,2,4,8,4,3v-1l-2-1v-3l-2-2-1-4-2-1,2-1-1-3,1-2,3,3,1,3h1l-1-2,2-3-3-2-1-5,1-1,1,2h1l-1-2v-7l1-1,2,2v4h2l-2-12,1-1,2,3h1v-8l-1-2,1-1,2,2v11l2,3v3h1l3-4,1,1v2l2,2-1,2,2,1v3l1,2,2,1,2,6h1v-2l-2-2v-4l1-1-1-5,2-1-1-2v-5l-2-1,2-2,2,2,1,5,4,2-1-2v-3l-2-1-3-9-2-1,2-1v-8l1-1v-3l-1-1h-3l-1-2-3-2v-7h-1v5l-2,2v3l-2,1-1,2-2-2h-3v5l-1,1-2-1-1-4,1-1,2-13h-2v3l-2,2-2-2,2-2v-8l2-2,1-8-4,1,2,3-2,1v2l-4,6-1-1,1-10,4-8h-3ZM45,259.9l2,1v3l-1,1-2-1v-3l1-1ZM1426,257.9v1l3,2v3h2v-2l-2-3-3-1ZM972,256.9l2,1v6l-1,1-2-5,1-3ZM215,257.9l-2,4,3,1-1-2,1-3h-1ZM45,257.9l1-2,2,1-2,2-1-1ZM445,255.9v2l5,6h2l1-2-5-2v-4h-3ZM102,256.9l2-2,1,1-1,2-2-1ZM1297,254.9l2-1,2,3-3,1-1-3ZM1278,254.9h-1v1l2,1v1l-2,1,1,5-3,1-2-3-3,2v1l2,1v2l-2,2h-2l-1,9-2,3h1l6-7h2l2-3,2-1v-3l3-1,1-3-3-2,1-5h-1l-1-2ZM972,251.9l1,3-3,2-1-3,3-2ZM1723,251.9l1,2-1,3,3,1,1-2-2-4h-2ZM1294,251.9l2-1,2,3-1,1-3-3ZM1269,251.9l2-1,1,2-1,1-2-2ZM749,251.9v1l6,3,1,2h3v-1l-10-5ZM402,250.9v3l4,5h1l-1-3,1-1,3,1v-1l-8-4ZM102,250.9l2-1,2,2-3,1-1-2ZM1308,249.9l1-1,2,1-1,1-2-1ZM1186,249.9l-3-1-6,4v1l9-3v-1ZM761,248.9l-3,1v1h3v-2ZM1403,247.9l3,4h2l7,6,1,3,3,2-3-5,1-2-1-3h-1l-1,2-11-7ZM1270,247.9l-2,3v2l6,5v-6l-3-4h-1ZM750,245.9l1,2,6-1v-1l-3-1-4,1ZM1719,243.9v2h1l1,2h2v-1h-2l-1-3h-1ZM1295,242.9l2-1,1,2-2,1-1-2ZM1262,242.9v3l3,1-2-4h-1ZM1180,242.9l-3,1v1h2l1-2ZM968,240.9l-2,3v2l3,2v-7h-1ZM410,240.9v1l4,2,3,4h2l-4-5-5-2ZM400,240.9v2h1l3,4,4,1,4,3,3,4,2,1h4l3-3h2l1,1-1,3,3,1,1-3-3-1-1-2-4-3h-1l1,3-4,3-2-1-2-3-6-5v-1h-2l-4-4h-2ZM230,240.9h-1l-1-2h-2l-8,8v1h2l4-3h2l3-2,1-2ZM1366,243.9l2-1h4l3-2h2v-1h-4l-6-2-1,6ZM277,237.9h-3l-4,3,1,3,4,1,1,2,3,2v1l-5,4-1,5,6-4v-2l2-4-3-1v-2l3-4h-1l-1,2h-5l-1-1,4-5ZM755,236.9v4l2,2,3,1-1-2,1-3-5-2ZM403,236.9v2h3v-1l-3-1ZM1278,234.9l1,1-3,4-1-2,1-2,2-1ZM1257,235.9l-1,3,4,2-2-3v-2h-1ZM762,235.9l1,5h1l10,10v1l4,3-9-13-6-6h-1ZM745,235.9v1l3,2v-2l-3-1ZM442,235.9l2-1,1,2-2,1-1-2ZM96,237.9l1-3,2,2-2,2-1-1ZM1248,231.9l1,3,3-1,2,1-1-2-5-1ZM429,230.9v1h2l1,2,4,3v5l1,1h2l1-2h2l1,1-2,3,3-1,5,3,6,2-1-3-2-2,2-3-3,2-2-2,2-3h-1l-6-7h-4l-2,3-2-1h-4l-1-1,3-1v-1l-5,1ZM750,227.9l1,3,3,1v-1l-4-3ZM741,227.9v3l5,2v-1l-5-4ZM1734,226.9l1,3,2,1,4,5,3,1v-2l-2-2-4-1-1-3-3-2ZM1262,226.9l-2-1v2l-1,1-2-1v1l3,1,2-3ZM985,225.9h-2v3l2-1v-2ZM665,230.9l2-1,10-1,10,4v-2l-2-2,3-2,2,1,3-1,4,1,1-1h4l2-2h2v-1h-25l-3,2-10,1-1,1h-3l1,3ZM294,222.9l-5,4h-2v1l2,1-1,2-4-1v2l2,1-3,1-4,5h1l3-4h3l3-5h2l2-2h3l-2-5ZM1739,222.9l-2-1-2,1v1l2-1,2,1v-1ZM1728,220.9v3l2,2h2l-2-3v-2h-2ZM1273,220.9l2-1,1,2-1,1-2-2ZM1277,219.9l2-1,4,4-2,1-4-4ZM724,221.9l1,2,5,1,7,5h1l1-3-3-1v-2l2-2v-1l-2-1h-3l2,3-1,2h-3l-7-3ZM711,219.9v2l10,1v-1l-10-2ZM15,219.9h-3v6l-2,5h2l1-8,2-3ZM1926,218.9v2l2,1v-2l-2-1ZM692,217.9l2,3,2-1,5,1v-2h-6l-3-1ZM722,216.9v1l3,1v-2h-3ZM414,216.9l1,3,4-1v-1l-5-1ZM1445,214.9v2l3,1v-1l-3-2ZM630,214.9h-2v5l-2,1v1h2l2-7ZM1616,213.9v2h3v-1l-3-1ZM1930,212.9v1l3,2v-1l-3-2ZM1256,210.9l4,6,5,4,3,4-1,1-3-1,1,2h4l1-1,2,2-1,2h-3v1l3,1v4l-1,1-2-3h-3l-2-3h-1v1l18,15,2,3v2l3,3,2,6,2-1v-6l-5-4-3-10,2-1,1,1v3h5v-2l2-2,1,1v5l-2,1v2h2l3,3-1,1-3-1,2,6,2-1,2,2-2,1v2l1,1,3-1,1,2,3-2,3,1v4l-3,1v2l-2,3-2,1v1h1l1-2,2-1,1,1-5,6v1h1l13-12v-1l-2,1-1-2,4-3,5-6h-2l-2-3-2,1-2-1,1-3h-1l-9-10,1-3h-1l-1,2,1,3-2,1-1-2-2-1-1-4-2-1v-4l-5-4-1-2-3,2-2-2,2-1v-2l-3-3-4-1-1-3h-2v2l-4,3-2-2h-2l-2-3h-4l-1-2-4-2ZM338,210.9v1h4v-1h-4ZM1914,209.9l1,2h2v-1l-3-1ZM645,209.9h-1l-4,5-2,1-2-1,1,2-4,3-1,2,8-4h4l1-1-1-2,1-5ZM735,208.9v1l4,1,2,2,1,3h3l1-1-1-2-3-1-2-2-5-1ZM690,207.9l2-2,2,2-1,1-3-1ZM1394,205.9l-4,3,1,3,3-1v-5ZM975,202.9l2,2-1,3-2-1v-3l1-1ZM698,202.9l1-1,1,2-1,1-1-2ZM646,202.9l-7,4-4,5h2v-2l7-4,2-3ZM712,201.9l1,2h6l2,1v-1l-2-1-7-1ZM54,200.9l1,1-1,3-1-1,1-3ZM1896,200.9l1,2h2v-1l-3-1ZM70,199.9l1,3-3,4-2-2,4-5ZM974,199.9l1-1,1,2-1,1-1-2ZM737,198.9l1-1,4,1,2,2v2l-2,1-3-2-2-3ZM685,198.9l2-1,1,2-2,1-1-2ZM976,197.9l2-1,2,3-2,1-2-3ZM695,198.9l2-2,3,1-1,2h-3l-1-1ZM689,198.9l1-2,3,1-2,2-2-1ZM1253,196.9l1,2h2l1,2h1l-3-4h-2ZM666,200.9h5l9-3v-1l-3,1h-5l-2-1v1l-3,1-1,2ZM722,196.9l1-2,3,1-2,2-2-1ZM1913,195.9l4,2,3,3,4,1v-1l-3-1-2-2,1-2-3-2h-3l-1,2ZM972,193.9l2-1,1,2-1,1-2-2ZM1899,191.9l2,1,3-1,6,2v-1l-5-1-2-2h-3l-1,2ZM1597,189.9h-2l-8,5-6,1-3,3-12,7-3,4h-3l-3,2-1,2,2,1-7,5-4,5,3-2,3,2,4-4h2l5-3h6l5-5,5-1,2-4h3v-3l2-2h2l9-5v-1h-1l-4,3h-2l-6,3-2-1,3-4,4-1,3-3,3-1,1-3ZM1244,189.9v1l4,3h2v-1l-6-3ZM979,188.9l3,3v1l-3,2-1-1v-4l1-1ZM1892,188.9v1l2,1h3l-1-2h-4ZM678,205.9v1h6l2,3,3-1,2,1,7-1,2,3-1,1h-4v1l2,1h3l1-1,1,1h4l1-2h-3l-1-1,2-2h4l2-3-1-1h-4l-1,1-2-2,1-4-3-2v-2l1-1,1,1h4l2-1,5,2h8l2,3h8l2,2h4l2,2,4,1,5,4h3l2,3h1v-2l-3-3-7-4,1-2h2v-1l-3-2h-2l-6-3-4-4-6,1-3-2h-5l-2-2h-5l2,3-1,1-3-1h-5l-1,1-1-3-3,2-1-3h-9l-3,1-1,2,3,2-1,1h-3l-3,2,2,4-2,2h-3v1l2,1-3,1ZM71,187.9h-1l-1,3v4h1l1-7ZM1858,188.9h-1l-1-2h-2l-2,1,1,2-2,1v1l7-2v-1ZM1846,184.9l-5,1-7,4v3l-3,3-6,2-5,6h2l13-6,7-1,1-2,5-2v-1l-4,1-1-1,2-1v-1l-2,1-2-2,2-2h2l1-2ZM68,184.9h-1l-2,3h2l1-3ZM1870,183.9l1-1,2,3-2,1-1-3ZM1642,180.9v1l4,1v-1l-4-1ZM1916,178.9v1l5,2-1-2-4-1ZM1860,188.9h8l1-1h6l1-1,2,1,1-1h3l1,3h1l1-3,3-2h4v-1l-2-1h-4v2l-3,2-1-1,1-4h-8l-2-1-1-2-2,1-4-1,1,2-3,3h-2v1l2,1-2,2-2-1v2ZM1209,178.9l1,4,3-1,1,2h4l1-2,3,2,2-1-1-3-11,1-1-3-2,1ZM1870,172.9v1h6v-1h-6ZM1880,171.9v1h8v-1h-8ZM1623,171.9h-2l-6,3v1l6-3h2v-1ZM985,170.9h-2v3h1l1-3ZM73,166.9h-1l-1,4h1l1-4ZM975,156.9l1-1,2,1-1,1-2-1ZM452,156.9l-2,1v3h1l1-4ZM980,154.9l1-1,2,3-2,1-1-3ZM104,150.9l-5,4v5l-5,10v5h1l5-8-1-3,6-8v-4l-1-1ZM82,149.9h-2l2,3-4,2v2l-4,6v1l3,1-3,6h1l1-3,5-4v-1l-2-1v-3l5-7v-1l-2-1ZM74,149.9l-3,1-1,4-3,4-3-1-3,3-1,2v4l3,1-3,4v3h1l3-7,4-5v-2l6-11ZM78,143.9l-2-1-1,3h2l1-2ZM109,126.9l-3,1-2,6-4,3v4l-4,3-11,24-2,1-10,26-3,3-3-1v5l-4,2,1,9-3,1-1-3-2,1,3,2-1,1-5-1,6-18h-2l-3,5-3-2-2,4-2-1,4-8v-4l-6,13-6,3-1,9-4,9,1,2-2,2-2-1-1,2,4,1-1,5-2,2h-3l-1,6h3l2,2-2,6,2,8-2,2-1,11-3,5,1,18h2l2,3,2,9-1,2,2,1,2-4-2-2,1-6,2-1,2,2-1-13h3l1,5,1-3h3l-1-3h3l1,5-4,2,2,6h-4l1,13,2-2,2,1,1,10,2,1,1-2,1,4-3,1-1,3-3-3,1,7-4,2,3,3,2-2,3,8h5l4,7,1-2-2-6,3-3-3-2-1-5-5-3v6l-2,1-2-2v-3l2-4,5-1-2-4h3l-1-5,2-2,2,3v7l2,4-1,6,3,1,3,6v-10l-5-10,1-10,2-3-2-25,1-6,2-2-2-3,2-2,3,2-2,17,1,5,2-3v-5l3-4,5,3,2-1v-6l3-8-1-4,3-2v-3l2-2,6,2-3,12,1,4,3-6-1-2,2-2h5l3,2-2-6,3-1,3-5-1-10,3-14-4,7-3,2v-10l3-3-4-3v-4l-2,6h-4l-2,11-2,2h-4l-1-2-4,2v-5l3-2,2,3,1-3,2,3,1-6-2-4-1,1,2,1-4,3-2-2,2-13-3,3,1,3-3,8,1,4-1,1-2-2-1,4,2,5,3-1,4,3-3,2,2,4,1-4,2-2,2,1v7l-3,4-3-3-3,4-2-2,2-3-2-5-6-3,2-7-1-4,4-7v-5l4-9-1-3,3-15-9,15h-4l-1,8h-3l3-17,3-3,9-28,7-14,6-6v-5l4-3,2-6,6-7s-1-2-1-2ZM981,123.9l2,2v2l-2,2-2-2v-2s2-2,2-2ZM92,119.9l-4,1v1l-2,1v1l-6,6-1,5-3,4,3,1,2-2h3v-4l8-8h1v-1l-3-1s2-4,2-4ZM979,118.9l1-1,2,2-2,1-1-2ZM923,117.9h-1l-1,3h2v-3ZM128,103.9l1-1,2,1-1,1-2-1ZM123,101.9l2-2,1,1-1,2-2-1ZM136,90.9l1-1,1,2-1,1-1-2ZM427,85.9v3l3-1-1-2h-2ZM143,84.9l1,1-1,3-3,2h-2l-1-1,6-5ZM143,84.9l1-2,2,1-2,2-1-1ZM889,78.9v1l3-1,2,2-3,1,2,3h3l-1-2,2-2,3,2v-1l-2-1-1-3-4,1-1-2h-1v1l-2,1ZM161,74.9l-4,4-4-2,2-2h3l1-1,2,1ZM897,74.9v1h5l1,2h3l-2-4-7,1ZM885,67.9l1,2,7,1-1-2-7-1ZM165,66.9l1,1v4l-2,2-1-1,1-2-1-3,2-1ZM981,65.9h-1v15l-1,1v6l-1,1-2-2v-5h-2l1,3v22l-1,3,2,1,1,11,1,1v3l-1,1v4l1,1-1,6,1,3-2,2,2-1,1,1v2l-4,3-1-1v-9h-1l-1,18,3,6v11l1,2-2,3,1,3-2,1,1,7-3,2h-2l-1,4,2-1,2,2-1,2-2-1v9l3,1,2,20-2,2,1,3v9l-1,1,1,7-2,2-4-1v5l3,2-1,3,1,3v4l-1,1,1,3-1,3v9l2,5v6l-3,1-3,6v4l2,2h2v-4l1-1,3,1-2,2,2,2-1,1v5l-1,1-2-2v-2h-1v4l-2,4,1,3-1,3,2,1v15l3,2-1,5,2,4-1,1,1,7h1v-4l1-1-1-4,2-4,4-1,1,1v3l3,2-2-2,2-2v-2l-1-1-1-19-2-3v-7l-1-1v-12l3-3h2l1-7,1-1v-10l-1-1,1-4-2-6,1-2v-13h-1v6l-1,1-3-1,1-1-1-2,1-3-1-6,3-1,1,3h1l-1-3,1-1v-15h-1v3l-2,2,1,6-2,1v4l-1,1-2-1,1-11-2-3,1-2-1-3,1-2-1-14,5-4,3,2v-11l1-1v-3l-1-1,1-3-1-10h-1v3l-2,3-4-4,1-2h2l1-3h3l-1-3-2,1-1-3-3-1v-4l3-1v-3l-3-1v-5l2-1,4,2-1,5,1,3h1l1-2-1-3,1-1v-4l-1-1,1-1v-6l1-1-1-2v-6l-1-1,1-2v-7l-1-1,1-5-1-1,1-1,1-10-2-5,3-5-2-1v-17l-1-3,1-1,2,1-1-2,1-4-2,1-1-1v-3l-3-2s0-5,0-5ZM909,62.9v3h3v-1l-3-2ZM896,60.9l2-2,2,2,3,1-1,1h-4l-2-2ZM900,57.9l3-1,1,2-3,1-1-2ZM187,59.9v-2l2-1,1,2-2,2-1-1ZM207,50.9v-1l3-2,2,1-2,3-3-1ZM197,49.9l-4,3h-3l-1-1,2-2h2l3-2,1,2ZM907,46.9l-3,2h-2l-3,3h-5l-2,2-4,1-1,2-8,4-1,3,1,1h11l1,1,2-1,2,1,5-1,1,2,3-1,2,6h1l-1-9,2-2,1-4-3-1,2-2v-1l-2-1,1-5ZM245,45.9l-9,3h-4l-1,1-6,1v4h2l-1-2,3-2,8-1,8-3v-1ZM979,44.9v8l1,1-1,5,4,4v3h1l2-4v-3l-2-2v-3l-3-1,3-1v-1h-3l-1-1v-3l2-1v-1h-3ZM199,47.9l2-4,2,1-1,2,3,1-1,1h-4l-1-1ZM963,37.9h-3l-1,3,2,1v-2l2-1v-1ZM228,30.9l-4,5h-3l-1-1,2-3h2l2-2s2,1,2,1ZM251,29.9h-2l-1-3h-3l-3,3h-2l-6,3h-3l-3-3,1-2h-4l-5,2-3,4-2-1,1-2-4,1v3l-3,1,1,2-3,3-6,1-2,2h-3l-1-1,3-3v-2l2-1v-1l-4,1v3l-4,2-1-2h-4l-10,5-3-1-6,4h-2l-7,4-4,5-4,1-1,2-2,1v1l2,1-3,3-2-1,1,3-5,3v2h2l4-4,4-1,2-2,3,2,2-3h3l8-5,3,1-8,5-1,2h-2l-4,5h-2l-6,4v3l-2,2-2-1-2,3h-2l-5,5-13,9-2-1,1-2v-4l5-2v-1l-2-1,8-8h1v-1l-11,6-1,2-7,4-4,4v3l-4,4v3h2l6-5h2v-3l1-1,2,1,1,3-8,7-1,4-3,1v1h2v-1l2-1,2,3-1,1h-3l-2,3-4-1v1l-3,2v1l3,2-3,5-2-1,1-2-1-2-4,2v4l-2,1-2,3,1,2-3,1-2,2-2,5,3,2,1-3,5-4,7-10,2-1,7-8,3-1,3-4,3-1,1,1-1,2-5,4-2,3h-1v3l3-1,1-3,4-3v-2l3-3v-2l-2-1-1-4,2-1,1,2h1l3-3,3,2v-1l3-2-1-5-2-1v-2l2-2,2,2v2h1l4-3,4-5h2l6-5,4-1,5-4,2,1,4-6h3l8-5h3l4-3h2l3-2h3l1,2-5,3v1h1l2-2,6-2,6-4h2l-1-2,1-2-1-1,2-2h1l1,2h2l1-1-1-3,4-2-1-4h-4l-1,1h-3l-1-1,3-2,1-3h1l1,2,6-1-1-2,2-2h4l4-3,3,1,3-2h5l7-3h6l2-1s0-1,0-1ZM980,9.9l-8,3-3,4h-2l-3,2v1l2,1v8l-2,1-1-2-3,1v1l2-1,1,2-1,1h-3v3l5-3,2,1v-3l2-2h2l1-3,1,3h4l2,1,1-2-1-4,3-4v-7s-1-2-1-2Z"/>
  </g>
  <path class="st3" d="M690.9,446l-5.4-27.5c-1.3-6.7-3.6-12.8-6.4-18.9-7.4-15.8-20.6-21.8-36.8-26.3l-30-5.9c15.6-3,31.5-5,46.2-11.7,9-4.1,15.8-10.9,20.3-19.7,2.9-6.4,5.4-12.7,6.8-19.7l5.4-27.5c3.1,16.4,5.3,34.5,13.2,49.2,7.1,13.2,19.3,18.9,33.4,23,10.6,2.7,21,4.5,32.2,6.5-17,3.3-35.7,5.4-51,14.2-6.5,3.9-11.4,9.3-15,16-7.6,15-9.7,32.1-12.8,48.5v-.2h-.1Z"/>
</svg>