<?xml version="1.0" encoding="UTF-8"?>
<svg xmlns="http://www.w3.org/2000/svg" viewBox="0 0 409.19 709.78">
  <g id="golem_fragment_top_left">
    <path fill="#f7f3e4" d="M126.4 284.9c-25.4 12.8-31.7 37.4-32.2 69.1l-.9 58.2c-.2 18.9 4.9 35.2 17.8 47.2l24.7 8.8 20.8-14.1 5.3-65.7 18.9-67.4 17.8-12.2-17.2-31.8c-17.1-1.2-37.2-.1-55 7.9z"/>
    <path fill="#fcd9b1" d="M114.5 411.9c-5.8 8.9-12.7 25.3-14.6 38.8l27.6 28.1 30.7-24.6-13.7-17.3-18.5-13.2-1.1-25.5c-4.1 2.6-7.2 6.5-10.4 13.7z"/>
    <path fill="#f5aeb5" d="M141.2 344.6c8.4-14.2 22.2-25.8 39.7-32.7l-7.6 126.5-36.7 15.2c-1.1-23.4 1.9-43.2 2.5-62.6.6-17.7-3.8-33.4 2.1-46.4z"/>
    <path fill="#3b62a2" d="M101.9 454.9c17.9 15.1 41.8 20.5 72.7 21.8l-22.1 22.6-52.6 12.5-22.4-25.8c.4-11.6 4.8-24.6 24.4-31.1z"/>
    <path fill="#20375a" d="M111.2 459.4c10.5 5.2 21.6 8.2 33.8 9.7 8.4 1 18.2 1.8 29.6 2.2l-12.6 11.4c-25.6-.8-48-5.2-63.1-14.1l-2.2-9.7c4.6-2.1 9.2-1.9 14.5.5z"/>
  </g>
</svg>
