<?xml version="1.0" encoding="UTF-8"?>
<svg xmlns="http://www.w3.org/2000/svg" viewBox="0 0 409.19 709.78">
  <g id="golem_fragment_bottom_center">
    <path fill="#f7f3e4" d="M132.8 536.2c47.2 5.9 97.6 7.1 151.2 3.5l9.5 132.5c-23.1 8.8-51.3 13.4-84.5 13.8-33.1.4-62.5-3.4-88.1-11.4l-9.2-132.8 21.1-5.6z"/>
    <path fill="#fcd9b1" d="M211.5 542.4c8.8-.7 17.7-.6 26.6.1l16.4 43.5 25.4 83.4c-19.3 4.5-42.4 6.9-69.3 7.2-21.8.2-40.7-1.1-56.8-3.9l18.2-54.7 26.8-60.2c3.3-7.3 7.5-12.5 12.7-15.4z"/>
    <path fill="#f5aeb5" d="M172.4 538.7l39.6 3.4-19.9 50.5-26.7 77.9-13.5 3.3c-9.1-27.2-17.2-54.5-24.4-81.9l-13.2-51.1 58.1-2.1z"/>
    <path fill="#3b62a2" d="M235.5 541.8l52.2-4.6 34.2 88.6c-3 20.4-13.8 35.8-32.5 46.3l-10.4-4-43.5-126.3z"/>
    <path fill="#20375a" d="M119.8 672c21.8 7.3 52 10.9 90.6 10.8 38.1-.1 67.7-4.5 88.9-13.1l-14.3 17.1c-17 9.1-43 13.7-78 13.9-33.3.2-60.5-3.6-81.6-11.3L119.8 672z"/>
  </g>
</svg>
