<?xml version="1.0" encoding="UTF-8"?>
<svg xmlns="http://www.w3.org/2000/svg" viewBox="0 0 409.19 709.78">
  <g id="golem_fragment_top_center">
    <path fill="#f7f3e4" d="M169.4 274.6c31.5-3 65.2-1.8 94.3 4.9 15.4 3.6 27.1 9.2 34.7 17.2l-8.4 45.7-18.5 31.4-2.7 84.4c-17 7-40 10.3-68.8 9.8-12.8-.2-25.8-1-38.9-2.4l7.8-143.8-23.2-17.6 23.7-29.6z"/>
    <path fill="#fcd9b1" d="M170.2 318.1c11.1-3.4 20.8-6.7 30.1-9.8l24.5.2 29.6 1.1 6.9 21.4c-13.3 6.6-27.7 12-42.5 16.7l-8.2 86.8-29.9-3.4-1.1-76.4-10.4-11.1 1-25.5z"/>
    <path fill="#f5aeb5" d="M257.6 298.2l31.6 7.2c-1.9 9.2-7.5 19.8-16.2 31.9 5.9 25.7 7.9 64.7 5.9 117l-11 10.7c-10.9 3.8-24 6.2-39.4 7.1l6.8-26.8 16.5-15.6-10.5-59.7c9.5-1.2 15.2-7.7 11-13.8-2.8-4.2-9.1-5.7-15.4-3.9-5.1 1.5-8.2 5.4-9.2 10.6l-1.4 73.2-15.3 1.4 7.3-89.7c13.1-4.1 26.6-9 40-14.7l-7.3-20.1 6.1-12.8z"/>
    <path fill="#3b62a2" d="M183.3 430.5l45.1 6.4 6.8 38.1c-25.4-.3-52.7-2-81.8-5.1l7.2-35.1 22.7-4.3z"/>
    <path fill="#20375a" d="M156 460.6c39.4 5.6 76.6 7.2 111.7 4.5l-11.9 10.6c-34.6 4.5-75.7 2.3-123.2-6.6l2.9-12.2 20.5 3.7z"/>
  </g>
</svg>
