<?xml version="1.0" encoding="UTF-8"?>
<svg id="Réteg_1" data-name="Réteg 1" xmlns="http://www.w3.org/2000/svg" viewBox="0 0 409.19 709.78">
  <defs>
    <style>
      .cls-1 {
        fill: #f5ddc7;
      }

      .cls-2 {
        fill: #1c395c;
      }

      .cls-3 {
        fill: #f39ea5;
      }

      .cls-4 {
        fill: #f9d0b4;
      }

      .cls-5 {
        fill: #456fa4;
      }

      .cls-6 {
        fill: #a0a4b3;
      }

      .cls-7 {
        fill: #f0afa4;
      }

      .cls-8 {
        fill: #2f558d;
      }

      .cls-9 {
        fill: #eaa3a3;
      }

      .cls-10 {
        fill: #f19693;
      }

      .cls-11 {
        fill: #fbedde;
      }

      .cls-12 {
        fill: #fcddb8;
      }

      .cls-13 {
        fill: #f9f4e7;
      }

      .cls-14 {
        fill: #1a4e7c;
      }

      .cls-15 {
        fill: #3e649e;
      }

      .cls-16 {
        fill: #606893;
      }

      .cls-17 {
        fill: #ee8d9a;
      }
    </style>
  </defs>
  <g id="Generatív_objektum_180_30_" data-name="Generatív objektum (180, 30)">
    <path class="cls-15" d="M222.51,78.95c1.37,1.48,2.11,3.09,1.42,5.68l6.17,2.76c21.52,28.37,38.2,55.14,47.89,90.26.55,2,3.49,3.37,2.19,6.16-1.08,1.08-.76,3.08-.52,4.72l3.25,22.04c.69,4.69.99,9.57,2.1,14.33-.76,1.06-.89,2.42-.96,3.6-1.88,1.42-3.7,3.74-3.85,5.89l2.12,7.37c2.25-.11,2.6-1.14,3.87-1.58l3.61,12.51c3.47-1.89,2.95-5.92,4.83-8.28,1.7.87,1.93,3.09,2.23,4.66-4.43,14.06-11.53,22.32-23.74,31.85,2.42,3.14,7.2-3.66,11.7,2.16,2.12,2.75,6.09,5.33,7.5,8.65,2.86,6.68,3.59,13.77,4.58,21.58,10.79,85.31,23.06,169.59,37.05,254.05l7.07,42.7,6.18,37.1c.42,2.54.3,5.08,1.94,7.22-1.03,2.64-2.81,3.98-4.72,6.01-7.11,7.53-14.43,13.38-23.53,18.49-31.13,17.5-72.62,26.09-109.26,27.37-20.18.71-39.91-1.9-59.74-5.76-21.77-4.24-42.27-11.23-60.71-22.04l15.75-98.76,14.79-95.15,11.35-73.79,7.66-50.9,8.51-50.84c.98-5.83,7.54-11.29,12.07-14.32,3.18-2.13,7.57-.14,10.62.05,1.76-5.05,6.04-8.63,11.55-7.69,3.5-2.69,7.03-1.78,11.78-1.36l-13.6-7.85c-9.81-5.67-17.81-12.2-24.69-21.29-3.61-4.78-6.07-9.71-9.06-14.72-2.74-4.59-5.35-8.91-3.44-15.14-4.05,1.69-5.28,4.32-8.63,4.88l9.18-22.43,7.97-28.15c.57-2,2.41-5.27,1.53-7.04-1.91-3.86-.1-5.4.93-8.52,4.35-13.21,8.9-25.88,16.26-37.77,9.49-15.33,21.21-28.17,35.6-38.15,1.75-1.22,3.41-3.21,5.96-4.07,1.78-.6,3.88-1.36,3.84-3.62,1.26-1.71,3.76-2.12,5.42-2.89ZM223.95,205.86c14.09.35,27.2-3.48,39.47-8.52,2.54-1.04,4.57-2.57,6.1-4.73-1.82-1.16-4.55-1.44-6.69-.87-22.11,5.92-54.83,4.31-78.51,2.39-.51-.01-.36,2.44.23,2.43-.08,0,14.63,8.68,39.4,9.3ZM225.77,548.51c-4.95,2.52-9.74.62-14.54.12-2.71-.29-5-.7-5.37-3.01-1.34-8.46,15.42-12.26,15.85-13.91.1-.39-.95-1.53-1.53-1.26l-24.55,11.48c-1.8.84-3.45,4.04-2.07,5.73,9.37,3,19.47,4.42,29.59,5.65,4.16-2.4,7.2-5.32,10.27-8.77-3.23,0-5.08,2.65-7.65,3.96ZM221.32,581.38l6.38-6.45c-10.3,2.32-23.78-1.87-24,.26s10.93,1.04,17.61,6.2Z"/>
    <path class="cls-15" d="M135.03,234.25l2.75,1.98,6.78,18.67c2.2,6.06,3.01,11.33,1.99,18.25l-28.16,190.88-23.09,151.41-8.41,52.7c-.38,2.37-.96,4.57-.55,6.97-18.5-9.04-30.33-19.83-38.55-39.13-2-4.69.17-9.95.79-14.79l16.56-129.99,3.34-30.57,12.34-109.79,11.3-94.26c.92-7.67,2.67-13.79,7.99-19.36,2.06-2.15,4.04-4.24,6.97-5.32.84-.31,1.47-.95,2.3-.3.42.33,1.32,1.73,1.89,1.79,8.1.95,15.97,1.05,23.78.85Z"/>
    <path class="cls-2" d="M302.96,281.11l4.22,26.16.68,2.54.75,5.83,7.8,40.3c2.97-11.97-2.71-27.45-.65-41.65,3.52,12.54,4.01,25.13,5.12,38.2.46,5.47,2.31,11.48,1,16.31-1.26,4.65.89,7.55,2.22,11.93,2.01,6.58,2.69,13.43,6.7,19.57,2.4,3.66,3.33,8.87,3.69,12.53-.75,2.25-1.99,3.15-4.12,4l-3.49,3.49c-1.21-7.08-3.33-13.93-6.41-20.7-.2,9.23,1.04,17.26,2.31,25.93-1.8,5.2-1.62,10.76-.13,15.53l1.01,12.31,5.53,36.91.67,4.88,15.62,111.52,3.85,31.05,1.2,12.4c.22,2.32-.92,3.06-1.37,4.22-1.64-2.13-1.52-4.68-1.94-7.22l-6.18-37.1-7.07-42.7c-13.99-84.45-26.26-168.74-37.05-254.05-.99-7.82-1.72-14.9-4.58-21.58-1.42-3.32-5.38-5.91-7.5-8.65-4.5-5.82-9.28.98-11.7-2.16,12.21-9.52,19.31-17.78,23.74-31.85l6.1,32.04Z"/>
    <path class="cls-2" d="M91.18,678.45l-4.85-3.33c-.4-2.39.18-4.6.55-6.97l8.41-52.7,23.09-151.41,28.16-190.88c1.02-6.92.21-12.2-1.99-18.25l-6.78-18.67-2.75-1.98-.08-3.26c.05.11.74-.03.87.6,3.36-.57,4.59-3.19,8.63-4.88-1.91,6.23.7,10.54,3.44,15.14,2.99,5.01,5.45,9.94,9.06,14.72,6.88,9.09,14.88,15.63,24.69,21.29l13.6,7.85c-4.75-.42-8.28-1.33-11.78,1.36-5.5-.94-9.78,2.64-11.55,7.69-3.05-.19-7.44-2.18-10.62-.05-4.52,3.03-11.09,8.5-12.07,14.32l-8.51,50.84-7.66,50.9-11.35,73.79-14.79,95.15-15.75,98.76Z"/>
    <path class="cls-11" d="M274.33,129.59c6.52,12.72,10.65,26.99,13.1,40.91l.53,3.6,6.33,25.59c1.61,6.5,2.86,12.68,5.36,18.78,1.81,4.42-.7,10.44-.63,15.89,12.11,8.18,22.67,18.32,29.08,31.46l3.69,9.66c5.05,20.25,8.25,40.4,11.52,60.54-.33.03-1.05-.95-1.3-.68-.29.32-.72,1.16-1.6,1.64l-6.09-24.01-4.38-18.49c-2.1-8.88-5.74-16.8-11.4-23.93-1.71-2.15-3.46-4.45-6.32-3.85-1.08-6.21-.7-13.23-3.37-20.18-2.39,6.62-.21,12.61,0,19.08.06,1.73-.97,4.14.84,5.02.88,4.25.84,8.57.93,12.95-1.5.27-3.04-.96-3.66-2.07,1.59-3.99,1.24-8.83-3.25-11.54-1.5,4.33-.04,7.94,1,11.94l-1.76-.8-6.1-32.04c-.3-1.58-.53-3.79-2.23-4.66,5.24-6.57,4.51-12.11,2.1-9.39-.11.12,1.45,3.08-2.56,7.64l-3.84-32.59-3.26-27.27-2.06-13.33c-1.3-8.43-4.3-16.31-8.01-23.81-1.03-2.08-2.73-4.33-2.3-6.76-.87-.41-1.38.21-1.67.38s-1.2-.49-1.32-1.02c-4.12-9.62-9.86-19.33-16.49-28.23l-8.52-9.03-9.77-9.64c-2.02-2-4.67-2.99-6.83-3.96l-6.17-2.76c.69-2.59-.05-4.21-1.42-5.68,2.61-1.21,5.33-1.05,8.11.74,19.94,12.77,33.2,29.39,43.71,49.9Z"/>
    <path class="cls-15" d="M310.64,283.57c.94-.17,2.15.75,2.95,1.86l9.18,12.77c4.75,12.19,6.66,24.83,9.24,37.65l9.46,47.04,1.06,6.54c1.48,4.51,1.93,8.65,1.54,13.14-.51,5.89-3.93,11.04-7.26,15.8.76-2.39-1.6-4.13-2.32-5.54-.35-3.66-1.29-8.87-3.69-12.53-4.02-6.13-4.7-12.99-6.7-19.57-1.33-4.37-3.48-7.28-2.22-11.93,1.31-4.83-.53-10.84-1-16.31-1.11-13.06-1.6-25.66-5.12-38.2-2.06,14.2,3.62,29.69.65,41.65l-7.8-40.3c.43.06,1.04-.12,1.04-.84l-.02-7.53c-.02-9.29-1.4-18.27-2.66-25.76.63,1.11,2.16,2.34,3.66,2.07Z"/>
    <path class="cls-1" d="M330.3,445.15c-.01,3.29,1.11,6.32,1.7,9.66l4.55,25.62,2.3,11.06,6.22,34.13.51-2.13c.1-.43.74-.56,1.18-.49l7.72,42.8,6.05,36.83c1.45,8.82,2.15,17.35,1.39,26.01-.48,5.47-2.74,9.92-5.2,14.4-.24-6.91-1.39-13.69-2.51-20.8l-8.1-51.34-13.08-88.49-3.71-20.08c-1.31-7.06-3.86-14.29-.94-17.65.59-.68,1.42.33,1.94.47Z"/>
    <path class="cls-17" d="M329.3,427.11c-1.39,1.16-.98,3.36-.77,4.88-.54.08-1.75.81-1.77,1.39-.03.76,1,2.27,1.57,2.92l.5-2.09c.47,3.54,1.5,7.28,1.48,10.94-.53-.14-1.35-1.15-1.94-.47-2.92,3.36-.36,10.58.94,17.65l3.71,20.08,13.08,88.49,8.1,51.34c1.12,7.11,2.27,13.89,2.51,20.8l-2.95,5.36c-.78,1.42-1.99,2.11-3.26,1.75l-1.2-12.4-3.85-31.05-15.62-111.52c1.74-.23,1.18-5.42.77-5.61-.36-.17-1.01.69-1.43.73l-5.53-36.91-1.01-12.31c-.12-1.44,1.21-1.81,1.74-3.24l4.49-11.97c.47.47.37.89.44,1.25Z"/>
    <path class="cls-12" d="M343.3,336.01c1.96,12.09,3.25,24.23,2.95,36.97l-.61,26.28c-.04,1.6.2,2.9-1.58,3.29.39-4.49-.06-8.63-1.54-13.14l-1.06-6.54c2.36-2.36,2.21-6.37,1.16-9.86-1.82-6.05-2.19-11.93-3.42-18.08l-6.31-31.68c-2.05-10.29-3.51-20.46-7.62-30.48-2.59-6.31-11.22-16.22-14.91-26.28-.78,1.18-.89,2.99-.65,4.11-1.81-.89-.78-3.3-.84-5.02-.22-6.47-2.4-12.46,0-19.08,2.67,6.95,2.28,13.97,3.37,20.18,2.86-.6,4.61,1.7,6.32,3.85,5.66,7.12,9.29,15.05,11.4,23.93l4.38,18.49,6.09,24.01c.87-.48,1.31-1.31,1.6-1.64.25-.28.97.71,1.3.68Z"/>
    <path class="cls-13" d="M346.77,523c-.44-.07-1.08.06-1.18.49l-.51,2.13-6.22-34.13-2.3-11.06-4.55-25.62c-.59-3.34-1.71-6.37-1.7-9.66.02-3.66-1.01-7.4-1.48-10.94l-.29-2.22c-.2-1.52-.62-3.71.77-4.88l6.02,32.73,6.04,33.76,5.4,29.4Z"/>
    <path class="cls-5" d="M298.13,199.96c1.39,5.8,5.18,11.24,1.51,18.5-2.5-6.1-3.75-12.27-5.36-18.78l-6.33-25.59c-.62-1.11,1.69-3.7,2.47-2.73,2.67,3.32,2.62,8.01,3.07,11.78.38,3.17,1.89,5.37,2.56,8.19l2.06,8.64Z"/>
    <path class="cls-11" d="M134.95,230.99l.08,3.26c-7.8.2-15.67.09-23.78-.85-.57-.07-1.47-1.47-1.89-1.79-.82-.64-1.45,0-2.3.3.55-3.27,3.75-5,7.33-5.05,7.34-.11,14.94.12,20.55,4.14Z"/>
    <path class="cls-15" d="M326.86,420.31c.6,3.51,2.86,3.39,2.29,4.84l-.28.71-4.49,11.97c-.54,1.43-1.86,1.8-1.74,3.24-1.49-4.77-1.67-10.33.13-15.53-1.27-8.68-2.51-16.71-2.31-25.93,3.07,6.77,5.2,13.62,6.41,20.7Z"/>
    <path class="cls-8" d="M284.8,145.87c1.11,5.82,1.2,11.88,3.46,18.01.9,2.46,1.28,5.22-.84,6.61-2.45-13.92-6.58-28.18-13.1-40.91.57.12,1.65-.18,1.69-.64.03-.36.05-1,.69-1.56.18-1.39,1.65-1.28,2.06-.04l6.05,18.53Z"/>
    <path class="cls-9" d="M298.13,199.96l-2.06-8.64c-.67-2.82-2.18-5.02-2.56-8.19-.46-3.76-.4-8.46-3.07-11.78-.78-.97-3.09,1.62-2.47,2.73l-.53-3.6c2.11-1.39,1.74-4.16.84-6.61-2.25-6.13-2.34-12.18-3.46-18.01,2.87,2.27,4.04,6.17,4.89,10l9.43,42.4c.2.88-.29,1.68-.99,1.68Z"/>
    <path class="cls-14" d="M336.8,418.36c-2,2.86-3.77,6.27-7.65,6.79.57-1.45-1.69-1.33-2.29-4.84l3.49-3.49c2.13-.85,3.38-1.75,4.12-4,.72,1.41,3.08,3.15,2.32,5.54Z"/>
    <path class="cls-10" d="M207.29,89.54c1.71-2.83,4.24-5.44,7.08-7.01l-.71,1.73c1.35.57,2.64-.95,2.29-1.94-.14-.39.76-.63,1.14-.47.04,2.27-2.06,3.02-3.84,3.62-2.55.86-4.2,2.86-5.96,4.07Z"/>
    <path class="cls-4" d="M215.95,82.31c.35,1-.94,2.51-2.29,1.94l.71-1.73c.61.2,1.12-.01,1.58-.21Z"/>
    <path class="cls-2" d="M223.95,205.86c-24.77-.62-39.48-9.3-39.4-9.3-.59.01-.75-2.44-.23-2.43,23.68,1.92,56.4,3.52,78.51-2.39,2.14-.57,4.87-.29,6.69.87-1.53,2.16-3.56,3.69-6.1,4.73-12.27,5.05-25.38,8.88-39.47,8.52Z"/>
    <path class="cls-3" d="M271.71,138.25c-2.8,7.65,5.32,15.07,7.24,24.8.92,4.67.5,9.3,2.08,13.87.88,2.54.81,5.22-.85,6.88,1.3-2.78-1.64-4.15-2.19-6.16-9.7-35.12-26.38-61.89-47.89-90.26,2.16.97,4.81,1.96,6.83,3.96l9.77,9.64,8.52,9.03c6.63,8.9,12.37,18.61,16.49,28.23Z"/>
    <path class="cls-12" d="M290.33,210.06c-1.64.8-4.31.47-5.63.06l-1.8.44-3.25-22.04c-.24-1.63-.55-3.64.52-4.72,1.66-1.66,1.73-4.34.85-6.88-1.58-4.57-1.16-9.21-2.08-13.87-1.92-9.73-10.04-17.15-7.24-24.8.12.52,1.02,1.18,1.32,1.02s.8-.79,1.67-.38c-.43,2.44,1.27,4.68,2.3,6.76,3.71,7.49,6.7,15.38,8.01,23.81l2.06,13.33,3.26,27.27Z"/>
    <path class="cls-9" d="M290.33,210.06l3.84,32.59c4.01-4.56,2.45-7.52,2.56-7.64,2.41-2.72,3.14,2.82-2.1,9.39-1.88,2.36-1.36,6.39-4.83,8.28l-3.61-12.51c-.63-2.17-.91-4.77-2.75-6.87-.95-1.09-2.6.37-3.24,1.08.15-2.15,1.97-4.46,3.85-5.89.07-1.18.19-2.54.96-3.6-1.11-4.76-1.41-9.64-2.1-14.33l1.8-.44c1.32.41,3.99.74,5.63-.06Z"/>
    <path class="cls-2" d="M225.77,548.51c2.57-1.31,4.42-3.95,7.65-3.96-3.07,3.45-6.12,6.37-10.27,8.77-10.12-1.23-20.21-2.65-29.59-5.65-1.38-1.7.28-4.9,2.07-5.73l24.55-11.48c.57-.27,1.63.87,1.53,1.26-.44,1.64-17.19,5.45-15.85,13.91.37,2.31,2.65,2.72,5.37,3.01,4.8.5,9.59,2.41,14.54-.12Z"/>
    <path class="cls-2" d="M221.32,581.38c-6.68-5.15-17.83-4.13-17.61-6.2s13.7,2.07,24-.26l-6.38,6.45Z"/>
    <path class="cls-16" d="M286.19,240.17c-1.27.43-1.62,1.47-3.87,1.58l-2.12-7.37c.63-.7,2.29-2.17,3.24-1.08,1.83,2.1,2.12,4.7,2.75,6.87Z"/>
    <path class="cls-7" d="M306.97,281.51c1.26,7.5,2.63,16.48,2.66,25.76-.22.08-.7.02-.78-.11-.62-1.06-1.32.06-1.67.11l-4.22-26.16,1.76.8c-1.04-4.01-2.49-7.62-1-11.94,4.5,2.71,4.84,7.55,3.25,11.54Z"/>
    <path class="cls-6" d="M308.61,315.64l-.75-5.83c1.22-.25,1.15-1.63.99-2.66.08.13.56.19.78.11l.02,7.53c0,.72-.6.9-1.04.84Z"/>
    <path class="cls-3" d="M329.85,495.18l-.67-4.88c.42-.04,1.07-.9,1.43-.73.42.19.97,5.38-.77,5.61Z"/>
    <path class="cls-4" d="M308.85,307.16c.17,1.03.23,2.4-.99,2.66l-.68-2.54c.35-.06,1.04-1.17,1.67-.11Z"/>
    <path class="cls-3" d="M341.46,382.88l-9.46-47.04c-2.58-12.82-4.49-25.46-9.24-37.65l-9.18-12.77c-.8-1.11-2-2.03-2.95-1.86-.1-4.39-.05-8.71-.93-12.95-.23-1.13-.13-2.94.65-4.11,3.69,10.06,12.32,19.98,14.91,26.28,4.12,10.02,5.57,20.19,7.62,30.48l6.31,31.68c1.23,6.15,1.6,12.03,3.42,18.08,1.05,3.49,1.2,7.5-1.16,9.86Z"/>
    <path class="cls-3" d="M328.82,434.21l-.5,2.09c-.57-.65-1.6-2.16-1.57-2.92.02-.58,1.23-1.31,1.77-1.39l.29,2.22Z"/>
  </g>
</svg>