<?xml version="1.0" encoding="UTF-8"?>
<svg id="Réteg_1" data-name="Réteg 1" xmlns="http://www.w3.org/2000/svg" viewBox="0 0 409.19 709.78">
  <defs>
    <style>
      .cls-1 {
        fill: #1c395c;
      }

      .cls-2 {
        fill: #f39ea5;
      }

      .cls-3 {
        fill: #f9d0b4;
      }

      .cls-4 {
        fill: #f0afa4;
      }

      .cls-5 {
        fill: #eaa3a3;
      }

      .cls-6 {
        fill: #fbedde;
      }

      .cls-7 {
        fill: #344e75;
      }

      .cls-8 {
        fill: #435e83;
      }

      .cls-9 {
        fill: #fcddb8;
      }

      .cls-10 {
        fill: #3e649e;
      }

      .cls-11 {
        fill: #eec1af;
      }
    </style>
  </defs>
  <g id="Generatív_objektum_0_0_" data-name="Generatív objektum (0, 0)">
    <path class="cls-10" d="M219.09,706.03h-59.01c.19-1.22,1.37-1.8,3.12-1.8h52.78c1.76,0,2.93.59,3.11,1.8Z"/>
    <path class="cls-11" d="M262.16,704.4c-.13.94-1.32,1.59-3.07,1.59h-24.16c-1.73,0-2.92-.63-2.99-1.24l30.21-.35Z"/>
    <g>
      <path class="cls-6" d="M185.52,50.84c-.43,3.37.1,6.44.06,9.51l-.12,10.13-1.24,30.19c-.17,4.08-1.62,7.71-1.35,11.37-3.07.34-6.2,2.84-9.17,4.03,4.08,1.42,6.63.64,9.44,1.45-2.17.37-4.59,3.72-9,2.66,3.75,3.04,5.64,5.52,5.29,9.59l-1.92-.22-1.74,1.26c-4.64.06-12.29,1.33-16.42,2.36-1.47.37-5.52-2.24-5.63,1.06,6.29,5.19,13-.66,18.03,15.87-3.72,4.83-8.36,8.13-15.44,9.51,4.48,3.61,9.68,2.87,13.6,1.15,4.35-1.92,7.42-5.66,6.05-10.8,3.16-1.9,7.33-3.81,6.5-7.74-.38-1.79-.49-3.76,1.39-5.69.81-.83,2.04-.75,3.33.73.55,1.95,1.56,3.71,3.3,5.01l.03,10.89c.02,9.6-.84,19.09,3.28,28.3-2.29,3.18-6.81,2.33-10.1,3.43-1.91.64-7.71,1.1-5.56,5.15.99,1.88,6.18,2.76,7.42,4.57.65,4.04-.05,8.17-2.93,11.18-10.45,2.57-19.79,9.02-27.53,18.28-6.14-9.75-4.4-23.06-11.12-35.59-2.03-3.77-2.29-8.82-6.23-11.19l1.62-3.24c.64.44,2.99-.22,2.93-1.53-.73-14.79,7.19-25.58-.33-29.39l-3.07,19.63c-1.06,6.8-4.52,11.78-3.44,18.56.64,4.02-.73,9.37-1.28,13.52l-5.12,38.63c1.65,1.38,3.11.81,4.38,1.34-2.04,1.59-3.41,3.61-5.31,6.14,2.57.23,4.56.54,5.8,1.7,3.64,3.42-4.81,7.04-5.48,11.28-.94,6,.05,12.38-.48,19.29l-6.1,79.7-3.07,46.47c-.48,7.28-4.46,14.13-12.39,15.21,3.31,4.93,7.26,3.49,10.87,3.46l7.28-.05,5.35.17c.74,1.07.65,1.52.53,2.25-.82,4.95-8.77,1.6-17.64,3.91-.63,8.52,7.44,3.63,18.65,6.16-1.28,3.45-3.54,3.97-4.95,5.25h-2.93s-11.3.09-11.3.09c-.03,2.79.97,3.93,1.72,5.32-.44,3.36-3.34,4.38-5.8,4.23-3.27-.2-5.88-1.3-8.48-3.93-2,.17-3.51,1.75-4.91,2.51-.64-1.37.45-3.54.38-4.84-.34-6.75,2.85-13.17,3.25-22.04-7.44,6.18-6.32,15.58-7.21,22.99l-1.96,5.25c-10.61-2.97-13.02-12.63-19.98-12.56-2.92-6.87-6-14.32-5.98-22.81l.1-37.46c3.11-29.14,6.63-57.39,12.7-85.89,3.34-15.66,9.47-29.15,20.36-40.57l2.9-9.67c4.8-5.98,9.25-10.92,13.38-17.44-5.96-4.93-2.74-9.74-1.46-15.54l12.44-56.11c1.04-4.69.24-9.09,1.59-14.22,8.78-33.31,26.56-62.8,55.21-82.31,2.47-1.68,3.39-.69,5.01.07ZM148.53,135.52c-1.79,1.96.24,3.2,1.29,3.01.56-.1,1.93-.11,2.33-.54.59-.64-.24-3.01-1.15-3.23-.57-.14-1.94.18-2.47.76ZM145.32,140.39c-.93-6.26-14.56-1.49-19.01,6.1,6.01-3.34,11.96-6.11,19.01-6.1ZM167.77,149.38c0-2.01-1.62-3.63-3.63-3.63s-3.63,1.63-3.63,3.63,1.62,3.63,3.63,3.63,3.63-1.63,3.63-3.63ZM121.63,206.64c-4.18,3.46-6.65,8.39-7.11,13.54-.17,1.88,3.08,2.06,3.95.92,2.3-3.02,4.44-9.83,3.16-14.46ZM112.38,249.4c-1.83-1.66-2.42-5.74-6.63-4.82,2.2,5.95,5.97,10.56,4.73,16.95-.22,1.12-2.19,2.88-2.17,5.06.2,22.75,0,44.65,4.43,67.65,2.14-19.21,3.49-38.98,4.58-59.02.22-4.06,1.44-8.38,1.24-12.46,4.87-10.69-5.16-16.35,4.43-22.19-2.16-1.67-7.79-.59-8.64,2.41-.56,1.97.28,5.34-1.98,6.41ZM101.23,288.38c-1.72,1.17-1.42,3.49-2.04,4.67-2.93,5.58-5.3,10.53-6.12,16.87l-8.56,66.26c-.12.95-1.46,2.58-1.06,2.97.61.59,2.91.68,3.94.68,2.75-.01,4.71.88,5.74,3.21l-8.9,3.89c-1.01.44-1.19,2.63-.73,3.15.42.48,1.19,1.07,3.27.88-.62,4.29-.21,8.89,2.41,12.7,2.09,3.03,2.21,6.26.99,10.53,4.24-3.32,8.33-6.03,13.75-3.47.4,1.01.31,1.73.41,2.28.17.93,2.83,1.06,2.81.28-.08-2.47-.27-4.64.27-7.06,3.72-16.82,2.96-32.98-.01-49.93-1.11-6.29,1.51-13.59-.89-18.91-1.69-3.74-2.3-6.85-2.35-10.92l-.24-19.62c-.07-6-1.85-11.13-1.18-17.41.53-1.32-.94-2.27-1.5-1.02Z"/>
      <path class="cls-6" d="M83.76,452.92l1.34,4.93,4.89,8.61c-.17,19.13-6.66,39.21-3.8,54.47l8.39-40.16c.91-4.37.61-9.77,5.28-11.68l.32,2.11c.07.48.77,1.3,1.67,1.3,1.24,0,.98-1.86,1.15-2.56l2.62-10.12c2.62.22,5.08,2.75,7.52,3.11,3.37,5.12,2.79,12.1-3.32,15.35-1.3.69-3.1,2.96-2.51,4.06,3.14,5.9,6.49,11.59,7.31,18.34l-13.62,99.65-.14,11.17c-2.27,3.15-2.77,6.83-3.25,11.29l-2.21,20.59-6.78,44.85c-9.25.64-17.69-4.5-26.1-6.9l5-47.3c-.43-.24-1.42,0-1.54.79l-6.5,40.83c-5.19-.88-8.78-3.8-12.52-5.94-.7-6.7.13-12.72,1.28-19.98l25.9-162.3c2.05-12.85,5-24.1,5.87-36.17l3.75,1.64ZM83.31,530.08c-1.79,6-3.69,12.3-2.45,19.59,3.3-5.85,3.31-12.07,4.23-18.81.31-2.23.29-4.69-.57-7.09-2.06,1.89-.7,4.61-1.21,6.31Z"/>
      <path class="cls-1" d="M271.54,212.59l2.61,2.22c-6.48,5.05-4.62,15.38-3.39,23.38l24.26,157.23,25.41,152.59,8.48,47.66,8.2,44.73,1.35,11.23,7.03,32.53c-4.07,2.57-8.04,6.8-13.51,8.55-3.72,1.2-7.8,1.64-9.29,4.81l-33.4,5.33c-9.55,1.52-18.29,1.46-27.14,1.57l-30.21.35c-4.21.05-8.3,1.28-12.85,1.28-.18-1.21-1.35-1.8-3.11-1.8h-52.78c-1.75,0-2.92.58-3.12,1.79l-12.64-1.58c-6.71-.84-12.67-.79-19.23-1.46-15.72-1.6-30.73-4.33-44.72-9.32l-1.44-3.7,6.28.27c6.92.3,13.64,2.39,20.61,1.94,2.69-.17,5.48,2.24,7.95,2.38-.53.98-1.24,1.49-3.31,2.51,12.35,4.09,32.61,7.41,33.88.65l27.2.2,14.2-.46c2.01-.07,3.44-1.49,3.64-4.24l1.06-14.25-32.68-.11c-1.04-2.06,1.71-2.8,2.36-3.31l38.15-.07,4.42.07,8.63-.36,14-.86c3.9,1.85,9.44,2.17,13.09-.32l3.33-.1,1.22-.05c.55,1.01,1.44.8,2,.09l4.18.41c-2.87,3.16-11.06,4.08-15.81,4.43l-5.96.43c-1.33-.67-3.08-.33-3.39,1.16.09,4.5-.47,9.61,2.98,12.78l-.08,3.18c-1.79.29-1.08,1.99.26,1.6,2.51.9,5.32.08,7.71.26,5.58.43,10.98.63,16.5-.1l12.63-1.68,3.01.11,4.81-.24,19.79-1.82c8.74-.8,18.72-1,25.27-4.13,5.83-.88,13.01-1.12,17.67-6.61l-12.56-69.71-34.24-195.44c-7.97-45.52-13.69-89.28-23.94-134.01-.93-4.07-6.47-12.04-10.56-9.99-10.64,5.35-18.98,13.32-29.42,16.93-7.29,2.51-14.57,5.6-22.26,5.53l-14.38-.15c-16.6-1-26.41-13.03-42.68-19.3-2.94,3.25-1.15,7.42-2.03,9.79-1.46,3.95.4,9.66-1.08,12.55-1.74,3.4-.57,7.27-1.06,11.13-1.93,15.19-1.95,30.64-3.07,46.76l-4.08,58.96c-.03.46.22,1.31-.04,1.86l-1.74-1.78c-4.91-4.75-2.34-13.65-2.15-20.83l.62-23.94,3.01-14.46,3.14-42.9c.57-7.74,0-14.81,2-22.45.79-3.01-1.34-6.18-3.77-6.78l.19-2.81c1.52-.31,1.93-1.75,1.84-3.18-.8-12.91,3.31-20.06-.4-20.76.45-1.35-1.41-4.13-.92-5.44.38-1.02,3.17-2.06,3.69-3.15,1.18-2.48-.21-5.55-.84-7.44,2.62-3.46,3.65-7.52,3.44-12.3,2.11-.3,3.23.38,4.27,1.06l-.43,9.56c-.15,3.58-1.96,6.95-1.66,10.74-.98,4.13-2.29,9.65-.24,14.19s6.92,6.06,10.53,7.29c.71,6.63,7.83,8.66,12.72,11.31,5.43,2.95,9.55,4.91,15.73,4.14.5.81,1.59,1.51,1.97,2.69,15.34,3.3,32.49-1.94,45.5-12.8,9.48-7.91,15.42-18.86,20.26-29.47,6.48-14.21,7.54-29.99,4.17-46.83l14.33,10.28Z"/>
      <path class="cls-10" d="M359.46,664.57l.49,4.35c-.43,2.48-.07,6.5-1.15,9.07-2.53,6.01-10.12,4.15-13.31,6.16l-7.03-32.53c4.57-3.36.89-9.14.69-12.78l-7.92-145.42-23.91-263.14c-.3-3.27-1.3-6.44-2.23-8.09l-3.1-8.88c8.68,4.31,13.13,11.73,14.25,21.68l9.82,87.6,7.19,78.85,1.48,17.85c1.29,15.53,3.22,32.3,4.72,48.3l1.87,19.96c.8,8.49.86,16.24,2.41,24.84.96,5.33-.3,11.36,1.06,16.84,2.4,9.67,2.41,24.74,4.17,39.26l4.05,33.51,5.23,49.93c.47,4.49.73,8.52,1.2,12.64Z"/>
      <path class="cls-10" d="M254.26,146.92c-1.31,6.54,1.2,12.41,3.04,19.16,3.41,12.6,4.98,25.25,11.25,36.76,1.81,3.33,3.44,6.36,3,9.74l-14.33-10.28c3.37,16.83,2.31,32.61-4.17,46.83-3.1-.31-3.67,3.52-4.95,4.67-.83.67-3.53-1.48-3.54-2.16,0-.71-1.8-1.37-1.93.55-2.72-3.82-1.56-15.08-11.42-20.98,6.11-3.73-7.26-7.14-8.19-19.63-.12-1.67-1.23-3.12-2.33-3.58.5-.9.34-2.81.34-3.85,1.24-.67,2.01-1.77,2.59-3.36,3.61,2.45,5.97,5.04,10.5,9.32,1.71-16.62,1.12-32.24-.94-48.39-.62-4.83-2.95-6.48-6.03-8.53l1.27-3.19c2.16-.16,2.3-2.45,2.07-3.92-.29-1.77-.54-3.47-3.36-4.63.28-.76,1.21-1.32,1.93-1.07,3.87-1.71,5.43,2.7,6.96,3.99,5.72-4.78,9.94,1.5,18.25,2.54Z"/>
      <path class="cls-6" d="M301.99,213.31l3.1,8.88c-1.41-.9-2.58-4.18-4.28-5.49-4.49-3.45-11.53-.71-14.89,2.69-3.67,3.72-6.48,9.02-5.56,15.7l29.69,215,6.82,38.67,2.88,22.18c.98,7.55,2.96,15.61,3.09,22.33-.62.65-1.52,1.65-1.57,2.55-.06,1.17,1.18,1.82,1.5,2.42l-.13,6.17c.16.87-.14,2.37-.84,3.12-.37.39-1.21.62-1.39.48l-25.41-152.59-24.26-157.23c-1.23-8-3.1-18.33,3.39-23.38,7.25-5.65,20.15-5.31,27.84-1.49Z"/>
      <path class="cls-10" d="M252.49,143.93l-22.6-8.66c-.69-14.49-7.13-14.73-7.39-15.98-.16-.79,1.47-3.23,1.25-4.01-5.23-18.16-12.64-34.62-22.52-49.83.3-1.27.69-2.35,2.1-3.17l12.26,9.96c15.92,17.48,26.97,37.47,34.13,60.1,1.23,3.89,4.33,7.56,2.77,11.58Z"/>
      <path class="cls-2" d="M190.81,51.87c-.83,5.06,5.29,5.69,10.42,13.59,9.88,15.21,17.29,31.67,22.52,49.83.22.78-1.41,3.22-1.25,4.01.26,1.25,6.7,1.48,7.39,15.98-4.78-1.88-10.49-2.58-15.62-3.59.15-4.14.51-7.91-1.15-12.59-9.26-2.53-21.15-3.09-29.98-1.58-2.82-.81-5.36-.03-9.44-1.45,2.97-1.19,6.1-3.69,9.17-4.03,2.81-.19,6.78,1.47,8.65-.29,4.26-4,1.34-13.7-1.58-26.02l2.83.08,5.51,21.11c1.48,5.67,6.08,8.74,12.1,6.62-3.81-17.1-8.95-33-17.76-46.71-1.76-2.74-2.29-6.32-7.04-6.48.04-3.07-.49-6.14-.06-9.51,1.3.57,3.78.49,5.28,1.03Z"/>
      <path class="cls-10" d="M214.27,131.69c5.12,1,10.84,1.71,15.62,3.59l22.6,8.66c.62.57,1.94,2.11,1.76,2.99-8.32-1.04-12.53-7.32-18.25-2.54-1.53-1.29-3.09-5.7-6.96-3.99-.05-.52-.15-1.24-.55-2.19-.5-1.19-1.35.15-3.01,2.55-5.7-3.89-12.93-5.65-19.83-2.71-3.34,1.42-5.04,4.42-4.43,7.31l.33,1.6-2.42-3.64c-1.48,2.8-2.82,3.23-4.22,3.65-.28-2.67-.06-6.83-2.94-8.14-1.19-.54-3.62-.25-4.77-1.56-1.3-1.48-2.52-1.56-3.33-.73-1.88,1.93-1.77,3.91-1.39,5.69l-10.47-5.76c-4.66-.8-9.5.24-12.64-3.28,4.13-1.03,11.78-2.3,16.42-2.36l1.74-1.26,1.92.22c11.47,1.31,23.37-.34,34.84,1.91Z"/>
      <path class="cls-9" d="M91.19,440.08c-.36,2.99,1.01,4.74,1.58,7.24l2.08,9.47-11.1-3.88-3.75-1.64c-4.15-5.95-7.92-11.83-10.75-18.5,6.96-.07,9.37,9.59,19.98,12.56l1.96-5.25Z"/>
      <path class="cls-9" d="M62.51,681.35c-.27.11-.84.37-1.28.28-5.69-1.11-13.66-5.91-14.28-11.9,3.74,2.14,7.33,5.06,12.52,5.94l6.5-40.83c.13-.79,1.11-1.03,1.54-.79l-5,47.3Z"/>
      <path class="cls-10" d="M352.98,690.19l-30.27,7.31c1.49-3.17,5.56-3.61,9.29-4.81,5.47-1.76,9.44-5.98,13.51-8.55,3.18-2.01,10.78-.15,13.31-6.16,1.08-2.57.72-6.59,1.15-9.07.47,4.16,2.76,10.3-.65,14.82-1.45,1.92-6.72,2.6-6.32,6.46Z"/>
      <path class="cls-10" d="M88.62,688.24l-.29,1.99-6.28-.27,1.44,3.7c-7.25-2.59-18.56-3.2-22.25-12.04.44.09,1.01-.18,1.28-.28,8.41,2.4,16.85,7.54,26.1,6.9Z"/>
      <path class="cls-8" d="M203.33,62.29c-1.41.82-1.8,1.9-2.1,3.17-5.13-7.9-11.25-8.53-10.42-13.59,5.63,2.04,8.32,7.01,12.52,10.42Z"/>
      <path class="cls-2" d="M143.98,188.48c.2.78.27,1.42.17,2.34-.07.6-1.04,1.24-1.59.79-.64-.52-1.28-1.69-2.94-1.27l3.09,31.63c1.4,14.29-10.55,19.3-1.76,20.76.62,1.89,2.01,4.96.84,7.44-.52,1.09-3.31,2.14-3.69,3.15-.49,1.31,1.38,4.09.92,5.44-2.02,5.99-.8,14.11-1.23,20.67l-.21,3.26-.19,2.81-7.05,85.39-1.88,33.18c-.31,5.52-.13,10.05-3.9,13.94l-7.28.05c-.58-2.17,3.96-3.79,4.63-5.59,3.86-10.33,2.43-21.51,3.53-32.41,1.69-16.7,3.42-32.52,3.24-49.31l2.25-14.96c.06-18.72.4-36.63,2.31-55.51.2-1.97-.52-4.52-1.59-5.75-.59-.68-1.85-.93-3.2-.61.67-4.24,9.12-7.86,5.48-11.28-1.23-1.16-3.22-1.47-5.8-1.7,1.9-2.53,3.27-4.55,5.31-6.14,5.81-4.51,5.17-22.69,3.42-35.88-.27-2-.89-3.37-2.67-4.09.55-4.14,1.92-9.5,1.28-13.52l2.3-4.03c3.94,2.36,4.2,7.41,6.23,11.19Z"/>
      <path class="cls-9" d="M117.26,418.06c-3.61.02-7.56,1.47-10.87-3.46,7.93-1.08,11.91-7.93,12.39-15.21l3.07-46.47,6.1-79.7c.53-6.91-.46-13.29.48-19.29,1.35-.32,2.61-.07,3.2.61,1.06,1.23,1.79,3.78,1.59,5.75-1.92,18.88-2.25,36.79-2.31,55.51l-2.25,14.96c.19,16.78-1.55,32.61-3.24,49.31-1.1,10.9.33,22.08-3.53,32.41-.67,1.8-5.21,3.42-4.63,5.59Z"/>
      <path class="cls-9" d="M87.39,379.83c-1.03,0-3.33-.09-3.94-.68-.4-.39.94-2.02,1.06-2.97l8.56-66.26c.82-6.34,3.19-11.28,6.12-16.87,1.78,1.24,2.27,3.06,2.01,5.61l-7.69,77.07c-2.66.72-5.11,1.83-6.12,4.1Z"/>
      <path class="cls-2" d="M102.74,289.4c-.67,6.28,1.1,11.41,1.18,17.41l.24,19.62c-1.02-.27-1.34.55-1.52,2.68l-3.86,46.82c-.15,1.79-4.98,3.65-1.46,6.48.95.76,2.61,3.1,1.93,4.69-.48,1.12-2.27,2.2-5.23,3.38,5.14,3.28,7.1,7.96,9,13.2-2.19.36-6.86-1.49-7.78-3.39-2.43-5.04-3.71-11.88-8.46-9.33-2.08.18-2.85-.41-3.27-.88-.46-.52-.29-2.71.73-3.15l8.9-3.89c-1.03-2.33-2.99-3.22-5.74-3.21,1.01-2.27,3.46-3.38,6.12-4.1l7.69-77.07c.25-2.55-.23-4.37-2.01-5.61.62-1.18.32-3.5,2.04-4.67l1.5,1.02Z"/>
      <path class="cls-10" d="M134.53,416.86c-1.43-.83-4-.7-4.63,1.32l-5.35-.17c3.77-3.89,3.59-8.42,3.9-13.94l1.88-33.18,7.05-85.39c2.43.6,4.56,3.77,3.77,6.78-2,7.64-1.43,14.7-2,22.45l-3.14,42.9-3.01,14.46-.62,23.94c-.19,7.18-2.75,16.08,2.15,20.83Z"/>
      <path class="cls-9" d="M182.63,205.79c.63.51,1.1,1.14,1.52,1.84-5.26.66-8.94,3.07-13.11,5.79-4.53,2.95-8.77,6.26-12.48,11.56,1.99.61,3.11.15,4.37-.07-1.32,1.01-1.89,4.81-.15,5.27,3.5.92,4.2,2.07,5.6,3.56-1.24,4.71-2.98,8.96-5.94,12.41-1.14-1.95-1.06-2.97-1.21-3.76-1.06-5.74-8.8,11.28-7.65,25.96-4.87-2.3-4.07-10.35-1.83-19.09.59-2.3.03-5.65.71-7.58,1.37-3.86,2.06-7.68-1.26-10.94l.91-1.76-1.04-2.64-6.12-29.17c-.41-1.95-2.43-3.9-2.39-5.55.55.45,1.52-.19,1.59-.79.11-.92.03-1.56-.17-2.34,6.73,12.53,4.98,25.84,11.12,35.59,7.74-9.26,17.08-15.71,27.53-18.28Z"/>
      <path class="cls-9" d="M214.27,131.69c-11.47-2.24-23.37-.6-34.84-1.91.35-4.08-1.53-6.56-5.29-9.59,4.41,1.06,6.83-2.29,9-2.66,8.83-1.52,20.72-.95,29.98,1.58,1.65,4.67,1.3,8.45,1.15,12.59Z"/>
      <path class="cls-10" d="M106.51,337.36l-.4,36.09c.01,1.64,2.35,5.52.44,6.38l-5.29,2.41,4.77,17.06c.63,2.26-.68,5.64,1.39,6.9-.53,2.42-.35,4.6-.27,7.06.03.78-2.64.65-2.81-.28-.1-.55-.01-1.27-.41-2.28,1.94-2.64-.08-4.74-.91-7.03-1.89-5.24-3.85-9.92-9-13.2,2.96-1.17,4.74-2.26,5.23-3.38.68-1.59-.98-3.93-1.93-4.69-3.53-2.83,1.31-4.69,1.46-6.48l3.86-46.82c.18-2.13.5-2.95,1.52-2.68.05,4.08.66,7.18,2.35,10.92Z"/>
      <path class="cls-9" d="M117.32,275.23c-1.09,20.04-2.44,39.8-4.58,59.02-4.42-23-4.23-44.91-4.43-67.65-.02-2.18,1.95-3.95,2.17-5.06l6.85,13.7Z"/>
      <path class="cls-9" d="M190.17,195.01c5.41,2.8,11.03-.44,22.56,2.97-.41,4.05-1.12,8.13-2.89,12.02-7.19-5.01-17.14-3.43-25.69-2.37-.42-.7-.89-1.33-1.52-1.84,2.87-3.01,3.58-7.14,2.93-11.18,1.41.06,3.44-.21,4.62.4Z"/>
      <path class="cls-9" d="M189.94,85.73c2.92,12.32,5.84,22.02,1.58,26.02-1.87,1.75-5.84.09-8.65.29-.28-3.66,1.18-7.29,1.35-11.37l1.24-30.19,4.48,15.25Z"/>
      <path class="cls-9" d="M113.98,441.16l8.95-.8c1.54-.14,4.09.41,5.25,1.35,1.35,1.1.76,3.08-.68,3.98-4.72,2.92-11.61.08-17.26,2.32,4.76,4.14,10.16,2.6,14.68,2.52.26,1.18,0,2.61-.72,3.2-1.08.89-3.78,1.88-5.73,1.43l-22.04-5.25c-.26-2.1-.78-4.05-1.66-5.94,1.41-.76,2.92-2.34,4.91-2.51,2.6,2.64,5.21,3.73,8.48,3.93,2.46.15,5.37-.87,5.8-4.23Z"/>
      <path class="cls-1" d="M107.42,406.2c-2.07-1.26-.75-4.64-1.39-6.9l-4.77-17.06,5.29-2.41c1.91-.87-.43-4.75-.44-6.38l.4-36.09c2.4,5.32-.22,12.61.89,18.91,2.98,16.95,3.73,33.12.01,49.93Z"/>
      <path class="cls-9" d="M133.43,234.81c-1.27-.53-2.73.04-4.38-1.34l5.12-38.63c1.78.72,2.41,2.1,2.67,4.09,1.75,13.19,2.39,31.37-3.42,35.88Z"/>
      <path class="cls-2" d="M194.9,146.96l.17,1.55c.45,4.27,2.1,8.48,1.76,12.77-.49,6.28,1.27,11.9,4.64,17.44.26,3.5-4.35,6.72-6.55,8.04l-2.69,1.65c-3.12,0-6.02-1.29-8.54-3.52,3.29-1.1,7.8-.26,10.1-3.43.53-.59,2.02-1.18,2.24-2.08.31-1.29-.46-2.52-.62-3.93l-2.07-19.02c-.14-1.25-.13-2.5-.64-2.99-.42-.4-1.64-.44-2.18-.29l-.03-10.89c.14-.97,1.47-2.46,1.47-3.45,2.88,1.31,2.65,5.47,2.94,8.14Z"/>
      <path class="cls-9" d="M134.53,416.86l1.74,1.78c1.24,3.39.5,7.2-3.17,9.93.65,1.99,1.91,3.17,2.83,4.28-6.89,2.32-7.69,6.36-9.43,2.9,1.41-1.28,3.67-1.8,4.95-5.25-11.22-2.53-19.28,2.36-18.65-6.16,8.87-2.31,16.82,1.04,17.64-3.91.12-.73.21-1.18-.53-2.25.63-2.02,3.21-2.15,4.63-1.32Z"/>
      <path class="cls-9" d="M159.35,133.18c3.14,3.53,7.98,2.48,12.64,3.28l10.47,5.76c.83,3.94-3.34,5.84-6.5,7.74-1,.6-3.08.21-4.21.14-5.02-16.53-11.74-10.67-18.03-15.87.1-3.31,4.15-.7,5.63-1.06Z"/>
      <path class="cls-5" d="M135.92,432.85c1.49,2.27-1.81,5.18-2.05,6.89-.09,4.04.96,7.89-2.58,10.59l-6.37.2c-4.52.07-9.92,1.61-14.68-2.52,5.65-2.23,12.54.61,17.26-2.32,1.44-.89,2.03-2.87.68-3.98-1.16-.94-3.7-1.49-5.25-1.35-.31-1.63.1-3.19.63-4.62h2.93c1.75,3.46,2.54-.58,9.43-2.9Z"/>
      <path class="cls-2" d="M112.38,249.4c4.24,3.86,5.9,7.52,6.19,13.37.2,4.08-1.02,8.4-1.24,12.46l-6.85-13.7c1.24-6.39-2.53-11-4.73-16.95,4.21-.92,4.81,3.16,6.63,4.82Z"/>
      <path class="cls-2" d="M175.96,149.97c1.37,5.14-1.7,8.89-6.05,10.8-3.92,1.72-9.12,2.46-13.6-1.15,7.08-1.38,11.72-4.68,15.44-9.51,1.13.07,3.21.46,4.21-.14Z"/>
      <path class="cls-10" d="M183.69,184.89c2.52,2.23,5.42,3.53,8.54,3.52-.48.75-1,1.52-1.18,2.99l8.86.48c-1.56,3.39-5.95,3.37-9.74,3.13-1.18-.61-3.21-.34-4.62-.4-1.24-1.8-6.43-2.69-7.42-4.57-2.14-4.05,3.65-4.51,5.56-5.15Z"/>
      <path class="cls-2" d="M139.36,174.06l-.48-11.3,3.07-19.63c7.52,3.82-.4,14.6.33,29.39.06,1.31-2.29,1.97-2.93,1.53Z"/>
      <path class="cls-2" d="M192.63,66.82c-.41,6.4-1.38,13.13.15,18.98l-2.83-.08-4.48-15.25.12-10.13c4.75.16,5.28,3.74,7.04,6.48Z"/>
      <path class="cls-9" d="M103.02,403.68c.83,2.28,2.84,4.39.91,7.03-5.42-2.56-9.51.16-13.75,3.47,1.22-4.27,1.09-7.49-.99-10.53,2.61.1,4.51-1.13,6.05-3.37.92,1.91,5.6,3.76,7.78,3.39Z"/>
      <path class="cls-5" d="M95.16,439.13c-2.96,1.43-2.47,5.36-2.38,8.19-.57-2.51-1.94-4.26-1.58-7.24.89-7.41-.23-16.8,7.21-22.99-.4,8.87-3.59,15.29-3.25,22.04Z"/>
      <path class="cls-9" d="M118.57,262.77c-.29-5.85-1.95-9.5-6.19-13.37,2.25-1.07,1.42-4.44,1.98-6.41.85-3,6.48-4.09,8.64-2.41-9.58,5.84.44,11.49-4.43,22.19Z"/>
      <path class="cls-9" d="M193.79,181.46c-4.12-9.21-3.25-18.7-3.28-28.3.54-.16,1.76-.11,2.18.29.51.49.5,1.74.64,2.99l2.07,19.02c.15,1.41.93,2.64.62,3.93-.22.9-1.71,1.49-2.24,2.08Z"/>
      <path class="cls-9" d="M95.24,400.29c-1.54,2.24-3.44,3.47-6.05,3.37-2.62-3.81-3.03-8.4-2.41-12.7,4.75-2.55,6.03,4.29,8.46,9.33Z"/>
      <path class="cls-10" d="M121.63,206.64c1.28,4.63-.85,11.45-3.16,14.46-.87,1.14-4.12.96-3.95-.92.46-5.15,2.93-10.08,7.11-13.54Z"/>
      <ellipse class="cls-1" cx="164.14" cy="149.38" rx="3.63" ry="3.63"/>
      <path class="cls-9" d="M145.32,140.39c-7.05,0-13,2.76-19.01,6.1,4.45-7.59,18.08-12.36,19.01-6.1Z"/>
      <path class="cls-9" d="M123.56,435.74c-.54,1.43-.94,2.99-.63,4.62l-8.95.8c-.75-1.39-1.75-2.53-1.72-5.32l11.3-.1Z"/>
      <path class="cls-9" d="M139.36,174.06l-1.62,3.24-2.3,4.03c-1.08-6.78,2.38-11.76,3.44-18.56l.48,11.3Z"/>
      <path class="cls-10" d="M94.78,443.97c.87,1.89,1.4,3.84,1.66,5.94.14,1.15.93,2.43,1.6,3.37l-3.17,3.53-2.08-9.47c-.09-2.84-.58-6.77,2.38-8.19.07,1.3-1.02,3.46-.38,4.84Z"/>
      <path class="cls-9" d="M148.53,135.52c.52-.57,1.9-.89,2.47-.76.91.22,1.74,2.59,1.15,3.23-.4.43-1.77.44-2.33.54-1.04.18-3.07-1.05-1.29-3.01Z"/>
      <path class="cls-3" d="M191.96,138.82c0,.99-1.33,2.48-1.47,3.45-1.73-1.3-2.74-3.06-3.3-5.01,1.15,1.31,3.58,1.02,4.77,1.56Z"/>
      <path class="cls-3" d="M102.74,289.4l-1.5-1.02c.57-1.25,2.04-.3,1.5,1.02Z"/>
      <path class="cls-3" d="M175.77,130.82l1.74-1.26-1.74,1.26Z"/>
      <path class="cls-9" d="M138.84,489.06c.91,4.3.39,8.43-.34,12.93l-13.47,82.58c-5.94,36.43-11.86,71.64-16.1,107.62-6.97.45-13.69-1.64-20.61-1.94l.29-1.99,6.78-44.85c1.63-.05,2.39-.92,2.66-2.73l4.36-29.06,14.78-92.08c.81-5.05,1.38-9.06-.32-13.26,1.88-.41,3.56-2.29,5.21-2.95,2.04-.81,3.23-1.72,4.54-3.38,3.67-4.67,7.81-7.92,12.22-10.87Z"/>
      <path class="cls-2" d="M116.88,506.26c1.71,4.2,1.13,8.21.32,13.26l-14.78,92.08-1.56-.09.14-11.17,13.62-99.65,2.26,5.57Z"/>
      <path class="cls-2" d="M124.92,450.53l6.37-.2c.25.53.21,1.1.13,1.55l.03,3.69-2.86,3.2-11.85.4c4.83,3.37,8.09,5.82,8.4,9.84.33,4.38.15,10.18-3.94,12.41-3.26,1.78-7.67.9-10.59.78l8.64-3.88c3.96-1.78,1.95-6.67.96-9.5-1.34-3.81-3.13-5.3-7.07-5.88-2.44-.36-4.91-2.89-7.52-3.11-.36-3.27-3.46-4.61-6.54-4.31-.17-.91-.55-1.58-1.04-2.25-.67-.93-1.46-2.22-1.6-3.37l22.04,5.25c1.95.45,4.65-.54,5.73-1.43.71-.58.98-2.02.72-3.2Z"/>
      <path class="cls-2" d="M91.7,463.24c.27,5.87-.88,12.6,2.88,17.53l-8.39,40.16c-2.86-15.26,3.63-35.34,3.8-54.47l-4.89-8.61c2.88.86,5.81,2.33,6.6,5.39Z"/>
      <path class="cls-10" d="M128.59,458.77l.83,12.35c.27,4.07-.35,8.68-2.74,10.49-3.68,2.78-8.06,2.05-13.07,2.7l9.76,2.87c-3.01,7.5-4.83,15.47-1.29,16.14-1.65.65-3.32,2.53-5.21,2.95l-2.26-5.57c-.82-6.75-4.16-12.44-7.31-18.34.92,0,2.43.07,3.31-.15,2.92.12,7.32,1.01,10.59-.78,4.09-2.23,4.27-8.03,3.94-12.41-.31-4.02-3.57-6.47-8.4-9.84l11.85-.4Z"/>
      <path class="cls-9" d="M110.62,482.2c-.88.22-2.39.15-3.31.15-.59-1.1,1.21-3.37,2.51-4.06,6.11-3.25,6.69-10.23,3.32-15.35,3.94.58,5.73,2.07,7.07,5.88,1,2.84,3,7.72-.96,9.5l-8.64,3.88Z"/>
      <path class="cls-2" d="M99.86,469.1c-4.67,1.91-4.36,7.3-5.28,11.68-3.76-4.94-2.61-11.67-2.88-17.53,1.91-.34,4.2-.39,6.25.78,1.3.75,1.64,3.36,1.9,5.07Z"/>
      <path class="cls-2" d="M102.41,611.6l-4.36,29.06c-.27,1.81-1.03,2.68-2.66,2.73l2.21-20.59c.48-4.46.97-8.14,3.25-11.29l1.56.09Z"/>
      <path class="cls-10" d="M94.86,456.8l3.17-3.53c.48.67.87,1.34,1.04,2.25-4.69,6.35,3.68,7.53,3.92,14.43-.17.7.09,2.56-1.15,2.56-.9,0-1.6-.83-1.67-1.3l-.32-2.11c-.26-1.71-.6-4.33-1.9-5.07-2.05-1.17-4.35-1.12-6.25-.78-.8-3.06-3.72-4.53-6.6-5.39l-1.34-4.93,11.1,3.88Z"/>
      <path class="cls-1" d="M105.61,459.84l-2.62,10.12c-.24-6.9-8.61-8.09-3.92-14.43,3.08-.29,6.18,1.04,6.54,4.31Z"/>
      <path class="cls-9" d="M85.09,530.86c-.92,6.75-.94,12.96-4.23,18.81-1.24-7.29.67-13.59,2.45-19.59l1.78.77Z"/>
      <path class="cls-4" d="M85.09,530.86l-1.78-.77c.51-1.7-.85-4.42,1.21-6.31.87,2.4.88,4.85.57,7.09Z"/>
      <path class="cls-9" d="M225.56,303.29c3.77,16.18,6.02,31.83,9,49.18l42.11,244.7,11.4,59.82,6.65,37.48-19.79,1.82-.33-1.86-2.6-17.51-4.86-24.22-22.12-119.11-11.47-67.17c-2.8-16.42-4.99-32.36-7.53-48.26l-3.88-24.31-5.54-27.13c-.43-2.12-1.51-4.76-2-7.76-1.43-8.7,1.22-18.41-6.16-26.39l3.43,32.22,4.3,61.57c-3.82-1.06-6.53,1.04-10.25,3.06-4.88,2.65-4.01-11.22-10.84-10.1.25-5.17-1.19-10.91-.45-16.83,1.15-9.21-.8-17.33-.93-25.55l-.48-30.64c-3.59,5.18-2.29,10.8-2.95,16.18l-16.91,136.13c-.28,2.23,1.36,5.35-1.53,7.41l-23.36,132.62c-.91.67-1.22,2.01-1.18,3.35.05,1.85-.07,3.89-.49,5.69l-4.85,20.59c-.49,2.09-.11,4.05.97,5.73-2.98,9.78-7.95,14.77.87,22.78l-11.13-.64c.72-9.54,4.32-18.98,6.23-28.9l8.64-44.63c16.49-95.96,31.58-191.02,43.54-287.73,7.99-4.44,8.04-10.56,7.28-18.83-.47-5.05.1-9.53-5.45-11.04l13.35.42c6.48.2,12.99-.51,19.32-2.15ZM205.8,331.37l-1.04.03,1.04.03h1.08l1.04-.03-1.04-.03h-1.08Z"/>
      <path class="cls-6" d="M189.1,304.81l3.79.22c5.55,1.51,4.98,5.99,5.45,11.04.76,8.27.71,14.39-7.28,18.83-11.96,96.71-27.04,191.77-43.54,287.73l-8.64,44.63c-1.92,9.92-5.51,19.36-6.23,28.9l-3.49.1c.27-.76-.22-1.29-.67-1.27l-2.44.1-9.18-.53c-2.46-.14-5.26-2.56-7.95-2.38,4.24-35.97,10.16-71.18,16.1-107.62l13.47-82.58c.73-4.5,1.25-8.63.34-12.93,4.96-3.33,4.62-11.45,5.66-17.2,2.84-15.79,5.45-30.34,6.06-45.5.49-1.72,1.7-4.41,2.05-7.3l14.28-120.13c8.9,2.97,15.17,5.48,22.21,5.88Z"/>
      <path class="cls-10" d="M320,690.35l-15.48-75.72-57.17-296.15c-1.62-8.41-4.86-14.53-12.61-16.6-.91-5.42-9.17-2.67-7.8-10.37,10.45-3.6,18.78-11.58,29.42-16.93,4.09-2.06,9.63,5.92,10.56,9.99,10.25,44.73,15.96,88.49,23.94,134.01l34.24,195.44,12.56,69.71c-4.66,5.49-11.84,5.73-17.67,6.61Z"/>
      <path class="cls-6" d="M195.08,419.34l-11.09,232.12c-.13,2.75,1.07,3.81,1.32,5.11,1.72,9.1,11.04,14.78,19.88,16.53l-3.78,2.41-38.15.07c-1.53,0-3.37.39-4.42-1.12-.72-1.04-.33-2.69-.52-3.62,2.75-3.13,2.99-7.82,2.35-11.7,2.46-9.37,2.72-19.19,3.87-28.63l14.68-119.57-.04-3.08.08-1.68,1.73-12.93,7.38-69.95c1.68-15.97,3.56-31.12,3.65-46.36l1.71.04c.13,8.22,2.08,16.34.93,25.55-.74,5.92.69,11.66.45,16.83Z"/>
      <path class="cls-2" d="M216.6,366.73c-3.44,4.73-.36,9.38-.13,14.55l.72,16.43,6.96,57.12,6.2,46.46.99,6.02c.37,2.28.08,4.66.67,6.96.34,1.3.62,3.19.28,4.47-.84,3.15.62,5.87,1.3,8.62l1.47,5.97,11.72,74.22c3.38,21.38,6.2,42,10.99,63.08.36,2.36-4.56,2.7-5.51,3.74l-4.18-.41-2-.09-1.22.05c-1.97-5.18.16-12.25-4.41-16.44l-13.78-109.03-6.87-68.35-1.13-27.7-2.52-26.02-4.3-61.57-3.43-32.22c7.38,7.97,4.73,17.69,6.16,26.39.49,3,1.57,5.64,2,7.76Z"/>
      <path class="cls-6" d="M200.12,229.51c.25,8.38,1.72,16.25,5.21,24.53-7.57,9.39-1.22,21.34-1.94,34.35l-.97-.11c-1.92-1.39-3.85-1.75-6.93-.89-.02-2.76.14-4.69-1.48-6.36-.08,2.13-.32,5.67-1.92,6.16-2.75.84-5.1,1.32-6.78,1.53-6.18.77-10.3-1.19-15.73-4.14-4.88-2.66-12.01-4.68-12.72-11.31-.21-1.95-1.33-4-3.28-4.92-1.15-14.68,6.58-31.7,7.65-25.96.15.8.07,1.81,1.21,3.76,2.96-3.45,4.7-7.7,5.94-12.41,1.24,1.32,4.87,1.54,7.06,2.11,2.48.64,3.81-2.26,5.53-4,1.26-1.27,4.28-2.82,5.97-3.37,4.1-.62,9.22.42,13.18,1.03Z"/>
      <path class="cls-2" d="M320,690.35c-6.55,3.12-16.53,3.32-25.27,4.13l-6.65-37.48c9.53-12.74,3.83-27.15,16.45-42.36l15.48,75.72Z"/>
      <path class="cls-2" d="M331.23,493.42l7.92,145.42-2.04,1.55-8.2-44.73c1.24-.05,2.25-1.45,1.95-3.15-2.76-15.52-4.59-30.43-5.44-46.03-.07-1.26-2.21-2.16-2.75-2.08l.13-6.17c1.4-.2,1.63-1.35,1.68-2.43.06-1.2-.3-2.4-1.62-2.55-.13-6.72-2.11-14.78-3.09-22.33l-2.88-22.18,14.35,4.67Z"/>
      <path class="cls-2" d="M159.17,631.05l-.34,10.79-.34,8.99,1,1.24c-1.67,6.04-2.42,12.59-1.18,18.77.19.93-.21,2.57.52,3.62,1.05,1.51,2.89,1.12,4.42,1.12-.65.51-3.4,1.25-2.36,3.31l13.96,8.84c-.78,3.61-.75,6.91-.19,10.22l-27.2-.2-3.67-.92c-8.82-8.01-3.85-13-.87-22.78l11.21-36.74,2.52-6.46,2.52.23Z"/>
      <path class="cls-10" d="M238.34,533.39c1.01,4.63.78,10.3,2.25,15.25,2.63,8.88,1.68,17.22,3.05,25.95,1.48,9.39,4.84,17.99,6.39,27.51l9.04,55.83c.33,2.02-.01,2.77,1.44,4.17.92.88,1.52.34,1.66-.27.29-1.21.83-2.7,1.11-3.14,2.39-.89,2.52-4.1,3.86-6l4.86,24.22c-5.11-3.2-9.39,3.33-13.04,4.69-3.95,1.47-7.67,1.94-11.44,4.32-2.41,1.52-7.83,2.07-10.24,3.89l-2.31.43c3.63-3.13,3.11-7.25,1.5-11.45,4.74-.34,12.94-1.27,15.81-4.43.95-1.05,5.86-1.39,5.51-3.74-4.79-21.08-7.61-41.69-10.99-63.08l-11.72-74.22,3.28.06Z"/>
      <path class="cls-9" d="M240.46,657.48c4.58,4.2,2.44,11.26,4.41,16.44l-3.33.1-13.09.32-14,.86c-2.4-2.05-6.44-1.99-8.63.36l-4.42-.07,3.78-2.41c-8.84-1.75-18.16-7.43-19.88-16.53l55.16.92Z"/>
      <path class="cls-10" d="M148.78,311.99c1.86,8.14-.61,17.59-1.14,26.5l-1.61,27.2c-.35,5.92-1.67,11.03-1.73,16.07l-.12,9.49-.05,6.42v3.19c-1.08.18-1.69,1.37-1.68,3.07l.08,11.3-.13,5.08c-2.31-.48-4.24-1.84-6.09-3.54l4.08-58.96c1.12-16.12,1.14-31.57,3.07-46.76l5.33.93Z"/>
      <path class="cls-10" d="M188.86,697.47c-1.68-6.34-9.41-6.85-14.01-9.76l-13.96-8.84,32.68.11-1.06,14.25c-.21,2.75-1.64,4.18-3.64,4.24Z"/>
      <path class="cls-10" d="M190.31,296.89c-.28,5.03-5.63,1.8-9.28,4.95-5.51-1.92-10.67-4.09-16.12-6.22-3.23-3.18-7.1-6-11.16-8.3-2.38-1.35-5.51.33-8.15.07.88-2.37-.91-6.54,2.03-9.79,16.27,6.27,26.08,18.3,42.68,19.3Z"/>
      <path class="cls-10" d="M142.55,191.61c-.03,1.64,1.98,3.59,2.39,5.55l6.12,29.17c.2.97.46,1.83,1.04,2.64l-.91,1.76-2.54.75c-1.04-.67-2.16-1.35-4.27-1.06.21,4.78-.82,8.84-3.44,12.3-8.79-1.46,3.16-6.47,1.76-20.76l-3.09-31.63c1.66-.42,2.3.76,2.94,1.27Z"/>
      <path class="cls-10" d="M226.95,291.51c-1.38,7.7,6.89,4.95,7.8,10.37-3.18-.49-6.16.62-9.19,1.41-6.33,1.64-12.83,2.35-19.32,2.15l-1.55-8.4c7.69.08,14.96-3.01,22.26-5.53Z"/>
      <path class="cls-2" d="M258.96,681.62c4.03,4.79,8.21,8.78,8.16,14.81l-12.63,1.68c-.77-6.71-6.42-7.76-6.97-12.18,3.77-2.38,7.49-2.85,11.44-4.32Z"/>
      <path class="cls-2" d="M272,676.93l2.6,17.51c-1.82-.24-3.71.35-4.48,2.1l-3.01-.11c.05-6.03-4.13-10.02-8.16-14.81,3.65-1.35,7.93-7.89,13.04-4.69Z"/>
      <path class="cls-9" d="M328.91,595.66l-8.48-47.66c.18.14,1.02-.09,1.39-.48.71-.75,1-2.25.84-3.12.55-.08,2.68.82,2.75,2.08.86,15.6,2.68,30.51,5.44,46.03.3,1.7-.71,3.1-1.95,3.15Z"/>
      <path class="cls-10" d="M204.69,297.04l1.55,8.4-13.35-.42-3.79-.22-8.07-2.97c3.65-3.14,9,.08,9.28-4.95l14.38.15Z"/>
      <path class="cls-9" d="M247.52,685.93c.55,4.42,6.2,5.47,6.97,12.18-5.53.74-10.92.53-16.5.1l-.71-8.39c2.42-1.82,7.84-2.38,10.24-3.89Z"/>
      <path class="cls-10" d="M126.06,695.09c.98.71,2.03,1.2,3.11,1.17l3.49-.1,11.13.64,3.67.92c-1.27,6.76-21.54,3.44-33.88-.65,2.07-1.01,2.78-1.53,3.31-2.51l9.18.53Z"/>
      <path class="cls-10" d="M236.47,678.8c1.6,4.2,2.13,8.32-1.5,11.45-1.43,1.13-3.06,2.19-4.87,2.92-3.45-3.17-2.88-8.28-2.98-12.78,1.52.55,2.45-1.09,3.39-1.16l5.96-.43Z"/>
      <path class="cls-10" d="M151.74,249.25c-2.23,8.74-3.04,16.79,1.83,19.09,1.95.92,3.07,2.97,3.28,4.92-3.61-1.23-8.52-2.86-10.53-7.29s-.74-10.06.24-14.19c1.41-1.36,3.12-2.27,5.18-2.53Z"/>
      <path class="cls-2" d="M188.86,697.47l-14.2.46c-.55-3.31-.59-6.6.19-10.22,4.59,2.91,12.32,3.42,14.01,9.76Z"/>
      <path class="cls-10" d="M142.4,420.32c-.01.41.05.85-.1,1.29-.99,2.9-2.09,7-2.21,10.07l-4.17,1.16c-.91-1.11-2.17-2.29-2.83-4.28,3.68-2.72,4.42-6.53,3.17-9.93.26-.55,0-1.4.04-1.86,1.86,1.71,3.79,3.06,6.09,3.54Z"/>
      <path class="cls-10" d="M144.52,299.93l2.54.24,3.18.09-.8,1.61c-1.02,2.04-.94,4.84.8,6.47l-1.45,3.65-5.33-.93c.49-3.85-.68-7.73,1.06-11.13Z"/>
      <path class="cls-10" d="M153.75,287.31c-3.92,1.21-1.84,6.11-4.15,11.42l-2.54,1.44-2.54-.24c1.48-2.89-.38-8.6,1.08-12.55,2.64.26,5.77-1.42,8.15-.07Z"/>
      <path class="cls-6" d="M237.27,689.82l.71,8.39c-2.39-.18-5.2.64-7.71-.26l-.26-1.6.08-3.18c1.81-.72,3.44-1.79,4.87-2.92l2.31-.43Z"/>
      <path class="cls-9" d="M202.42,288.28l-15.14,3.13c-.38-1.18-1.47-1.88-1.97-2.69,1.68-.21,4.04-.68,6.78-1.53,1.6-.49,1.84-4.02,1.92-6.16,1.62,1.67,1.46,3.6,1.48,6.36,3.08-.86,5.01-.51,6.93.89Z"/>
      <path class="cls-10" d="M151.19,230.74c3.33,3.25,2.64,7.07,1.26,10.94l-4.23-.63.43-9.56,2.54-.75Z"/>
      <path class="cls-10" d="M152.46,241.67c-.69,1.94-.13,5.28-.71,7.58-2.05.26-3.77,1.17-5.18,2.53-.3-3.79,1.5-7.16,1.66-10.74l4.23.63Z"/>
      <path class="cls-10" d="M139.41,279.51l-1.63-.08c.43-6.56-.79-14.68,1.23-20.67,3.71.7-.4,7.85.4,20.76Z"/>
      <path class="cls-10" d="M338.46,651.62l-1.35-11.23,2.04-1.55c.2,3.64,3.88,9.43-.69,12.78Z"/>
      <path class="cls-8" d="M241.54,674.02c-3.65,2.49-9.19,2.17-13.09.32l13.09-.32Z"/>
      <path class="cls-8" d="M214.45,675.21l-8.63.36c2.2-2.35,6.23-2.41,8.63-.36Z"/>
      <path class="cls-5" d="M274.6,694.44l.33,1.86-4.81.24c.76-1.74,2.66-2.34,4.48-2.1Z"/>
      <path class="cls-10" d="M137.57,282.69l.21-3.26,1.63.08c.09,1.44-.32,2.88-1.84,3.18Z"/>
      <path class="cls-8" d="M230.5,679.23c-.94.07-1.87,1.71-3.39,1.16.31-1.49,2.06-1.83,3.39-1.16Z"/>
      <path class="cls-8" d="M246.1,673.87l2,.09c-.56.7-1.45.91-2-.09Z"/>
      <path class="cls-10" d="M230.27,697.95c-1.34.39-2.05-1.31-.26-1.6l.26,1.6Z"/>
      <path class="cls-9" d="M305.09,222.19c.93,1.65,1.93,4.82,2.23,8.09l23.91,263.14-14.35-4.67-6.82-38.67-29.69-215c-.92-6.68,1.89-11.98,5.56-15.7,3.36-3.4,10.39-6.14,14.89-2.69,1.7,1.31,2.87,4.58,4.28,5.49Z"/>
      <path class="cls-2" d="M227.14,153.2c3.09,2.05,5.42,3.7,6.03,8.53,2.06,16.15,2.64,31.77.94,48.39-4.53-4.28-6.89-6.87-10.5-9.32l-8.89-6.03c3.73-10.87-5.73-23.01-6.62-38.13.91-2.39,6.42-.91,8.55-2.13,4.54-2.58,6.75-3.79,10.48-1.31Z"/>
      <path class="cls-2" d="M206.35,215.58c1.14.01,3.08.4,4.09-.04,3.95,4.4,8.34,8.24,13.2,11.16l7.56,4.53c9.86,5.9,8.7,17.16,11.42,20.98.51.71.25,2.76-.33,3.38l-1,1.07c-3.59,3.84-2.8,9.13-9.47,15.35l-2.85-10.75c6.99-.03,1.47-13.53-3.16-25.51-.74-1.91.29-5.7-2.86-5.81-1.9-.07-3.88-.22-5.62.25-2.03.55-4.53,1.27-7.39.83l-9.83-1.51c-3.96-.61-9.08-1.65-13.18-1.03l-.21-10.79c5.43-.31,11.29.33,16.39-1.76.98-.4,2.17-.36,3.24-.35ZM239.78,254.88c1.06,1.49,2.71-.1,1-1.24l-1,1.24Z"/>
      <path class="cls-10" d="M208.1,156.64c.89,15.12,10.34,27.26,6.62,38.13l8.89,6.03c-.58,1.59-1.35,2.69-2.59,3.36-2.99-1.98-4.66-5.11-8.28-6.18-11.53-3.41-17.16-.17-22.56-2.97,3.79.23,8.18.25,9.74-3.13,1.95-.69,6.52.11,8.36-3.11,2.76-4.83,1.35-11.66-3.35-14.93-.14,5.03,1.86,8.36,1.48,12.93-4.56.7-7.91.19-11.47,0,2.2-1.31,6.81-4.54,6.55-8.04-3.37-5.55-5.13-11.16-4.64-17.44l3.62.08c.16,2.5,2.59,5.95,3.45,9.76,2.17-6.7,0-13.15-.45-19.61l4.64,5.12Z"/>
      <path class="cls-6" d="M228.66,146.95l-.25,3.06-1.27,3.19c-3.73-2.48-5.94-1.27-10.48,1.31-2.14,1.21-7.65-.26-8.55,2.13l-4.64-5.12v-4.36c9.59-8.45,13.43-4.45,25.2-.22ZM218.45,148.57c0-2.04-1.65-3.69-3.68-3.69s-3.68,1.65-3.68,3.69,1.65,3.69,3.68,3.69,3.68-1.65,3.68-3.69Z"/>
      <path class="cls-2" d="M221.02,204.16c0,1.04.16,2.95-.34,3.85-1.68,3.05-1.38,6.25.3,9.29l-3.26-1.81-7.87-5.49c1.78-3.89,2.48-7.96,2.89-12.02,3.63,1.07,5.29,4.21,8.28,6.18Z"/>
      <path class="cls-10" d="M231.2,231.22l-7.56-4.53c1.53.11,3.47.45,4.92-.89-3.34-3.12-6.17-5.2-7.59-8.51-1.68-3.04-1.99-6.23-.3-9.29,1.1.46,2.21,1.91,2.33,3.58.93,12.49,14.3,15.9,8.19,19.63Z"/>
      <path class="cls-10" d="M229.04,140.4c-.72-.25-1.65.31-1.93,1.07,2.81,1.16,3.07,2.86,3.36,4.63.24,1.48.1,3.76-2.07,3.92l.25-3.06c.1-1.26-.56-2.46-1.58-3.19l-1.59-3c1.65-2.4,2.51-3.74,3.01-2.55.4.95.5,1.68.55,2.19Z"/>
      <path class="cls-9" d="M322.79,538.23c-.32-.61-1.57-1.25-1.5-2.42.05-.89.95-1.9,1.57-2.55,1.32.15,1.68,1.35,1.62,2.55-.06,1.08-.28,2.22-1.68,2.43Z"/>
      <path class="cls-9" d="M192.77,85.8c-1.53-5.85-.56-12.58-.15-18.98,8.82,13.71,13.95,29.61,17.76,46.71-6.03,2.12-10.62-.94-12.1-6.62l-5.51-21.11Z"/>
      <path class="cls-1" d="M201.54,146.96c.52-.04,1.05-.15,1.91.21v4.36c.45,6.46,2.62,12.91.45,19.61-.86-3.81-3.29-7.26-3.45-9.76-.32-5.03-1.58-9.2-5.39-12.86l-.17-1.55c1.4-.42,2.73-.84,4.22-3.65l2.42,3.64Z"/>
      <path class="cls-9" d="M225.48,140.76l1.59,3c.41.61-.45,1.72-.82,1.51-6.41-3.62-11.08-9.72-25.04.09-.61-2.89,1.09-5.89,4.43-7.31,6.9-2.93,14.13-1.18,19.83,2.71Z"/>
      <path class="cls-2" d="M227.07,143.76c1.02.73,1.69,1.94,1.58,3.19-11.76-4.23-15.61-8.23-25.2.22-.86-.36-1.39-.26-1.91-.21l-.33-1.6c13.96-9.81,18.62-3.71,25.04-.09.37.21,1.22-.89.82-1.51Z"/>
      <path class="cls-9" d="M169.05,219.8c-.87,7.3,5.19,10.86,11.91,12.05-1.72,1.74-3.05,4.64-5.53,4-2.2-.57-5.82-.79-7.06-2.11-1.4-1.49-2.09-2.64-5.6-3.56-1.74-.46-1.17-4.26.15-5.27,1.34-2.41,3.8-3.69,6.12-5.11Z"/>
      <path class="cls-10" d="M171.04,213.43l1.73,2.14-1.64,2.96-2.08,1.27c-2.32,1.42-4.78,2.7-6.12,5.11-1.26.22-2.38.68-4.37.07,3.71-5.29,7.95-8.61,12.48-11.56Z"/>
      <path class="cls-8" d="M152.1,228.97c-.58-.81-.83-1.67-1.04-2.64l1.04,2.64Z"/>
      <path class="cls-1" d="M209.84,210l7.87,5.49c-2.51-.59-4.91-.97-7.27.06-1.01.44-2.95.05-4.09.04-.18-1.01-1.39-1.67-3.09-1.65l-22.49.23-7.99,1.41-1.73-2.14c4.17-2.72,7.86-5.14,13.11-5.79,8.55-1.07,18.5-2.64,25.69,2.37Z"/>
      <path class="cls-1" d="M199.91,191.88l-8.86-.48c.18-1.47.7-2.24,1.18-2.99l2.69-1.65c3.56.2,6.91.7,11.47,0,.39-4.58-1.62-7.91-1.48-12.93,4.7,3.27,6.12,10.1,3.35,14.93-1.84,3.23-6.41,2.42-8.36,3.11Z"/>
      <path class="cls-10" d="M200.45,161.37l-3.62-.08c.33-4.29-1.31-8.5-1.76-12.77,3.81,3.66,5.06,7.83,5.39,12.86Z"/>
      <path class="cls-1" d="M139.55,450.74l-4.1-.89c-1.88,2.16-1.35,6.46.77,9.04-6.33,12.18-.71,26.08-12.85,28.27l-9.76-2.87c5-.65,9.39.08,13.07-2.7,2.39-1.8,3.01-6.41,2.74-10.49l-.83-12.35,2.86-3.2c.53-.6,2.21-.99,1.84-2.39-.17-.64-1.46-1.29-1.86-1.3.08-.45.12-1.02-.13-1.55,3.54-2.7,2.49-6.55,2.58-10.59.24-1.71,3.54-4.62,2.05-6.89l4.17-1.16c-.25,6.68,1.46,12.5-.55,19.06Z"/>
      <path class="cls-10" d="M126.62,499.93c-1.3,1.66-2.5,2.57-4.54,3.38-3.54-.67-1.71-8.64,1.29-16.14,12.13-2.19,6.51-16.09,12.85-28.27,1.47-2.83,2.38-5.06,3.33-8.16,2.01-6.56.3-12.38.55-19.06.11-3.07,1.22-7.18,2.21-10.07,6.63,5.22,2.74,21.88.89,35.54-7.91,11.77-4.33,27.9-9.14,30.83-4.98,3.03-8.35,6.1-7.43,11.96Z"/>
      <path class="cls-2" d="M147.28,397.65c-2.93,8.07-3.52,28.86,3.27,28.71-.61,15.16-3.23,29.72-6.06,45.5-1.03,5.75-.69,13.87-5.66,17.2-4.41,2.95-8.55,6.2-12.22,10.87-.92-5.86,2.46-8.92,7.43-11.96,4.81-2.93,1.24-19.06,9.14-30.83,1.85-13.65,5.74-30.32-.89-35.54.15-.44.09-.88.1-1.29l.13-5.08c1.08-.18,1.69-1.37,1.68-3.07l-.09-11.3v-3.19s3.16-.02,3.16-.02Z"/>
      <path class="cls-10" d="M131.45,455.57l-.03-3.69c.4.01,1.69.66,1.86,1.3.37,1.39-1.3,1.79-1.84,2.39Z"/>
      <path class="cls-9" d="M216.16,426.38l2.52,26.02,1.13,27.7,6.87,68.35,13.78,109.03-55.16-.92c-.25-1.3-1.45-2.36-1.32-5.11l11.09-232.12c6.82-1.12,5.95,12.75,10.84,10.1,3.72-2.02,6.42-4.12,10.25-3.06Z"/>
      <path class="cls-2" d="M234.74,301.88c7.75,2.07,10.98,8.19,12.61,16.6l57.17,296.15c-12.62,15.22-6.92,29.62-16.45,42.36l-11.4-59.82-42.11-244.7c-2.99-17.35-5.23-33.01-9-49.18,3.03-.79,6.01-1.9,9.19-1.41Z"/>
      <path class="cls-1" d="M192,376.92c-.09,15.24-1.97,30.4-3.65,46.36l-7.38,69.95c-2,2.46-4.47,4.39-7.61,5.4l16.91-136.13c1.19.21,1.81,1.4,1.8,3.11l-.07,11.31Z"/>
      <path class="cls-1" d="M175.59,511.17l.42,3.1c-1.67-.82-3.56.3-3.23,2.25.14.83.7,1.89,1.79,2.69l-11.14,65.83-11.72,52.15c-.94,4.2-4.23,8.55-2.36,14.67-3.52-.77-2.21-3.02-2.55-4.16.42-1.79.54-3.84.49-5.69,1.41-.3,2.06-2.07,1.18-3.35l23.36-132.62c2.13,1.08,3.46,2.95,3.76,5.13Z"/>
      <path class="cls-10" d="M245.02,533.6l22.12,119.11c-1.33,1.9-1.47,5.1-3.86,6-2.91-6.19-3.08-12.83-4.34-19.95l-15.11-85.45c-1.27-7.19-2.06-13.29-3.14-19.73l4.31.03Z"/>
      <path class="cls-10" d="M226.03,418.17l-.31,16.11c3.46,17.34,5.54,34.12,7.53,51.69.62,5.48-.8,10.9-2.89,15.32l-6.2-46.46-6.96-57.12c2.58-.06,4.17-1.75,4.95-3.85l3.88,24.31Z"/>
      <path class="cls-10" d="M245.02,533.6l-4.31-.03-3.26-19.5c-2.04,7.13-.42,13.28.89,19.32l-3.28-.06-1.47-5.97c1.43-1.6,1.76-3.4,1.57-5.85-.1-1.27-.71-2.86-2.87-2.77.34-1.28.05-3.16-.28-4.47,2.27.22,2.88-1.72,2.42-3.62-.36-1.48-1.53-2.71-3.09-3.33l-.99-6.02c2.09-4.42,3.51-9.83,2.89-15.32-1.99-17.57-4.07-34.35-7.53-51.69l.31-16.11c2.54,15.9,4.72,31.84,7.53,48.26l11.47,67.17Z"/>
      <path class="cls-10" d="M222.15,393.86c-.78,2.1-2.37,3.8-4.95,3.85l-.72-16.43c-.23-5.17-3.31-9.82.13-14.55l5.54,27.13Z"/>
      <path class="cls-10" d="M154.13,637.28l-11.21,36.74c-1.07-1.67-1.46-3.64-.97-5.73l4.85-20.59c.35,1.13-.97,3.38,2.55,4.16-1.87-6.12,1.41-10.48,2.36-14.67l2.42.1Z"/>
      <path class="cls-7" d="M179.24,506.17c-1.67-.37-2.1,1.72-.08,1.68l.04,3.08-3.62.24c-.3-2.17-1.62-4.05-3.76-5.13,2.89-2.05,1.26-5.17,1.53-7.41,3.14-1.01,5.61-2.94,7.61-5.4l-1.73,12.93Z"/>
      <path class="cls-10" d="M193.71,376.96l-1.71-.04.07-11.31c.01-1.71-.61-2.9-1.8-3.11.67-5.38-.63-11,2.95-16.18l.48,30.64Z"/>
      <polygon class="cls-5" points="205.8 331.37 206.88 331.37 207.92 331.4 206.88 331.43 205.8 331.43 204.76 331.4 205.8 331.37"/>
      <path class="cls-10" d="M147.29,642.01c-.04-1.35.27-2.69,1.18-3.35.88,1.29.23,3.06-1.18,3.35Z"/>
      <path class="cls-9" d="M164.9,295.62c5.46,2.13,10.61,4.29,16.12,6.22l8.07,2.97c-7.04-.4-13.31-2.91-22.21-5.88l-14.28,120.13c-.34,2.89-1.55,5.58-2.05,7.3-6.79.15-6.21-20.64-3.27-28.71.48-1.32.04-3.38.05-4.77l.04-11.16c2.88-16.13,3.28-32.43,3.38-49.58l3.76-31.01c.32-2.64,2.13-4.9,3.66-5.32,2.04-.55,4.98-.88,6.73-.2Z"/>
      <path class="cls-3" d="M129.17,696.26c-1.08.03-2.13-.46-3.11-1.17l2.44-.1c.46-.02.95.51.67,1.27Z"/>
      <path class="cls-10" d="M179.21,510.93l-14.68,119.57-4.56.44c.67-1.08.22-5.02-1.06-4.92-3.38.26-1.82,3.64-2.26,4.8l-2.52,6.46-2.42-.1,11.72-52.15,11.14-65.83c1.69-.68,1.67-3.24,1.44-4.93l-.42-3.1,3.62-.24Z"/>
      <path class="cls-10" d="M164.53,630.51c-1.16,9.44-1.42,19.26-3.87,28.63l-1.16-7.07-1-1.24c2.21-2.44,2.44-6.42.34-8.99l.34-10.79.8-.11,4.56-.44Z"/>
      <path class="cls-10" d="M160.66,659.13c.64,3.88.4,8.57-2.35,11.7-1.24-6.18-.48-12.72,1.18-18.77l1.16,7.07Z"/>
      <path class="cls-10" d="M179.16,507.85c-2.02.03-1.59-2.06.08-1.68l-.08,1.68Z"/>
      <path class="cls-10" d="M232.02,514.27c-.59-2.3-.3-4.67-.67-6.96,1.56.62,2.73,1.85,3.09,3.33.46,1.9-.15,3.84-2.42,3.62Z"/>
      <path class="cls-10" d="M233.6,527.36c-.68-2.75-2.13-5.47-1.3-8.62,2.16-.08,2.77,1.5,2.87,2.77.19,2.45-.14,4.25-1.57,5.85Z"/>
      <path class="cls-9" d="M217.33,230.19l9.89,31.37c-3.03-3.26-4.52-2.98-5.34-.02,1.13,6.9,1.55,12.68.82,18.61-5.71,4.04-12.33,6.8-19.31,8.24.72-13.01-5.63-24.96,1.94-34.35-3.49-8.28-4.96-16.15-5.21-24.53l9.83,1.51c2.86.44,5.36-.28,7.39-.83Z"/>
      <path class="cls-2" d="M186.73,217.69l.21,10.79c-1.69.54-4.71,2.09-5.97,3.37-6.72-1.19-12.78-4.75-11.91-12.05l2.08-1.27c4.18-2.56,10.67-.56,15.6-.84Z"/>
      <path class="cls-8" d="M159.97,630.94l-.8.11-2.52-.23c.45-1.15-1.12-4.53,2.26-4.8,1.27-.1,1.73,3.84,1.06,4.92Z"/>
      <path class="cls-10" d="M158.49,650.83l.34-8.99c2.09,2.57,1.86,6.55-.34,8.99Z"/>
      <path class="cls-1" d="M240.71,533.57c1.07,6.44,1.87,12.54,3.14,19.73l15.11,85.45c1.26,7.13,1.43,13.77,4.34,19.95-.28.44-.82,1.93-1.11,3.14-.15.61-.74,1.15-1.66.27-1.45-1.39-1.11-2.15-1.44-4.17l-9.04-55.83c-1.54-9.53-4.91-18.12-6.39-27.51-1.38-8.73-.42-17.07-3.05-25.95-1.47-4.96-1.24-10.62-2.25-15.25-1.32-6.04-2.94-12.19-.89-19.32l3.26,19.5Z"/>
      <path class="cls-2" d="M164.9,295.62c-1.74-.68-4.68-.35-6.73.2-1.53.41-3.34,2.68-3.66,5.32l-3.76,31.01c-.09,17.15-.5,33.46-3.38,49.58l-3.07.04c.06-5.04,1.38-10.15,1.73-16.07l1.61-27.2c.53-8.92,3-18.37,1.14-26.5l1.45-3.65c.82-2.07.54-4.63-.8-6.47l.8-1.61-.64-1.53c2.3-5.31.23-10.21,4.15-11.42,4.06,2.3,7.92,5.13,11.16,8.3Z"/>
      <polygon class="cls-4" points="147.37 381.73 147.33 392.88 144.18 391.26 144.3 381.77 147.37 381.73"/>
      <path class="cls-5" d="M142.54,415.24l-.08-11.3c-.01-1.7.6-2.89,1.67-3.07l.09,11.3c.01,1.7-.6,2.89-1.68,3.07Z"/>
      <path class="cls-2" d="M147.33,392.88c0,1.39.43,3.44-.05,4.77l-3.15.02.05-6.42,3.15,1.63Z"/>
      <path class="cls-9" d="M231.82,272c-3.09,2.88-5.71,5.74-9.12,8.15.72-5.93.31-11.71-.82-18.61.82-2.96,2.32-3.24,5.34.02l-9.89-31.37c1.75-.47,3.73-.32,5.62-.25,3.14.11,2.12,3.9,2.86,5.81,4.63,11.98,10.14,25.48,3.16,25.51l2.85,10.75Z"/>
      <path class="cls-10" d="M150.23,308.34c-1.74-1.63-1.82-4.43-.8-6.47,1.34,1.84,1.62,4.4.8,6.47Z"/>
      <polygon class="cls-1" points="150.24 300.26 147.06 300.17 149.6 298.73 150.24 300.26"/>
      <path class="cls-10" d="M217.71,215.48l3.26,1.81c1.42,3.3,4.25,5.39,7.59,8.51-1.45,1.34-3.39,1-4.92.89-4.86-2.91-9.26-6.75-13.2-11.16,2.36-1.02,4.76-.65,7.27-.06Z"/>
      <path class="cls-3" d="M180.77,214.16c.31.93,1.41,1.6,3.11,1.59l19.24.18c-5.09,2.09-10.96,1.46-16.39,1.76-4.93.28-11.41-1.71-15.6.84l1.64-2.96,7.99-1.41Z"/>
      <path class="cls-6" d="M206.35,215.58c-1.07-.01-2.26-.05-3.24.35l-19.24-.18c-1.7.01-2.79-.66-3.11-1.59l22.49-.23c1.7-.02,2.91.64,3.09,1.65Z"/>
      <path class="cls-10" d="M253.04,249.14c-4.84,10.61-10.78,21.56-20.26,29.47-13.01,10.86-30.17,16.1-45.5,12.8l15.14-3.13.97.11c6.98-1.44,13.6-4.2,19.31-8.24,3.41-2.41,6.03-5.27,9.12-8.15,6.67-6.22,5.88-11.52,9.47-15.35l-1.52-1.77c1.06,1.49,2.71-.1,1-1.24l1.52,1.94c.58-.62.84-2.66.33-3.38.13-1.92,1.92-1.26,1.93-.55,0,.67,2.71,2.83,3.54,2.16,1.28-1.15,1.85-4.98,4.95-4.67Z"/>
      <ellipse class="cls-1" cx="214.77" cy="148.57" rx="3.68" ry="3.69"/>
      <path class="cls-10" d="M139.55,450.74c-.95,3.09-1.86,5.33-3.33,8.16-2.12-2.58-2.65-6.88-.77-9.04l4.1.89Z"/>
      <path class="cls-7" d="M176.01,514.28c.23,1.7.25,4.26-1.44,4.93-1.09-.8-1.65-1.86-1.79-2.69-.33-1.95,1.56-3.07,3.23-2.25Z"/>
    </g>
  </g>
</svg>