<?xml version="1.0" encoding="UTF-8"?>
<svg id="Réteg_1" data-name="Réteg 1" xmlns="http://www.w3.org/2000/svg" viewBox="0 0 409.19 709.78">
  <defs>
    <style>
      .cls-1 {
        fill: #1c395c;
      }

      .cls-2 {
        fill: #f39ea5;
      }

      .cls-3 {
        fill: #f9d0b4;
      }

      .cls-4 {
        fill: #0f2e46;
      }

      .cls-5 {
        fill: #f0afa4;
      }

      .cls-6 {
        fill: #eaa3a3;
      }

      .cls-7 {
        fill: #fbedde;
      }

      .cls-8 {
        fill: #344e75;
      }

      .cls-9 {
        fill: #fcddb8;
      }

      .cls-10 {
        fill: #3e649e;
      }
    </style>
  </defs>
  <g id="Generatív_objektum_0_30_" data-name="Generatív objektum (0, 30)">
    <path class="cls-7" d="M185.53,171.57l-.74,3.36c.55,14.36-.2,31.83-2.36,45.24-3.13-.19-6.88,1.28-8.93,3.89,2.39,1.45,4.65.55,6.26,1,.1.28,1.09.84.96,1.23-.2.61-1.44,1.49-2.17,1.47l-4.61-.13c2.97,2.5,4.96,4.46,4.04,7.81-.28.64-1.04,1.18-2,1.22l-14.12.63c.95,2.24,2.62,1.59,4.19,1.59-.74,1-1.17,1.18-1.39,2.25-.27,1.31-.18,1.78.76,2.82-1.97.67-5,1.64-4.95,3.88l.06,2.53c.04,1.9,1.82,3.47,3.54,4.22l-7.62.07c2.37,3.67,7.03,5.25,11.6,4.74,3.93-.43,7.58-3.01,8.88-7.15,1.63-5.2,5.46-4.06,5.53-7.74l.07-3.99c.03-1.7,2.13-1.71,3.29-1.31l2.24,1.16,2.41,5.12-.47,9.86.51,9.88c.29,5.6.02,11.61,1.58,17.03l1.08,1.43c.39.51.08,1.35-.26,1.9-.01,0-.15.32-.05,1-1.47.07-2.28.63-2.98,1.82-.54.93-.64,1.58,0,2.9-2.5-1.14-11.05-8.48-12.36-3.7-.23.83.33,2.48,1.68,3.1l6.41,2.94c.58,4.8-1.3,9.08-6.39,9.4-5.42.34-10.52,2.91-14.98,5.22,3.13.21,5.36-1.99,7.93-.95l-10.24,3.96c-1.11.43-2.22.3-2.48,1.58-3.33,1.61-6.35-1.93-7.13-5.23l-3.7-15.81c-.78-3.32-1.22-6.41-2.5-9.54-2.27-5.55-3.83-11.98-8.29-16.9-.97-1.07-2.51,1.75-2.43,3.04.44,6.48-1.13,12.15-1.88,17.98-1.51,11.85-2.08,23.85-4.42,36.13-.43,2.25.83,4.7,1.48,6.31-.93.52-1.51,1.23-1.49,2.04-.52.2-1.23.52-1.32,1.47,1.98.25,5.97.51,7.15,2.75-.14,4.86-7.83,6.79-7.59,9.61.87,10.38-.28,20.42-1.19,31.21l-4.77,56.69c-1.07,12.71-1,25-3.89,37.52l-10.02,5.6c2.59,3.8,6.77,3.71,9.91,4.69s6.69,2.76,10.09,1.56l4.1-5.21,2.4.1-1.06,4.54c-3.23-.29-3.68,2.21-5.24,3.77-3.64,3.63-10.03,3.61-14.69,2.31-1.05,1.23-.53,2.93.18,3.94.5.71,1.77,1.53,3.15,1.52l14.52-.1c.61.42,1.02,1.91,1.16,2.29-.23.59-.68,1.32-1.44,2.03-3.13-1.31-6.12-.48-7.77,1.88-5.08-1.29-9.38-2.21-10.52.61-.69,1.71-.58,2.06.67,4.97.35.01.69.16.92.42.31.35.4.85.35,1.5-1.1.75-3.16,2.5-4.24,1.61-3.73-3.08-7.83-4.66-11.03-8.98-1.72.8-.36-.03.81-.6l-2.11-2.12c-1.09,1.87-1.61,3.92-1.21,6.1,1.31,7.15,2.89,7.49,7.08,13.52,1.16-1.56,1.07-2.68,2-3.26,2.97,2.17,6.12,4.69,9.63,5.82,1.92,4.16-.06,8.22-4.18,10.49-.52.29-1.41.27-1.27,1.23s.9,1.02,1.32,1.45c1.82,1.9,3.09,4.12,2.64,6.72l-10.22,58.72c-1.37,7.85-2.96,15.66-2.45,23.25-2.29,1.28-2.94,3.11-3.23,5.33l-2.57,19.41-4.22,23.57-2.13,8.14c-4.23-1.37-7.5-4.61-10.75-7.98-5.7-5.91-11.48-11.43-15.47-18.11l5.09-31.37c.15-.96,1.02-2,.91-2.83s-.36-1.94-2.16-2.27l-5.85,26.75c-.3,1.38-.43,2.72-2.06,2.92-7.05-14.58-13.67-27.67-10.19-44.4l14.74-70.92,12.04-57.53c1.04-4.96-10.64-24.14-11.21-38.73-.54-13.75-1.34-27.26.15-40.67,2.94-26.4,7.59-52.01,15.28-77.08,3.13-10.2,8.25-19.05,16.44-25.56l3.96-10.89c1.44-3.97,6.18-6.02,9.2-8.74-.62-2.16.13-4.04.65-5.84,4.26-14.85,8.12-29.45,13.47-44l1.58-12.65,5.38-17.38c5.69-15.38,14-29.17,23.47-41.88.59.35,1.5-.14,1.4-.37-.15-.35.82.32-.1,2.01l13.95-10.32,8.86-5.94c2.58-1.73,4.5-3.35,7.93-4.13l.02,42.55ZM139.96,232.02c-3.19-2.06-5.89-2.98-9.32-3.74,2.09,3.17,5.97,3.48,9.32,3.74ZM142.86,260.84c-2.14-12.97,7.25-24.08-.62-26.06-2.25,5.86-2.65,11.83-3.55,17.81l-1.28,8.54c1.97-.88,3.22-.67,5.44-.28ZM118.89,309.01c3.21-3.65,4.07-7.65,2.82-12.21-2.62,1.62-4.99,3.44-6.57,6.19-1.23,2.14.81,5.66,3.75,6.02ZM108.44,397.59l-1.69-8.5c.48-2.89,1.29-7.18-.53-9.89s-1.85-6.12-1.75-8.98c-.01-.2-.21-.76-.81-1.1.28-10.23.16-20.27-1-30.73-3.01-.48-2.64,2.76-3.63,4.02-3.71,4.73-6.05,12.33-7.19,19.5l-7.43,46.87c-.19,1.22-1.54,2.76-.91,3.25.97.77,2.27.82,3.2.78,1.95-.07,4.38.45,5.83,2.44-2.64,3.49-6.56,4.83-10.55,6.27.02,1.96,1.71,2.57,1.92,3.49l1.56,1.87c.2,12.59,6.58,21.85,5.6,34.26,8.28-5.71,18.33-5.86,12.4-8.41.62-.9,1.69-.94,2.46-1.21.34.24.73.3,1.07.11.06,2.29-.12,4.43.74,6.77-3.03.77-4.14,3.23-4.96,6.24,1.44.81,3.05,1.19,4.24.97,1.69-6.11,1.91-11.6,1.98-17.29l.13-10.93c.15-13.23,1.56-26.22-.51-38.81l1.71-.65c-.2,1.91-.22,3.29.41,4.39.81-.61.6-1.75.58-2.1-.03-.48,1.26-.83,2.12.25l4.13-42.64.96-6.54c.86-.07.89-.76.8-1.58l-.13-15.69c-.01-1.28,2.26-1.84,3.17-1.71-1.24-3.52-6.31-3.94-8.52-1.21-.5.98.58,3.57-1.6,4.56-.16-1.77-2.72-3.33-4.12-2.2l.74,24.35c.23,7.6,1.59,14.61.41,22.02-1.59,9.98,1.29,14.69-.83,17.77ZM91.36,489.01c-.37.15-.8.26-.76.86.26,4.06.02,8.89,4.34,11.87.98-1.38.64-4.32.13-5.64l-1.08-.95c-.4-.35-.3-1.25-.16-1.94l1.72-5c1.74-5.9,2.47-12.19,2.35-18.85-5.4,4.27-6.17,12.86-6.54,19.66ZM89.53,495.13l-3.55,19.38c-.54,2.94-.22,6.11.79,9.18,2.43-11.87,9.83-18.4,2.76-28.56ZM82.96,531.35c-1.69,4.68-2.5,10.02-2.1,15.02,3.7.71,2.66-7.31,5.04-11.83.77-1.46.5-1.91.09-3.17-.59-1.81-.27-4.57-1.94-6.31-1.68,2.5-.47,4.56-1.09,6.29Z"/>
    <path class="cls-9" d="M295.07,693.09l-19.13,4.93-1.2-3.27-2.35-12.93-5.15-22.22-13.71-63.05-11.81-54.34-10.63-51.49c-4.3-20.83-7.43-41.05-13.06-61.43-.2-.72.3-2.04-.1-2.14l-1.63-.43-2.06-16.37c-.54-4.31-.77-9.04-5.3-11.74l3.2,27.32,4.12,44.3,4.92,54.99c2.78,31.06,6.9,60.97,11.32,91.79l8.72,60.83c4.92,1.71,2.45,7.48,4.23,13.19-.1.72-.72,1.14-1.74,1.28l-28.86,3.99c-2.77.38-5.84-1.68-8.58.65-1.12.95-4.27.53-5.75.47-.1-2-2.45-2.42-3.5-3.8-7.17-2.9-10.86-8.41-13.3-16.19l3.16-51.37,3.32-62.06,4.78-85.5c.22-3.91.37-6.9-.11-10.85-.73-6,1.52-12.7-.71-18.22-1.23-3.06-1.62-6.32,1.28-9.15-1.22-.66-2.16-.63-3.24-.48.02-.62.76-1.02,1.85-.97-.68-9.07-.77-17.58-.25-27.08-2.01,1.98-2.84,5.04-2.9,7.57-.41.25-1.81-.16-1.72-.81l2.31-16.26c10.3-4.25,7.73-15.2,6-26.65l17.06-1.95c4.61-.53,9.55-1.88,12.88-4.6-.22,1.25-.72,2.01-.38,3.27,4.34,15.77,6.74,31.29,10.14,47.39l40.71,193.01,17.17,80.37Z"/>
    <path class="cls-7" d="M188.88,375.13c2.62.88,5.84.78,8.61.47,1.73,11.45,4.3,22.4-6,26.65l-2.31,16.26c-.09.65,1.31,1.06,1.72.81-.1,4.17-.76,8.08-1.38,12.47l-4.5,31.82c-1.05-.26-1.78-.95-2.15-2.46l-7.24,44.84-4.49,21.6-2.97,17.01-8.02,41.21-10.91,52.54-12.57,50.86c-.95,3.86-2.64,7.14-2.55,10.83-8.19-1.75-16.7-3.95-23.89-8.12-1.64-2.05-.64-4.43-.22-6.8l4.29-23.88,16.44-81.05,7.95-38.11c.79-3.78.17-8.9,2.33-11.78,1.82-2.43,2.46-4.84,3.16-8.43l4.75-24.57,2.25-20.58c.51-1.04,1.37-2.3,1.62-4.06l5.41-39.12,8.46-60.2c.13-.94.08-2.27.99-2.75.63-.33,5.22,1.97,4.71.24-.23-.78-.34-.73-.79-1.5l17.29,5.78ZM186.06,441.59c1.33-2.86,1.82-5.57,1.02-9.79-1.07,3.01-1.94,6.01-1.02,9.79ZM183.33,456.09c2.2-1.89,2.02-4.41,1.09-6.49l-1.09,6.49Z"/>
    <path class="cls-10" d="M339.15,667.01l-15.81,14.58c-1.14,1.05-2.15.85-2.92,1.16l-37.79-163.25-17.19-73.13-16.58-68.79c-1.23-5.12-2.33-8.63-7.63-10.57-4.96-1.82-9.8-1.23-13.81,2.04-3.33,2.72-8.27,4.07-12.88,4.6l-17.06,1.95c-2.77.32-5.99.41-8.61-.47l-1.47-2.18c-.41-.57.68-1.43.94-1.89l13.4-1.79,10.33-2.2c11.43-2.44,21.6-10.21,29.97-19.22l16.35-17.62c1.94-1.72,8.17,1.46,9.28,3.81,1.68,3.58,2.73,7.34,3.61,11.38l18.52,85.5,34.72,166.15,14.63,69.95Z"/>
    <path class="cls-2" d="M320.42,682.75l-25.35,10.34-17.17-80.37-40.71-193.01c-3.4-16.1-5.8-31.62-10.14-47.39-.35-1.26.15-2.02.38-3.27,4.01-3.28,8.85-3.87,13.81-2.04,5.29,1.94,6.39,5.45,7.63,10.57l16.58,68.79,17.19,73.13,37.79,163.25Z"/>
    <path class="cls-10" d="M264.93,234.21l5.38,12.04-5.67,9.35c-1.5,2.48-5.64,4.37-5.44,7.97.71,13.39.9,26.51-1.92,39.52-3.15,14.52-8.71,27.68-16.02,40.03-2.42-1.3-2.74.42-3.8.95.96-2.54,3.44-4.96,2.83-8.49.04-1.51,1.98-2.45,3.26-3.84l-3.81-11.43c-3.1-9.3-15.55-5.16-27.09-11.85,1.07-.22,2.65-.06,3.52-1.24l3.73.22,1.26-12.36c-3.56-2.12-6.26-1.9-9.28-1.33-6.17,1.16-12.79,3.18-19.45,2.19l-6.85-2.32-6.41-2.94c-1.35-.62-1.91-2.26-1.68-3.1,1.31-4.79,9.85,2.55,12.36,3.7.32.15.9.9,1.19.74l1.25-.69c.12.51-.12.72-.43.91-1.47.89,2.32,3.39,9.98-.42,2.3-1.15,4.8-1.35,6.43-3.71,2.75-3.99,1.03-15.21-2.76-12.91-.46,3.01.66,6.1,1.55,8.71-.69,2.15-1.34,2.67-3.34,3.4.05-.84.1-1.8-.34-2.49-.62-.98-1.73-1.11-2.81-.61.21-1.7-.19-3.36-.92-4.83-2.01-4.03-2.39-8.52-2.71-13.43l-.44-6.64c-.07-1.08.04-2.32-.99-2.47-.04-.13.02-.3.06-.43.3-.76-.44-1.35-.85-1.82.77-.11,1.37-.79.84-2.42,2.83.9,3.28,3.46,3.61,6.4.43,3.79,1.66,7.18,1.72,10.98.02,1.09.85,2.48,1.8,2.64,4.19.68,2.79-13.16.56-21.14,1.62.04,3.22,1.15,4.43,1.85l5.6,19.92c1.43,5.21,3.28,9.52,1.66,15.17,7.18,1.54,12.63,4.44,19.71,7.11,2.02-15.72.85-31.19-.67-46.98-1.45-1.37-3.58-3.24-5.12-3.41l-.35-6.66c-4.23-1.07-8.14-2.02-11.93-1.69l-9.49.84c-3.08.27-5.43,2.02-6.07,4.49-.74,2.88-1.11,4.96,1.3,7.06-2.22-2.03-3.85-3.09-7.05-2.5.42-1.05.67-3.17-.38-4.18-1.85-1.78-4.82-2.92-6.87-1.74l-2.24-1.16c.06-.44-.15-1.19-.51-1.14l-1.95.29c-.56.08-.52-1.46-.14-1.61,10.61.32,21.03-1.39,31.33-2.24l15.65-1.29c.66-6.49-2.27-13.19-7.43-12.27-.58-2.5,2.24-3.78,2.63-5.07,1.06-3.45-1.75-6.19-2.62-9.19-5.94-20.63-13.59-40.27-24.81-58.62l-7.01-10.03c.3-2.3,1.62-5.63.71-7.26-1.62-2.18-1.01-3.95.05-6.16,4.34.81,8.22,3.35,12.13,6.13,8.14,5.79,15.58,11.67,22.38,19.49,12.51,14.39,21.01,31.27,27.78,49.24l1.16,12.71c2.53,6.13,5.75,11.68,7.11,18.08.43,2,2.12,2.73,2.67,3.97Z"/>
    <path class="cls-10" d="M346.54,659.93l-6.19-22.69c-1.2-4.44-1.44-8.8-2.31-12.79,1.34-.82,2.02-2.43,1.92-4.16l-3.07-52.51-4.66-68.77-.68-10.81-10.23-95.9-11.86-110.64c-.58-5.43-1.11-10.08-3.53-13.99-2.08-6.22,1.7-9.4-.77-12.07-3.07-3.33-3.11-7.29-.32-10.97-.2-.18-.2-.56.1-1.15,6.86,4.49,8.55,4.94,10.67,12.68l1.71,6.26,5.86,47.29,8.44,70.25,5.99,54.03c6.34,57.13,12.9,113.68,20.88,170.59l3.31,31.38c.56,5.27-10.73,21.53-15.28,23.95Z"/>
    <path class="cls-1" d="M285.85,238.11c-4.93,4.42-7.82,10.15-10.3,16.06-3.27,7.81-6.97,16.63-5.42,25.69l4.47,26.13,18.91,100.94,11.97,61.67,14.35,72.37,10.92,50.11,7.29,33.36c.87,3.99,1.11,8.35,2.31,12.79l6.19,22.69c-3.09,1.65-4.9,4.79-7.39,7.08l-14.63-69.95-34.72-166.15-18.52-85.5c-.87-4.04-1.93-7.8-3.61-11.38-1.11-2.35-7.33-5.53-9.28-3.81l-16.35,17.62c-8.37,9.02-18.53,16.79-29.97,19.22,7.89-3.8,15.58-8.41,20.79-15.53,1.71-2.33,3.5-4.61,4.58-7.46,1.07-.53,1.38-2.24,3.8-.95,7.31-12.35,12.87-25.52,16.02-40.03,2.82-13.01,2.62-26.13,1.92-39.52-.19-3.6,3.94-5.49,5.44-7.97l5.67-9.35-5.38-12.04c4.79,1.13,9.41,1.99,14.39,2.82l6.53,1.09Z"/>
    <path class="cls-9" d="M141.03,530.3c-2.16,2.88-1.54,8.01-2.33,11.78l-7.95,38.11-16.44,81.05-4.29,23.88c-.43,2.37-1.42,4.75.22,6.8l-19.41-11.23c-.9-.52-2.21-.51-2.15-1.75l.1-2.01,2.13-8.14,4.22-23.57c.98.12,1.84.39,2.64.4l3.1-16.81,13.6-65.86c1.83-8.85,5.63-19.26,3.13-23.91.41.2.92-.23.96-.87,1.22,1.09,4.78,1.02,6.12.08l9.21-6.42c1.72-1.2,4.73-1.66,7.14-1.53Z"/>
    <path class="cls-7" d="M304.95,243.49c-.31.59-.3.96-.1,1.15l-3.46-.87c-3.54,2.1-4.61,6.05-5.84,9.66l7.93,2.44c.19,1.09.12,2.21.97,3.02l.72-3.28c2.46,2.67-1.31,5.86.77,12.07-2.11,1.08-3.4-1.31-5.37-2.18-14.09,1.71-22.55,15.83-18.03,29.21l9.49,55.87,10.48,62.56,6.89,43.98,6.88,32.79,1.32,9.22,1.6,8.3c1.8,9.32,2.88,19.23,6.05,28.05-2,1.71-3.04,3.46-1.7,5.52-.69-.24-1.52.01-2.05-.02s-.62-2.03-.6-2.71c-1.26.59-.74,1.85-1.06,2.72l-14.35-72.37-11.97-61.67-18.91-100.94-4.47-26.13c-1.55-9.07,2.15-17.88,5.42-25.69-.05,1.75.99,3.08,2.23,2.99,4.71-.32,1.82-7.61,10.24-11.23l10.14-4.75c2.54.63,4.71.95,6.78,2.31Z"/>
    <path class="cls-2" d="M191.69,124.6c-1.05,2.21-1.66,3.98-.05,6.16.9,1.63-.41,4.96-.71,7.26l7.01,10.03c11.22,18.35,18.88,38,24.81,58.62.86,2.99,3.68,5.74,2.62,9.19-.4,1.29-3.21,2.57-2.63,5.07,5.16-.92,8.09,5.78,7.43,12.27l-15.65,1.29-.49-11.02-24.99,1.51c-3.39.2-6.36.88-9.28.06-1.61-.45-3.87.45-6.26-1,2.04-2.61,5.79-4.07,8.93-3.89l7.46.44c7.27.43,2.45-21.45.47-31.23-1.26-6.22-1.67-12.58-4.83-17.81l-.02-42.55c-.88.29-.85-.74-.43-.81.98-1.53.45-3.38.46-5.08,1.92-.72,5.17-.44,6.16,1.49ZM200.34,218.28c2.9,2.13,8.54,1.47,11.21-.36-3.53-17.41-8.13-33.55-14.49-49.34-1.04-2.58-1.89-4.88-4.15-6.83l-.94,11.36c-.53,6.41.3,12.72,1.87,19.04l6.5,26.14Z"/>
    <path class="cls-9" d="M185.03,463.61l-6.17,44.26-5.29,38.62c-.25,1.86-1.6,2.59-1.92,4.07l-19.73,91.85-3.45,13.66c-.81,3.21-1.72,6.32-1.4,9.48l-4.09,12.13c-.83,2.47-1.24,4.68.37,6.8l-2.68,5.56c-1.91,3.96-1.95,7.94-.06,11.4l-6.49-1.39c-.09-3.69,1.59-6.97,2.55-10.83l12.57-50.86,10.91-52.54,8.02-41.21,2.97-17.01,4.49-21.6,7.24-44.84c.38,1.51,1.1,2.21,2.15,2.46Z"/>
    <path class="cls-2" d="M158.03,686.04l1.71,6.23c.25.92,1.67.94,2.14,1.28,4.58,3.36,11.91,3.13,17.7,4.16l6.97,1.24c.8,1.08,2.64.33,2.83,3.28l-30.71.51-18.05-1.32c-1.89-3.46-1.85-7.44.06-11.4l2.68-5.56,13.46-34.32c5.86,2.11-.42,11.72,2.47,20.04-1.35,5.04-3.09,10.59-1.26,15.84Z"/>
    <path class="cls-1" d="M246.85,691.27l1.66.47c.57.15-.18,1.2-.75,1.58-4.5,2.44-9.21,1.73-12.56,3.69-1.75-.31-5.21.71-5.94,1.71-.48.66-.15,1.43.03,1.95.16.48.2,1,0,1.26-.34.44-1.03.33-1.7.35l-33.92,1.21-1.19-4.66-5.91.11-6.97-1.24c-5.79-1.03-13.11-.8-17.7-4.16l18.1,2.97,20.54.89c1.48.06,4.63.48,5.75-.47,2.74-2.33,5.81-.27,8.58-.65l28.86-3.99c1.01-.14,1.63-.56,1.74-1.28.48.48.83.45,1.4.25Z"/>
    <path class="cls-2" d="M272.39,681.81l2.35,12.93,1.2,3.27-20.46,2.28c-1.4-.78-1.61-2.51-2.76-3.46l-4.05-3.32c6.16-1.14,11.41-3.65,16.3-8,2.23-1.99,4.7-3.99,7.42-3.7Z"/>
    <path class="cls-9" d="M185.08,128.2c-.41.07-.45,1.11.43.81-3.43.78-5.35,2.4-7.93,4.13l-8.86,5.94-13.95,10.32c.93-1.68-.04-2.35.1-2.01.1.23-.81.71-1.4.37,4.16-5.59,8.66-10.73,14.41-15.29,2.51-1.99,4.37-4.63,7.13-5.84-.71,3.44,4.91-3.23,10.07,1.57Z"/>
    <path class="cls-3" d="M298.17,241.18l-10.14,4.75c-8.42,3.62-5.54,10.91-10.24,11.23-1.24.08-2.28-1.24-2.23-2.99,2.48-5.92,5.37-11.64,10.3-16.06l12.31,3.07Z"/>
    <path class="cls-9" d="M62.56,650.85l-4.06-6.8c1.63-.2,1.76-1.54,2.06-2.92l5.85-26.75c1.8.33,2.05,1.45,2.16,2.27s-.76,1.87-.91,2.83l-5.09,31.37Z"/>
    <path class="cls-3" d="M248.68,693.52l4.05,3.32c1.15.95,1.36,2.67,2.76,3.46l-17.42.75c-.3-1.83-1.12-3.48-2.87-4.03,3.35-1.96,8.06-1.25,12.56-3.69l.92.2Z"/>
    <path class="cls-7" d="M235.19,697.02c1.76.56,2.57,2.2,2.87,4.03-2.85.12-6.12,1.33-8.79-.37-.18-.53-.51-1.3-.03-1.95.74-1.01,4.2-2.02,5.94-1.71Z"/>
    <path class="cls-7" d="M185.53,123.12c0,1.7.52,3.56-.46,5.08-5.16-4.79-10.78,1.87-10.07-1.57l8.16-3.6c1.12-.49,1.66-.38,2.36.08Z"/>
    <path class="cls-2" d="M146.1,282.26l-2.83-1.84c-.67-.56-3.51-1.05-3.38.28.87,9.22,1.79,17.88,1.96,27.01l1,9.13-3.83,13.36,2.5,1.51c5.98,3.6-3.79,7.49-3.59,12,2.03,1.48-.37,3.95-.18,5.28.87,6.23.07,11.3-.5,17.23l-6.7,69.5-2.66,32.17c-.24,2.86-.41,5.47-1.13,7.94-1.66.62-3.51.9-5.05,1.9,1.26-2.05,1.93-4.35,2.19-7.05l3.89-40.45.96-16.93,2.55-31.93.71-20.53.87-14.5c-1.97-1.41-3.71-2.47-5.55-1.64-.24-2.83,7.46-4.76,7.59-9.61-1.18-2.24-5.17-2.5-7.15-2.75.08-.95.8-1.27,1.32-1.47,2.17-1.88,6.17-3.53,7.3-6.61,2.29-6.24,1.83-12.55,1.56-18.87-.38-8.95.48-19.01-4.43-18.99.74-5.83,2.32-11.5,1.88-17.98-.09-1.29,1.46-4.11,2.43-3.04,4.46,4.91,6.02,11.35,8.29,16.9Z"/>
    <path class="cls-9" d="M121.69,477.73c-1.44.94-2.17,2.86-4.34,2.69-3.14-.97-7.31-.89-9.91-4.69l10.02-5.6c2.89-12.52,2.82-24.81,3.89-37.52l4.77-56.69c.91-10.79,2.06-20.83,1.19-31.21,1.84-.83,3.58.23,5.55,1.64l-.87,14.5-.71,20.53-2.55,31.93-.96,16.93-3.89,40.45c-.26,2.7-.92,5-2.19,7.05Z"/>
    <path class="cls-1" d="M146.97,337.12c-.5,5.37-2.93,9.16,1.45,11.02-.09.71-.16,1-.71,1.49.05-.5-.95-.52-1.07.14-2.07,11.57-2.5,22.55-3.41,34.36l-5.92,76.18c-.42,5.34-1.7,10.02-1.13,14.94-1.25-.21-1.34.39-1.53.43-.62.02-.59.73-.7,1.18l-2.4-.1c-.42.23-1,.93-1.52.47,2.72-11.04,2.27-21.49,2.63-32.41l3.45-19,3.8-43.36c.63-7.2,1.13-18.8,1.13-18.8-.3-.53-1.32-1.19-2.35-1.87,1.48-6.46,1.86-13.3.81-19.51-.43.97-.58,1.46-1.58,1.43-.2-4.51,9.57-8.4,3.59-12-.01-.8-.37-.84-.57-1-.36-.3.56-1.28,1.59-.59,3.63-3.97.9-10.34,4.01-14.1.55-.23,2.4-.23,2.31.81l-1.88,20.3Z"/>
    <path class="cls-2" d="M104.47,370.21c-.47-.11-.87-.04-1.12.14-.64.46-.49,1.4-.6,2.25l-4.76,37.52c-.51.57-2.14,1.42-1.93,2.32.53,2.25,3.85,3.03,3.48,5.67s-3.87,3.4-5.73,5.91c3.39,2.19,5.28,5.17,6.4,8.73l4.34,13.89c-3.09,1.02-5.29-.58-6.38-3.67l-6.48-18.42c-3.05.91-5.6,1.88-7.79.46-.21-.91-1.89-1.53-1.92-3.49,3.99-1.44,7.92-2.78,10.55-6.27-1.45-1.99-3.88-2.52-5.83-2.44-.02-.22-.11-.87-.05-1.16.06-.25,1.05.16,1.44-.03l6.48-3.18c1.38-19.43,3.35-38.55,6.73-57.88.6-3.42,0-6.05-2.28-8.15.99-1.26.62-4.5,3.63-4.02,1.15,10.45,1.28,20.5,1,30.73.61.34.8.9.81,1.1Z"/>
    <path class="cls-9" d="M86.71,412.81c-.94.04-2.23-.01-3.2-.78-.63-.5.71-2.03.91-3.25l7.43-46.87c1.14-7.17,3.48-14.77,7.19-19.5,2.28,2.1,2.87,4.73,2.28,8.15-3.38,19.33-5.35,38.45-6.73,57.88l-6.48,3.18c-.39.19-1.38-.22-1.44.03-.06.29.03.95.05,1.16Z"/>
    <path class="cls-10" d="M131.55,476.76l-4.1,5.21c-.39-2.08-1.26-4.21-.7-6.14.72-2.47.9-5.08,1.13-7.94l2.66-32.17,6.7-69.5c.57-5.93,1.37-11,.5-17.23-.19-1.33,2.21-3.81.18-5.28,1,.02,1.15-.46,1.58-1.43,1.05,6.21.67,13.05-.81,19.51,1.03.67,2.05,1.34,2.35,1.87,0,0-.5,11.6-1.13,18.8l-3.8,43.36-3.45,19c-.36,10.91.08,21.37-2.63,32.41.52.46,1.1-.24,1.52-.47Z"/>
    <path class="cls-2" d="M117.59,539.04c2.5,4.65-1.3,15.06-3.13,23.91l-13.6,65.86-3.1,16.81c-.8,0-1.66-.28-2.64-.4l2.57-19.41c.29-2.22.94-4.04,3.23-5.33-.51-7.59,1.09-15.4,2.45-23.25l10.22-58.72c1.44-.67,2.74-.11,3.99.52Z"/>
    <path class="cls-9" d="M118.52,351.28c.7-4.74-4.3-11.41-8.14-16.66l1.57,10.16c.75,4.85,2.93,9.51,5.61,13.04l-4.13,42.64c-.87-1.07-2.15-.72-2.12-.25.02.35.23,1.49-.58,2.1-.63-1.1-.62-2.48-.41-4.39l-1.71.65-.16-.99c2.12-3.07-.76-7.79.83-17.77,1.18-7.41-.18-14.42-.41-22.02l-.74-24.35c1.4-1.12,3.96.44,4.12,2.2,2.18-1,1.1-3.58,1.6-4.56,2.22-2.73,7.29-2.31,8.52,1.21-.9-.14-3.18.43-3.17,1.71l.13,15.69c.09.82.06,1.51-.8,1.58Z"/>
    <path class="cls-10" d="M104.47,370.21c-.1,2.87-.11,6.23,1.75,8.98s1.01,7,.53,9.89c-1.1,6.67-.09,13.81.38,21.5-1.9.88-4.13,1.86-4.72,3.36.43,5.6,2.2,10.19,3.69,15.24l2.17,16.08c.25,1.86-1.33,4.37-1.28,6.36-.33.19-.73.14-1.07-.11.75-1.94-.85-3.21-1.37-4.88l-4.34-13.89c-1.11-3.57-3.01-6.54-6.4-8.73,1.86-2.5,5.34-3.15,5.73-5.91s-2.94-3.42-3.48-5.67c-.21-.9,1.42-1.75,1.93-2.32l4.76-37.52c.11-.84-.04-1.79.6-2.25.25-.18.65-.25,1.12-.14Z"/>
    <path class="cls-9" d="M214.52,234.5c-10.3.85-20.73,2.56-31.33,2.24-1.89.07-3.52-.56-5.21-1.31.93-3.35-1.07-5.31-4.04-7.81l4.61.13c.73.02,1.97-.86,2.17-1.47.13-.39-.87-.94-.96-1.23,2.92.82,5.89.15,9.28-.06l24.99-1.51.49,11.02Z"/>
    <path class="cls-9" d="M152.29,307.61c.77,3.3,3.8,6.84,7.13,5.23-.43,1.4.62,1.59,1.34,1.49,5.39-.71,7.23-4.52,8.86-2.59-.45,4.47,5.24,8.77,10.43,9.86.17,1.96-1.86,4.35-4.09,3.52l-7.69-2.84-4.09,7.43c-.25.46-1.43.98-1.84.93-1.43-.19-.81-4.26-1.68-4.62-2.54-1.07-6.36,10.3-6.2,17.91-2.55.2-.01,2.06.51,2.49-3.59-1.33-4.48-4.09-4.45-7.45.06-6.51,3.75-13.65,2.82-20.43-1.08-4.83-3.81-9.75-4.82-14.73,3.12,2.39,2.94,8.4,3.78,3.82Z"/>
    <path class="cls-9" d="M104.55,446.64c.52,1.67,2.12,2.94,1.37,4.88-.78.27-1.84.31-2.46,1.21,5.93,2.55-4.11,2.71-12.4,8.41.98-12.41-5.4-21.67-5.6-34.26l-1.56-1.87c2.18,1.42,4.73.45,7.79-.46l6.48,18.42c1.09,3.09,3.29,4.69,6.38,3.67Z"/>
    <path class="cls-9" d="M182.42,220.17c2.16-13.4,2.91-30.88,2.36-45.24l.74-3.36c3.16,5.23,3.57,11.59,4.83,17.81,1.98,9.78,6.8,31.66-.47,31.23l-7.46-.44Z"/>
    <path class="cls-9" d="M211.87,293.77l-1.67,11.03c-4.06-1.43-9.05-.58-13.82-.43l-16.94.56-7.31,2.37c-2.57-1.04-4.8,1.16-7.93.95,4.46-2.3,9.56-4.87,14.98-5.22,5.1-.32,6.97-4.6,6.39-9.4l6.85,2.32c6.65,1,13.28-1.02,19.45-2.19Z"/>
    <path class="cls-9" d="M129.07,330.86c-.02-.82.56-1.52,1.49-2.04-.65-1.61-1.91-4.06-1.48-6.31,2.33-12.27,2.9-24.28,4.42-36.13,4.92-.01,4.06,10.04,4.43,18.99.27,6.32.73,12.64-1.56,18.87-1.13,3.08-5.13,4.73-7.3,6.61Z"/>
    <path class="cls-1" d="M108.44,397.59l.16.99c2.07,12.59.66,25.58.51,38.81l-.13,10.93c-.07,5.69-.29,11.18-1.98,17.29-1.19.22-2.8-.16-4.24-.97.82-3.01,1.93-5.47,4.96-6.24-.85-2.34-.67-4.48-.74-6.77-.06-1.99,1.53-4.5,1.28-6.36l-2.17-16.08c-1.48-5.05-3.26-9.64-3.69-15.24.59-1.49,2.81-2.47,4.72-3.36-.46-7.69-1.48-14.83-.38-21.5l1.69,8.5Z"/>
    <path class="cls-1" d="M210.2,304.79l5.96,2.44c-.87,1.17-2.45,1.02-3.52,1.24l-6.27,1.27c-7.86-1.28-16.03-1.43-24.07-.37l-9.66.27-3.02,2.11c-1.64-1.94-3.48,1.87-8.86,2.59-.72.1-1.77-.09-1.34-1.49.26-1.28,1.37-1.15,2.48-1.58l10.24-3.96,7.31-2.37,16.94-.56c4.78-.16,9.76-1,13.82.43Z"/>
    <path class="cls-9" d="M134.5,491.31c.52-.22,1.97.15,2.06.71.14.84-.38,2.27-.85,2.91-.77-.44-1.23-.8-2.05-.87s-1.38.28-1.7,1.08c-.13-.38-.55-1.88-1.16-2.29l-14.52.1c-1.39,0-2.65-.81-3.15-1.52-.71-1.01-1.23-2.7-.18-3.94,4.67,1.31,11.06,1.33,14.69-2.31,1.56-1.56,2.02-4.05,5.24-3.77l1.06-4.54c.11-.46.08-1.16.7-1.18,2.23,1.14,3.46,3.95,3.73,6.48.38,3.56-4.93,6.28-5.21,8.14-.16,1.09.65,1.29,1.33,1.01Z"/>
    <path class="cls-6" d="M135.71,494.93c-2.08,2.82-2.11,6.98-1.84,10.08-1.3,1.18-3.46,2.9-1.88,5.45l-2.76,1.66-2.55,1.01c-3.63-3.45-10.53-.36-15.19-4.02,5.02.26,9.96,1.92,12.09-2.07,3.2-.52,4.69-2.97,4.05-4.38-.76-1.66-3.68-.92-4.7-1.9-.42-.39-.25-1.32-.16-1.72,1.65-2.35,4.64-3.19,7.77-1.88.76-.71,1.21-1.44,1.44-2.03.31-.8.89-1.15,1.7-1.08s1.28.43,2.05.87Z"/>
    <path class="cls-3" d="M114.17,506.54c2.59-.73,6.93-.42,9.4.49-2.12,3.99-7.07,2.34-12.09,2.07,4.67,3.67,11.56.57,15.19,4.02-2.83,1.12-6.02,1.65-9.09,1.55-2.33-.08-3.85-2.18-5.94-2.96l-5.13-1.93c-.54-.2-1.16.77-1.24,1.43l-7.64-6.51c-.29-.25-.09-1.92-.43-2.07-.22-.09-.48-.09-.81-.08-.4-2.19.12-4.24,1.21-6.1l2.11,2.12c-1.16.56-2.52,1.4-.81.6,3.21,4.32,7.3,5.9,11.03,8.98,1.08.89,3.14-.87,4.24-1.61Z"/>
    <path class="cls-2" d="M142.86,260.84c-2.22-.38-3.47-.59-5.44.28l1.28-8.54c.9-5.98,1.29-11.96,3.55-17.81,7.87,1.98-1.52,13.09.62,26.06Z"/>
    <path class="cls-3" d="M182.43,244.5c-.06,3.68-3.89,2.54-5.53,7.74.09-1.66-.13-2.66-1.81-3.12-1.45-.4-2.72-.44-4.19.31.27-1.26-.19-2.94-1.19-3.92-.95-.93-2.92-2.04-4.31-1.56-.94-1.05-1.03-1.52-.76-2.82.22-1.07.65-1.24,1.39-2.25,6.09.02,11.22,2.77,16.39,5.63Z"/>
    <path class="cls-2" d="M176.9,252.24c-1.3,4.14-4.95,6.72-8.88,7.15-4.57.5-9.23-1.07-11.6-4.74l7.62-.07c3.36-.03,6.1-1.66,6.86-5.15,1.47-.74,2.74-.7,4.19-.31,1.68.46,1.89,1.45,1.81,3.12Z"/>
    <path class="cls-9" d="M122.75,499.04c-.09.4-.26,1.33.16,1.72,1.03.97,3.95.24,4.7,1.9.64,1.41-.85,3.86-4.05,4.38-2.46-.92-6.81-1.22-9.4-.49.05-.64-.03-1.15-.35-1.5-.23-.26-.57-.41-.92-.42-1.25-2.91-1.36-3.26-.67-4.97,1.14-2.82,5.44-1.9,10.52-.61Z"/>
    <path class="cls-9" d="M192.11,256.18c0,2.58,1.34,4.72,2.48,7.16-.78,4.54.56,9.45.74,14.07l.25,6.52c-.82.52-1.58,1.53-2.71,1.64.35-.56.65-1.39.26-1.9l-1.08-1.43c-1.56-5.42-1.29-11.42-1.58-17.03l-.51-9.88c.68.42,1.3.9,2.14.85Z"/>
    <path class="cls-2" d="M89.53,495.13c7.07,10.16-.33,16.69-2.76,28.56-1.01-3.07-1.33-6.24-.79-9.18l3.55-19.38Z"/>
    <path class="cls-2" d="M118.52,351.28l-.96,6.54c-2.68-3.53-4.86-8.19-5.61-13.04l-1.57-10.16c3.85,5.26,8.84,11.93,8.14,16.66Z"/>
    <path class="cls-9" d="M118.42,519.7c2.97,2.2,5.1,6.59,3.32,10.49-4.24,1.69-6.21.85-7.28,1.3-.89-.72-2.72-.58-3.54-2.37,4.12-2.27,6.11-6.32,4.18-10.49l3.32,1.07Z"/>
    <path class="cls-2" d="M95.55,488.21c-1.54-.18-2.83.26-4.19.81.37-6.79,1.14-15.38,6.54-19.66.12,6.66-.62,12.95-2.35,18.85Z"/>
    <path class="cls-2" d="M195.28,246.28c-1.01,2.5-.59,5.84-.55,8.34.41.47,1.15,1.06.85,1.82-1.27-.43-1.17-1.71-1.62,0-.62.32-1.24-.14-1.85-.27-.84.05-1.46-.43-2.14-.85l.47-9.86-2.41-5.12c2.04-1.18,5.02-.04,6.87,1.74,1.05,1.01.8,3.13.38,4.18Z"/>
    <path class="cls-8" d="M183.18,236.74c-.38.15-.41,1.69.14,1.61l1.95-.29c.36-.05.57.7.51,1.14-1.16-.4-3.26-.39-3.29,1.31l-.07,3.99c-5.17-2.86-10.3-5.6-16.39-5.63-1.56,0-3.24.65-4.19-1.59l14.12-.63c.96-.04,1.72-.58,2-1.22,1.69.75,3.33,1.38,5.21,1.31Z"/>
    <path class="cls-2" d="M117.58,514.68c0,1.01,1.23,2.78,2.23,3l-1.4,2.02-3.32-1.07c-3.51-1.13-6.67-3.65-9.63-5.82-.23-.42-.46-1.09-.21-1.6.08-.67.7-1.64,1.24-1.43l5.13,1.93c2.1.79,3.62,2.89,5.94,2.96Z"/>
    <path class="cls-3" d="M146.1,282.26c1.28,3.13,1.72,6.22,2.5,9.54l3.7,15.81c-.84,4.58-.66-1.43-3.78-3.82l-3.86-18.95c-.32-1.58-1.82-2.89-1.39-4.42l2.83,1.84Z"/>
    <path class="cls-10" d="M118.89,309.01c-2.94-.36-4.98-3.88-3.75-6.02,1.58-2.75,3.95-4.57,6.57-6.19,1.24,4.55.38,8.55-2.82,12.21Z"/>
    <path class="cls-7" d="M170.9,249.42c-.76,3.5-3.5,5.13-6.86,5.15-1.71-.76-3.49-2.32-3.54-4.22,1.29,1.49,3.21,2.07,5.2,1.6,1.68-.4,2.8-2.6,1.44-4.68s-5.3-1.17-6.7.55c-.05-2.24,2.98-3.21,4.95-3.88,1.4-.48,3.37.63,4.31,1.56,1,.98,1.46,2.66,1.19,3.92Z"/>
    <path class="cls-3" d="M85.99,531.37c.41,1.26.67,1.71-.09,3.17-2.37,4.53-1.34,12.54-5.04,11.83-.4-5.01.41-10.34,2.1-15.02.21,1.23.88,1.16,1.82,1.65.85.44,1.35-.43,1.21-1.63Z"/>
    <path class="cls-1" d="M105.26,511.22c-.25.5-.03,1.18.21,1.6-.93.58-.84,1.71-2,3.26-4.19-6.03-5.77-6.37-7.08-13.52.33,0,.58,0,.81.08.34.14.14,1.82.43,2.07l7.64,6.51Z"/>
    <path class="cls-10" d="M126.75,475.83c-.56,1.93.31,4.07.7,6.14-3.4,1.2-7.01-.6-10.09-1.56,2.17.17,2.9-1.75,4.34-2.69,1.54-1.01,3.39-1.28,5.05-1.9Z"/>
    <path class="cls-1" d="M160.51,250.36l-.06-2.53c1.4-1.72,5.35-2.63,6.7-.55s.24,4.28-1.44,4.68c-1.99.47-3.91-.11-5.2-1.6Z"/>
    <path class="cls-1" d="M93.84,493.2c-.14.69-.24,1.59.16,1.94l1.08.95c.51,1.32.85,4.26-.13,5.64-4.32-2.97-4.08-7.81-4.34-11.87.41-.15.8.14.86.46l.3,1.49c.12.58.46,1.52.79,1.66s.78-.05,1.28-.28Z"/>
    <path class="cls-3" d="M193.95,290.64l-1.65.71-1.25.69c-.3.16-.87-.59-1.19-.74-.65-1.31-.55-1.97,0-2.9.7-1.19,1.51-1.76,2.98-1.82-.1-.68.04-1.01.05-1,1.13-.11,1.88-1.13,2.71-1.64.04,1.12-1.37,2.06-2.4,3,1.29,1.36,1.53,2.6.76,3.71Z"/>
    <path class="cls-6" d="M112.72,532.65c2.36,1.26,3.87,3.75,5.83,5.51-.05.64-.55,1.08-.96.87-1.25-.63-2.55-1.18-3.99-.52.45-2.6-.82-4.82-2.64-6.72.82.03,1.25.58,1.76.85Z"/>
    <path class="cls-2" d="M95.55,488.21l-1.72,5c-.5.23-.94.42-1.28.28s-.68-1.08-.79-1.66l-.3-1.49c-.06-.31-.45-.6-.86-.46-.04-.6.39-.71.76-.86,1.36-.55,2.65-.99,4.19-.81Z"/>
    <path class="cls-5" d="M85.99,531.37c.14,1.19-.36,2.07-1.21,1.63-.94-.49-1.61-.42-1.82-1.65.62-1.73-.59-3.79,1.09-6.29,1.67,1.74,1.35,4.5,1.94,6.31ZM84.36,531.71c1.05-1.87.42-2.84-.02-3.36-.65,1.54-.44,2.49.02,3.36Z"/>
    <path class="cls-3" d="M139.96,232.02c-3.35-.26-7.23-.57-9.32-3.74,3.44.77,6.14,1.69,9.32,3.74Z"/>
    <path class="cls-2" d="M110.92,529.12c.82,1.8,2.65,1.66,3.54,2.37-.3.46-.95.37-1.24.25-.24-.1-.63.36-.49.9-.51-.27-.94-.83-1.76-.85-.42-.43-1.18-.47-1.32-1.45s.75-.94,1.27-1.23Z"/>
    <path class="cls-7" d="M200.52,697.42l-20.54-.89-18.1-2.97c-.47-.34-1.89-.37-2.14-1.28l-1.71-6.23c.43.11,1.88-.33,2.03-1.21l2.44-14.81,7.48-50.54,8.54-59.85c.32-2.26,1.9-4.53,1.26-6.48s-.22-3.25.12-5.1l1.18-6.53,10.62-89.22.5-12.48c1.08-.14,2.01-.17,3.24.48-2.9,2.83-2.51,6.09-1.28,9.15,2.23,5.52-.02,12.22.71,18.22.48,3.95.33,6.94.11,10.85l-4.78,85.5-3.32,62.06-3.16,51.37c2.44,7.79,6.13,13.3,13.3,16.19,1.05,1.38,3.4,1.8,3.5,3.8Z"/>
    <path class="cls-2" d="M216.3,426.71c.1.76.21,1.97-1.12,2.88,2.56,7.14,1.54,14.78,2.67,22.59l6.99,48.63,8.08,51.36c.34,2.14-.31,4.12-1.15,5.9,2.49,3.08,3.81,6.87,4.53,10.88l12.58,70.2,8.07,42.73c1.1,5.8-1.69,6.42-10.11,9.41-.57.2-.92.23-1.4-.25-1.79-5.72.69-11.48-4.23-13.19l-8.72-60.83c-4.42-30.82-8.54-60.72-11.32-91.79l-4.92-54.99-4.12-44.3-3.2-27.32c4.53,2.7,4.76,7.43,5.3,11.74l2.06,16.37Z"/>
    <path class="cls-10" d="M272.39,681.81c-2.72-.28-5.18,1.71-7.42,3.7-4.89,4.35-10.14,6.86-16.3,8l-.92-.2c.57-.38,1.33-1.43.75-1.58l-1.66-.47c8.41-2.99,11.2-3.61,10.11-9.41l-8.07-42.73-12.58-70.2c-.72-4.01-2.04-7.8-4.53-10.88.84-1.78,1.49-3.75,1.15-5.9l-8.08-51.36-6.99-48.63c-1.12-7.81-.1-15.45-2.67-22.59,1.33-.91,1.22-2.12,1.12-2.88l1.63.43c.39.1-.1,1.42.1,2.14,5.62,20.39,8.76,40.6,13.06,61.43l10.63,51.49,11.81,54.34,13.71,63.05,5.15,22.22ZM261.07,674.06c.42,1.05,3.23-1.09,3.25-1.96.03-1.18-1.11-2.12-1.35-3.34l-3.36-17.36-14.21-69.39-6.05-32.62c-2.04.97-2.5,3.43-2.13,5.42l8.6,45.84,9.19,45.65,6.05,27.75Z"/>
    <path class="cls-1" d="M192.2,439.8l-.5,12.48-10.62,89.22-1.18,6.53c.46.3.57.86.32,1.29s-.79.62-1.27.43c-.37-.32-.72-.54-.83-1.87-.65.79-1.11,1.24-1.99,1.81.25-1.85-.28-3.13-1.47-4.04-1.02,3.3-.85,5.83.56,8.41-.24.33-.21,1.48.03,1.93.29.55-1.74,1.2-1.79,1.84-.75,9.48-2.17,18.07-4.08,27.23l-7.09,33.92-9.53,31.58c-1.55,5.13-4.5,12.07-4.24,13.55.15.86-.92,1.48-1.42,1.42-.33-3.16.59-6.27,1.4-9.48l3.45-13.66,19.73-91.85c.32-1.48,1.66-2.21,1.92-4.07l5.29-38.62,6.17-44.26,4.5-31.82c.62-4.39,1.28-8.3,1.38-12.47.06-2.53.89-5.59,2.9-7.57-.53,9.51-.43,18.01.25,27.08-1.09-.05-1.83.35-1.85.97Z"/>
    <path class="cls-9" d="M163.66,365.3l7.93,4.05c.45.77.56.72.79,1.5.51,1.73-4.09-.58-4.71-.24-.91.48-.85,1.8-.99,2.75l-8.46,60.2-5.41,39.12c-.24,1.76-1.1,3.01-1.62,4.06-4.77-1.38-5.79-6.06-5.94-10.45l1.67-11.94.7-10.67c2.46-14.31,2.96-28.47,3.52-43.14l2.14-15.38c.79-5.66.41-11.78,2.47-17.03,1.38-3.51,5.31-4.13,7.91-2.8Z"/>
    <path class="cls-2" d="M145.25,466.27c.15,4.4,1.17,9.07,5.94,10.45l-2.25,20.58-4.75,24.57c-.69,3.59-1.34,6-3.16,8.43-2.41-.14-5.42.33-7.14,1.53,4.66-3.77,2.27-12.86,5.15-17.25,2.53-3.86,4.88-6.7,5.11-11.63.34-7.37,3.37-15.34,1.79-22.64-1.53-7.07-4.44-13.06-2.8-20.04,1.12,1.17,2.05,4.05,2.12,6Z"/>
    <path class="cls-8" d="M150.51,338.95c-.03,3.36.86,6.12,4.45,7.45.77.29,1.83,1.29,2.3,1.99,1.06,1.58-2.46,3.11,4.08,8.24.09,2.08,1.96,3.05,3.26,3.08,4.51.12,10.3,9.84,21.36,9.12.51.92,1.67,2.31,2.39,2.22-.26.46-1.36,1.32-.94,1.89l1.47,2.18-17.29-5.78-7.93-4.05-7.75-8.59c-1.71-3.47-3.23-6.73-8.2-7.09.54-.49.62-.78.71-1.49-4.37-1.86-1.95-5.64-1.45-11.02,1.71-.1,2.46,1.2,3.55,1.84ZM168.2,366.06c-.4-1.88-1.55-2.61-2.98-2.4.69,1.38,1.7,2.37,2.98,2.4ZM171.86,367.54c-.69-1.01-1.36-1.69-2.37-2.37-.55,1.62.75,2.93,2.37,2.37Z"/>
    <path class="cls-9" d="M186.06,441.59c-.92-3.78-.06-6.78,1.02-9.79.8,4.22.31,6.93-1.02,9.79Z"/>
    <path class="cls-9" d="M183.33,456.09l1.09-6.49c.93,2.08,1.12,4.6-1.09,6.49Z"/>
    <path class="cls-7" d="M197.61,318.7c.68.65,1.6.77,2.9.66-.41,8.16,1.41,15.61,5.25,22.9-3.7,3.67-4.44,8.28-3.89,13.21l1.37,12.42c.6.68-1.27,1-1.47,1.38l-13.4,1.79c-.72.1-1.89-1.3-2.39-2.22-11.06.72-16.85-9.01-21.36-9.12l-3.26-3.08c-6.53-5.13-3.01-6.67-4.08-8.24-.47-.7-1.53-1.7-2.3-1.99-.52-.42-3.06-2.28-.51-2.49-.15-7.61,3.66-18.97,6.2-17.91.87.37.24,4.44,1.68,4.62.41.05,1.59-.47,1.84-.93l4.09-7.43,7.69,2.84c2.23.82,4.26-1.57,4.09-3.52l5.73-2.89h11.83Z"/>
    <path class="cls-9" d="M232.88,351.53c-5.21,7.12-12.9,11.73-20.79,15.53l-10.33,2.2c.2-.38,2.07-.7,1.47-1.38l-1.37-12.42c-.54-4.93.19-9.54,3.89-13.21-3.85-7.29-5.66-14.74-5.25-22.9-1.3.11-2.22,0-2.9-.66l12.82.08,15.37-3.49c.07,3.43,1.47,6.5,2.68,9.69l4.29,11.29c1.11,2.93.59,6.28-3.24,7.76.2,2.44,1.46,5.24,3.33,7.51Z"/>
    <path class="cls-2" d="M228.86,244.73c1.54.17,3.67,2.04,5.12,3.41,1.52,15.78,2.68,31.26.67,46.98-7.08-2.67-12.54-5.57-19.71-7.11,1.62-5.65-.23-9.96-1.66-15.17l-5.6-19.92c2.7-.56,6.27-.86,8.67-2.31,4.03-2.44,7.81-5.38,12.51-5.87Z"/>
    <path class="cls-2" d="M212.65,308.47c11.54,6.69,23.99,2.55,27.09,11.85l3.81,11.43c-1.28,1.39-3.22,2.33-3.26,3.84.62,3.52-1.86,5.95-2.83,8.49-1.08,2.85-2.88,5.13-4.58,7.46-1.87-2.27-3.13-5.07-3.33-7.51,3.83-1.48,4.35-4.83,3.24-7.76l-4.29-11.29c-1.21-3.19-2.62-6.26-2.68-9.69l-15.37,3.49-12.82-.08h-11.83s-5.73,2.9-5.73,2.9c-5.19-1.09-10.87-5.39-10.43-9.86l3.02-2.11,9.66-.27c.7,1.76,3,2,5.07,1.84l18.99-1.46,6.27-1.27Z"/>
    <path class="cls-3" d="M216.58,236.38c.29,1.33,1.71.79,2.72,1.11l8.35,2.7c-1.63,1.79-3.89,1.43-5.97.46-3.95-1.84-10.46-.59-10.88,3.77-.1,1,1.65,2.75,1.7,3.68.07,1.3,2.19,2.39,3.85,2.5-2.4,1.45-5.97,1.75-8.67,2.31-1.21-.7-2.81-1.8-4.43-1.85-.19-.69-.37-1.81-.93-2.29-2.41-2.1-2.04-4.18-1.3-7.06.64-2.47,2.99-4.22,6.07-4.49l9.49-.84Z"/>
    <path class="cls-1" d="M202.32,248.77c.56.49.73,1.61.93,2.29,2.23,7.99,3.63,21.83-.56,21.14-.95-.15-1.78-1.54-1.8-2.64-.06-3.8-1.29-7.18-1.72-10.98-.33-2.94-.78-5.5-3.61-6.4.53,1.63-.07,2.31-.84,2.42-.04-2.5-.46-5.84.55-8.34,3.2-.6,4.83.46,7.05,2.5Z"/>
    <path class="cls-5" d="M216.17,307.23l-5.96-2.44,1.67-11.03c3.02-.57,5.72-.8,9.28,1.33l-1.26,12.36-3.73-.22Z"/>
    <path class="cls-7" d="M228.86,244.73c-4.71.5-8.48,3.43-12.51,5.87-1.67-.11-3.79-1.2-3.85-2.5,1.8.97,3.99.51,5.23-.68,1.31-1.25,1.47-3.97-.18-5.03-2.42-1.56-5.42.16-6.75,2.03.42-4.36,6.93-5.61,10.88-3.77,2.08.97,4.34,1.33,5.97-.46l-8.35-2.7c-1-.32-2.43.22-2.72-1.11,3.79-.34,7.7.61,11.93,1.69l.35,6.66Z"/>
    <path class="cls-1" d="M208.28,288.13c-1.63,2.36-4.14,2.57-6.43,3.71-7.66,3.82-11.45,1.31-9.98.42.32-.19.55-.41.43-.91l1.65-.71,1.61-.93c2.89-.03,5.59-1.43,8.18-2.37,2-.73,2.65-1.26,3.34-3.4.54,1.6.05,3.15-.77,4.9.75-.47,1.07-.87,1.97-.7Z"/>
    <path class="cls-2" d="M199.66,279.41c-1.17-1.02-2.63-1.99-4.33-2-.18-4.62-1.52-9.54-.74-14.07.34-1.99,1.51-4.23.92-6.47,1.03.16.92,1.39.99,2.47l.44,6.64c.32,4.91.71,9.4,2.71,13.43Z"/>
    <path class="cls-6" d="M199.66,279.41c.73,1.47,1.13,3.13.92,4.83l-5.02,5.47-1.61.93c.76-1.11.53-2.35-.76-3.71,1.03-.94,2.45-1.88,2.4-3l-.25-6.52c1.7,0,3.16.98,4.33,2Z"/>
    <path class="cls-1" d="M208.28,288.13c-.9-.17-1.22.23-1.97.7.81-1.75,1.31-3.3.77-4.9-.89-2.61-2.01-5.7-1.55-8.71,3.78-2.3,5.51,8.92,2.76,12.91Z"/>
    <path class="cls-10" d="M203.73,287.34c-2.59.95-5.28,2.34-8.18,2.37l5.02-5.47c1.08-.51,2.19-.37,2.81.61.44.7.4,1.65.34,2.49Z"/>
    <path class="cls-5" d="M195.58,256.44c-.05.13-.1.3-.06.43.59,2.25-.57,4.48-.92,6.47-1.14-2.44-2.48-4.58-2.48-7.16.61.13,1.23.58,1.85.27.44-1.71.35-.44,1.62,0Z"/>
    <path class="cls-9" d="M305.93,267.67c2.42,3.91,2.95,8.56,3.53,13.99l11.86,110.64,10.23,95.9.68,10.81c-5.13.15-9.54-.69-14.2-1.86l-.45,1.96-1.32-9.22-6.88-32.79-6.89-43.98-10.48-62.56-9.49-55.87c-4.52-13.38,3.94-27.5,18.03-29.21,1.98.88,3.26,3.27,5.37,2.18Z"/>
    <path class="cls-2" d="M332.24,499.02l4.66,68.77,3.07,52.51c.1,1.74-.58,3.34-1.92,4.16l-7.29-33.36c2.08-3.13,1.87-7.1.98-10.98-2.65-11.6-4.48-22.97-5.25-34.69-1.62-1.16-3.56-2.58-2.93-4.43-1.34-2.06-.3-3.81,1.7-5.52-3.17-8.82-4.26-18.73-6.05-28.05l-1.6-8.3.45-1.96c4.66,1.17,9.07,2.01,14.2,1.86Z"/>
    <path class="cls-3" d="M304.85,244.63c-2.79,3.68-2.75,7.63.32,10.97l-.72,3.28c-.85-.81-.78-1.92-.97-3.02l-7.93-2.44c1.23-3.61,2.3-7.56,5.84-9.66l3.46.87Z"/>
    <path class="cls-9" d="M323.55,540.99c-.62,1.85,1.31,3.27,2.93,4.43.77,11.72,2.61,23.09,5.25,34.69.89,3.88,1.1,7.85-.98,10.98l-10.92-50.11c.32-.87-.2-2.13,1.06-2.72-.02.68.07,2.68.6,2.71s1.36-.22,2.05.02Z"/>
    <path class="cls-10" d="M147.71,349.62c4.97.36,6.49,3.62,8.2,7.09-5.11-1.16-4.77,4.4-5.81,11.71,2.51,2.93-.04,6.06-.28,8.99l-3.99,47.58c-.79,9.44-2.48,18.41-.92,27.72-3.48,1.83-1.27,5.4-1.78,7.56-1.64,6.98,1.27,12.96,2.8,20.04,1.58,7.31-1.45,15.28-1.79,22.64-.23,4.93-2.58,7.77-5.11,11.63-2.88,4.39-.49,13.48-5.15,17.25l-9.21,6.42c-1.34.93-4.91,1.01-6.12-.08-1.96-1.76-3.47-4.25-5.83-5.51-.14-.54.25-1.01.49-.9.29.12.94.21,1.24-.25,1.54,4.61,14.24.82,17.18-6.16,2.3-5.45.76-12.86,3.53-17.83s5.86-9.19,4.46-15.22c-.13-.56.64-1.83-.18-2.51-1.32-1.1-4.93-.71-5.29-.24-.28.37-.1,1.3.33,1.77-.68.28-1.5.08-1.33-1.01.28-1.86,5.59-4.59,5.21-8.14-.27-2.53-1.5-5.34-3.73-6.48.19-.04.28-.64,1.53-.43-.57-4.92.71-9.59,1.13-14.94l5.92-76.18c.92-11.82,1.34-22.8,3.41-34.36.12-.66,1.12-.65,1.07-.14Z"/>
    <path class="cls-9" d="M200.34,218.28l-6.5-26.14c-1.57-6.32-2.4-12.63-1.87-19.04l.94-11.36c2.26,1.95,3.11,4.25,4.15,6.83,6.37,15.79,10.96,31.93,14.49,49.34-2.67,1.83-8.31,2.5-11.21.36Z"/>
    <path class="cls-10" d="M179.78,553.14c.63,1.96-.94,4.22-1.26,6.48l-8.54,59.85-7.48,50.54-2.44,14.81c-.15.89-1.6,1.32-2.03,1.21-1.84-5.25-.09-10.81,1.26-15.84-2.89-8.32,3.38-17.93-2.47-20.04l-13.46,34.32c-1.61-2.12-1.2-4.33-.37-6.8l4.09-12.13c.51.06,1.58-.56,1.42-1.42-.26-1.49,2.7-8.43,4.24-13.55l9.53-31.58,7.09-33.92c1.91-9.15,3.33-17.75,4.08-27.23.05-.64,2.09-1.29,1.79-1.84-.24-.45-.27-1.6-.03-1.93l2.92-2.7c.22.58.44,1.4.7,1.59.24.17.65.2.96.18Z"/>
    <path class="cls-10" d="M143.26,280.42c-.43,1.53,1.07,2.84,1.39,4.42l3.86,18.95c1.01,4.98,3.74,9.91,4.82,14.73.93,6.79-2.76,13.93-2.82,20.43-1.08-.64-1.83-1.94-3.55-1.84l1.88-20.3c.1-1.04-1.76-1.03-2.31-.81-1.07.45-2.31,1.08-3.7.82l-1-9.13c-.17-9.13-1.09-17.78-1.96-27.01-.13-1.33,2.71-.84,3.38-.28Z"/>
    <path class="cls-8" d="M141.51,331.7l-2.5-1.51,3.83-13.36c1.39.26,2.62-.38,3.7-.82-3.1,3.76-.38,10.13-4.01,14.1-1.04-.69-1.95.28-1.59.59.2.17.56.2.57,1Z"/>
    <path class="cls-7" d="M206.37,309.74l-18.99,1.46c-2.08.16-4.37-.07-5.07-1.84,8.04-1.06,16.21-.91,24.07.37Z"/>
    <path class="cls-1" d="M114.46,531.5c1.07-.45,3.04.39,7.28-1.3,2.75-1.09,5.27-2.74,4.48-6.1.21.97,2.11,1.71.45,4.06,2.42-.69,2.09-2.25,2.13-3.31l.43-12.73,2.76-1.66c-1.58-2.55.57-4.27,1.88-5.45-.26-3.1-.24-7.27,1.84-10.08.47-.64.99-2.07.85-2.91-.09-.56-1.55-.93-2.06-.71-.44-.47-.62-1.39-.33-1.77.36-.47,3.96-.86,5.29.24.82.68.05,1.95.18,2.51,1.4,6.02-1.79,10.44-4.46,15.22s-1.24,12.38-3.53,17.83c-2.94,6.98-15.64,10.77-17.18,6.16Z"/>
    <path class="cls-10" d="M126.22,524.1c-.69-3.15-3.08-5.66-6.4-6.41-1-.23-2.24-1.99-2.23-3,3.07.1,6.27-.43,9.09-1.55l2.55-1.01-.43,12.73c-.03,1.05.29,2.62-2.13,3.31,1.66-2.35-.24-3.09-.45-4.06Z"/>
    <path class="cls-2" d="M126.22,524.1c.79,3.36-1.73,5.01-4.48,6.1,1.78-3.91-.35-8.3-3.32-10.49l1.4-2.02c3.33.75,5.71,3.26,6.4,6.41Z"/>
    <path class="cls-6" d="M84.36,531.71c-.45-.87-.66-1.82-.02-3.36.43.52,1.06,1.49.02,3.36Z"/>
    <path class="cls-8" d="M179.9,548.03c-.34,1.86-.76,3.11-.12,5.1-.31.03-.72,0-.96-.18-.27-.19-.48-1.01-.7-1.59l-2.92,2.7c-1.41-2.58-1.57-5.12-.56-8.41,1.2.91,1.73,2.19,1.47,4.04.88-.57,1.34-1.02,1.99-1.81.11,1.33.46,1.55.83,1.87.48.19,1.02,0,1.27-.43s.15-1-.32-1.29Z"/>
    <path class="cls-4" d="M261.07,674.06l-6.05-27.75-9.19-45.65-8.6-45.84c-.37-1.99.08-4.44,2.13-5.42l6.05,32.62,14.21,69.39,3.36,17.36c.23,1.21,1.37,2.16,1.35,3.34-.02.87-2.83,3.01-3.25,1.96Z"/>
    <path class="cls-2" d="M155.91,356.71l7.75,8.59c-2.6-1.33-6.53-.71-7.91,2.8-2.06,5.25-1.68,11.38-2.47,17.03l-2.14,15.38c-.55,14.68-1.06,28.83-3.52,43.14l-.7,10.67-1.67,11.94c-.07-1.96-.99-4.83-2.12-6,.51-2.17-1.7-5.74,1.78-7.56-1.56-9.31.13-18.28.92-27.72l3.99-47.58c.25-2.92,2.79-6.05.28-8.99,1.03-7.31.69-12.87,5.81-11.71Z"/>
    <path class="cls-1" d="M164.6,359.72c-1.3-.03-3.17-1-3.26-3.08l3.26,3.08Z"/>
    <path class="cls-10" d="M168.2,366.06c-1.28-.03-2.29-1.02-2.98-2.4,1.43-.21,2.59.52,2.98,2.4Z"/>
    <path class="cls-10" d="M171.86,367.54c-1.62.55-2.93-.75-2.37-2.37,1.01.69,1.69,1.36,2.37,2.37Z"/>
    <path class="cls-1" d="M212.49,248.1c-.05-.93-1.79-2.68-1.7-3.68,1.33-1.87,4.33-3.59,6.75-2.03,1.66,1.06,1.49,3.79.18,5.03s-3.43,1.65-5.23.68Z"/>
  </g>
</svg>