<?xml version="1.0" encoding="UTF-8"?>
<svg id="Réteg_1" data-name="Réteg 1" xmlns="http://www.w3.org/2000/svg" viewBox="0 0 409.19 709.78">
  <defs>
    <style>
      .cls-1 {
        fill: #7a7596;
      }

      .cls-2 {
        fill: #f8f4e9;
      }

      .cls-3 {
        fill: #3f639b;
      }

      .cls-4 {
        fill: #f4b7b6;
      }

      .cls-5 {
        fill: #456292;
      }

      .cls-6 {
        fill: #f1abb1;
      }

      .cls-7 {
        fill: #172c43;
      }

      .cls-8 {
        fill: #2d4669;
      }

      .cls-9 {
        fill: #1f3650;
      }

      .cls-10 {
        fill: #49679a;
      }

      .cls-11 {
        fill: #f9dab9;
      }

      .cls-12 {
        fill: #fcddb8;
      }

      .cls-13 {
        fill: #3e649e;
      }

      .cls-14 {
        fill: #1d3149;
      }

      .cls-15 {
        fill: #f3abb2;
      }

      .cls-16 {
        fill: #385888;
      }
    </style>
  </defs>
  <g id="Generatív_objektum_0_0_" data-name="Generatív objektum (0, 0)">
    <path class="cls-1" d="M96.14,705.56c-.06.54-.44.86-.96.84l-16.9-.41c-.08-.36.16-.75.55-.74l17.31.3Z"/>
    <path class="cls-9" d="M144.33,709.78l-17.51-.06c.05-.39.18-.63.61-.76l13.67.08,3.23.74Z"/>
    <path class="cls-9" d="M277.93,708.11l-21.15.3c.18-.29.5-.49,1.07-.5l9.01-.09,8.52-.43c.93-.05,2.09-.3,2.56.72Z"/>
    <path class="cls-9" d="M330.8,707.89c-2.22.64-4.78,1.05-6.9.13,1.46-.93,5.16-.94,6.9-.13Z"/>
    <path class="cls-9" d="M187.63,709.4l-8.48.11c1.99-.84,6-.75,8.48-.11Z"/>
    <path class="cls-9" d="M220.91,708.95l-6.9.02c1.51-.83,5.16-.81,6.9-.02Z"/>
    <path class="cls-9" d="M171.28,709.66c-1.61.04-3.3.02-4.83.02l3.24-.76c.73-.14,1.39.11,1.6.74Z"/>
    <path class="cls-1" d="M67.69,706.34c-1.51.79-3.77.79-5.28,0h5.28Z"/>
    <path class="cls-1" d="M71.86,706.23c-.97.56-2.25,1-3.12.12.75-.84,2.32-.79,3.12-.12Z"/>
    <path class="cls-9" d="M225.73,708.62c-1.16.59-2.55.2-3.81.27,1.11-.97,2.58-.26,3.81-.27Z"/>
    <path class="cls-1" d="M51.12,703.19c.2.31-1.01.86-1.37.31l-.56-.86,1.93.56Z"/>
    <path class="cls-9" d="M192.9,708.98c-.12.22-.39.39-.62.34-.16-.03-.34-.2-.43-.29.02-.89,1.02-.85,1.05-.06Z"/>
    <path class="cls-9" d="M322.86,707.93h-1.59c.02-.47.39-.57.79-.57s.78.1.79.57Z"/>
    <path class="cls-9" d="M178.12,709.5l-1.61.02c.03-.46.41-.59.81-.58s.76.1.81.56Z"/>
    <path class="cls-1" d="M72.84,706.19c.18-.13.47-.36.69-.35-.15.23-.4.34-.69.35Z"/>
    <path class="cls-1" d="M48.75,702.63l-.7-.4c.28.01.53.16.7.4Z"/>
    <g>
      <path class="cls-1" d="M101.95,705.84l2.15.08c.82.28,1.57.57,2.28-.18.48-.51,1.26-.49,2.07-.07l1.52.78c2.12,1.08,5.02,1.31,7.18.23l.19,1.23-4.27-.19c-1.08-.05-1.58.48-1.83,1.12-4.54-.22-9.41-1.76-14.12-2.92.85.2,1.73.05,2.33-.59l2.47.52Z"/>
      <path class="cls-1" d="M380.9,458.46c-.16,2.68-.86,5.42-4.02,6.32l.51,12.19c.04.89.92,2.1-.11,2.71-1.34-3.88.2-8.95-1.22-14.94-.03-.13.02-.32.05-.44-.09.13.8-.07,1.02-.24.15-.11.08-.13-.05-.27l-.59-.62c1.83-1.15,1.93-2.56,2.78-4.78-.02.66-.03,1.33.4,1.89.26-1.13.67-1.53,1.23-1.82ZM379.11,461.18v.34s-.01.36-.01.36v.35s.02-.34.02-.34v-.36s-.01-.35-.01-.35Z"/>
      <path class="cls-7" d="M321.3,706.58c1.56.45,2.95.3,4.51.28l6.85-.11-.83,1.22c-.27,0-.82.07-1.04-.08-1.74-.82-5.44-.8-6.9.13-.32-.14-.7-.09-1.04-.09-.02-.47-.39-.57-.79-.57s-.78.1-.79.57l-1.07-.09c-.07-.25-.03-.56.11-.71.28-.3.91-.46.99-.55Z"/>
      <path class="cls-9" d="M288.52,707.93h-3.17c.73-.82,2.43-.82,3.17,0Z"/>
      <path class="cls-9" d="M336.09,707.38c.11-.24.45-.39.72-.23-.26.02-.49.22-.72.23Z"/>
      <g>
        <path class="cls-2" d="M58.45,478.93c3.8,1.6,8.04,2.07,12.41,2.12l18.59.21c-2.29,6.52-5.48,12.64-9.7,18.63l-7.66,5.85c1.52,10.66,3.43,21.11,3.98,32.03-1,5.13-2.99,9.68-5.08,14.4-.47.87-.66,1.73-.73,2.62-3.22.89-5.89,19.85-5.78,27.82.03,2.04,1.67,4.02,3.13,4.15.24.34.72.57,1.01.79,2.36,1.79,5.3,2.52,8.82,3.3l-12.63,17.39c4.92,3.07,9.83,5.64,14.91,7.2-2.06,4.4-7.02,8.03-8.35,13.09-3.61,13.75-4.36,27.71-6.09,42.14,5.08-2.62,8.32-6.12,12.13-9.55,1.39-1.25,2.79-2.43,3.56-4.04.75.38,1.34.13,2.06-.35l6.22-4.13c1.12-.75,2.22-.77,3.89-1.98l-1.86,10.71-5.93,29.91c-.19.95-1.85,1.2-2.42,1.42-6.56-7.25-11.88-13.37-22.64-14.19-2.41-.18-4.76.97-6.79,1.41l-1.08.58c-2.47-49.04-4.17-97.99-4.51-147.29l.87-28.69c.24-7.93.78-15.48,2.54-23.12,2.71-.54,4.85-1.47,7.11-2.45Z"/>
        <path class="cls-15" d="M40.22,537.18c-.91,1.2-.78,2.71-.86,4.27l-.68,14.39-2.82,98.92-.76,39.37c-.03,1.55.53,3.03-.1,4.39-4.71.74-9.62.67-14.41.09-.39-.33-1.39-.38-1.42-1.13l-.08-1.77.04-.46c0-.26-.1-.74,0-.98,1.65-4.05.51-8.22.56-12.87.37-37.54,1.61-74.68,3.81-112.14l2.36-23.03c.31-3.04,1.83-6.13,4.57-7.58,3.1-1.64,6.61-1.63,9.78-1.47Z"/>
        <path class="cls-13" d="M379.4,534.62c.52.41,1.44.48,2.14.49h.99c.44.74,1.46.69,2.23.46,7.52,1.68,7.56,10.15,7.88,17.03l.34,7.39.31,24,.53,30.21.47,26.6.35,8.52.02,45.31c0,3.51-2.6,4.85-5.26,5.56-3.21-.88-7.21.68-10.62-.93-.51-1.89.3-3.69.31-6.01l.07-118.39-.47-29.66c-.05-2.92-.56-5.66-2.01-7.94l1.36-3.11c.33-.23,1.09.24,1.38.47Z"/>
        <path class="cls-13" d="M376.06,464.74c1.42,5.99-.12,11.06,1.22,14.94v1.02s.27,11.88.27,11.88l.32,12.42.48,3.74c-.39.06-.6.46-.6,1.02v5.89c0,.57.21.96.55,1.02v2.13c0,2.4.67,5.27-.33,7.68l-1.81,4.38-4.14.12-3.36,4.06c1.58,2.39-1.64,2.33-.81,5.51.14.53.51,1.14,1.47.87l-.16,36.08-1.62,110.79.64,2.71c-.08.23-.17.59-.47.73l-.65,8.24c-3.4.99-6.53-.53-9.18-2.8l-3.11-2.66c1.74-1.06,2.38-2.54,2.4-4.56l.24-25.34,1.73-21.76,4.28-86.58c.4-.01.64-.39.64-1.02l-.02-11.69c0-.51-.22-.88-.47-1.07,0-.27.15-.67.08-.95,1.49-2.15.74-4.8.75-7.44.02-5.43.61-10.68-1.18-15.65.94-4.24.42-8.75.25-13.47-.36-10.04-3.03-19.46-7.82-27.99,3.92.02,4.43-3.69,4.76-7.86.16-1.99-.28-2.95.82-3.94l8.08.05c2.41-.02,4.65-.01,6.72-.52Z"/>
        <path class="cls-2" d="M41.56,536.89l-1.34.28c-3.17-.16-6.69-.17-9.78,1.47-2.74,1.45-4.26,4.55-4.57,7.58l-2.36,23.03c-2.21,37.45-3.45,74.6-3.81,112.14-.05,4.64,1.09,8.82-.56,12.87-2.58-.53-3.69-5.66-3.76-9.62l-.83-45.99,2.74-88.76c.23-7.4,2.73-15.16,9.87-16.17l5.72-.81,3.85-45.2,2.06-21.8c2.14,2.05,4.52,3.23,7.53,4.16l-4.76,66.81Z"/>
        <path class="cls-13" d="M41.56,536.89l.21,3.53-.13,11.1.03,3.7-.58,6.89.02,11.6-.25,11.65-.2,22.67-.31,7.54-.23,71.22c-.53.32-.4,1.21-.44,2.07l-.35,6.37c-.08,1.39-.02,2.7-1.22,3.44-.83.52-2.18.35-3.12-.17.63-1.36.07-2.84.1-4.39l.76-39.37,2.82-98.92.68-14.39c.07-1.56-.05-3.07.86-4.27l1.34-.28Z"/>
        <path class="cls-9" d="M82.95,692.66c3.85,4.26,8.37,7.68,13.27,10.69l3.26,1.97c-.6.64-1.49.79-2.33.59-.29.1-.86.11-1-.36l-17.31-.3c-.39,0-.63.38-.55.74l-4.76-.15c-.22,0-.51.22-.69.35l-.98.04c-.8-.67-2.37-.72-3.12.12l-1.05-.02h-5.28c-2.18,0-4.29.21-6.38-.41.78-.98,2.14-.64,3.19-.64h3.19s.6.01.6.01l6.06-.19c3.29-.11,5.85-2.58,6.25-5.94.85-7.15-5.34-13.77-9.67-13.52-.52.03-.82-.53-1.09-.85-2.92-3.46-8.52-1-11.48-3.56-.36-.31.04-1.19.44-1.34,2.03-.44,4.38-1.59,6.79-1.41,10.76.82,16.09,6.94,22.64,14.19Z"/>
        <path class="cls-16" d="M64.56,684.79c-2.81-.63-5.57-.33-8.16.66-4,1.53-6.58,4.95-7.34,9.18l-.52,2.87c-2.8.21-5.4-1.81-6.25-4.31,3.52-4.29,4.52-9.66,10.15-12.72l1.08-.58c-.4.16-.8,1.03-.44,1.34,2.95,2.56,8.56.1,11.48,3.56Z"/>
        <path class="cls-9" d="M42.3,693.19c.85,2.5,3.45,4.52,6.25,4.31l.52-2.87c-.56,3.12.14,6,2.06,8.56l-1.93-.56c-.12.02-.34.06-.44,0-.17-.23-.42-.38-.7-.4l-18.77-.88-7.02-1.35c-1.15-.22-1.3-.9-1.65-1.39,4.79.58,9.71.64,14.41-.09.94.52,2.29.68,3.12.17,1.2-.74,1.14-2.05,1.22-3.44l.35-6.37c.05-.86-.09-1.76.44-2.07.14,2.37-.1,5.13,2.16,6.39Z"/>
        <path class="cls-4" d="M64.56,684.79c.27.32.57.89,1.09.85,1.23,5.69-.9,13.7-2.64,19.66h-.6c-1.8-6.43-.13-15.22-2.18-16.81l-3.83-3.04c2.59-.99,5.35-1.29,8.16-.66Z"/>
        <path class="cls-1" d="M381.54,535.11c-.69,0-1.62-.08-2.14-.49.33-1.35-.46-2.76-.47-4.25l-.11-11.05c0-.37-.26-.57-.5-.54v-2.13s.04-7.93.04-7.93l-.48-3.74-.32-12.42-.29-11.88c.65.53.64,1.63.56,2.63-.24,2.99.31,5.62.4,8.49l.31,9.86.61,14.64.34,10.33c.06,1.97.71,3.83.35,5.89-.26,1.51.5,2.28,1.7,2.57Z"/>
        <path class="cls-1" d="M59.22,705.29c-1.05,0-2.41-.33-3.19.64-1.74-.51-4.04-.4-4.75-2.68,4.89,2.84,8.21-.38,7.95,2.04Z"/>
        <path class="cls-9" d="M335.32,706.2l-.32,1.25c-1.02.06-2.11.51-3.17.52l.83-1.22,2.66-.55Z"/>
        <path class="cls-1" d="M384.76,535.58c-.77.23-1.79.27-2.23-.45.79,0,1.57.31,2.23.45Z"/>
        <path class="cls-9" d="M292.74,707.93h-1.06c-.06-.28.1-.45.28-.53.46-.2.84.14.78.53Z"/>
        <path class="cls-2" d="M19.1,695.71c-.6,0-.48-.49.04-.46l-.04.46Z"/>
        <path class="cls-9" d="M263.27,703.63c-.05.74.5,1.05,1.23,1.42.66.34.43,2.29-.15,2.29l-10.7-.07v-.72c1.23-.42,2.44-.36,4.01-.42-.6-1.37-1.54-.69-1.97-.82l7.59-1.67Z"/>
        <path class="cls-7" d="M376.66,537.26c1.45,2.28,1.96,5.02,2.01,7.94l.47,29.66-.07,118.39c0,2.32-.81,4.12-.31,6.01-1.86-.88-4.4-1.83-6.1.39-.3.39.06,1.91-.4,1.93l-2.38.09c-.76.03-1.66.14-2.26-.14-.41-.19-.62-.94-.51-1.55l.65-8.24c.24.3,1.13.52,1.53.16.18-.16.13-.67-.16-.83-.22-.12-.62-.1-.91-.06l-.64-2.71,1.62-110.79.16-36.08c0-1.63-.03-3.82.73-5.52.63-1.4,4.45-1.99,6.58,1.36Z"/>
        <path class="cls-3" d="M379.4,534.62c-.29-.23-1.05-.69-1.38-.47l-1.36,3.11c-2.13-3.35-5.95-2.76-6.58-1.36-.76,1.7-.72,3.89-.73,5.52-.97.27-1.34-.34-1.47-.87-.82-3.18,2.4-3.11.81-5.51l3.36-4.06,4.14-.12,1.81-4.38c1-2.41.32-5.28.33-7.68.24-.03.49.17.5.54l.11,11.05c.02,1.49.8,2.9.47,4.25Z"/>
        <path class="cls-3" d="M378.32,516.66c-.35-.06-.55-.45-.55-1.02v-5.89c0-.56.2-.96.6-1.02l-.04,7.93Z"/>
        <path class="cls-14" d="M367.75,691.74c.29-.14.39-.51.47-.73.28-.04.68-.06.91.06.29.16.34.67.16.83-.41.36-1.3.14-1.53-.16Z"/>
        <rect class="cls-7" x="373.65" y="701.14" width=".37" height=".37" transform="translate(-386.4 469.69) rotate(-45)"/>
        <path class="cls-3" d="M63.01,705.3c1.74-5.95,3.87-13.97,2.64-19.66,4.34-.26,10.52,6.36,9.67,13.52-.4,3.37-2.96,5.84-6.25,5.94l-6.06.19Z"/>
        <path class="cls-9" d="M109.93,479.79c.23.46.31,1.54-.54,1.9-.67.28-.99.62-.96,1.18l-1.11.38c-1.25.43-2.77,0-4.1-.35-1.74-.46-3.45-1.43-3.88-3.25l10.58.15Z"/>
        <g>
          <path class="cls-7" d="M299.37,479.19l.5,9.87c-.31,1.29-.61,2.83.27,3.84l3.13,54.87.76,20.67-.15,4.08-.54,10.67-10.83,32.56-7.48,16.86-11.26,16.67-9.34,13.41c-3.84,5.52-7.75,10.61-10.9,16.57-.79,1.49-2.13,2.69-2.01,4.36l-1.72,1.5-2.32,1.33c-9.38,7.01-19,13.06-29.73,18.89,5.21,1.48,10.22,1.05,15.31.9l7.33-.22,11.01-.43c1.59-.06,2.83.03,4.3-.3.43.13,1.37-.55,1.97.82-1.57.06-2.77,0-4.01.42v.72s10.71.07,10.71.07c.58,0,.81-1.95.15-2.29-.73-.37-1.28-.68-1.23-1.42.12-.03.29.05.37.05l.96-.06,2.11-.52c2.25-.36,1.4,2.4,3.62,2.7.87.12,1.52-.18,1.76-.86s.19-2.16-.63-2.1l-1.54.12c-.24.02-.46-.46-.49-.75h1.47c.51,0,1.14-.09,1.25-.64h.43c.44-.01.97-.06,1.12-.52l.47.02c.71.03,1.37.05,2.48-.71.36,1.56-1.22.93-1.37,2-.2,1.42,2.88.96,3.72,4.51h16.88c-.08.52-.37.77-.48.97l-2.65.08c.07-.39-.32-.73-.78-.53-.19.08-.34.25-.28.53h-3.17c-.74-.82-2.43-.82-3.17,0l-7.42.18c-.47-1.02-1.63-.76-2.56-.72l-8.52.43-9.01.09c-.57,0-.9.21-1.07.5l-31.05.21c-1.24,0-2.71-.69-3.81.27l-1,.06c-1.74-.79-5.4-.81-6.9.02h-21.11c-.03-.78-1.03-.82-1.05.07l-4.22.36c-2.48-.64-6.49-.73-8.48.11h-1.03c-.04-.46-.42-.55-.81-.56s-.77.11-.81.58l-5.23.14c-.2-.63-.87-.88-1.6-.74l-3.24.76-22.11.09-3.23-.74-13.67-.08c-.43.13-.56.38-.61.76l-15.56-.89c.25-.63.75-1.16,1.83-1.12l4.27.19h1.01c.6,0,1.26.06,1.65-.47l1.53-.05,7.42.03,22.73-.1c9.75-.04,19.15.01,29-2.01-9.1-2.98-17.55-5.38-25.55-9.81l-7.31-4.78c.58-.63,1.12-.33,1.37-.4l4.99.92,21.25,6.84c7.27,2.34,19.48,5.56,26.11,3.7,6.84-1.92,13.07-4.73,19.62-8.33-4-.85-7.86-.59-11.64-2.14-.25-.1-.31-.57-.24-.68,2.99.18,5.84.98,8.8.04,2.25.81,8.96-.63,9.74-1.21l9.12-6.77-12.38-1.29c-5.5-.57-12.41,2.72-17.4,3.66,2.69-3.42,6.65-6.06,11.13-7.17l19.02-4.74,8.45-2.07c1.56-.38,2.2-1.76,3.4-3.09l6.88-7.65c-3.46.84-6.46,3.17-9.61,1.82-1.69-.72-.96-3.63-.18-4.9,1.79-2.93,4.24-4.7,6.4-6.94,8.51-6.13,16.55-13.08,23.67-21.08l5.17-6.97c8.78-15.55,12.07-48.37,12.61-67.13l.54-18.71-.06-32.66c-.01-7.23-.29-14.19-1.85-20.92v-1.5c1.08.02,1.03-1.15,1.41-1.86,1.06-2,3.74-1.38,5.21-.29ZM298.78,498.55c.71-1.46.35-3.07-.03-3.99l-3.17,3.26c-.57.59-.3,2.22.19,2.79.37-1.84,2.23-1.69,3.02-2.06Z"/>
          <path class="cls-9" d="M317.58,680.3c.55,1.3.11,2.49.02,3.9-.1,1.63,2.05,2.41,3.39,1.87,1.32-.53,2.38-.85,3.69-.76l-3.31,1.38c-7.03,2.92-10.6,13.66-5.67,18.39,1.45,1.39,3.85,1,5.6,1.5-.08.09-.72.24-.99.55-.14.15-.18.45-.11.71l-6.74-.36-18.07.37c.11-.2.4-.45.48-.97h-16.88c-.84-3.55-3.91-3.09-3.72-4.51.15-1.07,1.72-.44,1.37-2-1.11.77-1.77.74-2.48.71,10.87-3.75,20.97-9.23,31.41-14.6l12-6.17Z"/>
          <path class="cls-14" d="M327.66,677.92c2.14.09,4.68.04,6.68.75,4.43,1.55,8.14,4.39,11.67,7.67l8.8,8.18,3.11,2.66c2.65,2.27,5.78,3.79,9.18,2.8-.11.61.1,1.36.51,1.55.6.28,1.51.17,2.26.14l2.38-.09c.47-.02.1-1.54.4-1.93,1.7-2.21,4.24-1.26,6.1-.39,3.41,1.61,7.42.05,10.62.93-7.24,1.91-14.84,2.39-22.69,2.18-10.37.3-20.31,1.75-29.88,4.77-.27-.16-.61,0-.72.23l-1.08.07.32-1.25c1.98-.41,4.05-2.22,4.87-4.11,2.13-4.89.24-9.97-3.35-13.38-2.24-2.13-4.28-3.17-7.48-3.18-1.37,0-3.1-.88-4.69-.22-1.31-.1-2.37.23-3.69.76-1.34.54-3.49-.24-3.39-1.87.08-1.41.53-2.6-.02-3.9,3.02-1.55,6.54-2.53,10.08-2.39ZM373.83,701.06l-.26.26.26.26.26-.26-.26-.26Z"/>
          <path class="cls-15" d="M97.33,481.13l-.33,11.98-1.46,23.67c-.39-.01-.7.27-.95.83l-6.11,14c-3.18,7.28-7.98,13.12-13.26,19.34,3.57-1.24,5.59-3.88,8.08-5.96,4.71-5.2,8.26-10.67,11.12-16.81.33-.02.6.06.6.26l-.13,11.15-.3,16.72c-.54.22-.78.76-1.04,1.47-3.96,10.87-11.85,22.87-22.14,27.19-.22-1.6,1.47-2.1,2.25-3.22,6.8-9.8,11.44-20.67,13.09-32.63l-6.9,2.99-9.58,2.65c.07-.89.26-1.75.73-2.62,2.09-4.71,4.08-9.27,5.08-14.4-.55-10.91-2.46-21.36-3.98-32.03l7.66-5.85c4.22-5.98,7.41-12.11,9.7-18.63,2.63.03,5.21.78,7.88-.13Z"/>
          <path class="cls-12" d="M80.99,656.64c.06.1.03.33.01.45-.77,1.61-2.17,2.79-3.56,4.04-3.82,3.43-7.06,6.93-12.13,9.55,1.72-14.43,2.47-28.39,6.09-42.14,1.33-5.06,6.29-8.69,8.35-13.09.12-.06.3-.23.19-.41,1.99-.12,3.28-2.13,4.67-3.03l3.65-2.35c1.63-1.05,2.14-2.08,3.6-3.93l-1.76,12.02c-1.03,13.57-1.23,23.17-8.3,35.57-.67,1.18-1.61,2.14-.81,3.33Z"/>
          <path class="cls-15" d="M94.05,595.42c-3.61,3.54-6.27,7.95-9.22,12.33l-4.9,7.29c.1.18-.07.35-.19.41-5.08-1.56-9.99-4.13-14.91-7.2l12.63-17.39c-3.52-.79-6.46-1.51-8.82-3.3,10.44-1.73,18.89-8.12,24.8-16.67.55.24.77.65.77,1.25l-.14,23.29Z"/>
          <path class="cls-12" d="M71.4,584.99c-1.23.52-2.32,1.52-3.79,1.77-1.46-.14-3.1-2.12-3.13-4.15-.11-7.97,2.56-26.93,5.78-27.82l9.58-2.65,6.9-2.99c-1.65,11.96-6.3,22.83-13.09,32.63-.78,1.12-2.47,1.63-2.25,3.22Z"/>
          <path class="cls-15" d="M96.28,702.03l-.05,1.32c-4.9-3.01-9.42-6.43-13.27-10.69.58-.22,2.24-.47,2.42-1.42l5.93-29.91,1.86-10.71c-1.67,1.21-2.77,1.23-3.89,1.98l5.32-5.54.29,16.66,1.14,28.47.25,9.84Z"/>
          <path class="cls-8" d="M93.43,570.88c-5.9,8.56-14.36,14.94-24.8,16.67-.29-.22-.77-.46-1.01-.79,1.47-.25,2.55-1.25,3.79-1.77,10.29-4.32,18.18-16.33,22.14-27.19.26-.72.5-1.25,1.04-1.47l-.26,12.52c-.02.78-.56,1.66-.9,2.03Z"/>
          <path class="cls-3" d="M94.56,636.57l.03,10.49-5.32,5.54-6.22,4.13c-.72.48-1.31.73-2.06.35.02-.11.05-.34-.01-.45,5.58-5.19,9.65-11.81,12.47-19.14.23-.6.55-.86,1.11-.92Z"/>
          <path class="cls-12" d="M223.62,483.36l-.27,8.37-3.26,44.01-2.28,44.3-.43,15.37.1,38.86,2.6,40.11c1.47.28,2.59-.63,3.89-.87l18.79-3.43c1.28-.23,2.52-.46,3.01,1.01l-8.45,2.07-19.02,4.74c-4.49,1.12-8.44,3.75-11.13,7.17.17.17.35.83.53.9,4.4,1.03,11.72,1.53,16.99,1.83-1.87,1.47-4.48,2.21-6.59,2.88-2.96.94-5.81.14-8.8-.04-4.38-.26-8.73-1.6-12.21-4.35.13-1.16.76-2.19,1.83-3.29l-3.13-15.58c-2.68-19.74-4-39.32-4.09-59.3l-.14-29.8c.64-31.45.74-63.89,8.62-94.28l-1.2-.45c8.19-1,16.5-1.35,24.67-.22Z"/>
          <path class="cls-12" d="M176.47,483.36c-.29,2.23.49,4.45.56,6.9l.59,21.67-.87,40.84-.53,20.44-.45,24.61-.58,31.5-.06,23.16.47,27.97c.05,2.8.71,5.41.46,8.16-1.2,1.17-3.07,2.64-4.05,4.37-.86,1.52,2.06,3.87,3.26,4.38.25.33.19.62.16.74l-21.25-6.84-1.76-23.7-1.4-33.95-2.14-2.31c.61-.93,1.41-1.1,2.21-1.69l1.36-22.91.55-18.35.71-41.57,1.27-40.67.51-8.47c.3-5.03,1.98-9.69,3.2-14.18l8.81-.59c3.17-.21,6.09.15,8.95.49Z"/>
          <path class="cls-15" d="M238.3,492.95c.39,1-.12,2.44-.44,3.63-1.84,6.67-2.73,13.1-2.93,20.05l-1.13,37.73.17,25.23c.16,23.59.98,46.77,3.14,70.21.25,2.66.17,4.88,1.76,7.13,2.02-1.95,4.01-3.93,5.34-5.95.63-.23,1.44-.51,2.16-1.06l15.02-11.4,2.85-2.43,4.45-3.15-8.79,9.89-7.22,7.49c-2.16,2.24-4.62,4.01-6.4,6.94-.78,1.27-1.51,4.18.18,4.9,3.15,1.35,6.15-.98,9.61-1.82l-6.88,7.65c-1.2,1.34-1.84,2.71-3.4,3.09-.49-1.46-1.73-1.24-3.01-1.01l-18.79,3.43c-1.3.24-2.43,1.15-3.89.87l-2.6-40.11-.1-38.86.43-15.37,2.28-44.3,3.26-44.01.27-8.37,10.17,1.41c.95.13,1.79,1.2,2.13,2.07l2.37,6.11Z"/>
          <path class="cls-2" d="M292.22,480.11c-.18.53-.05,1.13.52,1.23v1.5c-.94.52-.1,1.46-.08,2.17l.65,23.12c-.92.06-1.6.76-2.17,1.65-2.8,4.46-6.07,8.17-9.85,11.78-2.59,2.47-4.86,5.05-8.14,6.89l-4.38-3.18-22.27-17.83c-2.5,18.12-3.44,35.48-4.23,53.22l-.68,15.15-.16,17.5c-.17,18.69.01,37.01,1.94,55.54.1.97.29,1.61.84,2.12-1.33,2.02-3.32,4-5.34,5.95-1.59-2.25-1.51-4.47-1.76-7.13-2.16-23.44-2.98-46.62-3.14-70.21l-.17-25.23,1.13-37.73c.21-6.94,1.09-13.37,2.93-20.05.33-1.19.83-2.63.44-3.63.13.04.71-.04.8-.32,1.3-4.25,3.11-8.14,5.68-11.78,1.67-2.37,4.17-3.57,7.06-3.64l19.26-.46,16.7-.13c2.2-.02,4.09,1.64,4.42,3.49Z"/>
          <path class="cls-12" d="M318.96,615.55l-.27,8.86c-.09,0-.7.16-.77.46-2.08,8.14-4.19,16.26-7.56,23.97l-7.41,5.44-12.77,14.06c-1.57,1.72-2.34,3.15-3.36,5.21l-6.47,13.03c-2.72,5.49-5.83,10.39-9.55,14.89.26.27.16.58.1.73h-1.47c-.97.22-1.8.66-2.72.89l-2.11.52c.04-.4-.27-.63-.65-.46-.24.11-.35.26-.31.51-.09,0-.26-.07-.37-.05l-7.59,1.67c-1.47.32-2.71.23-4.3.3l-11.01.43c-.63-1.13-.2-2.01.35-3.07l9.07-17.83,1.72-1.5,17.06-11.58c2.76-1.87,6.9-3.6,8.56-6.63l16.21-29.64c2.85-5.22,5.31-10.88,6.52-16.71,2.49-11.96,2.87-23.99,3.47-35.88l.54-10.67c.73.15.95.71,1.24,1.51l5.01,14.05,6.81,20.06,2.04,7.4Z"/>
          <path class="cls-11" d="M125.21,482.67l-.43,8.1-.32,43.12-.43,63.59,1.11,46.54-.17,12.93c.71,16.52,1.86,32.78,4.56,48.93l-.57,1.54-7.42-.03c-1.14-1.66-1.01-3.66-1.2-5.84l-2.74-31.87-.71-16.38.03-104.1.36-18.82.25-11.47.33-12.35.34-9.99c.14-4.15-.15-8.66,1.44-12.48.99-1.83,4.12-1.23,5.57-1.42Z"/>
          <path class="cls-2" d="M154.19,691.25l-4.99-.92c-.93-.17-1.86-.36-2.78-.31l-.88-2.82-.79-14.67-.49-8.75.44-6.05.16-22.17.3-24.88.33-49.07.55-17.5.6-15.52.73-19.25c.26-.11.54-.34.58-.71.92-7.77,2.59-15.24,5.34-22.4.68-1.78,3.65-2.66,5.42-2.78-1.22,4.49-2.9,9.16-3.2,14.18l-.51,8.47-1.27,40.67-.71,41.57-.55,18.35-1.36,22.91c-.8.59-1.6.76-2.21,1.69l2.14,2.31,1.4,33.95,1.76,23.7Z"/>
          <path class="cls-15" d="M326.55,672.68c1.02,1.01.82,3.74,1.1,5.23-3.54-.15-7.06.84-10.08,2.39l-12,6.17c-10.44,5.37-20.54,10.85-31.41,14.6l-.47-.02c-.45-.02-.9.11-1.12.51h-.43s-1.36-.09-1.36-.09c3.72-4.5,6.83-9.4,9.55-14.89l6.47-13.03c1.02-2.06,1.8-3.49,3.36-5.21l12.77-14.06,7.41-5.44c3.37-7.71,5.48-15.83,7.56-23.97.08-.3.68-.47.77-.46l.23,18.29,2.45,20.25c.48,3.96,2.27,7.3,5.18,9.73Z"/>
          <path class="cls-13" d="M251.5,683.63c-.12-1.67,1.23-2.87,2.01-4.36,3.15-5.96,7.05-11.05,10.9-16.57l9.34-13.41,11.26-16.67,7.48-16.86,10.83-32.56c-.6,11.89-.98,23.91-3.47,35.88-1.21,5.83-3.67,11.49-6.52,16.71l-16.21,29.64c-1.66,3.03-5.81,4.76-8.56,6.63l-17.06,11.58Z"/>
          <path class="cls-6" d="M324.01,476.96c-.94,1.03-2.37.8-3.78,1.13l-14.71,3.4c-.83,4.97-.83,9.77-.43,14.92l3.84,49.46c2,17.06,5.1,33.41,9.86,49.84.21.73.56,1.15,1.12,1.47l-.45,11.66-.49,6.72-2.04-7.4-6.81-20.06-5.01-14.05c-.28-.8-.51-1.35-1.24-1.51l.15-4.08-.76-20.67-3.13-54.87-.27-3.84-.5-9.87c-.21-4.11,9.47-1.92,13.18-3.04,1.66-.5,1.89-.06,3.6.12l7.87.7Z"/>
          <path class="cls-13" d="M197.08,686.29c3.48,2.75,7.84,4.1,12.21,4.35-.07.1,0,.57.24.68,3.77,1.55,7.64,1.29,11.64,2.14-6.55,3.6-12.78,6.41-19.62,8.33-6.63,1.86-18.85-1.36-26.11-3.7.03-.11.09-.4-.16-.74-1.2-.51-4.12-2.86-3.26-4.38.98-1.74,2.86-3.2,4.05-4.37,2.45-2.39,4.62-4.85,6.47-8l7.25-11.85,1.78,10.85c.55,3.33,2.49,5.9,5.52,6.68Z"/>
          <path class="cls-10" d="M117.29,530.38l-.36,18.82-.03,104.1.71,16.38,2.74,31.87c.19,2.19.06,4.18,1.2,5.84l-1.53.05c-.61.02-1.28-.1-1.65.47h-1.01s-.19-1.22-.19-1.22l.06-1.87c.05-1.6.52-3.47-.39-4.83l-1.35-28.8-1.02-28.55-.65-35.68-.15-77.32c0-2.22-.29-4.53.44-6.7l.35,6.81c.07,1.32.68,2.37.36,3.99-.18.92,1.05,1.22,1.09.14.38-1.37.56-2.72,1.37-3.49Z"/>
          <path class="cls-10" d="M252.67,650.32l7.22-7.49,8.79-9.89c1.5-1.06,2.46-2.94,3.94-4.4,6.11-9.82,10.74-20.03,14.33-31.14l5.01-40.52.22-7.46.38-10.83.75-30.45-.65-23.12c-.02-.72-.85-1.65.09-2.17,1.56,6.73,1.84,13.69,1.85,20.92l.06,32.66-.54,18.71c-.54,18.76-3.83,51.58-12.61,67.13l-5.17,6.97c-7.11,8-15.15,14.95-23.67,21.08Z"/>
          <path class="cls-13" d="M149.2,690.33c-.25.07-.79-.24-1.37.4l7.31,4.78c8.01,4.43,16.45,6.83,25.55,9.81-9.85,2.02-19.25,1.97-29,2.01l-22.73.1.57-1.54,4.29-2.61,12.59-13.25c.92-.04,1.85.14,2.78.31Z"/>
          <path class="cls-13" d="M249.78,685.13l-9.07,17.83c-.55,1.05-.98,1.93-.35,3.07l-7.33.22c-5.09.15-10.1.58-15.31-.9,10.73-5.83,20.35-11.88,29.73-18.89l2.32-1.33Z"/>
          <path class="cls-3" d="M218.09,690.67c2.11-.67,4.73-1.41,6.59-2.88-5.27-.3-12.59-.81-16.99-1.83-.17-.07-.36-.73-.53-.9,5-.94,11.9-4.24,17.4-3.66l12.38,1.29-9.12,6.77c-.78.58-7.49,2.02-9.74,1.21Z"/>
          <path class="cls-9" d="M266.71,703.1c.91-.23,1.75-.67,2.72-.88.04.29.25.77.49.75l1.54-.12c.82-.07.88,1.39.63,2.1s-.89.98-1.76.86c-2.23-.3-1.37-3.05-3.62-2.7Z"/>
          <path class="cls-14" d="M298.78,498.55c-.78.37-2.65.22-3.02,2.06-.49-.57-.76-2.2-.19-2.79l3.17-3.26c.38.92.74,2.53.03,3.99Z"/>
          <path class="cls-14" d="M300.13,492.9c-.88-1.01-.57-2.56-.27-3.84l.27,3.84Z"/>
          <path class="cls-1" d="M120.02,707.44c-.38.53-1.04.47-1.65.47.37-.57,1.04-.45,1.65-.47Z"/>
          <path class="cls-9" d="M273.7,701.06c-.15.46-.67.5-1.12.51.22-.4.67-.53,1.12-.51Z"/>
          <path class="cls-9" d="M272.16,701.57c-.11.55-.74.64-1.25.63.05-.15.16-.46-.1-.73l1.36.1Z"/>
          <path class="cls-9" d="M264.61,703.62l-.96.06c-.04-.25.07-.41.31-.51.38-.17.69.05.65.46Z"/>
          <path class="cls-15" d="M363.68,541.56c.07.28-.07.68-.08.95l-.15,13.77-4.28,86.58-1.73,21.76-.24,25.34c-.02,2.02-.66,3.49-2.4,4.56l-8.8-8.18c-3.53-3.28-7.24-6.12-11.67-7.67l.4-41.35.59-13.08c8.75-13.23,15.19-27.35,18.98-42.79,3.15-12.85,5.36-25.36,7.08-38.4.55-4.2,2.03-9.3.52-12.11l1.39-7.45.5,11.79c.09,2.14-.67,4.26-.12,6.29Z"/>
          <path class="cls-15" d="M355.68,477.01c4.8,8.52,7.46,17.95,7.82,27.99.17,4.72.69,9.23-.25,13.47-2.6,11.75-6.15,22.89-10.52,34.33l-14.26,37.3-1.85,4.81-3.55,20.37c-1.43-2.17-1.05-4.44-1.03-6.68l.12-17.88,2.32-50.24.47-7.98.88-21.11.43-13.82-.24-20.64,19.66.08ZM336.8,563.4l-.08,14.82c7.31-17.14,12.67-34.68,16.3-53.15-.04-13.64-3.04-26.81-9.94-38.98l-.73,23.7c-.03,9.92-1.39,19.29-3.86,28.8l-1.68,24.82Z"/>
          <path class="cls-10" d="M363.68,541.56c-.55-2.04.21-4.16.12-6.29l-.5-11.79-1.39,7.45-4.5,18.27c-4.4,14.63-10.1,28.6-17.91,41.45l-1.02-.54,14.26-37.3c4.38-11.44,7.92-22.58,10.52-34.33,1.78,4.98,1.2,10.22,1.18,15.65-.01,2.64.74,5.29-.75,7.44Z"/>
          <path class="cls-10" d="M363.46,556.28l.15-13.77c.24.19.46.56.47,1.07l.02,11.69c0,.63-.24,1.01-.64,1.02Z"/>
          <path class="cls-11" d="M321.37,686.69c1.92,0,3.93,2.14,4.2,4.35l2.25,15.18c-.75-.12-1.46.16-2.01.63-1.56.02-2.95.17-4.51-.28-1.75-.5-4.15-.11-5.6-1.5-4.93-4.73-1.37-15.46,5.67-18.39Z"/>
          <path class="cls-6" d="M329.37,685.53c2.02,2.56,1.85,5.67,1.16,8.9-.87,4.08-.98,8.25-2.71,11.79l-2.25-15.18c-.28-2.21-2.28-4.34-4.2-4.35l3.31-1.38c1.59-.66,3.32.22,4.69.22Z"/>
          <path class="cls-12" d="M325.99,477.1l1.11,34,7.39-11.91c.48-.77.59-1.7,1.77-1.61l-.43,13.82-.88,21.11-.47,7.98-2.32,50.24-.12,17.88c-.01,2.24-.4,4.51,1.03,6.68l3.55-20.37c1.68-.76,2-2.83,2.87-4.26,7.81-12.85,13.51-26.82,17.91-41.45l4.5-18.27c1.51,2.81.04,7.91-.52,12.11-1.71,13.05-3.93,25.55-7.08,38.4-3.78,15.44-10.22,29.57-18.98,42.79l-.59,13.08-.4,41.35c-2-.7-4.55-.66-6.68-.75-.28-1.49-.08-4.22-1.1-5.23.84-1.94.98-3.75.87-5.79l-1.78-32.93c-.97-17.87-.51-35.25.64-53.01l.68-10.48-.29-49.85c-1.21,3.15-1.24,6.33-1.56,9.83l-4.56,54.98-.64,11.73c-.55-.32-.9-.74-1.12-1.47-4.76-16.43-7.86-32.77-9.86-49.84l-3.84-49.46c-.4-5.15-.41-9.95.43-14.92l14.71-3.4c1.41-.33,2.84-.1,3.78-1.13.51,0,1.49.3,1.97.14Z"/>
          <path class="cls-3" d="M335.32,706.2l-2.66.55-6.85.11c.54-.48,1.25-.76,2.01-.63,1.73-3.54,1.84-7.71,2.71-11.79.69-3.23.86-6.34-1.16-8.9,3.19.01,5.24,1.05,7.48,3.18,3.59,3.41,5.47,8.48,3.35,13.38-.82,1.89-2.9,3.69-4.87,4.11Z"/>
          <path class="cls-12" d="M99.35,479.64c.43,1.82,2.14,2.79,3.88,3.25l-.32,44.15-.06,65.79.14,7.29.42,19.7.66,25.8,1.87,49.6c.12,3.25.6,6.17.03,9.11-1.03-.15-1.72.57-1.86,1.61l-2.15-.08c-.22-1.38-.95-3.64-2.61-4.06l-3.07.25-.25-9.84-1.14-28.47-.29-16.66-.03-10.49-.24-7.92-.3-29.56c0-.67-.11-1.19-.54-1.52.24-.64.56-1.42.56-2.14l.14-23.29c0-.6-.22-1.01-.77-1.25.34-.37.88-1.26.9-2.03l.26-12.52.3-16.72.13-11.15c0-.2-.27-.28-.6-.26.46-.98.82-2.48.87-3.82l.25-7.59,1.46-23.67.33-11.98c.02-.65.99-1.54,1.47-1.87.18.05.48.23.54.38Z"/>
          <path class="cls-11" d="M101.95,705.84l-2.47-.52-3.26-1.97.05-1.32,3.07-.25c1.66.42,2.39,2.67,2.61,4.06Z"/>
          <path class="cls-11" d="M116.83,699.98c.08,1.61-.35,3.36.39,4.83l-.06,1.87c-2.16,1.08-5.06.86-7.18-.23l-.47-5.4-1.54-29.68-.44-16.06-.56-19.97-.53-30.12-.26-32.04.06-26.36c.52-.19.71-.59.93-1.22l4.35-12.05c.54-1.5,1.2-2.83,2.14-3.93l.15,77.32.65,35.68,1.02,28.55,1.35,28.8Z"/>
          <path class="cls-6" d="M107.33,483.25c-.79,3.02-.03,6.25-.24,9.22l-.45,6.27-.39,48.09-.06,26.36.26,32.04.53,30.12.56,19.97.44,16.06,1.54,29.68.47,5.4-1.52-.78c-.81-.42-1.59-.44-2.07.07-.12-.4-.47-1.02-.42-1.43.57-2.93.09-5.85-.03-9.11l-1.87-49.6-.66-25.8-.42-19.7-.14-7.29.06-65.79.32-44.15c1.33.35,2.85.78,4.1.35Z"/>
          <path class="cls-11" d="M105.96,704.32c-.04.4.31,1.02.42,1.43-.71.75-1.46.46-2.28.18.13-1.03.83-1.75,1.86-1.61Z"/>
          <path class="cls-8" d="M95.54,516.79l-.25,7.59c-.04,1.34-.41,2.84-.87,3.82-2.87,6.13-6.42,11.6-11.12,16.81-2.49,2.08-4.51,4.72-8.08,5.96,5.28-6.22,10.08-12.06,13.26-19.34l6.11-14c.24-.56.56-.84.95-.83Z"/>
          <path class="cls-4" d="M94.56,636.57c-.56.06-.88.32-1.11.92-2.81,7.33-6.88,13.96-12.47,19.14-.81-1.2.13-2.15.81-3.33,7.06-12.39,7.26-21.99,8.3-35.57l1.76-12.02c-1.46,1.86-1.97,2.88-3.6,3.93l-3.65,2.35c3.89-4.3,6.89-9.11,8.88-14.45.43.34.53.86.54,1.52l.3,29.56.24,7.92Z"/>
          <path class="cls-10" d="M93.49,597.55c-2,5.34-5,10.15-8.88,14.45-1.39.9-2.68,2.91-4.67,3.03l4.9-7.29c2.95-4.38,5.6-8.79,9.22-12.33,0,.72-.32,1.5-.56,2.14Z"/>
          <path class="cls-2" d="M198.96,483.58l1.2.45c-7.88,30.4-7.98,62.83-8.62,94.28l.14,29.8c.1,19.99,1.41,39.57,4.09,59.3l3.13,15.58c-1.06,1.1-1.7,2.13-1.83,3.29-3.03-.78-4.97-3.35-5.52-6.68l-1.78-10.85-2.45-53.89v-68.38c.01-20.09,1.5-39.73,3.1-59.28,2.49-2.34,5.23-3.23,8.52-3.63Z"/>
          <path class="cls-15" d="M190.44,487.21c-1.6,19.55-3.09,39.18-3.09,59.28v68.38s2.44,53.89,2.44,53.89l-7.25,11.85c-1.85,3.16-4.02,5.61-6.47,8,.25-2.75-.42-5.36-.46-8.16l-.47-27.97.06-23.16.58-31.5.45-24.61.53-20.44.87-40.84-.59-21.67c-.07-2.45-.85-4.67-.56-6.9,5.8.7,9.15,2.69,13.97,3.85Z"/>
          <path class="cls-12" d="M293.3,508.14l-.75,30.45-.38,10.83-.22,7.46-5.01,40.52c-3.59,11.11-8.22,21.32-14.33,31.14-1.48,1.46-2.44,3.34-3.94,4.4l-4.45,3.15-2.85,2.43-15.02,11.4c-.72.55-1.53.83-2.16,1.06-.55-.5-.74-1.15-.84-2.12-1.93-18.53-2.11-36.85-1.94-55.54l.16-17.5.68-15.15c.79-17.75,1.73-35.1,4.23-53.22l22.27,17.83,4.38,3.18c3.28-1.84,5.56-4.41,8.14-6.89,3.78-3.62,7.05-7.33,9.85-11.78.56-.9,1.24-1.6,2.17-1.65Z"/>
          <path class="cls-10" d="M292.74,481.34c-.57-.1-.7-.7-.52-1.23.16.09.46.22.52.38s.03.65,0,.85Z"/>
          <path class="cls-15" d="M145.5,484.19l1.49,2.48.38,22.66-.73,19.25-.6,15.52-.55,17.5-.33,49.07-.3,24.88-.16,22.17-.44,6.05c-3.62-4.52-6.62-9.5-11.1-13.34-1.39-1.19-2.42-2.76-4.57-3.22l14.91,24.02c.43.69.66,1.16,1.24,1.28l.79,14.67.88,2.82-12.59,13.25-4.29,2.61c-2.69-16.15-3.84-32.41-4.56-48.93l.17-12.93-1.11-46.54.43-63.59.32-43.12.43-8.1c6.89-.93,13.65-.21,20.29,1.52Z"/>
          <path class="cls-2" d="M336.02,476.93l.24,20.64c-1.18-.08-1.29.84-1.77,1.61l-7.39,11.91-1.11-34c3.4-1.11,6.65-.18,10.04-.17Z"/>
          <path class="cls-16" d="M117.87,506.56l-.33,12.35-.25,11.47c-.82.77-1,2.12-1.37,3.49-.04,1.09-1.27.78-1.09-.14.31-1.62-.3-2.67-.36-3.99l-.35-6.81.08-30.39.45-6.49c.39-.04.89.03,1.16.21.34.23.51.73.57,1.35l.84,7.9c-.49,4.35-1.55,8.54-.57,12.89l.49,6.73.35-8.3c0-.18.27-.29.4-.27ZM117.06,518.21c.51-1.03.45-1.55.16-2.2-.67.68-.53,1.65-.16,2.2Z"/>
          <path class="cls-3" d="M153.29,486.23c-2.75,7.16-4.41,14.63-5.34,22.4-.04.37-.32.59-.58.71l-.38-22.66-1.49-2.48c2.45.64,5.14.81,7.79,2.04Z"/>
          <path class="cls-11" d="M108.44,482.87h3.11c2.09,0,3,1.1,3.08,3.19l-.45,6.49c-2.31.51-4.55-.11-7.09-.08.21-2.97-.55-6.2.24-9.22l1.11-.38Z"/>
          <path class="cls-13" d="M326.55,672.68c-2.91-2.43-4.71-5.78-5.18-9.73l-2.45-20.25-.23-18.29.27-8.86.49-6.72.45-11.66.64-11.73,4.56-54.98c.32-3.49.35-6.68,1.56-9.83l.29,49.85-.68,10.48c-1.15,17.76-1.61,35.14-.64,53.01l1.78,32.93c.11,2.04-.02,3.85-.87,5.79Z"/>
          <path class="cls-10" d="M144.26,663.78l.49,8.75c-.58-.12-.81-.59-1.24-1.28l-14.91-24.02c2.15.46,3.18,2.03,4.57,3.22,4.48,3.84,7.48,8.82,11.1,13.34Z"/>
          <path class="cls-2" d="M114.18,492.55l-.08,30.39c-.73,2.17-.44,4.48-.44,6.7-.94,1.09-1.59,2.42-2.14,3.93l-4.35,12.05c-.23.63-.41,1.03-.93,1.22l.39-48.09.45-6.27c2.55-.03,4.78.59,7.09.08Z"/>
          <path class="cls-1" d="M117.22,704.82c-.74-1.47-.31-3.22-.39-4.83.91,1.37.44,3.23.39,4.83Z"/>
          <path class="cls-12" d="M336.8,563.4l1.68-24.82c2.47-9.51,3.83-18.88,3.86-28.8l.73-23.7c6.91,12.17,9.91,25.34,9.94,38.98-3.62,18.47-8.98,36.01-16.3,53.15l.08-14.82Z"/>
          <path class="cls-1" d="M339.5,590.65c-.87,1.43-1.19,3.5-2.87,4.26l1.85-4.81,1.02.54Z"/>
          <path class="cls-14" d="M117.06,518.21c-.37-.55-.51-1.52.16-2.2.29.65.35,1.17-.16,2.2Z"/>
        </g>
      </g>
      <g>
        <path class="cls-13" d="M282,132.69l.78.42c1.77.94,5.04,1,6.4,2.94,1.97,2.83,2.35,6.6,2.77,9.98l2.8,22.45.75,9.4c.54,6.69,1.14,13.59,4.03,19.78,1.69,3.62,5.72,5.75,9.02,7.84l31.06,19.67c10.67,7.43,17.88,18.33,22.48,30.27l6.19,16.07,5.93,20.38c2.42,12.2,4.73,24.01,4.77,36.49l.16,47.73-.67,17.83-1.79,41.12-10.57-.29-3.2-.9-.03-1.68c0-.44.09-.97-.41-1.17.38-1.52-.4-3.02-.68-4.21l-1.34-5.72c-2.48-10.56-12.66-17.24-23.48-17.75,3.94-.05,9.16-1.15,10.2-3.8,6.41,2.06,12.5,5.07,18.4,9.03-1.85-6.96-4.55-13.05-8.16-18.62,2.15-.8,3.58-2.5,4.55-4.28.82-.06,1.84-.13,2.18-.69.46-.76.66-1.69.27-2.83-3.1-8.93-7.59-17.13-13.87-24.16-1.73-1.94-3.82-3.17-5.1-5.79,4.71.57,8.88,2.09,12.62,4.63l12.33,8.38.85-15.55c.76-13.83.4-27.41-1.28-41.18-.91-7.45-3.07-14.25-5.03-21.38l-5.71-20.75c-3.78-13.75-16.5-30.14-28.69-22.56-4.16,2.59-8.32,6-10.39,10.66l-11.07,24.91-8.77,25.62c-3.76,10.97-20.15,25.76-31.24,31.58l-28.39,14.89c-4.82,2.53-10,3.36-14.96.79l-26.42-13.68c-.48-.25-.61-.66-.68-1.02l6.8,1.71,17.12,3.57c4.95,1.03,7.87,7.17,12.9,3.39l15.95-11.98c2.78-2.09,5.34-4.18,7.17-7.15l9.27-14.97c5.36-10.69,9.29-21.55,13.02-32.94l17.76-32.93c5.79-10.73,9.65-21.85,12.8-33.92-3.76-.55-6.8-1.89-9.94-3.3-3.64-1.63-5.37-4.21-7.2-8.27l-1.22,16.5c-1.18,16.05-4.52,31.33-9.3,46.71-6.14,19.78-15.71,41.01-32.01,53.54l-.32-13.21-2.27-34.9-.17-6.85c1,.34,1.29,1.19,1.44,2.19l1.84,12.72,3.57,32.88c1.43-3.56,2.89-7.23,2.72-11.09l-.94-21.94-.78-11.6c-.05-.68-.03-1.47.41-2.14,1.41.55,1.64,1.83,1.81,3.07l3.38,25.18c1.52-5.64,2.3-11.03,2.14-16.52l-.35-12.27c-.04-1.49.3-2.92,1.46-3.78,1.21,2.34.84,4.55,1.47,7.04.48-2.84.57-5.48,1.53-8.33l4.3-12.78c1.72,3.42.02,6.56,1.47,9.89,5.74-19.78,10.38-38.93,13.91-58.82-.15-13.94-.38-27.3-2.33-41.02-1.06-7.89-2.75-15.12-5.82-22.12.43-.15.58-.36.73-.56.33.1.75.14,1.09.15ZM364.82,385.87c-.07.43.45.86.61.75.26-.17.26-.56.21-.76-.1-.34-.74-.48-.82,0Z"/>
        <path class="cls-2" d="M96.28,284.02l-5.39,47.16c-.64,5.62-.66,10.82-.22,16.43.09,1.15-.5,2.23-1.31,2.44-10.91-4.09-21.56-2.61-27.27,8.83,4.74-2.14,8.7-2.19,13.28-2.05,1.31,1.25,3.4,1.09,4.93,1.92,6.24,3.37,9.92,9.59,11.32,16.23l1.89,17.26.38,6.01c-9.02-3.65-17.64-8.2-26-1.28-6.18,5.12-12.28,15.04-11.74,22.66-.3.54-.74,1.06-.93,1.91l6.59-3.19c2.76-1.34,5.64-2.65,8.69-2.94l3.58-.34,4.61,8.19,3.83,7.75c-.71-.16-2.34-.58-2.92.28-2.75,4.13-4.18,8.77-4.98,13.63l-1.47,8.95-3.38-.43c-1.71-.22-2.92.28-3.67,1.54l-.63-4.44c.08-6.67,2.14-13.47,4.55-20.07-.87-1.28-3.78-.96-4.51.48-3.81,7.57-5.08,15.75-5.15,23.91-2.37-.53-4.56-1.8-7.01-1.48.02-.37-.36-.88-.59-1.2-.23-7.19,1.09-14.64,4.31-21.55-1.43-.21-3.2.37-3.88,1.72-3.45,6.84-4.46,14.3-4.22,21.98.04,1.15-.6,2.05-1.65,2.32l-3.49.9-1.3-3.48c-1.62,3.25-2.99,5.76-5.89,7.36-3.48-9.74-2.79-22.91,5.68-27.15,1.27-.64,2.51-.5,3.11-1.55.71-1.24.38-2.33.5-3.82l4.66-58.9c1.15-14.57,2.09-28.61,5.27-42.88l6.24-28.03,9.28-27.06c5.22-15.23,16.88-30.73,28.63-41.37-.83,4.8-1.27,9.38-1.55,14.43l-2.18,38.93Z"/>
        <path class="cls-2" d="M122.55,214.72c-4.18,15.57-6.8,31.06-8.51,47.22-1.34,12.67-2.51,24.81-1.8,37.49l.4,4.24.36,21.72,1.1,25.9,2.6,39.26c.25,3.78.8,7.08.36,10.94-.62,5.46-4.09,3.42-4.43,6.32l-1.56,1-2.73,1.16-.42-22.28-.25-12.52c-1.47-7.22-.76-14.43-3.27-21.68.71,10.29,1.6,19.94,1.27,30.07l-.77,23.18-4.32-1.24-1.04-12.68-1.51-18.06-.51-8.6c-1.2-20.05-1.28-39.8-.52-59.89l.84-22.1,1.73-26.21c.68-10.36,1.77-20.35,4.03-30.21.01-.28.09-.98.48-1.29,5.78-4.64,11.88-8.85,18.47-11.74ZM113.78,226.45c1.33-.46,1.65-1.75,1.31-2.67-.28-.77-1.46-.93-2.41-.78-1.26.2-1.84,1.33-1.72,2.27.15,1.16,1.37,1.67,2.82,1.18ZM110.72,236.04c1.73-.29,2.17-2.1,1.7-3.26s-2.03-1.11-3.19-.6c-1.22.54-1.58,1.42-1.26,2.49.27.91,1.27,1.62,2.75,1.37ZM110.62,244.87c0-1.2-.98-2.18-2.18-2.18s-2.18.98-2.18,2.18.98,2.18,2.18,2.18,2.18-.98,2.18-2.18ZM108.81,258.15c.77-1.01.41-2.64-.53-3.16-1.1-.61-2.55-.12-3.15,1.07-.57,1.13-.27,2.46.67,2.91,1.02.49,2.22.21,3.01-.83ZM108.04,270.7c0-1.15-.93-2.08-2.08-2.08s-2.08.93-2.08,2.08.93,2.08,2.08,2.08,2.08-.93,2.08-2.08ZM103.97,287.78c1.11,1.09,2.67.32,3.1-.46.62-1.1.57-2.72-.62-3.27-1.09-.51-2.24.12-2.59.77s-.61,2.25.11,2.96ZM107.34,302.11c0-1.18-.96-2.14-2.14-2.14s-2.14.96-2.14,2.14.96,2.14,2.14,2.14,2.14-.96,2.14-2.14ZM105.18,320.79c1.72.31,2.69-1.51,2.38-2.94-.25-1.2-1.71-2.42-2.98-1.65-.96.58-1.28,1.76-1.45,2.64-.15.81.79,1.72,2.04,1.94ZM107.72,334.36c.06-1.27-.38-2.17-1.35-2.46s-1.97.03-2.65,1.03c-.62.91-.43,2.05-.02,2.71.6.96,1.72,1.06,2.68.74.77-.26,1.29-.94,1.34-2.02ZM104.08,350.48c-.07.77-.11,1.23.15,1.57.51.64,1.15.78,1.9.64,1.09-.2,1.95-.71,2.15-1.77.28-1.46-.56-2.74-1.79-2.86-1.41-.14-2.28.94-2.42,2.42ZM112.05,366.01c0-1.22-.99-2.22-2.22-2.22s-2.22.99-2.22,2.22.99,2.22,2.22,2.22,2.22-.99,2.22-2.22ZM112.96,381.27c0-1.14-.92-2.06-2.06-2.06s-2.06.92-2.06,2.06.92,2.06,2.06,2.06,2.06-.92,2.06-2.06ZM114.19,395.84c0-1.25-1.02-2.27-2.27-2.27s-2.27,1.02-2.27,2.27,1.02,2.27,2.27,2.27,2.27-1.02,2.27-2.27Z"/>
        <path class="cls-15" d="M124.19,213.9c1.03,1.87.73,4.03.28,5.95-3.29,14.23-4.18,28.58-4.76,43.42l-.09,41.37.27,8.11c.02.52.39,1.04.65,1.01l.12,23.21,1.49,28.07.07,7.9.45,9.55,1.21,19.93,1.21,19.29-4.53.23-.52-1.96c.3-.52.66-1.07.59-2.16l-5.89-89.14-.5-11.72c-.21-5,.29-11.64-1.59-13.26l-.4-4.24c-.71-12.68.46-24.82,1.8-37.49,1.71-16.16,4.32-31.65,8.51-47.22.48-.21,1.14-.57,1.63-.83Z"/>
        <path class="cls-14" d="M95.17,441.08v1.6c-.49.19-.51.61-.53,1.06l-.61,13.48c-.15,3.28-.23,6.71.97,9.86.45,4.13,1.44,10.8,3.89,11.41l-.09.77c-.49.33-1.45,1.22-1.47,1.87-2.67.91-5.25.16-7.88.13l-18.59-.21c-4.37-.05-8.61-.52-12.41-2.12-2.76-1.17-5.05-3.39-6.21-6.09,8.07,2.49.45-6.11,2.07-12.71.94,3.97,2.17,8.06,4.17,11.75.67,1.24,1.88,1.31,2.68,1.75,1.96,1.09,4.29.98,6.73.45l-1.73-6.71c-.98-3.83-1.41-7.42-.21-11,0,.28.34.59.61.53.27,5.29,1.6,10.59,3.3,15.77.32.96,1.57,1.06,2.1,1.3,2.42,1.1,5.74,1.4,8.37-.26-1.99-3.99-2.22-8.33-2.23-12.52.53-.67.52-1.63,1.32-2.11l2.08,13.12c.13.84.81,1.51,1.45,1.75,2.47.93,5.69,1.05,8.4-.26l.28-15.68c.05-2.95-.01-5.83.96-8.38l.63-3.67c.26-1.51,1.11-2.64.91-4.36-.06-.5.79-.74,1.04-.52Z"/>
        <path class="cls-2" d="M376.68,435.07c2.51.07,3.7,3.2,3.74,5.48l.08,5.81c-.57-.05-.64,1.76-1,4.16l-11.21.06h-1.57s-.69-11.5-.69-11.5l.06-3.22c0-.3,0-.73.02-1.08l10.57.29Z"/>
        <path class="cls-6" d="M52.74,452.18c-.87.08-.78,1.21-.89,2.09-.68,5.44.18,10.66,1,16.01.16,1.02-.3,1.73-1.02,2.1-.99-.03-2.11-.53-2.76-1.58-2.57-4.16-4.47-8.67-5.26-13.25l3.49-.9c1.04-.27,1.68-1.17,1.65-2.32-.24-7.68.77-15.13,4.22-21.98.68-1.35,2.46-1.93,3.88-1.72-3.23,6.92-4.54,14.36-4.31,21.55Z"/>
        <path class="cls-11" d="M103.61,227.75c-2.26,9.86-3.34,19.84-4.03,30.21l-1.73,26.21-1.57-.15,2.18-38.93c.28-5.04.72-9.63,1.55-14.43,1.07-.97,1.61-2.92,3.61-2.91Z"/>
        <path class="cls-10" d="M128.36,217.38l-3.89,2.47c.45-1.93.74-4.08-.28-5.95l9.34-4.91c3.15-1.66,6.2-3.24,8.68-5.59l-.27,6.16c-3.37,1.46-6.24,3.35-9.36,5.25l-4.22,2.57Z"/>
        <path class="cls-16" d="M52.74,452.18c.22.32.61.83.59,1.2-.08,1.24.13,2.42.41,3.64.22.95.8,2.15.57,3.12-1.61,6.6,6,15.2-2.07,12.71-.11-.13-.34-.28-.41-.46.72-.37,1.18-1.08,1.02-2.1-.83-5.35-1.68-10.57-1-16.01.11-.88.02-2.01.89-2.09Z"/>
        <path class="cls-1" d="M380.99,457.02c.09-1.6.23-3.24-.24-4.86l-.88,1.64.63-7.44-.08-5.81c.77.59.86,1.59.94,2.71.35,4.77.69,9.37-.37,13.76Z"/>
        <path class="cls-13" d="M380.99,457.02l-.08,1.43c-.56.29-.97.69-1.23,1.82-.43-.56-.43-1.23-.4-1.89.15-.38.07-1,.07-1.41.7-.3.43-1.1.45-1.7l.07-1.47.88-1.64c.48,1.62.34,3.26.24,4.86Z"/>
        <path class="cls-12" d="M155.18,292.93c-.34,1.71.51,2.68,1.06,3.99,1.3,3.09,2.63,6.19,4.35,9.2.48.83.14,2.61,1.73,2.86.95,2.44,2.87,4.8,5.24,5.94-.17.99.46,1.77.89,2.39l1.71,2.48c2.66,3.85,6.06,7.67,10.54,9.82l12.71,6.1,5.17,1.84c.07.36.2.77.68,1.02l26.42,13.68c4.96,2.57,10.14,1.73,14.96-.79l28.39-14.89c11.1-5.82,27.49-20.6,31.24-31.58l8.77-25.62,11.07-24.91c2.07-4.66,6.23-8.07,10.39-10.66,12.19-7.58,24.91,8.81,28.69,22.56l5.71,20.75c1.96,7.13,4.12,13.94,5.03,21.38,1.68,13.77,2.03,27.35,1.28,41.18l-.85,15.55-12.33-8.38c-3.74-2.54-7.91-4.06-12.62-4.63,1.28,2.61,3.37,3.85,5.1,5.79,6.28,7.03,10.77,15.24,13.87,24.16.39,1.14.19,2.07-.27,2.83-.62.06-1.64.2-2.38-.17l-12.32-6.21-2.73-1.39c-8.76-4.46-18.64-6.26-28.71-4.96-5.6.73-11.25,1.27-16.39,3.84-8.19,4.08-15.46,9.51-21.74,16.13-7.66,8.07-14.02,16.67-20.07,25.93-.67,1.02-1.55,1.69-1.33,2.73l-14.18-1.08c12.29-15.48,26.45-28.68,41.95-41.02l-5.93-8.81c6.19-4.17,12.72-8.16,19.9-11.18,12.02-5.05,27.75-5.87,41.1-7.77-10.02-5.24-36.95-2.86-45.56,1.24-11.8,5.62-22.79,12.14-33.31,20.03l-15.46,14.03c-10.01,1.44-19.5,4.19-28.99,8.09-12.48,5.13-22.93,13.02-32.48,22.56l13.87-3.8,32.82-9.02c-.15,1.46-1.24,2.55-2.12,3.85l-6.2,9.11c-.53.79-.85,1.54-.87,2.3l-12.28-.19-32.71.09-36.25,1.55c-.14.21-.46.17-.66.17l-16,.67-1.21-19.29-1.21-19.93-.45-9.55-.07-7.9c1.99,14.85,4.12,29.7,7.3,45.04l19.6,1.28,16.55-1.18,6.96-7.42,21.46-21.79,9.3-11.25-35.32-9.61-4.2-11.95-5.65-19.18-8.36-26.02c-6.8-21.17-9.01-42.94-9.46-65.11-.16-7.87-.51-15.5,1.38-23.15,2.19,24.53,5.64,47.91,11.22,71.44l2.25,6.78Z"/>
        <path class="cls-11" d="M128.36,217.38c.29,1.93-.53,3.53-1.14,5.35-2.74,8.12-3.82,16.35-4.19,25.01l-1.52,35.39c-.43,10.02-.83,19.61-.4,29.57.02.46-.41.92-.56,1.07-.26.04-.63-.49-.65-1.01l-.27-8.11.09-41.37c.58-14.84,1.47-29.19,4.76-43.42l3.89-2.47Z"/>
        <path class="cls-7" d="M198.59,337.54l-5.17-1.84c.24-1.03-.97-1.12-1.72-1.7l-8.37-6.6c-.56-.6-.17-1.13.71-.9l2.5.49c1.7.35,3.37,1.28,5.16,1.56l3.75.59,6.41.98,2.65.02,7.61.07h2.5s6.95-.63,6.95-.63l3.46-.53,2.14-.48,6.01-1.46,2.56-.93c2.12-.77,4.7-1.06,6.31-2.73.28-.03.61-.28.58-.6,1.36.31,2.19-1,3.12-1.4,2.25-.97,4.06-2.47,5.96-3.93,16.3-12.53,25.87-33.77,32.01-53.54,4.77-15.38,8.11-30.66,9.3-46.71l1.22-16.5c1.83,4.07,3.56,6.65,7.2,8.27,3.15,1.41,6.19,2.75,9.94,3.3-3.16,12.07-7.02,23.19-12.8,33.92l-17.76,32.93c-3.73,11.39-7.66,22.26-13.02,32.94l-9.27,14.97c-1.83,2.96-4.39,5.06-7.17,7.15l-15.95,11.98c-5.03,3.78-7.95-2.35-12.9-3.39l-17.12-3.57-6.8-1.71Z"/>
        <path class="cls-2" d="M320.71,405.48c.92,3.83-.43,7.21-2.9,10.96,11.59-3.36,26-2.66,36.69,1.47l5.94,3.2,1.34,5.72c-1.04.56-1.52,1.6-1.83,2.77l-.95,3.59c-.88-.03-1.31.41-1.7,1.17l-2.88,5.63-2.06,3.34-.11-15.92c-.01-1.63-.8-2.6-2.41-3.25l-2.23-.91-1.01,27.88c-.04,1.15-.73,1.31-1.29,1.74l-5.57-.13c-.45-1.39.09-2.76.08-4.13l-.16-23.8c-.01-1.65-3.68-2.18-4.39-.98l-.82,27.91c-1.83,2.46-4.76,3.48-7.59,3.64l-.09-6.94.51-3.61-.88-20.45c-.34-1.15-3.85-1.02-4.15.13-.61,2.38.06,4.72.02,7.1l-.24,12.66c-.05,2.93.02,5.58-.73,8.52-3.6,3.11-6.08,2.33-7.31,3.52-.89.87-1.05,1.8-1.5,3.53l-.05-12.47-1-21.77c-.65-.86-2.61-.77-3.37-.78.72-7.82,5.71-16.84,12.63-19.32Z"/>
        <path class="cls-11" d="M336.97,403.35c10.82.52,21,7.19,23.48,17.75l-5.94-3.2c-10.7-4.13-25.11-4.83-36.69-1.47,2.47-3.75,3.82-7.13,2.9-10.96l4.89-1.75c3.75-.65,7.6-.56,11.36-.38Z"/>
        <path class="cls-11" d="M346.65,378.3c2.36.35,8.4,8.03,10.75,11.66,3.61,5.58,6.31,11.66,8.16,18.62-5.9-3.97-11.99-6.97-18.4-9.03-.11-.09-.37-.24-.53-.25-2.7-6.8-6.03-14-10.25-20.33-.54-.82-.98-1.45-.86-2.33l11.12,1.66Z"/>
        <path class="cls-6" d="M362.47,431.03c-.08.33.19.91.41,1.17l.03,1.68-.03.8c-.57.82-.64,1.99,0,2.78-.11.66-.1,1.32-.02,1.99-.69,1.49-.36,3.24-.31,4.89-.68,1.26-.43,2.81-.74,4.14l-4.93,20.91-6.34,1.47.36-7.56.04-5.06c.74-1.24.95-2.37.95-3.91,1.51-1.26,3.55-1.7,5.59-2.23l.83-7.84.7-11.07.95-3.59c.31-1.17.79-2.21,1.83-2.77.28,1.18,1.06,2.68.68,4.21Z"/>
        <path class="cls-14" d="M366.11,434.78c-.02.36-.02.78-.02,1.08-.72.87-.65,2.29-.06,3.22l.69,11.52.52,10.07c.07,1.39.74,2.93,2.18,2.96l6.16.09.62.1-.09.48c-.02.12-.08.32-.05.44-2.07.51-4.31.5-6.72.52l-8.08-.05,1.24-14.56c.09-1.01.04-1.82-.69-2.18.31-1.33.06-2.88.74-4.14.8-1.48.5-3.24.31-4.89-.08-.67-.09-1.33.02-1.99.15-.92.15-1.86,0-2.78l.03-.8,3.2.9Z"/>
        <path class="cls-8" d="M346.64,399.3c.16,0,.42.16.53.25-1.04,2.65-6.27,3.75-10.2,3.8-3.76-.18-7.61-.27-11.36.38-.65-.09-1.39-.4-1.7-1.21-1.05-2.74-3.94-.59-5.72-2.57l.07-.61c9.37-1.6,19.02-1.31,28.39-.03Z"/>
        <path class="cls-1" d="M364.12,384.99c-.34.56-1.36.63-2.18.69-.97,1.78-2.39,3.48-4.55,4.28-2.36-3.64-8.39-11.31-10.75-11.66l.04-1.08,2.73,1.39,12.32,6.21c.73.37,1.76.24,2.38.17Z"/>
        <path class="cls-1" d="M364.82,385.87c.08-.49.72-.35.82,0,.06.2.05.59-.21.76-.17.11-.68-.32-.61-.75Z"/>
        <path class="cls-1" d="M362.89,432.2c-.22-.26-.5-.83-.41-1.17.5.2.41.73.41,1.17Z"/>
        <path class="cls-15" d="M97.85,284.17l-.84,22.1c-.76,20.09-.68,39.85.52,59.89l.51,8.6,1.51,18.06,1.04,12.68.32,4.06-1.78-6.27-6.29-26.98c-.19-.81-.61-1.27-1.24-1.34-1.4-6.63-5.07-12.86-11.32-16.23-1.53-.83-3.62-.66-4.93-1.92,2.38.07,5.02-1.7,7.58-1.14,2.85.19,4.86,1.64,7.19,3.85l-.78-9.49c.81-.21,1.41-1.29,1.31-2.44-.44-5.61-.42-10.81.22-16.43l5.39-47.16,1.57.15Z"/>
        <path class="cls-11" d="M93.89,398.24l.6,15.49c-3.13-1.4-6.03-3.76-9.49-4.27-11.65-1.75-22.9-.38-28.86,10.17-.53-7.62,5.56-17.54,11.74-22.66,8.36-6.92,16.98-2.37,26,1.28Z"/>
        <path class="cls-12" d="M77.85,414.73l7.23,1.01c3.6.5,9.56,4.22,11.16,7.37l-2.72,4.23-5.6,16.58c-1.27,3.75-1.7,7.5-2.05,11.44-2.62.02-4.59-.04-6.52.48l-.23-5.9c.51-5.45,1.65-10.81,3.42-16.22.37-1.13.36-1.91-.04-2.72l-3.83-7.75-4.61-8.19c1.23-.12,2.55-.51,3.79-.33Z"/>
        <path class="cls-6" d="M82.5,431c.4.81.41,1.59.04,2.72-1.78,5.41-2.91,10.77-3.42,16.22-2.23,1.61-1.95,4.54-2.11,6.94l-1.1,16.07-3.95,1.01c-.53-.24-1.79-.34-2.1-1.3-1.7-5.18-3.03-10.47-3.3-15.77l4.67-1.13c1.37-.33,1.73-.85,1.9-1.9l1.47-8.95c.8-4.86,2.23-9.5,4.98-13.63.57-.86,2.21-.44,2.92-.28Z"/>
        <path class="cls-6" d="M65.45,450.53c-.71.51-1,1.53-1.12,2.59-.71,6.41-.7,12.66-.28,19.26-.88.69-1.95.73-2.9,1.24-.8-.44-2.01-.52-2.68-1.75-2-3.69-3.23-7.78-4.17-11.75.24-.96-.35-2.16-.57-3.12l5.45-1.21c.5-.11,1.14-.54,1.14-.94.07-8.16,1.35-16.34,5.15-23.91.73-1.44,3.63-1.77,4.51-.48-2.41,6.6-4.46,13.4-4.55,20.07Z"/>
        <path class="cls-9" d="M100.92,409.57l1.34,8.28c-1.16,1.79-2.69,3.17-3.17,5.29l-1.25-.21c.41-3.94-2.1-6.06-3.35-9.2l-.6-15.49-.38-6.01-1.89-17.26c.63.08,1.05.53,1.24,1.34l6.29,26.98,1.78,6.27Z"/>
        <path class="cls-12" d="M89.36,350.05l.78,9.49c-2.33-2.21-4.34-3.66-7.19-3.85-2.56-.57-5.2,1.21-7.58,1.14-4.57-.14-8.54-.09-13.28,2.05,5.7-11.44,16.35-12.92,27.27-8.83Z"/>
        <path class="cls-9" d="M85,409.45c.08.6-.28,1.09-1.1,1.33l-4.53,1.35c.16-.5-.08-.93-.41-1-.28-.06-.9-.24-1.18-.17-2.97.73-5.4.15-7.96.12-3.34-.05-7.88,2.77-8.02,7.26l-6.59,3.19c.19-.85.63-1.38.93-1.91,5.96-10.55,17.21-11.92,28.86-10.17Z"/>
        <path class="cls-5" d="M66.08,454.98c.06.4,0,1.02-.13,1.39-1.2,3.58-.78,7.17.21,11l1.73,6.71c-2.44.53-4.77.64-6.73-.45.94-.51,2.02-.55,2.9-1.24-.42-6.6-.43-12.85.28-19.26.12-1.06.41-2.08,1.12-2.59l.63,4.44Z"/>
        <path class="cls-16" d="M69.82,411.08c-.03,1.28-.51,3.13.67,4.32-3.05.29-5.93,1.6-8.69,2.94.14-4.49,4.68-7.31,8.02-7.26Z"/>
        <path class="cls-8" d="M79.37,412.13c-1.12.33-1.87,1.45-1.51,2.59-1.24-.17-2.56.22-3.79.33l-3.58.34c-1.18-1.19-.7-3.04-.67-4.32,2.55.04,4.99.61,7.96-.12.28-.07.91.12,1.18.17.33.07.57.5.41,1Z"/>
        <path class="cls-11" d="M73.13,453.87c-.17,1.05-.53,1.57-1.9,1.9l-4.67,1.13c-.26.06-.62-.24-.61-.53.12-.37.18-.99.13-1.39.75-1.26,1.96-1.76,3.67-1.54l3.38.43Z"/>
        <path class="cls-11" d="M60.34,454.86c0,.4-.64.83-1.14.94l-5.45,1.21c-.28-1.22-.49-2.4-.41-3.64,2.45-.31,4.64.95,7.01,1.48Z"/>
        <path class="cls-14" d="M339.75,452.71c.1.26-.08.75-.09,1-.49.48-.44,1.19-.32,1.82s.08,1.3-.05,1.89l.04,2.2-.95,10.9c-.04.49,1.14.7,1.49.81,1.88.6,5.58.83,7.76-.13,2.66-1.18,1.2-9.37,3.32-12.96l-.04,5.06-.36,7.56c2.51.52,5.38.76,7.82-.05.74-.25,1.32-1.65,2.07-1.65-.33,4.17-.84,7.87-4.76,7.86l-19.66-.08c-3.38-.01-6.63-.95-10.04.17-.48.16-1.46-.15-1.97-.14l-7.87-.7c-1.72-.17-1.95-.62-3.6-.12-3.71,1.12-13.38-1.06-13.18,3.04-1.47-1.09-4.15-1.72-5.21.29-.38.72-.33,1.89-1.42,1.86.03-.2.05-.68,0-.85s-.35-.29-.52-.38c-.33-1.85-2.22-3.51-4.42-3.49l-16.7.13-19.26.46c-2.9.07-5.39,1.27-7.06,3.64-2.56,3.64-4.38,7.53-5.68,11.78-.09.28-.67.36-.8.32l-2.37-6.11c-.34-.88-1.18-1.94-2.13-2.07l-10.17-1.41c-8.17-1.13-16.48-.78-24.67.22-3.29.4-6.03,1.29-8.52,3.63-4.83-1.16-8.18-3.15-13.97-3.85-2.86-.35-5.77-.7-8.95-.49l-8.81.59c-1.77.12-4.73,1-5.42,2.78-2.65-1.23-5.33-1.4-7.79-2.04-6.63-1.73-13.39-2.45-20.29-1.52-1.44.19-4.58-.41-5.57,1.42-1.59,3.82-1.3,8.33-1.44,12.48l-.34,9.99c-.13-.02-.39.09-.4.27l-.35,8.3-.49-6.73c-.97-4.35.08-8.55.57-12.89l-.84-7.9c-.07-.62-.23-1.12-.57-1.35-.27-.18-.76-.25-1.16-.21-.08-2.09-.98-3.19-3.08-3.19h-3.11c-.03-.56.29-.9.96-1.18.85-.36.77-1.44.54-1.9,2.31.04,4.65-.74,5.01-3.68l.47-3.8,3.6-.43h8.97s5.75-.19,5.75-.19l8.96.1,15.43-.23,97.55-1.27,20.57-.31c2.05-.03,4.03-.28,5.76-.91,3.33-1.2,4.93-3.56,7.76-3.09-.25.88-.32,2.21-.02,3.53,5.37.42,10.52.16,15.51-.34,2.17-.22,3.53-.61,4.56-3.22l1.9-4.72h.42s.11,7.34.11,7.34c.01.91.31,1.64.81,2.12s1.25.48,1.88.66c2.65.75,5.66.5,8.61.12.66-2.18.89-4.07.95-6.01.92.04,1.2,1.05,1.49,1.76-.1,1.37-.53,2.51.41,3.56,1.31,1.46,6.29,1.32,9.69.46l1-7.92.45-7.49.08-.62c1.64.27.57-3.47,1.56-2.84.14.09.31.35.56.35Z"/>
        <path class="cls-11" d="M120.05,419.96l-1.68-.97c-2.93-1.7-6.24-1.98-9.49-1.69-.59-2.41-.47-4.85-.51-7.32l2.73-1.16c-.06,1,.05,2.22.69,2.76.71.61,1.9.83,2.8.28.92-.55.92-1.98.38-2.93-.38-.67-1.34-1.19-2.32-1.12.34-2.9,3.81-.86,4.43-6.32.44-3.86-.11-7.16-.36-10.94l-2.6-39.26-1.1-25.9-.36-21.72c1.88,1.62,1.37,8.26,1.59,13.26l.5,11.72,5.89,89.14c.07,1.09-.29,1.64-.59,2.16Z"/>
        <path class="cls-6" d="M108.36,409.98c.05,2.47-.08,4.91.51,7.32l-5.74.51c-.47-1.23.24-2.16.84-3.25,1.37-2.49.86-5.39.94-7.82l.77-23.18c.34-10.12-.55-19.77-1.27-30.07,2.51,7.25,1.8,14.46,3.27,21.68l.25,12.52.42,22.28Z"/>
        <path class="cls-11" d="M104.92,406.75c-.08,2.42.42,5.33-.94,7.82-.6,1.08-1.31,2.01-.84,3.25-.28.03-.62-.09-.88.04l-1.34-8.28-.32-4.06,4.32,1.24Z"/>
        <path class="cls-4" d="M107.72,334.36c-.05,1.08-.57,1.76-1.34,2.02-.95.32-2.08.22-2.68-.74-.41-.66-.6-1.81.02-2.71.68-1,1.65-1.33,2.65-1.03s1.42,1.19,1.35,2.46Z"/>
        <path class="cls-4" d="M105.18,320.79c-1.25-.23-2.19-1.14-2.04-1.94.17-.88.49-2.06,1.45-2.64,1.27-.77,2.72.45,2.98,1.65.3,1.42-.67,3.24-2.38,2.94Z"/>
        <path class="cls-6" d="M108.81,258.15c-.79,1.04-1.99,1.32-3.01.83-.94-.45-1.23-1.78-.67-2.91.6-1.2,2.05-1.68,3.15-1.07.94.52,1.3,2.15.53,3.16Z"/>
        <path class="cls-4" d="M110.72,236.04c-1.48.25-2.48-.46-2.75-1.37-.32-1.07.04-1.96,1.26-2.49,1.16-.51,2.72-.55,3.19.6s.03,2.97-1.7,3.26Z"/>
        <circle class="cls-4" cx="111.92" cy="395.84" r="2.27"/>
        <circle class="cls-6" cx="109.83" cy="366.01" r="2.22"/>
        <path class="cls-6" d="M111.09,408.82l1.56-1c.98-.07,1.94.45,2.32,1.12.54.95.54,2.37-.38,2.93-.91.54-2.09.32-2.8-.28-.64-.55-.76-1.76-.69-2.76Z"/>
        <path class="cls-4" d="M103.97,287.78c-.72-.71-.47-2.31-.11-2.96s1.5-1.27,2.59-.77c1.19.55,1.24,2.17.62,3.27-.44.78-2,1.54-3.1.46Z"/>
        <circle class="cls-4" cx="108.44" cy="244.87" r="2.18"/>
        <circle class="cls-15" cx="105.2" cy="302.11" r="2.14"/>
        <circle class="cls-4" cx="110.9" cy="381.27" r="2.06"/>
        <circle class="cls-4" cx="105.96" cy="270.7" r="2.08"/>
        <path class="cls-4" d="M113.78,226.45c-1.45.5-2.66-.02-2.82-1.18-.12-.94.45-2.08,1.72-2.27.95-.15,2.13,0,2.41.78.34.92.02,2.22-1.31,2.67Z"/>
        <path class="cls-6" d="M108.29,350.93c-.67.13-1.46,1.06-2.21.89s-1.36-.8-2-1.33c.14-1.48,1-2.56,2.42-2.42,1.24.12,2.07,1.4,1.79,2.86Z"/>
        <path class="cls-1" d="M108.29,350.93c-.2,1.05-1.06,1.56-2.15,1.77-.75.14-1.4,0-1.9-.64-.27-.34-.22-.81-.15-1.57.64.54,1.26,1.17,2,1.33s1.53-.76,2.21-.89Z"/>
        <path class="cls-5" d="M361.26,465.22c-1.1.99-.66,1.94-.82,3.94-.76,0-1.33,1.4-2.07,1.65-2.44.81-5.31.57-7.82.05l6.34-1.47,4.93-20.91c.73.37.78,1.17.69,2.18l-1.24,14.56Z"/>
        <path class="cls-3" d="M120.05,419.96l.52,1.96-1.14,1.78-3.72,18.94-.06,2.14-.5,3.15-.89,10.61.54,7c.09,1.22-.04,2.56,1.05,3.92.68-1.42.64-2.5,1.72-3.53.36.34.29,1.31.63,1.37s1.36-.61,1.98-.07c-.63,1.6-1.81,2.98-1.16,4.66l-3.6.43-.47,3.8c-.36,2.93-2.7,3.72-5.01,3.68l-10.58-.15c-.07-.15-.37-.33-.54-.38l.09-.77c.1-.91-.1-2.62.9-3.2,1.76,1.1,2.81.01,4.03-.55,2.97-1.37,4.11-3.69,4.23-6.65.48-.83,1.2-2.05,1.21-3.42l.07-10.87c.86-10.19,2.41-20.32,5.11-30.39.6-2.23,1.94-3.78,3.91-4.42l1.68.97Z"/>
        <polygon class="cls-2" points="141.09 421.03 136.08 429.17 128.65 442.05 115.7 442.65 119.42 423.71 120.56 421.92 125.09 421.7 141.09 421.03"/>
        <path class="cls-2" d="M108.88,417.3c3.25-.29,6.56,0,9.49,1.69-1.97.64-3.31,2.19-3.91,4.42-2.7,10.07-4.25,20.2-5.11,30.39-.95-.11-1.5.55-2.24,1.35l-2.54,2.73c-.86.92-1.76,1.59-2.83,1.62-2.69.09-3.82-3.06-6.61-4.38l-1.08,2.11.61-13.48c.45-.17.53-.61.53-1.06v-1.6s3.66-16.83,3.66-16.83l.25-1.11c.48-2.13,2.02-3.5,3.17-5.29.26-.13.6-.01.88-.04l5.74-.51Z"/>
        <path class="cls-6" d="M97.84,422.93l1.25.21-.25,1.11c-2.02.36-2.76,2.14-3.18,4.08l-4.22,19.6c-1.75,8.13-2.48,16.46-3.36,25.12l-5.12.9c-.64-.24-1.32-.91-1.45-1.75l-2.08-13.12-.07-3.23c1.93-.53,3.9-.47,6.52-.48.34-3.94.78-7.69,2.05-11.44l5.6-16.58,2.72-4.23,1.6-.18Z"/>
        <path class="cls-11" d="M109.34,453.8l-.07,10.87c0,1.37-.73,2.59-1.21,3.42-4.25.67-6.51,4.66-9.05,1.4-1.05-1.35-2.47-2.26-4-2.41-1.2-3.15-1.11-6.58-.97-9.86l1.08-2.11c2.79,1.32,3.93,4.48,6.61,4.38,1.07-.04,1.97-.7,2.83-1.62l2.54-2.73c.74-.8,1.29-1.46,2.24-1.35Z"/>
        <path class="cls-6" d="M108.05,468.1c-.12,2.96-1.26,5.28-4.23,6.65-1.21.56-2.27,1.65-4.03.55-1,.58-.8,2.29-.9,3.2-2.45-.61-3.44-7.27-3.89-11.41,1.54.15,2.96,1.06,4,2.41,2.54,3.27,4.8-.73,9.05-1.4Z"/>
        <path class="cls-5" d="M92.59,449.63c-.97,2.55-.9,5.43-.96,8.38l-.28,15.68c-2.71,1.31-5.93,1.19-8.4.26l5.12-.9c.88-8.66,1.61-16.99,3.36-25.12l1.15,1.7Z"/>
        <path class="cls-8" d="M98.83,424.25l-3.66,16.83c-.25-.22-1.1.01-1.04.52.2,1.72-.65,2.85-.91,4.36l-.63,3.67-1.15-1.7,4.22-19.6c.42-1.94,1.16-3.72,3.18-4.08Z"/>
        <path class="cls-16" d="M78.1,461.18c0,4.2.23,8.53,2.23,12.52-2.63,1.66-5.95,1.36-8.37.26l3.95-1.01,1.1-16.07c.64.07,1.09,3.04,1.09,4.29Z"/>
        <path class="cls-8" d="M79.12,449.95l.23,5.9.07,3.23c-.8.48-.79,1.44-1.32,2.11,0-1.26-.45-4.23-1.09-4.29.16-2.4-.12-5.34,2.11-6.94Z"/>
        <path class="cls-8" d="M94.64,443.74c.02-.45.04-.87.53-1.06,0,.45-.09.89-.53,1.06Z"/>
        <path class="cls-6" d="M379.86,453.8l-.07,1.47c-.39.49-.45,1.09-.45,1.7,0,.41.07,1.03-.07,1.41-.85,2.22-.95,3.63-2.78,4.78l-.31.07-.6.49-6.16-.09c-1.44-.02-2.11-1.56-2.18-2.96l-.52-10.07h1.57c1.06,2.18,3.2,4.68,5.8,5.42,1.13.33,5.01-2.76,5.42-5.5.36-2.4.44-4.21,1-4.16l-.63,7.44Z"/>
        <path class="cls-11" d="M379.5,450.52c-.41,2.74-4.28,5.83-5.42,5.5-2.59-.74-4.74-3.24-5.8-5.44l11.21-.06Z"/>
        <path class="cls-13" d="M366.03,439.09c-.59-.94-.66-2.35.06-3.22l-.06,3.22Z"/>
        <path class="cls-13" d="M376.11,464.3l.09-.48-.02-.59.31-.07.59.62c.13.14.2.16.05.27-.22.17-1.11.37-1.02.24Z"/>
        <polygon class="cls-13" points="379.11 461.18 379.12 461.53 379.12 461.89 379.11 462.23 379.1 461.89 379.1 461.53 379.11 461.18"/>
        <path class="cls-1" d="M379.35,456.97c0-.61.06-1.21.45-1.7-.03.6.25,1.4-.45,1.7Z"/>
        <path class="cls-2" d="M280.29,369.97l5.93,8.81c-15.51,12.34-29.67,25.54-41.95,41.02l14.18,1.08,17.94,1.34,12.11,1.03,19.28,1.89c1.75,3.45,1.35,7.61,1.31,11.67l-18.4.16-7.21,1.76-18.05,2.76c2.67,1.14,5.16.19,7.76.2l24.31.1,11.55-.16c.65,1.44.21,2.51.16,3.61l-52.17.28-30.6.36,5.98-10.1,5.74-10.14c.29-.52.22-1.19-.16-1.29-.43-.11-.82-.02-1.16.49l-9.53,14.21-4.56,6.78-9.62.17,9.17-13.51c1.87-2.75,3.97-5.05,5.09-8.43-2.36.85-3.49,2.73-4.84,4.45l-14.09,18.01-24.47-.27c-.34,0-.58-.08-.76-.45l13.97-20.62c.48-.7-.39-1.33-.91-.87-5.48,4.85-9.73,10.42-14.11,16.08l-5.03,6.5-9.37-.61,13.6-20.89c.85-1.31.75-3.33.81-5.02-2.01,3.85-4.82,6.93-7.53,10.4l-8.77,11.26-9.66.41-6.97-.14,9.41-17.39c-.85-1.1-2.02-.41-2.7.47-5.39,7.08-9.75,14.63-14.27,22.05l-11.36-.08,11.07-22.23c.61-1.22.14-3.06.32-4.25l36.25-1.55,32.71-.09,12.28.19,9.98.04c13.3-19.44,28.09-36.51,47.33-49.47Z"/>
        <path class="cls-15" d="M280.29,369.97c-19.24,12.96-34.03,30.04-47.33,49.47l-9.98-.04c.02-.76.33-1.51.87-2.3l6.2-9.11c.89-1.3,1.97-2.39,2.12-3.85l5.87-7.2,8.91-10.62,15.46-14.03c10.52-7.89,21.51-14.41,33.31-20.03,8.61-4.1,35.54-6.47,45.56-1.24-13.35,1.9-29.08,2.72-41.1,7.77-7.17,3.01-13.7,7-19.9,11.18Z"/>
        <path class="cls-15" d="M346.69,377.21l-.04,1.08-11.12-1.66c-9.47-.14-19.55.62-28.43,4.91-7.58,3.66-13.15,10.15-17.95,16.82l-9.13,15.25c-1.28,2.14-2.31,4.62-2.91,6.77-.14.49-.97.97-.73,1.83l-17.94-1.34c-.22-1.04.67-1.71,1.33-2.73,6.04-9.26,12.4-17.85,20.07-25.93,6.28-6.62,13.55-12.05,21.74-16.13,5.14-2.56,10.79-3.11,16.39-3.84,10.07-1.31,19.95.5,28.71,4.96Z"/>
        <path class="cls-2" d="M246.95,386.32l-8.91,10.62-5.87,7.2-32.82,9.02-13.87,3.8c9.55-9.53,20-17.42,32.48-22.56,9.48-3.9,18.97-6.65,28.99-8.09Z"/>
        <path class="cls-6" d="M167.79,446.29l-10.96,14.58-2.92,2.59c-.42-.74.17-1.2.2-1.45.06-.46-.61-.47-.99-.25l.61-1.76,8.33-12.86c.75-.75,1.71-1.46,1.82-2.9l-15.73.09c-.92.97-1.27,2.05-1.79,2.96l-9.5,16.82c-.2.35.16.75.4.74l13.85-.35c.53.38.54.98.67,2.09,1.47-1.73,3.08-1.66,5.23-1.83l5.2-.42c1.8-.15,3.08-.28,4.14-1.76l9.9-13.83.89-1.87,5.03-6.5c4.39-5.66,8.63-11.24,14.11-16.08.52-.46,1.38.17.91.87l-13.97,20.62-11.3,14.51c-.28.36-.63,1.6-.99,1.33l-1.11-.81c-1.51-.09-2.74,1.86-2.24,3.51l28.03-.68,12.84-17.15,14.09-18.01c1.35-1.73,2.48-3.6,4.84-4.45-1.12,3.38-3.22,5.68-5.09,8.43l-9.17,13.51-12.63,17.26,17.24-.05,28.79-.74,12.02-.48,24.68-.38c.84,1.22,2.51.84,4.4.79l-5.64,6.67c-1.73.62-3.71.88-5.76.91l-20.57.31-97.55,1.27-15.43.23-8.96-.1c-1.34-2.11,1.06-2.7,1.62-5.25-1.17-.18-1.83.73-2.54,1.09-.33-.34-.28-1.46-.24-1.78.04-.28-.92-.21-1.04.05-.98,2.23-2.1,4.31-3.56,6.07h-8.97c-.65-1.68.53-3.06,1.16-4.66-.62-.54-1.64.12-1.98.07s-.27-1.03-.63-1.37c-1.08,1.02-1.04,2.11-1.72,3.53-1.09-1.36-.96-2.7-1.05-3.92l2.57-.24,8.14-17.71c.35-.77,1.41-1.37,1.25-2.8l-7.84-.26-3.29.24.06-2.14,12.95-.59,7.42-12.88,5.01-8.14c.2,0,.52.03.66-.17-.18,1.19.29,3.03-.32,4.25l-11.07,22.23-9.14,17.81,11.06-.05,9-16.42.44-1.26c4.52-7.42,8.88-14.96,14.27-22.05.67-.89,1.84-1.58,2.7-.47l-9.41,17.39,6.97.14,9.66-.41,8.77-11.26c2.71-3.47,5.52-6.55,7.53-10.4-.06,1.7.04,3.71-.81,5.02l-13.6,20.89Z"/>
        <path class="cls-10" d="M174.79,321.34c.57.96,1.63,1.44,2.73,1.49,1.44,1.51,4.93,3.32,6.48,2.95l.04.71c-.88-.24-1.27.3-.71.9l8.37,6.6c.74.59,1.96.67,1.72,1.7l-12.71-6.1c-4.47-2.15-7.87-5.96-10.54-9.82.29-.24,1.07-.68,1.36-.51.99,1.05,2.03,1.76,3.26,2.07Z"/>
        <path class="cls-6" d="M326.77,448.41c-1.45,1.53-1.83,3.79-1.85,5.82-.36.27-.48.67-.5,1.1l-.06,1.13-3.52,12.72c-.42,1.6-3.95.74-5.91,2.16-.63-.18-1.39-.2-1.88-.66s-.8-1.21-.81-2.12l-.11-7.34c-.78-4.11-1.02-8.26-.89-12.77.01-.42-.61-.97-1.03-.99l-.06,7.86c-.01,1.45-.67,2.5-1.42,3.34l.46-13.43c.05-1.1.49-2.16-.16-3.61l-11.55.16-24.31-.1c-2.61-.01-5.09.94-7.76-.2l18.05-2.76,7.21-1.76,18.4-.16c.04-4.06.44-8.22-1.31-11.67-.14-.17,0-.47.31-.34.76,0,2.72-.08,3.37.78l1,21.77.05,12.47c.45-1.73.6-2.66,1.5-3.53,1.23-1.19,3.71-.41,7.31-3.52.75-2.94.67-5.59.73-8.52l.24-12.66c.04-2.38-.63-4.72-.02-7.1.29-1.15,3.81-1.28,4.15-.13l.88,20.45-.51,3.61Z"/>
        <path class="cls-16" d="M318.18,399.95c1.78,1.98,4.68-.17,5.72,2.57.31.81,1.05,1.11,1.7,1.21l-4.89,1.75c-6.92,2.48-11.91,11.49-12.63,19.32-.3-.13-.45.16-.31.34l-19.28-1.89c-.05-1.26,1.05-1.77,1.87-2.44l6.38-5.32,12.51-10.2c2.72-2.22,5.78-4.67,8.93-5.34Z"/>
        <path class="cls-6" d="M339.83,448.58c-1.86.35-1.84,4.01-2.2,6.62l-.08.62c-.23.11-.56.37-.67.83l-3.37,13.1c-2.26,1.18-4.71.97-7.1,1.04-.94-1.05-.51-2.19-.41-3.56l.87-11.86c2.83-.16,5.77-1.19,7.59-3.64l.82-27.91c.71-1.21,4.38-.68,4.39.98l.16,23.8Z"/>
        <path class="cls-6" d="M352.37,443.32l-.5,5.14c-.69-.03-1.1.46-1.32,1.33l-4.93,19.79c-1.79,1.45-4.36.23-5.75,1.76-.34-.11-1.53-.32-1.49-.81l.95-10.9c.05-.62.95-1.45-.04-2.2.13-.6.17-1.27.05-1.89l.26-.08c2.85-.86,2.98-.54,5.72-2.61.56-.42,1.25-.58,1.29-1.74l1.01-27.88,2.23.91c1.61.66,2.4,1.62,2.41,3.25l.11,15.92Z"/>
        <path class="cls-11" d="M359.01,433.19l-.7,11.07-.83,7.84c-2.04.53-4.08.97-5.59,2.23l-.03-5.87.5-5.14,2.06-3.34,2.88-5.63c.39-.76.82-1.19,1.7-1.17Z"/>
        <path class="cls-8" d="M326.86,455.35l-.87,11.86c-.29-.72-.57-1.72-1.49-1.76l.21-6.74c.03-.93.34-1.7-.34-2.25l.06-1.13c.52-.17.5-.64.5-1.1.02-2.03.4-4.29,1.85-5.82l.09,6.94Z"/>
        <path class="cls-11" d="M345.32,452.84c-2.73,2.07-2.86,1.75-5.72,2.61l.06-1.74c0-.25.2-.74.09-1l5.57.13Z"/>
        <path class="cls-5" d="M339.83,448.58c0,1.37-.53,2.74-.08,4.13-.25,0-.42-.27-.56-.35-.99-.63.08,3.11-1.56,2.84.36-2.61.34-6.26,2.2-6.62Z"/>
        <path class="cls-2" d="M335.53,376.64c-.12.88.32,1.52.86,2.33,4.22,6.33,7.54,13.53,10.25,20.33-9.37-1.28-19.02-1.57-28.39.03-11.94,2.04-22.9,7.63-32.63,15.03-2.22,1.69-4.46,2.75-6.19,5.01-.54.71-1.52,1.05-2.31,1.02.59-2.15,1.62-4.63,2.91-6.77l9.13-15.25c4.8-6.67,10.38-13.16,17.95-16.82,8.88-4.29,18.96-5.05,28.43-4.91Z"/>
        <path class="cls-5" d="M351.86,448.45l.03,5.87c0,1.54-.21,2.66-.95,3.91-2.13,3.59-.67,11.78-3.32,12.96-2.18.97-5.88.74-7.76.13,1.39-1.53,3.96-.31,5.75-1.76l4.93-19.79c.21-.86.63-1.35,1.32-1.33ZM351.64,455.59c-.05-.89-.75-.69-.8-.51s-.03.71,0,1.06c.01.2.86.43.81-.55Z"/>
        <path class="cls-1" d="M362.55,444.34c-.05-1.65-.38-3.4.31-4.89.19,1.65.49,3.41-.31,4.89Z"/>
        <path class="cls-1" d="M362.88,437.46c-.64-.8-.57-1.96,0-2.78.15.92.15,1.86,0,2.78Z"/>
        <polygon class="cls-1" points="376.2 463.82 375.58 463.72 376.18 463.24 376.2 463.82"/>
        <path class="cls-11" d="M318.25,399.33l-.07.61c-3.15.67-6.2,3.12-8.93,5.34l-12.51,10.2-6.38,5.32c-.81.68-1.92,1.19-1.87,2.44l-12.11-1.03c-.24-.86.59-1.34.73-1.83.79.03,1.77-.31,2.31-1.02,1.73-2.26,3.97-3.32,6.19-5.01,9.74-7.4,20.69-12.99,32.63-15.03Z"/>
        <path class="cls-10" d="M94.49,413.73c1.25,3.14,3.76,5.26,3.35,9.2l-1.6.18c-1.6-3.15-7.56-6.87-11.16-7.37l-7.23-1.01c-.35-1.14.39-2.26,1.51-2.59l4.53-1.35c.82-.24,1.18-.73,1.1-1.33,3.46.52,6.36,2.87,9.49,4.27Z"/>
        <path class="cls-6" d="M308.13,461.25c-.03.11-.04.25-.05.34-.24,2.7-1.82,4.97-2.83,7.58-4.99.5-10.14.76-15.51.34-.3-1.31-.22-2.65.02-3.53.47-.43,1.04-1.02,1.58-2.01l1.25-2.31,15.54-.43Z"/>
        <path class="cls-16" d="M292.59,461.67l-1.25,2.31c-.53.99-1.11,1.58-1.58,2.01-2.82-.46-4.43,1.89-7.76,3.09l5.64-6.67c-1.89.05-3.56.43-4.4-.79,1.49-.02,3.89.72,5.22-.42l6.34-5.44-2.21,5.92Z"/>
        <path class="cls-5" d="M324.5,465.46c-.06,1.94-.3,3.84-.95,6.01-2.95.38-5.95.63-8.61-.12,1.96-1.42,5.49-.56,5.91-2.16l3.52-12.72c.68.55.37,1.32.34,2.25l-.21,6.74Z"/>
        <path class="cls-5" d="M326.4,470.78c2.39-.07,4.84.14,7.1-1.04l3.37-13.1c.12-.46.44-.71.67-.83l-.45,7.49-1,7.92c-3.4.87-8.38,1-9.69-.46Z"/>
        <path class="cls-5" d="M311.71,461.23l-1.9,4.72c-1.03,2.61-2.39,3.01-4.56,3.22,1.02-2.61,2.59-4.88,2.83-7.58,1.13-.5,2.41-.31,3.63-.37Z"/>
        <path class="cls-10" d="M133.74,471.7l-5.75.19c1.45-1.76,2.58-3.85,3.56-6.07.12-.26,1.07-.33,1.04-.05-.04.32-.09,1.44.24,1.78.71-.35,1.36-1.26,2.54-1.09-.56,2.55-2.96,3.13-1.62,5.25Z"/>
        <path class="cls-1" d="M312.14,461.23h-.42c-1.22.05-2.5-.14-3.63.36,0-.09.02-.24.05-.34l.61-2.59c.74-.84,1.41-1.89,1.42-3.34l.06-7.86c.42.02,1.05.57,1.03.99-.14,4.52.1,8.67.89,12.77Z"/>
        <path class="cls-5" d="M339.33,459.62l-.04-2.2c.99.75.09,1.59.04,2.2Z"/>
        <path class="cls-5" d="M339.6,455.45l-.26.08c-.12-.63-.18-1.34.32-1.82l-.06,1.74Z"/>
        <polygon class="cls-11" points="125.51 447.6 117.37 465.3 114.79 465.54 114.25 458.54 115.13 447.93 125.51 447.6"/>
        <path class="cls-2" d="M125.51,447.6l-10.38.34.5-3.15,3.29-.24,7.84.26c.15,1.43-.9,2.03-1.25,2.8Z"/>
        <path class="cls-12" d="M309.21,445.23l-.46,13.43-.61,2.59-15.54.43,2.21-5.92-6.34,5.44c-1.33,1.14-3.73.39-5.22.42l-24.68.38-12.02.48-28.79.74-17.24.05,12.63-17.26,9.62-.17-7.53,12.84c-.34.57-.32,1.63.12,1.74.39.09,1.39,0,1.73-.51l9.36-14.03,30.6-.36,52.17-.28Z"/>
        <path class="cls-12" d="M208.47,446.54l-12.84,17.15-28.03.68c-.5-1.65.73-3.6,2.24-3.51l1.11.81c.36.26.71-.98.99-1.33l11.3-14.51c.18.37.42.45.76.45l24.47.27Z"/>
        <polygon class="cls-12" points="141.72 447.43 141.28 448.69 132.28 465.11 121.22 465.16 130.36 447.35 141.72 447.43"/>
        <path class="cls-11" d="M177.16,446.91l-.89,1.87-9.9,13.83c-1.06,1.47-2.33,1.61-4.14,1.76l-5.2.42c-2.15.17-3.77.11-5.23,1.83-.13-1.11-.14-1.71-.67-2.09.35-1.02,1.1-2.11,2-2.75.38-.21,1.05-.21.99.25-.03.25-.62.71-.2,1.45l2.92-2.59,10.96-14.58,9.37.61Z"/>
        <path class="cls-6" d="M226.44,445.87l-9.36,14.03c-.34.52-1.34.6-1.73.51-.45-.1-.46-1.16-.12-1.74l7.53-12.84,4.56-6.78,9.53-14.21c.34-.51.73-.6,1.16-.49.38.1.46.77.16,1.29l-5.74,10.14-5.98,10.1Z"/>
        <path class="cls-5" d="M324.42,455.34c.02-.43.15-.83.5-1.1,0,.46.02.93-.5,1.1Z"/>
        <path class="cls-14" d="M351.64,455.59c.06.99-.79.75-.81.55-.02-.35-.04-.89,0-1.06s.75-.38.8.51Z"/>
        <path class="cls-12" d="M162.07,447.15l-8.33,12.86-.61,1.76c-.9.64-1.65,1.73-2,2.75l-13.85.35-.4-.74,9.5-16.82,15.69-.15Z"/>
        <path class="cls-2" d="M162.07,447.15l-15.69.15c.51-.91.87-2,1.79-2.96l15.73-.09c-.11,1.44-1.08,2.15-1.82,2.9Z"/>
        <path class="cls-11" d="M137.27,464.88c-.23,0-.59-.4-.4-.74l.4.74Z"/>
        <g>
          <path class="cls-2" d="M185.09,121.42c.13,2.45-.97,4.57-1.61,6.94-9.02,1.51-12.99.51-16.04,13.3,4.88-3.3,9.52-6,14.93-6.64-.7,2.15-3.23,1.78-2.6,3.87-5.28,1.64-8.23,4.76-10.57,10.01.18,1.59,1.9,3.31,3.25,4.43.63-1.45-.31-2.57-.84-3.98,2.59-4.24,6.63-7.21,11.35-7.59.58,1.65,2.27,2.11,2.23,4.53l-.66.06c-1.48.12-2.44.92-2.81,1.77-.61,1.39-.85,2.8-.04,3.86.25.32.43.72.52,1.09-.72,1.29-2.32,2.27-2.86,3.87l1.37,1.44c.43.45,0,1.65-.44,2.13-4.5-.45-8.02-3.42-11.03-7.43.5,4.01,3.19,7.42,6.4,9.88-1.81,6.56-6.47,12.64-8.07,19.82-1.28,5.73,4.73,22.74,4.32,34.77l-4.29,16.23,9.44-16.69,6.94-8.89c1.08-1.38,2.65-1.96,3.89-2.99,1.52-1.26,2.71-2.41,4.72-2.37l-5.19,12.03-7.29,18.35.6.35,7.44-14.35,1.25-3.64c2.52-3.87,4.25-8.19,6.1-12.46l1.81,1.59c2.89,2.63.2,3.88.06,8.67l-4.34,18.32c.27.25.95.11,1.07-.19,2.61-6.25,5.56-14.24,6.06-20.35l.13-1.7c.04-.48.96-.35,1.43.06.28.25.5.9.68,1.26-.34.16-.47.48-.51,1-.25,3.22-1.05,6.07-2.05,9.13l-3.51,10.73c-2.09,3.24-6.63,2.92-9.73,4.62-6.68,3.68-12.34,9.37-15.91,16.08-2.31,4.34-4.3,12.93-3.08,17.04l-.84,2.89-6.22,33.83c-1.72-3-3.05-6.11-4.35-9.2.82-.67,1.09-1.57,1.35-2.59,2.56-9.75,4.28-19.44,6.02-29.39.37-2.1,1.15-3.89.67-6.18-1.15.08-1.77,1-2.07,2.14-2.82,10.72-4.89,21.41-7.03,32.03l-2.25-6.78c-5.58-23.54-9.03-46.92-11.22-71.44-1.89,7.64-1.55,15.28-1.38,23.15.45,22.17,2.66,43.94,9.46,65.11l8.36,26.02,5.65,19.18,4.2,11.95,35.32,9.61-9.3,11.25-21.46,21.79-6.96,7.42-16.55,1.18-19.6-1.28c-3.18-15.34-5.31-30.19-7.3-45.04l-1.49-28.07-.12-23.21c.15-.14.58-.6.56-1.07-.43-9.96-.03-19.55.4-29.57l1.52-35.39c.37-8.65,1.45-16.89,4.19-25.01.61-1.82,1.43-3.41,1.14-5.35l4.22-2.57c3.12-1.9,5.99-3.8,9.36-5.25l.27-6.16c.7-16.15,3.97-31.98,6.77-48.15l1.45-8.39,3.99-15.22c.68-2.62,1.3-5.09,2.72-7.57,9.31-2.09,18.7-2.87,27.96-2.64ZM167.28,233.98l-.26.26.26.26.26-.26-.26-.26ZM154.59,247.47l-1.11-5.76c-1.18.36-1.25,1.38-1.24,2.29.07,4.51.27,8.69,1.38,12.9l.97-9.44Z"/>
          <path class="cls-14" d="M282.69,130.5l.55-.07c.23.47.72.43,1.12.59l9.09,3.45c2.14.81,3.9,2.27,4.64,4.33-1.49,4.47-1.61,9.23-2.05,14l-.67,7.26-.62,8.44-2.8-22.45c-.42-3.37-.8-7.14-2.77-9.98-1.35-1.95-4.62-2.01-6.4-2.94-.21-.28-.48-.41-.78-.42-.34-.02-.76-.06-1.09-.15l-9.24-2.76c-1.07-.32-2.03-1.31-2.89-2.08,5.12.31,9.44,1.78,13.91,2.79Z"/>
          <path class="cls-10" d="M204.52,119.29c-.43.47-1.18.71-2.05.64-4.2-.32-8.04.08-12.23.42-1.44.12-2.94-.15-3.68,1.11l-1.47-.04c-9.27-.23-18.66.55-27.96,2.64-1.42,2.48-2.03,4.96-2.72,7.57l-3.99,15.22c-.44-6.79.05-14.85-1.91-20.57,2.26-2.76,8.96-4.31,13.63-5.01,9.5-1.43,18.83-2.22,28.43-2.14l13.95.15Z"/>
          <path class="cls-12" d="M188.68,165.92c1.68-.25,3.26-.61,4.79-1.2-.68,1.91.45,3.6.86,5.51,1.22,5.69,3.03,10.89,5.32,16.26.33.77-1.41,1.34-1.85,1.76-2.45,2.31-3.69,6.1-3.79,9.26-2.17.31-.25,2.62-1.42,5.33-2.01-.04-3.21,1.11-4.72,2.37-1.24,1.03-2.81,1.61-3.89,2.99l-6.94,8.89-9.44,16.69,4.29-16.23c.42-12.03-5.6-29.05-4.32-34.77,1.61-7.17,6.26-13.26,8.07-19.82,2.37,1.82,8.92,3.57,13.02,2.97Z"/>
          <path class="cls-6" d="M219.84,207.07c4.5.09,8.62,2.2,12.66,4.35-.64,4.09,2.08,7.59.64,11.4,1.07.54,1.59,1.26,1.89,2.34l3.67,13.01c-1.6-.56-4.49-1.2-5.15-3.09-1.66-4.7-3-9.31-5.16-13.88-1.19-2.52-2.07-4.96-2.4-8.02-.5.91-.82,1.76-2.09,2.46l1.72,17.23c-1.26.1-1.8-1.04-2.05-2.14l-2.33-10.22c-.61-2.66-2.43-3.97-4.45-4.13-.62-.05-1.17-.55-1.75-.01-.33.3-1.29.37-1.72.34l-.9-.06-.81.07c-1.22-.73-2.26-1.37-4.02-1.94.51,3.84-.22,6.98-.4,10.3-.16,2.98-1.06,5.91-.58,8.98l-4.19-.03,1.51-3.31,1.77-17.87c-.5-1.2-2.44-1.73-3.28-2.09-.18-.36-.4-1.01-.68-1.26-.47-.42-1.39-.54-1.43-.06l-.13,1.7-2.8,2.22c.14-4.8,2.84-6.05-.06-8.67,1.3-.4,2.49.72,3.83.87l11.78,1.37,6.9.13Z"/>
          <path class="cls-11" d="M202.43,234.05l-5.31,1.21c-.3-.24-.87-.24-1.25-.21l-.54.38c-.08.04-.27.09-.36.06-.69-.23-1.59.39-2.16.47-6.61.93-11.5,5.34-15.94,10.05-2.64,2.8-5.01,5.82-6.68,9.7,3.46-1.68,6.21-3.83,8.76-6.52.49.89.33,1.5.27,2.04-.64.73-1.22,1.83-1.43,3.08l-5.58,33.5-1.96,11.13c-.64-.47-.77-1.64-.63-2.66,1.46-10.08,2.66-19.87,2.07-30.04-.02-.43-.25-.59-.66-.58l.2-6.87c-1.41.67-1.76,1.91-2.05,3.26l-1.53,7.33c-1.23-4.11.77-12.7,3.08-17.04,3.57-6.7,9.23-12.4,15.91-16.08,3.1-1.71,7.64-1.39,9.73-4.62l3.51-10.73c1-3.06,1.8-5.91,2.05-9.13.04-.51.16-.83.51-1,.84.36,2.79.89,3.28,2.09l-1.77,17.87-1.51,3.31Z"/>
          <path class="cls-6" d="M219.78,125.76l-5.49,7.05c-1.75,2.26-2.5,5.17-4.44,7.04-7.65-4.41-15.93-7.9-24.98-9.72l-10.08.9c-.17,1.92-.63,2.27-1.55,3.91,3.8-1.51,6.84-1.24,10.24-.91-.23.47-.82.75-1.1.99-5.42.64-10.05,3.34-14.93,6.64,3.04-12.79,7.02-11.79,16.04-13.3,1.77-.3,4.03.41,5.88.94l11.49,3.28c3.03.87,5.09,3.19,7.81,4.88-.53-4.29-1.43-8.22-4.05-11.34-.86-1.02-1.37-1.97-1.1-3.33l16.28,2.96Z"/>
          <path class="cls-11" d="M186.56,121.46l5.28.06,7.37.5,4.28.78c-.26,1.36.25,2.31,1.1,3.33,2.62,3.12,3.53,7.04,4.05,11.34-2.72-1.69-4.77-4.01-7.81-4.88l-11.49-3.28c-1.85-.53-4.11-1.23-5.88-.94.64-2.36,1.74-4.49,1.61-6.94l1.47.04Z"/>
          <path class="cls-5" d="M216.25,196.53c.26.62.46,1.33.67,2.14-1.15-.05-2.11.72-2.69,1.16-.77.59-1.06,2.4-.64,3.37l2.89.12c.13.75-.22,2.54.91,3.04.57.25,2.17-.26,2.45.71l-6.9-.13-11.78-1.37c-1.34-.16-2.53-1.27-3.83-.87l-1.81-1.59.5-2.92,4.76-2.56c.97-.52,2.43-1.04,3.77-1.05l11.69-.05ZM207.03,202.54c.05-1.64-1.53-3.03-2.64-3.36-2.13-.64-5.58.44-5.67,1.79-.1,1.55,5.33,2.68,8.31,1.57Z"/>
          <path class="cls-11" d="M188.15,141.5l1.98.58c-.13,2.83,2.79,5.37,1.51,8.72s-4.12,5.04-6.98,7.42c2.58.58,5.67.66,7.09-.76,3.88-.56,6.97-2.82,9.7-5.38-.37.74.18,1.83.91,2.13-6.05,5.3-13.66,8.7-21.65,6.87-.12-.15-.34-.36-.42-.58.43-.48.87-1.69.44-2.13l-1.37-1.44c.54-1.61,2.14-2.59,2.86-3.87,1.47.87,3.28,1.07,4.51.43,1.64-.86,2.09-2.66,1.84-4.23-.26-1.66-1.36-3.14-3.36-2.97.04-2.41-1.65-2.88-2.23-4.53,1.66-.13,3.42-.77,5.18-.26Z"/>
          <path class="cls-15" d="M171.03,265.66c-2.21,13.31-4.16,26.67-7.26,40.04-.31,1.33-.56,2.55-1.45,3.27-1.6-.26-1.26-2.04-1.73-2.86l6.22-33.83.84-2.89,1.53-7.33c.28-1.35.64-2.59,2.05-3.26l-.2,6.87Z"/>
          <path class="cls-4" d="M156.24,296.91c-.55-1.31-1.4-2.27-1.06-3.99,2.13-10.62,4.2-21.31,7.03-32.03.3-1.14.92-2.06,2.07-2.14.48,2.28-.3,4.07-.67,6.18-1.74,9.95-3.46,19.64-6.02,29.39-.27,1.01-.53,1.92-1.35,2.59Z"/>
          <path class="cls-6" d="M190.76,139.91l-1.66.2c-.56.07-1.03.61-.94,1.39-1.76-.51-3.52.13-5.18.26-4.72.38-8.76,3.35-11.35,7.59.52,1.42,1.46,2.54.84,3.98-1.35-1.12-3.07-2.84-3.25-4.43,2.33-5.25,5.28-8.38,10.57-10.01,3.17-.98,9.35-.98,10.98,1.02Z"/>
          <path class="cls-4" d="M180.29,160.5c.08.21.31.43.42.58.56,1.83,5.13,4.04,7.96,4.84-4.1.6-10.65-1.15-13.02-2.97-3.21-2.46-5.91-5.87-6.4-9.88,3.02,4,6.53,6.98,11.03,7.43Z"/>
          <path class="cls-11" d="M193.51,135.91c-.06,1.21.2,2.61-.47,3.63-.36.54-1.49.48-1.95.57.08-.24-.19-.3-.32-.21-1.64-2-7.81-2-10.98-1.02-.63-2.1,1.9-1.72,2.6-3.87.28-.24.87-.52,1.1-.99,3.47.34,6.8.53,10.03,1.88Z"/>
          <path class="cls-4" d="M194.01,197.51c.25,1.17.95,2.21,2.01,2.68l-.5,2.92c-1.85,4.27-3.58,8.59-6.1,12.46-.67-.36-1.2-.52-2.01-.71l5.19-12.03c1.17-2.71-.76-5.01,1.42-5.33Z"/>
          <path class="cls-11" d="M200.19,211.15c-.49,6.11-3.45,14.11-6.06,20.35-.13.3-.8.43-1.07.19l4.34-18.32,2.8-2.22Z"/>
          <path class="cls-11" d="M189.42,215.57l-1.25,3.64-7.44,14.35-.6-.35,7.29-18.35c.81.19,1.34.35,2.01.71Z"/>
          <path class="cls-9" d="M182.22,153.06c-.09-.37-.28-.77-.52-1.09-.02-.51-.17-1.73.45-1.9l1.87-.51c.83-.95,0-2.33.53-3.22l.66-.06c2.01-.17,3.1,1.31,3.36,2.97s-.21,3.37-1.84,4.23c-1.23.64-3.04.44-4.51-.43Z"/>
          <path class="cls-11" d="M154.59,247.47l-.97,9.44c-1.1-4.22-1.3-8.39-1.38-12.9-.01-.91.06-1.93,1.24-2.29l1.11,5.76Z"/>
          <path class="cls-1" d="M184.54,146.34c-.52.89.3,2.27-.53,3.22l-1.87.51c-.62.17-.47,1.39-.45,1.9-.81-1.07-.57-2.47.04-3.86.37-.84,1.33-1.64,2.81-1.77Z"/>
          <rect class="cls-12" x="167.09" y="234.06" width=".37" height=".37" transform="translate(-116.64 186.87) rotate(-45)"/>
          <path class="cls-15" d="M232.46,125.09h1.05s.61-.02.61-.02c13.41-.21,32.81,4.27,46.07,8.03,3.07,7,4.76,14.23,5.82,22.12,1.95,13.72,2.18,27.08,2.33,41.02-3.52,19.88-8.17,39.04-13.91,58.82-1.44-3.33.25-6.47-1.47-9.89l-4.3,12.78c-.96,2.85-1.05,5.49-1.53,8.33-.64-2.49-.26-4.7-1.47-7.04-1.16.86-1.5,2.3-1.46,3.78l.35,12.27c.15,5.48-.62,10.88-2.14,16.52l-3.38-25.18c-.17-1.23-.4-2.52-1.81-3.07-.44.67-.46,1.46-.41,2.14-1.3.52-1.56-.76-2.23-1.46-1.59-1.66-2.93-2.98-3.94-4.84-2.53-4.7-5.28-9.53-9.12-13.28l-1.64-2.03c.91-.57,1.93-.61,2.99-.65-1.97-8.31-4.72-15.92-7.6-23.9-.47-1.31-1.41-3.19-.64-4.48l7.29-12.39,17.8-31.47c-4.94.7-9.25.65-13.61.3,6.78-1.24,13.14-4.41,14.9-11.69-3.77,4.52-8.31,7.31-13.68,7.95-2.43-3.95-5.03-3.32-5.66-4.04-.53-.61-.9-2.05.19-2.31.97-.24,1.78-.29,2.2-.91l1.29-.02c.04.05.2.37.33.42.18.06.51-.34.79-.36,1.78-.13,3.7-2.58,3.68-5.24,0-1.01,1.08-2.05.56-3.58l-1.07-3.13c-3.35-1.36-6.91-1.34-10.24-.7-4.28.82-8.08,3.29-10.18,7.16-1.13.19-2.08.87-3.14,1.6-.1-1.21-.47-2.02.04-3.51,2.54-7.52,9.4-12.56,17.44-12.66,8.58-.11,16.15,3.67,21.03,10.61.52-4.66-.03-9.02-2.21-13.06-.47-.59-1.9-1.75-2.63-1.91-12.42-2.25-27.46-2.79-38.41,2.43l4.49-5.81c1.78-2.23,2.83-4.86,2.29-7.6l4.31-.05Z"/>
          <path class="cls-6" d="M249.13,269.39l2.27,34.9.32,13.21c-1.9,1.46-3.71,2.96-5.96,3.93l-.25-2.88c4.24-11.71-.48-22.5.13-30.57.03-.34.12-.86,0-1.32-.07-.29-.5-.56-.95-.46l-.72-8.73c-.22-4.58.57-6.43,5.15-8.07Z"/>
          <path class="cls-4" d="M250.64,259.4c1,1.87,2.34,3.19,3.94,4.84.67.7.93,1.97,2.23,1.46l.78,11.6c-1.83-.85-3.54-.43-5.34.15l-1.84-12.72c-.15-1-.43-1.85-1.44-2.19l.17,6.85c-4.58,1.64-5.36,3.48-5.15,8.07-.08-.92-.34-2-.92-2.79l-2.25-23.53c2.96,3.32,5.38,6.2,8.75,8.77.47.36,1.03.21,1.08-.51Z"/>
          <path class="cls-6" d="M257.59,277.3l.94,21.94c.17,3.86-1.29,7.53-2.72,11.09l-3.57-32.88c1.81-.58,3.51-1,5.34-.15Z"/>
          <path class="cls-8" d="M282.79,133.12l-.78-.42c.3.01.57.14.78.42Z"/>
          <g>
            <path class="cls-2" d="M162.7,24.56c.03,1.74-.52,3.19-1.05,4.91-2.36,7.77-3.44,15.88-2.81,24.01.39,5.07.78,10.22,3.46,14.56,1.89,3.07,5.93,3.53,9.12,2.93,6.68-1.25,12.5-3.6,17.9-7.07,6-3.86,10.41-9.73,11.98-17.1,2.32-10.89-3.38-14.74-2.46-17.38.73-2.1,4.74-2.53,7.95-1.88-.05.73.16,1.49.55,2.3,2.19,3.97,3.18,8.26,3.14,12.88.52,10.63-3.03,20.07-8.73,29.34,7.78-6.42,12.04-15.58,13.61-25.34l2.53-15.95c1.09-.94,2.27-1.18,3.83-1.01,8.69.95,17.3,1.3,25.57,3.32-.29.8-.98,1.57-1.56,2.15-5.87,5.79-4.65,15.39-4.38,24.38l.31,10.51.29,8.9c-3.39,4.02-8.1,6.47-10.47,10.01-.06-.39-.42-.33-.61-.29l-10.56-.4c-20.41-.78-40.53-.36-60.64,3.03-4.96.83-9.32,1.7-13.94,3.24-.39-8.19.25-16.37.62-24.96l2.44-35.67c.21-3.03,1.73-5.81,4.14-7.37,3.11-2.03,6.51-1.81,9.76-2.04Z"/>
            <path class="cls-15" d="M230.88,88.74c-1.06.95-2.85.99-3.78,2.88,19.18,1.39,37.8,3.93,56.12,8.37l12.61,3.84-2.55,19.32-8.83-2.42c-15.71-4.31-31.95-6.62-48.21-7.77.05-.25-.09-.42-.3-.51-.41-.17-.77.09-.8.46l-2.36-.07c-1.95-.51-4.03-1.21-6.52-.28,1.62,1.17,3.18.74,4.65.91,17.84,2.05,35.55,4.85,52.9,9.52l7.71,2.82c-.87,2.06-1.95,3.42-3.35,4.11-1.92.95-3.59.06-5.38-.39-19.46-4.88-39.46-7.72-59.73-9.27-3.82-.29-7.09-.47-10.58-.45-.15-.28-.51-.5-1.04-.51l-5.33-.02h-1.58s-13.95-.15-13.95-.15c-9.61-.08-18.94.72-28.43,2.14-4.67.7-11.37,2.24-13.63,5.01-4.39-2.26-3.32-6.78-3.3-10.1,5.64-1.94,11.16-2.78,17.24-3.55,20.85-2.47,41.53-2.28,62.8-.59-.27-6.99-.39-13.53,1.7-20.41-12.56-.94-24.33-1.35-36.7-.8-15.19.3-29.85,2.07-44.41,5.27.18-.33.18-1.14-.08-1.5,4.62-1.53,8.98-2.4,13.94-3.24,20.11-3.39,40.23-3.8,60.64-3.03l10.56.4ZM238.47,102.97c0-1.41-1.14-2.55-2.54-2.55s-2.54,1.14-2.54,2.55,1.14,2.55,2.54,2.55,2.54-1.14,2.54-2.55ZM256.89,105.06c.02-1.66-.96-2.59-2.4-2.46-1.2.11-1.91,1.01-1.98,2.47-.08,1.7.94,2.67,2.43,2.57,1.22-.08,1.93-1.1,1.95-2.58ZM274.34,107.94c.1-1.9-.98-2.52-2.4-2.33-.98.13-1.73.8-1.86,2.12-.15,1.51.64,2.42,1.86,2.62,1.29.21,2.31-.59,2.4-2.41ZM287.87,114.35c1.68.41,2.55-1.13,2.65-2.2.1-1.14-.11-2.45-1.54-2.66-1.36-.2-2.18.93-2.42,1.82-.28,1.05-.1,2.7,1.32,3.04Z"/>
            <path class="cls-13" d="M276.83,73.6c6.62,1.85,15.23,4.36,19.06-2.38,4.13-7.28,5.29-19.03,5.33-27.48,0-1.06.12-2.05.61-3.01,3.23-.38,7.37-.16,9.96,2.48,3.39,3.46,3.71,8.45,2.95,13.21l-10.04,62.28-1.49,12.73c-.39,3.3-2.12,6.4-5.11,7.36-.74-2.06-2.5-3.51-4.64-4.33l-9.09-3.45c-.06-.54-.63-.65-1.12-.59l-.55.07.09-.97c1.8.45,3.46,1.34,5.38.39,1.4-.69,2.47-2.05,3.35-4.11l-7.71-2.82c-.18-.48-.45-1-.51-1.36-.11-.67.65-.93,1.15-.9l8.83,2.42,2.55-19.32-12.61-3.84c0-.7,0-1.29.28-1.78.25-.43.89-.58,1.43-.61l12.83,3.95c1.35-3.62,1.69-7.28,2.38-11.34-6.4-3.91-13.38-6-20.39-8.61l-13.07-4.85c-8.99-3.34-13.99-11.74-14.17-21.39-.12-6.83,1.9-13.21,7.16-17.76.71-.62,1.16-1.59,1.42-2.41,1.19.3,2.39.81,2.87,1.73.93,1.75.03,2.8-.86,4.25-4.57,7.4-4.04,17.36.9,24.28,3.38,4.74,7.77,6.74,12.83,8.15Z"/>
            <path class="cls-2" d="M145.21,116.18l.1-18.04c0-.89.24-1.51.52-2.04,14.56-3.2,29.22-4.96,44.41-5.27,12.38-.55,24.14-.14,36.7.8-2.08,6.88-1.97,13.42-1.7,20.41-21.27-1.69-41.95-1.88-62.8.59-6.08.76-11.6,1.61-17.24,3.55ZM194.1,99.96c-.68-.77-1.38-1.53-1.92-1.52s-1.37.47-1.78.93c-.89,1-.86,2.5-.18,3.35.77.96,2.18,1.09,3.22.49.93-.52,1.64-2.13.65-3.26ZM211.46,103.99c1.96.36,3.05-.47,3.4-1.55.27-.83.27-2.17-.61-3.01-1.1-1.04-3.14-.52-3.77.73-.59,1.16-.78,3.51.98,3.83ZM175.62,102.07c0-1.38-1.12-2.5-2.5-2.5s-2.5,1.12-2.5,2.5,1.12,2.5,2.5,2.5,2.5-1.12,2.5-2.5ZM154.88,106.13c1.3,1,2.87.26,3.28-.64.47-1.02.55-2.16-.19-3.27-.41-.62-1.66-1.03-2.73-.34s-1.47,3.39-.36,4.24Z"/>
            <path class="cls-15" d="M261.09,35.19c-.26.83-.71,1.8-1.42,2.41-5.26,4.55-7.29,10.93-7.16,17.76.18,9.66,5.18,18.05,14.17,21.39l13.07,4.85c7.02,2.61,13.99,4.7,20.39,8.61-.69,4.06-1.03,7.72-2.38,11.34l-12.83-3.95c-17.32-5.33-35.43-7.46-53.44-8.57,2.38-3.54,7.09-5.99,10.47-10.01l-.29-8.9-.31-10.51c-.27-8.99-1.48-18.59,4.38-24.38.58-.58,1.27-1.35,1.56-2.15,4.65-.03,9.28.99,13.79,2.11Z"/>
            <path class="cls-15" d="M171.79,25.39l-1.5,7.9c-.47,8.84,1.37,17.94,6.04,25.33,1.21,1.92,2.67,3.45,4.29,4.28,2.73,1.39,5.62,1.27,8.7,1.01-5.4,3.47-11.22,5.82-17.9,7.07-3.2.6-7.23.14-9.12-2.93-2.68-4.35-3.06-9.5-3.46-14.56-.63-8.13.45-16.25,2.81-24.01.52-1.72,1.08-3.17,1.05-4.91,3.03-.21,6.07-.22,9.09.83Z"/>
            <path class="cls-2" d="M301.82,40.73c-.49.96-.6,1.95-.61,3.01-.98.05-1.51.94-1.82,1.96l-3.81,12.54c-1.46,4.8-3.59,9.38-7.86,12.18-2.47,1.63-5.53,2.04-8.18,2.5.3-.65,1.43-.65,2.16-1.11,6.04-3.84,7.4-16.44,8.31-24.54.58-5.18,6.28-8.01,11.8-6.53Z"/>
            <path class="cls-6" d="M301.22,43.74c-.04,8.45-1.19,20.2-5.33,27.48-3.83,6.74-12.43,4.23-19.06,2.38l2.72-.68c2.65-.45,5.7-.87,8.18-2.5,4.26-2.81,6.4-7.38,7.86-12.18l3.81-12.54c.31-1.01.83-1.9,1.82-1.96Z"/>
            <path class="cls-3" d="M180.62,62.89c-1.63-.83-3.08-2.36-4.29-4.28-4.66-7.39-6.51-16.48-6.04-25.33l1.5-7.9c1.09.38,3.38,1.04,3.41,2.72l.28,15.07c.13,7.06,2.01,13.65,5.14,19.7Z"/>
            <path class="cls-8" d="M206.1,119.29c-.04.24.16.55.54.55l5.83-.03c3.49-.02,6.75.16,10.58.45,20.28,1.55,40.28,4.38,59.73,9.27l-.09.97c-4.48-1.01-8.79-2.48-13.91-2.79.87.77,1.82,1.76,2.89,2.08l9.24,2.76c-.14.19-.29.4-.73.56-13.26-3.75-32.66-8.23-46.07-8.03.03-.55-.62-.57-.61,0h-1.05c.09-.68-.22-.88-.99-1.05-6.32-1.34-12.43-1.84-18.78-1.9l-13.47-.12-7.37-.5-5.28-.06c.74-1.26,2.24-1,3.68-1.11,4.19-.33,8.02-.74,12.23-.42.88.07,1.62-.17,2.05-.64h1.58Z"/>
            <path class="cls-10" d="M284.93,97.61c-.53.03-1.18.18-1.43.61-.28.48-.28,1.08-.28,1.78-18.32-4.44-36.94-6.98-56.12-8.37.93-1.89,2.72-1.93,3.78-2.88.19-.04.55-.1.61.29,18.01,1.12,36.12,3.24,53.44,8.57Z"/>
            <path class="cls-15" d="M217.9,30.78l-2.53,15.95c-1.57,9.76-5.83,18.92-13.61,25.34,5.69-9.26,9.24-18.71,8.73-29.34.04-4.62-.95-8.91-3.14-12.88-.39-.82-.6-1.58-.55-2.3l8.95,1.83c.98.2,1.78.63,2.16,1.4Z"/>
            <path class="cls-10" d="M232.78,112.84l2.36.07,1.1.04c16.26,1.15,32.5,3.47,48.21,7.77-.5-.03-1.26.22-1.15.9.06.36.33.88.51,1.36-17.35-4.68-35.06-7.47-52.9-9.52.44-.55,1.2-.64,1.87-.62Z"/>
            <circle class="cls-10" cx="235.93" cy="102.97" r="2.54"/>
            <path class="cls-10" d="M256.89,105.06c-.01,1.48-.73,2.5-1.95,2.58-1.5.1-2.51-.87-2.43-2.57.07-1.46.78-2.37,1.98-2.47,1.43-.13,2.41.8,2.4,2.46Z"/>
            <path class="cls-10" d="M287.87,114.35c-1.42-.35-1.6-1.99-1.32-3.04.24-.89,1.07-2.02,2.42-1.82,1.43.21,1.64,1.51,1.54,2.66-.1,1.07-.97,2.62-2.65,2.2Z"/>
            <path class="cls-10" d="M274.34,107.94c-.09,1.82-1.12,2.62-2.4,2.41s-2.01-1.11-1.86-2.62c.13-1.32.89-2,1.86-2.12,1.42-.19,2.5.44,2.4,2.33Z"/>
            <path class="cls-1" d="M232.78,112.84c-.67-.02-1.44.08-1.87.62-1.46-.17-3.03.26-4.65-.91,2.49-.92,4.58-.23,6.52.28Z"/>
            <path class="cls-10" d="M212.47,119.81l-5.83.03c-.38,0-.59-.31-.54-.55l5.33.02c.53,0,.89.23,1.04.51Z"/>
            <path class="cls-1" d="M236.24,112.96l-1.1-.04c.03-.38.4-.63.8-.46.2.08.35.26.3.51Z"/>
            <path class="cls-8" d="M284.36,131.01c-.41-.16-.89-.11-1.12-.59.49-.06,1.06.05,1.12.59Z"/>
            <path class="cls-6" d="M211.46,103.99c-1.76-.32-1.57-2.67-.98-3.83.64-1.26,2.67-1.77,3.77-.73.89.83.88,2.17.61,3.01-.35,1.09-1.44,1.91-3.4,1.55Z"/>
            <circle class="cls-6" cx="173.13" cy="102.07" r="2.5"/>
            <path class="cls-4" d="M194.1,99.96c.99,1.13.27,2.73-.65,3.26-1.04.59-2.45.47-3.22-.49-.68-.85-.71-2.35.18-3.35.41-.46,1.25-.93,1.78-.93s1.24.75,1.92,1.52Z"/>
            <path class="cls-4" d="M154.88,106.13c-1.11-.85-.75-3.52.36-4.24s2.31-.28,2.73.34c.74,1.11.66,2.25.19,3.27-.41.9-1.97,1.64-3.28.64Z"/>
          </g>
          <path class="cls-6" d="M180.29,251.34l-6,43.84c-.75,5.48-1.7,10.86-3.03,16.52-.51,2.15-.65,4.66-2.8,5.6-.43-.61-1.05-1.4-.89-2.39l2.68-15.97,1.96-11.13,5.58-33.5c.21-1.26.79-2.35,1.43-3.08l1.07.1Z"/>
          <path class="cls-2" d="M170.25,298.94l-2.68,15.97c-2.37-1.13-4.29-3.49-5.24-5.94.89-.73,1.14-1.94,1.45-3.27,3.1-13.37,5.04-26.73,7.26-40.04.4,0,.63.16.66.58.59,10.17-.61,19.96-2.07,30.04-.15,1.02-.01,2.19.63,2.66Z"/>
          <path class="cls-2" d="M175.94,317.7c-.26,1.21-.18,2.67-1.15,3.64-1.23-.31-2.26-1.02-3.26-2.07-.3-.17-1.08.27-1.36.51l-1.71-2.48c2.15-.94,2.3-3.45,2.8-5.6,1.33-5.66,2.28-11.05,3.03-16.52l.46,9.75.25,11.5c.02.77.37,1.17.95,1.28Z"/>
          <path class="cls-2" d="M200.79,197.64l-4.76,2.56c-1.06-.47-1.76-1.51-2.01-2.68.1-3.16,1.34-6.96,3.79-9.26.44-.42,2.18-.99,1.85-1.76-2.29-5.37-4.1-10.58-5.32-16.26-.41-1.91-1.55-3.6-.86-5.51,3.51-1.36,5.85-4.14,8.39-6.78.75-.78,1.84-1.56,1.68-2.75.2-.27.28-.74.38-1.04l2.29-.91c.53-.22,1.24,1.24,1.18,2.03l-1.7,20.74c-.58,7.01-3.71,14.91-4.9,21.63Z"/>
          <path class="cls-3" d="M202.96,155.1c-.46.9-.95,1.82-1.09,2.83-2.55,2.64-4.88,5.43-8.39,6.78-1.53.59-3.12.96-4.79,1.2-2.84-.79-7.41-3-7.96-4.84,7.99,1.83,15.6-1.57,21.65-6.87.31.13.53.6.59.89Z"/>
          <path class="cls-3" d="M226.1,156.64l.38,4.43c.3,3.53,1.22,6.98,2.19,10.69l6.23,23.93c1.37,5.27.98,13.28-2.4,15.73-4.04-2.15-8.16-4.27-12.66-4.35-.28-.97-1.88-.46-2.45-.71-1.13-.51-.78-2.29-.91-3.04l8.23.13c-1.96-2.39-4.74-4.64-7.8-4.77-.21-.81-.41-1.52-.67-2.14-2-4.7-1.56-9.6-1.22-14.85l2.36-36.31c.19-2.92,1.56-5.67,3.98-6.82,10.96-5.22,25.99-4.68,38.41-2.43.73.16,2.16,1.31,2.63,1.91,2.18,4.04,2.73,8.4,2.21,13.06-4.88-6.95-12.46-10.73-21.03-10.61-8.04.11-14.9,5.15-17.44,12.66-.5,1.49-.14,2.3-.04,3.51Z"/>
          <path class="cls-11" d="M241.08,170.64c1.61.55,3.33.73,5.04.87,4.36.35,8.66.4,13.61-.3l-17.8,31.47-7.29,12.39c-.76,1.3.17,3.17.64,4.48,2.88,7.97,5.63,15.59,7.6,23.9-1.06.04-2.08.08-2.99.65l-5.78-4.32c-1.44-1.08-3.3-1.97-5.13-2.14-4.1-1.64-8.43-2.7-12.79-3.21.29-1.21.42-2.14-.01-3.28-.43-1.12.32-2.76.22-4.13-.26-3.68-.24-7.11.42-10.62,2.02.16,3.84,1.46,4.45,4.13l2.33,10.22c.25,1.11.78,2.24,2.05,2.14l-1.72-17.23c1.27-.71,1.59-1.55,2.09-2.46.33,3.06,1.2,5.49,2.4,8.02,2.16,4.57,3.5,9.19,5.16,13.88.67,1.88,3.55,2.52,5.15,3.09l-3.67-13.01c-.3-1.08-.82-1.8-1.89-2.34,1.43-3.81-1.28-7.31-.64-11.4,3.38-2.45,3.77-10.46,2.4-15.73l-6.23-23.93c-.97-3.71-1.88-7.16-2.19-10.69,1.26.08,2.08,1.15,2.8,2.17,2.93,4.1,6.91,7,11.79,7.39Z"/>
          <path class="cls-2" d="M212.43,216.67l-1.11,14.14c-.08.91.46,1.49,1.23,1.45.02.67-.18,1.52-.22,2.21-1.03.01-2.03.29-3.04.44l-.55.08c-.59-.3-1.48-.92-2.12-.92-.47-3.07.42-6,.58-8.98,1.46-.06,1.11-2.67,2.78-5.22,1.37-.65,1.87-1.87,1.64-3.15l.81-.07Z"/>
          <path class="cls-2" d="M216.8,216.4c-.66,3.51-.68,6.93-.42,10.62.1,1.37-.65,3.01-.22,4.13-.63.32-.97,1.03-2.09,1.18-.51-3.23.18-6.2.46-9.41.2-2.29-.33-4.54.51-6.53.58-.54,1.14-.04,1.75.01Z"/>
          <path class="cls-4" d="M215.05,216.39c-.85,1.99-.32,4.23-.51,6.53-.27,3.21-.96,6.18-.46,9.41,1.12-.15,1.47-.85,2.09-1.18.44,1.14.31,2.07.01,3.28l-3.86.05c.04-.69.24-1.55.22-2.21l-.12-4.04c.82-3.96,1.46-7.71.91-11.49.44.03,1.4-.04,1.72-.34Z"/>
          <path class="cls-11" d="M211.62,216.74c.22,1.28-.28,2.5-1.64,3.15-1.67,2.55-1.32,5.16-2.78,5.22.18-3.32.91-6.46.4-10.3,1.76.56,2.8,1.21,4.02,1.94Z"/>
          <path class="cls-1" d="M213.32,216.73c.56,3.79-.08,7.53-.91,11.49l.12,4.04c-.77.04-1.31-.54-1.23-1.45l1.11-14.14.9.06Z"/>
          <path class="cls-16" d="M202.43,234.05l4.19.03c.63,0,1.53.63,2.12.92l-3.63.2c-2.56.97-5.88,1.78-7.98.07l5.31-1.21Z"/>
          <path class="cls-9" d="M197.12,235.26c2.11,1.72,5.42.91,7.98-.07l3.63-.2.55-.08c-.23.87.35,1.73,1.31,2-.68.84-1.19.59-1.37.77l-.49-.02-2.04-.05c-1.24-.72-3.17-.79-4.34.09l-10.4,1.6c-3.59.55-6.58,2.47-9.59,4.75l-5.5,1.95c4.44-4.7,9.32-9.12,15.94-10.05.7.26,1.86.33,2.16-.47.09.03.28-.02.36-.06l.54-.38c.39-.03.96-.03,1.25.21Z"/>
          <path class="cls-16" d="M194.96,235.5c-.29.8-1.45.72-2.16.47.56-.08,1.46-.7,2.16-.47Z"/>
          <path class="cls-16" d="M195.32,235.44l.54-.38-.54.38Z"/>
          <path class="cls-10" d="M191.96,239.31c-.06.95-1.03,1.05-1.9,1.27-3.55.9-5.69,3.94-8.14,6.12-1.88,1.67-1.38,2.72-1.64,4.63l-1.07-.1c.06-.54.23-1.15-.27-2.04-2.55,2.69-5.3,4.84-8.76,6.52,1.67-3.88,4.04-6.9,6.68-9.7l5.5-1.95c3.01-2.28,6.01-4.2,9.59-4.75Z"/>
          <path class="cls-2" d="M220.92,125.69c.8,2.73.49,4.98-.69,7.76-.83,1.96-.71,4.94-2.63,6.31-1.67,1.2-3.15,2.28-3.45,4.54l-2.46,18.05c-1.41,10.31-2.89,20.17-6.3,29.95-.96-2.19.12-4.09.36-6.2l4.07-35.26v-5.11s0-.56,0-.56c.76-.72.59-2.02.42-3.02l-.39-2.3c1.94-1.87,2.69-4.78,4.44-7.04l5.49-7.05c.34.06.79-.04,1.14-.07Z"/>
          <path class="cls-10" d="M209.85,139.85l.39,2.3c-.67.8-.43,2.01-.42,3.02v.56s-1.62-1.61-1.62-1.61c-2.34-2.42-5.59-3.79-8.47-5.46-2.01-1.17-4.16-1.88-6.22-2.75-3.23-1.36-6.56-1.55-10.03-1.88s-6.43-.61-10.24.91c.92-1.64,1.38-2,1.55-3.91l10.08-.9c9.04,1.81,17.32,5.31,24.98,9.72Z"/>
          <path class="cls-5" d="M232.46,125.09l-4.31.05-7.23.56c-.34.03-.8.13-1.14.07l-16.28-2.96-4.28-.78,13.47.12c6.35.06,12.47.56,18.78,1.9.77.16,1.08.37.99,1.05Z"/>
          <path class="cls-11" d="M228.15,125.14c.54,2.74-.51,5.37-2.29,7.6l-4.49,5.81c-2.42,1.15-3.79,3.9-3.98,6.82l-2.36,36.31c-.34,5.25-.78,10.15,1.22,14.85l-11.69.05c-1.34,0-2.8.53-3.77,1.05,1.19-6.72,4.33-14.62,4.9-21.63l1.7-20.74c.06-.79-.65-2.25-1.18-2.03l-2.29.91c.82-2.31.94-4.67-.33-7.07l-3.43-6.49-.88-1.03c-.21-.24-.25-.73.44-.9,2.88,1.67,6.12,3.04,8.47,5.46-.55,3.31.33,7.77,1.62,6.72l-4.07,35.26c-.24,2.11-1.33,4.01-.36,6.2,3.41-9.78,4.89-19.64,6.3-29.95l2.46-18.05c.31-2.25,1.78-3.34,3.45-4.54,1.92-1.37,1.8-4.36,2.63-6.31,1.18-2.78,1.49-5.03.69-7.76l7.23-.56ZM205.07,193.31c-.07-.66-.78-.47-.64.11-.19,1.19,1.08.88.64-.11Z"/>
          <path class="cls-9" d="M216.48,203.32l-2.89-.12c-.42-.96-.13-2.78.64-3.37.58-.44,1.54-1.21,2.69-1.16,3.06.13,5.84,2.38,7.8,4.77l-8.23-.13Z"/>
          <path class="cls-9" d="M207.03,202.54c-2.98,1.11-8.41-.02-8.31-1.57.09-1.36,3.55-2.43,5.67-1.79,1.1.33,2.69,1.72,2.64,3.36Z"/>
          <path class="cls-10" d="M190.76,139.91c.13-.1.4-.03.32.21,5.56,1.64,11.85,9.01,10.37,11.96-2.73,2.56-5.82,4.81-9.7,5.38,2.05-2.04,3.58-4.51,3.84-7.43.35-4.01-1.88-6.9-5.46-7.95l-1.98-.58c-.09-.77.39-1.32.94-1.39l1.66-.2Z"/>
          <path class="cls-6" d="M199.72,138.66c-.69.17-.65.66-.44.9l.88,1.03,3.43,6.49c1.27,2.4,1.15,4.76.33,7.07-.1.29-.18.76-.38,1.04l-.59-.08c-.07-.3-.28-.77-.59-.89-.73-.3-1.27-1.39-.91-2.13,1.48-2.96-4.81-10.33-10.37-11.96.46-.09,1.59-.03,1.95-.57.67-1.02.41-2.42.47-3.63,2.05.86,4.21,1.58,6.22,2.75Z"/>
          <path class="cls-4" d="M191.76,157.46c-1.43,1.42-4.52,1.35-7.09.76,2.86-2.38,5.66-3.98,6.98-7.42s-1.64-5.89-1.51-8.72c3.58,1.05,5.81,3.94,5.46,7.95-.25,2.92-1.78,5.39-3.84,7.43Z"/>
          <path class="cls-10" d="M250.64,259.4c-.05.72-.61.87-1.08.51-3.37-2.57-5.78-5.45-8.75-8.77l2.25,23.53,1.32,26.18,1.14,17.7.25,2.88c-.93.4-1.76,1.71-3.12,1.4l-.08-1.07-.45-13.25-.67-11.23-.04-2.45c0-.22-.18-.49-.26-.67l-1.85-44.9c1.51-.23,1.9-1.8,2.23-3.13,3.84,3.74,6.59,8.57,9.12,13.28Z"/>
          <path class="cls-4" d="M229.24,155.04c1.13,2.14,2.47,4.11,4.3,5.62,1.07.89,1.97,2.17,3.76,2.5l2.98-2.26c1.21-.91,2.65-1.07,3.79-.39-.42.62-1.23.68-2.2.91-1.09.27-.72,1.7-.19,2.31.63.72,3.23.09,5.66,4.04-4,.48-8.1.14-11.87-2.26-.41-.26-1.07.36-.75.79l6.36,4.35c-4.89-.39-8.87-3.29-11.79-7.39-.73-1.02-1.54-2.1-2.8-2.17l-.38-4.43c1.05-.74,2.01-1.41,3.14-1.6ZM226.97,157.37l-.36.26.36.26.26-.26-.26-.26Z"/>
          <path class="cls-2" d="M239.42,147.88c1.61.98,2.45,2.63,3.13,4.35-2,.55-3.24,3.26-2.33,5.47-2.52,1.08-1.74,3.78-6.69,2.96-1.83-1.51-3.16-3.47-4.3-5.62,2.1-3.87,5.9-6.33,10.18-7.16Z"/>
          <path class="cls-11" d="M246.49,160.53c-.08-.41-.65-.66-.95-.54-.17.07-.31.24-.18.49l-1.29.02c-1.14-.68-2.58-.52-3.79.39l-2.98,2.26c-1.8-.32-2.69-1.61-3.76-2.5,4.95.82,4.17-1.88,6.69-2.96.75,1.8,3.23,2.06,4.66,1.64,2.1-.62,2.74-2.84,2.26-4.75s-2.59-2.92-4.6-2.36c-.68-1.72-1.52-3.37-3.13-4.35,3.33-.64,6.89-.66,10.24.7l1.07,3.13c.52,1.52-.57,2.57-.56,3.58.02,2.66-1.9,5.11-3.68,5.24Z"/>
          <path class="cls-10" d="M246.12,171.51c-1.7-.14-3.43-.31-5.04-.87l-6.36-4.35c-.31-.43.35-1.05.75-.79,3.77,2.41,7.87,2.74,11.87,2.26,5.37-.64,9.91-3.43,13.68-7.95-1.76,7.28-8.12,10.45-14.9,11.69Z"/>
          <path class="cls-8" d="M234.11,239.77l5.78,4.32,1.64,2.03c-.33,1.34-.72,2.9-2.23,3.13-2.68-3.07-5.7-6.46-9.59-7.74,1.66-.28,1.89-1.74,4.4-1.74Z"/>
          <path class="cls-4" d="M246.49,160.53c-.28.02-.62.42-.79.36-.13-.04-.29-.36-.33-.42-.14-.25,0-.42.18-.49.29-.12.87.13.95.54Z"/>
          <path class="cls-5" d="M234.12,125.07h-.61c0-.57.65-.55.61,0Z"/>
          <path class="cls-11" d="M202.36,237.71l4.34-.09,2.04.05c-.23,1.77-1.24,3.39-1.01,5.28l-4.66.73c-2.36.37-4.67,1.3-6.13,3.61,6.85-.76,13.15-1.42,19.36.23l.54,10.7.4,5.89,1.58,13.78c1.99,17.37,3.09,34.48,2.77,51.68l-6.95.64c.68-2.01.46-4.02.54-6.47.72-21.9,1.41-43.45.89-65.34l-.86-4.82c-1.19,0-1.54.76-1.55,1.68l-.4,30.26-.49,16.42-1.05,21.57.42,6.68-7.61-.07c.34-1.06.61-2.23.59-3.72-.26-19.13.62-37.85,1.17-56.99l.44-15.43c.02-.55-.94-.52-1.16-.21-1.55,2.23-3.33,32.5-3.43,41.09l-.27,35.24-6.41-.98.82-6.34,2.45-32.24.7-17.99c.26-6.67,1.12-13.12-.07-20.12-2.2,4.14-1.53,8.4-1.85,12.61l-3.04,40.78-1.72,21c-.06.73-.52,1.13-1.24,1.22l-.9-18.93c-.03-.64-.45-1.05-.89-1.2,2.15-15.1,3-30.3,3.34-45.76.07-3.26.93-6.23.05-9.54-1.43.29-1.33,1.35-1.44,2.48l-4.94,52.28c-.04.41.24.97.1,1.09s-.65.1-1,.07l-.95-14.86h-.82s-.09,4.23-.09,4.23c-.02,1.11-.74,1.72-1.66,1.76l1.02-8.6c.31.18,1.11.05,1.11-.53l-.06-6.36c-.03-2.75.29-5.46.54-8.44l1.29-15.64c.23-2.76,1.31-5.79-.48-8.67-2.36,9.32-2.73,18.26-4,27.52l-4.49,32.84-1.28,5.93c-.58-.11-.94-.51-.95-1.28l-.25-11.5-.46-9.75,6-43.84c.26-1.92-.24-2.96,1.64-4.63,2.45-2.18,4.59-5.22,8.14-6.12.87-.22,1.83-.32,1.9-1.27l10.4-1.6Z"/>
          <path class="cls-6" d="M221.4,238.79l8.3,2.73c3.89,1.28,6.91,4.67,9.59,7.74l1.85,44.9c.01.26.07.48.26.67l.04,2.45c-.93.24-1.45,1.69-1.44,2.88l.12,16.16.97,4.24c.2.87.85,1.21,1.46,1.2l.08,1.07-.58.6c-1.61,1.67-4.19,1.96-6.31,2.73l-.45-34.25c-.69-12.6-1.44-24.73-2.95-37.32-.05-.39-.89-.45-.9-.18l-.06,1.27,1.52,48.06.28,23.35-6.01,1.46c1.09-6.05.44-12.08.13-18.47l-1.55-31.72-.59-12.49c-2.83-2.94-.75-7.11-2.1-9.7-.02-.25.03-.62-.07-.81-.14-.28-.58-.38-.76-.24-.89.69-.06,21.61.72,29.08.32,3.05-.06,6.15.53,9.48l.3,7.45-.27,16.86c-.02.96.58,1.81,1.14,2.12.93,2.88.45,5.99.41,8.93l-3.46.53c.31-17.2-.78-34.31-2.77-51.68l-1.58-13.78-.4-5.89-.54-10.7,4.21.43c.59.06.79-.38,1-.59.75-.76.34-2.14-.27-3.17l-3.49-6,3.65.59Z"/>
          <path class="cls-6" d="M214.63,330.2h-2.5s-.42-6.69-.42-6.69l1.05-21.57.49-16.42.4-30.26c.01-.92.36-1.68,1.55-1.68l.86,4.82c.52,21.88-.16,43.44-.89,65.34-.08,2.44.14,4.46-.54,6.47Z"/>
          <path class="cls-6" d="M204.51,330.13l-2.65-.02.27-35.24c.1-8.59,1.88-38.86,3.43-41.09.21-.3,1.17-.33,1.16.21l-.44,15.43c-.54,19.13-1.43,37.86-1.17,56.99.02,1.49-.25,2.66-.59,3.72Z"/>
          <path class="cls-6" d="M195.45,329.13l-3.75-.59c.06-.1.1-.43-.2-.5.72-.09,1.18-.49,1.24-1.22l1.72-21,3.04-40.78c.31-4.2-.36-8.47,1.85-12.61,1.19,7,.33,13.45.07,20.12l-.7,17.99-2.45,32.24-.82,6.34Z"/>
          <path class="cls-6" d="M189.71,307.91l-2.03,14.31-1.14,4.76-2.5-.49-.04-.71,1.83-17.25c.35.03.86.06,1-.07s-.14-.69-.1-1.09l4.94-52.28c.11-1.14,0-2.19,1.44-2.48.88,3.3.03,6.27-.05,9.54-.34,15.46-1.2,30.66-3.34,45.76Z"/>
          <path class="cls-10" d="M235.75,326.16l-2.56.93-.28-23.35-1.52-48.06.06-1.27c.01-.27.86-.21.9.18,1.51,12.59,2.26,24.72,2.95,37.32l.45,34.25Z"/>
          <path class="cls-11" d="M227.17,328.55l-2.14.48c.03-2.94.51-6.05-.41-8.93l-.05-33.81.46-5.87c.06-.81-.08-1.73.72-2.06l1.55,31.72c.31,6.39.97,12.43-.13,18.47Z"/>
          <path class="cls-2" d="M191.5,328.04c.3.07.26.4.2.5-1.79-.28-3.46-1.21-5.16-1.56l1.14-4.76,2.03-14.31c.43.15.86.56.89,1.2l.9,18.93Z"/>
          <path class="cls-11" d="M242.06,323.43l.58-.6c.03.33-.3.58-.58.6Z"/>
          <path class="cls-11" d="M243.98,277.45l.72,8.73c.02.3-.1.87.04,1.3.09.28.39.54.9.49-.61,8.08,4.11,18.86-.13,30.57l-1.14-17.7-1.32-26.18c.58.78.85,1.86.92,2.79Z"/>
          <path class="cls-4" d="M245.65,287.97c-.51.05-.81-.2-.9-.49-.13-.42-.01-1-.04-1.3.44-.1.88.16.95.46.11.47.02.98,0,1.32Z"/>
          <path class="cls-4" d="M184.37,284.17l-1.05,6.89-1.02,8.6-3.05,18.92c-.27,1.69-.59,3.25-1.73,4.26-1.1-.05-2.15-.54-2.73-1.49.97-.97.89-2.43,1.15-3.64l1.28-5.93,4.49-32.84c1.27-9.26,1.64-18.2,4-27.52,1.8,2.89.71,5.91.48,8.67l-1.29,15.64c-.25,2.98-.56,5.7-.54,8.44Z"/>
          <path class="cls-2" d="M185.83,308.53l-1.83,17.25c-1.55.37-5.04-1.44-6.48-2.95,1.15-1.01,1.46-2.56,1.73-4.26l3.05-18.92c.92-.04,1.64-.65,1.66-1.76l.09-4.22h.82s.95,14.85.95,14.85Z"/>
          <path class="cls-11" d="M201.86,157.93c.14-1.01.63-1.93,1.09-2.83l.59.08c.16,1.2-.93,1.97-1.68,2.75Z"/>
          <path class="cls-16" d="M212.32,234.48l3.86-.05c4.37.51,8.69,1.57,12.79,3.21-2.57-.23-5.41-.36-7.57,1.15l-3.65-.59c-1.99-.32-3.99-.47-6-.49l-2.53-.02c.19-.18.7.07,1.37-.77-.96-.26-1.54-1.12-1.31-2,1.01-.15,2-.43,3.04-.44Z"/>
          <path class="cls-9" d="M228.97,237.64c1.84.17,3.69,1.06,5.13,2.14-2.51,0-2.74,1.46-4.4,1.74l-8.3-2.73c2.17-1.52,5.01-1.38,7.57-1.15Z"/>
          <path class="cls-2" d="M211.75,237.71c.56,1.47,2,2.26,2.43,4.36-1.34.4-2.87.29-4.25-.21-.25.55-.16.86-.15,1.13l-2.07-.04c-.22-1.89.78-3.51,1.01-5.28l.49.02,2.53.02Z"/>
          <path class="cls-16" d="M206.7,237.62l-4.34.09c1.17-.88,3.1-.81,4.34-.09Z"/>
          <path class="cls-4" d="M209.82,145.73v5.11c-1.29,1.05-2.18-3.41-1.63-6.72l1.63,1.61Z"/>
          <path class="cls-11" d="M209.82,145.17c0-1.01-.25-2.22.42-3.02.17,1,.33,2.3-.42,3.02Z"/>
          <path class="cls-2" d="M205.07,193.31c.44.99-.82,1.3-.64.11-.14-.58.56-.77.64-.11Z"/>
          <path class="cls-11" d="M241.44,297.27l.67,11.23.45,13.25c-.61,0-1.26-.33-1.46-1.2l-.97-4.24-.12-16.16c0-1.19.5-2.64,1.44-2.88Z"/>
          <path class="cls-11" d="M241.4,294.82c-.19-.19-.25-.41-.26-.67.07.18.25.45.26.67Z"/>
          <polygon class="cls-15" points="226.97 157.37 227.24 157.63 226.97 157.9 226.62 157.63 226.97 157.37"/>
          <path class="cls-9" d="M240.22,157.7c-.92-2.2.32-4.91,2.33-5.47s4.09.39,4.6,2.36-.16,4.13-2.26,4.75c-1.43.42-3.91.16-4.66-1.64ZM243.38,153.92c-.13-.79-1.18-.62-1.7-.12-.6.57-.69.99-.44,1.63.16.42,1.04.44,1.5.22.36-.17.83-.58.64-1.73Z"/>
          <path class="cls-10" d="M207.72,242.95l2.07.04c3.49.07,9.7,1.71,11.71,4.38-.2.21-.41.65-1,.59l-4.21-.43c-6.2-1.64-12.51-.98-19.36-.23,1.46-2.31,3.77-3.24,6.13-3.61l4.66-.73Z"/>
          <path class="cls-2" d="M183.33,291.06l1.05-6.89.06,6.36c0,.58-.8.71-1.11.53Z"/>
          <path class="cls-11" d="M217.75,238.2l3.49,6c.6,1.03,1.01,2.41.27,3.17-2.02-2.67-8.23-4.31-11.71-4.38-.01-.27-.1-.57.15-1.13,1.37.51,2.91.62,4.25.21-.44-2.11-1.88-2.89-2.43-4.36,2.01.02,4.01.17,6,.49Z"/>
          <path class="cls-4" d="M225.75,278.36c-.8.33-.66,1.25-.72,2.06l-.46,5.87h-.51s-.06-3.14-.06-3.14c-1.3-8.93-.96-17.97-.95-26.99,1.36,2.59-.72,6.76,2.1,9.7l.59,12.49Z"/>
          <path class="cls-1" d="M223.05,256.17c-.01,9.02-.35,18.06.95,26.99l-1.06,1.04c-.78-7.47-1.61-28.38-.72-29.08.18-.14.62-.04.76.24.1.2.05.56.07.81Z"/>
          <path class="cls-1" d="M224.63,320.1c-.56-.32-1.15-1.16-1.14-2.12l.27-16.86.3-14.83h.51s.05,33.81.05,33.81Z"/>
          <path class="cls-16" d="M224.06,286.29l-.3,14.83-.3-7.45c-.58-3.33-.21-6.42-.53-9.48l1.06-1.04.06,3.13Z"/>
          <path class="cls-1" d="M243.38,153.92c.19,1.16-.29,1.57-.64,1.73-.47.22-1.34.19-1.5-.22-.25-.64-.16-1.06.44-1.63.53-.5,1.58-.67,1.7.12Z"/>
        </g>
      </g>
    </g>
  </g>
</svg>