<?xml version="1.0" encoding="UTF-8"?>
<svg id="Réteg_1" xmlns="http://www.w3.org/2000/svg" version="1.1" viewBox="0 0 112 156">
  <!-- Generator: Adobe Illustrator 30.3.0, SVG Export Plug-In . SVG Version: 2.1.3 Build 182)  -->
  <defs>
    <style>
      .st0 {
        fill: #dfdbd1;
      }
    </style>
  </defs>
  <path class="st0" d="M72.6,115.8h-33.4c0-.1-27-40.3-27-40.3h0c0-18.8,11.9-35.4,21.8-46.1,10.8-11.6,21.7-18.8,21.8-18.9h.1c0,0,.1,0,.1,0,.1,0,11,7.3,21.8,18.9,10,10.7,21.9,27.3,21.9,46h0c0,0,0,.1,0,.1l-27.1,40.2ZM39.5,115.2h32.8l26.9-39.9c0-34.4-40.7-62.5-43.4-64.3-2.7,1.8-43.2,29.9-43.2,64.3l26.9,39.9Z"/>
</svg>