<?xml version="1.0" encoding="UTF-8"?>
<svg id="Réteg_1" data-name="Réteg 1" xmlns="http://www.w3.org/2000/svg" viewBox="0 0 409.19 709.78">
  <defs>
    <style>
      .cls-1 {
        fill: #faceb3;
      }

      .cls-2 {
        fill: #7a7596;
      }

      .cls-3 {
        fill: #f8f4e9;
      }

      .cls-4 {
        fill: #3f639b;
      }

      .cls-5 {
        fill: #fbd3b3;
      }

      .cls-6 {
        fill: #facbb2;
      }

      .cls-7 {
        fill: #fcd8b2;
      }

      .cls-8 {
        fill: #f4b7b6;
      }

      .cls-9 {
        fill: #456292;
      }

      .cls-10 {
        fill: #f9c5b2;
      }

      .cls-11 {
        fill: #f1abb1;
      }

      .cls-12 {
        fill: #172c43;
      }

      .cls-13 {
        fill: #2d4669;
      }

      .cls-14 {
        fill: #f9c7b2;
      }

      .cls-15 {
        fill: #1f3650;
      }

      .cls-16 {
        fill: #fbd1b3;
      }

      .cls-17 {
        fill: #49679a;
      }

      .cls-18 {
        fill: #f09fb5;
      }

      .cls-19 {
        fill: #f9dab9;
      }

      .cls-20 {
        fill: #fcddb8;
      }

      .cls-21 {
        fill: #fcd7b2;
      }

      .cls-22 {
        fill: #3e649e;
      }

      .cls-23 {
        fill: #1d3149;
      }

      .cls-24 {
        fill: #f3abb2;
      }

      .cls-25 {
        fill: #fbd5b3;
      }

      .cls-26 {
        fill: #385888;
      }
    </style>
  </defs>
  <g id="Generatív_objektum_0_30_" data-name="Generatív objektum (0, 30)">
    <path class="cls-3" d="M181.51,169.24c-.86.72-.96,1.89-.85,2.94-2.57-.11-6.56.35-8.45-1.4-1.02-.94-2.26-1.44-3.55-.49-3.02,2.22-3.96,6.26-2.95,6.29,2.42.07,1.78-4.11,4.8-3.22-.7,2.88,2.61.64,7.54,2.25.15,1.15-.35,1.95-.75,3.01-4.36.91-9.76,3.09-10.54,6.19-.36,1.43,1.42,3.4,2.54,2.89.49-.22.12-2.33.56-2.52l2.09-.94c3.32-1.49,6.23-1.84,9.1-.63l1.16,1.23c.1.09-1.16,1.21-.24,2.29,1.27-1.28,2.6.38,1.33.96-1.36-.08-4.28.07-4.73,1.53-.48,1.59.37,3.13.36,4.06-1.91.03-2.14,2.26-3.62,2.84-3.43-1.53-6.05-4.26-9.06-6.99.8,5.21,4.57,8.09,5.86,11.85l-7.33,13.05c-.84,11.12,5.75,26.23,4.49,35.9l-4.09,14.08c4.27-3.11,6.19-7.67,9.3-11.61,3.87-4.91,11.83-10.93,15.43-10.16-.47,2.94-2.2,5.46-3.49,8.18l-8.82,18.61,1.14.72,11.38-20.05,2.51-4.94c.87.94,1.97,1.12,2.67.41-2.39-.6-3.3-2.25-3.66-3.75-1.05-4.38-.71-9.58,4.34-11.45.82-.3,1.65-.63,1.73-1.15.4-2.65-4.51-10.54-6.48-21.87-.08-.47-1.4-1.25-1.06-1.78,4.46-1.98,10.37-4.51,10.2-7.32l4.21.96c.62,13.82-2.14,27.11-5.44,40.59-.55,2.24-.18,4.21-3.11,5.16,1.2.49.94,1.46.82,1.94-.56-.34-1.55-.2-1.74.44-.56,1.91,1.86,2.75,4.3,3.54-.13,1.05-.09,1.94.04,2.77-1.37-.13-2.49-1.38-4.69-2.09l-5.67,23.52c-8.12-.1-16.58,3.81-21.38,11.39,3.26,1.21,5.35-1.69,7.81-1.57-2.25,3.48-7.01,2.88-9,4.12-1.35.85-.25,3.3-.51,4.38l-4.19,17.66-2.66,13.69c-.71.18-1.3.29-2,.04-.91-.33-3.17-4.3-2.28-7.75l7.19-28.06c.29-1.13-1.02-2.23-1.58-2.13-.88.16-1.18.81-1.46,1.98l-5.85,24.08c-1.44-.29-1.58-1.8-1.95-3.21-3.68-14.11-5.61-28.09-7.9-42.54-3.48-21.93-3.91-43.21-2.96-65.93-3.53,9.64-1.85,19.82-2.27,30.3-.99,24.86,2.89,57.07,10.29,80l9.57,29.67,8.38,24.83,34.72,9.27c-3.39,4.82-6.84,8.32-11.21,12.03l-26.49,22.54c-11.52,3.13-24.42.21-35.9-1.67l-6.45-31.46c-.93-4.54-.8-9.12-1.26-14.23-1.96-21.68-2.27-42.89-2.89-64.15.12-1.96.72-3.93.86-6l1.97-29.15c.64-9.4.51-18.31,1.31-27.58.94-10.99,1.62-21.59,5.13-32.55l-3.12-4,1.22-.72c5.82-3.45,10.91-8.35,17.71-10.57l4.49-20.62,3.25-16.36c8.74,6.87,18.41,12.26,29.11,15.73,1.65.53,2.53,1.17,2.72,2.68ZM151.32,279.81c1.42-5.13.7-9.98-1.19-14.25-.55,5.07-.3,9.54,1.19,14.25Z"/>
    <path class="cls-3" d="M103.56,196.36c-3.81,1.14-5.07,5.2-5.57,9.13-2.41,18.8-2.68,37.88-3.97,56.84l-1.12,16.52-4.23,41.61c-.73,7.15-.86,13.79-.85,20.54-.15-.03-.57.3-.84.75-9.56-4.4-21.54-9.93-27.61-1.17l13.43,4.62c3.17,3.5,7.69,4.59,11.03,11.37,2.11,4.29,4.8,8.4,5.08,12.82l1.92,29.35-6.21-2.12c-4.3-1.53-9.45-4.98-14.42-3.85-8.17,1.87-12.76,9.38-14.42,16.89-1.08,4.91-2.7,9.14-1.98,13.72.18,1.12.02,2.24.32,2.99-.99,1.74-1.32,4.58-.18,7.11,4.09-6.47,9.95-7.64,16.31-7.16,4.79,1,9.44,2.26,13.63,4.66-1.33,5.13-1.48,10.72.27,16.07l4,12.21c-8.92-1.24-14.25-2.85-12.18,1.84l3.71,8.4c-.91-.26-1.94-.38-2.61-.15-3.86,8.94-4.42,21.36-7.17,25.46-.59.88-3.87.63-4.52-.09.19-1.29-1.8-3.39-1.57-4.73l3.51-20.38c.22-1.28-1.26-1.57-1.91-1.69-3.74-.69-6.26,13.93-6.38,22.39-.02,1.38.72,4.89-1.96,4.73-1.29-.53-3.23-2.24-4.88-.61l-.77-5.02c-1.55-10.14,6.16-26.47.36-23.16-3.1,1.77-5.3,16.39-4.67,24.67l-3.46,1.87c-2.42-.99-2.09-3.75-4.08-5.32-.27,1.91-1.18,2.94-2.56,3.09,2.07,2.22,3.22,4.82,5.67,6.21l2.5,4.43-1.15,18.22-2.12-.38c-3.04-3.26-8.4-4.28-13.28-3.47-2.61,20.42-3.98,39.93-4.17,60.21l-.43,46.32.24,4.26c-3.4-6.16-4.5-13.04-4.7-20.51l-.73-27.41.58-37.7,1.31-39.97c.25-7.62,3.13-15.47,9.89-19.41,4.05-2.36-1.33-17.69,11.81-19.89-1.88-4.16-1.5-7.13-1.02-10.82,2.73-21.17,3.56-42.01,4.44-63.29l1.39-33.42c.77-18.41,1.56-36.18,4.66-54.19,4.17-24.24,9.65-47.57,19.98-69.95,5.66-12.26,14.12-22.75,23.3-32.18,2.96-3.04,6.29-5,9.31-7.2,2.81.86.49,1.33-.94,5.93Z"/>
    <path class="cls-3" d="M156.73,55.06c2.47,1.76,5.75,3.3,6.46,5.8-3.54,1.66-5.33,5.1-6.16,8.51-3.35,13.74-3.26,29.13,3.17,42.05,3.64,7.31,12.23,8.76,19.5,8.8s14.83-2.87,17.3-9.65c1.2-3.28,1.68-6.64,1.97-10.02.59-6.87-5.38-10.48-3.57-13.79,1.08-.25,2.01-2.46,3.65-2.11.82.27,2.1.45,2.91.38l5.22,13.7c2.6,11.56-1.45,22.6-7.72,32.71,7.84-4.45,12.51-12.47,14.15-21.1l2.75-14.5c.44-2.32,19.6,2.76,29.65,2.82-2.85,3.88-5.83,7.32-5.66,12.01l1.04,28.94-12.97,10.63-2.23.67c-1.4-1.42-3.88-1.69-6.06-1.9-13.3-1.29-25.78-3.8-38.48-7.56-14.45-4.28-27.87-10.9-37.69-21.96-.22,4.42,3.31,5.59,5.62,7.62,5.36,4.73,10.55,8.57,17.32,11.13,18.5,6.99,37.76,11.65,57.32,14.25-2.03,6.51-1.98,12.12-1.71,18.98-19.33-2.42-39.49-7.03-58.12-15.36-8.05-3.6-14.47-9.37-20.48-14.44-3.68-5.83-.52-49.77.1-65.4l.94-23.55,1.09-6.29c1.6.51,2.22,2.56,3.62,3.56l7.07,5.06ZM155.19,142.4c1.77-2.44-.88-5.05-3.3-5.62-1.32,1.26-.72,2.71-.14,4.23.43,1.15,2.39,2.84,3.44,1.39ZM171.74,151.58c1.21-1.44.11-3.28-.9-4.11-.7-.57-2.82-1.33-3.29-.56-.98,1.63-.13,3.31.68,4.07s2.7,1.56,3.51.6ZM190.86,158.32c1.9-1.37.78-3.26-.17-4.16-.72-.68-2.44-1.91-3.61-1.03-1.56,1.18-.61,2.84.09,3.79.75,1,2.41,2.31,3.69,1.39ZM212.17,160.19c-.71-2.51-4.68-3.4-5.55-1.68-1.13,2.24.21,4.58,2.01,4.88,1.5.25,4.27-.6,3.53-3.21Z"/>
    <path class="cls-3" d="M54.05,504.8c10,2.55,20.37,4.29,30.65,3.56l2.59-.18c-2.8,7.34-7.78,14.01-15.64,15,1.24,9.21,4.55,17.26,3.78,26.2-.32,3.75-3.96,7.04-5.74,9.99-3.44,5.69-4.59,12.87-4.8,19.59,1.48,1.59,2.12,2.34,3.32,3.21,1.91,1.39,3.91,1.78,6.07,1.87.06,1.94,1.54,2.73,3.94,3.26-2.9,4.44-7.35,6.74-11.75,10.41l13.89,9.99-6.95,7.35c-3.81,8.68-4.7,18.09-5.44,27.81,7.07.16,13.43-5.45,14.7-4.61,1.2.8,2.42-.18,3.63-.71l6.7-2.93c1.06.28,1.69,1.71,1,2.91-.65,1.12-.57,1.87-.75,2.8-1.48,7.64-4.68,14.93-7.91,22.21l-10.98-10.44c-5.74-4.1-12.53-6.86-19.52-7.73l-3.94-65.91c-1.52-24.82-2.16-48.78-1.5-73.61,1.84-.18,3.47-.33,4.65-.03Z"/>
    <path class="cls-3" d="M122.24,178.12c.02,1.36.16,2.95,1.07,3.51l-2.99,9.54c-1.37,4.34-2.82,8.61-2.45,13.26-3.32,18.36-5.11,37.31-6.76,57.01-1.22,13.75-2.82,27.08-1.03,40.5,1.83,13.68,1.58,26.96,2.33,40.91l2.56,47.86c.23,4.38-.8,9.8-1.88,13.53l-5.01.38c-.62.03-1.16-.11-2,.24l-.52-8.78-.47-22.47c-.15-7.24.58-14.34-3.09-20.92.15,6.97,1.12,12.76,1.01,19.29l-.49,27.31c-.57.1-1.75.44-2.75.07-.88-.33-1.33-2.05-1.41-3.36l-.81-13.8c-.04-.7-.52-.89-.63-.87-3.73-33.99-4.01-68.21-1.73-102.47,1.04-15.62.39-31.31,2.77-47.06,1.86-12.28,2.07-24.18,5.59-35.46,1.43-4.6,3.75-5.07.94-5.93l10.99-8c2.32-1.69,4.39-3.21,6.75-4.31ZM113.85,195.02c-.86-.73-1.66-1.06-3.11-1.94-1.2,1.45-2.35,3.91-1.53,6.04.58,1.51,2.04,2.23,2.95,1.97,1.99-.57,2.52-5.37,1.69-6.08ZM110.73,214.02c.69-1.61.21-3.5-.2-4.31-.29-.57-1.23-1.27-2.48-.85-1.85.62-1.99,2.78-1.14,4.24.75,1.28,3.03,2.79,3.83.93ZM107.27,229.44c1.21-.74,1.26-2.92,1.08-4.31-.2-1.52-2.43-3.13-3.72-2-2.2,1.93.03,4.55,2.64,6.3ZM106.65,243.45c.79-1.65-1.12-5.58-2.94-5-1.63.51-1.34,3.51-.3,4.55.69.69,2.36,1.82,3.25.45ZM103,251.37c-1.48.78-1.52,2.34-.79,3.27.52.66,1.48,1.26,2.62.77.67-.28.57-2.12.37-2.83-.18-.65-1.19-1.75-2.2-1.21ZM101.06,264.6c-1.18,1.59-.1,3.19.95,3.83.72.44,1.89.67,2.69-.26.97-1.13.16-2.28-.08-3.08-.37-1.2-2.48-1.94-3.55-.49ZM104.05,281.93c-.51-1.74-2-1.73-3.05-1.15-.76.43-.66,2-.25,3.18.48,1.38.9,2.08,2.18,2.02.65-.03,1.55-.82,1.84-1.43.25-.53-.42-1.6-.72-2.62ZM104.16,302.29c1.15-1.36-.1-3-.97-4.04-.7-.84-2.5-1.52-2.96-.23-.65,1.81.1,3.49.69,4.23.63.78,2.42,1.01,3.24.04ZM104.8,318.5c.72-2.24-3.38-4.92-4.36-3.43-1.27,1.93.03,4.2,1.29,4.99.79.49,2.65-.25,3.06-1.55ZM104.5,335.3c1.2-2.17.08-3.42-.95-4.02s-2.64-.69-2.97.59c-.39,1.51.34,2.55.93,3.12.68.65,2.55,1.12,2.99.32ZM106.38,350.35c.33-1.34-2.77-3.37-4.79-3.34-.52,1.36.55,2.47,1.06,3.21.69,1.01,3,1.69,3.73.13ZM106.44,362.99c-1.05,2.01-.08,3.26.98,3.78.83.41,1.94.08,2.6-.75.75-.94-.13-2.07-.59-3.02-.34-.71-2.56-.82-2.99,0ZM111.13,381.7c.69-2.11.12-3.32-1.05-3.93-.77-.4-2.47-1.52-3,.03-.58,1.67-.13,3.29.7,4.07.75.7,3.06.72,3.35-.17ZM107.94,391.32c-1.04.36-1.1,3.01-.51,3.8.73.97,2.6,1.35,3.87.5.9-.6,1.01-2.63.16-3.54-.57-.6-2.13-1.25-3.52-.77Z"/>
    <path class="cls-12" d="M289.19,500.21c-1.29.69-3.07,3.45-1.88,4.9,5.62.55,12.12.53,16.78-2.02.62.45,1.98,1,2.02,2.84.86.06,1.6-.91.56-1.94.06-.72.62-2.3,1.01-2.78.29-.36,1.04.86,1.26,1.15-.54,1.5.18,3.36,0,4.94-1.1-.42-3.24.28-4.58.15-2.51-.25-5.4-.07-7.6,1.29l4.14,66.17-.43,4.43-.63,7.83c-1.78.42-2.56,2.04-3.02,3.85-3.16,12.44-8.52,23.43-15.11,34.59l-25.67,29-12.82,12.73c-7.58,5.41-15.02,9.63-23.83,12.27-.29.09-.93.94-1.01,1.19s.42.62.9.83l-22.39,1.36c-.91.04-1.57.03-1.68-.97,5.21-.14,10.14-.64,15.39-2.65,3.15-1.2,5.91-3.17,9.88-3.36,1.31-.23.23-2.46-1.03-.88-1.23.35-2.02.44-2.43-.72,1.02.11,2.93-1,3.92-.63,1.55.57,1.81.62,3.33-.4,3.42-2.31,7.78-3.03,10.82-7.28-5.48-.2-10.68.47-15.56,1.65-1.27.03-2.12-.92-2.19-2.05l11.44-3.67c4.5.21,10.26-1.65,14.93-3.47,4-1.56,6.54-5.87,9.34-8.58-3.23-.62-4.23,2.1-5.27,3.51-.96-.96-3.02-.56-3.65-.8-.77-.29-1.12-2.23,0-3.21l11.74-10.34c2.14-1.89,4.75-3.42,6.06-5.96.32.12.79.11,1.02.07v2.3c11.04-7.51,19.97-18.07,22.72-31.69l4.63-22.88,1.53-26.38c-2.37-.13-1.45,2.07-2.22,2.42l.57-24.6-.41-20.82c-.04-2.13-1.57-3.36-3.78-3.25l-40.13,1.89c-4.67.22-7.02,8.41-9.86,10.66.27-1.58-1.26-4.27-1.93-6.01-4.5-1.41-8.49-1.18-12.47-1.23l-22.11-.27c-3.05-.04-8.47.5-10.04,3.14-4.14-1.99-8.69-2.92-13.21-3.11l-19.7-.81c-1.47-.06-4.02.26-4.95,1.72-1.15-2.58-4-1.79-5.99-1.94l-21.6-1.65c-2.23-.17-4.54-.53-6.13,1.46-1.18,1.48-.58,3.18-.92,4.71-1.16-.89-.68-1.67-.66-2.25s-1.39-.53-1.74-.51c-.35-.79-.84-2.09-1.57-2.6-.56-1.74.46-3.68.59-4.94h1.36c.64-.54,1.33-.94,1.94-.97,1.41-.06,1.14,1.79,1.36,2.31,2.1.86,5.67.34,7.64.27,1.38-.05,2.58-.69,3.69-1.54s1.99-1.3,2.81-1.22c1.2.13,1.72,1.27,1.1,2.77l17.29.62c43.02.52,85.37-.32,128.23-2.41,1.56-1.75,2.13-3.71,3.73-4.74l7.61-4.93c.21,1.46-.59,2.9-1.15,3.43ZM236.62,519.26c.93-1.96,1.31-2.74.83-3.79-1.92,1.15-1.34,3.07-.83,3.79Z"/>
    <path class="cls-20" d="M315.55,605.86l-.31,5.1c-2.01.42-.53,3.12-.9,4.23l-6.17,18.74c-8.6,5.27-16.89,10.93-23.4,18.47l-7.51,12.57-6.74,8.41-1.88.39c-.43.09-.86.72-.79,1.46-2.1,1.67-4.66,1.38-7.5,1.95l-6.04,1.21-16.48,1.18c2.29-4.1,4.32-9.12,8.15-13.06,6.22-6.4,15.48-9.33,23.51-13.8,4.94-2.75,7.59-7.79,10.7-12.44l13.31-19.95c5.12-10.48,5.43-22.17,6.31-33.15l.63-7.83c.81.09.82-.35,1.06-.53.39-.3.77.27,1.05,1.05l9.84,21.8c.84,1.85.93,3.49,3.15,4.19Z"/>
    <path class="cls-24" d="M41.93,519.05c-.89,1.11-1.18,2.72-1.22,4.69l-2.29,112.92-1.59,1.07c-5.9-4.4-12.1-3.31-12.55-11.35l-.24-4.26.43-46.32c.19-20.28,1.56-39.79,4.17-60.21,4.88-.82,10.24.21,13.28,3.47Z"/>
    <path class="cls-24" d="M258.84,37.3c1.83.44,3.73.14,6.14,1.81-20.4,10.93-2.22,43.26-20.13,40.79-9.74-1.34-19.24-1.34-28.99-1.4-.79-13.08,1.29-25.09,2.1-37.14,2.61-1.6,4.61,1.91,6.46,2.16,4.55.59,8.32.55,12.83,1.86,2.25.65,5.27-.34,7.7-.46,1.61-6.91,7.75-9.07,13.88-7.61Z"/>
    <path class="cls-12" d="M374.28,642.9l-13.11,4.87,4.19-98.91.63-19.8c2.21-1.68,4.63-3.64,6.75-6.82,2.02,5.78,1.93,10.89,1.86,16.92l-1.17,102.24c.31.25.81.96.86,1.5ZM363.29,638.61c-.46.43-.37,2.05.23,2.26.13.05,1.69-1.13,1.29-2.04-.2-.46-.94-.79-1.53-.22Z"/>
    <path class="cls-20" d="M124.01,510.74c-.94,12.45-.58,24.81-.53,37.71l.13,37.43,2.01,55.08c.32,8.91,1.16,17.08,2.49,25.85l2,13.8c-2.15.84-5.77-.34-7.87-.55l-3.88-30.61c-1.96-36.44-2.09-72.46-2.03-108.71l.72-16.24.82-12.29c1.59-1.99,3.9-1.63,6.13-1.46Z"/>
    <path class="cls-19" d="M118.42,675.95c-.47,1.05-.41,2.11-.27,3.3-2.9.15-5.59-.15-6.94-2.11l-2.79-31.85-1.22-23.1-.84-24.94-.49-40.99c1.43.45,3.68-3.95,6.15-7.33l.66,8.4.98,30.9c-.02,29.6,2.25,58.67,4.76,87.73Z"/>
    <path class="cls-22" d="M198.97,100.55c-.29,3.38-.77,6.73-1.97,10.02-.85.16-1.1.54-1.31,2.03-4.95-.64-12.23.63-16.88-2.83-10.23-10.83-17.29-34.46-6.59-46.27-3.12-4.83-10.94-5.63-12.88-10.32l-.58-9.54c.42-4.02,3.53-7.16,6.6-10.06,1.69.16,3.63-1.08,5.85.46,2.97,2.06-.83,12.96,3.85,28.08,1.19,3.86-.05,6.98-.86,10.54-2.28,10.17-.11,28.86,5.51,33.75.45.39,15.31,1.84,19.25-5.85Z"/>
    <path class="cls-22" d="M44.04,519.42v18.76s-.73,38.52-.73,38.52l-.08,21.58.48,42.02c-2.53.8-5.35-1.19-5.3-3.65l2.29-112.92c.04-1.97.33-3.58,1.22-4.69l2.12.38Z"/>
    <path class="cls-12" d="M322.93,652.08l4.8.06c7.17.09,15.02,6.33,22.48,7.81.26,1.12,1.87.31,1.75,1.79-4.21.56-6.7-3.25-15.34,5.16-.03-3.1-.44-6.86-2.29-8.76-2.55-2.6-6.17-2.69-9-2.12-2.33.47-4.55-.31-6.89.93s-5.95,2.07-7.45,4.3c-1.96,2.94-2.04,6.12-.76,9.6l-27.5,1.78c-2.49.16-4.23.51-7.07,2.03,1.45-2.85,6.03-3.03,6.96-5.43l30.58-14.72c3.23-1.56,6.53-2.48,9.74-2.44Z"/>
    <path class="cls-26" d="M122.24,680.06c-.8-.08-2.75.76-3.3-.73-.15-.91.54-2.73-.52-3.39-2.51-29.07-4.78-58.13-4.76-87.73l-.98-30.9-.66-8.4c-.23-.1-.29-.36-.03-.52,1.21,1.11,1.6.45,2.34.23,2.68-.79-.02-5.01,2.01-7.9-.06,36.25.07,72.27,2.03,108.71l3.88,30.61Z"/>
    <path class="cls-18" d="M222.52,171.48c.19-2.04,3-.86,2.44-.04-.49,1.79,2.18,1.07,2.4,1.08l-.02.82c-.05,2.1,2.8-.35,4.82,1.41l-3.73.32c-.8.07-1.34,1.47-1.53,2.48l-2.61-.03-.93-.19-27.6-5.2c-.17-1.28-1.69-.67-1.43.34-5.95-2.02-10.73-4.39-12.82-3.24-.2-1.5-1.08-2.14-2.72-2.68-10.7-3.47-20.37-8.87-29.11-15.73l-5.77-9.14c6.01,5.07,12.43,10.84,20.48,14.44,18.63,8.33,38.79,12.94,58.12,15.36Z"/>
    <path class="cls-22" d="M197.45,672.61c4.74,2.02,9.48,2.67,14.62,1.3,1.48.79,3.34.35,4.94.51.41,1.15,1.2,1.07,2.43.72,1.26-1.57,2.34.65,1.03.88-3.97.19-6.73,2.15-9.88,3.36-5.26,2.01-10.18,2.51-15.39,2.65l-.85.02c-1.16-1.47-3.5-.52-5.12-.79l-9.42-1.56c-2.88-.48-4.76-1.09-6.92-1.69-.12-.7-.34-1.24-.13-1.83l7.27-5.84c3.6-2.78,5.7-7.21,9.38-9.64.17,2.49,1.18,5.39,2.02,7.81,1.19,3.43,3.85,3.17,6.02,4.09Z"/>
    <path class="cls-22" d="M146.43,167.18l-4.49,20.62c-6.8,2.21-11.88,7.12-17.71,10.57-1.22-4.54-.24-9.17-.06-13.73.55.21.42-1.56.83-2.01l8.5-9.7c1.52-.7,3.37-1.08,5.19-2.34,2.46-1.71,4.95-3.2,7.75-3.4Z"/>
    <path class="cls-3" d="M300.54,53.85c3.64,5.33,3.94,5.5,4.81,11.18.62,2.71-2.47,2.66-3.11,4.2l-6.98,16.66c-.68,1.61-2.7,2.06-4.37,1.76-3.47-1.92-8.34-2.28-11.82-4.76,1.66-1.82,3.52-2.09,5.28-2.23,6.4-.5,9.92-12.67,8.93-22.18-.04-2.37.57-4.16,3.32-4.93.49.09,2.74.46,3.94.29Z"/>
    <path class="cls-22" d="M145.06,672.41c8.95,1.29,17.09,6.73,27.28,8.07.47-.32.5,1.06.29,1.93l-21.26-.84-20.36-.77c.07-1.35.93-1.41,1.63-1.24l12.42-7.15Z"/>
    <path class="cls-15" d="M51.43,489.43l.77,5.02c.49,3.21,1.44,6.89,4.59,9.37,1.78,1.4,5.07-.23,6.23-1.07-1.05-3.46-1.35-6.92.51-10.82l2.77,9.78c.47,1.65,1.61,3.86,2.94,4.33,1.25.44,4.92.17,5.19-1.14.12-4.57-.52-9.04.86-12.88.26-.02,1.07-.13,1.62.09.16,1.76.27,3.47.83,5.01,1,2.76.8,7.46,2.83,10.07l3.28-.04c.5,0,1.01.49.86,1.22-10.27.73-20.65-1.01-30.65-3.56-.51-1.12-1.91-1.22-3.54-.97.35-.5.79-1.25.37-1.57-.44-.34-.24-.8-.1-1.05-.57-2.22,0-5.69-.39-8.43l-.39-2.78c-.07-.52.7-.7,1.43-.58Z"/>
    <path class="cls-24" d="M51.43,489.43c-.73-.12-1.51.06-1.43.58l.39,2.78c.39,2.74-.18,6.2.39,8.43h-5.59s-2.5-4.43-2.5-4.43c-.63-1.12-1.34-2.02-.54-4.37.12,1.1,1.34,1.5,1.51.39l3.46-1.87c-.62-8.28,1.57-22.9,4.67-24.67,5.8-3.31-1.9,13.02-.36,23.16Z"/>
    <path class="cls-11" d="M111.21,677.14l-3.94-.91-1.9-34.41-.43-14.72.66-2.48v-1.7c.02-.46.7-.89,1.6-.73l1.22,23.1,2.79,31.85Z"/>
    <path class="cls-22" d="M336.61,666.89c-3.85,3.75-9.06,7.11-14.38,7.18-.03-.83-.07-1.28-.22-1.73.75.14,1.04-.2,1.34-.51.4-.42.33-1.08.5-1.69l1.36-5,.36-3.58c.22-2.16.81-3.59-.25-5.54,2.83-.57,6.45-.49,9,2.12,1.85,1.89,2.26,5.65,2.29,8.76Z"/>
    <path class="cls-20" d="M318.43,656.96c1.91,1.13,2.53,3.23,2.88,5.04l.9,4.69c.39,2.01,1.12,4.18-.21,5.66.14.44.19.9.22,1.73-4.28.05-8.53-3.43-12-3.21-1.27-3.49-1.2-6.67.76-9.6,1.49-2.24,5.03-3.02,7.45-4.3Z"/>
    <path class="cls-22" d="M237.84,679.58c.16.25.31.94.1,1.15-.23.22-.96.45-1.62.47l-13.49.39-3.55.05c-.48-.21-.97-.59-.9-.83s.72-1.1,1.01-1.19c8.81-2.64,16.25-6.86,23.83-12.27l12.82-12.73,25.67-29c6.58-11.16,11.94-22.15,15.11-34.59.46-1.82,1.24-3.43,3.02-3.85-.88,10.98-1.2,22.68-6.31,33.15l-13.31,19.95c-3.11,4.66-5.76,9.7-10.7,12.44-8.03,4.46-17.3,7.39-23.51,13.8-3.82,3.94-5.86,8.96-8.15,13.06Z"/>
    <path class="cls-4" d="M75.27,655.45c2.31,3.17,2.81,7.27,1.43,10.9l-12.78.28c.92-1.2,1.57-1.66,1.89-2.69l3.35-11.25c2.26.16,4.6.7,6.11,2.76Z"/>
    <path class="cls-15" d="M74.36,652.08c.29.98,1.4,1.94,2.61,3.03-.41.62-1.1.48-1.7.34-1.51-2.07-3.85-2.61-6.11-2.76l-5.59-2.73c-2.31-1.13-5.16-1.91-8.04-1.24-1.42.33-2.81,1.34-4.23,2.85-1.62-1.32-2.51-2.08-4-4.11l7.53-3.11c6.99.87,13.78,3.63,19.52,7.73Z"/>
    <path class="cls-2" d="M313.67,61.18c-2.09,3.11-5.49,4.36-7.85,6.95l-.47-3.1c-.87-5.69-1.17-5.85-4.81-11.18,5.38-2.02,10.2,2.64,13.13,7.33ZM305.64,54.28c-1.18.63-2.24.08-2.59.04-1.17.67-.49,1.74.43,2.42,1.23.92.88.11,1.46-.28.88-.58,2.6-.47.7-2.19Z"/>
    <path class="cls-12" d="M85.34,662.52l4.45,3.18c-.22,1.12-.79.8-1.09.6l-1.59-1.01c-3.81-1.4-7.16.98-10.41,1.05,1.38-3.63.88-7.73-1.43-10.9.6.14,1.28.28,1.7-.34-1.21-1.09-2.32-2.05-2.61-3.03l10.98,10.44Z"/>
    <path class="cls-19" d="M69.16,652.69l-3.35,11.25c-4.29,3.09-.47-4.74-4.23-12.58l2-1.4,5.59,2.73Z"/>
    <path class="cls-17" d="M199.06,84.66c-1.64-.35-2.57,1.86-3.65,2.11-2.64.61-5.42-.13-8.27-.52,1.1-4.73,4.47-6.78,7.08-9.33.24,1.96-.4,4.8.66,6.25,1.38,1.13,3.04,1.12,4.17,1.49Z"/>
    <path class="cls-11" d="M133.5,172.92l-8.5,9.7c-.42.45-.28,2.22-.83,2.01.04-.99.36-2.25-.86-3-.91-.57-1.06-2.16-1.07-3.51l11.26-5.2Z"/>
    <path class="cls-13" d="M154.12,672.82c1.99.07,3.93,1.08,5.86,1.61.07.19-.94,1.09-.66,1.34.44.4,1.92.6,2.58.81l15.16,4.79c3.2,1.01,6.81.49,10.45.71.95.17,1.59.07,1.73-.82,1.62.27,3.96-.68,5.12.79-.25,0-.82.77-1.16.77l-20.56-.4c.21-.87.18-2.25-.29-1.93-10.19-1.34-18.33-6.78-27.28-8.07.72-.39,1.3-.71,1.23-1.44,2.41,1.21,5.16,1.77,7.83,1.85Z"/>
    <path class="cls-3" d="M63.58,649.96l-2,1.4c-1.9-1.4-4.09-1.05-6.9-.9l.85-1.74c2.88-.67,5.73.11,8.04,1.24Z"/>
    <path class="cls-13" d="M282.72,672.64l-13.97,4.29c-5.49,1.53-13.42,3.65-14.43,1.48l6.04-1.21c2.84-.57,5.4-.29,7.5-1.95.72-.57,2.51-.25,3.49-.7l11.26-5.29c-.93,2.41-5.51,2.59-6.96,5.43,2.84-1.53,4.58-1.87,7.07-2.03Z"/>
    <path class="cls-11" d="M204.6,29.43l-2.44.92c-.32-.7-.26-1.56.34-1.84.9-.43,2.11-.12,2.1.93Z"/>
    <path class="cls-24" d="M99.14,672.93l-9.35-7.22-4.45-3.18c3.23-7.28,6.43-14.57,7.91-22.21.8-.52.89-2.04,2.46-1.99l3.43,34.6Z"/>
    <path class="cls-20" d="M153.2,312.93c-.19.77.05,1.82.04,2.89,0,.81.48,1.59,1.66,1.24-.89,3.45,1.37,7.43,2.28,7.75.7.25,1.29.14,2-.04l.21,5.94c.37.29,1.3.22,1.58.19-.24,2.67,2.13,4.87,4.46,6.08.07.25.47.22.47.5,0,.55.61,1.12,1.11,1.05.11.25-.08,1.72.32,1.93l2.36,1.21c.91.47.48,1.37.59,1.67.16.45,1.63.01,2.02.3l1.74,2c.88,1.02,1.4.23,2.27-.97-.76,2.7,3.68,4.54,5.92,4.27.27.5.91.85,1.38.69.83-.3,1.55-1.44,1.54-2.39-.28-2.62.39-4.48.89-6.2,3.55-12.02,3.54-25.2,4.27-38.27.22-3.89,1.01-7.79-.19-11.37-.19-.56-1.91.72-1.99,1.79l-2.21,27.44c-.28,3.54-.43,6.97-2.7,9.4-1.01-.16-2.51-1.6-2.1-2.3,1.53-1.43.29-3.79-.52-4.77.61-10.32,3.97-23.05,1.94-34.02l-4.56,28.22c-.79,4.91-2.88,9.24-2.7,14.37.03.85-2.1,2.2-2.67,1.98-.05-3.63-.88-7.98-2.02-6.81,2.2-7.88,3.31-15.98,4.57-24.34l2.53-16.8c.44-2.91,1.96-4.23,5.02-5.9,4.94-2.7,11.08-1.37,16.71-1.25,8.24.16,15.22.98,22.66,3.42-1.7,1.97-1.94,4.09-2.54,6.5-.35-.38-.43-1.2-.73-1.2-.35,0-1.07-.59-1.48-.7-8.71-2.45-22.01-5.89-23-.15,7.06.09,13.57.74,19.77,2.3-1.28,1.62-1.87,3.71-.9,5.42l-2.14.12c-.46.02-.69,1.21-.7,1.7l-1.1,54.76c-.04,1.85.06,4.47,1.49,5.3s3.47,1.05,5.07-.13c2.71,2.3,6.8,2.94,10.12,3.73,4.37,1.03,8.69.45,13.08-1.83l23.69-12.3c10.98-5.7,20.86-12.15,28.93-21.74,4.59-5.46,8.15-11.1,10.12-18.19,3.94-14.14,9.92-27.01,15.57-40.54,4.16-9.96,8.56-18.5,16.81-25.49,6.46-5.47,14.98-5.5,20.72,1.39,3.06,3.67,4.65,8.04,6.13,12.69,4.84,15.28,9.58,30.26,10.5,46.6.92,16.2-.38,32.01-2.43,47.86-7.26,1.23-16.01-3.55-24.84-.74,8.36,5.16,13.78,11.06,17.84,19.07.57,1.11,1.7,1.96,1.43,3.62-.14.84-.94,1.79-1.92,2.28l-4.44-.95-4.3-.12-6.94-.49c-.72-.05-.83,1.82.08,1.89.41.03,1.21.28,1.51.54l7.88,6.92c.83-.7,1.8-1.53,2.75-1.18-.13.27.04,1.11-.6,1.02-.43-.06-1.39.34-1.16.65l6.28,8.36c1.09,1.45,1.15,2.56.7,3.53-.84,1.83-1.67,2.09-3.67,1.98-4.47-.24-8.81.39-12.71-.79-.65-.2-1.39-.05-2.04.03.34.6,1.07.87,1.68.58s.87-1.03.55-1.64c-.38-.59-1.12-.95-2.4-.37l-10.59-19.23,10.46-1.13c-9.91-3.85-20.28-2.46-30.66-.16s-19.28,6.4-28.14,13.38c-16.91,13.34-30.22,30.47-41.05,48.05-6.96,1.71-14.4,1.29-21.37,2.02l2.58-6.41c1.95.9,2.91-1.36,4.07-1.9,5.47-2.54,9.27-5.61,13.37-9.98,12.57-13.41,25.78-25.33,40.69-36.84-2.04-3.04-4.12-5.09-4.93-8.1l6.97-4.83c10.92-6.03,22.31-10.31,34.41-13.39,6.2-1.58,12.04-2.71,18.37-5.58-2.78-1.37-5.62-1.38-8.43-1.02-12.03,1.57-24.03,3.21-35.21,7.86-14.66,6.11-41.53,23.62-50.7,34.47-2.37-.84-4.21.54-6.31,1.06-15.38,3.76-29.67,9.7-43.06,18.43-5.54,3.61-10.79,6.72-14.84,12.11,16.8-5.32,32.71-9.92,49.18-13.79-7.24,8.57-13.38,18.13-17.61,28.57-1.4-.87-2.36-.11-2.37.79l-6.53.16c-25.18,2.59-50.58,3.35-75.94,2.02-1.86-.94-1.2-3.15-1.49-4.91-1.41-8.57-2.14-16.5-2.99-24.96l-2.82-28.16c-.16-1.62.29-2.78,1.22-3.84l6.45,31.46c11.47,1.88,24.37,4.8,35.9,1.67l26.49-22.54c4.37-3.72,7.82-7.21,11.21-12.03l-34.72-9.27-8.38-24.83-9.57-29.67c-7.39-22.93-11.28-55.14-10.29-80,.42-10.48-1.26-20.66,2.27-30.3-.95,22.72-.52,44,2.96,65.93,2.29,14.46,4.22,28.44,7.9,42.54.37,1.41.51,2.93,1.95,3.21ZM218.32,282.46c-.59-.53-1.81-.68-2.98-.35-.7.2-.83,2.04.04,2.5.43-1.3.63-2,2.94-2.15ZM193.41,352.49l1.25-17.08,1.57-17.43,1.12-25.14c.03-.66-2.04-.29-1.85.32.09.29-.47,1.14-.51,1.68l-1.83,23.38c-.47,5.99-1.45,11.67-2.07,17.77l-1.31,12.89c-.15,1.44-.67,3.16.29,3.85,1.05.75,3.27.67,3.34-.24ZM202.08,354.21l1.8-58.42c.02-.57-.1-1.68-.25-1.98-.14-.28-.55-.43-1.64-.28-2.07,19.3-3.47,38.79-3.29,58.67.01,1.27.52,1.84.7,2.33.22.61,2.64.84,2.68-.31ZM159.62,434.79c3.52-.81,5.24-2.68,7.35-4.06l-.63-.63-7.32,3.74c-1.1.25-1.12,3.41-.07,4.09.18-1.07.06-2.5.66-3.14Z"/>
    <path class="cls-3" d="M321.19,409.45c-1.95,6.98-3.94,13.89-3.44,22.11,6.78-2.27,13.08-3.3,19.67-2.75,4.41.78,9.85.67,13.75,4,5.96,5.08,5.89,10.12,8.08,10.28l1.54,19.06c-1.7.31-2.68,2.02-3.15,3.77l-4.34,16.16c-.5,1.85-1.66,5.08-3.11,6.29-.39.33.4,2.46.18,2.99-.28.64-.67,1.34-1.83,1.34.48-.9,1.22-2.76,0-3.34l.46-22.57c-.25-1.16-1.13-1.66-2.05-1.93-.61-.18-1.75,0-1.85,1.32l-2.03,25.58c-.2,2.52-4.75,3.5-6.49,3.63l-.02-4.34-.49-25.05c-.56-.65-2.54-.75-3.05-.29-.72.65-1.08,1.59-1.13,2.8l-.72,20.85c-.07,1.94-.48,4.24-1.66,5.4s-3.68,1.09-5.18,1.36l-.56-5.02c.79-8.09.15-16.05-.61-24.88-.12-1.43-3.78-1.06-3.81.81l-.35,22.33c-.03,2.13.27,5.54-1.75,6.32l-8.35,2.97-.04-11.11-.74-21.36h-1.28s-.21,9.71-.21,9.71l-20.71,1.99c-7.38,3.2-14.86,3.25-22.78,5.77l41.23-1.78c2.34-.1,3.12,1.93,3.04,3.84-2.11-1-4.27.09-6.82.2l-26.46,1.18-28.93.84-19.67.44c4.48-6.52,9.58-12.94,10.55-21.93-5.31,6.55-9.15,13.43-13.21,20.15l-10.58,2.71,10.32-16.35c1.08-1.64,3.41-3.24,1.69-6.03l-17.57,22.55c-2.09-1.22-4.08-.86-6.38-.76l-17.99.8,12.71-20.81c.49-.77.2-1.4-.33-1.59-2.08-.76-10.25,10.79-14.18,16.98-1.6,2.52-3.39,4.19-4.91,6.3l-8.19-1.92c4.73-7.34,10.01-14.46,13.01-23.82-6.16,5.87-9.98,12.87-15.47,19.59-5.15.73-10.58.59-16.31-.03l7.62-15.73.44-1.79c.14-.58-.1-1.12-1.16-.96-3.82.57-11.34,16.92-14.99,23.65-.44-.1-.95-.18-1.17-1.06l-9.76-.15,9.05-20.19c1.05-2.34,2.48-4.99.31-7.85l-11.39,22.97-13.13-.57,2.42-14.7,1.51-10.16,2.14-5.27c.56-1.39,1.56-4.64,3.46-5.07l40.38.82,68.37,2.78,55.86,3.35,15.15.83c-.32-1.69,1.18-2.07,1.73-.64.7,1.82.48,4.05.47,5.73l1.08.02c.39-2.16.34-4.14.2-6.74-1.37-.24-2.79-.38-4.07-1.01l3.9-21.42c1.51-8.29,4.17-16.31,10.37-21.4,1.32.2,2.57,0,3.72-.21Z"/>
    <path class="cls-20" d="M308.93,507.31c1.94.74,3.47.36,5.37.31l7.73-.23c.76,1.48,1.24,3.23,1.28,5.21l.31,16.31c3.14-.52,3.82-3.26,5.46-5.11,1.78-2.01,3.49-2.98,3.91-5.63l-3.23,60.22-.69,27.61c.95-3.07,1.86-6.31,1.84-9.64-.02-2.79,1.35-4.65,1.76-6.78,3.44-2.07,4.75-5.83,6.6-8.81,7.3-11.75,13.61-24.31,17.09-38.24l1.51-3.44c2.07,1.32.53,4.16.35,5.89-.33,3.23.02,6.08-1.95,8.58-2.9,3.65-1.96,7.81-2.78,12.04-3.49,18.05-12.08,33.88-22.33,48.59l-1.59,37.04c-.83-.11-1.7-.03-1.84.93l-4.8-.06c-1.03-1.32-.65-2.85.01-4.23,1.25-2.61.8-6.3.35-9.57-2.26-16.44-2.41-32.32-.98-48.9,1.01-11.77,1.31-23.04,1.26-34.92l-.07-16.33c-.15.09-.42.42-.93.46l-5.49,46.68-.58,7.85c-1.65-.12-1.83-1.31-2.32-2.64-4.41-12.1-7.48-23.99-8.7-36.86l-2.69-28.21c-.56-5.83-1.34-11.24-.4-17.06.92.11,1.71-.09,1.95-.89,1.33.13,3.48-.57,4.58-.15Z"/>
    <path class="cls-24" d="M228.44,150.25l12.97-10.63-1.04-28.94c-.17-4.7,2.8-8.13,5.66-12.01-10.05-.06-29.21-5.14-29.65-2.82l-2.75,14.5c-1.64,8.63-6.3,16.66-14.15,21.1,6.27-10.11,10.32-21.15,7.72-32.71l-5.22-13.7c4.29-.36,7.71,2.37,11.82,3.63,15.52,4.75,33.56,4.85,49.41,8.92-5.86,8-13.27,12.03-11.28,22.79.84,4.53,3.68,10.51,9.32,12.44,5.18,1.77,10.74,1.27,16.24.66l21.77-2.41c.68-.08,1.76-1.32,2.57-.6.97.86-1.57,11.77-5.57,12.74-13.33,3.22-26.67,5.32-40.19,5.89l-27.63,1.15Z"/>
    <path class="cls-24" d="M350.2,659.95c-7.46-1.47-15.3-7.72-22.48-7.81.14-.95,1.01-1.03,1.84-.93l1.59-37.04c10.25-14.71,18.83-30.54,22.33-48.59.82-4.23-.11-8.39,2.78-12.04,1.98-2.49,1.62-5.35,1.95-8.58.18-1.73,1.72-4.57-.35-5.89.43-.97.46-2.1,1.5-3.5,1.05,5.83.24,11.78-.15,17.87l-2.08,32.72-3.67,43.58-1.61,26.64c-.09,1.53-.48,3.12-1.65,3.56Z"/>
    <path class="cls-24" d="M226.2,150.92c-.3.58-.86,1.06-.73,1.48.24.74,1.68.34,2.33.36,23.6.71,46.56-1.06,69.34-7.41l-3.64,15.84c-1.9,8.29-53.29,11.48-68.55,10.25.56-.83-2.25-2-2.44.04-.28-6.86-.32-12.47,1.71-18.98-19.55-2.6-38.82-7.26-57.32-14.25-6.77-2.56-11.96-6.4-17.32-11.13-2.31-2.04-5.84-3.21-5.62-7.62,9.82,11.06,23.24,17.67,37.69,21.96,12.7,3.77,25.17,6.27,38.48,7.56,2.19.21,4.66.48,6.06,1.9ZM291.39,153.52c-1.4-1.8-6.13,2.97-4.69,4.69,1.28,1.53,6.52-2.35,4.69-4.69ZM273.24,161.88c1.62-1.24,1.58-3.05.8-3.71-1.13-.96-2.49-.5-3.67.32-1.11.77-1.57,2.63-.99,3.64.64,1.1,2.63.69,3.86-.25ZM233.97,165.02c1.44-.46,2.51-1.42,2.59-2.51s-.59-2.26-1.86-2.3c-2.24-.07-3.61,1.06-3.58,3.07.02,1.02,1.22,2.26,2.84,1.74ZM255.48,163.76c1.25-1.37,1.22-2.59.6-3.16-.81-.75-2.34-.47-3.23-.05-1.46.69-2.02,1.28-2.06,2.82-.03,1.07.68,2,2.02,1.77.73-.12,1.72-.35,2.67-1.38Z"/>
    <path class="cls-12" d="M288.64,171.49l1.49-2.54,7.61-2.73c.58,5.72-2.36,12.94.26,17.98,4.16,5.49,11.91,6.75,17.9,8.64.9,3.71-.87,6.97-1.49,10.46-3.56,19.78-9.07,38.52-18.47,56.14l-12.68,23.74c5.61-17.08,7.87-33.41,10.56-50.77,2.43-15.73,3.96-30.84.15-46.47-1.42-5.8-.34-14.69-5.31-14.46Z"/>
    <path class="cls-24" d="M356.36,503.12c1.55-.31,2.69,3.09,2.78,5.02l.79,16.65c-1.09,9.73-5.5,18.87-9.72,27.93l-13.61,29.19c-1.26,2.7-3.4,4.79-3.94,7.67-.41,2.13-1.78,3.99-1.76,6.78.02,3.33-.89,6.57-1.84,9.64l.69-27.61,3.23-60.22c.2-3.73.74-7.76-1.73-10.99l12.35-1.31c2.14-.23,5.16-.1,5.99-2.21.21-.1.86-.06.83.65l5.94-1.2ZM346.39,547.07c1.98-5,4.64-10.04,3.65-15.74-1.39-8.01-4.27-15.81-9.97-22.8l-2.55,29.66c-2.44,13.33-5.58,26.22-4.07,39.77,5.81-10.32,8.84-20.55,12.94-30.89Z"/>
    <path class="cls-23" d="M189.11,275.09l13.87.17c1.69.02,3.39.67,5.06.85,10.22,1.13,20.83,2.71,29.72,7.82,4.68,2.69,8.53,7.71,11.38,12.3-.32,1.19-3,1.32-3.48.11-1.4-1.4-3.76-4.07-7.14-4.88l1.63,20.07c.94,11.59.96,23.04,3.1,34.68l3.44-.87v2.79s-14.91,8.87-14.91,8.87c-1.89,1.13-4.47.74-5.84,2.41-3.33-.78-7.41-1.43-10.12-3.73,3.25-2.25,5.43-.61,9.27-1.66l3.32-.91c5-1.37,1.89-5.77,4.49-8.56l.13,6.93c2.75-.02,5.79-1.43,7.11-3.52l-2.83-40.86c-.38-5.56.49-11.88-.69-17.02-1.47-6.43-10-6.82-14.54-8.31-7.44-2.44-14.42-3.25-22.66-3.42-5.63-.11-11.77-1.45-16.71,1.25-3.06,1.67-4.58,2.99-5.02,5.9-.43.24-.79.31-1.29.05-.19-.07-.73-.08-.86-.66-2.46-.12-4.56,2.78-7.81,1.57,4.79-7.58,13.26-11.49,21.38-11.39ZM239.42,288.04c-.41-1.96-1.62-2.72-3.11-2.51.72,1.44,1.78,2.48,3.11,2.51ZM238.46,289.17c-.18.9.64,1.24.86,1.42s1.07.28,1.18-.42c.08-.47-1.85-1.94-2.03-1Z"/>
    <path class="cls-8" d="M245.65,296.33c.35.35,1.24,1.67,1.03,2.07l-1.08,2.02c-.3.57-.06,1.35,1.08,1.34-.73,13.41,3.01,27.27,1.47,41.07l-1.47,2.52-3.44.87c-2.14-11.65-2.16-23.09-3.1-34.68l-1.63-20.07c3.38.81,5.74,3.48,7.14,4.88Z"/>
    <path class="cls-24" d="M290.12,168.95l-1.49,2.54-5.25,2.4-9.25,2.21-14.18,1.03-33.05.43c.19-1.01.73-2.41,1.53-2.48l3.73-.32c-2.03-1.76-4.87.68-4.82-1.41l.02-.82c.45-.24,1.25-.27,1.5.77l19.75-.49,18.59-1.5,21.59-3.84c.48-.08,1.72-.89,2.05.06.16.46-.43.9-.71,1.42Z"/>
    <path class="cls-3" d="M377.21,467.1l-.46,16.91-13.71.13.04-10.27c.02-3.5,1.36-6.83.98-10.15l11.7.39c1.26.04,1.32,2.08,1.44,2.98Z"/>
    <path class="cls-8" d="M274.84,123.93l2.76-1.92,7.37-7.07,6.74-2.78c4.86-5.56,7.61-12.16,8.95-19.47l4.24-9.63c.02,10.33-3.82,31.49-12.48,37.51-4.91,3.41-12.1,4.55-17.59,3.37Z"/>
    <path class="cls-3" d="M304.9,80.61v2.45s-4.23,9.63-4.23,9.63c-1.34,7.32-4.09,13.91-8.95,19.47l-6.74,2.78c-.32-1.23-.02-2.34.6-3.2,3.3-4.64,3.64-10.89,5.46-16.5.67-2.07,3.15-3.83,2.56-6.1.39.22,1.47-.68,1.44-.72l1.12,1.43c1.01-1.48.07-2.24-.06-2.84-.22-1.03,4.51-7.08,8.81-6.4Z"/>
    <path class="cls-11" d="M361.19,463.47c-3.04,10.41-1.3,22.34-5.03,32.61-1.19,3.29-1.58,7.29-5.73,8.23.02-.71-.63-.75-.83-.65-2.39-2.15-1-6.1-.81-8.66.3-2.15,2.73-1.9,3.65-2.58,3.4-2.51,2.24-7.38.86-10.33l4.34-16.16c.47-1.75,1.45-3.46,3.15-3.77l.42,1.31Z"/>
    <path class="cls-12" d="M364.07,463.73c.39,3.31-.96,6.65-.98,10.15l-.04,10.27.07,1.57c.11,2.45.3,4.94.37,8.3,1.7.69,3.25.36,4.82.45-1.26,2.41-5.62-.91-9.41,2.96-1.21,1.23-2.22,3.51-2.54,5.68l-5.94,1.2c4.16-.94,4.54-4.95,5.73-8.23,3.73-10.27,1.99-22.2,5.03-32.61,1.08-.56,2.18.23,2.88.26Z"/>
    <path class="cls-25" d="M347.58,411.29l-.05,2.94c-1.12-.73-2.36-.96-3.29-1.38-1.51-.68-3.11-1.83-4.82-1.58-1.95.29-3.57-.84-5.46-1.08s-5.32-.42-6.27,1.42c-.75,1.45-1.78,1.77-3.21,1.52-2.12-.36-3.25,7.68-4.22,14.71l3.95-1.05c2.89-.77,6.15-1.15,9.12-.97l4.15.24,4.1-.02,2.1,1c-2.18,2.29-6.58-.62-6.28,1.77-6.58-.55-12.89.47-19.67,2.75-.5-8.22,1.49-15.14,3.44-22.11,8.63-1.53,18.23-1.61,26.39,1.84Z"/>
    <path class="cls-10" d="M359.23,443.1c-2.18-.17-2.11-5.2-8.08-10.28-3.9-3.32-9.34-3.22-13.75-4-.31-2.38,4.09.52,6.28-1.77.29-.25,1.2-.29,1.61-.16l2.13.71c2.3.77,4.01,1.02,5.86-.7,1.96-1.82,1.1-3.62.07-6-.84-1.95-1.94-4.12-3.84-5.37l-1.99-1.31.05-2.94c10.18,4.3,11.44,20.34,11.65,31.81Z"/>
    <path class="cls-12" d="M246.69,348.13v-2.79s1.47-2.52,1.47-2.52c.37.13.95-.05.99-.43l.23-2.13c.21-1.96,2.62-2.14,4-2.13,8.29-7.68,14.09-18.85,19.79-28.75-5.22,15.89-11.88,30.06-26.49,38.75Z"/>
    <path class="cls-20" d="M305.82,68.13l-.92,12.48c-4.3-.67-9.03,5.37-8.81,6.4.13.6,1.07,1.36.06,2.84l-1.12-1.43s-1.05.93-1.44.72l-2.7-1.49c1.67.3,3.69-.15,4.37-1.76l6.98-16.66c.64-1.53,3.73-1.49,3.11-4.2l.47,3.1Z"/>
    <path class="cls-19" d="M375.13,492.82c-1.24-.12-.68-2.81-.98-3.33-1.6.06-3.39.82-5.07-.22l-5.97-3.56-.07-1.57,13.71-.13.46-16.91c.99,7.75.86,18.75-2.07,25.72Z"/>
    <path class="cls-2" d="M357.13,371.14c-.12,1.56-2.23.09-2.57,1.72,2.43-.15,4.37-.35,5.97.88l-2.41,4.95c-.96-.35-1.93.48-2.75,1.18l-7.88-6.92c.34.04,1.48-1.09,2.05-1.35.5-.24,1.8.6,2.73.49.38-.05.75-.45.56-1.07l4.3.12Z"/>
    <path class="cls-11" d="M375.13,492.82c-1,2.38-4.67,1.77-6.83,1.65-1.57-.09-3.12.23-4.82-.45-.07-3.36-.26-5.85-.37-8.3l5.97,3.56c1.68,1.04,3.47.28,5.07.22.3.52-.26,3.22.98,3.33Z"/>
    <path class="cls-13" d="M283.38,173.89l-1.54,2.85c-.46-.22-.7.13-.92.2l-10.29,1.42c-.34-.19-.89-.07-.91.43-2.96-.62-6.09.22-9.48-.98,4.88-.37,9.36-.62,13.89-1.71l9.25-2.21Z"/>
    <path class="cls-2" d="M332.66,589.57c.55-2.88,2.68-4.97,3.94-7.67,1.06.05,1.56-.92,2.66-1.14-1.85,2.98-3.16,6.74-6.6,8.81Z"/>
    <path class="cls-2" d="M361.57,372.1c-.41.26-.79,1.12-1.05,1.65-1.59-1.24-3.53-1.03-5.97-.88.34-1.63,2.45-.16,2.57-1.72l4.44.95Z"/>
    <path class="cls-20" d="M179.94,202.47c2.77,1.96,6.62,3.44,10.25,3.12-.35.53.97,1.31,1.06,1.78,1.97,11.33,6.88,19.22,6.48,21.87-.08.52-.9.84-1.73,1.15-5.05,1.86-5.39,7.06-4.34,11.45-.49.25-.96.99-1.72.82-3.6-.77-11.56,5.25-15.43,10.16-3.11,3.94-5.02,8.5-9.3,11.61l4.09-14.08c1.26-9.67-5.34-24.78-4.49-35.9l7.33-13.05c2.93.33,5.45-.58,7.81,1.08Z"/>
    <path class="cls-24" d="M220.77,251.5c3.42.09,7.25.59,9.19,2.94,1.19,2.97,1.9,6.09,1.15,9.55,3.2,4.97,4.84,10.1,4.77,15.52-4.99-2.03-6.08-6.58-7.74-10.82-1.36-3.46-3.53-7.35-4.5-10.87-1.94-.35-3.18,1.84-2.93,3.65l2.07,14.97c-.44.16-.62.51-.62.49-2.75-5.26-1.75-13.09-5.84-16.76-1.66-1.49-4.92-.01-6.33.66-.31,0-.86-.1-1.08-.18-4.22-1.49-4.04,6.8-5.12,10.93-.9.66-.81,2.55-3.4,2.33l2.36-16.7c.34-2.43-1.52-3.37-3.29-3.55-.13-.82-.17-1.71-.04-2.77,7.11,2.29,14.31.43,21.35.6Z"/>
    <path class="cls-19" d="M214.15,207.52l-1.27,16.28c-.67,8.55-1.69,16.81-.61,25.18-5.16,1.17-10.41-.42-15.4-2.06.12-.48.38-1.45-.82-1.94,2.91,1.09,5.29,2.04,7.79,1.7-.59-1.36-1.63-.75-2.15-.51-.41.19-1.03-.28-.79-1,1.33.29,2.8.23,3.12-1.12l.74-3.12,4.7-29.16c.9-5.61.99-11.01,3.09-16.04.59,3.18.66,6.39.58,9.85-.8.28-.73.76-.38,1.11.46.46.77.83,1.41.83Z"/>
    <path class="cls-19" d="M116.87,298.38c-.23-7.71-1.14-15.78-.75-24.03l1.62-33.66c.38-7.82.66-15.4,1.72-23.16l.37-9.95c1.75-1.23.07-6.64,3.19-8.48l3.12,4c-3.5,10.96-4.18,21.56-5.13,32.55-.8,9.27-.67,18.18-1.31,27.58l-1.97,29.15c-.14,2.07-.74,4.04-.86,6Z"/>
    <path class="cls-19" d="M207.35,192l-.4,10.93-2.83,19.46c-1.11,7.66-.77,15.49-3.22,22.79-.24.72.37,1.19.79,1,.53-.24,1.56-.85,2.15.51-2.5.34-4.88-.61-7.79-1.7,2.93-.96,2.56-2.93,3.11-5.16,3.3-13.48,6.06-26.76,5.44-40.59l-4.21-.96c-.01-.18-.16-.51-.08-.74.37-1.13-.98-1.84-1.33-2.49-1.94-3.58-4.06-7.18-7.32-9.66-.47-1.58-.81-2.99.47-4.04,4.94,3.6,11.14,5.67,15.23,10.66Z"/>
    <path class="cls-9" d="M180.66,172.17c1.42.06,1.63,1.04,2.77,1.63l19.75,10.3c1.04.54,1.55,2.74,3.3,2.11-.3.35-.21.63-.28.81,2.24,1.58,1.23,3.03,1.15,4.97-4.09-4.99-10.3-7.06-15.23-10.66-4.18-3.04-9.16-4.13-14.06-5.73s-8.24.63-7.54-2.25c.17-.97.64-2.43,1.7-2.59,1.89,1.75,5.87,1.29,8.45,1.4Z"/>
    <path class="cls-11" d="M167.56,300.14l-2.67,14.33-3.92,16.42c-.28.04-1.2.1-1.58-.19l-.21-5.94,2.66-13.69,4.19-17.66c1.52-.4.69-4.03,2.14-2.71.67.61,1.06,1.26.81,2.48l-1.42,6.95Z"/>
    <path class="cls-19" d="M169.51,312.8c-1.6-2.23-.77-5.22-.42-7.89-.05-1.87.28-4.21-1.53-4.76l1.42-6.95c.25-1.22-.15-1.87-.81-2.48-1.45-1.32-.61,2.31-2.14,2.71.26-1.08-.85-3.53.51-4.38,1.99-1.25,6.75-.64,9-4.12.13.58.66.59.86.66l-5.1,18.63c-.8,3.02-.31,6.13-1.79,8.6Z"/>
    <path class="cls-11" d="M154.9,317.06c-1.18.35-1.67-.43-1.66-1.24,0-1.07-.23-2.12-.04-2.89l5.85-24.08c.28-1.17.58-1.82,1.46-1.98.56-.1,1.87,1,1.58,2.13l-7.19,28.06Z"/>
    <path class="cls-22" d="M200.39,198.27c.17,2.81-5.74,5.34-10.2,7.32-3.63.32-7.48-1.16-10.25-3.12-.05-.47-.94-1.04-.84-1.42.13-.51,1.26-.58,1.72-.55,5.31,1.66,11.31,1.29,16.24-1.24.56-.29,1.32-.19,1.72-.96.2-.38,1.12-.84,1.53-.77-.08.23.07.56.08.74Z"/>
    <path class="cls-13" d="M196.86,246.92c4.99,1.64,10.24,3.23,15.4,2.06,1.96-.45,7.49.29,8.51,2.52-7.04-.18-14.24,1.69-21.35-.6-2.44-.79-4.86-1.63-4.3-3.54.19-.64,1.18-.77,1.74-.44Z"/>
    <path class="cls-8" d="M124.17,184.64c-.17,4.57-1.15,9.19.06,13.73l-1.22.72c-3.11,1.85-1.44,7.25-3.19,8.48.09-2.44.1-4.54.52-7.28-2.49.78-.35,3.8-2.46,4.14-.37-4.65,1.08-8.92,2.45-13.26l2.99-9.54c1.22.76.9,2.01.86,3Z"/>
    <path class="cls-24" d="M182.3,183.42l-1.23.2c-2.87-1.22-5.79-.87-9.1.63l-2.09.94c-.43.2-.07,2.3-.56,2.52-1.13.5-2.9-1.46-2.54-2.89.77-3.1,6.18-5.28,10.54-6.19,2.07-.44,4.14,2.04,6.02,3.32,1.85.35.69,2.56-1.03,1.48Z"/>
    <path class="cls-8" d="M192.12,181.34c-1.28,1.04-.94,2.45-.47,4.04-1.57-1.2-3.44-1.98-5.65-2.7l-.27,1.81c-.92-.25-3.11.82-3.44-1.07,1.72,1.08,2.88-1.13,1.03-1.48-1.88-1.28-3.95-3.75-6.02-3.32.39-1.06.9-1.85.75-3.01,4.91,1.6,9.89,2.68,14.06,5.73Z"/>
    <path class="cls-19" d="M186.45,250.84c.48.64.45,1.17.28,2.1,1.7-.78,2.12-2.03,3.42-2.82l-11.38,20.05-1.14-.72,8.82-18.61Z"/>
    <path class="cls-12" d="M183.33,188.1c.2.65,1.12.63,1.57.78.61.81,1.23,2.14,1.61,2.91.65,1.3-1.35,1.98-1.42,2.68-2.3.64-4.29.06-6.13-.78.01-.93-.84-2.47-.36-4.06.44-1.46,3.36-1.6,4.73-1.53Z"/>
    <path class="cls-8" d="M190.15,250.12c-1.3.79-1.72,2.04-3.42,2.82.16-.93.2-1.47-.28-2.1,1.29-2.72,3.02-5.24,3.49-8.18.76.16,1.23-.57,1.72-.82.36,1.51,1.28,3.16,3.66,3.75-.7.71-1.8.53-2.67-.41l-2.51,4.94Z"/>
    <path class="cls-19" d="M151.32,279.81c-1.48-4.71-1.74-9.18-1.19-14.25,1.88,4.27,2.6,9.12,1.19,14.25Z"/>
    <path class="cls-24" d="M172.22,170.78c-1.05.15-1.52,1.61-1.7,2.59-3.02-.9-2.38,3.29-4.8,3.22-1.01-.03-.07-4.07,2.95-6.29,1.29-.95,2.53-.45,3.55.49Z"/>
    <path class="cls-19" d="M178.96,193.69c1.84.83,3.83,1.42,6.13.78.64,1.96-2.45,2.16-4.61,2.04-1.11.17-2.73,2.24-4.33.83-.25-.17-.75-.28-.81-.81,1.49-.58,1.71-2.81,3.62-2.84Z"/>
    <path class="cls-19" d="M185.74,184.49c.88,1.14.06,3.2-.84,4.39-.45-.15-1.37-.12-1.57-.78,1.27-.58-.06-2.24-1.33-.96-.92-1.08.33-2.2.24-2.29l-1.16-1.23,1.23-.2c.32,1.89,2.52.82,3.44,1.07Z"/>
    <path class="cls-20" d="M90.83,398.75c.51,7.79,1.55,15.49.84,23.8-.03.34-1.35-.05-1.51-.82-.09-.43-.38-.59.24-1.5l-8.11-2.47c-5.83-1.78-11.34-2.44-17.23-1.21-1.33.28-2.48.76-3.84,1.34-2.81,1.2-5.14,3.34-7.42,5.52-.72-4.58.9-8.81,1.98-13.72,1.65-7.52,6.24-15.02,14.42-16.89,4.97-1.14,10.12,2.32,14.42,3.85l6.21,2.12Z"/>
    <path class="cls-24" d="M95.2,278.88c-2.27,34.25-2,68.48,1.73,102.47.24,2.15-.28,4.83-.6,6.96l-2.54-11.25c-.97,1.51-.51,2.77-.94,3.82-1.19-5.16-1.57-10.71-3.94-11.48-.29-4.42-2.98-8.54-5.08-12.82-3.33-6.78-7.86-7.87-11.03-11.37,5.47.11,10.33,1.97,15.23,5.87-.67-4.2-.21-7.15-.21-10.08-.02-6.75.12-13.38.85-20.54l4.23-41.61c.99.18,1.62.38,2.3.03ZM95.32,380.58c.05-.02.28-.18.48-.47.05-1.24.37-2.63-.28-3.88-.08.02-.34.16-.52.47-.06,1.26-.28,2.62.32,3.88Z"/>
    <path class="cls-20" d="M88.15,459.29c.74,2.27,3.08,4.27,2.48,7.01l-2.68,8.25c-3.11,9.6-3.83,18.93-4.51,20.05-1.08,1.78-3.85-.69-5.72,2.51-.56-1.54-.67-3.25-.83-5.01-.55-.22-1.36-.11-1.62-.09.26-.73,1.47-1.74,1.52-2.52.6-8.67,5.13-14.87,2.88-19.96l-3.71-8.4c-2.07-4.69,3.26-3.08,12.18-1.84Z"/>
    <path class="cls-19" d="M95.84,447.35c.17.38.42,1.07,1.39,1.98-3.61,4.56-3.08,10.07-3.98,14.93-.8.72-.95,2.35-2.62,2.03.61-2.74-1.74-4.75-2.48-7.01l-4-12.21c-1.75-5.35-1.6-10.95-.27-16.07,3.99,2.28,7.24,5.77,9.31,10.41l2.65,5.94Z"/>
    <path class="cls-24" d="M79.68,469.53c2.25,5.09-2.28,11.29-2.88,19.96-.05.78-1.26,1.78-1.52,2.52-1.37,3.84-.74,8.32-.86,12.88-.27,1.31-3.94,1.58-5.19,1.14-1.33-.47-2.47-2.68-2.94-4.33l-2.77-9.78c-1.85,3.9-1.55,7.36-.51,10.82-1.16.85-4.45,2.48-6.23,1.07-3.15-2.47-4.1-6.16-4.59-9.37,1.65-1.63,3.6.08,4.88.61,2.68.16,1.95-3.36,1.96-4.73.11-8.46,2.64-23.08,6.38-22.39.65.12,2.13.41,1.91,1.69l-3.51,20.38c-.23,1.35,1.76,3.45,1.57,4.73.65.72,3.93.97,4.52.09,2.75-4.1,3.31-16.51,7.17-25.46.67-.23,1.7-.11,2.61.15Z"/>
    <path class="cls-20" d="M95.2,278.88c-.68.35-1.31.15-2.3-.03l1.12-16.52c1.29-18.96,1.56-38.04,3.97-56.84.5-3.93,1.76-7.99,5.57-9.13-3.52,11.28-3.73,23.17-5.59,35.46-2.39,15.76-1.74,31.45-2.77,47.06Z"/>
    <path class="cls-4" d="M95.84,447.35l-2.65-5.94c-2.06-4.64-5.32-8.13-9.31-10.41-4.2-2.4-8.84-3.66-13.63-4.66,3.06.23,4.15-1.84,6.23-3.44,5.44-4.17,13.42-.91,15.26,5.51l4.95,17.24c.25.86-.06,1.66-.85,1.7Z"/>
    <path class="cls-20" d="M87.82,341c0,2.93-.46,5.87.21,10.08-4.91-3.9-9.77-5.76-15.23-5.87l-13.43-4.62c6.07-8.76,18.05-3.22,27.61,1.17.27-.45.7-.78.84-.75Z"/>
    <path class="cls-2" d="M43.66,492.81c-.17,1.11-1.39.7-1.51-.39-.8,2.35-.09,3.25.54,4.37-2.46-1.38-3.61-3.99-5.67-6.21,1.38-.15,2.29-1.18,2.56-3.09,1.98,1.56,1.66,4.33,4.08,5.32Z"/>
    <path class="cls-11" d="M212.17,160.19c.74,2.6-2.04,3.46-3.53,3.21-1.8-.3-3.14-2.64-2.01-4.88.87-1.72,4.84-.83,5.55,1.68Z"/>
    <path class="cls-11" d="M190.86,158.32c-1.28.92-2.94-.39-3.69-1.39-.7-.95-1.65-2.62-.09-3.79,1.17-.89,2.89.34,3.61,1.03.94.9,2.07,2.79.17,4.16Z"/>
    <path class="cls-24" d="M155.19,142.4c-1.05,1.45-3.01-.24-3.44-1.39-.58-1.53-1.17-2.97.14-4.23,2.41.57,5.06,3.18,3.3,5.62Z"/>
    <path class="cls-11" d="M171.74,151.58c-.8.95-2.71.13-3.51-.6s-1.66-2.44-.68-4.07c.46-.77,2.59-.01,3.29.56,1.02.83,2.11,2.67.9,4.11Z"/>
    <path class="cls-24" d="M158.77,43.64l.58,9.54c1.94,4.69,9.76,5.49,12.88,10.32-10.7,11.81-3.64,35.44,6.59,46.27,4.64,3.47,11.92,2.2,16.88,2.83.21-1.49.46-1.87,1.31-2.03-2.47,6.79-9.69,9.7-17.3,9.65s-15.86-1.49-19.5-8.8c-6.43-12.92-6.52-28.31-3.17-42.05.83-3.41,2.61-6.85,6.16-8.51-.71-2.49-3.99-4.03-6.46-5.8l-1.92-6.85c-1.02-3.72-1.01-7.32,2.7-9.43-1.4,3.68-.76,7.96.56,11.53l.69-6.67Z"/>
    <path class="cls-8" d="M165.37,33.58c-3.07,2.9-6.18,6.04-6.6,10.06l-.69,6.67c-1.32-3.57-1.96-7.86-.56-11.53-3.71,2.11-3.72,5.71-2.7,9.43l1.92,6.85-7.07-5.06c-1.4-1-2.01-3.05-3.62-3.56.51-2.91,1.02-5.03,3.4-7.22,4.53-4.16,9.87-6.21,15.92-5.65Z"/>
    <path class="cls-3" d="M156.54,512.6c-1.13,2.43-1.53,5.28-1.71,8.44l-1.55,26.62-1.8,81.1c-.58.29-1.15.84-1.31,1.11-.22.35.12,1.2,1.23,1.23l2.71,41.71c-2.67-.09-5.43-.65-7.83-1.85l-1.32-13.73c-.32-3.36.2-6.71-3.1-9.25.45-.98,1.22-1.8,3.14-2.1v-38.12s1.46-75.41,1.46-75.41c.34-.54.98-.81,1.25-.96.62-.34.1-1.19.08-1.5.24-4.33,1.19-11.47,3.8-15.57.93-1.46,3.48-1.78,4.95-1.72Z"/>
    <path class="cls-22" d="M141.87,647.99c3.3,2.54,2.78,5.89,3.1,9.25l-15.62-18.01c6.08,1.11,8.8,5.91,12.52,8.76Z"/>
    <path class="cls-13" d="M151.6,514.32c-2.61,4.09-3.56,11.24-3.8,15.57-.14.43-.64,1.62-1.03,1.51-.62-.17-.97-1.05-.98-1.58l-.18-17.43c1.99.15,4.83-.64,5.99,1.94Z"/>
    <path class="cls-24" d="M94.87,533.89c-.24.04-.82-.03-1.12.07-.4.13-4.8,12.7-12.59,20.37-1.81,1.78-3.99,3.02-4.91,5.1l-6.56-.06c1.78-2.95,5.42-6.24,5.74-9.99.76-8.94-2.55-16.99-3.78-26.2,7.86-.99,12.85-7.66,15.64-15l1.8-.18c1.83-.18,4.66,1.06,6.45-.76l-.67,26.65Z"/>
    <path class="cls-24" d="M94.18,594.8l-10.08,9.58c-.78.77-1.38,1.6-1.29,2.56-.66-.02-1.82.56-2.45.77l-13.89-9.99c4.4-3.67,8.86-5.97,11.75-10.41-2.4-.53-3.89-1.33-3.94-3.26,6.24.27,11.96-1.57,16.71-6.09l3.31-2.19-.13,19.05Z"/>
    <path class="cls-20" d="M76.25,559.43c.62-.11.86-.05,1.47-.03l9.9.33c-1.97,8.49-6.2,15.89-12.31,21.5-2.22.44-4.55,1.23-7.1.93-1.2-.87-1.85-1.62-3.32-3.21.21-6.72,1.36-13.9,4.8-19.59l6.56.06Z"/>
    <path class="cls-15" d="M94.31,575.75l-3.31,2.19c-4.75,4.52-10.47,6.37-16.71,6.09-2.17-.1-4.16-.48-6.07-1.87,2.55.3,4.87-.49,7.1-.93,8.87-1.75,15.58-8.31,18.68-16.54,1.03,3.49.35,7.55.32,11.06Z"/>
    <path class="cls-13" d="M90.64,492.88c-1.84,3.46-1.95,10.05-1.55,15.12l-1.8.18-2.59.18c.15-.74-.36-1.23-.86-1.22,2.63-.79,2.39-7.22,4.04-15.28.93.31,1.45,1.36,2.77,1.02Z"/>
    <path class="cls-13" d="M95.62,626.51l.09,6.55-2.71,1.55-6.7,2.93c-1.21.53-2.43,1.51-3.63.71,1.64-.68,2.75-1.9,4.18-2.86,5.33-3.59,6.4-9.38,8.77-8.89Z"/>
    <path class="cls-20" d="M97.82,508.36c1.23.33,2.66,1.19,3.98,1.47,1.4,1.18.32,2.38.33,3.77l.18,40.55c.06,14.47.66,28.52,1.18,43.12l1.46,29.81.43,14.72,1.9,34.41c-2.77-.64-5.84-1.52-8.13-3.29l-3.43-34.6c-1.57-.05-1.66,1.46-2.46,1.99.18-.93.1-1.68.75-2.8.69-1.2.06-2.63-1-2.91l2.71-1.55-.09-6.55-.57-2.6-.44-23.97c-.99.28-1.46,1.16-1.75,1.46-.26.26-.98-.58-1.26-.71,1.6-1.93,2.57-3.38,2.58-5.89l.13-19.05c.02-3.51.7-7.56-.32-11.06-.45-1.53.02-2.32.06-4.29l.28-15.56.54-10.97.67-26.65c-.69.09-.71-.46-.76-.65-.12-.48.43-1.07.61-.93l1.32,1.02c-.63,1.2.13,1.81,1.1,1.68Z"/>
    <path class="cls-11" d="M106.09,404.87c.25,4.19-1.11,8.94.81,13.53,1.2-.92,2.13-1.57,3.07-1.73,1.18-.2,2.02.49,2.34,1.47.3,1.18.04,2.42-1.18,2.97l-2.09-.08c-.62-.02-1.36-.6-1.68-2.26-.83,1.74-.4,3.63-.56,5.4-.23,2.53-1.16,3.94-3.44,5.63-1.36-1.04-1.13-2.43-1.65-3.93.92-.06,1.39-1.34,1.07-2.45-1.48-5.16-.39-16.01-.25-24.1l.49-27.31c.12-6.53-.85-12.31-1.01-19.29,3.67,6.58,2.94,13.68,3.09,20.92l.47,22.47.52,8.78Z"/>
    <path class="cls-20" d="M118.07,416.53c-4.47,1.39-5.28,3.07-5.76,1.6-.32-.97-1.17-1.67-2.34-1.47-.94.16-1.87.81-3.07,1.73-1.92-4.59-.56-9.34-.81-13.53.85-.35,1.38-.21,2-.24-.31,1.62-.58,3.62.16,4.86,2.57.18,4.36.38,5.14-1.44.44-1.01-.06-2.75-.29-3.8,1.08-3.73,2.12-9.15,1.88-13.53,3.62-.08,1.17,8.05,3,19.83l.08,5.99Z"/>
    <path class="cls-19" d="M96.93,381.35c.12-.03.59.17.63.87l.81,13.8c.08,1.31.53,3.03,1.41,3.36.99.37,2.18.02,2.75-.07-.14,8.1-1.24,18.94.25,24.1.32,1.11-.15,2.39-1.07,2.45-1.77-5.16-1.02-10.93-2.26-16.29l-6.6-28.68c.43-1.05-.03-2.31.94-3.82l2.54,11.25c.33-2.13.84-4.81.6-6.96Z"/>
    <path class="cls-11" d="M113.85,195.02c.83.71.3,5.51-1.69,6.08-.9.26-2.36-.46-2.95-1.97-.83-2.13.33-4.6,1.53-6.04,1.44.88,2.25,1.21,3.11,1.94Z"/>
    <path class="cls-24" d="M113.1,404.25c.22,1.05.72,2.79.29,3.8-.79,1.82-2.57,1.62-5.14,1.44-.74-1.24-.47-3.24-.16-4.86l5.01-.38Z"/>
    <path class="cls-11" d="M110.73,214.02c-.8,1.86-3.08.36-3.83-.93-.85-1.46-.71-3.62,1.14-4.24,1.26-.42,2.2.29,2.48.85.41.81.89,2.7.2,4.31Z"/>
    <path class="cls-24" d="M107.27,229.44c-2.61-1.75-4.84-4.37-2.64-6.3,1.29-1.13,3.51.48,3.72,2,.19,1.39.13,3.57-1.08,4.31Z"/>
    <path class="cls-11" d="M107.94,391.32c1.39-.49,2.96.17,3.52.77.86.91.75,2.94-.16,3.54-1.27.85-3.15.46-3.87-.5-.6-.8-.53-3.44.51-3.8Z"/>
    <path class="cls-11" d="M104.8,318.5c-.42,1.3-2.27,2.05-3.06,1.55-1.26-.79-2.57-3.06-1.29-4.99.98-1.48,5.08,1.19,4.36,3.43Z"/>
    <path class="cls-8" d="M104.05,281.93c.3,1.01.98,2.09.72,2.62-.3.62-1.2,1.4-1.84,1.43-1.29.06-1.7-.63-2.18-2.02-.4-1.17-.51-2.75.25-3.18,1.05-.58,2.54-.59,3.05,1.15Z"/>
    <path class="cls-11" d="M106.65,243.45c-.88,1.37-2.56.24-3.25-.45-1.03-1.04-1.32-4.04.3-4.55,1.83-.57,3.73,3.36,2.94,5Z"/>
    <path class="cls-8" d="M104.5,335.3c-.44.8-2.31.33-2.99-.32-.59-.56-1.31-1.6-.93-3.12.33-1.28,1.93-1.2,2.97-.59s2.15,1.85.95,4.02Z"/>
    <path class="cls-11" d="M104.16,302.29c-.82.97-2.61.74-3.24-.04s-1.34-2.42-.69-4.23c.46-1.29,2.26-.62,2.96.23.87,1.04,2.12,2.69.97,4.04Z"/>
    <path class="cls-11" d="M101.06,264.6c1.07-1.45,3.18-.71,3.55.49.25.8,1.05,1.95.08,3.08-.8.93-1.96.7-2.69.26-1.05-.64-2.12-2.23-.95-3.83Z"/>
    <path class="cls-24" d="M106.38,350.35c-.72,1.56-3.04.88-3.73-.13-.51-.75-1.58-1.86-1.06-3.21,2.02-.02,5.12,2,4.79,3.34Z"/>
    <path class="cls-11" d="M111.13,381.7c-.29.89-2.6.87-3.35.17-.83-.78-1.28-2.4-.7-4.07.54-1.55,2.23-.43,3-.03,1.17.6,1.74,1.82,1.05,3.93ZM108.06,378.52c-.66,1.03-.27,2.51.13,2.83s1.83.14,2.13-.3.04-1.64-.26-2.18c-.24-.44-1.22-1.57-2-.36Z"/>
    <path class="cls-8" d="M103,251.37c1.01-.53,2.02.56,2.2,1.21.2.71.3,2.55-.37,2.83-1.15.48-2.1-.12-2.62-.77-.73-.93-.69-2.49.79-3.27ZM102.9,252.26c-.51.62-.41,1.87.18,2.35.4.33,1.29.04,1.29-.43l.02-1.68c0-.35-.92-.93-1.49-.24Z"/>
    <path class="cls-11" d="M106.44,362.99c.43-.82,2.65-.7,2.99,0,.46.95,1.33,2.08.59,3.02-.66.83-1.76,1.16-2.6.75-1.05-.52-2.03-1.77-.98-3.78ZM108.7,366.07c1.28-.19.86-1.39.49-1.77-.32-.33-1-1.39-1.73-.79-.62.51.71,2.64,1.23,2.56Z"/>
    <path class="cls-20" d="M289.6,557.02c-.28,12-2.1,23.74-4.11,35.97-1.33,8.09-3.01,15.33-7.25,22.19s-8.87,13.51-15.29,18.08c-.23.05-.7.05-1.02-.07l-8.38,6.27-11.99,6.83c-1.51-3.6-1.39-7.35-1.6-11.51-1.68-33.72.22-67.07,3.74-101.29,9.94,5.23,18.19,10.82,26.94,16.73,7.73-5.03,13.71-11.35,19.52-17.8l-.57,24.6Z"/>
    <path class="cls-20" d="M221.59,513.66c.71,2.49.45,5.28.18,8.3l-4.66,53.76-.85,20.42c-.94,22.44.44,44.42,2.96,67.41,3.62-.6,6.31-1.66,9.56-1.52l-11.44,3.67c-3.79,1.07-8.55,2.45-10.53,5.85l.17,2.03c2.08-.33,3.82-.36,5.1.32-5.15,1.37-9.89.72-14.62-1.3.37-.38.92-.89.91-1.22l-.07-1.42c-4.45-16.08-6.4-31.85-6.86-48.72-.72-25.96-.96-51.19,1.5-76.92,1.05-10.95,2.46-21.41,6.55-30.94l22.11.27Z"/>
    <path class="cls-20" d="M176.24,513.42c-1.18,5.7.18,11.64.07,17.91l-.92,53.14-.59,72.72c-.07,8.26,1.58,15.31-2.4,17.91-.3.2-.55.94.35,1.08-.21.59.01,1.13.13,1.83l-12.92-3.58c-1.93-.53-3.87-1.55-5.86-1.61l-2.71-41.71c-1.11-.03-1.45-.88-1.23-1.23.17-.27.73-.82,1.31-1.11l1.8-81.1,1.55-26.62c.18-3.16.58-6.01,1.71-8.44l19.7.81Z"/>
    <path class="cls-3" d="M290.17,532.42c-5.81,6.45-11.79,12.77-19.52,17.8-8.75-5.92-17-11.5-26.94-16.73-3.52,34.23-5.42,67.58-3.74,101.29.21,4.15.09,7.91,1.6,11.51-1.72.98-2.72,3.95-5.63,3.84l-2.82-24.71c-2.15-29.15-1.64-57.86-.06-87.18l2.93-17.33c2.84-2.25,5.19-10.44,9.86-10.66l40.13-1.89c2.21-.1,3.74,1.13,3.78,3.25l.41,20.82Z"/>
    <path class="cls-24" d="M235.99,520.9l-2.93,17.33c-1.57,29.32-2.09,58.03.06,87.18l2.82,24.71c2.91.11,3.91-2.86,5.63-3.84l11.99-6.83,8.38-6.27c-1.32,2.54-3.92,4.07-6.06,5.96l-11.74,10.34c-1.11.98-.77,2.92,0,3.21.63.24,2.69-.15,3.65.8,1.04-1.41,2.04-4.13,5.27-3.51-2.81,2.71-5.34,7.02-9.34,8.58-4.67,1.82-10.43,3.67-14.93,3.47-3.25-.15-5.94.91-9.56,1.52-2.52-22.99-3.9-44.96-2.96-67.41l.85-20.42,4.66-53.76c.26-3.02.53-5.81-.18-8.3,3.97.05,7.96-.18,12.47,1.23.68,1.74,2.2,4.43,1.93,6.01Z"/>
    <path class="cls-3" d="M199.48,513.38c-4.1,9.53-5.51,19.99-6.55,30.94-2.46,25.73-2.22,50.96-1.5,76.92.47,16.88,2.42,32.64,6.86,48.72l.07,1.42c.02.33-.54.84-.91,1.22-2.17-.93-4.84-.67-6.02-4.09-.84-2.42-1.85-5.32-2.02-7.81l-2.85-42.06c-.69-28.49-.24-56.26,1.18-84.67l1.71-17.45c1.57-2.64,6.99-3.18,10.04-3.14Z"/>
    <path class="cls-11" d="M304.35,507.46c-.24.8-1.03,1-1.95.89-.94,5.82-.15,11.22.4,17.06l2.69,28.21c1.22,12.86,4.3,24.75,8.7,36.86.49,1.34.66,2.52,2.32,2.64l-.95,12.75c-2.21-.7-2.31-2.34-3.15-4.19l-9.84-21.8c-.28-.78-.66-1.35-1.05-1.05-.23.18-.25.61-1.06.53l.43-4.43-4.14-66.17c2.2-1.35,5.09-1.53,7.6-1.29Z"/>
    <path class="cls-8" d="M112.99,511.56c.73.51,1.22,1.81,1.57,2.6l-1.5,2.46-7.74-1,.56,40.63.49,40.99.84,24.94c-.9-.16-1.59.27-1.59.73v1.7s-.68,2.48-.68,2.48l-1.46-29.81c-.52-14.6-1.12-28.65-1.18-43.12l-.18-40.55c0-1.4,1.07-2.59-.33-3.77l4.32.94c2.38.52,4.99-.53,6.87.78Z"/>
    <path class="cls-22" d="M118.43,457.68l-1.51,10.16-2.42,14.7.04,2.29c-1.2.62-.71,2.13-.82,2.93l-1.15,8.52c-.47,3.44-.78,7.78,1.01,10.33-.13,1.26-1.15,3.21-.59,4.94-1.88-1.31-4.49-.27-6.87-.78l-4.32-.94c-1.32-.29-2.75-1.14-3.98-1.47.29-.45.31-1-.07-1.47l8.15-.38c2.39-2.95,1.78-5.99,1.87-8.95.41-13.39,3.2-27.05,6.52-40,1.56-1.03,2.57-.96,4.13.12Z"/>
    <path class="cls-24" d="M323.75,491.12c-2.48,2.36-1.87,9.34-6.55,14.98l-1.7.13c-.6.05-1.55.36-1.21,1.38-1.9.06-3.43.43-5.37-.31.19-1.58-.54-3.44,0-4.94.39-1.09-.47-1.23-.74-1.6-.53-.7.32-1.69.7-2.09l8.35-2.97c2.03-.79,1.72-4.19,1.75-6.32l.35-22.33c.03-1.88,3.69-2.24,3.81-.81.75,8.82,1.4,16.79.61,24.88Z"/>
    <path class="cls-20" d="M140.58,489.38l-5.18,9.55c-1.44,2.66-1.9,4.69-5.55,6.02.12.26-2,.23-.28,1.75-1.11.85-2.31,1.49-3.69,1.54-1.72-1.51-4.3-.74-7.64-.86l11.42-19.2,9.76.15c.22.88.73.96,1.17,1.06Z"/>
    <path class="cls-26" d="M262.94,633.26c6.42-4.57,11.03-11.2,15.29-18.08s5.93-14.09,7.25-22.19c2.01-12.23,3.83-23.97,4.11-35.97.77-.35-.15-2.55,2.22-2.42l-1.53,26.38-4.63,22.88c-2.75,13.62-11.67,24.18-22.73,31.69v-2.3Z"/>
    <path class="cls-19" d="M114.94,506.62h-1.36c-1.8-2.56-1.48-6.89-1.01-10.34l1.15-8.52,11.05-.26c-.44-.85-.98-1-1.04-1.6.56.13,1.29-.09,1.83.56.84,1.01-.32,1.37-.61,1.94l-8.19,16.51c-1.56-.27-1.97,1.06-1.82,1.71Z"/>
    <path class="cls-15" d="M116.34,540.73c-2.03,2.89.67,7.11-2.01,7.9-.74.22-1.13.88-2.34-.23.32-.63.82-1.85.83-2.84l.23-28.94,1.5-2.46c.35-.02,1.77-.07,1.74.51s-.5,1.36.66,2.25c.34-1.53-.25-3.24.92-4.71l-.82,12.29-.72,16.24Z"/>
    <path class="cls-22" d="M220.93,673.79c-.53-1.23-3.39-2.02-4.78-2.01l-6.59-1.22c3.63-1.92,6.87-2.05,9.95-2.8,4.88-1.18,10.08-1.84,15.56-1.65-3.04,4.25-7.39,4.97-10.82,7.28-1.52,1.02-1.78.97-3.33.4Z"/>
    <path class="cls-24" d="M304.95,500.35c-.17.94-.75,1.73-.86,2.74-4.66,2.55-11.15,2.57-16.78,2.02-1.19-1.44.59-4.21,1.88-4.9,5.16-.65,10.69-1.11,15.75.14Z"/>
    <path class="cls-13" d="M217.33,665.7c.06,1.13.92,2.08,2.19,2.05-3.09.75-6.32.87-9.95,2.8l6.59,1.22-9.36-.22c1.99-3.4,6.75-4.78,10.53-5.85Z"/>
    <path class="cls-20" d="M216.16,671.78c1.39-.01,4.25.79,4.78,2.01-1-.37-2.9.74-3.92.63-1.59-.17-3.46.27-4.94-.51-1.28-.68-3.02-.65-5.1-.32l-.17-2.03,9.36.22Z"/>
    <path class="cls-23" d="M236.62,519.26c-.51-.72-1.09-2.64.83-3.79.48,1.06.1,1.84-.83,3.79Z"/>
    <path class="cls-24" d="M167.44,488.48c-3.39,5.27-8.57,9.93-13.14,14.79-.97.57-2.39-.81-1.73-1.75l7.46-10.51c.6-.84,2.01-2.61,1.36-3.82-4.46-1.03-9.54-.93-14.05-.42-1.86.21-1.75,1.84-2.18,2.52l-6.79,10.86c-1.2,1.93-2.96,2.98-2.9,4.89l30.13-.18c1.16-3.51,4.11-6.25,6.44-9.48l3.59-4.98c1.53-2.11,3.32-3.79,4.91-6.3,3.93-6.19,12.09-17.74,14.18-16.98.53.2.82.82.33,1.59l-12.71,20.81c-2.6.12-6.15,10.11-16.16,14.73l28.53.42c2.94-2.2,4.6-4.81,6.58-7.58l5.42-7.6,17.57-22.55c1.73,2.79-.61,4.39-1.69,6.03l-10.32,16.35c-2.47.64-4.05,3.95-5.76,6.15l-7.22,9.27,18.39-1.34,46.01-1.12,19.03-.56c-1.6,1.03-2.17,2.99-3.73,4.74-42.86,2.1-85.2,2.93-128.23,2.41l-17.29-.62c.62-1.5.1-2.64-1.1-2.77-.82-.09-1.72.39-2.81,1.22-1.71-1.52.41-1.49.28-1.75,3.65-1.34,4.11-3.37,5.55-6.02l5.18-9.55c3.65-6.73,11.17-23.08,14.99-23.65,1.06-.16,1.3.39,1.16.96l-.44,1.79-7.62,15.73c5.72.62,11.16.76,16.31.03,5.49-6.71,9.32-13.71,15.47-19.59-3,9.36-8.28,16.48-13.01,23.82Z"/>
    <path class="cls-15" d="M308.85,487.56l.04,11.11c-.38.4-1.23,1.39-.7,2.09.28.36,1.13.51.74,1.6-.21-.29-.97-1.51-1.26-1.15-.39.48-.95,2.06-1.01,2.78,1.04,1.03.29,2.01-.56,1.94-.04-1.84-1.4-2.39-2.02-2.84.11-1.01.69-1.8.86-2.74l2.4-13.37c.59-.12,1.07.24,1.5.58Z"/>
    <path class="cls-24" d="M129.65,488.17l-11.42,19.2c3.34.12,5.92-.65,7.64.86-1.97.07-5.55.59-7.64-.27-.22-.52.05-2.37-1.36-2.31-.61.03-1.3.42-1.94.97-.14-.66.27-1.98,1.82-1.71l8.19-16.51c.28-.57,1.45-.92.61-1.94-.54-.65-1.28-.43-1.83-.56-3.03-.68-6.03-1.76-9.18-1.08l-.04-2.29,13.13.57,11.39-22.97c2.17,2.86.73,5.51-.31,7.85l-9.05,20.19Z"/>
    <path class="cls-22" d="M322.94,647.85c-3.79-.72-4.98-4.28-5.73-7.86-2.03-9.81-2.56-19.31-1.97-29.03l.31-5.1.95-12.75.58-7.85,5.49-46.68c.51-.04.77-.37.93-.46l.07,16.33c.05,11.88-.25,23.15-1.26,34.92-1.43,16.58-1.28,32.45.98,48.9.45,3.27.89,6.96-.35,9.57Z"/>
    <path class="cls-24" d="M322.94,647.85c-.66,1.38-1.04,2.91-.01,4.23-3.21-.04-6.5.88-9.74,2.44l-30.58,14.72-11.26,5.29c-.98.46-2.77.13-3.49.7-.07-.74.36-1.37.79-1.46l1.88-.39,6.74-8.41,7.51-12.57c6.51-7.54,14.8-13.2,23.4-18.47l6.17-18.74c.37-1.11-1.11-3.82.9-4.23-.59,9.72-.05,19.22,1.97,29.03.74,3.58,1.93,7.14,5.73,7.86Z"/>
    <path class="cls-24" d="M93.99,564.7c-3.1,8.22-9.81,14.78-18.68,16.54,6.11-5.61,10.35-13.01,12.31-21.5l-9.9-.33c8.03-3.65,10.7-9.16,16.61-14.55l-.28,15.56c-.04,1.96-.51,2.75-.06,4.29Z"/>
    <path class="cls-11" d="M95.62,626.51c-2.36-.49-3.44,5.3-8.77,8.89-1.07-.46-1.78-.05-2.95.35,4.36-6.98,6.05-14.31,6.49-22.4l.6-10.92c.04-.65.18-1.22.61-1.74.29.13,1.01.97,1.26.71.29-.3.76-1.18,1.75-1.46l.44,23.97.57,2.6Z"/>
    <path class="cls-15" d="M94.87,533.89l-.54,10.97c-5.91,5.39-8.58,10.9-16.61,14.55-.61-.02-.85-.08-1.47.03.92-2.07,3.1-3.32,4.91-5.1,7.79-7.67,12.19-20.23,12.59-20.37.3-.1.88-.04,1.12-.07Z"/>
    <path class="cls-12" d="M92.14,492.21c.2-.04.31.23.07.42-.46,4.85.27,9.74,2.57,13.95.05.19.06.73.76.65-1.79,1.83-4.62.58-6.45.76-.4-5.07-.29-11.66,1.55-15.12-.18-2.25-1.16-4.58-.57-6.95l1.37.05c.34,1.92-1.03,4.35.7,6.23Z"/>
    <path class="cls-9" d="M91.6,600.69c-.43.52-.57,1.09-.61,1.74-2.58.85-4.08,4.68-8.18,4.51-.09-.95.51-1.79,1.29-2.56l10.08-9.58c-.02,2.5-.99,3.95-2.58,5.89Z"/>
    <path class="cls-15" d="M363.29,638.61c.59-.56,1.33-.23,1.53.22.39.91-1.16,2.09-1.29,2.04-.6-.22-.69-1.83-.23-2.26Z"/>
    <path class="cls-3" d="M113.06,516.62l-.23,28.94c0,.99-.51,2.21-.83,2.84-.26.16-.2.42.03.52-2.47,3.38-4.71,7.78-6.15,7.33l-.56-40.63,7.74,1Z"/>
    <path class="cls-8" d="M325.32,656.02c1.05,1.95.47,3.38.25,5.54l-.36,3.58c-.4.08-.81-.41-.58-.64.74-.72.01-1.45-.45-1.31-.32.1-.68.54-1.05.99-.06-1-.26-1.46-.68-1.78-.26-.21-.66-.35-1.14-.41-.35-1.81-.97-3.9-2.88-5.04,2.34-1.24,4.56-.46,6.89-.93Z"/>
    <path class="cls-9" d="M223.37,177.34c-.07.41-.05.77.11,1.09l-7.61-.37-15.73-3.6-5.81-1.97c-.27-1.01,1.25-1.61,1.43-.34l27.6,5.2Z"/>
    <path class="cls-2" d="M274.14,176.1c-4.53,1.08-9.01,1.34-13.89,1.71,3.39,1.2,6.52.36,9.48.98-3.79.88-8.01.41-11.98.41.01-.1.04-.38-.19-.82h-22.13c-.72-.12-.96.53-.83.84l-7.01.04-3.29-1.73,2.61.03,33.05-.43,14.18-1.03Z"/>
    <path class="cls-12" d="M172.89,678.01c2.16.6,4.04,1.21,6.92,1.69l9.42,1.56c-.13.89-.77.99-1.73.82-3.64-.22-7.25.3-10.45-.71l-15.16-4.79c-.67-.21-2.14-.41-2.58-.81-.28-.25.74-1.15.66-1.34l12.92,3.58Z"/>
    <path class="cls-24" d="M189.45,516.52l-1.71,17.45c-1.42,28.41-1.86,56.18-1.18,84.67l2.85,42.06c-3.69,2.44-5.78,6.86-9.38,9.64l-7.27,5.84c-.9-.13-.65-.88-.35-1.08,3.98-2.6,2.33-9.65,2.4-17.91l.59-72.72.92-53.14c.11-6.28-1.25-12.21-.07-17.91,4.52.19,9.07,1.12,13.21,3.11Z"/>
    <path class="cls-19" d="M325.2,665.14l-1.36,5c-.17.62-.09,1.27-.5,1.69-.3.31-.59.65-1.34.51,1.32-1.49.59-3.65.21-5.66l-.9-4.69c.48.07.88.21,1.14.41.41.32.62.78.68,1.78.36-.45.73-.89,1.05-.99.47-.14,1.19.59.45,1.31-.23.23.18.72.58.64Z"/>
    <path class="cls-17" d="M305.64,54.28c1.9,1.72.19,1.61-.7,2.19-.58.38-.23,1.19-1.46.28-.92-.68-1.59-1.75-.43-2.42.35.04,1.41.59,2.59-.04Z"/>
    <path class="cls-11" d="M232.89,344.56l-.35-17.2c-.21-10.14-1.5-20.16-2.8-30.76l.16-1.78c.05-.53-1.15-.6-1.59-.43-.93.37-.34,1.47-.31,2.16l1.31,28.31.15,27.23c-.78.21-1.04.59-1.06,1.03l-3.32.91c-.37-.82-.73-1.36-.76-2.58l-.54-22.42c-.12-4.81.14-9.37-1.65-13.6-.21,1.05-.5,1.7-1.39,1.62l-.17-7.26-1.13-14.47c-2.44,5.64-.64,11.27-.4,16.63l.93,20.67c.22,4.89.2,9.51,1.21,13.9l.93,4.04c.31,1.33-.32,2.66-1.48,2.76-.75.07-1.53-.54-3.19-1.35.64-8.34-.79-16.25-2.16-24.57l-.9-25c-.11-3.03.23-5.95-1.2-8.46-.97-1.71-.38-3.79.9-5.42,1.57.4,3.45,0,5.44-.25.6-2.41.84-4.53,2.54-6.5,4.54,1.49,13.06,1.88,14.54,8.31,1.18,5.15.31,11.46.69,17.02l2.83,40.86c-1.31,2.09-4.35,3.5-7.11,3.52l-.13-6.93Z"/>
    <path class="cls-24" d="M279.18,371.74c-10.5,6.25-19.48,14.43-28.17,23.46-8.4,8.74-21.18,24.28-25.04,33.37l-2.58,6.41-13.83,1.45c.01-.9.97-1.66,2.37-.79,4.24-10.44,10.37-20,17.61-28.57l15.04-17.81c9.17-10.86,36.04-28.37,50.7-34.47,11.19-4.66,23.18-6.3,35.21-7.86,2.8-.37,5.65-.36,8.43,1.02-6.33,2.87-12.17,4-18.37,5.58-12.1,3.08-23.49,7.36-34.41,13.39l-6.97,4.83Z"/>
    <path class="cls-3" d="M334.15,372.82l10.59,19.23c1.29-.58,2.02-.23,2.4.37.33.61.07,1.35-.55,1.64s-1.35.02-1.68-.58l-19.13,2.24-9.54,1.59c-1,.17-2.35,2.26-3.37,2.17-.19-.38-.28-.83-.52-1.18-7.28,1.7-14.16,4.43-20.51,8.64l-14.07,9.31c-1.04.69-1.5,1.92-3.05,2.07,1.49-5.18,4.57-9.49,7.43-14.17,13.08-21.41,27.45-28.67,52.01-31.33Z"/>
    <path class="cls-24" d="M334.15,372.82c-24.56,2.66-38.93,9.93-52.01,31.33-2.86,4.68-5.93,8.99-7.43,14.17-2.01,1.33-2.54,5.36-2.44,7.87l-27.51,6.77c10.83-17.58,24.14-34.71,41.05-48.05,8.86-6.99,17.68-11.07,28.14-13.38s20.75-3.69,30.66.16l-10.46,1.13Z"/>
    <path class="cls-3" d="M279.18,371.74c.81,3.02,2.89,5.07,4.93,8.1-14.92,11.52-28.13,23.44-40.69,36.84-4.1,4.37-7.9,7.44-13.37,9.98-1.16.54-2.12,2.8-4.07,1.9,3.86-9.09,16.64-24.63,25.04-33.37,8.69-9.03,17.67-17.21,28.17-23.46Z"/>
    <path class="cls-3" d="M244.59,389.27l-15.04,17.81c-16.47,3.88-32.37,8.48-49.18,13.79,4.05-5.39,9.31-8.5,14.84-12.11,13.39-8.74,27.68-14.68,43.06-18.43,2.11-.51,3.94-1.9,6.31-1.06Z"/>
    <path class="cls-19" d="M213.19,293.95c1.43,2.5,1.09,5.43,1.2,8.46l.9,25c1.36,8.32,2.8,16.24,2.16,24.57,1.66.81,2.44,1.42,3.19,1.35,1.16-.11,1.78-1.44,1.48-2.76l-.93-4.04c.06.14.55-.02.55-.37l-.08-27.64-.92-1.46c.89.08,1.17-.57,1.39-1.62,1.79,4.23,1.53,8.79,1.65,13.6l.54,22.42c.03,1.22.39,1.76.76,2.58-3.84,1.05-6.02-.59-9.27,1.66-.74-.63-1.49-.04-2.8-.84l.36-31.84-.53-20.88c-.06-2.39-.91-4.52-.41-7.33l-2.07.97c0-.49.24-1.68.7-1.7l2.14-.12Z"/>
    <path class="cls-8" d="M202.08,354.21c-.04,1.15-2.45.91-2.68.31-.18-.49-.68-1.05-.7-2.33-.18-19.87,1.22-39.37,3.29-58.67,1.09-.15,1.51,0,1.64.28.15.31.26,1.41.25,1.98l-1.8,58.42Z"/>
    <path class="cls-11" d="M193.41,352.49c-.07.91-2.29.99-3.34.24-.95-.69-.43-2.41-.29-3.85l1.31-12.89c.62-6.1,1.6-11.78,2.07-17.77l1.83-23.38c.04-.54.6-1.39.51-1.68-.2-.61,1.87-.97,1.85-.32l-1.12,25.14-1.57,17.43-1.25,17.08Z"/>
    <path class="cls-8" d="M180.6,322.93c-1.15,7.2-2.2,14.25-4.3,21.72-.87,1.2-1.38,1.99-2.27.97l-1.74-2c-.64-1.38.4-2.67.38-4.26l-.08-5.89c.57.22,2.7-1.13,2.67-1.98-.17-5.13,1.91-9.46,2.7-14.37l4.56-28.22c2.02,10.98-1.33,23.71-1.94,34.02Z"/>
    <path class="cls-8" d="M182.22,348.92c-.36-2.77.91-5.56.93-8.6l.06-10.32c2.27-2.43,2.41-5.86,2.7-9.4l2.21-27.44c.09-1.08,1.81-2.35,1.99-1.79,1.2,3.58.41,7.48.19,11.37-.73,13.08-.72,26.26-4.27,38.27-.51,1.72-1.17,3.58-.89,6.2,0,.95-.71,2.09-1.54,2.39-.46.16-1.1-.19-1.38-.69Z"/>
    <path class="cls-8" d="M177.69,285.52l-2.53,16.8c-1.26,8.36-2.37,16.46-4.57,24.34-1.1,3.94-1.04,8.47-3.58,11.86-.5.07-1.11-.5-1.11-1.05,0-.28-.4-.24-.47-.5l4.08-24.17c1.49-2.47.99-5.58,1.79-8.6l5.1-18.63c.5.26.86.19,1.29-.05Z"/>
    <path class="cls-3" d="M169.51,312.8l-4.08,24.17c-2.33-1.21-4.7-3.4-4.46-6.08l3.92-16.42,2.67-14.33c1.81.56,1.48,2.9,1.53,4.76-.36,2.67-1.18,5.67.42,7.89Z"/>
    <path class="cls-3" d="M183.22,330l-.06,10.32c-.02,3.04-1.29,5.83-.93,8.6-2.25.27-6.68-1.56-5.92-4.27,2.09-7.47,3.14-14.52,4.3-21.72.81.98,2.05,3.33.52,4.77-.4.7,1.09,2.14,2.1,2.3Z"/>
    <path class="cls-13" d="M219.53,288.28c-2,.24-3.88.64-5.44.25-6.2-1.57-12.71-2.21-19.77-2.3,1-5.74,14.29-2.3,23,.15.41.12,1.13.7,1.48.7.3,0,.38.82.73,1.2Z"/>
    <path class="cls-3" d="M172.6,333.47l.08,5.89c.02,1.59-1.03,2.89-.38,4.26-.39-.29-1.86.15-2.02-.3-.11-.3.32-1.21-.59-1.67l-2.36-1.21c-.4-.21-.21-1.68-.32-1.93,2.53-3.39,2.47-7.91,3.58-11.86,1.14-1.17,1.97,3.18,2.02,6.81Z"/>
    <path class="cls-8" d="M159.62,434.79c-.6.64-.48,2.06-.66,3.14-1.05-.68-1.03-3.84.07-4.09l7.32-3.74.63.63c-2.11,1.38-3.83,3.25-7.35,4.06Z"/>
    <path class="cls-2" d="M352.83,371.03c.18.62-.18,1.02-.56,1.07-.93.12-2.23-.73-2.73-.49-.56.27-1.7,1.39-2.05,1.35-.3-.26-1.1-.51-1.51-.54-.91-.06-.8-1.94-.08-1.89l6.94.49Z"/>
    <path class="cls-19" d="M218.32,282.46c-2.31.15-2.51.85-2.94,2.15-.87-.46-.73-2.3-.04-2.5,1.17-.34,2.39-.18,2.98.35Z"/>
    <path class="cls-8" d="M215.82,355.69c-1.61,1.18-3.6.98-5.07.13s-1.52-3.45-1.49-5.3l1.1-54.76,2.07-.97c-.5,2.82.35,4.94.41,7.33l.53,20.88-.36,31.84c1.31.8,2.06.21,2.8.84Z"/>
    <path class="cls-24" d="M119.83,207.57l-.37,9.95c-1.06,7.76-1.34,15.34-1.72,23.16l-1.62,33.66c-.4,8.24.52,16.32.75,24.03.62,21.26.93,42.47,2.89,64.15.46,5.1.33,9.68,1.26,14.23-.94,1.07-1.39,2.22-1.22,3.84l2.82,28.16c.85,8.46,1.57,16.39,2.99,24.96.29,1.76-.37,3.97,1.49,4.91-2.53-.13-5.15-1.09-7.45-2.05l-.26-7.35-1.31-12.68-.08-5.99c-1.83-11.77.62-19.9-3-19.83l-2.56-47.86c-.75-13.95-.5-27.23-2.33-40.91-1.8-13.42-.2-26.75,1.03-40.5,1.65-19.7,3.44-38.65,6.76-57.01,2.12-.34-.03-3.36,2.46-4.14-.42,2.74-.42,4.84-.52,7.28Z"/>
    <path class="cls-22" d="M288.64,454.3l-55.86-3.35c-.24-1.29.02-2.37,1.33-2.88l2.83-1.09c16.16-4.2,32.05-8.13,47.27-15.16l13.68-7.88c-4.17,10.48-7.23,20.28-9.25,30.37Z"/>
    <path class="cls-20" d="M206.71,489.49l-5.42,7.6c-1.98,2.77-3.64,5.39-6.58,7.58l-28.53-.42c10.01-4.62,13.56-14.62,16.16-14.73l17.99-.8c2.3-.1,4.29-.46,6.38.76Z"/>
    <path class="cls-20" d="M175.63,490.4l-3.59,4.98c-2.33,3.23-5.28,5.97-6.44,9.48l-30.13.18c-.06-1.91,1.69-2.96,2.9-4.89l6.79-10.86c4.11,1.77,9.58-.46,14.88,1.72l-7.46,10.51c-.67.94.75,2.32,1.73,1.75,4.57-4.86,9.75-9.53,13.14-14.79l8.19,1.92Z"/>
    <path class="cls-11" d="M336.53,491.06c-2.89,2.52-1.86,9.85-6.9,14.51-1.26,1.13-4.41.69-6.27.24l.95-9.66c1.5-.27,4.04-.23,5.18-1.36s1.59-3.46,1.66-5.4l.72-20.85c.04-1.21.41-2.15,1.13-2.8.52-.47,2.49-.36,3.05.29l.49,25.05Z"/>
    <path class="cls-11" d="M348.52,489.38c-2.44.82-1.55,4.06-2.06,5.45l-2.54,7.02c-.93,2.57-5.23,3.15-7.85,3.59l.49-10.03c1.74-.13,6.29-1.11,6.49-3.63l2.03-25.58c.1-1.32,1.24-1.49,1.85-1.32.92.27,1.8.77,2.05,1.93l-.46,22.57Z"/>
    <path class="cls-24" d="M308.85,487.56c-.43-.34-.91-.7-1.5-.58l.05-1.25c.07-1.91-.71-3.94-3.04-3.84l-41.23,1.78c7.92-2.53,15.4-2.58,22.78-5.77l20.71-1.99.21-9.7h1.28s.74,21.35.74,21.35Z"/>
    <path class="cls-15" d="M348.52,492.71c-.38.71.25,1.75.25,2.29-.18,2.55-1.57,6.51.81,8.66-.83,2.11-3.85,1.98-5.99,2.21l-12.35,1.31-9.22.2-7.73.23c-.34-1.02.61-1.34,1.21-1.38l1.7-.13c4.68-5.64,4.06-12.62,6.55-14.98l.56,5.02-.95,9.66c1.86.46,5.01.89,6.27-.24,5.05-4.65,4.01-11.99,6.9-14.51l.02,4.34-.49,10.03c2.62-.43,6.92-1.01,7.85-3.59l2.54-7.02c.5-1.39-.39-4.63,2.06-5.45,1.21.57.48,2.43,0,3.34Z"/>
    <path class="cls-24" d="M225.52,488.39l-5.42,7.9c-1.57,2.29-3.76,4.83-6.48,5.6l9.24-15.29c4.06-6.72,7.9-13.6,13.21-20.15-.97,9-6.08,15.41-10.55,21.93Z"/>
    <path class="cls-19" d="M348.77,495c0-.54-.63-1.58-.25-2.29,1.15,0,1.55-.7,1.83-1.34.23-.53-.57-2.66-.18-2.99,1.45-1.21,2.61-4.44,3.11-6.29,1.38,2.96,2.54,7.83-.86,10.33-.92.68-3.36.43-3.65,2.58Z"/>
    <path class="cls-13" d="M120.57,452.41l-2.14,5.27c-1.57-1.08-2.58-1.15-4.13-.12l1.96-4.86c.8-.35,1.26-1.42,2.23-1.42.62,0,1.39.78,2.09,1.12Z"/>
    <path class="cls-20" d="M307.4,485.73l-.05,1.25-2.4,13.37c-5.07-1.25-10.6-.79-15.75-.14.56-.53,1.35-1.97,1.15-3.43l-7.61,4.93-19.03.56-46.01,1.12-18.39,1.34,7.22-9.27c1.71-2.2,3.29-5.51,5.76-6.15l10.58-2.71-9.24,15.29c2.72-.77,4.91-3.31,6.48-5.6l5.42-7.9,19.67-.44,28.93-.84,26.46-1.18c2.55-.11,4.71-1.2,6.82-.2Z"/>
    <path class="cls-22" d="M245.81,189.3c-5.3.2-10.6.35-15.4,3.73-2.89,2.04-5.3,4.55-6.07,7.84-.45,1.92-.27,4.46.42,6.8l8.06,27.25c1.7,5.75,2.65,10.51-.15,16.35-.58,1.22-.8,3.27-2.71,3.17-1.94-2.34-5.77-2.85-9.19-2.94-1.02-2.23-6.55-2.97-8.51-2.52-1.08-8.37-.06-16.63.61-25.18l1.27-16.28c-.9-4.19.75-8.36,1.04-12.8.21-3.13.26-5.1,2.94-6.16,2.88-1.13,5.59-2.35,8.74-2.55l35.35-2.2c.96,3.89,2.02,6.81,1.13,10.58-5.95-4.38-11.57-5.32-17.55-5.09Z"/>
    <path class="cls-20" d="M227.15,200.63c.95,2.06,2.44,4.51,5.19,6.21,1.33.8,4.38-1.1,5.54-1.89l1.06-.08.5,1.03c.29.39-.33,1.07-1.11.89-.82.76-2.34.59-2.67,1.15-.39.68-.93,2.2-.8,3.05.61,3.99,12.13,6.98,21.68-1.77l2.55,3.61-23.78,40.67c-1.74,2.97-3.35,4.48-1.79,8.34l7.62,18.77c.38.94.6,3.12-.14,3.8-.6.56-2.27-.68-3.25-.48-8.89-5.1-19.5-6.69-29.72-7.82-.09-.66.5-1.31.82-1.6,1.98-2.41.58-6.08,1.32-8.99.5-1.99.78-3.37-.18-4.7,1.4-.67,4.66-2.15,6.33-.66,4.09,3.67,3.09,11.49,5.84,16.76,0,.02.17-.33.62-.49l-2.07-14.97c-.25-1.81.99-4,2.93-3.65.97,3.53,3.14,7.42,4.5,10.87,1.66,4.24,2.75,8.79,7.74,10.82.07-5.42-1.57-10.55-4.77-15.52.75-3.46.04-6.58-1.15-9.55,1.91.1,2.12-1.95,2.71-3.17,2.8-5.83,1.85-10.59.15-16.35l-8.06-27.25c-.69-2.34-.87-4.88-.42-6.8l2.81-.24Z"/>
    <path class="cls-19" d="M245.81,189.3c-.09,6.67,6.27,7.44,2.58,13.81-.58-.19-1.32-.91-2.36-.44.31-1.17-.18-2.53-.12-3.8.09-2.14-3.14-2.73-5.18-2.59l-6.54.46c-2.53.18-5.07,2.49-7.02,3.88l-2.81.24c.77-3.29,3.18-5.8,6.07-7.84,4.79-3.38,10.1-3.53,15.4-3.73Z"/>
    <path class="cls-26" d="M256.54,209.22c-9.55,8.76-21.06,5.76-21.68,1.77,9.48,3.42,18.9-.48,25.3-8.91-.34,2.96-1.88,5.53-3.62,7.13Z"/>
    <path class="cls-23" d="M245.89,198.88c-.05,1.26.44,2.63.12,3.8-1.11,2.98-4.36,2.47-7.08,2.19l-1.06.08c-.5-.73-1-3.05-.06-4.41,1.33-1.91,5.58-2.44,8.08-1.66Z"/>
    <path class="cls-26" d="M257.75,179.2l-23.15.02c-.12-.3.11-.95.83-.85h22.13c.23.45.2.73.19.83Z"/>
    <path class="cls-2" d="M280.92,176.95c-3.04.94-7.01,1.75-10.29,1.42l10.29-1.42Z"/>
    <path class="cls-3" d="M116.26,452.71l-1.96,4.86c-3.32,12.95-6.11,26.61-6.52,40-1.61,1.14-.67,3.36-.98,5.65-1.18-1.54-.91-3.09-.76-5.68-2.57,1.95-4.09,2.14-6.76,1.7s-6.18-4.39-5.86-5.22-.34-1.63-1.19-1.39c.24-.2.13-.46-.07-.42l.59-8.41,3.27-20.31c1.12-6.95,3.6-17.06,7.39-22.56,6.15-.15,11.84,1.78,16.46,5.1-1.79,2.49-2.72,4.51-3.6,6.68Z"/>
    <path class="cls-20" d="M312.86,399.48c-10.11,6.87-20.29,13.71-29.79,21.73-3.42,2.6-6.98,4.05-10.8,4.99-.1-2.51.43-6.54,2.44-7.87,1.55-.15,2.02-1.39,3.05-2.07l14.07-9.31c6.35-4.2,13.22-6.94,20.51-8.64.24.35.33.8.52,1.18Z"/>
    <path class="cls-19" d="M119.38,429.22c-.48.96.16,3.55-.89,4.24-.91.6-2.85.93-4.01,1.23-.55-.41-.83-.82-1.42-.94,3.07-1.8,2.09-7.34-.52-9.02-.41-.89-.2-3.57-1.41-3.62,1.22-.55,1.48-1.79,1.18-2.97.48,1.46,1.3-.21,5.76-1.6l1.31,12.68Z"/>
    <path class="cls-19" d="M112.54,424.72c2.62,1.68,3.59,7.22.52,9.02-3.49-.67-6.9-1.81-9.7-3.96,2.28-1.69,3.2-3.1,3.44-5.63,1.37,1.58,3.92,1.13,5.74.57Z"/>
    <path class="cls-11" d="M90.67,478.18c-.25.39-.58.92-1.43.98-1.48.12.07-1.04-1.29-4.62l2.68-8.25c1.67.32,1.82-1.31,2.62-2.03l-2.58,13.92Z"/>
    <path class="cls-8" d="M119.64,436.57c-1.61-.68-3.72-.81-5.16-1.89,1.17-.3,3.1-.62,4.01-1.23,1.05-.69.41-3.28.89-4.24l.26,7.35Z"/>
    <path class="cls-15" d="M91.06,484.26c-.58-.95-.42-2.09-.6-3.05.37-.17.61-.38.69-.45.78,1.53.82,3.18-.09,3.5Z"/>
    <path class="cls-2" d="M62.19,424.58c.78-.73,1.92-.21,1.85.05-.12.39-.92,1.28-1.25,1.52-.46.34-1.85-.41-.6-1.57Z"/>
    <path class="cls-12" d="M65.06,416.55c-.73,1.02-2.47,1.88-3.84,1.34,1.36-.58,2.51-1.06,3.84-1.34Z"/>
    <path class="cls-11" d="M90.67,478.18l-2.8,13.67c-1.65,8.07-1.41,14.49-4.04,15.28l-3.28.04c-2.03-2.6-1.83-7.31-2.83-10.07,1.86-3.19,4.63-.72,5.72-2.51.68-1.12,1.4-10.45,4.51-20.05,1.37,3.58-.19,4.73,1.29,4.62.85-.07,1.17-.59,1.43-.98Z"/>
    <path class="cls-3" d="M331.25,507.18c2.47,3.23,1.93,7.25,1.73,10.99-.43,2.65-2.13,3.61-3.91,5.63-1.64,1.85-2.31,4.58-5.46,5.11l-.31-16.31c-.04-1.98-.52-3.73-1.28-5.21l9.22-.2Z"/>
    <path class="cls-22" d="M273.24,161.88c-1.22.94-3.22,1.34-3.86.25-.59-1.01-.13-2.88.99-3.64,1.18-.82,2.53-1.27,3.67-.32.78.66.82,2.47-.8,3.71Z"/>
    <path class="cls-22" d="M255.48,163.76c-.95,1.04-1.94,1.26-2.67,1.38-1.35.22-2.05-.7-2.02-1.77.04-1.54.6-2.13,2.06-2.82.89-.42,2.41-.7,3.23.05.62.57.65,1.79-.6,3.16Z"/>
    <path class="cls-22" d="M233.97,165.02c-1.62.52-2.83-.72-2.84-1.74-.03-2.01,1.34-3.14,3.58-3.07,1.26.04,1.95,1.15,1.86,2.3s-1.15,2.05-2.59,2.51Z"/>
    <path class="cls-22" d="M291.39,153.52c1.83,2.35-3.42,6.23-4.69,4.69-1.43-1.72,3.29-6.49,4.69-4.69Z"/>
    <path class="cls-22" d="M217.97,41.36c-.81,12.04-2.89,24.05-2.1,37.14,9.75.07,19.25.06,28.99,1.4,17.91,2.47-.27-29.86,20.13-40.79-2.41-1.67-4.31-1.37-6.14-1.81,3.02-1.36,7.72-.74,10.12,2.1,2.84,3.36-7.08,9.19-3.95,21.1,1.02,9.71,8.14,16.24,17.74,18.83.22.22,1.17.02,1.77-.11.8-.17.1.41-.17,1.44-1.76.14-3.61.41-5.28,2.23,3.47,2.48,8.34,2.84,11.82,4.76l2.7,1.49c.59,2.27-1.89,4.03-2.56,6.1-1.82,5.6-2.16,11.86-5.46,16.5l-20.43-10.57-3.23,6.12c-1.31,2.49-1.8,6,.18,8.68,2.94,3.99,7.96,6.92,12.75,7.96,5.49,1.18,12.68.04,17.59-3.37,8.66-6.02,12.5-27.17,12.48-37.51v-2.45s.92-12.48.92-12.48c2.35-2.59,5.76-3.83,7.85-6.95,3.73,1.94,5.33,6.3,5.55,11.01l-2.16,16.5-13.89,75.34c6.94,3.93,9.86,8.26,19.01,12.43,7.37,3.35,13.7,7.51,20.44,12.11,29.57,20.16,39.57,85.07,37.55,120.85l-4.97,88.24-1.65,38.53c1.18,2.76,2.74,6.94,3.78,9.78l3.94,10.71c2.18,5.92,2.86,12.44,3.45,18.94l2.8,30.83.76,71.96.05,45.51c0,6.64-2.63,11.43-8.3,15.18l-5.74,3.8c-.06-.55-.56-1.25-.86-1.5l1.17-102.24c.07-6.04.16-11.14-1.86-16.92-2.12,3.19-4.54,5.14-6.75,6.82l-.63,19.8-4.19,98.91-.87,6.22c-.47,3.36-4.99,7.29-8.34,7.74.12-1.48-1.48-.67-1.75-1.79,1.17-.44,1.56-2.03,1.65-3.56l1.61-26.64,3.67-43.58,2.08-32.72c.39-6.08,1.2-12.04.15-17.87-1.04,1.4-1.08,2.53-1.5,3.5l-1.51,3.44c-3.48,13.93-9.79,26.49-17.09,38.24-1.09.22-1.6,1.2-2.66,1.14l13.61-29.19c4.22-9.06,8.63-18.2,9.72-27.93l-.79-16.65c-.09-1.93-1.23-5.34-2.78-5.02.32-2.17,1.33-4.45,2.54-5.68,3.8-3.88,8.16-.55,9.41-2.96,2.15.12,5.82.74,6.83-1.65,2.94-6.97,3.06-17.97,2.07-25.72-.11-.9-.18-2.94-1.44-2.98l-11.7-.39c-.7-.02-1.8-.82-2.88-.26l-.42-1.31-1.54-19.06c-.21-11.47-1.47-27.51-11.65-31.81-8.16-3.45-17.76-3.37-26.39-1.84-1.15.2-2.4.41-3.72.21.34-2.78,2.92-4.28,5.06-6.28l5.35-4.99c7.05-.23,13.4-2.25,19.07-4.95,3.9,1.18,8.24.54,12.71.79,2.01.11,2.83-.15,3.67-1.98.45-.98.39-2.08-.7-3.53l-6.28-8.36c-.23-.31.74-.71,1.16-.65.64.09.47-.74.6-1.02l2.41-4.95c.26-.53.64-1.38,1.05-1.65.98-.48,1.79-1.43,1.92-2.28.27-1.67-.86-2.51-1.43-3.62-4.07-8.01-9.48-13.9-17.84-19.07,8.82-2.81,17.58,1.97,24.84.74,2.05-15.85,3.35-31.66,2.43-47.86-.92-16.33-5.66-31.32-10.5-46.6-1.47-4.65-3.07-9.02-6.13-12.69-5.74-6.89-14.26-6.85-20.72-1.39-8.26,6.99-12.65,15.53-16.81,25.49-5.65,13.52-11.63,26.4-15.57,40.54-1.97,7.08-5.53,12.73-10.12,18.19-8.07,9.58-17.95,16.04-28.93,21.74l-23.69,12.3c-4.39,2.28-8.71,2.86-13.08,1.83,1.36-1.67,3.95-1.29,5.84-2.41l14.91-8.87c14.6-8.69,21.27-22.85,26.49-38.75-5.7,9.9-11.5,21.08-19.79,28.75-1.38-.01-3.79.17-4,2.13l-.23,2.13c-.04.38-.63.55-.99.43,1.54-13.79-2.21-27.65-1.47-41.07-.89-1.5.68-2.29,1.3-.99l2.1,12.1,2.71,22.87c3.9-4.94,3.06-10.37,2.67-16l-1.29-18.85c-.08-1.22.61-2.09,1.39-2.03,1.14.08,1.15.99,1.33,1.96l3.23,18.14c3.43-3.94,3.23-8.39,2.74-12.92l-1.21-11.16c-.07-.69.44-1.36.66-1.71.25-.39,1.18-.84,1.34-.36l1.27,3.73,5.81-17.04-.11-2.05c-.02-.3.52-.54,1.11-.38,2.36.61-.12,5.66,2.56,7.23l11.8-45.85c1.77-6.87,2.05-12.86,1.89-19.85-.3-13.62-.81-26.99-4.82-40.05-.19-.63-1.44-1.35-1.34-1.79l1.54-2.85,5.25-2.4c4.97-.23,3.9,8.66,5.31,14.46,3.82,15.62,2.28,30.74-.15,46.47-2.68,17.36-4.95,33.69-10.56,50.77l12.68-23.74c9.41-17.62,14.91-36.36,18.47-56.14.63-3.49,2.4-6.75,1.49-10.46-5.98-1.88-13.73-3.15-17.9-8.64-2.62-5.04.32-12.26-.26-17.98l-7.61,2.73c.28-.52.87-.96.71-1.42-.33-.95-1.57-.14-2.05-.06l-21.59,3.84-18.59,1.5-19.75.49c-.25-1.04-1.05-1.01-1.5-.77-.22,0-2.89.71-2.4-1.08,15.26,1.23,66.65-1.96,68.55-10.25l3.64-15.84c-22.78,6.35-45.74,8.12-69.34,7.41-.66-.02-2.1.38-2.33-.36-.13-.42.43-.9.73-1.48l2.23-.67,27.63-1.15c13.51-.56,26.86-2.67,40.19-5.89,4.01-.97,6.54-11.88,5.57-12.74-.81-.72-1.89.52-2.57.6l-21.77,2.41c-5.5.61-11.06,1.11-16.24-.66-5.64-1.93-8.48-7.92-9.32-12.44-2-10.76,5.42-14.79,11.28-22.79-15.85-4.07-33.89-4.17-49.41-8.92-4.11-1.26-7.53-3.99-11.82-3.63-.81.07-2.09-.11-2.91-.38-1.14-.38-2.8-.36-4.17-1.49-1.06-1.45-.42-4.29-.66-6.25,3.58-3.49,4.37-8.24,5.58-13.24,2.1-8.7,5.49-17.51,3.06-26.64-.59-2.21-3.08-4.92-.7-6.69l2.44-.92c3.87-.07,8.23-.97,12.16.7,1.8.76,1.67,4.35,1.56,5.91l-.36,5.33Z"/>
    <path class="cls-20" d="M346.39,547.07c-4.1,10.34-7.13,20.57-12.94,30.89-1.51-13.55,1.63-26.45,4.07-39.77l2.55-29.66c5.7,6.99,8.58,14.79,9.97,22.8.99,5.71-1.67,10.75-3.65,15.74Z"/>
    <path class="cls-3" d="M208.91,260.64c-.26,4.68-1.72,9.35-.05,13.87-.33.29-.91.95-.82,1.6-1.67-.18-3.37-.83-5.06-.85l.82-3.69c1.07-4.14.9-12.42,5.12-10.93Z"/>
    <path class="cls-13" d="M239.42,288.04c-1.33-.03-2.39-1.06-3.11-2.51,1.5-.22,2.7.54,3.11,2.51Z"/>
    <path class="cls-26" d="M238.46,289.17c.18-.93,2.11.53,2.03,1-.11.7-.96.61-1.18.42s-1.03-.52-.86-1.42Z"/>
    <path class="cls-17" d="M232.54,327.36l.35,17.2c-2.59,2.79.52,7.18-4.49,8.56.02-.44.28-.82,1.06-1.03l-.15-27.23c1.74-.15.36,1.06,1.87,3.92.26.49,1.17.36,1.16-.06,0-.46-.28-1.05.19-1.37Z"/>
    <path class="cls-11" d="M246.68,301.76c-1.14.02-1.38-.77-1.08-1.34l1.08-2.02c.21-.4-.68-1.72-1.03-2.07.48,1.21,3.15,1.08,3.48-.11-2.85-4.59-6.7-9.61-11.38-12.3.98-.2,2.65,1.04,3.25.48.74-.68.52-2.86.14-3.8l-7.62-18.77c-1.56-3.85.05-5.36,1.79-8.34l23.78-40.67-2.55-3.61c1.74-1.6,3.29-4.18,3.62-7.13-6.4,8.43-15.82,12.33-25.3,8.91-.13-.84.41-2.37.8-3.05.33-.57,1.84-.4,2.67-1.15.79.17,1.4-.5,1.11-.89l-.5-1.03c2.71.27,5.97.78,7.08-2.19,1.05-.48,1.78.25,2.36.44,3.69-6.38-2.66-7.14-2.58-13.81,5.98-.22,11.6.71,17.55,5.09.89-3.77-.17-6.69-1.13-10.58l-35.35,2.2c.02-2.13-.35-4.6.72-6.75l7.01-.04,23.15-.02c3.97,0,8.19.47,11.98-.41.02-.5.56-.61.91-.43,3.28.33,7.25-.48,10.29-1.42.22-.07.46-.42.92-.2-.1.44,1.15,1.17,1.34,1.79,4.02,13.07,4.52,26.43,4.82,40.05.16,7-.12,12.98-1.89,19.85l-11.8,45.85c-2.68-1.57-.2-6.62-2.56-7.23-.6-.15-1.13.08-1.11.38l.11,2.05-5.81,17.04-1.27-3.73c-.17-.49-1.1-.03-1.34.36-.22.36-.74,1.03-.66,1.71l1.21,11.16c.49,4.53.69,8.98-2.74,12.92l-3.23-18.14c-.17-.98-.19-1.88-1.33-1.96-.78-.06-1.48.81-1.39,2.03l1.29,18.85c.39,5.63,1.23,11.06-2.67,16l-2.71-22.87-2.1-12.1c-.63-1.3-2.19-.51-1.3.99Z"/>
    <path class="cls-5" d="M339.43,411.27c-2.46,4.6.03,9.76-1.94,14.8l-4.15-.24c-.19-.71-.29-1.18-.29-1.86,0-3.83.67-7.36-.24-12.08.71-.17,1.35-.86,1.17-1.69,1.88.24,3.51,1.37,5.46,1.08Z"/>
    <path class="cls-21" d="M333.04,423.97c0,.68.1,1.15.29,1.86-2.97-.17-6.23.2-9.12.97l.27-13.66c1.43.24,2.46-.08,3.21-1.52,1.99,4.33,1.73,10.19,5.35,12.35Z"/>
    <path class="cls-16" d="M344.25,412.85l-2.66,13.2-4.1.02c1.97-5.04-.52-10.2,1.94-14.8,1.71-.25,3.31.89,4.82,1.58Z"/>
    <path class="cls-1" d="M347.54,414.23l1.99,1.31c-2.41,3.32-4.66,7.35-4.22,11.36-.42-.14-1.32-.09-1.61.16l-2.1-1,2.66-13.2c.93.42,2.17.65,3.29,1.38Z"/>
    <path class="cls-25" d="M333.97,410.19c.18.83-.46,1.52-1.17,1.69.91,4.71.24,8.25.24,12.08-3.62-2.16-3.36-8.02-5.35-12.35.96-1.84,4.42-1.65,6.27-1.42Z"/>
    <path class="cls-7" d="M324.49,413.14l-.27,13.66-3.95,1.05c.97-7.03,2.1-15.07,4.22-14.71Z"/>
    <path class="cls-6" d="M353.36,420.91c-1.97.04-2.39,1.79-3.3,3.06l-2.63,3.64-2.13-.71c-.44-4.01,1.82-8.04,4.22-11.36,1.9,1.25,3,3.42,3.84,5.37Z"/>
    <path class="cls-14" d="M347.43,427.6l2.63-3.64c.9-1.27,1.32-3.02,3.3-3.06,1.03,2.38,1.89,4.18-.07,6-1.85,1.72-3.56,1.46-5.86.7Z"/>
    <path class="cls-8" d="M175.34,196.53c.06.53.56.64.81.81,1.34,1.32,2.88,2.59,4.67,3.15-.46-.03-1.59.04-1.72.55-.1.38.79.96.84,1.42-2.35-1.66-4.88-.75-7.81-1.08-1.29-3.76-5.06-6.63-5.86-11.85,3.01,2.73,5.63,5.46,9.06,6.99ZM169.88,195.11c-.09.63.71,1.4.98,1.2.54-.41.41-.95.34-1.27-.12-.53-1.19-.9-1.32.07Z"/>
    <path class="cls-2" d="M208.85,274.51c-1.66-4.52-.21-9.18.05-13.87.23.08.78.18,1.08.18.96,1.33.68,2.71.18,4.7-.73,2.91.66,6.58-1.32,8.99Z"/>
    <path class="cls-19" d="M199.47,253.66c1.78.17,3.64,1.12,3.29,3.55l-2.36,16.7c2.59.22,2.49-1.67,3.4-2.33l-.82,3.69-13.87-.17,5.67-23.52c2.2.71,3.32,1.95,4.69,2.09Z"/>
    <path class="cls-3" d="M209.34,185.5c.04.88.31,2.2,1.72,2.31l1.48,7.92c-2.09,5.02-2.18,10.43-3.09,16.04l-4.7,29.16-.74,3.12c-.32,1.35-1.79,1.41-3.12,1.12,2.45-7.31,2.11-15.14,3.22-22.79l2.83-19.46.4-10.93c.07-1.95,1.08-3.39-1.15-4.97,1.19.08,2.43-.75,3.14-1.52Z"/>
    <path class="cls-3" d="M223.48,178.42l-5.35,10.14c-2.68,1.06-2.73,3.03-2.94,6.16-.29,4.44-1.95,8.61-1.04,12.8-.64,0-.94-.37-1.41-.83-.35-.35-.43-.83.38-1.11.08-3.46.01-6.67-.58-9.85l-1.48-7.92c-1.41-.11-1.68-1.44-1.72-2.31l6.53-7.45,7.61.37Z"/>
    <path class="cls-17" d="M191.66,185.38c3.26,2.48,5.38,6.07,7.32,9.66-.36,1.3-1.52,1.99-2.05,3.05-.27-.04-.54,0-.79.07-1.62.39-3.08.89-5.23.79.55-6.78.24-12.84-5.17-14.46l.27-1.81c2.21.72,4.07,1.5,5.65,2.7ZM196.8,196.84c1.21-.38,1.32-2.23.92-2.64-.47-.48-1.12-.77-3.07-.61,1.38-.61,1.47-2.41-.39-2.49.69,3.39-.41,4.85-3.06,7.13,2.38-.17,3.82-.83,5.6-1.39Z"/>
    <path class="cls-24" d="M215.87,178.05l-6.53,7.45c-.71.77-1.95,1.6-3.14,1.52.07-.18-.02-.46.28-.81-1.06-1.31-2.67-2.2-3.17-3.99,1.15-3.05-.7-6.24-3.17-7.78l15.73,3.6Z"/>
    <path class="cls-19" d="M194.33,172.48l5.81,1.97c2.47,1.54,4.32,4.73,3.17,7.78.5,1.79,2.1,2.68,3.17,3.99-1.75.64-2.25-1.56-3.3-2.11l-19.75-10.3c-1.13-.59-1.35-1.57-2.77-1.63-.11-1.04-.01-2.22.85-2.94,2.09-1.15,6.87,1.22,12.82,3.24Z"/>
    <path class="cls-19" d="M196.14,198.16c-.04.5.23.97.91,1.1-4.92,2.53-10.93,2.9-16.24,1.24-1.79-.56-3.33-1.83-4.67-3.15,1.59,1.41,3.22-.66,4.33-.83,2.16.11,5.25-.08,4.61-2.04.08-.7,2.07-1.38,1.42-2.68-.38-.77-1-2.1-1.61-2.91.9-1.19,1.72-3.25.84-4.39,5.42,1.61,5.72,7.68,5.17,14.46,2.15.11,3.61-.4,5.23-.79Z"/>
    <path class="cls-3" d="M198.78,198.29c-.4.77-1.16.67-1.72.96-.68-.13-.95-.6-.91-1.1.25-.06.52-.11.79-.07.46.07.68-.15.82-.45.36-.72,1.26-.14,1.02.65Z"/>
    <path class="cls-8" d="M169.88,195.11c.13-.97,1.21-.61,1.32-.07.07.32.2.87-.34,1.27-.27.2-1.07-.57-.98-1.2Z"/>
    <path class="cls-8" d="M95.32,380.58c-.6-1.26-.38-2.62-.32-3.88.18-.31.45-.45.52-.47.65,1.24.33,2.64.28,3.88-.2.28-.43.45-.48.47Z"/>
    <path class="cls-24" d="M145.61,512.39l.18,17.43c0,.53.36,1.41.98,1.58.39.11.9-1.09,1.03-1.51.02.32.54,1.16-.08,1.5-.27.15-.91.43-1.25.96l-1.48,75.41v38.12c-1.9.3-2.68,1.12-3.12,2.1-3.71-2.86-6.44-7.65-12.52-8.76l15.62,18.01,1.32,13.73c.07.73-.51,1.05-1.23,1.44l-12.42,7.15c-.7-.17-1.56-.11-1.63,1.24.15-.72-.8-.76-.89-.2l-2-13.8c-1.34-8.77-2.17-16.94-2.49-25.85l-2.01-55.08-.13-37.43c-.05-12.9-.41-25.26.53-37.71l21.6,1.65Z"/>
    <path class="cls-20" d="M86.85,635.39c-1.43.96-2.54,2.18-4.18,2.86-1.27-.85-7.63,4.77-14.7,4.61.74-9.72,1.63-19.13,5.44-27.81l6.95-7.35c.62-.21,1.79-.79,2.45-.77,4.09.17,5.6-3.66,8.18-4.51l-.6,10.92c-.44,8.09-2.13,15.42-6.49,22.4,1.17-.4,1.88-.82,2.95-.35Z"/>
    <path class="cls-3" d="M111.12,421.1c1.21.05,1.01,2.73,1.41,3.62-1.82.56-4.38,1.01-5.74-.57.16-1.77-.27-3.66.56-5.4.32,1.66,1.06,2.24,1.68,2.26l2.09.08Z"/>
    <path class="cls-24" d="M108.7,366.07c-.52.08-1.85-2.05-1.23-2.56.73-.6,1.41.47,1.73.79.37.37.78,1.57-.49,1.77Z"/>
    <path class="cls-24" d="M108.06,378.52c.78-1.21,1.76-.09,2,.36.29.54.56,1.73.26,2.18s-1.73.62-2.13.3-.8-1.81-.13-2.83Z"/>
    <path class="cls-8" d="M102.9,252.26c.57-.7,1.49-.12,1.49.24l-.02,1.68c0,.47-.89.76-1.29.43-.59-.48-.68-1.73-.18-2.35Z"/>
    <path class="cls-3" d="M160.04,491.01c-5.29-2.18-10.76.05-14.88-1.72.43-.68.32-2.31,2.18-2.52,4.52-.51,9.6-.61,14.05.42.65,1.21-.76,2.98-1.36,3.82Z"/>
    <path class="cls-3" d="M123.72,485.91c.06.6.6.75,1.04,1.6l-11.05.26c.11-.8-.38-2.31.82-2.93,3.16-.69,6.15.39,9.18,1.08Z"/>
    <path class="cls-19" d="M107.77,497.56c-.09,2.96.52,6-1.87,8.95l-8.15.38c.39.48.36,1.03.07,1.47-.98.13-1.74-.48-1.1-1.68l-1.32-1.02c-.18-.14-.73.44-.61.93-2.3-4.22-3.03-9.11-2.57-13.95.86-.25,1.51.56,1.19,1.39s3.31,4.8,5.86,5.22,4.19.24,6.76-1.7c-.15,2.58-.42,4.14.76,5.68.31-2.3-.63-4.51.98-5.65Z"/>
    <path class="cls-17" d="M220.75,317.05l.92,1.46.08,27.64c0,.35-.49.51-.55.37-1.01-4.39-.99-9.01-1.21-13.9l-.93-20.67c-.24-5.36-2.04-11,.4-16.63l1.13,14.47.17,7.26Z"/>
    <path class="cls-22" d="M232.54,327.36c-.47.32-.2.91-.19,1.37,0,.41-.91.55-1.16.06-1.51-2.86-.13-4.07-1.87-3.92l-1.31-28.31c-.03-.69-.62-1.79.31-2.16.44-.17,1.64-.11,1.59.43l-.16,1.78c1.3,10.6,2.59,20.62,2.8,30.76Z"/>
    <path class="cls-12" d="M92.85,380.88l6.6,28.68c1.23,5.36.48,11.13,2.26,16.29.52,1.5.29,2.89,1.65,3.93,2.8,2.15,6.21,3.28,9.7,3.96.58.11.87.53,1.42.94,1.44,1.08,3.55,1.21,5.16,1.89,2.3.97,4.92,1.92,7.45,2.05,25.35,1.33,50.75.56,75.94-2.02l6.53-.16,13.83-1.45c6.97-.73,14.41-.31,21.37-2.02l27.51-6.77c3.82-.94,7.38-2.39,10.8-4.99,9.5-8.02,19.67-14.85,29.79-21.73,1.03.09,2.37-2,3.37-2.17l9.54-1.59,19.13-2.24c.66-.08,1.39-.22,2.04-.03-5.67,2.7-12.03,4.72-19.07,4.95l-5.35,4.99c-2.14,1.99-4.72,3.5-5.06,6.28-6.2,5.09-8.86,13.11-10.37,21.4l-3.9,21.42c1.28.64,2.7.78,4.07,1.01.14,2.6.19,4.58-.2,6.74l-1.08-.02c0-1.68.23-3.91-.47-5.73-.55-1.43-2.06-1.04-1.73.64l-15.15-.83c2.02-10.09,5.08-19.89,9.25-30.37l-13.68,7.88c-15.22,7.03-31.11,10.96-47.27,15.16l-2.83,1.09c-1.32.51-1.58,1.59-1.33,2.88l-68.37-2.78-40.38-.82c-1.9.43-2.89,3.68-3.46,5.07-.7-.34-1.46-1.11-2.09-1.12-.97,0-1.42,1.06-2.23,1.42.88-2.17,1.81-4.19,3.6-6.68-4.62-3.31-10.32-5.25-16.46-5.1-3.79,5.5-6.27,15.61-7.39,22.56l-3.27,20.31-.59,8.41c-1.72-1.88-.35-4.32-.7-6.23l-1.37-.05c-.59,2.37.4,4.7.57,6.95-1.31.34-1.84-.71-2.77-1.02l2.8-13.67,2.58-13.92c.9-4.86.37-10.37,3.98-14.93-.97-.91-1.22-1.6-1.39-1.98.78-.04,1.09-.85.85-1.7l-4.95-17.24c-1.84-6.41-9.82-9.67-15.26-5.51-2.08,1.59-3.16,3.67-6.23,3.44-6.36-.48-12.23.69-16.31,7.16-1.14-2.53-.81-5.37.18-7.11-.3-.75-.15-1.87-.32-2.99,2.28-2.18,4.61-4.31,7.42-5.52,1.37.55,3.11-.32,3.84-1.34,5.89-1.24,11.4-.57,17.23,1.21l8.11,2.47c-.62.91-.32,1.07-.24,1.5.15.77,1.48,1.16,1.51.82.71-8.31-.33-16.01-.84-23.8l-1.92-29.35c2.37.76,2.75,6.31,3.94,11.48ZM62.19,424.58c-1.25,1.16.14,1.91.6,1.57.33-.24,1.13-1.14,1.25-1.52.08-.25-1.06-.77-1.85-.05ZM91.06,484.26c.9-.32.86-1.98.09-3.5-.08.07-.32.28-.69.45.18.96.02,2.1.6,3.05Z"/>
    <path class="cls-19" d="M227.59,179.26c-1.07,2.15-.7,4.62-.72,6.75-3.15.2-5.86,1.42-8.74,2.55l5.35-10.14c-.16-.31-.18-.68-.11-1.09l.93.19,3.29,1.73Z"/>
    <path class="cls-3" d="M245.89,198.88c-2.49-.78-6.75-.25-8.08,1.66-.94,1.35-.44,3.67.06,4.41-1.16.79-4.21,2.69-5.54,1.89-2.76-1.7-4.25-4.15-5.19-6.21,1.95-1.39,4.49-3.7,7.02-3.88l6.54-.46c2.04-.14,5.27.45,5.18,2.59Z"/>
    <path class="cls-13" d="M196.8,196.84c-1.78.56-3.22,1.22-5.6,1.39,2.66-2.28,3.75-3.74,3.06-7.13,1.85.08,1.77,1.89.39,2.49,1.95-.17,2.6.13,3.07.61.4.41.3,2.26-.92,2.64Z"/>
    <path class="cls-3" d="M200.31,197.53c-.41-.07-1.33.39-1.53.77.23-.79-.66-1.37-1.02-.65-.15.3-.37.52-.82.45.53-1.06,1.68-1.76,2.05-3.05.35.66,1.7,1.36,1.33,2.49Z"/>
  </g>
</svg>