<?xml version="1.0" encoding="UTF-8"?>
<svg id="Réteg_1" xmlns="http://www.w3.org/2000/svg" version="1.1" viewBox="0 0 409.2 709.8">
  <!-- Generator: Adobe Illustrator 30.4.0, SVG Export Plug-In . SVG Version: 2.1.4 Build 226)  -->
  <defs>
    <style>
      .st0 {
        fill: #fcd7b2;
      }

      .st1 {
        fill: #f4b7b6;
      }

      .st2 {
        fill: #f3abb2;
      }

      .st3 {
        fill: #456292;
      }

      .st4 {
        fill: #49679a;
      }

      .st5 {
        fill: #fbd1b3;
      }

      .st6 {
        fill: #f1abb1;
      }

      .st7 {
        fill: #1d3149;
      }

      .st8 {
        fill: #f9c7b2;
      }

      .st9 {
        fill: #385888;
      }

      .st10 {
        fill: #f8f4e9;
      }

      .st11 {
        fill: #fbd3b3;
      }

      .st12 {
        fill: #fcddb8;
      }

      .st13 {
        fill: #3e649e;
      }

      .st14 {
        fill: #2d4669;
      }

      .st15 {
        fill: #3f639b;
      }

      .st16 {
        fill: #fcd8b2;
      }

      .st17 {
        fill: #faceb3;
      }

      .st18 {
        fill: #172c43;
      }

      .st19 {
        fill: #7a7596;
      }

      .st20 {
        fill: #f9dab9;
      }

      .st21 {
        fill: #facbb2;
      }

      .st22 {
        fill: #f09fb5;
      }

      .st23 {
        fill: #f9c5b2;
      }

      .st24 {
        fill: #fbd5b3;
      }

      .st25 {
        fill: #1f3650;
      }
    </style>
  </defs>
  <g id="Generatív_objektum_0">
    <path class="st10" d="M181.5,169.2c-.9.7-1,1.9-.9,2.9-2.6-.1-6.6.4-8.4-1.4-1-.9-2.3-1.4-3.6-.5-3,2.2-4,6.3-2.9,6.3,2.4,0,1.8-4.1,4.8-3.2-.7,2.9,2.6.6,7.5,2.2.1,1.1-.4,1.9-.8,3-4.4.9-9.8,3.1-10.5,6.2-.4,1.4,1.4,3.4,2.5,2.9.5-.2.1-2.3.6-2.5l2.1-.9c3.3-1.5,6.2-1.8,9.1-.6l1.2,1.2c.1,0-1.2,1.2-.2,2.3,1.3-1.3,2.6.4,1.3,1-1.4,0-4.3,0-4.7,1.5-.5,1.6.4,3.1.4,4.1-1.9,0-2.1,2.3-3.6,2.8-3.4-1.5-6.1-4.3-9.1-7,.8,5.2,4.6,8.1,5.9,11.9l-7.3,13.1c-.8,11.1,5.8,26.2,4.5,35.9l-4.1,14.1c4.3-3.1,6.2-7.7,9.3-11.6,3.9-4.9,11.8-10.9,15.4-10.2-.5,2.9-2.2,5.5-3.5,8.2l-8.8,18.6,1.1.7,11.4-20.1,2.5-4.9c.9.9,2,1.1,2.7.4-2.4-.6-3.3-2.2-3.7-3.8-1.1-4.4-.7-9.6,4.3-11.4.8-.3,1.6-.6,1.7-1.1.4-2.6-4.5-10.5-6.5-21.9,0-.5-1.4-1.2-1.1-1.8,4.5-2,10.4-4.5,10.2-7.3l4.2,1c.6,13.8-2.1,27.1-5.4,40.6-.6,2.2-.2,4.2-3.1,5.2,1.2.5.9,1.5.8,1.9-.6-.3-1.6-.2-1.7.4-.6,1.9,1.9,2.8,4.3,3.5-.1,1.1,0,1.9,0,2.8-1.4-.1-2.5-1.4-4.7-2.1l-5.7,23.5c-8.1-.1-16.6,3.8-21.4,11.4,3.3,1.2,5.4-1.7,7.8-1.6-2.2,3.5-7,2.9-9,4.1-1.4.9-.2,3.3-.5,4.4l-4.2,17.7-2.7,13.7c-.7.2-1.3.3-2,0-.9-.3-3.2-4.3-2.3-7.8l7.2-28.1c.3-1.1-1-2.2-1.6-2.1-.9.2-1.2.8-1.5,2l-5.9,24.1c-1.4-.3-1.6-1.8-1.9-3.2-3.7-14.1-5.6-28.1-7.9-42.5-3.5-21.9-3.9-43.2-3-65.9-3.5,9.6-1.9,19.8-2.3,30.3-1,24.9,2.9,57.1,10.3,80l9.6,29.7,8.4,24.8,34.7,9.3c-3.4,4.8-6.8,8.3-11.2,12l-26.5,22.5c-11.5,3.1-24.4.2-35.9-1.7l-6.4-31.5c-.9-4.5-.8-9.1-1.3-14.2-2-21.7-2.3-42.9-2.9-64.1.1-2,.7-3.9.9-6l2-29.1c.6-9.4.5-18.3,1.3-27.6.9-11,1.6-21.6,5.1-32.6l-3.1-4,1.2-.7c5.8-3.4,10.9-8.4,17.7-10.6l4.5-20.6,3.2-16.4c8.7,6.9,18.4,12.3,29.1,15.7,1.6.5,2.5,1.2,2.7,2.7h0ZM151.3,279.8c1.4-5.1.7-10-1.2-14.2-.6,5.1-.3,9.5,1.2,14.2Z"/>
    <path class="st10" d="M103.6,196.4c-3.8,1.1-5.1,5.2-5.6,9.1-2.4,18.8-2.7,37.9-4,56.8l-1.1,16.5-4.2,41.6c-.7,7.1-.9,13.8-.8,20.5-.2,0-.6.3-.8.8-9.6-4.4-21.5-9.9-27.6-1.2l13.4,4.6c3.2,3.5,7.7,4.6,11,11.4,2.1,4.3,4.8,8.4,5.1,12.8l1.9,29.4-6.2-2.1c-4.3-1.5-9.4-5-14.4-3.9-8.2,1.9-12.8,9.4-14.4,16.9-1.1,4.9-2.7,9.1-2,13.7.2,1.1,0,2.2.3,3-1,1.7-1.3,4.6-.2,7.1,4.1-6.5,10-7.6,16.3-7.2,4.8,1,9.4,2.3,13.6,4.7-1.3,5.1-1.5,10.7.3,16.1l4,12.2c-8.9-1.2-14.2-2.9-12.2,1.8l3.7,8.4c-.9-.3-1.9-.4-2.6-.1-3.9,8.9-4.4,21.4-7.2,25.5-.6.9-3.9.6-4.5,0,.2-1.3-1.8-3.4-1.6-4.7l3.5-20.4c.2-1.3-1.3-1.6-1.9-1.7-3.7-.7-6.3,13.9-6.4,22.4,0,1.4.7,4.9-2,4.7-1.3-.5-3.2-2.2-4.9-.6l-.8-5c-1.5-10.1,6.2-26.5.4-23.2-3.1,1.8-5.3,16.4-4.7,24.7l-3.5,1.9c-2.4-1-2.1-3.8-4.1-5.3-.3,1.9-1.2,2.9-2.6,3.1,2.1,2.2,3.2,4.8,5.7,6.2l2.5,4.4-1.2,18.2-2.1-.4c-3-3.3-8.4-4.3-13.3-3.5-2.6,20.4-4,39.9-4.2,60.2l-.4,46.3.2,4.3c-3.4-6.2-4.5-13-4.7-20.5l-.7-27.4.6-37.7,1.3-40c.2-7.6,3.1-15.5,9.9-19.4,4-2.4-1.3-17.7,11.8-19.9-1.9-4.2-1.5-7.1-1-10.8,2.7-21.2,3.6-42,4.4-63.3l1.4-33.4c.8-18.4,1.6-36.2,4.7-54.2,4.2-24.2,9.6-47.6,20-69.9,5.7-12.3,14.1-22.8,23.3-32.2,3-3,6.3-5,9.3-7.2,2.8.9.5,1.3-.9,5.9h0Z"/>
    <path class="st10" d="M156.7,55.1c2.5,1.8,5.8,3.3,6.5,5.8-3.5,1.7-5.3,5.1-6.2,8.5-3.4,13.7-3.3,29.1,3.2,42,3.6,7.3,12.2,8.8,19.5,8.8s14.8-2.9,17.3-9.7c1.2-3.3,1.7-6.6,2-10,.6-6.9-5.4-10.5-3.6-13.8,1.1-.2,2-2.5,3.6-2.1.8.3,2.1.4,2.9.4l5.2,13.7c2.6,11.6-1.4,22.6-7.7,32.7,7.8-4.4,12.5-12.5,14.1-21.1l2.8-14.5c.4-2.3,19.6,2.8,29.6,2.8-2.9,3.9-5.8,7.3-5.7,12l1,28.9-13,10.6-2.2.7c-1.4-1.4-3.9-1.7-6.1-1.9-13.3-1.3-25.8-3.8-38.5-7.6-14.4-4.3-27.9-10.9-37.7-22-.2,4.4,3.3,5.6,5.6,7.6,5.4,4.7,10.6,8.6,17.3,11.1,18.5,7,37.8,11.6,57.3,14.2-2,6.5-2,12.1-1.7,19-19.3-2.4-39.5-7-58.1-15.4-8.1-3.6-14.5-9.4-20.5-14.4-3.7-5.8-.5-49.8.1-65.4l.9-23.5,1.1-6.3c1.6.5,2.2,2.6,3.6,3.6l7.1,5.1h0ZM155.2,142.4c1.8-2.4-.9-5.1-3.3-5.6-1.3,1.3-.7,2.7-.1,4.2.4,1.1,2.4,2.8,3.4,1.4ZM171.7,151.6c1.2-1.4.1-3.3-.9-4.1-.7-.6-2.8-1.3-3.3-.6-1,1.6-.1,3.3.7,4.1s2.7,1.6,3.5.6h0ZM190.9,158.3c1.9-1.4.8-3.3-.2-4.2-.7-.7-2.4-1.9-3.6-1-1.6,1.2-.6,2.8,0,3.8.8,1,2.4,2.3,3.7,1.4h0ZM212.2,160.2c-.7-2.5-4.7-3.4-5.6-1.7-1.1,2.2.2,4.6,2,4.9,1.5.2,4.3-.6,3.5-3.2h0Z"/>
    <path class="st10" d="M54,504.8c10,2.5,20.4,4.3,30.6,3.6l2.6-.2c-2.8,7.3-7.8,14-15.6,15,1.2,9.2,4.6,17.3,3.8,26.2-.3,3.8-4,7-5.7,10-3.4,5.7-4.6,12.9-4.8,19.6,1.5,1.6,2.1,2.3,3.3,3.2,1.9,1.4,3.9,1.8,6.1,1.9,0,1.9,1.5,2.7,3.9,3.3-2.9,4.4-7.3,6.7-11.8,10.4l13.9,10-6.9,7.3c-3.8,8.7-4.7,18.1-5.4,27.8,7.1.2,13.4-5.5,14.7-4.6,1.2.8,2.4-.2,3.6-.7l6.7-2.9c1.1.3,1.7,1.7,1,2.9-.7,1.1-.6,1.9-.8,2.8-1.5,7.6-4.7,14.9-7.9,22.2l-11-10.4c-5.7-4.1-12.5-6.9-19.5-7.7l-3.9-65.9c-1.5-24.8-2.2-48.8-1.5-73.6,1.8-.2,3.5-.3,4.7,0h0Z"/>
    <path class="st10" d="M122.2,178.1c0,1.4.2,2.9,1.1,3.5l-3,9.5c-1.4,4.3-2.8,8.6-2.4,13.3-3.3,18.4-5.1,37.3-6.8,57-1.2,13.8-2.8,27.1-1,40.5,1.8,13.7,1.6,27,2.3,40.9l2.6,47.9c.2,4.4-.8,9.8-1.9,13.5l-5,.4c-.6,0-1.2-.1-2,.2l-.5-8.8-.5-22.5c-.2-7.2.6-14.3-3.1-20.9.2,7,1.1,12.8,1,19.3l-.5,27.3c-.6.1-1.8.4-2.8,0-.9-.3-1.3-2-1.4-3.4l-.8-13.8c0-.7-.5-.9-.6-.9-3.7-34-4-68.2-1.7-102.5,1-15.6.4-31.3,2.8-47.1,1.9-12.3,2.1-24.2,5.6-35.5,1.4-4.6,3.8-5.1.9-5.9l11-8c2.3-1.7,4.4-3.2,6.8-4.3h0ZM113.8,195c-.9-.7-1.7-1.1-3.1-1.9-1.2,1.4-2.3,3.9-1.5,6,.6,1.5,2,2.2,2.9,2,2-.6,2.5-5.4,1.7-6.1h0ZM110.7,214c.7-1.6.2-3.5-.2-4.3-.3-.6-1.2-1.3-2.5-.9-1.8.6-2,2.8-1.1,4.2.8,1.3,3,2.8,3.8.9h0ZM107.3,229.4c1.2-.7,1.3-2.9,1.1-4.3-.2-1.5-2.4-3.1-3.7-2-2.2,1.9,0,4.6,2.6,6.3h0ZM106.7,243.4c.8-1.6-1.1-5.6-2.9-5-1.6.5-1.3,3.5-.3,4.6.7.7,2.4,1.8,3.2.4h0ZM103,251.4c-1.5.8-1.5,2.3-.8,3.3.5.7,1.5,1.3,2.6.8.7-.3.6-2.1.4-2.8-.2-.6-1.2-1.8-2.2-1.2ZM101.1,264.6c-1.2,1.6,0,3.2.9,3.8.7.4,1.9.7,2.7-.3,1-1.1.2-2.3,0-3.1-.4-1.2-2.5-1.9-3.6-.5h0ZM104.1,281.9c-.5-1.7-2-1.7-3.1-1.1-.8.4-.7,2-.2,3.2.5,1.4.9,2.1,2.2,2,.7,0,1.6-.8,1.8-1.4.2-.5-.4-1.6-.7-2.6ZM104.2,302.3c1.2-1.4,0-3-1-4-.7-.8-2.5-1.5-3-.2-.7,1.8,0,3.5.7,4.2.6.8,2.4,1,3.2,0ZM104.8,318.5c.7-2.2-3.4-4.9-4.4-3.4-1.3,1.9,0,4.2,1.3,5,.8.5,2.7-.2,3.1-1.5h0ZM104.5,335.3c1.2-2.2,0-3.4-.9-4s-2.6-.7-3,.6c-.4,1.5.3,2.5.9,3.1.7.6,2.6,1.1,3,.3h0ZM106.4,350.4c.3-1.3-2.8-3.4-4.8-3.3-.5,1.4.6,2.5,1.1,3.2.7,1,3,1.7,3.7.1ZM106.4,363c-1.1,2,0,3.3,1,3.8.8.4,1.9,0,2.6-.8.8-.9-.1-2.1-.6-3-.3-.7-2.6-.8-3,0h0ZM111.1,381.7c.7-2.1.1-3.3-1.1-3.9-.8-.4-2.5-1.5-3,0-.6,1.7-.1,3.3.7,4.1.8.7,3.1.7,3.4-.2ZM107.9,391.3c-1,.4-1.1,3-.5,3.8.7,1,2.6,1.4,3.9.5.9-.6,1-2.6.2-3.5-.6-.6-2.1-1.2-3.5-.8h0Z"/>
    <path class="st18" d="M289.2,500.2c-1.3.7-3.1,3.5-1.9,4.9,5.6.5,12.1.5,16.8-2,.6.5,2,1,2,2.8.9,0,1.6-.9.6-1.9,0-.7.6-2.3,1-2.8.3-.4,1,.9,1.3,1.1-.5,1.5.2,3.4,0,4.9-1.1-.4-3.2.3-4.6.1-2.5-.2-5.4,0-7.6,1.3l4.1,66.2-.4,4.4-.6,7.8c-1.8.4-2.6,2-3,3.8-3.2,12.4-8.5,23.4-15.1,34.6l-25.7,29-12.8,12.7c-7.6,5.4-15,9.6-23.8,12.3-.3,0-.9.9-1,1.2s.4.6.9.8l-22.4,1.4c-.9,0-1.6,0-1.7-1,5.2-.1,10.1-.6,15.4-2.7,3.1-1.2,5.9-3.2,9.9-3.4,1.3-.2.2-2.5-1-.9-1.2.3-2,.4-2.4-.7,1,.1,2.9-1,3.9-.6,1.6.6,1.8.6,3.3-.4,3.4-2.3,7.8-3,10.8-7.3-5.5-.2-10.7.5-15.6,1.7-1.3,0-2.1-.9-2.2-2l11.4-3.7c4.5.2,10.3-1.7,14.9-3.5,4-1.6,6.5-5.9,9.3-8.6-3.2-.6-4.2,2.1-5.3,3.5-1-1-3-.6-3.6-.8-.8-.3-1.1-2.2,0-3.2l11.7-10.3c2.1-1.9,4.8-3.4,6.1-6,.3.1.8.1,1,0v2.3c11-7.5,20-18.1,22.7-31.7l4.6-22.9,1.5-26.4c-2.4-.1-1.5,2.1-2.2,2.4l.6-24.6-.4-20.8c0-2.1-1.6-3.4-3.8-3.2l-40.1,1.9c-4.7.2-7,8.4-9.9,10.7.3-1.6-1.3-4.3-1.9-6-4.5-1.4-8.5-1.2-12.5-1.2l-22.1-.3c-3.1,0-8.5.5-10,3.1-4.1-2-8.7-2.9-13.2-3.1l-19.7-.8c-1.5,0-4,.3-4.9,1.7-1.1-2.6-4-1.8-6-1.9l-21.6-1.6c-2.2-.2-4.5-.5-6.1,1.5-1.2,1.5-.6,3.2-.9,4.7-1.2-.9-.7-1.7-.7-2.2s-1.4-.5-1.7-.5c-.3-.8-.8-2.1-1.6-2.6-.6-1.7.5-3.7.6-4.9h1.4c.6-.5,1.3-.9,1.9-1,1.4,0,1.1,1.8,1.4,2.3,2.1.9,5.7.3,7.6.3,1.4,0,2.6-.7,3.7-1.5s2-1.3,2.8-1.2c1.2.1,1.7,1.3,1.1,2.8l17.3.6c43,.5,85.4-.3,128.2-2.4,1.6-1.8,2.1-3.7,3.7-4.7l7.6-4.9c.2,1.5-.6,2.9-1.1,3.4h0ZM236.6,519.3c.9-2,1.3-2.7.8-3.8-1.9,1.2-1.3,3.1-.8,3.8Z"/>
    <path class="st12" d="M315.5,605.9l-.3,5.1c-2,.4-.5,3.1-.9,4.2l-6.2,18.7c-8.6,5.3-16.9,10.9-23.4,18.5l-7.5,12.6-6.7,8.4-1.9.4c-.4,0-.9.7-.8,1.5-2.1,1.7-4.7,1.4-7.5,2l-6,1.2-16.5,1.2c2.3-4.1,4.3-9.1,8.1-13.1,6.2-6.4,15.5-9.3,23.5-13.8,4.9-2.8,7.6-7.8,10.7-12.4l13.3-20c5.1-10.5,5.4-22.2,6.3-33.2l.6-7.8c.8,0,.8-.3,1.1-.5.4-.3.8.3,1,1l9.8,21.8c.8,1.8.9,3.5,3.1,4.2h0Z"/>
    <path class="st2" d="M41.9,519c-.9,1.1-1.2,2.7-1.2,4.7l-2.3,112.9-1.6,1.1c-5.9-4.4-12.1-3.3-12.5-11.3l-.2-4.3.4-46.3c.2-20.3,1.6-39.8,4.2-60.2,4.9-.8,10.2.2,13.3,3.5h0Z"/>
    <path class="st2" d="M258.8,37.3c1.8.4,3.7.1,6.1,1.8-20.4,10.9-2.2,43.3-20.1,40.8-9.7-1.3-19.2-1.3-29-1.4-.8-13.1,1.3-25.1,2.1-37.1,2.6-1.6,4.6,1.9,6.5,2.2,4.6.6,8.3.5,12.8,1.9,2.2.7,5.3-.3,7.7-.5,1.6-6.9,7.8-9.1,13.9-7.6h0Z"/>
    <path class="st18" d="M374.3,642.9l-13.1,4.9,4.2-98.9.6-19.8c2.2-1.7,4.6-3.6,6.8-6.8,2,5.8,1.9,10.9,1.9,16.9l-1.2,102.2c.3.2.8,1,.9,1.5h0ZM363.3,638.6c-.5.4-.4,2,.2,2.3.1,0,1.7-1.1,1.3-2-.2-.5-.9-.8-1.5-.2h0Z"/>
    <path class="st12" d="M124,510.7c-.9,12.5-.6,24.8-.5,37.7v37.4c.1,0,2.1,55.1,2.1,55.1.3,8.9,1.2,17.1,2.5,25.8l2,13.8c-2.2.8-5.8-.3-7.9-.5l-3.9-30.6c-2-36.4-2.1-72.5-2-108.7l.7-16.2.8-12.3c1.6-2,3.9-1.6,6.1-1.5h0Z"/>
    <path class="st20" d="M118.4,676c-.5,1-.4,2.1-.3,3.3-2.9.2-5.6-.2-6.9-2.1l-2.8-31.8-1.2-23.1-.8-24.9-.5-41c1.4.5,3.7-4,6.2-7.3l.7,8.4,1,30.9c0,29.6,2.2,58.7,4.8,87.7h0Z"/>
    <path class="st13" d="M199,100.6c-.3,3.4-.8,6.7-2,10-.9.2-1.1.5-1.3,2-4.9-.6-12.2.6-16.9-2.8-10.2-10.8-17.3-34.5-6.6-46.3-3.1-4.8-10.9-5.6-12.9-10.3l-.6-9.5c.4-4,3.5-7.2,6.6-10.1,1.7.2,3.6-1.1,5.9.5,3,2.1-.8,13,3.9,28.1,1.2,3.9,0,7-.9,10.5-2.3,10.2-.1,28.9,5.5,33.8.4.4,15.3,1.8,19.2-5.8h0Z"/>
    <path class="st13" d="M44,519.4v18.8l-.7,38.5v21.6c0,0,.4,42,.4,42-2.5.8-5.3-1.2-5.3-3.7l2.3-112.9c0-2,.3-3.6,1.2-4.7l2.1.4h0Z"/>
    <path class="st18" d="M322.9,652.1h4.8c7.2.2,15,6.4,22.5,7.9.3,1.1,1.9.3,1.8,1.8-4.2.6-6.7-3.2-15.3,5.2,0-3.1-.4-6.9-2.3-8.8-2.5-2.6-6.2-2.7-9-2.1-2.3.5-4.5-.3-6.9.9s-6,2.1-7.5,4.3c-2,2.9-2,6.1-.8,9.6l-27.5,1.8c-2.5.2-4.2.5-7.1,2,1.5-2.8,6-3,7-5.4l30.6-14.7c3.2-1.6,6.5-2.5,9.7-2.4h0Z"/>
    <path class="st9" d="M122.2,680.1c-.8,0-2.8.8-3.3-.7-.2-.9.5-2.7-.5-3.4-2.5-29.1-4.8-58.1-4.8-87.7l-1-30.9-.7-8.4c-.2,0-.3-.4,0-.5,1.2,1.1,1.6.5,2.3.2,2.7-.8,0-5,2-7.9,0,36.2,0,72.3,2,108.7l3.9,30.6h0Z"/>
    <path class="st22" d="M222.5,171.5c.2-2,3-.9,2.4,0-.5,1.8,2.2,1.1,2.4,1.1v.8c0,2.1,2.8-.4,4.8,1.4l-3.7.3c-.8,0-1.3,1.5-1.5,2.5h-2.6s-.9-.2-.9-.2l-27.6-5.2c-.2-1.3-1.7-.7-1.4.3-5.9-2-10.7-4.4-12.8-3.2-.2-1.5-1.1-2.1-2.7-2.7-10.7-3.5-20.4-8.9-29.1-15.7l-5.8-9.1c6,5.1,12.4,10.8,20.5,14.4,18.6,8.3,38.8,12.9,58.1,15.4h0Z"/>
    <path class="st13" d="M197.4,672.6c4.7,2,9.5,2.7,14.6,1.3,1.5.8,3.3.3,4.9.5.4,1.2,1.2,1.1,2.4.7,1.3-1.6,2.3.7,1,.9-4,.2-6.7,2.2-9.9,3.4-5.3,2-10.2,2.5-15.4,2.7h-.9c-1.2-1.4-3.5-.5-5.1-.8l-9.4-1.6c-2.9-.5-4.8-1.1-6.9-1.7-.1-.7-.3-1.2-.1-1.8l7.3-5.8c3.6-2.8,5.7-7.2,9.4-9.6.2,2.5,1.2,5.4,2,7.8,1.2,3.4,3.9,3.2,6,4.1h0Z"/>
    <path class="st13" d="M146.4,167.2l-4.5,20.6c-6.8,2.2-11.9,7.1-17.7,10.6-1.2-4.5-.2-9.2,0-13.7.6.2.4-1.6.8-2l8.5-9.7c1.5-.7,3.4-1.1,5.2-2.3,2.5-1.7,4.9-3.2,7.8-3.4h0Z"/>
    <path class="st10" d="M300.5,53.8c3.6,5.3,3.9,5.5,4.8,11.2.6,2.7-2.5,2.7-3.1,4.2l-7,16.7c-.7,1.6-2.7,2.1-4.4,1.8-3.5-1.9-8.3-2.3-11.8-4.8,1.7-1.8,3.5-2.1,5.3-2.2,6.4-.5,9.9-12.7,8.9-22.2,0-2.4.6-4.2,3.3-4.9.5,0,2.7.5,3.9.3h0Z"/>
    <path class="st13" d="M145.1,672.4c8.9,1.3,17.1,6.7,27.3,8.1.5-.3.5,1.1.3,1.9l-21.3-.8-20.4-.8c0-1.3.9-1.4,1.6-1.2l12.4-7.2h0Z"/>
    <path class="st25" d="M51.4,489.4l.8,5c.5,3.2,1.4,6.9,4.6,9.4,1.8,1.4,5.1-.2,6.2-1.1-1-3.5-1.3-6.9.5-10.8l2.8,9.8c.5,1.6,1.6,3.9,2.9,4.3,1.2.4,4.9.2,5.2-1.1.1-4.6-.5-9,.9-12.9.3,0,1.1-.1,1.6,0,.2,1.8.3,3.5.8,5,1,2.8.8,7.5,2.8,10.1h3.3c.5,0,1,.4.9,1.2-10.3.7-20.7-1-30.7-3.6-.5-1.1-1.9-1.2-3.5-1,.3-.5.8-1.2.4-1.6-.4-.3-.2-.8,0-1-.6-2.2,0-5.7-.4-8.4l-.4-2.8c0-.5.7-.7,1.4-.6h0Z"/>
    <path class="st2" d="M51.4,489.4c-.7-.1-1.5,0-1.4.6l.4,2.8c.4,2.7-.2,6.2.4,8.4h-5.6l-2.5-4.4c-.6-1.1-1.3-2-.5-4.4.1,1.1,1.3,1.5,1.5.4l3.5-1.9c-.6-8.3,1.6-22.9,4.7-24.7,5.8-3.3-1.9,13-.4,23.2Z"/>
    <path class="st6" d="M111.2,677.1l-3.9-.9-1.9-34.4-.4-14.7.7-2.5v-1.7c0-.5.7-.9,1.6-.7l1.2,23.1,2.8,31.8h0Z"/>
    <path class="st13" d="M336.6,666.9c-3.9,3.8-9.1,7.1-14.4,7.2,0-.8,0-1.3-.2-1.7.8.1,1-.2,1.3-.5.4-.4.3-1.1.5-1.7l1.4-5,.4-3.6c.2-2.2.8-3.6-.2-5.5,2.8-.6,6.5-.5,9,2.1,1.9,1.9,2.3,5.7,2.3,8.8h0Z"/>
    <path class="st12" d="M318.4,657c1.9,1.1,2.5,3.2,2.9,5l.9,4.7c.4,2,1.1,4.2-.2,5.7.1.4.2.9.2,1.7-4.3,0-8.5-3.4-12-3.2-1.3-3.5-1.2-6.7.8-9.6,1.5-2.2,5-3,7.5-4.3h0Z"/>
    <path class="st13" d="M237.8,679.6c.2.2.3.9.1,1.2-.2.2-1,.5-1.6.5l-13.5.4h-3.6c-.5-.2-1-.5-.9-.8s.7-1.1,1-1.2c8.8-2.6,16.2-6.9,23.8-12.3l12.8-12.7,25.7-29c6.6-11.2,11.9-22.2,15.1-34.6.5-1.8,1.2-3.4,3-3.8-.9,11-1.2,22.7-6.3,33.2l-13.3,20c-3.1,4.7-5.8,9.7-10.7,12.4-8,4.5-17.3,7.4-23.5,13.8-3.8,3.9-5.9,9-8.1,13.1h0Z"/>
    <path class="st15" d="M75.3,655.5c2.3,3.2,2.8,7.3,1.4,10.9l-12.8.3c.9-1.2,1.6-1.7,1.9-2.7l3.3-11.2c2.3.2,4.6.7,6.1,2.8h0Z"/>
    <path class="st25" d="M74.4,652.1c.3,1,1.4,1.9,2.6,3-.4.6-1.1.5-1.7.3-1.5-2.1-3.8-2.6-6.1-2.8l-5.6-2.7c-2.3-1.1-5.2-1.9-8-1.2-1.4.3-2.8,1.3-4.2,2.8-1.6-1.3-2.5-2.1-4-4.1l7.5-3.1c7,.9,13.8,3.6,19.5,7.7h0Z"/>
    <path class="st19" d="M313.7,61.2c-2.1,3.1-5.5,4.4-7.9,6.9l-.5-3.1c-.9-5.7-1.2-5.8-4.8-11.2,5.4-2,10.2,2.6,13.1,7.3ZM305.6,54.3c-1.2.6-2.2,0-2.6,0-1.2.7-.5,1.7.4,2.4,1.2.9.9.1,1.5-.3.9-.6,2.6-.5.7-2.2h0Z"/>
    <path class="st18" d="M85.3,662.5l4.4,3.2c-.2,1.1-.8.8-1.1.6l-1.6-1c-3.8-1.4-7.2,1-10.4,1,1.4-3.6.9-7.7-1.4-10.9.6.1,1.3.3,1.7-.3-1.2-1.1-2.3-2-2.6-3l11,10.4h0Z"/>
    <path class="st20" d="M69.2,652.7l-3.3,11.2c-4.3,3.1-.5-4.7-4.2-12.6l2-1.4,5.6,2.7h0Z"/>
    <path class="st4" d="M199.1,84.7c-1.6-.3-2.6,1.9-3.6,2.1-2.6.6-5.4-.1-8.3-.5,1.1-4.7,4.5-6.8,7.1-9.3.2,2-.4,4.8.7,6.2,1.4,1.1,3,1.1,4.2,1.5h0Z"/>
    <path class="st6" d="M133.5,172.9l-8.5,9.7c-.4.4-.3,2.2-.8,2,0-1,.4-2.2-.9-3-.9-.6-1.1-2.2-1.1-3.5l11.3-5.2Z"/>
    <path class="st14" d="M154.1,672.8c2,0,3.9,1.1,5.9,1.6,0,.2-.9,1.1-.7,1.3.4.4,1.9.6,2.6.8l15.2,4.8c3.2,1,6.8.5,10.4.7.9.2,1.6,0,1.7-.8,1.6.3,4-.7,5.1.8-.2,0-.8.8-1.2.8l-20.6-.4c.2-.9.2-2.2-.3-1.9-10.2-1.3-18.3-6.8-27.3-8.1.7-.4,1.3-.7,1.2-1.4,2.4,1.2,5.2,1.8,7.8,1.8h0Z"/>
    <path class="st10" d="M63.6,650l-2,1.4c-1.9-1.4-4.1-1-6.9-.9l.8-1.7c2.9-.7,5.7.1,8,1.2h0Z"/>
    <path class="st14" d="M282.7,672.6l-14,4.3c-5.5,1.5-13.4,3.7-14.4,1.5l6-1.2c2.8-.6,5.4-.3,7.5-2,.7-.6,2.5-.2,3.5-.7l11.3-5.3c-.9,2.4-5.5,2.6-7,5.4,2.8-1.5,4.6-1.9,7.1-2h0Z"/>
    <path class="st6" d="M204.6,29.4l-2.4.9c-.3-.7-.3-1.6.3-1.8.9-.4,2.1-.1,2.1.9h0Z"/>
    <path class="st2" d="M99.1,672.9l-9.3-7.2-4.4-3.2c3.2-7.3,6.4-14.6,7.9-22.2.8-.5.9-2,2.5-2l3.4,34.6Z"/>
    <path class="st12" d="M153.2,312.9c-.2.8,0,1.8,0,2.9,0,.8.5,1.6,1.7,1.2-.9,3.5,1.4,7.4,2.3,7.8.7.2,1.3.1,2,0l.2,5.9c.4.3,1.3.2,1.6.2-.2,2.7,2.1,4.9,4.5,6.1,0,.2.5.2.5.5,0,.5.6,1.1,1.1,1,.1.2,0,1.7.3,1.9l2.4,1.2c.9.5.5,1.4.6,1.7.2.5,1.6,0,2,.3l1.7,2c.9,1,1.4.2,2.3-1-.8,2.7,3.7,4.5,5.9,4.3.3.5.9.9,1.4.7.8-.3,1.6-1.4,1.5-2.4-.3-2.6.4-4.5.9-6.2,3.6-12,3.5-25.2,4.3-38.3.2-3.9,1-7.8-.2-11.4-.2-.6-1.9.7-2,1.8l-2.2,27.4c-.3,3.5-.4,7-2.7,9.4-1-.2-2.5-1.6-2.1-2.3,1.5-1.4.3-3.8-.5-4.8.6-10.3,4-23,1.9-34l-4.6,28.2c-.8,4.9-2.9,9.2-2.7,14.4,0,.9-2.1,2.2-2.7,2,0-3.6-.9-8-2-6.8,2.2-7.9,3.3-16,4.6-24.3l2.5-16.8c.4-2.9,2-4.2,5-5.9,4.9-2.7,11.1-1.4,16.7-1.2,8.2.2,15.2,1,22.7,3.4-1.7,2-1.9,4.1-2.5,6.5-.4-.4-.4-1.2-.7-1.2s-1.1-.6-1.5-.7c-8.7-2.5-22-5.9-23-.1,7.1,0,13.6.7,19.8,2.3-1.3,1.6-1.9,3.7-.9,5.4h-2.1c-.5.1-.7,1.3-.7,1.8l-1.1,54.8c0,1.9,0,4.5,1.5,5.3s3.5,1,5.1-.1c2.7,2.3,6.8,2.9,10.1,3.7,4.4,1,8.7.5,13.1-1.8l23.7-12.3c11-5.7,20.9-12.1,28.9-21.7,4.6-5.5,8.1-11.1,10.1-18.2,3.9-14.1,9.9-27,15.6-40.5,4.2-10,8.6-18.5,16.8-25.5,6.5-5.5,15-5.5,20.7,1.4,3.1,3.7,4.6,8,6.1,12.7,4.8,15.3,9.6,30.3,10.5,46.6.9,16.2-.4,32-2.4,47.9-7.3,1.2-16-3.5-24.8-.7,8.4,5.2,13.8,11.1,17.8,19.1.6,1.1,1.7,2,1.4,3.6-.1.8-.9,1.8-1.9,2.3l-4.4-1h-4.3c0-.1-6.9-.6-6.9-.6-.7,0-.8,1.8,0,1.9.4,0,1.2.3,1.5.5l7.9,6.9c.8-.7,1.8-1.5,2.8-1.2-.1.3,0,1.1-.6,1-.4,0-1.4.3-1.2.6l6.3,8.4c1.1,1.5,1.1,2.6.7,3.5-.8,1.8-1.7,2.1-3.7,2-4.5-.2-8.8.4-12.7-.8-.6-.2-1.4,0-2,0,.3.6,1.1.9,1.7.6s.9-1,.5-1.6c-.4-.6-1.1-1-2.4-.4l-10.6-19.2,10.5-1.1c-9.9-3.9-20.3-2.5-30.7-.2s-19.3,6.4-28.1,13.4c-16.9,13.3-30.2,30.5-41.1,48-7,1.7-14.4,1.3-21.4,2l2.6-6.4c1.9.9,2.9-1.4,4.1-1.9,5.5-2.5,9.3-5.6,13.4-10,12.6-13.4,25.8-25.3,40.7-36.8-2-3-4.1-5.1-4.9-8.1l7-4.8c10.9-6,22.3-10.3,34.4-13.4,6.2-1.6,12-2.7,18.4-5.6-2.8-1.4-5.6-1.4-8.4-1-12,1.6-24,3.2-35.2,7.9-14.7,6.1-41.5,23.6-50.7,34.5-2.4-.8-4.2.5-6.3,1.1-15.4,3.8-29.7,9.7-43.1,18.4-5.5,3.6-10.8,6.7-14.8,12.1,16.8-5.3,32.7-9.9,49.2-13.8-7.2,8.6-13.4,18.1-17.6,28.6-1.4-.9-2.4-.1-2.4.8l-6.5.2c-25.2,2.6-50.6,3.4-75.9,2-1.9-.9-1.2-3.1-1.5-4.9-1.4-8.6-2.1-16.5-3-25l-2.8-28.2c-.2-1.6.3-2.8,1.2-3.8l6.4,31.5c11.5,1.9,24.4,4.8,35.9,1.7l26.5-22.5c4.4-3.7,7.8-7.2,11.2-12l-34.7-9.3-8.4-24.8-9.6-29.7c-7.4-22.9-11.3-55.1-10.3-80,.4-10.5-1.3-20.7,2.3-30.3-.9,22.7-.5,44,3,65.9,2.3,14.5,4.2,28.4,7.9,42.5.4,1.4.5,2.9,1.9,3.2h0ZM218.3,282.5c-.6-.5-1.8-.7-3-.4-.7.2-.8,2,0,2.5.4-1.3.6-2,2.9-2.1ZM193.4,352.5l1.2-17.1,1.6-17.4,1.1-25.1c0-.7-2-.3-1.9.3,0,.3-.5,1.1-.5,1.7l-1.8,23.4c-.5,6-1.4,11.7-2.1,17.8l-1.3,12.9c-.1,1.4-.7,3.2.3,3.9,1.1.8,3.3.7,3.3-.2h0ZM202.1,354.2l1.8-58.4c0-.6-.1-1.7-.2-2-.1-.3-.6-.4-1.6-.3-2.1,19.3-3.5,38.8-3.3,58.7,0,1.3.5,1.8.7,2.3.2.6,2.6.8,2.7-.3h0ZM159.6,434.8c3.5-.8,5.2-2.7,7.4-4.1l-.6-.6-7.3,3.7c-1.1.2-1.1,3.4,0,4.1.2-1.1,0-2.5.7-3.1h0Z"/>
    <path class="st10" d="M321.2,409.5c-2,7-3.9,13.9-3.4,22.1,6.8-2.3,13.1-3.3,19.7-2.8,4.4.8,9.9.7,13.8,4,6,5.1,5.9,10.1,8.1,10.3l1.5,19.1c-1.7.3-2.7,2-3.1,3.8l-4.3,16.2c-.5,1.9-1.7,5.1-3.1,6.3-.4.3.4,2.5.2,3-.3.6-.7,1.3-1.8,1.3.5-.9,1.2-2.8,0-3.3l.5-22.6c-.2-1.2-1.1-1.7-2-1.9-.6-.2-1.8,0-1.9,1.3l-2,25.6c-.2,2.5-4.8,3.5-6.5,3.6v-4.3s-.5-25-.5-25c-.6-.6-2.5-.8-3-.3-.7.6-1.1,1.6-1.1,2.8l-.7,20.9c0,1.9-.5,4.2-1.7,5.4s-3.7,1.1-5.2,1.4l-.6-5c.8-8.1.1-16-.6-24.9-.1-1.4-3.8-1.1-3.8.8l-.4,22.3c0,2.1.3,5.5-1.8,6.3l-8.4,3v-11.1s-.8-21.4-.8-21.4h-1.3l-.2,9.7-20.7,2c-7.4,3.2-14.9,3.2-22.8,5.8l41.2-1.8c2.3-.1,3.1,1.9,3,3.8-2.1-1-4.3,0-6.8.2l-26.5,1.2-28.9.8-19.7.4c4.5-6.5,9.6-12.9,10.6-21.9-5.3,6.5-9.1,13.4-13.2,20.1l-10.6,2.7,10.3-16.4c1.1-1.6,3.4-3.2,1.7-6l-17.6,22.5c-2.1-1.2-4.1-.9-6.4-.8l-18,.8,12.7-20.8c.5-.8.2-1.4-.3-1.6-2.1-.8-10.2,10.8-14.2,17-1.6,2.5-3.4,4.2-4.9,6.3l-8.2-1.9c4.7-7.3,10-14.5,13-23.8-6.2,5.9-10,12.9-15.5,19.6-5.1.7-10.6.6-16.3,0l7.6-15.7.4-1.8c.1-.6-.1-1.1-1.2-1-3.8.6-11.3,16.9-15,23.6-.4-.1-.9-.2-1.2-1.1h-9.8c0-.1,9.1-20.3,9.1-20.3,1.1-2.3,2.5-5,.3-7.9l-11.4,23-13.1-.6,2.4-14.7,1.5-10.2,2.1-5.3c.6-1.4,1.6-4.6,3.5-5.1l40.4.8,68.4,2.8,55.9,3.4,15.1.8c-.3-1.7,1.2-2.1,1.7-.6.7,1.8.5,4,.5,5.7h1.1c.4-2.1.3-4.1.2-6.7-1.4-.2-2.8-.4-4.1-1l3.9-21.4c1.5-8.3,4.2-16.3,10.4-21.4,1.3.2,2.6,0,3.7-.2h0Z"/>
    <path class="st12" d="M308.9,507.3c1.9.7,3.5.4,5.4.3l7.7-.2c.8,1.5,1.2,3.2,1.3,5.2l.3,16.3c3.1-.5,3.8-3.3,5.5-5.1,1.8-2,3.5-3,3.9-5.6l-3.2,60.2-.7,27.6c1-3.1,1.9-6.3,1.8-9.6,0-2.8,1.4-4.7,1.8-6.8,3.4-2.1,4.8-5.8,6.6-8.8,7.3-11.8,13.6-24.3,17.1-38.2l1.5-3.4c2.1,1.3.5,4.2.4,5.9-.3,3.2,0,6.1-2,8.6-2.9,3.7-2,7.8-2.8,12-3.5,18-12.1,33.9-22.3,48.6l-1.6,37c-.8-.1-1.7,0-1.8.9h-4.8c-1-1.4-.6-2.9,0-4.3,1.2-2.6.8-6.3.4-9.6-2.3-16.4-2.4-32.3-1-48.9,1-11.8,1.3-23,1.3-34.9v-16.3c-.2,0-.5.4-1,.5l-5.5,46.7-.6,7.8c-1.6-.1-1.8-1.3-2.3-2.6-4.4-12.1-7.5-24-8.7-36.9l-2.7-28.2c-.6-5.8-1.3-11.2-.4-17.1.9.1,1.7,0,2-.9,1.3.1,3.5-.6,4.6-.1h0Z"/>
    <path class="st2" d="M228.4,150.3l13-10.6-1-28.9c-.2-4.7,2.8-8.1,5.7-12-10.1,0-29.2-5.1-29.6-2.8l-2.8,14.5c-1.6,8.6-6.3,16.7-14.1,21.1,6.3-10.1,10.3-21.2,7.7-32.7l-5.2-13.7c4.3-.4,7.7,2.4,11.8,3.6,15.5,4.8,33.6,4.8,49.4,8.9-5.9,8-13.3,12-11.3,22.8.8,4.5,3.7,10.5,9.3,12.4,5.2,1.8,10.7,1.3,16.2.7l21.8-2.4c.7,0,1.8-1.3,2.6-.6,1,.9-1.6,11.8-5.6,12.7-13.3,3.2-26.7,5.3-40.2,5.9l-27.6,1.1h0Z"/>
    <path class="st2" d="M350.2,660c-7.5-1.5-15.3-7.7-22.5-7.8.1-1,1-1,1.8-.9l1.6-37c10.2-14.7,18.8-30.5,22.3-48.6.8-4.2-.1-8.4,2.8-12,2-2.5,1.6-5.3,2-8.6.2-1.7,1.7-4.6-.4-5.9.4-1,.5-2.1,1.5-3.5,1,5.8.2,11.8-.1,17.9l-2.1,32.7-3.7,43.6-1.6,26.6c0,1.5-.5,3.1-1.6,3.6h0Z"/>
    <path class="st2" d="M226.2,150.9c-.3.6-.9,1.1-.7,1.5.2.7,1.7.3,2.3.4,23.6.7,46.6-1.1,69.3-7.4l-3.6,15.8c-1.9,8.3-53.3,11.5-68.6,10.2.6-.8-2.2-2-2.4,0-.3-6.9-.3-12.5,1.7-19-19.6-2.6-38.8-7.3-57.3-14.2-6.8-2.6-12-6.4-17.3-11.1-2.3-2-5.8-3.2-5.6-7.6,9.8,11.1,23.2,17.7,37.7,22,12.7,3.8,25.2,6.3,38.5,7.6,2.2.2,4.7.5,6.1,1.9h0ZM291.4,153.5c-1.4-1.8-6.1,3-4.7,4.7,1.3,1.5,6.5-2.4,4.7-4.7ZM273.2,161.9c1.6-1.2,1.6-3.1.8-3.7-1.1-1-2.5-.5-3.7.3-1.1.8-1.6,2.6-1,3.6.6,1.1,2.6.7,3.9-.2h0ZM234,165c1.4-.5,2.5-1.4,2.6-2.5s-.6-2.3-1.9-2.3c-2.2,0-3.6,1.1-3.6,3.1,0,1,1.2,2.3,2.8,1.7h0ZM255.5,163.8c1.2-1.4,1.2-2.6.6-3.2-.8-.8-2.3-.5-3.2,0-1.5.7-2,1.3-2.1,2.8,0,1.1.7,2,2,1.8.7-.1,1.7-.4,2.7-1.4Z"/>
    <path class="st18" d="M288.6,171.5l1.5-2.5,7.6-2.7c.6,5.7-2.4,12.9.3,18,4.2,5.5,11.9,6.8,17.9,8.6.9,3.7-.9,7-1.5,10.5-3.6,19.8-9.1,38.5-18.5,56.1l-12.7,23.7c5.6-17.1,7.9-33.4,10.6-50.8,2.4-15.7,4-30.8.1-46.5-1.4-5.8-.3-14.7-5.3-14.5h0Z"/>
    <path class="st2" d="M356.4,503.1c1.5-.3,2.7,3.1,2.8,5l.8,16.6c-1.1,9.7-5.5,18.9-9.7,27.9l-13.6,29.2c-1.3,2.7-3.4,4.8-3.9,7.7-.4,2.1-1.8,4-1.8,6.8,0,3.3-.9,6.6-1.8,9.6l.7-27.6,3.2-60.2c.2-3.7.7-7.8-1.7-11l12.4-1.3c2.1-.2,5.2-.1,6-2.2.2-.1.9,0,.8.6l5.9-1.2h0ZM346.4,547.1c2-5,4.6-10,3.6-15.7-1.4-8-4.3-15.8-10-22.8l-2.5,29.7c-2.4,13.3-5.6,26.2-4.1,39.8,5.8-10.3,8.8-20.5,12.9-30.9Z"/>
    <path class="st7" d="M189.1,275.1l13.9.2c1.7,0,3.4.7,5.1.9,10.2,1.1,20.8,2.7,29.7,7.8,4.7,2.7,8.5,7.7,11.4,12.3-.3,1.2-3,1.3-3.5.1-1.4-1.4-3.8-4.1-7.1-4.9l1.6,20.1c.9,11.6,1,23,3.1,34.7l3.4-.9v2.8l-14.9,8.9c-1.9,1.1-4.5.7-5.8,2.4-3.3-.8-7.4-1.4-10.1-3.7,3.2-2.2,5.4-.6,9.3-1.7l3.3-.9c5-1.4,1.9-5.8,4.5-8.6v6.9c2.9,0,5.9-1.4,7.2-3.5l-2.8-40.9c-.4-5.6.5-11.9-.7-17-1.5-6.4-10-6.8-14.5-8.3-7.4-2.4-14.4-3.2-22.7-3.4-5.6-.1-11.8-1.5-16.7,1.2-3.1,1.7-4.6,3-5,5.9-.4.2-.8.3-1.3,0-.2,0-.7,0-.9-.7-2.5-.1-4.6,2.8-7.8,1.6,4.8-7.6,13.3-11.5,21.4-11.4h0ZM239.4,288c-.4-2-1.6-2.7-3.1-2.5.7,1.4,1.8,2.5,3.1,2.5ZM238.5,289.2c-.2.9.6,1.2.9,1.4s1.1.3,1.2-.4c0-.5-1.9-1.9-2-1h0Z"/>
    <path class="st1" d="M245.6,296.3c.4.4,1.2,1.7,1,2.1l-1.1,2c-.3.6,0,1.4,1.1,1.3-.7,13.4,3,27.3,1.5,41.1l-1.5,2.5-3.4.9c-2.1-11.6-2.2-23.1-3.1-34.7l-1.6-20.1c3.4.8,5.7,3.5,7.1,4.9h0Z"/>
    <path class="st2" d="M290.1,168.9l-1.5,2.5-5.2,2.4-9.2,2.2-14.2,1-33.1.4c.2-1,.7-2.4,1.5-2.5l3.7-.3c-2-1.8-4.9.7-4.8-1.4v-.8c.5-.2,1.3-.3,1.5.8l19.8-.5,18.6-1.5,21.6-3.8c.5,0,1.7-.9,2,0,.2.5-.4.9-.7,1.4h0Z"/>
    <path class="st10" d="M377.2,467.1l-.5,16.9h-13.7c0,.1,0-10.1,0-10.1,0-3.5,1.4-6.8,1-10.1l11.7.4c1.3,0,1.3,2.1,1.4,3h0Z"/>
    <path class="st1" d="M274.8,123.9l2.8-1.9,7.4-7.1,6.7-2.8c4.9-5.6,7.6-12.2,9-19.5l4.2-9.6c0,10.3-3.8,31.5-12.5,37.5-4.9,3.4-12.1,4.6-17.6,3.4h0Z"/>
    <path class="st10" d="M304.9,80.6v2.4l-4.2,9.6c-1.3,7.3-4.1,13.9-9,19.5l-6.7,2.8c-.3-1.2,0-2.3.6-3.2,3.3-4.6,3.6-10.9,5.5-16.5.7-2.1,3.1-3.8,2.6-6.1.4.2,1.5-.7,1.4-.7l1.1,1.4c1-1.5,0-2.2,0-2.8-.2-1,4.5-7.1,8.8-6.4h0Z"/>
    <path class="st6" d="M361.2,463.5c-3,10.4-1.3,22.3-5,32.6-1.2,3.3-1.6,7.3-5.7,8.2,0-.7-.6-.8-.8-.6-2.4-2.1-1-6.1-.8-8.7.3-2.1,2.7-1.9,3.6-2.6,3.4-2.5,2.2-7.4.9-10.3l4.3-16.2c.5-1.8,1.5-3.5,3.1-3.8l.4,1.3h0Z"/>
    <path class="st18" d="M364.1,463.7c.4,3.3-1,6.6-1,10.1v10.3s0,1.6,0,1.6c.1,2.5.3,4.9.4,8.3,1.7.7,3.2.4,4.8.5-1.3,2.4-5.6-.9-9.4,3-1.2,1.2-2.2,3.5-2.5,5.7l-5.9,1.2c4.2-.9,4.5-5,5.7-8.2,3.7-10.3,2-22.2,5-32.6,1.1-.6,2.2.2,2.9.3h0Z"/>
    <path class="st24" d="M347.6,411.3v2.9c-1.2-.7-2.4-1-3.3-1.4-1.5-.7-3.1-1.8-4.8-1.6-2,.3-3.6-.8-5.5-1.1s-5.3-.4-6.3,1.4c-.8,1.5-1.8,1.8-3.2,1.5-2.1-.4-3.2,7.7-4.2,14.7l4-1c2.9-.8,6.1-1.1,9.1-1l4.1.2h4.1s2.1,1,2.1,1c-2.2,2.3-6.6-.6-6.3,1.8-6.6-.5-12.9.5-19.7,2.8-.5-8.2,1.5-15.1,3.4-22.1,8.6-1.5,18.2-1.6,26.4,1.8h0Z"/>
    <path class="st23" d="M359.2,443.1c-2.2-.2-2.1-5.2-8.1-10.3-3.9-3.3-9.3-3.2-13.8-4-.3-2.4,4.1.5,6.3-1.8.3-.2,1.2-.3,1.6-.2l2.1.7c2.3.8,4,1,5.9-.7,2-1.8,1.1-3.6,0-6-.8-2-1.9-4.1-3.8-5.4l-2-1.3v-2.9c10.2,4.3,11.5,20.3,11.7,31.8h0Z"/>
    <path class="st18" d="M246.7,348.1v-2.8l1.5-2.5c.4.1.9,0,1-.4l.2-2.1c.2-2,2.6-2.1,4-2.1,8.3-7.7,14.1-18.9,19.8-28.8-5.2,15.9-11.9,30.1-26.5,38.8h0Z"/>
    <path class="st12" d="M305.8,68.1l-.9,12.5c-4.3-.7-9,5.4-8.8,6.4.1.6,1.1,1.4,0,2.8l-1.1-1.4s-1,.9-1.4.7l-2.7-1.5c1.7.3,3.7-.2,4.4-1.8l7-16.7c.6-1.5,3.7-1.5,3.1-4.2l.5,3.1h0Z"/>
    <path class="st20" d="M375.1,492.8c-1.2-.1-.7-2.8-1-3.3-1.6,0-3.4.8-5.1-.2l-6-3.6v-1.6c0,0,13.6-.1,13.6-.1l.5-16.9c1,7.8.9,18.8-2.1,25.7h0Z"/>
    <path class="st19" d="M357.1,371.1c-.1,1.6-2.2,0-2.6,1.7,2.4-.1,4.4-.4,6,.9l-2.4,5c-1-.4-1.9.5-2.8,1.2l-7.9-6.9c.3,0,1.5-1.1,2-1.4.5-.2,1.8.6,2.7.5.4,0,.8-.5.6-1.1h4.3q0,.1,0,.1Z"/>
    <path class="st6" d="M375.1,492.8c-1,2.4-4.7,1.8-6.8,1.6-1.6,0-3.1.2-4.8-.5,0-3.4-.3-5.9-.4-8.3l6,3.6c1.7,1,3.5.3,5.1.2.3.5-.3,3.2,1,3.3h0Z"/>
    <path class="st14" d="M283.4,173.9l-1.5,2.9c-.5-.2-.7.1-.9.2l-10.3,1.4c-.3-.2-.9,0-.9.4-3-.6-6.1.2-9.5-1,4.9-.4,9.4-.6,13.9-1.7l9.2-2.2h0Z"/>
    <path class="st19" d="M332.7,589.6c.5-2.9,2.7-5,3.9-7.7,1.1,0,1.6-.9,2.7-1.1-1.9,3-3.2,6.7-6.6,8.8Z"/>
    <path class="st19" d="M361.6,372.1c-.4.3-.8,1.1-1,1.6-1.6-1.2-3.5-1-6-.9.3-1.6,2.5-.2,2.6-1.7l4.4,1h0Z"/>
    <path class="st12" d="M179.9,202.5c2.8,2,6.6,3.4,10.2,3.1-.4.5,1,1.3,1.1,1.8,2,11.3,6.9,19.2,6.5,21.9,0,.5-.9.8-1.7,1.1-5.1,1.9-5.4,7.1-4.3,11.4-.5.2-1,1-1.7.8-3.6-.8-11.6,5.2-15.4,10.2-3.1,3.9-5,8.5-9.3,11.6l4.1-14.1c1.3-9.7-5.3-24.8-4.5-35.9l7.3-13.1c2.9.3,5.4-.6,7.8,1.1h0Z"/>
    <path class="st2" d="M220.8,251.5c3.4,0,7.2.6,9.2,2.9,1.2,3,1.9,6.1,1.1,9.5,3.2,5,4.8,10.1,4.8,15.5-5-2-6.1-6.6-7.7-10.8-1.4-3.5-3.5-7.4-4.5-10.9-1.9-.4-3.2,1.8-2.9,3.6l2.1,15c-.4.2-.6.5-.6.5-2.8-5.3-1.8-13.1-5.8-16.8-1.7-1.5-4.9,0-6.3.7-.3,0-.9-.1-1.1-.2-4.2-1.5-4,6.8-5.1,10.9-.9.7-.8,2.5-3.4,2.3l2.4-16.7c.3-2.4-1.5-3.4-3.3-3.6-.1-.8-.2-1.7,0-2.8,7.1,2.3,14.3.4,21.4.6h0Z"/>
    <path class="st20" d="M214.1,207.5l-1.3,16.3c-.7,8.6-1.7,16.8-.6,25.2-5.2,1.2-10.4-.4-15.4-2.1.1-.5.4-1.4-.8-1.9,2.9,1.1,5.3,2,7.8,1.7-.6-1.4-1.6-.8-2.1-.5-.4.2-1-.3-.8-1,1.3.3,2.8.2,3.1-1.1l.7-3.1,4.7-29.2c.9-5.6,1-11,3.1-16,.6,3.2.7,6.4.6,9.9-.8.3-.7.8-.4,1.1.5.5.8.8,1.4.8h0Z"/>
    <path class="st20" d="M116.9,298.4c-.2-7.7-1.1-15.8-.8-24l1.6-33.7c.4-7.8.7-15.4,1.7-23.2l.4-9.9c1.8-1.2,0-6.6,3.2-8.5l3.1,4c-3.5,11-4.2,21.6-5.1,32.6-.8,9.3-.7,18.2-1.3,27.6l-2,29.1c-.1,2.1-.7,4-.9,6h0Z"/>
    <path class="st20" d="M207.4,192l-.4,10.9-2.8,19.5c-1.1,7.7-.8,15.5-3.2,22.8-.2.7.4,1.2.8,1,.5-.2,1.6-.9,2.1.5-2.5.3-4.9-.6-7.8-1.7,2.9-1,2.6-2.9,3.1-5.2,3.3-13.5,6.1-26.8,5.4-40.6l-4.2-1c0-.2-.2-.5,0-.7.4-1.1-1-1.8-1.3-2.5-1.9-3.6-4.1-7.2-7.3-9.7-.5-1.6-.8-3,.5-4,4.9,3.6,11.1,5.7,15.2,10.7h0Z"/>
    <path class="st3" d="M180.7,172.2c1.4,0,1.6,1,2.8,1.6l19.8,10.3c1,.5,1.6,2.7,3.3,2.1-.3.4-.2.6-.3.8,2.2,1.6,1.2,3,1.1,5-4.1-5-10.3-7.1-15.2-10.7-4.2-3-9.2-4.1-14.1-5.7s-8.2.6-7.5-2.2c.2-1,.6-2.4,1.7-2.6,1.9,1.8,5.9,1.3,8.4,1.4h0Z"/>
    <path class="st6" d="M167.6,300.1l-2.7,14.3-3.9,16.4c-.3,0-1.2.1-1.6-.2l-.2-5.9,2.7-13.7,4.2-17.7c1.5-.4.7-4,2.1-2.7.7.6,1.1,1.3.8,2.5l-1.4,7h0Z"/>
    <path class="st20" d="M169.5,312.8c-1.6-2.2-.8-5.2-.4-7.9,0-1.9.3-4.2-1.5-4.8l1.4-7c.2-1.2-.1-1.9-.8-2.5-1.4-1.3-.6,2.3-2.1,2.7.3-1.1-.9-3.5.5-4.4,2-1.2,6.8-.6,9-4.1.1.6.7.6.9.7l-5.1,18.6c-.8,3-.3,6.1-1.8,8.6h0Z"/>
    <path class="st6" d="M154.9,317.1c-1.2.4-1.7-.4-1.7-1.2,0-1.1-.2-2.1,0-2.9l5.9-24.1c.3-1.2.6-1.8,1.5-2,.6-.1,1.9,1,1.6,2.1l-7.2,28.1h0Z"/>
    <path class="st13" d="M200.4,198.3c.2,2.8-5.7,5.3-10.2,7.3-3.6.3-7.5-1.2-10.2-3.1,0-.5-.9-1-.8-1.4.1-.5,1.3-.6,1.7-.6,5.3,1.7,11.3,1.3,16.2-1.2.6-.3,1.3-.2,1.7-1,.2-.4,1.1-.8,1.5-.8,0,.2,0,.6,0,.7h0Z"/>
    <path class="st14" d="M196.9,246.9c5,1.6,10.2,3.2,15.4,2.1,2-.4,7.5.3,8.5,2.5-7-.2-14.2,1.7-21.4-.6-2.4-.8-4.9-1.6-4.3-3.5.2-.6,1.2-.8,1.7-.4h0Z"/>
    <path class="st1" d="M124.2,184.6c-.2,4.6-1.2,9.2,0,13.7l-1.2.7c-3.1,1.9-1.4,7.2-3.2,8.5,0-2.4,0-4.5.5-7.3-2.5.8-.3,3.8-2.5,4.1-.4-4.6,1.1-8.9,2.4-13.3l3-9.5c1.2.8.9,2,.9,3h0Z"/>
    <path class="st2" d="M182.3,183.4l-1.2.2c-2.9-1.2-5.8-.9-9.1.6l-2.1.9c-.4.2,0,2.3-.6,2.5-1.1.5-2.9-1.5-2.5-2.9.8-3.1,6.2-5.3,10.5-6.2,2.1-.4,4.1,2,6,3.3,1.9.4.7,2.6-1,1.5h0Z"/>
    <path class="st1" d="M192.1,181.3c-1.3,1-.9,2.4-.5,4-1.6-1.2-3.4-2-5.6-2.7l-.3,1.8c-.9-.2-3.1.8-3.4-1.1,1.7,1.1,2.9-1.1,1-1.5-1.9-1.3-3.9-3.8-6-3.3.4-1.1.9-1.9.8-3,4.9,1.6,9.9,2.7,14.1,5.7h0Z"/>
    <path class="st20" d="M186.4,250.8c.5.6.4,1.2.3,2.1,1.7-.8,2.1-2,3.4-2.8l-11.4,20-1.1-.7,8.8-18.6h0Z"/>
    <path class="st18" d="M183.3,188.1c.2.6,1.1.6,1.6.8.6.8,1.2,2.1,1.6,2.9.6,1.3-1.4,2-1.4,2.7-2.3.6-4.3,0-6.1-.8,0-.9-.8-2.5-.4-4.1.4-1.5,3.4-1.6,4.7-1.5Z"/>
    <path class="st1" d="M190.1,250.1c-1.3.8-1.7,2-3.4,2.8.2-.9.2-1.5-.3-2.1,1.3-2.7,3-5.2,3.5-8.2.8.2,1.2-.6,1.7-.8.4,1.5,1.3,3.2,3.7,3.8-.7.7-1.8.5-2.7-.4l-2.5,4.9h0Z"/>
    <path class="st20" d="M151.3,279.8c-1.5-4.7-1.7-9.2-1.2-14.2,1.9,4.3,2.6,9.1,1.2,14.2Z"/>
    <path class="st2" d="M172.2,170.8c-1.1.1-1.5,1.6-1.7,2.6-3-.9-2.4,3.3-4.8,3.2-1,0,0-4.1,2.9-6.3,1.3-.9,2.5-.4,3.6.5h0Z"/>
    <path class="st20" d="M179,193.7c1.8.8,3.8,1.4,6.1.8.6,2-2.4,2.2-4.6,2-1.1.2-2.7,2.2-4.3.8-.2-.2-.8-.3-.8-.8,1.5-.6,1.7-2.8,3.6-2.8Z"/>
    <path class="st20" d="M185.7,184.5c.9,1.1,0,3.2-.8,4.4-.4-.1-1.4-.1-1.6-.8,1.3-.6,0-2.2-1.3-1-.9-1.1.3-2.2.2-2.3l-1.2-1.2,1.2-.2c.3,1.9,2.5.8,3.4,1.1h0Z"/>
    <path class="st12" d="M90.8,398.8c.5,7.8,1.6,15.5.8,23.8,0,.3-1.3,0-1.5-.8,0-.4-.4-.6.2-1.5l-8.1-2.5c-5.8-1.8-11.3-2.4-17.2-1.2-1.3.3-2.5.8-3.8,1.3-2.8,1.2-5.1,3.3-7.4,5.5-.7-4.6.9-8.8,2-13.7,1.7-7.5,6.2-15,14.4-16.9,5-1.1,10.1,2.3,14.4,3.9l6.2,2.1h0Z"/>
    <path class="st2" d="M95.2,278.9c-2.3,34.2-2,68.5,1.7,102.5.2,2.1-.3,4.8-.6,7l-2.5-11.2c-1,1.5-.5,2.8-.9,3.8-1.2-5.2-1.6-10.7-3.9-11.5-.3-4.4-3-8.5-5.1-12.8-3.3-6.8-7.9-7.9-11-11.4,5.5.1,10.3,2,15.2,5.9-.7-4.2-.2-7.1-.2-10.1,0-6.8.1-13.4.8-20.5l4.2-41.6c1,.2,1.6.4,2.3,0h0ZM95.3,380.6c0,0,.3-.2.5-.5,0-1.2.4-2.6-.3-3.9,0,0-.3.2-.5.5,0,1.3-.3,2.6.3,3.9Z"/>
    <path class="st12" d="M88.2,459.3c.7,2.3,3.1,4.3,2.5,7l-2.7,8.2c-3.1,9.6-3.8,18.9-4.5,20-1.1,1.8-3.8-.7-5.7,2.5-.6-1.5-.7-3.2-.8-5-.6-.2-1.4-.1-1.6,0,.3-.7,1.5-1.7,1.5-2.5.6-8.7,5.1-14.9,2.9-20l-3.7-8.4c-2.1-4.7,3.3-3.1,12.2-1.8h0Z"/>
    <path class="st20" d="M95.8,447.4c.2.4.4,1.1,1.4,2-3.6,4.6-3.1,10.1-4,14.9-.8.7-.9,2.4-2.6,2,.6-2.7-1.7-4.8-2.5-7l-4-12.2c-1.8-5.4-1.6-11-.3-16.1,4,2.3,7.2,5.8,9.3,10.4,0,0,2.7,5.9,2.7,5.9Z"/>
    <path class="st2" d="M79.7,469.5c2.2,5.1-2.3,11.3-2.9,20,0,.8-1.3,1.8-1.5,2.5-1.4,3.8-.7,8.3-.9,12.9-.3,1.3-3.9,1.6-5.2,1.1-1.3-.5-2.5-2.7-2.9-4.3l-2.8-9.8c-1.8,3.9-1.5,7.4-.5,10.8-1.2.9-4.5,2.5-6.2,1.1-3.2-2.5-4.1-6.2-4.6-9.4,1.7-1.6,3.6,0,4.9.6,2.7.2,2-3.4,2-4.7.1-8.5,2.6-23.1,6.4-22.4.7.1,2.1.4,1.9,1.7l-3.5,20.4c-.2,1.4,1.8,3.5,1.6,4.7.7.7,3.9,1,4.5,0,2.8-4.1,3.3-16.5,7.2-25.5.7-.2,1.7-.1,2.6.1h0Z"/>
    <path class="st12" d="M95.2,278.9c-.7.4-1.3.1-2.3,0l1.1-16.5c1.3-19,1.6-38,4-56.8.5-3.9,1.8-8,5.6-9.1-3.5,11.3-3.7,23.2-5.6,35.5-2.4,15.8-1.7,31.5-2.8,47.1Z"/>
    <path class="st15" d="M95.8,447.4l-2.7-5.9c-2.1-4.6-5.3-8.1-9.3-10.4-4.2-2.4-8.8-3.7-13.6-4.7,3.1.2,4.2-1.8,6.2-3.4,5.4-4.2,13.4-.9,15.3,5.5l4.9,17.2c.2.9,0,1.7-.9,1.7Z"/>
    <path class="st12" d="M87.8,341c0,2.9-.5,5.9.2,10.1-4.9-3.9-9.8-5.8-15.2-5.9l-13.4-4.6c6.1-8.8,18-3.2,27.6,1.2.3-.5.7-.8.8-.8h0Z"/>
    <path class="st19" d="M43.7,492.8c-.2,1.1-1.4.7-1.5-.4-.8,2.4,0,3.2.5,4.4-2.5-1.4-3.6-4-5.7-6.2,1.4-.1,2.3-1.2,2.6-3.1,2,1.6,1.7,4.3,4.1,5.3Z"/>
    <path class="st6" d="M212.2,160.2c.7,2.6-2,3.5-3.5,3.2-1.8-.3-3.1-2.6-2-4.9.9-1.7,4.8-.8,5.6,1.7h0Z"/>
    <path class="st6" d="M190.9,158.3c-1.3.9-2.9-.4-3.7-1.4-.7-.9-1.6-2.6,0-3.8,1.2-.9,2.9.3,3.6,1,.9.9,2.1,2.8.2,4.2h0Z"/>
    <path class="st2" d="M155.2,142.4c-1.1,1.4-3-.2-3.4-1.4-.6-1.5-1.2-3,.1-4.2,2.4.6,5.1,3.2,3.3,5.6Z"/>
    <path class="st6" d="M171.7,151.6c-.8.9-2.7.1-3.5-.6s-1.7-2.4-.7-4.1c.5-.8,2.6,0,3.3.6,1,.8,2.1,2.7.9,4.1h0Z"/>
    <path class="st2" d="M158.8,43.6l.6,9.5c1.9,4.7,9.8,5.5,12.9,10.3-10.7,11.8-3.6,35.4,6.6,46.3,4.6,3.5,11.9,2.2,16.9,2.8.2-1.5.5-1.9,1.3-2-2.5,6.8-9.7,9.7-17.3,9.7s-15.9-1.5-19.5-8.8c-6.4-12.9-6.5-28.3-3.2-42,.8-3.4,2.6-6.8,6.2-8.5-.7-2.5-4-4-6.5-5.8l-1.9-6.8c-1-3.7-1-7.3,2.7-9.4-1.4,3.7-.8,8,.6,11.5,0,0,.7-6.7.7-6.7Z"/>
    <path class="st1" d="M165.4,33.6c-3.1,2.9-6.2,6-6.6,10.1l-.7,6.7c-1.3-3.6-2-7.9-.6-11.5-3.7,2.1-3.7,5.7-2.7,9.4l1.9,6.8-7.1-5.1c-1.4-1-2-3-3.6-3.6.5-2.9,1-5,3.4-7.2,4.5-4.2,9.9-6.2,15.9-5.7h0Z"/>
    <path class="st10" d="M156.5,512.6c-1.1,2.4-1.5,5.3-1.7,8.4l-1.6,26.6-1.8,81.1c-.6.3-1.1.8-1.3,1.1-.2.3.1,1.2,1.2,1.2l2.7,41.7c-2.7,0-5.4-.7-7.8-1.8l-1.3-13.7c-.3-3.4.2-6.7-3.1-9.2.4-1,1.2-1.8,3.1-2.1v-38.1l1.5-75.4c.3-.5,1-.8,1.2-1,.6-.3.1-1.2,0-1.5.2-4.3,1.2-11.5,3.8-15.6.9-1.5,3.5-1.8,4.9-1.7h0Z"/>
    <path class="st13" d="M141.9,648c3.3,2.5,2.8,5.9,3.1,9.2l-15.6-18c6.1,1.1,8.8,5.9,12.5,8.8h0Z"/>
    <path class="st14" d="M151.6,514.3c-2.6,4.1-3.6,11.2-3.8,15.6-.1.4-.6,1.6-1,1.5-.6-.2-1-1-1-1.6l-.2-17.4c2,.2,4.8-.6,6,1.9h0Z"/>
    <path class="st2" d="M94.9,533.9c-.2,0-.8,0-1.1,0-.4.1-4.8,12.7-12.6,20.4-1.8,1.8-4,3-4.9,5.1h-6.6c1.8-3,5.4-6.3,5.7-10,.8-8.9-2.6-17-3.8-26.2,7.9-1,12.8-7.7,15.6-15l1.8-.2c1.8-.2,4.7,1.1,6.4-.8l-.7,26.7Z"/>
    <path class="st2" d="M94.2,594.8l-10.1,9.6c-.8.8-1.4,1.6-1.3,2.6-.7,0-1.8.6-2.4.8l-13.9-10c4.4-3.7,8.9-6,11.8-10.4-2.4-.5-3.9-1.3-3.9-3.3,6.2.3,12-1.6,16.7-6.1l3.3-2.2v19c-.1,0-.1,0-.1,0Z"/>
    <path class="st12" d="M76.2,559.4c.6-.1.9,0,1.5,0l9.9.3c-2,8.5-6.2,15.9-12.3,21.5-2.2.4-4.6,1.2-7.1.9-1.2-.9-1.8-1.6-3.3-3.2.2-6.7,1.4-13.9,4.8-19.6h6.6c0,0,0,0,0,0Z"/>
    <path class="st25" d="M94.3,575.8l-3.3,2.2c-4.8,4.5-10.5,6.4-16.7,6.1-2.2,0-4.2-.5-6.1-1.9,2.6.3,4.9-.5,7.1-.9,8.9-1.8,15.6-8.3,18.7-16.5,1,3.5.3,7.5.3,11.1h0Z"/>
    <path class="st14" d="M90.6,492.9c-1.8,3.5-1.9,10-1.6,15.1l-1.8.2-2.6.2c.2-.7-.4-1.2-.9-1.2,2.6-.8,2.4-7.2,4-15.3.9.3,1.4,1.4,2.8,1h0Z"/>
    <path class="st14" d="M95.6,626.5v6.5c0,0-2.6,1.5-2.6,1.5l-6.7,2.9c-1.2.5-2.4,1.5-3.6.7,1.6-.7,2.8-1.9,4.2-2.9,5.3-3.6,6.4-9.4,8.8-8.9h0Z"/>
    <path class="st12" d="M97.8,508.4c1.2.3,2.7,1.2,4,1.5,1.4,1.2.3,2.4.3,3.8l.2,40.5c0,14.5.7,28.5,1.2,43.1l1.5,29.8.4,14.7,1.9,34.4c-2.8-.6-5.8-1.5-8.1-3.3l-3.4-34.6c-1.6,0-1.7,1.5-2.5,2,.2-.9,0-1.7.8-2.8.7-1.2,0-2.6-1-2.9l2.7-1.5v-6.5c0,0-.7-2.6-.7-2.6l-.4-24c-1,.3-1.5,1.2-1.8,1.5-.3.3-1-.6-1.3-.7,1.6-1.9,2.6-3.4,2.6-5.9v-19c.1-3.5.8-7.6-.2-11.1-.4-1.5,0-2.3,0-4.3l.3-15.6.5-11,.7-26.6c-.7,0-.7-.5-.8-.6-.1-.5.4-1.1.6-.9l1.3,1c-.6,1.2.1,1.8,1.1,1.7h0Z"/>
    <path class="st6" d="M106.1,404.9c.2,4.2-1.1,8.9.8,13.5,1.2-.9,2.1-1.6,3.1-1.7,1.2-.2,2,.5,2.3,1.5.3,1.2,0,2.4-1.2,3h-2.1c-.6,0-1.4-.7-1.7-2.3-.8,1.7-.4,3.6-.6,5.4-.2,2.5-1.2,3.9-3.4,5.6-1.4-1-1.1-2.4-1.7-3.9.9,0,1.4-1.3,1.1-2.5-1.5-5.2-.4-16-.2-24.1l.5-27.3c.1-6.5-.8-12.3-1-19.3,3.7,6.6,2.9,13.7,3.1,20.9l.5,22.5.5,8.8h0Z"/>
    <path class="st12" d="M118.1,416.5c-4.5,1.4-5.3,3.1-5.8,1.6-.3-1-1.2-1.7-2.3-1.5-.9.2-1.9.8-3.1,1.7-1.9-4.6-.6-9.3-.8-13.5.8-.4,1.4-.2,2-.2-.3,1.6-.6,3.6.2,4.9,2.6.2,4.4.4,5.1-1.4.4-1,0-2.8-.3-3.8,1.1-3.7,2.1-9.1,1.9-13.5,3.6,0,1.2,8,3,19.8v6h0Z"/>
    <path class="st20" d="M96.9,381.4c.1,0,.6.2.6.9l.8,13.8c0,1.3.5,3,1.4,3.4,1,.4,2.2,0,2.8,0-.1,8.1-1.2,18.9.2,24.1.3,1.1-.2,2.4-1.1,2.5-1.8-5.2-1-10.9-2.3-16.3l-6.6-28.7c.4-1,0-2.3.9-3.8l2.5,11.2c.3-2.1.8-4.8.6-7h0Z"/>
    <path class="st6" d="M113.8,195c.8.7.3,5.5-1.7,6.1-.9.3-2.4-.5-2.9-2-.8-2.1.3-4.6,1.5-6,1.4.9,2.2,1.2,3.1,1.9h0Z"/>
    <path class="st2" d="M113.1,404.3c.2,1,.7,2.8.3,3.8-.8,1.8-2.6,1.6-5.1,1.4-.7-1.2-.5-3.2-.2-4.9l5-.4Z"/>
    <path class="st6" d="M110.7,214c-.8,1.9-3.1.4-3.8-.9-.8-1.5-.7-3.6,1.1-4.2,1.3-.4,2.2.3,2.5.9.4.8.9,2.7.2,4.3h0Z"/>
    <path class="st2" d="M107.3,229.4c-2.6-1.8-4.8-4.4-2.6-6.3,1.3-1.1,3.5.5,3.7,2,.2,1.4.1,3.6-1.1,4.3h0Z"/>
    <path class="st6" d="M107.9,391.3c1.4-.5,3,.2,3.5.8.9.9.8,2.9-.2,3.5-1.3.9-3.2.5-3.9-.5-.6-.8-.5-3.4.5-3.8h0Z"/>
    <path class="st6" d="M104.8,318.5c-.4,1.3-2.3,2-3.1,1.5-1.3-.8-2.6-3.1-1.3-5,1-1.5,5.1,1.2,4.4,3.4h0Z"/>
    <path class="st1" d="M104.1,281.9c.3,1,1,2.1.7,2.6-.3.6-1.2,1.4-1.8,1.4-1.3,0-1.7-.6-2.2-2-.4-1.2-.5-2.8.2-3.2,1.1-.6,2.5-.6,3,1.1Z"/>
    <path class="st6" d="M106.7,243.4c-.9,1.4-2.6.2-3.2-.4-1-1-1.3-4,.3-4.6,1.8-.6,3.7,3.4,2.9,5h0Z"/>
    <path class="st1" d="M104.5,335.3c-.4.8-2.3.3-3-.3-.6-.6-1.3-1.6-.9-3.1.3-1.3,1.9-1.2,3-.6s2.2,1.9.9,4h0Z"/>
    <path class="st6" d="M104.2,302.3c-.8,1-2.6.7-3.2,0s-1.3-2.4-.7-4.2c.5-1.3,2.3-.6,3,.2.9,1,2.1,2.7,1,4Z"/>
    <path class="st6" d="M101.1,264.6c1.1-1.5,3.2-.7,3.6.5.2.8,1.1,2,0,3.1-.8.9-2,.7-2.7.3-1.1-.6-2.1-2.2-.9-3.8h0Z"/>
    <path class="st2" d="M106.4,350.4c-.7,1.6-3,.9-3.7-.1-.5-.8-1.6-1.9-1.1-3.2,2,0,5.1,2,4.8,3.3Z"/>
    <path class="st6" d="M111.1,381.7c-.3.9-2.6.9-3.3.2-.8-.8-1.3-2.4-.7-4.1.5-1.5,2.2-.4,3,0,1.2.6,1.7,1.8,1,3.9ZM108.1,378.5c-.7,1-.3,2.5.1,2.8s1.8.1,2.1-.3,0-1.6-.3-2.2c-.2-.4-1.2-1.6-2-.4h0Z"/>
    <path class="st1" d="M103,251.4c1-.5,2,.6,2.2,1.2.2.7.3,2.6-.4,2.8-1.2.5-2.1-.1-2.6-.8-.7-.9-.7-2.5.8-3.3ZM102.9,252.3c-.5.6-.4,1.9.2,2.4.4.3,1.3,0,1.3-.4v-1.7c0-.4-.9-.9-1.5-.2h0Z"/>
    <path class="st6" d="M106.4,363c.4-.8,2.7-.7,3,0,.5,1,1.3,2.1.6,3-.7.8-1.8,1.2-2.6.8-1.1-.5-2-1.8-1-3.8h0ZM108.7,366.1c1.3-.2.9-1.4.5-1.8-.3-.3-1-1.4-1.7-.8-.6.5.7,2.6,1.2,2.6h0Z"/>
    <path class="st12" d="M289.6,557c-.3,12-2.1,23.7-4.1,36-1.3,8.1-3,15.3-7.2,22.2s-8.9,13.5-15.3,18.1c-.2,0-.7,0-1,0l-8.4,6.3-12,6.8c-1.5-3.6-1.4-7.3-1.6-11.5-1.7-33.7.2-67.1,3.7-101.3,9.9,5.2,18.2,10.8,26.9,16.7,7.7-5,13.7-11.3,19.5-17.8l-.6,24.6h0Z"/>
    <path class="st12" d="M221.6,513.7c.7,2.5.4,5.3.2,8.3l-4.7,53.8-.9,20.4c-.9,22.4.4,44.4,3,67.4,3.6-.6,6.3-1.7,9.6-1.5l-11.4,3.7c-3.8,1.1-8.6,2.5-10.5,5.8l.2,2c2.1-.3,3.8-.4,5.1.3-5.1,1.4-9.9.7-14.6-1.3.4-.4.9-.9.9-1.2v-1.4c-4.5-16.1-6.5-31.8-6.9-48.7-.7-26-1-51.2,1.5-76.9,1.1-11,2.5-21.4,6.6-30.9l22.1.3h0Z"/>
    <path class="st12" d="M176.2,513.4c-1.2,5.7.2,11.6,0,17.9l-.9,53.1-.6,72.7c0,8.3,1.6,15.3-2.4,17.9-.3.2-.6.9.4,1.1-.2.6,0,1.1.1,1.8l-12.9-3.6c-1.9-.5-3.9-1.5-5.9-1.6l-2.7-41.7c-1.1,0-1.4-.9-1.2-1.2.2-.3.7-.8,1.3-1.1l1.8-81.1,1.6-26.6c.2-3.2.6-6,1.7-8.4l19.7.8h0Z"/>
    <path class="st10" d="M290.2,532.4c-5.8,6.5-11.8,12.8-19.5,17.8-8.8-5.9-17-11.5-26.9-16.7-3.5,34.2-5.4,67.6-3.7,101.3.2,4.2,0,7.9,1.6,11.5-1.7,1-2.7,4-5.6,3.8l-2.8-24.7c-2.1-29.2-1.6-57.9,0-87.2l2.9-17.3c2.8-2.2,5.2-10.4,9.9-10.7l40.1-1.9c2.2-.1,3.7,1.1,3.8,3.2l.4,20.8h0Z"/>
    <path class="st2" d="M236,520.9l-2.9,17.3c-1.6,29.3-2.1,58,0,87.2l2.8,24.7c2.9.1,3.9-2.9,5.6-3.8l12-6.8,8.4-6.3c-1.3,2.5-3.9,4.1-6.1,6l-11.7,10.3c-1.1,1-.8,2.9,0,3.2.6.2,2.7-.2,3.6.8,1-1.4,2-4.1,5.3-3.5-2.8,2.7-5.3,7-9.3,8.6-4.7,1.8-10.4,3.7-14.9,3.5-3.2-.2-5.9.9-9.6,1.5-2.5-23-3.9-45-3-67.4l.9-20.4,4.7-53.8c.3-3,.5-5.8-.2-8.3,4,0,8-.2,12.5,1.2.7,1.7,2.2,4.4,1.9,6h0Z"/>
    <path class="st10" d="M199.5,513.4c-4.1,9.5-5.5,20-6.6,30.9-2.5,25.7-2.2,51-1.5,76.9.5,16.9,2.4,32.6,6.9,48.7v1.4c0,.3-.5.8-.8,1.2-2.2-.9-4.8-.7-6-4.1-.8-2.4-1.9-5.3-2-7.8l-2.9-42.1c-.7-28.5-.2-56.3,1.2-84.7l1.7-17.5c1.6-2.6,7-3.2,10-3.1h0Z"/>
    <path class="st6" d="M304.4,507.5c-.2.8-1,1-2,.9-.9,5.8-.1,11.2.4,17.1l2.7,28.2c1.2,12.9,4.3,24.8,8.7,36.9.5,1.3.7,2.5,2.3,2.6l-1,12.8c-2.2-.7-2.3-2.3-3.1-4.2l-9.8-21.8c-.3-.8-.7-1.3-1-1-.2.2-.2.6-1.1.5l.4-4.4-4.1-66.2c2.2-1.4,5.1-1.5,7.6-1.3h0Z"/>
    <path class="st1" d="M113,511.6c.7.5,1.2,1.8,1.6,2.6l-1.5,2.5-7.7-1,.6,40.6.5,41,.8,24.9c-.9-.2-1.6.3-1.6.7v1.7l-.7,2.5-1.5-29.8c-.5-14.6-1.1-28.7-1.2-43.1l-.2-40.5c0-1.4,1.1-2.6-.3-3.8l4.3.9c2.4.5,5-.5,6.9.8h0Z"/>
    <path class="st13" d="M118.4,457.7l-1.5,10.2-2.4,14.7v2.3c-1.2.6-.7,2.1-.8,2.9l-1.2,8.5c-.5,3.4-.8,7.8,1,10.3-.1,1.3-1.2,3.2-.6,4.9-1.9-1.3-4.5-.3-6.9-.8l-4.3-.9c-1.3-.3-2.8-1.1-4-1.5.3-.5.3-1,0-1.5l8.2-.4c2.4-3,1.8-6,1.9-9,.4-13.4,3.2-27,6.5-40,1.6-1,2.6-1,4.1.1h0Z"/>
    <path class="st2" d="M323.8,491.1c-2.5,2.4-1.9,9.3-6.5,15h-1.7c-.6.2-1.5.5-1.2,1.5-1.9,0-3.4.4-5.4-.3.2-1.6-.5-3.4,0-4.9.4-1.1-.5-1.2-.7-1.6-.5-.7.3-1.7.7-2.1l8.4-3c2-.8,1.7-4.2,1.8-6.3l.4-22.3c0-1.9,3.7-2.2,3.8-.8.8,8.8,1.4,16.8.6,24.9h0Z"/>
    <path class="st12" d="M140.6,489.4l-5.2,9.5c-1.4,2.7-1.9,4.7-5.6,6,.1.3-2,.2-.3,1.8-1.1.9-2.3,1.5-3.7,1.5-1.7-1.5-4.3-.7-7.6-.9l11.4-19.2h9.8c.2,1,.7,1.1,1.2,1.2h0Z"/>
    <path class="st9" d="M262.9,633.3c6.4-4.6,11-11.2,15.3-18.1s5.9-14.1,7.2-22.2c2-12.2,3.8-24,4.1-36,.8-.3-.1-2.5,2.2-2.4l-1.5,26.4-4.6,22.9c-2.8,13.6-11.7,24.2-22.7,31.7v-2.3h0Z"/>
    <path class="st20" d="M114.9,506.6h-1.4c-1.8-2.6-1.5-6.9-1-10.3l1.2-8.5,11.1-.3c-.4-.9-1-1-1-1.6.6.1,1.3,0,1.8.6.8,1-.3,1.4-.6,1.9l-8.2,16.5c-1.6-.3-2,1.1-1.8,1.7Z"/>
    <path class="st25" d="M116.3,540.7c-2,2.9.7,7.1-2,7.9-.7.2-1.1.9-2.3-.2.3-.6.8-1.8.8-2.8l.2-28.9,1.5-2.5c.3,0,1.8,0,1.7.5s-.5,1.4.7,2.2c.3-1.5-.2-3.2.9-4.7l-.8,12.3-.7,16.2h0Z"/>
    <path class="st13" d="M220.9,673.8c-.5-1.2-3.4-2-4.8-2l-6.6-1.2c3.6-1.9,6.9-2,9.9-2.8,4.9-1.2,10.1-1.8,15.6-1.7-3,4.2-7.4,5-10.8,7.3-1.5,1-1.8,1-3.3.4h0Z"/>
    <path class="st2" d="M305,500.4c-.2.9-.8,1.7-.9,2.7-4.7,2.5-11.1,2.6-16.8,2-1.2-1.4.6-4.2,1.9-4.9,5.2-.6,10.7-1.1,15.8.1h0Z"/>
    <path class="st14" d="M217.3,665.7c0,1.1.9,2.1,2.2,2-3.1.8-6.3.9-9.9,2.8l6.6,1.2-9.4-.2c2-3.4,6.8-4.8,10.5-5.8Z"/>
    <path class="st12" d="M216.2,671.8c1.4,0,4.2.8,4.8,2-1-.4-2.9.7-3.9.6-1.6-.2-3.5.3-4.9-.5-1.3-.7-3-.7-5.1-.3l-.2-2,9.4.2h0Z"/>
    <path class="st7" d="M236.6,519.3c-.5-.7-1.1-2.6.8-3.8.5,1.1.1,1.8-.8,3.8Z"/>
    <path class="st2" d="M167.4,488.5c-3.4,5.3-8.6,9.9-13.1,14.8-1,.6-2.4-.8-1.7-1.8l7.5-10.5c.6-.8,2-2.6,1.4-3.8-4.5-1-9.5-.9-14.1-.4-1.9.2-1.8,1.8-2.2,2.5l-6.8,10.9c-1.2,1.9-3,3-2.9,4.9l30.1-.2c1.2-3.5,4.1-6.2,6.4-9.5l3.6-5c1.5-2.1,3.3-3.8,4.9-6.3,3.9-6.2,12.1-17.7,14.2-17,.5.2.8.8.3,1.6l-12.7,20.8c-2.6.1-6.1,10.1-16.2,14.7l28.5.4c2.9-2.2,4.6-4.8,6.6-7.6l5.4-7.6,17.6-22.5c1.7,2.8-.6,4.4-1.7,6l-10.3,16.4c-2.5.6-4.1,4-5.8,6.1l-7.2,9.3,18.4-1.3,46-1.1,19-.6c-1.6,1-2.2,3-3.7,4.7-42.9,2.1-85.2,2.9-128.2,2.4l-17.3-.6c.6-1.5.1-2.6-1.1-2.8-.8,0-1.7.4-2.8,1.2-1.7-1.5.4-1.5.3-1.8,3.6-1.3,4.1-3.4,5.6-6l5.2-9.5c3.6-6.7,11.2-23.1,15-23.6,1.1-.2,1.3.4,1.2,1l-.4,1.8-7.6,15.7c5.7.6,11.2.8,16.3,0,5.5-6.7,9.3-13.7,15.5-19.6-3,9.4-8.3,16.5-13,23.8h0Z"/>
    <path class="st25" d="M308.9,487.6v11.1c-.3.4-1.2,1.4-.7,2.1.3.4,1.1.5.7,1.6-.2-.3-1-1.5-1.3-1.1-.4.5-1,2.1-1,2.8,1,1,.3,2-.6,1.9,0-1.8-1.4-2.4-2-2.8.1-1,.7-1.8.9-2.7l2.4-13.4c.6-.1,1.1.2,1.5.6h0Z"/>
    <path class="st2" d="M129.6,488.2l-11.4,19.2c3.3.1,5.9-.6,7.6.9-2,0-5.6.6-7.6-.3-.2-.5,0-2.4-1.4-2.3-.6,0-1.3.4-1.9,1-.1-.7.3-2,1.8-1.7l8.2-16.5c.3-.6,1.4-.9.6-1.9-.5-.6-1.3-.4-1.8-.6-3-.7-6-1.8-9.2-1.1v-2.3s13.1.6,13.1.6l11.4-23c2.2,2.9.7,5.5-.3,7.9l-9.1,20.2h0Z"/>
    <path class="st13" d="M322.9,647.8c-3.8-.7-5-4.3-5.7-7.9-2-9.8-2.6-19.3-2-29l.3-5.1,1-12.8.6-7.8,5.5-46.7c.5,0,.8-.4.9-.5v16.3c.1,11.9-.2,23.2-1.2,34.9-1.4,16.6-1.3,32.5,1,48.9.5,3.3.9,7-.4,9.6h0Z"/>
    <path class="st2" d="M322.9,647.8c-.7,1.4-1,2.9,0,4.2-3.2,0-6.5.9-9.7,2.4l-30.6,14.7-11.3,5.3c-1,.5-2.8.1-3.5.7,0-.7.4-1.4.8-1.5l1.9-.4,6.7-8.4,7.5-12.6c6.5-7.5,14.8-13.2,23.4-18.5l6.2-18.7c.4-1.1-1.1-3.8.9-4.2-.6,9.7,0,19.2,2,29,.7,3.6,1.9,7.1,5.7,7.9h0Z"/>
    <path class="st2" d="M94,564.7c-3.1,8.2-9.8,14.8-18.7,16.5,6.1-5.6,10.3-13,12.3-21.5l-9.9-.3c8-3.7,10.7-9.2,16.6-14.5l-.3,15.6c0,2-.5,2.8,0,4.3h0Z"/>
    <path class="st6" d="M95.6,626.5c-2.4-.5-3.4,5.3-8.8,8.9-1.1-.5-1.8,0-2.9.3,4.4-7,6.1-14.3,6.5-22.4l.6-10.9c0-.7.2-1.2.6-1.7.3.1,1,1,1.3.7.3-.3.8-1.2,1.8-1.5l.4,24,.6,2.6h0Z"/>
    <path class="st25" d="M94.9,533.9l-.5,11c-5.9,5.4-8.6,10.9-16.6,14.5-.6,0-.8,0-1.5,0,.9-2.1,3.1-3.3,4.9-5.1,7.8-7.7,12.2-20.2,12.6-20.4.3,0,.9,0,1.1,0h0Z"/>
    <path class="st18" d="M92.1,492.2c.2,0,.3.2,0,.4-.5,4.9.3,9.7,2.6,14,0,.2,0,.7.8.6-1.8,1.8-4.6.6-6.4.8-.4-5.1-.3-11.7,1.6-15.1-.2-2.2-1.2-4.6-.6-7h1.4c.3,2-1,4.4.7,6.3h0Z"/>
    <path class="st3" d="M91.6,600.7c-.4.5-.6,1.1-.6,1.7-2.6.8-4.1,4.7-8.2,4.5,0-1,.5-1.8,1.3-2.6l10.1-9.6c0,2.5-1,4-2.6,5.9Z"/>
    <path class="st25" d="M363.3,638.6c.6-.6,1.3-.2,1.5.2.4.9-1.2,2.1-1.3,2-.6-.2-.7-1.8-.2-2.3h0Z"/>
    <path class="st10" d="M113.1,516.6l-.2,28.9c0,1-.5,2.2-.8,2.8-.3.2-.2.4,0,.5-2.5,3.4-4.7,7.8-6.2,7.3l-.6-40.6,7.7,1h0Z"/>
    <path class="st1" d="M325.3,656c1,2,.5,3.4.2,5.5l-.4,3.6c-.4,0-.8-.4-.6-.6.7-.7,0-1.5-.5-1.3-.3,0-.7.5-1,1,0-1-.3-1.5-.7-1.8-.3-.2-.7-.3-1.1-.4-.4-1.8-1-3.9-2.9-5,2.3-1.2,4.6-.5,6.9-.9h0Z"/>
    <path class="st3" d="M223.4,177.3c0,.4,0,.8.1,1.1l-7.6-.4-15.7-3.6-5.8-2c-.3-1,1.2-1.6,1.4-.3l27.6,5.2h0Z"/>
    <path class="st19" d="M274.1,176.1c-4.5,1.1-9,1.3-13.9,1.7,3.4,1.2,6.5.4,9.5,1-3.8.9-8,.4-12,.4,0-.1,0-.4-.2-.8h-22.1c-.7-.1-1,.5-.8.8h-7s-3.3-1.7-3.3-1.7h2.6s33-.4,33-.4l14.2-1h0Z"/>
    <path class="st18" d="M172.9,678c2.2.6,4,1.2,6.9,1.7l9.4,1.6c-.1.9-.8,1-1.7.8-3.6-.2-7.2.3-10.4-.7l-15.2-4.8c-.7-.2-2.1-.4-2.6-.8-.3-.2.7-1.2.7-1.3l12.9,3.6Z"/>
    <path class="st2" d="M189.4,516.5l-1.7,17.5c-1.4,28.4-1.9,56.2-1.2,84.7l2.9,42.1c-3.7,2.4-5.8,6.9-9.4,9.6l-7.3,5.8c-.9-.1-.6-.9-.4-1.1,4-2.6,2.3-9.7,2.4-17.9l.6-72.7.9-53.1c.1-6.3-1.2-12.2,0-17.9,4.5.2,9.1,1.1,13.2,3.1h0Z"/>
    <path class="st20" d="M325.2,665.1l-1.4,5c-.2.6,0,1.3-.5,1.7-.3.3-.6.7-1.3.5,1.3-1.5.6-3.7.2-5.7l-.9-4.7c.5,0,.9.2,1.1.4.4.3.6.8.7,1.8.4-.5.7-.9,1-1,.5-.1,1.2.6.5,1.3-.2.2.2.7.6.6h0Z"/>
    <path class="st4" d="M305.6,54.3c1.9,1.7.2,1.6-.7,2.2-.6.4-.2,1.2-1.5.3-.9-.7-1.6-1.8-.4-2.4.4,0,1.4.6,2.6,0h0Z"/>
    <path class="st6" d="M232.9,344.6l-.4-17.2c-.2-10.1-1.5-20.2-2.8-30.8l.2-1.8c0-.5-1.1-.6-1.6-.4-.9.4-.3,1.5-.3,2.2l1.3,28.3v27.2c-.6.2-.9.6-.9,1l-3.3.9c-.4-.8-.7-1.4-.8-2.6l-.5-22.4c-.1-4.8.1-9.4-1.6-13.6-.2,1-.5,1.7-1.4,1.6l-.2-7.3-1.1-14.5c-2.4,5.6-.6,11.3-.4,16.6l.9,20.7c.2,4.9.2,9.5,1.2,13.9l.9,4c.3,1.3-.3,2.7-1.5,2.8-.8,0-1.5-.5-3.2-1.4.6-8.3-.8-16.2-2.2-24.6l-.9-25c-.1-3,.2-6-1.2-8.5-1-1.7-.4-3.8.9-5.4,1.6.4,3.4,0,5.4-.2.6-2.4.8-4.5,2.5-6.5,4.5,1.5,13.1,1.9,14.5,8.3,1.2,5.1.3,11.5.7,17l2.8,40.9c-1.3,2.1-4.4,3.5-7.1,3.5v-6.9c-.1,0-.1,0-.1,0Z"/>
    <path class="st2" d="M279.2,371.7c-10.5,6.2-19.5,14.4-28.2,23.5-8.4,8.7-21.2,24.3-25,33.4l-2.6,6.4-13.8,1.5c0-.9,1-1.7,2.4-.8,4.2-10.4,10.4-20,17.6-28.6l15-17.8c9.2-10.9,36-28.4,50.7-34.5,11.2-4.7,23.2-6.3,35.2-7.9,2.8-.4,5.6-.4,8.4,1-6.3,2.9-12.2,4-18.4,5.6-12.1,3.1-23.5,7.4-34.4,13.4l-7,4.8h0Z"/>
    <path class="st10" d="M334.1,372.8l10.6,19.2c1.3-.6,2-.2,2.4.4.3.6,0,1.4-.5,1.6s-1.4,0-1.7-.6l-19.1,2.2-9.5,1.6c-1,.2-2.4,2.3-3.4,2.2-.2-.4-.3-.8-.5-1.2-7.3,1.7-14.2,4.4-20.5,8.6l-14.1,9.3c-1,.7-1.5,1.9-3,2.1,1.5-5.2,4.6-9.5,7.4-14.2,13.1-21.4,27.5-28.7,52-31.3h0Z"/>
    <path class="st2" d="M334.1,372.8c-24.6,2.7-38.9,9.9-52,31.3-2.9,4.7-5.9,9-7.4,14.2-2,1.3-2.5,5.4-2.4,7.9l-27.5,6.8c10.8-17.6,24.1-34.7,41.1-48,8.9-7,17.7-11.1,28.1-13.4s20.8-3.7,30.7.2l-10.5,1.1h0Z"/>
    <path class="st10" d="M279.2,371.7c.8,3,2.9,5.1,4.9,8.1-14.9,11.5-28.1,23.4-40.7,36.8-4.1,4.4-7.9,7.4-13.4,10-1.2.5-2.1,2.8-4.1,1.9,3.9-9.1,16.6-24.6,25-33.4,8.7-9,17.7-17.2,28.2-23.5h0Z"/>
    <path class="st10" d="M244.6,389.3l-15,17.8c-16.5,3.9-32.4,8.5-49.2,13.8,4.1-5.4,9.3-8.5,14.8-12.1,13.4-8.7,27.7-14.7,43.1-18.4,2.1-.5,3.9-1.9,6.3-1.1h0Z"/>
    <path class="st20" d="M213.2,294c1.4,2.5,1.1,5.4,1.2,8.5l.9,25c1.4,8.3,2.8,16.2,2.2,24.6,1.7.8,2.4,1.4,3.2,1.4,1.2-.1,1.8-1.4,1.5-2.8l-.9-4c0,.1.6,0,.6-.4v-27.6c0,0-1-1.5-1-1.5.9,0,1.2-.6,1.4-1.6,1.8,4.2,1.5,8.8,1.6,13.6l.5,22.4c0,1.2.4,1.8.8,2.6-3.8,1-6-.6-9.3,1.7-.7-.6-1.5,0-2.8-.8l.4-31.8-.5-20.9c0-2.4-.9-4.5-.4-7.3l-2.1,1c0-.5.2-1.7.7-1.7h2.1c0-.1,0-.1,0-.1Z"/>
    <path class="st1" d="M202.1,354.2c0,1.1-2.4.9-2.7.3-.2-.5-.7-1-.7-2.3-.2-19.9,1.2-39.4,3.3-58.7,1.1-.1,1.5,0,1.6.3.1.3.3,1.4.2,2l-1.8,58.4h0Z"/>
    <path class="st6" d="M193.4,352.5c0,.9-2.3,1-3.3.2-.9-.7-.4-2.4-.3-3.9l1.3-12.9c.6-6.1,1.6-11.8,2.1-17.8l1.8-23.4c0-.5.6-1.4.5-1.7-.2-.6,1.9-1,1.9-.3l-1.1,25.1-1.6,17.4-1.2,17.1h0Z"/>
    <path class="st1" d="M180.6,322.9c-1.1,7.2-2.2,14.2-4.3,21.7-.9,1.2-1.4,2-2.3,1l-1.7-2c-.6-1.4.4-2.7.4-4.3v-5.9c.5.2,2.6-1.1,2.6-2-.2-5.1,1.9-9.5,2.7-14.4l4.6-28.2c2,11-1.3,23.7-1.9,34h0Z"/>
    <path class="st1" d="M182.2,348.9c-.4-2.8.9-5.6.9-8.6v-10.3c2.3-2.4,2.5-5.9,2.8-9.4l2.2-27.4c0-1.1,1.8-2.4,2-1.8,1.2,3.6.4,7.5.2,11.4-.7,13.1-.7,26.3-4.3,38.3-.5,1.7-1.2,3.6-.9,6.2,0,1-.7,2.1-1.5,2.4-.5.2-1.1-.2-1.4-.7h0Z"/>
    <path class="st1" d="M177.7,285.5l-2.5,16.8c-1.3,8.4-2.4,16.5-4.6,24.3s-1,8.5-3.6,11.9c-.5,0-1.1-.5-1.1-1s-.4-.2-.5-.5l4.1-24.2c1.5-2.5,1-5.6,1.8-8.6l5.1-18.6c.5.3.9.2,1.3,0h0Z"/>
    <path class="st10" d="M169.5,312.8l-4.1,24.2c-2.3-1.2-4.7-3.4-4.5-6.1l3.9-16.4,2.7-14.3c1.8.6,1.5,2.9,1.5,4.8-.4,2.7-1.2,5.7.4,7.9h0Z"/>
    <path class="st10" d="M183.2,330v10.3c0,3-1.3,5.8-1,8.6-2.2.3-6.7-1.6-5.9-4.3,2.1-7.5,3.1-14.5,4.3-21.7.8,1,2.1,3.3.5,4.8-.4.7,1.1,2.1,2.1,2.3h0Z"/>
    <path class="st14" d="M219.5,288.3c-2,.2-3.9.6-5.4.2-6.2-1.6-12.7-2.2-19.8-2.3,1-5.7,14.3-2.3,23,.1.4.1,1.1.7,1.5.7s.4.8.7,1.2h0Z"/>
    <path class="st10" d="M172.6,333.5v5.9c.1,1.6-.9,2.9-.3,4.3-.4-.3-1.9.1-2-.3-.1-.3.3-1.2-.6-1.7l-2.4-1.2c-.4-.2-.2-1.7-.3-1.9,2.5-3.4,2.5-7.9,3.6-11.9,1.1-1.2,2,3.2,2,6.8h0Z"/>
    <path class="st1" d="M159.6,434.8c-.6.6-.5,2.1-.7,3.1-1.1-.7-1-3.8,0-4.1l7.3-3.7.6.6c-2.1,1.4-3.8,3.2-7.4,4.1h0Z"/>
    <path class="st19" d="M352.8,371c.2.6-.2,1-.6,1.1-.9.1-2.2-.7-2.7-.5-.6.3-1.7,1.4-2,1.4-.3-.3-1.1-.5-1.5-.5-.9,0-.8-1.9,0-1.9l6.9.5h0Z"/>
    <path class="st20" d="M218.3,282.5c-2.3.1-2.5.9-2.9,2.1-.9-.5-.7-2.3,0-2.5,1.2-.3,2.4-.2,3,.4Z"/>
    <path class="st1" d="M215.8,355.7c-1.6,1.2-3.6,1-5.1.1s-1.5-3.5-1.5-5.3l1.1-54.8,2.1-1c-.5,2.8.4,4.9.4,7.3l.5,20.9-.4,31.8c1.3.8,2.1.2,2.8.8h0Z"/>
    <path class="st2" d="M119.8,207.6l-.4,9.9c-1.1,7.8-1.3,15.3-1.7,23.2l-1.6,33.7c-.4,8.2.5,16.3.8,24,.6,21.3.9,42.5,2.9,64.1.5,5.1.3,9.7,1.3,14.2-.9,1.1-1.4,2.2-1.2,3.8l2.8,28.2c.8,8.5,1.6,16.4,3,25,.3,1.8-.4,4,1.5,4.9-2.5-.1-5.2-1.1-7.4-2l-.3-7.4-1.3-12.7v-6c-1.9-11.8.5-19.9-3.1-19.8l-2.6-47.9c-.8-14-.5-27.2-2.3-40.9-1.8-13.4-.2-26.8,1-40.5,1.7-19.7,3.4-38.6,6.8-57,2.1-.3,0-3.4,2.5-4.1-.4,2.7-.4,4.8-.5,7.3h0Z"/>
    <path class="st13" d="M288.6,454.3l-55.9-3.4c-.2-1.3,0-2.4,1.3-2.9l2.8-1.1c16.2-4.2,32.1-8.1,47.3-15.2l13.7-7.9c-4.2,10.5-7.2,20.3-9.2,30.4h0Z"/>
    <path class="st12" d="M206.7,489.5l-5.4,7.6c-2,2.8-3.6,5.4-6.6,7.6l-28.5-.4c10-4.6,13.6-14.6,16.2-14.7l18-.8c2.3-.1,4.3-.5,6.4.8h0Z"/>
    <path class="st12" d="M175.6,490.4l-3.6,5c-2.3,3.2-5.3,6-6.4,9.5l-30.1.2c0-1.9,1.7-3,2.9-4.9l6.8-10.9c4.1,1.8,9.6-.5,14.9,1.7l-7.5,10.5c-.7.9.8,2.3,1.7,1.8,4.6-4.9,9.8-9.5,13.1-14.8l8.2,1.9h0Z"/>
    <path class="st6" d="M336.5,491.1c-2.9,2.5-1.9,9.9-6.9,14.5-1.3,1.1-4.4.7-6.3.2l1-9.7c1.5-.3,4-.2,5.2-1.4s1.6-3.5,1.7-5.4l.7-20.9c0-1.2.4-2.1,1.1-2.8.5-.5,2.5-.4,3,.3l.5,25h0Z"/>
    <path class="st6" d="M348.5,489.4c-2.4.8-1.5,4.1-2.1,5.5l-2.5,7c-.9,2.6-5.2,3.1-7.9,3.6l.5-10c1.7-.1,6.3-1.1,6.5-3.6l2-25.6c.1-1.3,1.2-1.5,1.9-1.3.9.3,1.8.8,2,1.9l-.5,22.6h0Z"/>
    <path class="st2" d="M308.9,487.6c-.4-.3-.9-.7-1.5-.6v-1.2c.1-1.9-.7-3.9-3-3.8l-41.2,1.8c7.9-2.5,15.4-2.6,22.8-5.8l20.7-2,.2-9.7h1.3l.7,21.4h0Z"/>
    <path class="st25" d="M348.5,492.7c-.4.7.2,1.8.2,2.3-.2,2.5-1.6,6.5.8,8.7-.8,2.1-3.9,2-6,2.2l-12.4,1.3-9.2.2-7.7.2c-.3-1,.6-1.3,1.2-1.4h1.7c4.7-5.8,4.1-12.8,6.5-15.1l.6,5-1,9.7c1.9.5,5,.9,6.3-.2,5-4.6,4-12,6.9-14.5v4.3s-.5,10-.5,10c2.6-.4,6.9-1,7.9-3.6l2.5-7c.5-1.4-.4-4.6,2.1-5.5,1.2.6.5,2.4,0,3.3h0Z"/>
    <path class="st2" d="M225.5,488.4l-5.4,7.9c-1.6,2.3-3.8,4.8-6.5,5.6l9.2-15.3c4.1-6.7,7.9-13.6,13.2-20.1-1,9-6.1,15.4-10.6,21.9h0Z"/>
    <path class="st20" d="M348.8,495c0-.5-.6-1.6-.2-2.3,1.1,0,1.5-.7,1.8-1.3.2-.5-.6-2.7-.2-3,1.5-1.2,2.6-4.4,3.1-6.3,1.4,3,2.5,7.8-.9,10.3-.9.7-3.4.4-3.6,2.6h0Z"/>
    <path class="st14" d="M120.6,452.4l-2.1,5.3c-1.6-1.1-2.6-1.1-4.1-.1l2-4.9c.8-.4,1.3-1.4,2.2-1.4s1.4.8,2.1,1.1h0Z"/>
    <path class="st12" d="M307.4,485.7v1.2s-2.4,13.4-2.4,13.4c-5.1-1.2-10.6-.8-15.8-.1.6-.5,1.4-2,1.1-3.4l-7.6,4.9-19,.6-46,1.1-18.4,1.3,7.2-9.3c1.7-2.2,3.3-5.5,5.8-6.1l10.6-2.7-9.2,15.3c2.7-.8,4.9-3.3,6.5-5.6l5.4-7.9,19.7-.4,28.9-.8,26.5-1.2c2.5-.1,4.7-1.2,6.8-.2h0Z"/>
    <path class="st13" d="M245.8,189.3c-5.3.2-10.6.4-15.4,3.7-2.9,2-5.3,4.6-6.1,7.8-.4,1.9-.3,4.5.4,6.8l8.1,27.2c1.7,5.8,2.6,10.5-.1,16.4-.6,1.2-.8,3.3-2.7,3.2-1.9-2.3-5.8-2.9-9.2-2.9-1-2.2-6.6-3-8.5-2.5-1.1-8.4,0-16.6.6-25.2l1.3-16.3c-.9-4.2.8-8.4,1-12.8.2-3.1.3-5.1,2.9-6.2,2.9-1.1,5.6-2.4,8.7-2.6l35.3-2.2c1,3.9,2,6.8,1.1,10.6-6-4.4-11.6-5.3-17.6-5.1h0Z"/>
    <path class="st12" d="M227.1,200.6c.9,2.1,2.4,4.5,5.2,6.2,1.3.8,4.4-1.1,5.5-1.9h1.1c0,0,.5.9.5.9.3.4-.3,1.1-1.1.9-.8.8-2.3.6-2.7,1.1-.4.7-.9,2.2-.8,3.1.6,4,12.1,7,21.7-1.8l2.5,3.6-23.8,40.7c-1.7,3-3.4,4.5-1.8,8.3l7.6,18.8c.4.9.6,3.1-.1,3.8-.6.6-2.3-.7-3.2-.5-8.9-5.1-19.5-6.7-29.7-7.8,0-.7.5-1.3.8-1.6,2-2.4.6-6.1,1.3-9,.5-2,.8-3.4-.2-4.7,1.4-.7,4.7-2.1,6.3-.7,4.1,3.7,3.1,11.5,5.8,16.8,0,0,.2-.3.6-.5l-2.1-15c-.2-1.8,1-4,2.9-3.6,1,3.5,3.1,7.4,4.5,10.9,1.7,4.2,2.8,8.8,7.7,10.8,0-5.4-1.6-10.5-4.8-15.5.8-3.5,0-6.6-1.1-9.6,1.9.1,2.1-1.9,2.7-3.2,2.8-5.8,1.9-10.6.1-16.4l-8.1-27.2c-.7-2.3-.9-4.9-.4-6.8l2.8-.2h0Z"/>
    <path class="st20" d="M245.8,189.3c0,6.7,6.3,7.4,2.6,13.8-.6-.2-1.3-.9-2.4-.4.3-1.2-.2-2.5-.1-3.8,0-2.1-3.1-2.7-5.2-2.6l-6.5.5c-2.5.2-5.1,2.5-7,3.9l-2.8.2c.8-3.3,3.2-5.8,6.1-7.8,4.8-3.4,10.1-3.5,15.4-3.7h0Z"/>
    <path class="st9" d="M256.5,209.2c-9.6,8.8-21.1,5.8-21.7,1.8,9.5,3.4,18.9-.5,25.3-8.9-.3,3-1.9,5.5-3.6,7.1h0Z"/>
    <path class="st7" d="M245.9,198.9c0,1.3.4,2.6.1,3.8-1.1,3-4.4,2.5-7.1,2.2h-1.1c-.5-.6-1-3,0-4.3,1.3-1.9,5.6-2.4,8.1-1.7Z"/>
    <path class="st9" d="M257.8,179.2h-23.1c-.1-.3.1-.9.8-.8h22.1c.2.4.2.7.2.8Z"/>
    <path class="st19" d="M280.9,176.9c-3,.9-7,1.8-10.3,1.4l10.3-1.4Z"/>
    <path class="st10" d="M116.3,452.7l-2,4.9c-3.3,13-6.1,26.6-6.5,40-1.6,1.1-.7,3.4-1,5.6-1.2-1.5-.9-3.1-.8-5.7-2.6,2-4.1,2.1-6.8,1.7s-6.2-4.4-5.9-5.2-.3-1.6-1.2-1.4c.2-.2.1-.5,0-.4l.6-8.4,3.3-20.3c1.1-7,3.6-17.1,7.4-22.6,6.2-.1,11.8,1.8,16.5,5.1-1.8,2.5-2.7,4.5-3.6,6.7h0Z"/>
    <path class="st12" d="M312.9,399.5c-10.1,6.9-20.3,13.7-29.8,21.7-3.4,2.6-7,4-10.8,5-.1-2.5.4-6.5,2.4-7.9,1.5-.1,2-1.4,3-2.1l14.1-9.3c6.4-4.2,13.2-6.9,20.5-8.6.2.4.3.8.5,1.2h0Z"/>
    <path class="st20" d="M119.4,429.2c-.5,1,.2,3.5-.9,4.2-.9.6-2.8.9-4,1.2-.6-.4-.8-.8-1.4-.9,3.1-1.8,2.1-7.3-.5-9-.4-.9-.2-3.6-1.4-3.6,1.2-.5,1.5-1.8,1.2-3,.5,1.5,1.3-.2,5.8-1.6l1.3,12.7Z"/>
    <path class="st20" d="M112.5,424.7c2.6,1.7,3.6,7.2.5,9-3.5-.7-6.9-1.8-9.7-4,2.3-1.7,3.2-3.1,3.4-5.6,1.4,1.6,3.9,1.1,5.7.6Z"/>
    <path class="st6" d="M90.7,478.2c-.2.4-.6.9-1.4,1-1.5.1,0-1-1.3-4.6l2.7-8.2c1.7.3,1.8-1.3,2.6-2l-2.6,13.9h0Z"/>
    <path class="st1" d="M119.6,436.6c-1.6-.7-3.7-.8-5.2-1.9,1.2-.3,3.1-.6,4-1.2,1.1-.7.4-3.3.9-4.2l.3,7.4h0Z"/>
    <path class="st25" d="M91.1,484.3c-.6-1-.4-2.1-.6-3,.4-.2.6-.4.7-.5.8,1.5.8,3.2,0,3.5Z"/>
    <path class="st19" d="M62.2,424.6c.8-.7,1.9-.2,1.9,0-.1.4-.9,1.3-1.2,1.5-.5.3-1.8-.4-.6-1.6h0Z"/>
    <path class="st18" d="M65.1,416.5c-.7,1-2.5,1.9-3.8,1.3,1.4-.6,2.5-1.1,3.8-1.3Z"/>
    <path class="st6" d="M90.7,478.2l-2.8,13.7c-1.7,8.1-1.4,14.5-4,15.3h-3.3c-2-2.6-1.8-7.3-2.8-10,1.9-3.2,4.6-.7,5.7-2.5.7-1.1,1.4-10.5,4.5-20,1.4,3.6-.2,4.7,1.3,4.6.8,0,1.2-.6,1.4-1Z"/>
    <path class="st10" d="M331.2,507.2c2.5,3.2,1.9,7.2,1.7,11-.4,2.7-2.1,3.6-3.9,5.6-1.6,1.8-2.3,4.6-5.5,5.1l-.3-16.3c0-2-.5-3.7-1.3-5.2l9.2-.2h0Z"/>
    <path class="st13" d="M273.2,161.9c-1.2.9-3.2,1.3-3.9.2-.6-1-.1-2.9,1-3.6,1.2-.8,2.5-1.3,3.7-.3.8.7.8,2.5-.8,3.7h0Z"/>
    <path class="st13" d="M255.5,163.8c-.9,1-1.9,1.3-2.7,1.4-1.4.2-2.1-.7-2-1.8,0-1.5.6-2.1,2.1-2.8.9-.4,2.4-.7,3.2,0,.6.6.6,1.8-.6,3.2h0Z"/>
    <path class="st13" d="M234,165c-1.6.5-2.8-.7-2.8-1.7,0-2,1.3-3.1,3.6-3.1,1.3,0,1.9,1.1,1.9,2.3s-1.1,2.1-2.6,2.5h0Z"/>
    <path class="st13" d="M291.4,153.5c1.8,2.4-3.4,6.2-4.7,4.7-1.4-1.7,3.3-6.5,4.7-4.7Z"/>
    <path class="st13" d="M218,41.4c-.8,12-2.9,24.1-2.1,37.1,9.8,0,19.2,0,29,1.4,17.9,2.5-.3-29.9,20.1-40.8-2.4-1.7-4.3-1.4-6.1-1.8,3-1.4,7.7-.7,10.1,2.1,2.8,3.4-7.1,9.2-4,21.1,1,9.7,8.1,16.2,17.7,18.8.2.2,1.2,0,1.8-.1.8-.2.1.4-.2,1.4-1.8.1-3.6.4-5.3,2.2,3.5,2.5,8.3,2.8,11.8,4.8l2.7,1.5c.6,2.3-1.9,4-2.6,6.1-1.8,5.6-2.2,11.9-5.5,16.5l-20.4-10.6-3.2,6.1c-1.3,2.5-1.8,6,.2,8.7,2.9,4,8,6.9,12.8,8,5.5,1.2,12.7,0,17.6-3.4,8.7-6,12.5-27.2,12.5-37.5v-2.4l.9-12.5c2.4-2.6,5.8-3.8,7.9-7,3.7,1.9,5.3,6.3,5.5,11l-2.2,16.5-13.9,75.3c6.9,3.9,9.9,8.3,19,12.4,7.4,3.4,13.7,7.5,20.4,12.1,29.6,20.2,39.6,85.1,37.5,120.8l-5,88.2-1.6,38.5c1.2,2.8,2.7,6.9,3.8,9.8l3.9,10.7c2.2,5.9,2.9,12.4,3.5,18.9l2.8,30.8.8,72v45.5c0,6.6-2.6,11.4-8.2,15.2l-5.7,3.8c0-.5-.6-1.2-.9-1.5l1.2-102.2c0-6,.2-11.1-1.9-16.9-2.1,3.2-4.5,5.1-6.8,6.8l-.6,19.8-4.2,98.9-.9,6.2c-.5,3.4-5,7.3-8.3,7.7.1-1.5-1.5-.7-1.8-1.8,1.2-.4,1.6-2,1.6-3.6l1.6-26.6,3.7-43.6,2.1-32.7c.4-6.1,1.2-12,.1-17.9-1,1.4-1.1,2.5-1.5,3.5l-1.5,3.4c-3.5,13.9-9.8,26.5-17.1,38.2-1.1.2-1.6,1.2-2.7,1.1l13.6-29.2c4.2-9.1,8.6-18.2,9.7-27.9l-.8-16.6c0-1.9-1.2-5.3-2.8-5,.3-2.2,1.3-4.5,2.5-5.7,3.8-3.9,8.2-.5,9.4-3,2.1.1,5.8.7,6.8-1.6,2.9-7,3.1-18,2.1-25.7-.1-.9-.2-2.9-1.4-3l-11.7-.4c-.7,0-1.8-.8-2.9-.3l-.4-1.3-1.5-19.1c-.2-11.5-1.5-27.5-11.6-31.8-8.2-3.5-17.8-3.4-26.4-1.8-1.1.2-2.4.4-3.7.2.3-2.8,2.9-4.3,5.1-6.3l5.4-5c7-.2,13.4-2.2,19.1-5,3.9,1.2,8.2.5,12.7.8,2,.1,2.8-.1,3.7-2,.5-1,.4-2.1-.7-3.5l-6.3-8.4c-.2-.3.7-.7,1.2-.6.6,0,.5-.7.6-1l2.4-5c.3-.5.6-1.4,1-1.6,1-.5,1.8-1.4,1.9-2.3.3-1.7-.9-2.5-1.4-3.6-4.1-8-9.5-13.9-17.8-19.1,8.8-2.8,17.6,2,24.8.7,2-15.9,3.4-31.7,2.4-47.9-.9-16.3-5.7-31.3-10.5-46.6-1.5-4.6-3.1-9-6.1-12.7-5.7-6.9-14.3-6.9-20.7-1.4-8.3,7-12.6,15.5-16.8,25.5-5.6,13.5-11.6,26.4-15.6,40.5-2,7.1-5.5,12.7-10.1,18.2-8.1,9.6-18,16-28.9,21.7l-23.7,12.3c-4.4,2.3-8.7,2.9-13.1,1.8,1.4-1.7,3.9-1.3,5.8-2.4l14.9-8.9c14.6-8.7,21.3-22.9,26.5-38.8-5.7,9.9-11.5,21.1-19.8,28.8-1.4,0-3.8.2-4,2.1l-.2,2.1c0,.4-.6.5-1,.4,1.5-13.8-2.2-27.6-1.5-41.1-.9-1.5.7-2.3,1.3-1l2.1,12.1,2.7,22.9c3.9-4.9,3.1-10.4,2.7-16l-1.3-18.9c0-1.2.6-2.1,1.4-2,1.1,0,1.2,1,1.3,2l3.2,18.1c3.4-3.9,3.2-8.4,2.7-12.9l-1.2-11.2c0-.7.4-1.4.7-1.7.2-.4,1.2-.8,1.3-.4l1.3,3.7,5.8-17v-2c-.1-.3.4-.5,1-.4,2.4.6-.1,5.7,2.6,7.2l11.8-45.9c1.8-6.9,2-12.9,1.9-19.9-.3-13.6-.8-27-4.8-40.1-.2-.6-1.4-1.4-1.3-1.8l1.5-2.9,5.2-2.4c5-.2,3.9,8.7,5.3,14.5,3.8,15.6,2.3,30.7-.1,46.5-2.7,17.4-5,33.7-10.6,50.8l12.7-23.7c9.4-17.6,14.9-36.4,18.5-56.1.6-3.5,2.4-6.8,1.5-10.5-6-1.9-13.7-3.1-17.9-8.6-2.6-5,.3-12.3-.3-18l-7.6,2.7c.3-.5.9-1,.7-1.4-.3-.9-1.6-.1-2,0l-21.6,3.8-18.6,1.5-19.8.5c-.2-1-1.1-1-1.5-.8-.2,0-2.9.7-2.4-1.1,15.3,1.2,66.6-2,68.5-10.2l3.6-15.8c-22.8,6.4-45.7,8.1-69.3,7.4-.7,0-2.1.4-2.3-.4-.1-.4.4-.9.7-1.5l2.2-.7,27.6-1.1c13.5-.6,26.9-2.7,40.2-5.9,4-1,6.5-11.9,5.6-12.7-.8-.7-1.9.5-2.6.6l-21.8,2.4c-5.5.6-11.1,1.1-16.2-.7-5.6-1.9-8.5-7.9-9.3-12.4-2-10.8,5.4-14.8,11.3-22.8-15.9-4.1-33.9-4.2-49.4-8.9-4.1-1.3-7.5-4-11.8-3.6-.8,0-2.1-.1-2.9-.4-1.1-.4-2.8-.4-4.2-1.5-1.1-1.4-.4-4.3-.7-6.2,3.6-3.5,4.4-8.2,5.6-13.2,2.1-8.7,5.5-17.5,3.1-26.6-.6-2.2-3.1-4.9-.7-6.7l2.4-.9c3.9,0,8.2-1,12.2.7,1.8.8,1.7,4.3,1.6,5.9l-.4,5.3h0Z"/>
    <path class="st12" d="M346.4,547.1c-4.1,10.3-7.1,20.6-12.9,30.9-1.5-13.5,1.6-26.5,4.1-39.8l2.5-29.7c5.7,7,8.6,14.8,10,22.8,1,5.7-1.7,10.8-3.6,15.7Z"/>
    <path class="st10" d="M208.9,260.6c-.3,4.7-1.7,9.4,0,13.9-.3.3-.9,1-.8,1.6-1.7-.2-3.4-.8-5.1-.9l.8-3.7c1.1-4.1.9-12.4,5.1-10.9h0Z"/>
    <path class="st14" d="M239.4,288c-1.3,0-2.4-1.1-3.1-2.5,1.5-.2,2.7.5,3.1,2.5Z"/>
    <path class="st9" d="M238.5,289.2c.2-.9,2.1.5,2,1-.1.7-1,.6-1.2.4s-1-.5-.9-1.4h0Z"/>
    <path class="st4" d="M232.5,327.4l.4,17.2c-2.6,2.8.5,7.2-4.5,8.6,0-.4.3-.8,1.1-1v-27.2c1.6-.1.2,1.1,1.7,3.9.3.5,1.2.4,1.2,0,0-.5-.3-1,.2-1.4h0Z"/>
    <path class="st6" d="M246.7,301.8c-1.1,0-1.4-.8-1.1-1.3l1.1-2c.2-.4-.7-1.7-1-2.1.5,1.2,3.1,1.1,3.5-.1-2.9-4.6-6.7-9.6-11.4-12.3,1-.2,2.6,1,3.2.5.7-.7.5-2.9.1-3.8l-7.6-18.8c-1.6-3.9,0-5.4,1.8-8.3l23.8-40.7-2.5-3.6c1.7-1.6,3.3-4.2,3.6-7.1-6.4,8.4-15.8,12.3-25.3,8.9-.1-.8.4-2.4.8-3.1.3-.6,1.8-.4,2.7-1.1.8.2,1.4-.5,1.1-.9l-.5-1c2.7.3,6,.8,7.1-2.2,1.1-.5,1.8.2,2.4.4,3.7-6.4-2.7-7.1-2.6-13.8,6-.2,11.6.7,17.6,5.1.9-3.8-.2-6.7-1.1-10.6l-35.4,2.2c0-2.1-.4-4.6.7-6.8h7s23.2,0,23.2,0c4,0,8.2.5,12-.4,0-.5.6-.6.9-.4,3.3.3,7.2-.5,10.3-1.4.2,0,.5-.4.9-.2-.1.4,1.1,1.2,1.3,1.8,4,13.1,4.5,26.4,4.8,40.1.2,7-.1,13-1.9,19.9l-11.8,45.9c-2.7-1.6-.2-6.6-2.6-7.2-.6-.1-1.1,0-1.1.4v2c.1,0-5.7,17-5.7,17l-1.3-3.7c-.2-.5-1.1,0-1.3.4-.2.4-.7,1-.7,1.7l1.2,11.2c.5,4.5.7,9-2.7,12.9l-3.2-18.1c-.2-1-.2-1.9-1.3-2-.8,0-1.5.8-1.4,2l1.3,18.9c.4,5.6,1.2,11.1-2.7,16l-2.7-22.9-2.1-12.1c-.6-1.3-2.2-.5-1.3,1h0Z"/>
    <path class="st11" d="M339.4,411.3c-2.5,4.6,0,9.8-1.9,14.8l-4.1-.2c-.2-.7-.3-1.2-.3-1.9,0-3.8.7-7.4-.2-12.1.7-.2,1.4-.9,1.2-1.7,1.9.2,3.5,1.4,5.5,1.1h0Z"/>
    <path class="st0" d="M333,424c0,.7.1,1.1.3,1.9-3-.2-6.2.2-9.1,1l.3-13.7c1.4.2,2.5,0,3.2-1.5,2,4.3,1.7,10.2,5.4,12.4Z"/>
    <path class="st5" d="M344.2,412.9l-2.7,13.2h-4.1c2-5-.5-10.2,1.9-14.8,1.7-.2,3.3.9,4.8,1.6Z"/>
    <path class="st17" d="M347.5,414.2l2,1.3c-2.4,3.3-4.7,7.4-4.2,11.4-.4-.1-1.3,0-1.6.2l-2.1-1,2.7-13.2c.9.4,2.2.6,3.3,1.4h0Z"/>
    <path class="st24" d="M334,410.2c.2.8-.5,1.5-1.2,1.7.9,4.7.2,8.2.2,12.1-3.6-2.2-3.4-8-5.4-12.4,1-1.8,4.4-1.6,6.3-1.4h0Z"/>
    <path class="st16" d="M324.5,413.1l-.3,13.7-4,1c1-7,2.1-15.1,4.2-14.7Z"/>
    <path class="st21" d="M353.4,420.9c-2,0-2.4,1.8-3.3,3.1l-2.6,3.6-2.1-.7c-.4-4,1.8-8,4.2-11.4,1.9,1.2,3,3.4,3.8,5.4h0Z"/>
    <path class="st8" d="M347.4,427.6l2.6-3.6c.9-1.3,1.3-3,3.3-3.1,1,2.4,1.9,4.2,0,6-1.9,1.7-3.6,1.5-5.9.7Z"/>
    <path class="st1" d="M175.3,196.5c0,.5.6.6.8.8,1.3,1.3,2.9,2.6,4.7,3.1-.5,0-1.6,0-1.7.6-.1.4.8,1,.8,1.4-2.4-1.7-4.9-.8-7.8-1.1-1.3-3.8-5.1-6.6-5.9-11.9,3,2.7,5.6,5.5,9.1,7h0ZM169.9,195.1c0,.6.7,1.4,1,1.2.5-.4.4-.9.3-1.3-.1-.5-1.2-.9-1.3,0h0Z"/>
    <path class="st19" d="M208.9,274.5c-1.7-4.5-.2-9.2,0-13.9.2,0,.8.2,1.1.2,1,1.3.7,2.7.2,4.7-.7,2.9.7,6.6-1.3,9h0Z"/>
    <path class="st20" d="M199.5,253.7c1.8.2,3.6,1.1,3.3,3.5l-2.4,16.7c2.6.2,2.5-1.7,3.4-2.3l-.8,3.7-13.9-.2,5.7-23.5c2.2.7,3.3,1.9,4.7,2.1h0Z"/>
    <path class="st10" d="M209.3,185.5c0,.9.3,2.2,1.7,2.3l1.5,7.9c-2.1,5-2.2,10.4-3.1,16l-4.7,29.2-.7,3.1c-.3,1.4-1.8,1.4-3.1,1.1,2.4-7.3,2.1-15.1,3.2-22.8l2.8-19.5.4-10.9c0-1.9,1.1-3.4-1.1-5,1.2,0,2.4-.8,3.1-1.5h0Z"/>
    <path class="st10" d="M223.5,178.4l-5.4,10.1c-2.7,1.1-2.7,3-2.9,6.2-.3,4.4-1.9,8.6-1,12.8-.6,0-.9-.4-1.4-.8-.4-.4-.4-.8.4-1.1,0-3.5,0-6.7-.6-9.9l-1.5-7.9c-1.4-.1-1.7-1.4-1.7-2.3l6.5-7.4,7.6.4Z"/>
    <path class="st4" d="M191.7,185.4c3.3,2.5,5.4,6.1,7.3,9.7-.4,1.3-1.5,2-2.1,3.1-.3,0-.5,0-.8,0-1.6.4-3.1.9-5.2.8.6-6.8.2-12.8-5.2-14.5l.3-1.8c2.2.7,4.1,1.5,5.6,2.7h0ZM196.8,196.8c1.2-.4,1.3-2.2.9-2.6-.5-.5-1.1-.8-3.1-.6,1.4-.6,1.5-2.4-.4-2.5.7,3.4-.4,4.9-3.1,7.1,2.4-.2,3.8-.8,5.6-1.4Z"/>
    <path class="st2" d="M215.9,178.1l-6.5,7.4c-.7.8-1.9,1.6-3.1,1.5,0-.2,0-.5.3-.8-1.1-1.3-2.7-2.2-3.2-4,1.1-3.1-.7-6.2-3.2-7.8l15.7,3.6h0Z"/>
    <path class="st20" d="M194.3,172.5l5.8,2c2.5,1.5,4.3,4.7,3.2,7.8.5,1.8,2.1,2.7,3.2,4-1.8.6-2.2-1.6-3.3-2.1l-19.8-10.3c-1.1-.6-1.4-1.6-2.8-1.6-.1-1,0-2.2.9-2.9,2.1-1.1,6.9,1.2,12.8,3.2h0Z"/>
    <path class="st20" d="M196.1,198.2c0,.5.2,1,.9,1.1-4.9,2.5-10.9,2.9-16.2,1.2-1.8-.6-3.3-1.8-4.7-3.1,1.6,1.4,3.2-.7,4.3-.8,2.2.1,5.2,0,4.6-2,0-.7,2.1-1.4,1.4-2.7-.4-.8-1-2.1-1.6-2.9.9-1.2,1.7-3.2.8-4.4,5.4,1.6,5.7,7.7,5.2,14.5,2.1.1,3.6-.4,5.2-.8h0Z"/>
    <path class="st10" d="M198.8,198.3c-.4.8-1.2.7-1.7,1-.7-.1-.9-.6-.9-1.1.2,0,.5-.1.8,0,.5,0,.7-.1.8-.4.4-.7,1.3-.1,1,.6h0Z"/>
    <path class="st1" d="M169.9,195.1c.1-1,1.2-.6,1.3,0,0,.3.2.9-.3,1.3-.3.2-1.1-.6-1-1.2h0Z"/>
    <path class="st1" d="M95.3,380.6c-.6-1.3-.4-2.6-.3-3.9.2-.3.4-.5.5-.5.7,1.2.3,2.6.3,3.9-.2.3-.4.5-.5.5Z"/>
    <path class="st2" d="M145.6,512.4l.2,17.4c0,.5.4,1.4,1,1.6.4.1.9-1.1,1-1.5,0,.3.5,1.2,0,1.5-.3.2-.9.4-1.2,1l-1.5,75.4v38.1c-1.9.3-2.7,1.1-3.1,2.1-3.7-2.9-6.4-7.7-12.5-8.8l15.6,18,1.3,13.7c0,.7-.5,1-1.2,1.4l-12.4,7.2c-.7-.2-1.6-.1-1.6,1.2.1-.7-.8-.8-.9-.2l-2-13.8c-1.3-8.8-2.2-16.9-2.5-25.8l-2-55.1v-37.4c-.2-12.9-.5-25.3.4-37.7l21.6,1.6h0Z"/>
    <path class="st12" d="M86.8,635.4c-1.4,1-2.5,2.2-4.2,2.9-1.3-.8-7.6,4.8-14.7,4.6.7-9.7,1.6-19.1,5.4-27.8l6.9-7.3c.6-.2,1.8-.8,2.4-.8,4.1.2,5.6-3.7,8.2-4.5l-.6,10.9c-.4,8.1-2.1,15.4-6.5,22.4,1.2-.4,1.9-.8,2.9-.3Z"/>
    <path class="st10" d="M111.1,421.1c1.2,0,1,2.7,1.4,3.6-1.8.6-4.4,1-5.7-.6.2-1.8-.3-3.7.6-5.4.3,1.7,1.1,2.2,1.7,2.3h2.1Z"/>
    <path class="st2" d="M108.7,366.1c-.5,0-1.8-2-1.2-2.6.7-.6,1.4.5,1.7.8.4.4.8,1.6-.5,1.8h0Z"/>
    <path class="st2" d="M108.1,378.5c.8-1.2,1.8,0,2,.4.3.5.6,1.7.3,2.2s-1.7.6-2.1.3-.8-1.8-.1-2.8h0Z"/>
    <path class="st1" d="M102.9,252.3c.6-.7,1.5-.1,1.5.2v1.7c0,.5-.9.8-1.3.4-.6-.5-.7-1.7-.2-2.4h0Z"/>
    <path class="st10" d="M160,491c-5.3-2.2-10.8,0-14.9-1.7.4-.7.3-2.3,2.2-2.5,4.5-.5,9.6-.6,14.1.4.6,1.2-.8,3-1.4,3.8h0Z"/>
    <path class="st10" d="M123.7,485.9c0,.6.6.8,1,1.6l-11.1.3c.1-.8-.4-2.3.8-2.9,3.2-.7,6.2.4,9.2,1.1h0Z"/>
    <path class="st20" d="M107.8,497.6c0,3,.5,6-1.9,9l-8.2.4c.4.5.4,1,0,1.5-1,.1-1.7-.5-1.1-1.7l-1.3-1c-.2-.1-.7.4-.6.9-2.3-4.2-3-9.1-2.6-14,.9-.2,1.5.6,1.2,1.4s3.3,4.8,5.9,5.2,4.2.2,6.8-1.7c-.2,2.6-.4,4.1.8,5.7.3-2.3-.6-4.5,1-5.6h0Z"/>
    <path class="st4" d="M220.8,317l.9,1.5v27.6c0,.4-.4.5-.5.4-1-4.4-1-9-1.2-13.9l-.9-20.7c-.2-5.4-2-11,.4-16.6l1.1,14.5.2,7.3h0Z"/>
    <path class="st13" d="M232.5,327.4c-.5.3-.2.9-.2,1.4,0,.4-.9.5-1.2,0-1.5-2.9-.1-4.1-1.9-3.9l-1.3-28.3c0-.7-.6-1.8.3-2.2.4-.2,1.6-.1,1.6.4l-.2,1.8c1.3,10.6,2.6,20.6,2.8,30.8h0Z"/>
    <path class="st18" d="M92.8,380.9l6.6,28.7c1.2,5.4.5,11.1,2.3,16.3.5,1.5.3,2.9,1.7,3.9,2.8,2.1,6.2,3.3,9.7,4,.6.1.9.5,1.4.9,1.4,1.1,3.6,1.2,5.2,1.9,2.3,1,4.9,1.9,7.4,2,25.4,1.3,50.8.6,75.9-2l6.5-.2,13.8-1.5c7-.7,14.4-.3,21.4-2l27.5-6.8c3.8-.9,7.4-2.4,10.8-5,9.5-8,19.7-14.9,29.8-21.7,1,0,2.4-2,3.4-2.2l9.5-1.6,19.1-2.2c.7,0,1.4-.2,2,0-5.7,2.7-12,4.7-19.1,5l-5.4,5c-2.1,2-4.7,3.5-5.1,6.3-6.2,5.1-8.9,13.1-10.4,21.4l-3.9,21.4c1.3.6,2.7.8,4.1,1,.1,2.6.2,4.6-.2,6.7h-1.1c0-1.7.2-3.9-.5-5.8-.5-1.4-2.1-1-1.7.6l-15.1-.8c2-10.1,5.1-19.9,9.2-30.4l-13.7,7.9c-15.2,7-31.1,11-47.3,15.2l-2.8,1.1c-1.3.5-1.6,1.6-1.3,2.9l-68.4-2.8-40.4-.8c-1.9.4-2.9,3.7-3.5,5.1-.7-.3-1.5-1.1-2.1-1.1-1,0-1.4,1.1-2.2,1.4.9-2.2,1.8-4.2,3.6-6.7-4.6-3.3-10.3-5.2-16.5-5.1-3.8,5.5-6.3,15.6-7.4,22.6l-3.3,20.3-.6,8.4c-1.7-1.9-.3-4.3-.7-6.2h-1.4c-.6,2.3.4,4.7.6,6.9-1.3.3-1.8-.7-2.8-1l2.8-13.7,2.6-13.9c.9-4.9.4-10.4,4-14.9-1-.9-1.2-1.6-1.4-2,.8,0,1.1-.9.8-1.7l-4.9-17.2c-1.8-6.4-9.8-9.7-15.3-5.5-2.1,1.6-3.2,3.7-6.2,3.4-6.4-.5-12.2.7-16.3,7.2-1.1-2.5-.8-5.4.2-7.1-.3-.8-.2-1.9-.3-3,2.3-2.2,4.6-4.3,7.4-5.5,1.4.5,3.1-.3,3.8-1.3,5.9-1.2,11.4-.6,17.2,1.2l8.1,2.5c-.6.9-.3,1.1-.2,1.5.2.8,1.5,1.2,1.5.8.7-8.3-.3-16-.8-23.8l-1.9-29.4c2.4.8,2.8,6.3,3.9,11.5h0ZM62.2,424.6c-1.2,1.2.1,1.9.6,1.6.3-.2,1.1-1.1,1.2-1.5,0-.2-1.1-.8-1.8,0h0ZM91.1,484.3c.9-.3.9-2,0-3.5,0,0-.3.3-.7.5.2,1,0,2.1.6,3Z"/>
    <path class="st20" d="M227.6,179.3c-1.1,2.1-.7,4.6-.7,6.8-3.1.2-5.9,1.4-8.7,2.6l5.4-10.1c-.2-.3-.2-.7-.1-1.1l.9.2,3.3,1.7h0Z"/>
    <path class="st10" d="M245.9,198.9c-2.5-.8-6.8-.2-8.1,1.7-.9,1.4-.4,3.7,0,4.4-1.2.8-4.2,2.7-5.5,1.9-2.8-1.7-4.2-4.1-5.2-6.2,1.9-1.4,4.5-3.7,7-3.9l6.5-.5c2-.1,5.3.4,5.2,2.6h0Z"/>
    <path class="st14" d="M196.8,196.8c-1.8.6-3.2,1.2-5.6,1.4,2.7-2.3,3.8-3.7,3.1-7.1,1.9,0,1.8,1.9.4,2.5,1.9-.2,2.6.1,3.1.6.4.4.3,2.3-.9,2.6Z"/>
    <path class="st10" d="M200.3,197.5c-.4,0-1.3.4-1.5.8.2-.8-.7-1.4-1-.6-.1.3-.4.5-.8.4.5-1.1,1.7-1.8,2.1-3.1.4.7,1.7,1.4,1.3,2.5h0Z"/>
  </g>
</svg>