<?xml version="1.0" encoding="UTF-8"?>
<svg id="Réteg_1" data-name="Réteg 1" xmlns="http://www.w3.org/2000/svg" viewBox="0 0 409.19 709.78">
  <defs>
    <style>
      .cls-1 {
        fill: #fde3cb;
      }

      .cls-2 {
        fill: #f6b4b1;
      }

      .cls-3 {
        fill: #f4a4b0;
      }

      .cls-4 {
        fill: #7a7596;
      }

      .cls-5 {
        fill: #f8f4e9;
      }

      .cls-6 {
        fill: #122a3d;
      }

      .cls-7 {
        fill: #d4999a;
      }

      .cls-8 {
        fill: #f4c8aa;
      }

      .cls-9 {
        fill: #b2828b;
      }

      .cls-10 {
        fill: #f7bbb8;
      }

      .cls-11 {
        fill: #edbcb7;
      }

      .cls-12 {
        fill: #fbd2be;
      }

      .cls-13 {
        fill: #f4b7b6;
      }

      .cls-14 {
        fill: #fde3cd;
      }

      .cls-15 {
        fill: #f9e3d7;
      }

      .cls-16 {
        fill: #f1abb1;
      }

      .cls-17 {
        fill: #fadac5;
      }

      .cls-18 {
        fill: #fde4d1;
      }

      .cls-19 {
        fill: #b57693;
      }

      .cls-20 {
        fill: #f2f3df;
      }

      .cls-21 {
        fill: #cf83a5;
      }

      .cls-22 {
        fill: #172c43;
      }

      .cls-23 {
        fill: #19344f;
      }

      .cls-24 {
        fill: #c1a7c1;
      }

      .cls-25 {
        fill: #183653;
      }

      .cls-26 {
        fill: #2d4669;
      }

      .cls-27 {
        fill: #2a5487;
      }

      .cls-28 {
        fill: #102a3f;
      }

      .cls-29 {
        fill: #1f3650;
      }

      .cls-30 {
        fill: #f3a3b2;
      }

      .cls-31 {
        fill: #11293e;
      }

      .cls-32 {
        fill: #f4a3ae;
      }

      .cls-33 {
        fill: #49679a;
      }

      .cls-34 {
        fill: #fcefe0;
      }

      .cls-35 {
        fill: #f2aca6;
      }

      .cls-36 {
        fill: #f9dab9;
      }

      .cls-37 {
        fill: #122a3f;
      }

      .cls-38 {
        fill: #fcddb8;
      }

      .cls-39 {
        fill: #f19baf;
      }

      .cls-40 {
        fill: #10283f;
      }

      .cls-41 {
        fill: #214b7d;
      }

      .cls-42 {
        fill: #254e83;
      }

      .cls-43 {
        fill: #f7bbb5;
      }

      .cls-44 {
        fill: #3e649e;
      }

      .cls-45 {
        fill: #0d1e2e;
      }

      .cls-46 {
        fill: #17344e;
      }

      .cls-47 {
        fill: #f3abb2;
      }

      .cls-48 {
        fill: #1b4068;
      }

      .cls-49 {
        fill: #385888;
      }

      .cls-50 {
        fill: #1e4573;
      }
    </style>
  </defs>
  <g id="Generatív_objektum_-180_30_" data-name="Generatív objektum (-180, 30)">
    <path class="cls-44" d="M240.7,13.42c6.01,3.23,8.91,8.76,10.53,15.36,1.15,4.71-.28,8.48-4.01,12.55,2.99,1.81,8.67,4.23,9.56,8.36,2,9.33.84,19.08.45,28.42l-1.08,26.21-.16,7.85c-.04,2.25,1.87-.29,4.63-1.5l-3.37,4.97c-1.25,1.84-.24,4.74-.31,6.5-.12,3.04-.69,6.63.14,9.57.61,2.13,1.08,2.38-.14,4.55-3.16,5.66,6.66,55.97,9.35,72.64.58,3.58.11,7.6,2.81,10.1s6.52,3.27,10.21,4.63c.14-4.46-4.02-9.19-6.31-13.56.07-.93.86-1.27,1.4-.97l1.34.73c2.52,1.37,4.69,3.32,6.93,3.75l6.46,16.73c3.76,9.31,8.15,18.17,8.12,28.31l.83,6.25.81,7,.12,2.99c.04,1-.04,1.72.03,2.67l.65,8.66,1.4,17.83.21,14.57.49,28.12.59,96.72c0,.72,1.03.86,1.28.48-.79,2.18-2.11,4.77-.91,6.78l-.02,36.56.05,5.24c.07,7.9-.32,15.82,1.69,20.75.4-1.73.79-3.17,1.67-3.5.93.94,2.03.62,2.56-.15l-1.54,45.58c-.7.35-1.22.81-1.55,1.39-.28.47.44,2.1.42,2.86l-2.79,92.36-.77,41.1-5.45,2.5c-1.5-1.1-.55-2.38-.54-4.11l.29-50.6-1.03-67.59c-.05-3.34-.88-5.64-3.06-8.34l1.55-1.04c.22-.15.51-.7.48-1.4-.01-.44-1.41.09-2.19.42l-.04-12.28c0-3.21.03-5.65.01-8.77l-.11-16.21.11-10.27-.05-53.29-.47-61.49c0-.24-.41-.59-.78-.52l.05,156.76c0,3.02,1.27,5.01-1.72,6.68l-16.49,2.71c-48.81,5.75-97.61,3.57-145.78-4.56-25.1-4.24-49.17-10.47-71.49-22.84-1.15-.33-2.41-.71-3.08,0,7.98,7.6,17.26,11.65,27.12,15.37,30.51,11.51,76.38,17.59,110.54,19.4l53.61.11c14.12.03,27.61-2.12,41.16-5.74l6.31-1.72.97,108.2-1.14,22.89c-13.52,2.86-26.77,5.26-41.29,6.36-55.23,4.2-122.1.71-171.85-21.06-17.06-7.47-30.72-17.12-41.21-31.27l-.4-4.47-1.69-119.79,1.42-11.47c.25-2-1.55-3.9-2.93-3.76-1.45.16-4.25,1.37-4.3,3.42l-.72,33.12,1.09,84.38c.04,2.87,1.75,5.77-.36,8.21-11.06-12.55-15.46-28.38-15-45.56l2.08-77.89,1.23-44.55c.33-12.07,3.88-25.24,14.38-31.08l.38-23.78.19-21.52-1.87-62.37c-.37-12.3.32-23.88,2.41-35.8,2.49-14.19,7.58-27.19,12.17-40.73,5.14-15.15,14.04-27.06,27.77-35.79,11.82-7.51,23.04-14.84,36.04-20.35,6.78-2.87,7.99-35.49,6.15-47.64,3.71,10.96,7.03,22.3,7.99,34.6.14,7.5-2.54,14.35-6.81,20.42-6.23,2.89-12.78,4.72-19.82,4.64-.45,5.43-1.07,9.98-.4,15.37,1.43-.94,2.87-3,4.49-3.44,9.92-2.69,18.01-7.93,26.68-13.17,9.95-6.02,77.93-2.66,98.99-1.09,6.81.51,13.31,1.86,18.57,5.79,3.53,2.64,5.46,6.78,10.04,8.23-9.47-10.07-13.22-22.96-11.39-36.8,2.15-16.31,6.33-31.58,9.47-48.15-11.67,8.55-23.93,13.49-37.66,16.83-27.48,6.68-56.3,6.96-83.78.27-6.19-1.5-11.9-4.02-16.41-7.79-5.2-4.34-7.34-11.49-8.58-18.58l-9.61-54.68c-1.44-8.2-3.01-15.82-2.99-23.99l2.28-2.15,13.64-8.44-.86,13.12c.58,11.22,2.68,22.1,6.96,32.25,5.22,12.39,17.18,19.37,30.76,17.12,3.73-.62,6.71-4.88,9.36-7.09,1.81-1.5.76-2.62.79-3.78.13-4.95-3.58-8.86-5.07-14-.76-2.61,4.16-3.01,6.03-3.18-.23.31-.07.93.76.94,12.78.14,25.06-.43,37.12-2.51,3.17-.55,6.74-.6,9.28-2.6,2.71-2.14,7.08-2.26,11.17-2.67-.43,3.19-.78,6.34-2.14,8.47-2.5,3.92-.52,7.46,2.82,10.44,4.5,4.01,9.69,4.56,14.58.64.54-.44,1.7-.5,2.21-1.42.31-.56.53-1.36-.55-1.88l3.74-7.36c3.26-9.45,2.75-19.01.61-28.9,3.23-8.03,4.15-16.71,3.23-25.32-.38-3.52-3.01-6.8-4.17-10.19.15-.84,1.4-1.26,2.15-.86.55.29.59,1.63,2.26.57ZM163.98,106.95c7.71-10.38,5.8-23.49-4-28.93,2.52,4.22,5.95,6.65,6.76,11.06,1.18,6.43-.81,12.37-2.76,17.87ZM118.33,356.18c.75-2.31,1.84-1.33,2.33.83l-6.35-33.92-15.98-79.8c-.63-3.14-.61-6.7-1.62-9.16-.06-.14-2.43-1.97-2.44-1.57-.01.33-.06,1.5-.61,1.87,2.82,21.49,7.44,42.56,12.01,63.91l6.21,29.07,6.46,28.77ZM272.03,449.49l-63.93-.09c-52.45-1.85-105.74-8.77-153.93-26.98,10.57,8.45,22.77,11.65,35.14,15.02,33.49,9.13,67.65,13.29,102.2,15.29,24.28,1.41,48.3,2.03,72.51-.16,2.92-.26,6.26-.44,8-3.09Z"/>
    <path class="cls-5" d="M369.67,350.3c-1.35-.18-1.86.23-3.16,1.11-1.07.72-3.64-.97-4.92-1.98-.46,4.86-.35,9.35.09,13.78l2.16,21.49,5.31,29.86,5.95,44.8c11.69,2.14,15.63,15.21,16,27.64l1.4,47.48c.66,22.5,1.12,44.27.08,66.74-.48,10.29-1.4,19.73-4.28,29.44-.22.75-.17,1.62-1.21,1.48l-1.33-72.76-.86-22.41-1.67-24.26c-.33-4.82-5.43-8.03-9.64-8.06-.39-2.02,1.97-3.99,2.49-6.22,2.36-10.04,2.53-20.72-.45-31.27-.53,13.31-.83,25.86-3.99,38.3-.39,1.53-.86,3.17-1.77,4.87l-3.99,7.92c-.17.19-.22.76-.24,1-.5.02-.92-.05-1.21-.26-.75-.56-.78-1.47-.8-2.57l-1.42-58.18-1.57-36.07c-.07-1.62.79-3.79,1.25-5.38.96-3.32,2.97-6.91,2.82-10.84l-.65-16.78c-1.51-1.04-.83-2.53-1.13-3.8-1.83,2.09.53,5.17-.38,10.32-1.1,6.24-1.15,12.85-3.98,18.17-3.01,5.67-12.93,11.62-19.73,15.05l-.76-13.58c-1.3-23.14-1.77-45.64-5.69-68.54s-10.71-43.81-17.43-64.95l-2-35.28c-1.31-5.8-.82-11.8-5.17-16.72,1.7,9,3.69,17.28,3.93,26.04-1,2.12-2.39,2.4-4.17,2.92-.03-1.21.19-3.8-.86-4.56-1.37-1-3.74.59-4.54,1.66-.43.57-.99,1.4-1.57,1.55-.43.11-1-1.17-1.83.06.9,1.77-.72,2.35-1.52,1.09.04-10.14-4.35-19-8.12-28.31l-6.46-16.73c11.01,2.12,19.82,10.42,28.58,17.99,30.26,26.18,38.77,59.51,46.11,97.17,7.14,2.37,13.25,14.03,12.3,21.58ZM298.52,225.24c.76-1.04-.36-2.98-1.08-3.47-.94-.64-2.97-.41-3.48,1.23-.59,1.92,3.05,4.31,4.56,2.24ZM302.86,233.52c.95-1.39-.33-3.01-1.24-3.71-.85-.66-2.38.02-3.75.85-.96.8.3,2.32,1.16,2.84.94.58,3.13,1.04,3.83.02ZM304.39,246.44c1.83-.03,2.1-2.71.96-4.11-.82-1.01-3.55-1.52-4.55.28s1.13,3.86,3.59,3.82Z"/>
    <path class="cls-22" d="M114.96,153.74l-.04-4.29c4.51,3.77,10.22,6.28,16.41,7.79,27.48,6.68,56.3,6.41,83.78-.27,13.73-3.34,25.99-8.28,37.66-16.83-3.14,16.57-7.31,31.84-9.47,48.15-1.83,13.84,1.93,26.73,11.39,36.8-4.57-1.45-6.5-5.59-10.04-8.23-5.26-3.93-11.75-5.28-18.57-5.79-21.06-1.56-89.04-4.93-98.99,1.09-8.67,5.25-16.76,10.49-26.68,13.17-1.62.44-3.06,2.5-4.49,3.44-.67-5.39-.05-9.93.4-15.37,7.03.08,13.58-1.75,19.82-4.64,4.27-6.08,6.95-12.93,6.81-20.42-.96-12.3-4.28-23.64-7.99-34.6Z"/>
    <path class="cls-45" d="M198.02,10.94c-5.69,16.58-3.05,26.81,10.59,35.86.24-2.09,1.66-1,2.28-.82,5.04,3.71,12.65,5.08,18.38,2.85,2.32-.9,3.22-4.01,4.47-5.44,3.96-4.53,4.28-10.45,4.59-16.84.1-2.04-1.13-4.44.23-6.33.14,2.13.53,3.33,1.9,3.66.92,8.6,0,17.29-3.23,25.32,2.14,9.89,2.65,19.45-.61,28.9l-3.74,7.36c-6.56-1.5-13.03-4.07-19.05-7.78,1.36-2.13,1.7-5.28,2.14-8.47-4.09.41-8.47.53-11.17,2.67l-9.83.7-37.34,3.47c-1.87.17-6.79.57-6.03,3.18,1.5,5.14,5.2,9.04,5.07,14l-22.21,4.14c-7.89-2.11-12.02-11.67-13.74-18.42,5.29-6.49,11.75-12.32,19.6-16.59,13.7-7.47,22.19-22.06,17.13-37.6l-5.17-8.62,34.43-4.4c3.37-.44,8.36-1.09,11.29-.8Z"/>
    <path class="cls-31" d="M314.34,556.63c.75,2.89-.77,5.53-1.01,8.6l-.93,12.18-1.04,110.25c-.01,1.18.51,2.25.92,2.63.27.26,1.46.22,2.13.05,12.23-3.15,23.22-9,33.51-15.15,1.51-.9,3.15-1.77,4.24-3.59.53-.89,2.39-1.67,3.39-2.66l14.54-14.37c.39-.39.73-1.76.4-2,.84-.22,1.33.31,1.35,1.08l-3.64,4.24c-3.32,3.87-7.2,7.56-11.04,10.98l-7.68,6.85c-11.68,8.17-24.15,13.02-37.46,17.64-22.35,7.76-44.77,12.17-68.59,13.67-40.82,2.56-81.35.54-121.16-7.95-26.93-5.74-61.79-18.39-79.44-39.48-2.35-2.81-5.63-5.35-5.91-8.44,10.49,14.16,24.15,23.8,41.21,31.27,49.75,21.78,116.61,25.26,171.85,21.06,14.53-1.1,27.77-3.51,41.29-6.36l5.78-1.79,5.45-2.5.77-41.1,2.79-92.36c.02-.77-.7-2.39-.42-2.86.34-.57.85-1.03,1.55-1.39l7.15,1.49ZM308.32,571.91l-.08,17.49c-.02,4.24-2.49,9.03.53,13.49l.42-30.78c1.47-1.81.63-5.14.96-7.73.12-.93,2.35-2.78-.82-3.81l-1.01,11.35ZM305.5,679.81l.27,8.69-.16,3.13c-.04.72,2.11-.47,3.01-.75.69-.21-.47-1.82-.56-2.41,1.15-2.53.4-5.31.41-7.86l.09-66.93c0-2.52,2.27-5.91-.9-8.34l-.58,16.88-.94,41.13-.62,16.47Z"/>
    <path class="cls-20" d="M374.39,651.11l-2.54,2.54c-.02-.77-.51-1.3-1.35-1.08l-.02-92.33c0-10.96-.3-21.06-2.66-31.56-.42-1.87-3.92-2.55-5.46-2.69-.02-.43-.78-1.03-.72-1.41.04-.25.69-.57.98-.99l3.04-4.34c.02-.24.06-.81.24-1l7.13-8.62c2.36,4.55,3.35,9.79,3.35,15.24l.06,91.42-.82,21.47-1.22,13.35Z"/>
    <path class="cls-22" d="M36.51,646.7c-3.19-1.18-5.43-3.54-7.49-5.89,2.11-2.45.4-5.34.36-8.21l-1.09-84.38.72-33.12c.04-2.05,2.85-3.26,4.3-3.42,1.38-.15,3.18,1.76,2.93,3.76l-1.42,11.47,1.69,119.79Z"/>
    <path class="cls-16" d="M119.17,41.02c-.84.17-1.22.74-1.21,1.76l.27,17.54.81,1.5c-.86-.54-1.39-1.51-2.58-2,.24,7.1,2.62,12.67,4.27,19.15,1.72,6.75,5.85,16.31,13.74,18.42l22.21-4.14c-.03,1.16,1.02,2.28-.79,3.78-2.66,2.21-5.63,6.47-9.36,7.09-13.58,2.25-25.54-4.73-30.76-17.12-4.28-10.15-6.38-21.03-6.96-32.25l.86-13.12-13.64,8.44c-1.02-2.42.43-4.76,2.26-6.63,4.55-4.64,9.61-9.08,16.46-9.06,3.9,0,3.77,4.2,4.42,6.66Z"/>
    <path class="cls-5" d="M263.9,116.2l-3.68,6c-.42.77-1.22,1.15-1.94.99-.58-.13-.77-.58-1.35-1.05.07-1.76-.94-4.66.31-6.5l3.37-4.97c.82-1.22.07-1.97-.78-3.15,2.18-2.87,2.65-6.69,2.81-11.48l-5.56,12.96c-.29-2.07.38-3.78-.95-4.68l1.08-26.21c.39-9.35,1.54-19.09-.45-28.42-.89-4.14-6.57-6.55-9.56-8.36,3.73-4.07,5.16-7.84,4.01-12.55-1.61-6.6-4.52-12.13-10.53-15.36l-3.44-1.85c3.84-6.82,15.68-.01,19.49,6.36,4.08,6.82,3.33,14.59,3.81,22.28l3.23,52.17c.51,8.3.57,16.1.12,23.83Z"/>
    <path class="cls-44" d="M150.16,15.08c.75.46,1.34.86,2.15,1.07l5.17,8.62c5.05,15.54-3.44,30.13-17.13,37.6-7.84,4.28-14.31,10.1-19.6,16.59-1.65-6.48-4.03-12.04-4.27-19.15,1.19.48,1.72,1.46,2.58,2,.53.98,2.58,1.62,3.06,2.57.67,1.32,4.04,2.49,4.5.51.27-1.19-2.21-4.18-.14-4.77l10.65-3c.55-.15,1.35-1.16,1.89-1.61,5.77-4.74,10.51-12.39,11.92-20.45,1.51-8.63-9.38-20.22-.76-20Z"/>
    <path class="cls-5" d="M273.01,210.06c2.29,4.37,6.45,9.1,6.31,13.56-3.7-1.35-7.51-2.13-10.21-4.63s-2.23-6.52-2.81-10.1c-2.69-16.67-12.51-66.98-9.35-72.64.77-.45,1.45-.03,1.48.46l.16,2.87c3.97,20,8.27,39.49,9.33,59.86.25,4.81,1.53,7.92,5.08,10.61Z"/>
    <path class="cls-47" d="M204.51,3.42c1.13,3.26-1.24,5.58-2.23,7.74-1.16-2.24-3.1-.1-4.26-.22-2.94-.29-7.92.37-11.29.8l-34.43,4.4c-.81-.21-1.39-.61-2.15-1.07-.61-.38-1.8-.58-1.81-1.18-.11-5.15,43.57-11.81,56.16-10.48Z"/>
    <path class="cls-5" d="M230.63,43.52c-6.39,3.77-12.74.26-18.82-2.21.42-.96.24-1.69-.33-2.01-.37-.21-.82-.19-1.15,0-3.54-4.08-5.94-7.82-4.56-13.77-.59-6.43-.76-12.9,2.61-19.16-.79-.41-1.34-1.36-1.14-2.43.95-.36,3.45,1.65,2.9,2.54-4.05,6.56-3.16,12.54-1.45,19.24,2.74,10.72,11.03,17.35,21.94,17.8Z"/>
    <path class="cls-34" d="M131.83,56.42c.16,2.13-2.1,1.81-3.46,2.34-1.62.04-2.87.52-3.3,1.57-.54,1.3.23,2.64.78,4-.26,1.24-2.84.72-3.75.06-.48-.94-2.52-1.58-3.06-2.57l-.81-1.5-.27-17.54c-.02-1.02.37-1.59,1.21-1.76l2.09,7.93c1.26,4.78,5.78,8.19,10.56,7.47Z"/>
    <path class="cls-39" d="M211.8,41.3c6.08,2.48,12.44,5.98,18.82,2.21.71.33.8,2.03.22,2.84l-1.57,2.48c-5.73,2.23-13.35.86-18.38-2.85-3.6-2.65-6.28-6.98-7.86-11.05,1.89,3.54,5.49,5.02,8.77,6.36Z"/>
    <path class="cls-36" d="M369.67,350.3c-.28,2.24-.14,4.5-1.25,6.63-3.78,4.53-7.07,3.53-6.16,6.21l-.58.07c-.44-4.42-.55-8.91-.09-13.78,1.27,1,3.85,2.7,4.92,1.98,1.3-.88,1.81-1.29,3.16-1.11ZM362.62,356.3c.07-.02.32-.18.5-.47.06-1.26.28-2.62-.32-3.88l-.54.47c.02,1.25-.27,2.63.36,3.88Z"/>
    <path class="cls-17" d="M257.08,131.7c-.83-2.93-.26-6.53-.14-9.57.59.47.78.93,1.35,1.05.71.16,1.51-.22,1.94-.99l3.68-6c-.23,4.03-.81,7.05-3.26,10.95-.92,1.47-1.18,4.94-3.57,4.56Z"/>
    <path class="cls-4" d="M362.25,363.14c-.91-2.68,2.39-1.67,6.16-6.21-1.44,2.77-2.69,5.76-6.16,6.21Z"/>
    <path class="cls-29" d="M289.53,563.3c.78.79.44,2.37,1.9,2.76l-6.31,1.72c-13.55,3.61-27.05,5.77-41.16,5.74l-53.61-.11c-34.16-1.82-80.03-7.89-110.54-19.4-9.86-3.72-19.14-7.77-27.12-15.37.66-.72,1.93-.34,3.08,0,22.32,12.37,46.38,18.6,71.49,22.84,48.18,8.13,96.97,10.32,145.78,4.56l16.49-2.71Z"/>
    <path class="cls-26" d="M272.03,449.49c-1.74,2.64-5.08,2.82-8,3.09-24.22,2.19-48.24,1.56-72.51.16-34.54-2-68.71-6.17-102.2-15.29-12.37-3.37-24.57-6.57-35.14-15.02,48.18,18.21,101.48,25.12,153.93,26.98l63.93.09Z"/>
    <path class="cls-49" d="M297.04,695.35l-5.78,1.79,1.14-22.89-.97-108.2c-1.46-.38-1.12-1.97-1.9-2.76,2.99-1.67,1.72-3.66,1.72-6.68l-.05-156.76c.37-.06.78.29.78.52l.47,61.49.05,53.29-.11,10.27.11,16.21c.02,3.12-.02,5.56-.01,8.77l.04,12.28c.78-.33,2.18-.86,2.19-.42.02.7-.26,1.25-.48,1.4l-1.55,1.04c2.17,2.7,3.01,4.99,3.06,8.34l1.03,67.59-.29,50.6c0,1.73-.97,3.01.54,4.11Z"/>
    <path class="cls-27" d="M314,475.45c-.96-3.95-.55-8.03-.51-12.09l.11-10.98c-1.13-.26-1.71-.23-2.65-.02l-.07,11.01c-.02,2.3-.22,4.64-.51,7.21l-.92,8.3.2-19.1c.09-3.21.34-6.27.03-9.69-2.83.71-4.58.88-6.91.59-1.2-2.01.13-4.6.91-6.78,1.45-1.12,3.2-1.75,5.36-2.16l.28-16.96,1.08-48.51.49-24.26c1.33.92,1.47,3.57.09,4.83,2.17.65,1.81-1.03,1.49-1.9-.18-.48,1.23-.45,1.53.3.28.7.57.9.56,2l-.57,118.21Z"/>
    <path class="cls-26" d="M118.33,356.18l-6.46-28.77-6.21-29.07c-4.57-21.35-9.18-42.42-12.01-63.91.55-.37.6-1.54.61-1.87.01-.4,2.38,1.43,2.44,1.57,1.01,2.46.99,6.02,1.62,9.16l15.98,79.8,6.35,33.92c-.49-2.16-1.58-3.14-2.33-.83Z"/>
    <path class="cls-25" d="M314.32,511.45v45.18s-7.14-1.49-7.14-1.49l1.54-45.58-.26-2.65c.82-.88,3.4-2.66,4.92-1.04.67,1.15-1.17,4.41.94,5.58ZM310.61,540.51c.57.13.94-.14,1.13-.48l-.25-9.03c-.12,0-.44.1-.62.46.1,3.08.03,6.1-.27,9.05ZM311.75,545.07c.03-1.16-.82-1.89-1.68-2.05l.2,12.13,1.22-.06.26-10.02Z"/>
    <path class="cls-3" d="M305.06,283.57c-.46.41-.69,1.68.06,2.09,1.68.93,3.49,1.17,4.9.52.36.78,1.06,1.57,2.12,1.52l-.16,22.25-10.88-5.95-1.4-17.83c.89-.06,1.98,0,2.77-.51s1.09-2.24.46-3.01l2.12.92ZM309.87,292.45c.24-1.53-.15-2.23-1-3.13s-6.18-1.97-6.21-1.95c-.71.39-.54,4.41.16,4.52l2.08.31,4.97.26ZM307.53,298.75l.44-1.35c.43-1.33-1.01-1.17-1.66-1.1-.46.05-1.68-.4-1.93.11-.33.68.25,2.35-1.7,2.55-.97,1.46.44,1.91,1.77,1.75,1.66-.19,2.55-.35,3.07-1.96ZM310.08,305.72c-.06-2.36-.03-4.11-.68-6.27-.63,1.59-.33,2.37-1.5,2.88l-2.43,1.05c1.58.78,2.41,1.82,4.61,2.33Z"/>
    <path class="cls-16" d="M232.89,85.47c1.08.52.86,1.32.55,1.88-.51.92-1.66.98-2.21,1.42-4.88,3.92-10.08,3.37-14.58-.64-3.34-2.98-5.32-6.51-2.82-10.44,6.02,3.71,12.49,6.28,19.05,7.78Z"/>
    <path class="cls-9" d="M311.99,309.96c-.02,2.33-1.66,4.65-.97,7.02-3.86,1.62-5.85,4.33-9.69,1.6l-.21-14.57,10.88,5.95Z"/>
    <path class="cls-14" d="M307.57,258.79c1.78-.52,3.17-.8,4.17-2.92l.36,13.04c.02.81-.25,1.7-.68,2.52-.29.55-.94.95-1.59.41l-1.59-3.99c-.25-.63-1.9-.45-2.51-.28-.24-.63-.17-1.24.15-2.03-3.14.08-5.52.09-7.81-.71l-.83-6.25c.8,1.26,2.42.68,1.52-1.09.83-1.24,1.4.05,1.83-.06.58-.15,1.14-.98,1.57-1.55-.37,1.96.4,2.48,1.8,3.17,1.73.84,2.56.04,3.6-.26ZM303.49,263.76c2.68-.47,4.68.9,6.27,2.75,1.35-1.42,1.07-3.72.22-4.79s-3.42-.75-4.85-.65c-1.7.12-3.47-1.29-5.56.47l3.91,2.22Z"/>
    <path class="cls-24" d="M194.97,72.59l.55,1.89c-12.06,2.08-24.34,2.65-37.12,2.51-.83,0-1-.63-.76-.94l37.34-3.47Z"/>
    <path class="cls-26" d="M163.98,106.95c1.96-5.5,3.94-11.43,2.76-17.87-.81-4.41-4.24-6.84-6.76-11.06,9.8,5.43,11.7,18.54,4,28.93Z"/>
    <path class="cls-13" d="M259.84,107.52l-3.85,4.65.16-7.85c1.32.9.65,2.6.95,4.68l5.56-12.96c-.16,4.79-.63,8.61-2.81,11.48Z"/>
    <path class="cls-35" d="M301,279.67l1.45.41c-.3,1.04-.14,1.81.48,2.58s.32,2.5-.46,3.01-1.88.45-2.77.51l-.65-8.66c.64.12,1.07.78.66,1.77-.32,1.27,1.04,1.59,1.3.39Z"/>
    <path class="cls-12" d="M305.74,267.58c-.15.34-.57.25-.9.42l-1.26.67-1.36-1.16c-.7-.6-1.45-.54-2.34-1.03.33,2,.43,4.21-.99,5.36l-.81-7c2.3.79,4.67.79,7.81.71-.32.79-.39,1.4-.15,2.03Z"/>
    <path class="cls-2" d="M305.65,275.84c-.63.66-2.52,1.04-3.78-.05-.97,1.01-1.29,2.52-.86,3.88-.25,1.2-1.62.88-1.3-.39.41-1-.02-1.65-.66-1.77-.07-.95,0-1.67-.03-2.67,2.37-.76,4.98-1.37,6.63.99Z"/>
    <path class="cls-4" d="M204.8,71.89c-2.53,2-6.11,2.05-9.28,2.6l-.55-1.89,9.83-.7Z"/>
    <path class="cls-5" d="M260.62,110.66c-2.76,1.21-4.67,3.76-4.63,1.5l3.85-4.65c.85,1.18,1.6,1.93.78,3.15Z"/>
    <path class="cls-26" d="M240.46,23.9c-1.37-.33-1.76-1.53-1.9-3.66-1.36,1.89-.13,4.29-.23,6.33-.31,6.39-.63,12.3-4.59,16.84l-2.2-1.03c4.16-10.16,3.08-27.67,3.97-28.4.25-.2.42-.34.78-.27,1.17,3.39,3.8,6.67,4.17,10.19Z"/>
    <path class="cls-44" d="M314.97,281.84c6.73,21.13,13.57,42.34,17.43,64.95s4.38,45.4,5.69,68.54l.76,13.58.14,6.88,5.05,104.88,12.31-11.3c1.72-1.58,3.8-3.58,5.99-3.38,1.54.14,5.04.82,5.46,2.69,2.37,10.51,2.66,20.6,2.66,31.56l.02,92.33c.32.23-.01,1.61-.4,2l-14.54,14.37c-1,.99-2.86,1.77-3.39,2.66,1.34-3.79,1.19-7.74,1.88-12.04,4.52-28.23,6.24-56.19,9.04-84.76.94-9.56,1.85-18.4-3.33-26.9-3.44-5.64-11.82-5.57-16.84-.64l2.65,18.37,1.42,39.96.94,69.6c-10.29,6.14-21.27,12-33.51,15.15-.67.17-1.85.21-2.13-.05-.41-.38-.94-1.45-.92-2.63l1.04-110.25.93-12.18c.23-3.07,1.76-5.72,1.01-8.6v-45.18s0-24.12,0-24.12c0-3.91.58-8.09-.34-11.88l.57-118.21c0-1.1-.28-1.3-.56-2-.3-.75-1.7-.78-1.53-.3.31.86.68,2.55-1.49,1.9,1.39-1.26,1.25-3.91-.09-4.83l.09-17.24c.03-6.09,1.65-12.21.03-17.8-.69-2.37.96-4.69.97-7.02l.16-22.25,1.2-6.14c.18-.31.52-.97,1.09-.29.15.18-.07.26.54.56Z"/>
    <path class="cls-38" d="M365.64,519.25l-3.04,4.34c-.29.42-.95.73-.98.99-.05.38.71.98.72,1.41-2.19-.2-4.27,1.8-5.99,3.38l-12.31,11.3-5.05-104.88c4.98-.59,9.13-3.33,13.03-6.63l8.62-6.99,1.57,36.07,1.42,58.18c.03,1.1.05,2.02.8,2.57.29.21.71.28,1.21.26Z"/>
    <path class="cls-47" d="M361.89,416.78c-.46,1.59-1.32,3.76-1.25,5.38l-8.62,6.99c-3.9,3.29-8.05,6.04-13.03,6.63l-.14-6.88c6.79-3.43,16.72-9.38,19.73-15.05,1.38-.45,2.31.06,2.51.7l.8,2.23Z"/>
    <path class="cls-8" d="M373.58,504.66c-.34.54-1,1.1-1.95.8,3.15-12.43,3.45-24.99,3.99-38.3,2.98,10.55,2.81,21.23.45,31.27-.53,2.24-2.88,4.2-2.49,6.22Z"/>
    <path class="cls-13" d="M361.89,416.78l-.8-2.23c-.2-.64-1.13-1.15-2.51-.7,2.82-5.32,2.87-11.93,3.98-18.17.91-5.15-1.45-8.23.38-10.32.3,1.27-.38,2.76,1.13,3.8l.65,16.78c.15,3.93-1.86,7.53-2.82,10.84Z"/>
    <path class="cls-47" d="M387.08,632.15c.12,6.59-7.81,14.06-12.7,18.95l1.22-13.35.82-21.47-.06-91.42c0-5.45-1-10.69-3.35-15.24l-7.13,8.62,3.99-7.92c.91-1.7,1.38-3.34,1.77-4.87.95.29,1.6-.27,1.95-.8,4.21.04,9.31,3.25,9.64,8.06l1.67,24.26.86,22.41,1.33,72.76Z"/>
    <path class="cls-49" d="M202.28,11.16c-3.43,7.48-2.21,16.17.75,23.78,1.58,4.07,4.27,8.4,7.86,11.05-.62-.18-2.04-1.28-2.28.82-13.64-9.05-16.27-19.28-10.59-35.86,1.16.11,3.1-2.02,4.26.22Z"/>
    <path class="cls-38" d="M352.16,671.6c-1.09,1.82-2.73,2.69-4.24,3.59l-.94-69.6-1.42-39.96-2.65-18.37c5.02-4.93,13.4-5,16.84.64,5.18,8.49,4.27,17.33,3.33,26.9-2.8,28.57-4.51,56.52-9.04,84.76-.69,4.31-.54,8.25-1.88,12.04Z"/>
    <path class="cls-40" d="M308.45,680.61c-1.15-.37-1.97-.78-2.96-.79l.62-16.47.94-41.13.58-16.88c3.17,2.44.9,5.82.9,8.34l-.09,66.93Z"/>
    <path class="cls-37" d="M308.32,571.91l.87.2-.42,30.78c-3.01-4.46-.55-9.26-.53-13.49l.08-17.49Z"/>
    <path class="cls-28" d="M308.45,680.61c0,2.55.75,5.34-.41,7.86-.74.15-1.54.22-2.28.03l-.27-8.69c.98.01,1.81.43,2.96.79Z"/>
    <path class="cls-6" d="M309.19,572.11l-.87-.2,1.01-11.35c3.18,1.03.94,2.89.82,3.81-.33,2.6.51,5.93-.96,7.73Z"/>
    <path class="cls-37" d="M308.05,688.47c.1.6,1.25,2.2.56,2.41-.9.28-3.04,1.47-3.01.75l.16-3.13c.74.19,1.54.12,2.28-.03Z"/>
    <path class="cls-8" d="M139,55.52c-.54.45-1.34,1.46-1.89,1.61l-10.65,3c-2.06.58.42,3.58.14,4.77-.45,1.98-3.83.81-4.5-.51.91.66,3.48,1.18,3.75-.06-.55-1.36-1.32-2.7-.78-4,.44-1.05,1.68-1.53,3.3-1.57,1.36-.53,3.61-.21,3.46-2.34,2.34-.5,4.62-1.15,7.17-.9Z"/>
    <path class="cls-21" d="M307.57,258.79c-1.04.31-1.87,1.11-3.6.26-1.4-.68-2.17-1.21-1.8-3.17.81-1.07,3.17-2.67,4.54-1.66,1.05.77.83,3.36.86,4.56Z"/>
    <path class="cls-47" d="M304.39,246.44c-2.46.04-4.61-1.98-3.59-3.82s3.72-1.3,4.55-.28c1.14,1.4.88,4.07-.96,4.11Z"/>
    <path class="cls-7" d="M302.86,233.52c-.7,1.02-2.9.56-3.83-.02-.86-.53-2.11-2.04-1.16-2.84,1.38-.84,2.9-1.52,3.75-.85.91.7,2.19,2.32,1.24,3.71Z"/>
    <path class="cls-39" d="M298.52,225.24c-1.51,2.07-5.14-.32-4.56-2.24.5-1.64,2.53-1.87,3.48-1.23.72.49,1.84,2.43,1.08,3.47Z"/>
    <path class="cls-15" d="M207.24,3.94c-.2,1.07.36,2.02,1.14,2.43-3.37,6.26-3.2,12.73-2.61,19.16-1.38,5.95,1.02,9.68,4.56,13.77.33-.19.78-.21,1.15,0,.57.32.75,1.05.33,2.01-3.28-1.34-6.88-2.82-8.77-6.36-2.96-7.61-4.17-16.3-.75-23.78.99-2.16,3.36-4.48,2.23-7.74.57.88,2.05.78,2.73.51Z"/>
    <path class="cls-16" d="M362.62,356.3c-.63-1.24-.34-2.63-.36-3.88l.54-.47c.6,1.26.38,2.62.32,3.88-.19.29-.43.44-.5.47Z"/>
    <path class="cls-41" d="M313.49,463.35c-.04,4.06-.45,8.14.51,12.09s.33,7.97.34,11.88l-.93.3.15-6.17c-.97-.67-3.32-.34-3.34.43l-.08,3.46-.94.26c.07-2.11.02-4.7.25-6.75l.92-8.3c.28-2.57.49-4.91.51-7.21.93.22,1.67.22,2.61,0Z"/>
    <path class="cls-42" d="M313.49,463.35c-.94.23-1.68.23-2.61,0l.07-11.01c.93-.21,1.51-.24,2.65.02l-.11,10.98Z"/>
    <path class="cls-48" d="M313.41,487.63l.93-.3-.02,24.12c-2.11-1.17-.27-4.43-.94-5.58-1.52-1.62-4.1.17-4.92,1.04l.74-21.3.94-.26c-.07,3.19-.55,6.53,1.35,9.59,2.97-1.91,1.87-4.96,1.92-7.31Z"/>
    <path class="cls-23" d="M311.75,545.07l-.26,10.02-1.22.06-.2-12.13c.86.16,1.71.89,1.68,2.05Z"/>
    <path class="cls-46" d="M310.61,540.51c.3-2.95.37-5.97.27-9.05.18-.35.49-.45.62-.46l.25,9.03c-.2.35-.57.61-1.13.48Z"/>
    <path class="cls-32" d="M309.87,292.45l-4.97-.26-2.08-.31c-.7-.1-.87-4.13-.16-4.52.03-.02,5.33,1.03,6.21,1.95s1.24,1.6,1,3.13Z"/>
    <path class="cls-11" d="M313.34,281.57l-1.2,6.14c-1.06.04-1.76-.75-2.12-1.52.23-1.68.12-3.14-.82-4.56.99.97,2.98.43,4.14-.05Z"/>
    <path class="cls-30" d="M310.08,305.72c-2.2-.51-3.02-1.55-4.61-2.33l2.43-1.05c1.17-.51.87-1.29,1.5-2.88.65,2.16.62,3.91.68,6.27Z"/>
    <path class="cls-2" d="M307.51,279c-.07.74.17,1.4-.47,2.03-.87-1.8-1.55-.44-1.75.06-.33.85-.67,1.05-.26,1.78.11.21.12.42.03.69l-2.12-.92c-.62-.77-.78-1.53-.48-2.58,1.83.51,3.39-.38,5.05-1.08Z"/>
    <path class="cls-33" d="M307.53,298.75l-1.48.99c-.68.52-1.99-1.37-1.14-2.09l1.4-1.35c.64-.07,2.09-.23,1.66,1.1l-.44,1.35Z"/>
    <path class="cls-33" d="M307.55,281.79l1.19,4.4c1.08-2.03.31-3.33-.42-4.55.2-.1.71-.19.88-.02.94,1.42,1.05,2.88.82,4.56-1.41.65-3.22.41-4.9-.52-.75-.41-.52-1.68-.06-2.09.09-.28.08-.49-.03-.69.77-.68,1.48-1.1,2.52-1.09Z"/>
    <path class="cls-19" d="M306.32,296.3l-1.4,1.35c-.85.72.46,2.61,1.14,2.09l1.48-.99c-.52,1.61-1.42,1.77-3.07,1.96-1.33.15-2.74-.29-1.77-1.75,1.95-.2,1.37-1.86,1.7-2.55.25-.51,1.47-.06,1.93-.11Z"/>
    <path class="cls-4" d="M309.83,271.85c-.91.52-3.14.85-4.68.08-1.09-.55-1.57-2.47-.31-3.92.34-.18.75-.08.9-.42.6-.18,2.26-.36,2.51.28l1.59,3.99Z"/>
    <path class="cls-2" d="M305.65,275.84c.33.2.58.18.9.08,1.41.37,1.18,2.04.96,3.08-1.67.7-3.23,1.59-5.05,1.08l-1.45-.41c-.43-1.36-.11-2.87.86-3.88,1.26,1.08,3.14.71,3.78.05Z"/>
    <path class="cls-10" d="M307.51,279c.22-1.04.44-2.71-.96-3.08.04-1.95,2.67-1.57,3.87-.88s1.2,3.27.1,5.12c-.48-1.05-1.9-1.62-3-1.15Z"/>
    <path class="cls-26" d="M307.55,281.79c.24,0,.55-.04.77-.14.73,1.22,1.51,2.51.42,4.55l-1.19-4.4Z"/>
    <path class="cls-18" d="M303.49,263.76c1.24-.82,1.74-1.49,1.65-2.69,1.43-.1,4.01-.4,4.85.65s1.13,3.36-.22,4.79c-1.59-1.85-3.6-3.22-6.27-2.75Z"/>
    <path class="cls-1" d="M305.15,261.07c.09,1.2-.42,1.87-1.65,2.69l-3.91-2.22c2.1-1.76,3.86-.35,5.56-.47Z"/>
    <path class="cls-50" d="M313.41,487.63c-.06,2.35,1.05,5.4-1.92,7.31-1.9-3.06-1.42-6.39-1.35-9.59l.08-3.46c.02-.77,2.36-1.1,3.34-.43l-.15,6.17Z"/>
    <path class="cls-43" d="M314.97,281.84c-.61-.29-.39-.37-.54-.56-.57-.68-.92-.02-1.09.29-1.16.48-3.15,1.02-4.14.05-.18-.17-.69-.08-.88.02-.21.11-.53.15-.77.14-1.04,0-1.76.41-2.52,1.09-.4-.74-.07-.94.26-1.78.2-.5.88-1.86,1.75-.06.64-.64.4-1.29.47-2.03,1.11-.47,2.53.1,3,1.15,1.09-1.85,1.12-4.41-.1-5.12s-3.82-1.07-3.87.88c-.32.1-.57.12-.9-.08-1.65-2.37-4.27-1.75-6.63-.99l-.12-2.99c1.42-1.16,1.32-3.37.99-5.36.9.49,1.64.43,2.34,1.03l1.36,1.16,1.26-.67c-1.25,1.46-.78,3.37.31,3.92,1.54.77,3.77.44,4.68-.08.65.54,1.3.14,1.59-.41.43-.82.71-1.72.68-2.52l-.36-13.04c-.24-8.76-2.23-17.04-3.93-26.04,4.35,4.92,3.86,10.92,5.17,16.72l2,35.28Z"/>
  </g>
</svg>