<?xml version="1.0" encoding="UTF-8"?>
<svg xmlns="http://www.w3.org/2000/svg" version="1.1" viewBox="0 0 103.8 140.9">
  <g transform="translate(-415.6 0)">
    <path fill="none" stroke="#dfdcd1" stroke-width=".5" stroke-miterlimit="10" d="M501.2,34.3v-8c0-.9-.7-1.6-1.6-1.6h-8.7c-4.7-7.1-12.8-11.8-22-11.8h-2.9c-9.2,0-17.3,4.7-22,11.8h-8.5c-.9,0-1.6.7-1.6,1.6v8.5c-6.3,4.8-10.3,12.4-10.3,20.9v2.9c0,8.5,4,16.1,10.3,20.9v10.9c0,.9.7,1.6,1.6,1.6h10.3c4.9,5.8,12.1,9.4,20.2,9.4h2.9c8.1,0,15.4-3.7,20.2-9.4h10.5c.9,0,1.6-.7,1.6-1.6v-10.4c6.6-4.8,10.9-12.6,10.9-21.4v-2.9c0-8.8-4.3-16.6-10.9-21.4h0Z"/>
  </g>
</svg>
