<?xml version="1.0" encoding="UTF-8"?>
<svg id="Réteg_1" data-name="Réteg 1" xmlns="http://www.w3.org/2000/svg" viewBox="0 0 409.19 709.78">
  <defs>
    <style>
      .cls-1 {
        fill: #1c395c;
      }

      .cls-2 {
        fill: #f39ea5;
      }

      .cls-3 {
        fill: #fbedde;
      }

      .cls-4 {
        fill: #fcddb8;
      }

      .cls-5 {
        fill: #3e649e;
      }

      .cls-6 {
        fill: #506b92;
      }

      .cls-7 {
        fill: #f1b3a7;
      }
    </style>
  </defs>
  <g id="Generatív_objektum_0_30_" data-name="Generatív objektum (0, 30)">
    <path class="cls-3" d="M154.96,130.8c-1.9,2.88-5.1,4.82-8.29,6.99l.74,10.2c-2.79,1.75-5.35,1.39-8.61,2.23,2.55,2.96,3.77,5.87,4.37,9.73l4.23,27.18c.1.67.38,1.76.16,2.83,6.6,3.95,17.62,6.02,17.23,1.99,2.47-.32,4.6-2.22,7.24-3.14l9.65-3.37-6.35-10.22c-1.96-4.78,2.37-16.4,5.77-20.1,1.94-2.11,3.04-4.99,3.71-7.88,9.25-4.36,20.11-5.08,30.87-3.65,1.38.18,1.5.91,2.32,1.55,5.05,3.94,7.34,9.34,11.67,13.27-.11.75-.38,1.43-.17,2.21-.98,0-1.75.38-2.2.86-.72.76-.39,1.42-.64,2.39l-1.24,4.8c-1.66.59-5.23.51-4.46-2.9l-8.67-1.32c-7.76,1.03-15.03,3.74-19.8,10.33-5.95,8.21.25,22.39-1.81,34.4-2.32.06-4.29-.74-6.81.15,1.77,1.79,4.09,1.86,5.94,2.63.44,4.37,3.2,6.29,6.02,9.32-3.91,2.24-6.46,5.36-7.8,9.6,2.86-.61,4.49.31,5.87,2.45-4.22,1.09-8.08,1.01-12.28.18l-8.72-.12c-2.3-.03-4.63-.64-7.37.64l14.36,3.64c3.19.81,5.82.83,9.24.64,1.02.46,2.72,1.1,3.94,1.17,1.32,4.96,8.9,6.82,8.51,11.45-.32,3.74-2.74,6.41-5.92,9.08,5.13,3.65,5.79,8.23,5.69,13.69l-.71,42.76c-1.15-.26-1.74-.1-2.21.24-1.73-.75-3.58-.29-5.43-.44-1.18-.1-2.91-1.49-4.76-.99-.81.22-.59,2.72.71,3.08.43-1.16.95-1.57,1.4-1.72.98-.32,1.14.3,1.11.9-.05,1.18-1.41.89-1.8,1.26-2.01,1.96-3.82,5.54-5.49,8.09-2.22,3.4-3.18,6.93-2.33,10.52l.26,1.1c.24,1.03,15.29,2.46,20.52,1.24.71.78,1.5.66,1.86,1.53,1.21,5.62-7.41-.72-10.53,3.45-1.63,2.18-1.28,5.53-.92,7.8l10.11,1.08c.92,5.14.96,10.36.08,15.56-3.7,1.79-6.96,3-10.89,2.92.49,1.36.03,1.89-.06,2.52-5.37-.73-10.23-3-15.56-4.52-3.77-2.75-6.55-6.77-10.28-10.01-3.22-2.8-5.22-5.21-7.64-8.63-3.34-4.71-7-8.52-9.57-13.94-2.84-6.01-6.01-11.71-8.51-17.91-.72-1.79-1.9-3.18-2.62-4.84.61.08.92-.14.94-.44.02-.48-.14-1.38-.28-1.8l-2.93-9.07c-3.35-10.4-3.27-22.12-4.77-33.49-3.75,12.53-6.68,24.09-11.08,35.89l2.96,26.87c2.79,8.64,5.29,17.18,6.57,26.3l9.56,33.6c.19.66.66,1.36-.33,2.91,2.55,2.87,2.57,6.28,3.79,9.38l11.19,28.5c-1.64.1-2.04-1.94-2.95-1.2-2.91-5.41-4.47-11.06-6.88-16.65-5.26-12.2-8.48-24.67-11.85-37.46-3.85-14.61-7.23-28.81-10.21-43.87-1.81-9.16-4.51-17.58-4.25-27.09-4.95,3.68-7.92,7.81-10.59,11.68l4.57,26.7,4.81,24.98,2.94,12.09c1.18,4.85,1.48,9.78,2.99,14.88,1.84,6.21,3.52,12.17,6.18,18.24l8.14,18.52.45,2.06c.1.45-.91.54-1.22.32l-6.33-10.58c-3.68-8.26-6.36-16.65-10.83-24.03l-2.87-12.4c-.13-.54.02-1.48-1.36-1.36-.31-1.71.63-3.8.35-5.59l-4.83-30.76c-.13-.82-1.21-.9-1.7-.69-.04-9.1-1.63-29.86-4.06-28.23-.99.66-2.84.55-4.37,1.17-10.23,16.4-16.64,34.42-18.65,53.68l-4.35,41.71-2.53,2.28c4.21,1.27,7.7,1.14,11.38,1.36l4.08.24c1.53.09,3.64,1.66,5,1.29-3.52,2.49-8.23,3.19-13.27,3.19-1.66,5.6,9.23,5.58,8.22,15.66-.88.51-2.39.34-3.48.83-2.2-.36-5.38-1.23-7.25-.2-4.68,2.6-15.92-.11-25.1,1.79-1.7,10.35-3.04,20.21-3.18,30.91,1.86-.09,1.6-2.36,2.01-3.17,1.47-2.87,4.76-6.04,8.17-5.87,8.71,0,17.5-.3,26.17,2.25,6.76,1.1,14.02,2.14,19.61,5.99l.25,18.67,2.08,11.3-3.12,20.16c-1.48,4.81-.82,9.18,2.62,12.95,1.34,5.49-3.48,10.65-8.08,10.85-3.97-12.11-2-26.79-4-34.45-.18-.68-1.64-.74-1.92-.55.18-1.12-.33-2.12-1.22-2.28-3.37-.63-4.11,6.28-3.55,12.64.5,5.68.31,11.39-.13,17.22-2.35.52-3.1,1.99-4.86,3.13-1.44.93-.38,3.4.56,4.67,1.17,1.6,2.65,1.74,4.6,1.57,1.46-.12,2.84-.1,4.68-.78l-.24,1.79c-10.59,6.61-15.51,20.17-18.55,32.78s-2.73,25.14-2.76,38.07l-.05,27.08c7.39-9.09,13.51-18.4,16.91-29.39l3.91-8.22c.24-.04,1.91.17,1.78.87-1.58,8.79-4.27,17.05-8.67,24.7-4.05,7.03-10.36,11.73-15.98,18.51,9.35-.75,13.05-6.82,19.16-11.6l-6.23,11.06-6.44,14.38c-.98,2.18-.87,3.68.77,5.74-9.58-4.11-18.4-10.87-23.98-20.08-2.55-4.2-5-9.56-5.24-14.51l-1.45-29.66c1.23-3.48,1.49-7.37,1.2-11.49-1.53-21.72-1.01-42.88,1.25-64.55l-2.78-15.13c-4.51,7.86-3.13,16.25-2.96,24.42l.63,30,1.08,18.23c-.77-1.27-.3-2.57-1.09-3.22l-1.46-16.73-2.04-15.75c-.16-1.26-.5-2.22-1.51-2.6,1.07-.7,2.12-.62,2.49-1.78.64-2.03-1.09-2.9-1.23-4.16-.87-7.8-.25-15.57-2.73-23.1l-1.44-9.93c-.75-5.18-3.47-10.27-2.64-15.46l1.1-1.07c.64-.62-.48-.89-.93-.87-.86.05-1.59.7-1.65,1.56l-.81,13.08.77,44.34,2.3,47.62c.34,6.99.84,13.37,2.14,19.71-2.28-6.3-8.39-12.12-8.72-19.83l-5.11-118.34c-.36-8.42,7.86-17.42,17.25-15.32.67-12.54,1.64-27.37,11.04-32.82,3.51-24.99,5.86-48.64,8.03-73.06,1.29-14.48,2.93-28.04,6.46-42.02,5.7-22.63,19.92-42.88,41.98-51.08,18.1-6.73,26.01-17.21,22.5-36.28-1.31-7.14-.15-14.44,1.34-21.43.46-2.18-1.32-3.48-1.58-5.17l-8.54-55.1c-1.34-8.64-3.64-13.76.11-24.73,2.52-7.39,22.22-4.34,33.2-6.41l-.18,6.6ZM191.85,168.83c2.09-1.62,1.14-3.03.47-3.77-.84-.92-1.68-1.91-3.41-.96,1.46,1.48,2.3,3,2.94,4.73ZM172.25,257c-.29.13-.56,1.48-.12,1.62l2.09.69c3.27,1.09,6.25,2.6,8.33,5.05-.75.39-.9,1.19-.85,1.52.04.27.14.52.43.61,1.03,1.31-.65,1.99-.86,2.82-.64,2.5-.45,5.28-.18,7.84.47,1.19,3.55.69,4.67.44.47,3.58-11.46,3.55-19.81,2.86,6.34,6.67,15.15,5.79,22.2,2.12,3.73-1.94,2.28-4.56,3.11-6.88s3.23-6.62.02-9.3c1.4-.39,1.69.61,2.33.46.74-.17,2.97-1.32,2.57-2.05-2.1-3.81-5.88-5.7-9.82-7.09-9.14-3.21-28.37-8.36-32.11-3.86-.75.9-1.09,4.36.36,4.11l6.84-1.17c4.09,1,7.39.31,10.79.2ZM163.17,263.24c1.79-1.17.54-3.05-.53-3.23-.77,1-.36,3.09.53,3.23ZM168.52,263.39c.91.8,2.32,2.11,4.4,1.18l3.16.7c.58-1.84,1.75-1.27,2.38-1.64-3.92-1.04-7.27-2.69-11.32-2.03-.49.65,1.01,1.46,1.37,1.78ZM158.67,268.76c1.24-1.57.58-5.7-1.63-5.94-1.77-.19-2.28,2.35-1.45,3.43.61.78,1.34,2.03,3.08,2.5ZM177.57,270.32c-1.35-3.32-6.06-4.4-8.37-2.71-1.59,1.16-.59,4.01.15,5.17.95,1.5,2.86,3,5.2,2.3,1.35-.4,3.73-3,3.02-4.76ZM66.18,546.69l8.3,2.87c2.04.7,4.28.74,6.39.9l1.56.12c0,.46.29.54.54.67,1.6.82.57-1.03-.32-4.08l-.96-3.26-1.39-26.83-.63-2.89c-.13-.59-1.28-.73-1.85-.92-.01-.85-.56-1.96-1.57-2.12-4.65-.75-2.85,19.98-1.58,30.4-2.54,1.71-5.63.4-8.32.67l-.83-1.56c-.89-7.6-1.04-15.29-1.02-23.34,0-2.52-.52-4.38-2.06-5.66-.63-.53-.92-1.74-2.23-1.86-1.59-.15-2.54,1.18-2.49,2.98l.66,24.61c.07,2.51,2.31,3.95,3.03,5.58,1.3,2.98,2.48,2.93,4.76,3.72Z"/>
    <path class="cls-1" d="M118.67,401.96l1.24,5.48c.88,12.16,6.3,20.28,6.74,26.6.25,3.67-.15,7.5,1.02,11.42,8.44,4.84,19.02,12.57,21.07,6.19l4.66,1.97c.27,1.6-.04,3.34.69,5.01,15.38,4.41,31.13,5.54,47,4.56,5.58-.35,10.62-.85,15.46-2.86.62.01.39.1.56.3.52.62,1.39.1,1.82-.87l-.42-1.12,1.04-1.15,1.11.17c-.16.79-.14,1.76-.55,2.47-.26.44-1.13.37-2.44,1.18,1.91,1.44,4.2,1.5,6.83,1.14,7.17.21,14.06.09,20.87-1.77,7.18,1.57,13.89,1.6,21.14.91,9.27.59,18.89-1.38,27.33-4.76l3.24.62c2.44-1.02,6.49-.54,8.76-.71.41-.03,1.34.92,1.93,1.05,2.27-1.89,6-.41,8.11-.59l16.78-1.42c11.11-1.67,21.79-6.5,28.06-15.98l3-9.59c-1.05,6.57-.56,13.51.91,20.26l.78,25.91,3,22.36.67,7.92,1.87,13.66c-1.23,4.7-1.92,9.21-2.07,14.12l-1.27,40.97-2.58,65.21c5.13-2.11,6.41-6.3,8.91-9.66-.18,3.8-1.53,6.58-4.24,9.85l-9.48,11.42c-5.97,11.2-12.78,21.5-22.12,30.33-11.5,5.89-23.9,8.12-36.91,7.47-5.26-1.08-9.08,1.56-13.58,3.36-12.28,4.9-25.41,6.92-38.58,8.23l-16.18,1.61-60.77,1.94c-13.22,2.67-25.83,2.43-38.81-.9-8.65-3.34-15.78-8.85-22.26-15.35-22.89-4.89-43.86-10.77-57.58-30.31-.23-.79,0-1.54.74-1.8,5.59,9.21,14.4,15.97,23.98,20.08,6.28,2.69,12.67,5.14,19.57,6.15,2.54.37,5.15,1.11,8.04-.57l-2.2-16.91c-1.57-12.07-3.17-23.79-3.53-36.05-.44.53-1.58.77-2.05,1-1.68,2.4-1.8,5.83-4.51,8.32-1.49-4.34.91-8.6,3.36-11.46,1.33-5.2,2.22-9.2,2.49-14.11l2-36.22c.5-8.99.78-17.29-.88-25.9,2.98.72,4.64,1.2,6.14,2.48l-2.86,24.93-.19,34.72c-.02,4.16-.32,8.48.17,12.74l1.23,10.7c1.21,10.47,2.66,20.45,4.7,30.73l4.48,22.65c4.46,4.47,11.66,8.68,17.6,10.38,6.37,1.82,12.82,4.4,19.27,3.92,6.37-.48,13.19-1.25,18.6-4.19.58-.31,1.23,0,2.39.14,1.52-1.7,2.26-5.57.97-7.01-6.26-2.82-9.52-1.01-14.13-.58-2.37-1.42-5.46-1.8-7.21-4.32,3.42-.81,6.89-.84,10.13-.15,1.96.41,4.42-.1,6.08,1.17,1.37,1.05,3.4.26,4.98.7,6.41,2.52,12.29,4.11,18.78,4.86l-9.51,1c-1.43.15-2.86,2.01-2.7,3.69,5.06,1.46,11.33,2.67,15.82,1.04l23.7-.46c14.31-.26,28.27-2.12,41.99-4.03,1.8-2.28,4.19-1.63,6.37-2.29l8.95-2.59c-.73,2.07-3.52,2.13-5.78,3.02,2.45.84,5-.59,7.58-1.05,7.33-1.3,13.77-4.3,18.32-10.75,1.41,2.75,2.18,3.89,4.06,3.83l18.5-.53,3.96-1.69c5.41-2.31,13.3-2.41,16.88-7.12l8.08-10.63c2.34-3.08,5.96-6.69,7.17-10.4l2.63-50.03,3.86-64.84c.51-.9,1.8-2.21,1.99-3.69,2.59-19.9,1.95-39.68-1.73-58.91.98-3.61-1.11-7.21-4.38-9.48-2.95-2.27-6.7-1.71-10.36-2.16-13.37-1.63-26.61-3-40.11-.22-4.42.91-8.76,4.36-9.99,8.45-.75,2.51.56,4.97.71,6.69l1.45,17.18,1.35,15.06c1.43,15.89.33,24.37-2.47,38.55l-21.79,2.3-20.95,1.25c-.55,2.97.48,5.86,2.13,8.18,2.28,3.22,5.37,6.06,4.14,10.42l-5.81-6.32c-.62-4.26-4.88-11.26-10.05-11.23l-29.15.17c-2.32.01-.95,6.38.56,7.43l6.91,22.67c-1.6-.06-2.36-1.42-3.36-2.68l-7.46-16.71c.06-6.97-5.69-10.96-12.89-11.05l-19.3-.23c-.88,2.2-.14,4.49.01,6.47l.55,7.27c.17,2.23,4.37,15.77,2.19,15.97l-1.3.13-5.58-20.81c-.39-1.47.91-4.64-.57-6.05-1.07-1.01-2.69-3.2-4.94-3.26l-23.31-.58c-1.38,1.34-.79,4.17-.89,5.46l-.1,1.16c-.48-.04-.85.26-1.28.67-.27-2.22-.97-3.89-2.16-5.28.81-.14-.71-1.64-.47-2.1.7-1.24,1.44-3.32.8-4.74-2.04-4.57-1.22-9.98-1.47-15.28-.64-13.2.05-25.84,3.07-38.69l1.09-7.21,1.43-7.3c.57-2.9,1.44-6.13.3-9.58l-22.89-1.36c-2.18.84-4.58,6.03-2.78,7.79-3.87,8.24-5.42,17.32-6.05,26.5-.81.02-1.26.55-1.36,1.93-1.64-2.05-1.46-4.42-1.34-6.83l.72-14.41c2.33-3.6,3.22-9.8.2-13.78-3.82-5.03-9.87-7.62-15.92-8.38l-22.85-2.88c-6.71-.85-13.34.78-18.62,5.17,1.69.21,2.85-.02,3.44.97-3.4-.17-6.7,3-8.17,5.87-.57.05-.71-.15-.84-.4-.39-.74.32-1.75.42-2.22l1.52-7.05c4-2.11,8.43-3.14,11.87-6.65-2.35-2.98-6.34-4.44-9.92-4.18.12-.39.21-2.16.42-1.88.29.38,1.37,1.15,1.69-.52,6.8,1.65,13.56,1.97,20.49,1.84l.19,2.73,24.99.8c3.48.11,6.79-2.31,9.61-4.14,8.17-5.28,9.13-19.05.9-25.38-.36-1.52,1.84-3.58,3.25-4.23l-1.84-14.83c.24-6.76.12-13.14-1-19.35,1.39-.12,1.23.82,1.36,1.36l2.87,12.4ZM153.57,482.49c-3.45,9.46-5.19,19.06-6.93,29.19-.5,2.89-1.46,5.57-1.42,8.9l.17,13.49,1.16,16.13c.12,1.63,2.93.76,3.5-.06,1.56-.49,2.35.57,2.03,2.06l26.49.71,18.36.18,50.13-.52,41.15-1.87c2.76-.13,4.46-1.52,6.08-2.7,2.64-1.92,1.35-4.55,1.92-7.12,1.15-5.14,2.09-9.17,1.96-13.81l-.38-13.86-2.76-21-1.84-8.6c-.38-1.8-.57-6.53-3.38-6.23l-14.3,1.57c-26.29,1.36-52.44,1.33-78.65.78-.25-1.92-1.19-2.93-2.81-3.08l-34.08-3.17c-1.91-.18-3.84,1.9-4.31,3.19l-2.12,5.82ZM100.33,621.2c-.44.79.48,1.41,1.09,1.05.24-.14.41-.46.12-.86-.15-.21-.7-1.1-1.21-.19Z"/>
    <path class="cls-5" d="M363.72,430.23l-3,9.59c-6.27,9.48-16.94,14.31-28.06,15.98l-16.78,1.42c-2.11.18-5.84-1.3-8.11.59-.59-.13-1.51-1.08-1.93-1.05.06-.1.15-.67.34-.82,8.88.55,16.98-.67,25.77-2.99,5.04-1.33,11.48-3.85,13.31-9.04-3.87-7.54-1.93-13.46-4.53-16.12,6.08-.42,20.1-5.42,17.01-12-3.16,3.42-6.23,5.54-10.58,6.25l-7.22,1.19c1.78-8.68,1.63-17.6.25-26.37-.12-.77-1.88-1.36-2.65-1.5.7-1.44,2.04-3.1,2.34-4.72-1.45-16.47-3.63-35.17-13.78-47.31-6.46-7.74-15.72-7.74-23.42-1.96-8.74,6.56-15.58,14.45-21.16,23.38l-2.92,4.67c-10.78,15.35-19.91,31.73-29.29,48.36-3.31,5.87-6.63,11.57-11.63,15.21l4.78-8.44c7.96-12.35,14.28-25.11,18.8-39.01l5.33-13.92c-13.92,7.53-28.09,12.47-43.7,12.88-11.8.31-22.95-3.17-33.14-7.21-.22-.94-.11-2.11.83-2.13,1.01.75,1.6.35,1.7-.59l4.06.55c-.3.48.08,1.06.38.98.38-.1,1.15.15,1.46.85,11.45-.76,22.07,3.15,32.07-1.36l-7.5-.65c3.66-.19,7.15-.86,10.64-1.04,1.63-.08,3.54.19,5.71-.97,4.7-2.52,8.9-5.89,12.86-9.75l22.03-21.5c8.5-8.29,14.73-18.2,20.81-28.44,7.24-12.19,12.05-24.86,12.87-39.24,8.78,4.35,16.62,9.66,24.01,16.88,21.03,20.56,22.73,46.99,24.78,75.31l3.8,52.59c.91,4.1.36,8.35,3.49,11.46Z"/>
    <path class="cls-5" d="M290.75,261.67c-1.06,10.96-2.2,21.81-4.66,33.04-5.88,26.82-9.36,42.96-29.77,61.58l-9.95,9.08c-1.77,1.62-4.32,1.8-5.84,3.39,1.02-1.61,2.75-3.1,5.01-4.06l10.63-35.31,9.31-36.41.64-4.91c-.16-6.95-2.77-13.08-5.05-19.49-4.2,8.04-9.16,16.19-15.34,11.56,5.95-2.88,10.09-6.75,13.08-12.05-1.59-2.11-3.33-3.41-5.23-4.06l-4.4-1.49c-7.71-.41-15.53.61-22.97,2.24l-9.13-1.1c-1.76-2.56,9.03-5,15.6-5.95-2.78,7.74,10.37-.05,16.24,1.82l10.79,3.44c2.74-3.24,2.18-7.84,2.13-11.94-.06-4.7-1.75-8.62-5.11-12.05-.16-.42-.11-.98.08-1.24.23-.31.89-.48,1.47-.66l16.25-4.83c1.02-.3,3.14-.79,3.55.86l6.14,24.93c1.5-2.56,2.64-5.93,2.13-8.52l-4.07-20.46,1.85-5.55c-3.55.71-5.64,3.46-8.73,5.04-11.9,6.11-25.22,8.29-38.72,9.46-2.04.18-3.46-.3-4.24-1.58,1-1.39,2.47-1.73,3.08-4.47-1.73-.55-4.12-.04-5.51-2.22,8.55-.12,16.38.1,24.97-.88,1.19-6.25,2.17-12.61,2.15-19-2.43-.84-4.04,1.39-5.42.75-.42-.19-.4-1.4.07-1.62l6.25-2.94c-.13-3.33.06-5.99,1.14-8.38,9.47-.57,15.63,1.28,17.55-7.38l5.55-25.14,11.82-.97c3.83-.31,6.53-2.61,8.18-5.97l-6.75,40.3-4.04,17.69c1.44,15.57.74,30.4-.71,45.43Z"/>
    <path class="cls-3" d="M300.4,131.34l-1.87,18.68c-.16,1.53-3.43,1.52-4.55,1.48l-14.63-.64-6.05,36.96c-4.45.83-8.62.27-13.3-.68-.71,3.2-1.7,6.35-1.33,8.97-.79.16-1.46-.19-1.22-1.71-1.61,1.57-3.43.17-4.61.23l-.19-.6c.33-.23.75-.25.98-.18.68.22,1.27.37,1.95.17.97-.28,1.31-1.31,1.53-2.41l2.19-11.21.9-5.09c.9-5.11,2.84-9.69,2.84-14.72,7.07-1.94,12.03-8.3,12.05-15.6,0-1.38.96-3.02-.1-4.55-.66-.95-1.9-1.66-3.68-1.44l.22-14.08-6.83-1.91c-1.46-.41-2.34.85-2.91,1.8l.61-5.4,19.21.96c.9,2.13,1.06,4.1,1,6.65l15.87,2.37c1.52.23,1.58,1.29,1.91,1.97Z"/>
    <path class="cls-1" d="M307.65,273.98c-.82,14.37-5.63,27.05-12.87,39.24-6.08,10.24-12.31,20.15-20.81,28.44l-22.03,21.5c-3.95,3.86-8.16,7.23-12.86,9.75-2.16,1.16-4.07.88-5.71.97,2.09-3.44,5.58-2.62,7.16-5.1,1.52-1.6,4.07-1.78,5.84-3.39l9.95-9.08c20.41-18.63,23.9-34.76,29.77-61.58,2.46-11.24,3.61-22.08,4.66-33.04,5.5,4.02,10.78,9.28,16.9,12.31Z"/>
    <path class="cls-5" d="M384.67,522.94c-.96,5.91.66,10.63-6.52,12.55l-1.64,42.59-2.56,52.89c-2.49,3.36-3.78,7.55-8.91,9.66l2.58-65.21,1.27-40.97c.15-4.92.84-9.42,2.07-14.12.21,1.53.53,2.92-.71,5.57,1.44,1.45,5.71,2.52,8.41,1.69,1.97-.61,4.18-2.5,6.01-4.65Z"/>
    <path class="cls-4" d="M39.82,555.83c-.51,2.33.32,4.62.44,6.87l2.32,42.56.84,26.74c-2.67-.09-3.1-1.79-4.66-2.28-.56-1.09-1.33-2.79-1.57-3.94-1.29-6.35-1.8-12.72-2.14-19.71l-2.3-47.62-.77-44.34.81-13.08c.05-.86.79-1.51,1.65-1.56.45-.03,1.57.24.93.87l-1.1,1.07c-.82,5.19,1.89,10.28,2.64,15.46l1.44,9.93c2.48,7.53,1.86,15.29,2.73,23.1.14,1.26,1.87,2.13,1.23,4.16-.37,1.16-1.41,1.08-2.49,1.78Z"/>
    <path class="cls-1" d="M255.05,155.86c1.95,1.61,5.22,5.48,7.99,4.72,0,5.03-1.94,9.6-2.84,14.72l-.9,5.09-7.57,1.68c-2.46,4.41-.76,8.42,1.9,11.78-.22-.07-.64-.06-.98.18-6.06-2.94-17.7-6.1-21.02-2.65l-2.01-1.7c-.79-3.73-.35-8.46,3.26-10.8l5.5-1.46c.16-8.71-1.36-16.61-8.9-16.78-.21-.78.06-1.46.17-2.21.13.04.58-.56.78-.76,9.06-1.54,21.23,2.86,22.19,1,.22-.43-.34-1.33-.57-1.96l-.73-2.03c-.08-.22.41-.66.89-.49.78.86,2,1.02,2.84,1.71ZM235.23,181.13l1.84-1.06c.75-.44.47-1.31.01-1.79l-4.65,3.93c1.55.72,1.95-.58,2.8-1.07Z"/>
    <path class="cls-2" d="M302.26,158.25c-1.65,3.37-4.36,5.66-8.18,5.97l-11.82.97-5.55,25.14c-1.91,8.67-8.08,6.82-17.55,7.38.26-.59-.12-1.26-.49-1.62-.37-2.62.63-5.77,1.33-8.97,4.68.95,8.85,1.51,13.3.68l6.05-36.96,14.63.64c1.12.05,4.39.05,4.55-1.48l1.87-18.68c4.19,8.7,3.39,17.77,1.86,26.92Z"/>
    <path class="cls-6" d="M184.8,147.23c-.67,2.89-1.77,5.78-3.71,7.88-3.4,3.7-7.72,15.31-5.77,20.1l6.35,10.22-9.65,3.37c-2.64.92-4.77,2.82-7.24,3.14-.15-1.58.9-3.27,1.63-4.66.85-1.62.24-2.41-.74-4l-3.37-5.44-2.23.63c-2.71-5.94-2.74-12.73-2.47-19.21,1.35.78,1.86,1.59,3.26.55-.34.63-.99,1.37-.85,2.49,3.11-1.51,4.78-4.4,5.53-7.33.55-.52.94-1.37,2.24-1.82l17.02-5.92Z"/>
    <path class="cls-4" d="M263.04,160.57c-2.77.76-6.04-3.1-7.99-4.72.61-.83,1.28-1.6,1.56-2.65,2.56-9.49,4.11-18.94,5.19-28.41.57-.95,1.45-2.21,2.91-1.8l6.83,1.91-.22,14.08c1.78-.21,3.01.49,3.68,1.44,1.06,1.52.11,3.17.1,4.55-.02,7.3-4.98,13.66-12.05,15.6Z"/>
    <path class="cls-2" d="M156.22,130.11c-.94,3.74-.77,6.95-.26,10.39l2.38,15.48-.69,2.24c-3.75,1.49-5.88,5.29-6.15,9.44l-1.15,17.13c-.03.16-.14.47-.07.74l-2.88,1.6-4.23-27.18c-.6-3.86-1.82-6.76-4.37-9.73,3.27-.83,5.83-.48,8.61-2.23l-.74-10.2c3.19-2.17,6.4-4.11,8.29-6.99.26.1.93.27,1.26-.69Z"/>
    <path class="cls-3" d="M379.23,485.92l2.58,8.09c-.79.41-1.86.38-2.81,1.42,1.92,6.84-3.29,2.14-10.58,3.32l-3-22.36c.29-.15.29-1.45.25-2.08,2.3-1.81,5.82-2.31,8.86-1.41l4.71,13.01Z"/>
    <path class="cls-5" d="M252.21,154.15c-.48-.17-.97.27-.89.49l.73,2.03c.23.63.79,1.53.57,1.96-.96,1.86-13.13-2.54-22.19-1-.2.2-.65.8-.78.76-4.32-3.93-6.62-9.32-11.67-13.27,10.28.28,20.18,3.19,30.47,6.3,1.54.47,2.78,1.63,3.76,2.72Z"/>
    <path class="cls-2" d="M384.67,522.94c-1.83,2.15-4.04,4.04-6.01,4.65-2.69.84-6.97-.23-8.41-1.69,1.24-2.65.92-4.04.71-5.57l-1.87-13.66,5.56,3.23c3.4,1.93,7.45,2.11,9.38-1.89.79-1.64.11-4.36.39-6.17,2.28,6.84,1.38,14.12.24,21.09Z"/>
    <path class="cls-5" d="M379.23,485.92l-4.71-13.01c-3.03-.9-6.56-.4-8.86,1.41.05.63.05,1.93-.25,2.08l-.78-25.91c3.84,1.22,6.62,4.48,7.67,8.57l4.55,17.64c1.9,2.36,1.92,5.26,3.08,7.8.59.57.31,1.33-.7,1.43Z"/>
    <path class="cls-4" d="M384.43,501.85c-.28,1.81.39,4.53-.39,6.17-1.93,4-5.98,3.82-9.38,1.89l-5.56-3.23-.67-7.92c7.29-1.19,12.5,3.51,10.58-3.32.96-1.04,2.02-1.01,2.81-1.42l2.61,7.84Z"/>
    <path class="cls-1" d="M46.54,608.28l.97,4.39,1.45,29.66c-1.73-.66-3.36-2.41-4.15-4.18-1.56-3.47-4.48-5.4-6.05-8.43,1.56.48,1.99,2.18,4.66,2.28l-.84-26.74c1.84-1.12,2.07,1.09.98,1.51-.17,1.54.6,2.07,1.91.76-.22,1.88-.46,2.57.65,3.87l.41-3.12Z"/>
    <path class="cls-5" d="M157.6,159.26c-.27,6.48-.24,13.27,2.47,19.21-2.21,3.46-6.01,5.14-9.73,6.32l1.15-17.13c.28-4.15,2.4-7.95,6.15-9.44l-.04,1.04Z"/>
    <path class="cls-5" d="M158.34,155.98l-2.38-15.48c-.5-3.44-.68-6.65.26-10.39l3.41,21.94c.27,1.76.4,3.5-1.29,3.93Z"/>
    <path class="cls-1" d="M160.86,159.81c1.06-1.98,3.13-3.37,4.67-4.84-.75,2.93-2.41,5.82-5.53,7.33-.13-1.12.52-1.86.85-2.49Z"/>
    <path class="cls-4" d="M135.84,436.56c.31.22,1.31.13,1.22-.32l-.45-2.06-8.14-18.52c-2.67-6.06-4.34-12.02-6.18-18.24-1.51-5.1-1.81-10.04-2.99-14.88l9.88,1.21c4.6,18.79,10.87,35.24,21.57,48.41.91-.74,1.31,1.29,2.95,1.2l-11.19-28.5c-1.22-3.1-1.24-6.51-3.79-9.38.99-1.55.51-2.25.33-2.91,4.66-.03,4.95,4.02,9.97,4.62.63.08,2.24-.56,1.86-1.75l-9.11-28.42c-2.29-7.14-5.46-12.93-8.57-19.81-2.66-5.88-1.25-13.97-1.98-20.97l9.11,17.86c6.64,13.01,14.14,24.64,24.46,35.26,12.98,13.37,25.6,25.89,44.42,25.67,10.69-.12,20.63-2.67,30.53-6.3,2.17-.79,4.79-.37,7.08,1.08l-14.01,21.7c-4.7,7.27-9.79,13.57-16.33,19.26-12.26,10.67-28.53,15.32-43.69,8.89-5.84-2.48-10.54-6.05-15.95-10.04.9,6.1,6.09,8.04,10.04,13.06-7.3-1.44-13.33-5.1-20.07-7.74-4.31-1.69-8.7-4.58-10.96-8.35Z"/>
    <path class="cls-2" d="M135.8,303.38c-1.49,1.53-.97,3.82-.13,5.77l2.39,5.53c.72,1.66,1.89,3.05,2.62,4.84,2.5,6.2,5.67,11.9,8.51,17.91,2.57,5.42,6.23,9.23,9.57,13.94,2.43,3.42,4.42,5.83,7.64,8.63,3.73,3.25,6.52,7.27,10.28,10.01,4.07,2.97,8.22,5.33,13.03,7.24,10.2,4.04,21.35,7.52,33.14,7.21,15.62-.41,29.78-5.35,43.7-12.88l-5.33,13.92c-4.52,13.91-10.85,26.67-18.8,39.01l-4.78,8.44c-2.74,1.99-4.9,4.87-6.96,7.44-5.8,7.25-19.28,17.54-29.46,18.38-.63.05-1.43,1.24-1.98,2.03-8.84-.27-17.58-.33-26.1-2.86-1.99-.59-3.37-2.27-6.05-1.86-4.76.72-9.65-.76-13.72-2.47l-4.66-1.97c-8.55-3.61-15.71-10.46-22.09-17.61-.44-6.32-5.86-14.44-6.74-26.6l-1.24-5.48c4.47,7.38,7.15,15.77,10.83,24.03l6.33,10.58c2.26,3.78,6.66,6.67,10.96,8.35,6.74,2.64,12.77,6.3,20.07,7.74-3.96-5.02-9.15-6.96-10.04-13.06,5.41,3.99,10.1,7.56,15.95,10.04,15.16,6.43,31.42,1.78,43.69-8.89,6.54-5.69,11.63-11.98,16.33-19.26l14.01-21.7c-2.29-1.45-4.91-1.87-7.08-1.08-9.9,3.63-19.84,6.18-30.53,6.3-18.83.22-31.44-12.31-44.42-25.67-10.31-10.62-17.82-22.25-24.46-35.26l-9.11-17.86c.74,7-.68,15.09,1.98,20.97,3.11,6.88,6.28,12.67,8.57,19.81l9.11,28.42c.38,1.2-1.23,1.83-1.86,1.75-5.02-.6-5.31-4.65-9.97-4.62l-9.56-33.6c-1.28-9.12-3.78-17.65-6.57-26.3l-2.96-26.87c4.39-11.8,7.33-23.36,11.08-35.89,1.5,11.37,1.41,23.09,4.77,33.49Z"/>
    <path class="cls-4" d="M253.57,264.04c1.9.65,3.64,1.95,5.23,4.06-2.99,5.3-7.13,9.16-13.08,12.05,6.18,4.63,11.14-3.53,15.34-11.56,2.29,6.41,4.89,12.55,5.05,19.49l-.64,4.91-9.31,36.41-10.63,35.31c-2.26.96-3.99,2.45-5.01,4.06-1.57,2.48-5.06,1.67-7.16,5.1-3.49.18-6.99.85-10.64,1.04-8.75.18-17.59,1.38-26.41.18l-4.06-.55c.09-.64.55-1.17.06-2.52,3.93.08,7.18-1.13,10.89-2.92.87-5.2.84-10.42-.08-15.56l-10.11-1.08c-.36-2.27-.71-5.61.92-7.8,3.12-4.17,11.73,2.17,10.53-3.45l21.71.11c.4,0,.57-1.2.24-1.44s-1.37-.71-1.95-.73l-7.95-.25c-.25-.84-.88-.71-1.65-.68l-12.13-.06c-2.74-3.5-1.26-8.36-5.55-7.15l-7.5,2.11c-.92.26-1.98.61-2.28,1.49-.36,1.03,1.02,1.31,1.66,1.98l-7.24.74c-.84-3.59.11-7.11,2.33-10.52,1.67-2.55,3.48-6.13,5.49-8.09.38-.37,1.75-.08,1.8-1.26.02-.59-.14-1.22-1.11-.9-.45.15-.97.56-1.4,1.72-1.3-.35-1.52-2.86-.71-3.08,1.85-.49,3.58.9,4.76.99l-.11,1.26c2.62,6.59,16.49,9.08,23.72,6.65,3.42-1.15,7.97-7.84,7.83-11.46-.36-9.48-3.19-17.67-2.44-26.99.24-2.97,1.82-5.73.83-8.48l-1.09-3.04c.32-1-.11-2.21.87-3.16.89,5.06,8.99,7.8,14.09,8.06-1.21-.81-.92-1.11-1.36-1.18,2.02-.02,4.69.14,6.04-1.23.83-.84,2.86-2.18,1.01-3.83-.28-.25-.32-1.04.17-1.43.38-.31.86-1.11.91-1.77.04-.51,0-1.08-1.54-1.91.23-.89,1.55-2.21.48-3.5,8.71-1.69,11.97,2.86,11.2-.16Z"/>
    <path class="cls-4" d="M225.4,168.65c3.13,6.51-5.27,7.56-5.58,12.95l-.68,11.86c4.01.3,7.87-1.01,10.48-3.81l2.01,1.7c-.01,2.05,1.53,5.71,4.22,6.1,6.05.87,11.66-1.16,17-2.84,1.18-.06,3,1.34,4.61-.23-.25,1.53.43,1.87,1.22,1.71.37.36.75,1.04.49,1.62-1.07,2.39-1.26,5.05-1.14,8.38l-6.25,2.94c-.47.22-.49,1.43-.07,1.62,1.38.64,2.99-1.59,5.42-.75.01,6.38-.97,12.75-2.15,19-8.6.97-16.42.76-24.97.88,1.39,2.17,3.78,1.67,5.51,2.22-.61,2.74-2.08,3.08-3.08,4.47-.44-.36-1.73.19-2.2.98l-36.38-.05-19.57-2.91c-.64-.09-1.46-.58-1.42-1.14l8.72.12c4.2.83,8.06.91,12.28-.18-1.37-2.13-3.01-3.06-5.87-2.45,1.35-4.24,3.89-7.36,7.8-9.6-2.82-3.02-5.58-4.95-6.02-9.32-1.85-.78-4.18-.84-5.94-2.63,2.52-.89,4.49-.08,6.81-.15,2.06-12.01-4.14-26.18,1.81-34.4,4.77-6.59,12.04-9.3,19.8-10.33l8.67,1.32c-.76,3.41,2.81,3.49,4.46,2.9ZM212.75,193.06c2.76-2.46,3.36-5.24,2.77-8.48-1.1-6.13-11.5-10-16.81-7.11-6.69,3.63-3.29,15.17,1.64,17.99,3.6,2.06,9.21.44,12.4-2.4Z"/>
    <path class="cls-2" d="M108.26,351.15l.21,44.32c.04,8.69.65,17.03-.62,25.62-.34,2.27-7.3,1.45-5.92,3.77.36.61,3.83,1.09,5.86,3.55.3,5.63,1.11,11.86-.08,17.71-4.48,5.49-18.78,6.38-27.64,5.58-.42-.04-1.57,1.21-1.72.89-6.93.13-13.69-.19-20.49-1.84-.32,1.67-1.4.9-1.69.52-.21-.28-.29,1.49-.42,1.88-.86,2.72-1.28,7.74-1.94,10.83l-1.52,7.05c-.1.47-.81,1.48-.42,2.22.13.25.27.46.84.4-.42.81-.15,3.08-2.01,3.17.14-10.7,1.48-20.56,3.18-30.91,9.18-1.9,20.42.81,25.1-1.79,1.87-1.04,5.05-.17,7.25.2,3.92.65,11.26,1.22,12.99-3.69s-.3-10.55-.67-15.1c-.66-1.23-2.89-1.13-3.79-.89-1.36.37-3.47-1.2-5-1.29l-4.08-.24c-.08-.73-.07-1.45.38-1.96.74-.86,4.22-.11,7.44-1.18l1.67-23.84c1.54-22.05,3.77-43.41,8.13-65.17l.91-8.05c2.43-1.63,4.02,19.13,4.06,28.23Z"/>
    <path class="cls-4" d="M256.73,239.01c3.35,3.43,5.04,7.35,5.11,12.05-6.27.65-12.95,2.69-12.92,8.5-5.87-1.87-19.02,5.92-16.24-1.82-6.58.95-17.36,3.4-15.6,5.95-.42-.03-.84.08-1.38.22-.9.24-1.63,1.79-3.28,1.59-1.19-.14-2.23-.04-3.02.54s-1.3,1.69-1.41,2.8c-1.7,16.18,1.35,31.98-.93,47.88-2.86.96-6.16,1.02-8.66-.07.47-.33,1.06-.5,2.21-.24l.71-42.76c.09-5.46-.56-10.04-5.69-13.69,3.18-2.66,5.61-5.34,5.92-9.08.39-4.63-7.19-6.49-8.51-11.45,21.15,1.28,42.5,1.42,63.69-.43Z"/>
    <path class="cls-2" d="M114.62,486.7l-.72,14.41-1.5,11.86c-1.02,10.63.03,21.48.82,32.55.14,2.02-.31,3.62-1.65,4.68-.61.48-1.59.91-1.56,1.96l-3.4,1.49c-1.5-1.28-3.16-1.76-6.14-2.48,1.66,8.62,1.38,16.91.88,25.9l-2,36.22c-.27,4.91-1.16,8.91-2.49,14.11-2.45,2.86-4.85,7.12-3.36,11.46,2.7-2.48,2.82-5.91,4.51-8.32.47-.23,1.61-.46,2.05-1,.36,12.26,1.96,23.98,3.53,36.05l2.2,16.91c-2.89,1.68-5.5.94-8.04.57l-.96-30.98-2.17-12.26c-2.55,1.6-3.42,3.94-4.54,5.92-6.11,4.77-9.81,10.85-19.16,11.6,5.62-6.77,11.93-11.47,15.98-18.51,4.4-7.64,7.09-15.91,8.67-24.7.13-.7-1.55-.92-1.78-.87-.2-.41-.61-.84-1.67-.89l.92-20.05c1.46-13.3,2.58-26.24,2.25-39.21-.03-1.22.56-1.99,1.39-3.08.78-1.03.08-2.86.14-3.78,1.97-.15.78,2.16,1.72,2.95.35.3,1.35.8,1.87.78,4.6-.2,9.43-5.36,8.08-10.85-3.44-3.77-4.11-8.14-2.62-12.95l3.12-20.16-2.08-11.3-.25-18.67c3.53,2.43,7.35,6.55,7.96,10.66Z"/>
    <path class="cls-4" d="M95.29,553.11c.33,12.97-.8,25.91-2.25,39.21l-.92,20.05c1.06.05,1.47.47,1.67.89l-3.91,8.22c-3.4,11-9.52,20.3-16.91,29.39l.05-27.08c.02-12.92-.24-25.66,2.76-38.07s7.96-26.17,18.55-32.78l.96.17Z"/>
    <path class="cls-4" d="M85.68,423.13c-3.67-.22-7.17-.09-11.38-1.36l2.53-2.28,4.35-41.71c2.01-19.26,8.41-37.28,18.65-53.68,1.53-.62,3.38-.51,4.37-1.17l-.91,8.05c-4.36,21.76-6.59,43.12-8.13,65.17l-1.67,23.84c-3.22,1.07-6.7.32-7.44,1.18-.45.52-.46,1.23-.38,1.96Z"/>
    <path class="cls-2" d="M150.75,432.16c-10.7-13.17-16.98-29.62-21.57-48.41l-9.88-1.21-2.94-12.09-4.81-24.98-4.57-26.7c2.67-3.88,5.64-8,10.59-11.68-.26,9.51,2.44,17.93,4.25,27.09,2.98,15.06,6.36,29.26,10.21,43.87,3.37,12.8,6.59,25.26,11.85,37.46,2.41,5.59,3.96,11.23,6.88,16.65Z"/>
    <path class="cls-5" d="M114.44,388.19c1.12,6.21,1.24,12.59,1,19.35l1.84,14.83c-1.41.65-3.61,2.72-3.25,4.23,8.23,6.33,7.27,20.1-.9,25.38-2.82,1.82-6.13,4.25-9.61,4.14l-24.99-.8-.19-2.73c.15.32,1.3-.93,1.72-.89,8.86.8,23.16-.1,27.64-5.58,1.19-5.85.38-12.08.08-17.71-2.02-2.46-5.49-2.94-5.86-3.55-1.38-2.32,5.58-1.51,5.92-3.77,1.28-8.58.67-16.92.62-25.62l-.21-44.32c.49-.21,1.57-.13,1.7.69l4.83,30.76c.28,1.78-.65,3.88-.35,5.59Z"/>
    <path class="cls-4" d="M97.75,683.06c-6.9-1.01-13.29-3.45-19.57-6.15-1.64-2.06-1.75-3.55-.77-5.74l6.44-14.38,6.23-11.06c1.12-1.99,1.99-4.32,4.54-5.92l2.17,12.26.96,30.98Z"/>
    <path class="cls-1" d="M256.73,239.01c-21.19,1.85-42.54,1.71-63.69.43-1.22-.07-2.93-.72-3.94-1.17-3.42.19-6.06.17-9.24-.64l-14.36-3.64c2.74-1.27,5.07-.67,7.37-.64-.04.56.78,1.05,1.42,1.14l19.57,2.91,36.38.05c.47-.8,1.76-1.34,2.2-.98.78,1.28,2.2,1.76,4.24,1.58,13.5-1.17,26.82-3.36,38.72-9.46,3.09-1.58,5.18-4.34,8.73-5.04l-1.85,5.55,4.07,20.46c.52,2.59-.62,5.96-2.13,8.52l-6.14-24.93c-.41-1.66-2.53-1.16-3.55-.86l-16.25,4.83c-.58.17-1.23.34-1.47.66-.19.26-.24.82-.08,1.24Z"/>
    <path class="cls-5" d="M114.62,486.7c-.61-4.11-4.43-8.23-7.96-10.66-5.59-3.85-12.86-4.89-19.61-5.99-8.67-2.54-17.46-2.25-26.17-2.25-.59-.99-1.76-.76-3.44-.97,5.28-4.39,11.91-6.02,18.62-5.17l22.85,2.88c6.05.76,12.1,3.34,15.92,8.38,3.02,3.98,2.12,10.18-.2,13.78Z"/>
    <path class="cls-2" d="M229.48,160.61c7.55.18,9.07,8.07,8.9,16.78l-5.5,1.46c-3.61,2.34-4.06,7.07-3.26,10.8-2.62,2.79-6.48,4.1-10.48,3.81l.68-11.86c.31-5.39,8.7-6.44,5.58-12.95l1.24-4.8c.25-.96-.07-1.63.64-2.39.45-.48,1.22-.85,2.2-.86Z"/>
    <path class="cls-2" d="M47.51,612.66l-.97-4.39-1.15-10.29c-.13-1.14.42-2.64-.73-3.48l.18-3.59c.79.65.32,1.95,1.09,3.22l-1.08-18.23-.63-30c-.17-8.17-1.54-16.56,2.96-24.42l2.78,15.13c-2.26,21.67-2.78,42.84-1.25,64.55.29,4.12.03,8.01-1.2,11.49Z"/>
    <path class="cls-4" d="M86.23,444.33c1.09-.49,2.6-.32,3.48-.83,1.01-10.08-9.89-10.05-8.22-15.66,5.05,0,9.76-.7,13.27-3.19.9-.25,3.13-.35,3.79.89.38,4.55,2.32,10.42.67,15.1-1.73,4.91-9.06,4.34-12.99,3.69Z"/>
    <path class="cls-2" d="M211.66,268.81l-.11,4.02c-3.98,15.03,6.62,45.37-4.89,47.4-4.3.76-8.34-.85-11.96-3l-1.84.24.11-1.26c1.85.16,3.7-.3,5.43.44,2.51,1.08,5.81,1.03,8.66.07,2.28-15.89-.77-31.7.93-47.88,1.3.06,2.32-1.22,3.68-.04Z"/>
    <path class="cls-2" d="M191.28,266.4c-5.26-4.4-11.99-9.65-19.03-9.4-3.4.12-6.71.8-10.79-.2l-6.84,1.17c-1.44.25-1.11-3.21-.36-4.11,3.74-4.5,22.97.65,32.11,3.86,3.94,1.38,7.72,3.28,9.82,7.09.4.73-1.83,1.88-2.57,2.05-.64.15-.93-.85-2.33-.46ZM169.81,255.34c-.94.63.15,1.96.69,1.01.18-.32.29-.57,1.15-.34.41.11.62-.95-.08-.97-.82-.02-1.24-.05-1.77.3Z"/>
    <path class="cls-2" d="M62.45,511.66c-1.91,3.11-1.14,6.78-1.12,10.46l.08,10.52c.03,3.56,1.26,6.48,4.12,8.02l.83,1.56c-.27,1.4-.15,2.77-.18,4.46-2.28-.79-3.46-.74-4.76-3.72-.72-1.63-2.96-3.07-3.03-5.58l-.66-24.61c-.05-1.8.9-3.13,2.49-2.98,1.31.13,1.59,1.33,2.23,1.86Z"/>
    <path class="cls-2" d="M77.83,513.27c-.73,3.14-.51,6.48-.37,9.93l.63,15.37c.1,2.51,1.42,4.4,3.61,5.34l.96,3.26c-.45.19-.99-.16-.95-.42.06-.34.21-.9-.63-1.24-.42,2.22.14,3.87,1.36,5.07l-1.56-.12c-3.39-2.26-2.21-7.33-5.62-9.06-.23-.31-.67-.18-.58.16-1.27-10.43-3.07-31.15,1.58-30.4,1.01.16,1.56,1.27,1.57,2.12Z"/>
    <path class="cls-1" d="M44.84,590.91l-.18,3.59c-.06,1.13-.72,2.92.73,3.48l1.15,10.29-.41,3.12c-1.11-1.3-.87-1.99-.65-3.87-1.31,1.31-2.08.78-1.91-.76,1.09-.43.86-2.63-.98-1.51l-2.32-42.56c-.12-2.25-.95-4.53-.44-6.87,1.01.38,1.35,1.35,1.51,2.6l2.04,15.75,1.46,16.73Z"/>
    <path class="cls-5" d="M191.28,266.4c3.21,2.68.85,6.87-.02,9.3-1.94-.25-2.91-1.11-3.69-2.23l-5.44-6.98c-.29-.1-.38-.35-.43-.61-.06-.33.1-1.13.85-1.52-2.08-2.45-5.07-3.96-8.33-5.05l-2.09-.69c-.43-.14-.17-1.5.12-1.62,7.04-.24,13.76,5,19.03,9.4Z"/>
    <path class="cls-2" d="M191.26,275.7c-.83,2.32.62,4.94-3.11,6.88-7.05,3.66-15.86,4.55-22.2-2.12,8.35.68,20.28.71,19.81-2.86-.05-.35-.67-.84-.92-1.39,2.01-.25,2.54-1.32,2.73-2.73.78,1.12,1.75,1.97,3.69,2.23Z"/>
    <path class="cls-2" d="M94.48,514.97c-.98,4.58-1.42,9.79,1.08,14.36-.57,5.96-.07,11.34,1.67,16.42-1.45.23-.74-1.68-1.69-1.94-.9-.25-1.11.7-1.32.83-.32.19-.91-.82-.9-1.22-.39-4.75-1.84-9.39-.98-14.85.16-1.03-.27-2.2-.86-2.81-.35-.36-1.13-.52-1.76-.43-.56-6.36.18-13.27,3.55-12.64.89.17,1.4,1.16,1.22,2.28Z"/>
    <path class="cls-4" d="M93.32,543.42c.27,3.29-2.61,6.49-5.41,7.35,1.07.75,1.73.54,1.97,1.15-1.95.16-3.42.03-4.6-1.57-.93-1.27-2-3.74-.56-4.67,1.76-1.14,2.51-2.61,4.86-3.13.44-5.84.63-11.54.13-17.22.63-.09,1.41.07,1.76.43.59.61,1.02,1.78.86,2.81-.86,5.46.59,10.1.98,14.85Z"/>
    <path class="cls-5" d="M166.41,187.28c-.73,1.39-1.79,3.08-1.63,4.66.39,4.03-10.63,1.96-17.23-1.99.22-1.07-.06-2.16-.16-2.83l2.88-1.6c-.25.72-.79,1.31-.44,1.83.84,1.27,2.09.22,2.78.16,5.03-.44,9.33.49,13.81-.23Z"/>
    <path class="cls-6" d="M81.69,543.91c-2.18-.93-3.5-2.82-3.61-5.34l-.63-15.37c-.14-3.45-.36-6.79.37-9.93.57.19,1.72.32,1.85.92l.63,2.89,1.39,26.83Z"/>
    <path class="cls-5" d="M65.53,540.66c-2.86-1.54-4.09-4.46-4.12-8.02l-.08-10.52c-.03-3.68-.8-7.35,1.12-10.46,1.54,1.29,2.06,3.14,2.06,5.66-.02,8.05.13,15.74,1.02,23.34Z"/>
    <path class="cls-5" d="M100.41,549.98c-.52.02-1.52-.48-1.87-.78-.94-.8.25-3.11-1.72-2.95.01-.15.14-.39.41-.49-1.74-5.08-2.23-10.45-1.67-16.42-2.5-4.57-2.06-9.79-1.08-14.36.28-.18,1.74-.13,1.92.55,2,7.66.03,22.34,4,34.45Z"/>
    <path class="cls-2" d="M189.06,336.6c4.94-.59,9.04,1.54,13.68,1.57l12.13.06c.77-.04,1.41-.17,1.65.68-4.71-.15-9.3-.3-13.92.78-5.23,1.22-20.28-.21-20.52-1.24l-.26-1.1,7.24-.74Z"/>
    <path class="cls-1" d="M177.57,270.32c.71,1.76-1.67,4.36-3.02,4.76-2.34.7-4.25-.8-5.2-2.3-.73-1.16-1.74-4-.15-5.17,2.31-1.69,7.02-.6,8.37,2.71Z"/>
    <path class="cls-5" d="M216.52,338.9l7.95.25c.57.02,1.61.49,1.95.73s.16,1.44-.24,1.44l-21.71-.11c-.36-.87-1.16-.76-1.86-1.53,4.62-1.07,9.21-.93,13.92-.78Z"/>
    <path class="cls-4" d="M74.48,549.56l-8.3-2.87c.03-1.69-.09-3.06.18-4.46,2.69-.27,5.77,1.04,8.32-.67-.1-.34.35-.47.58-.16,1.41,2.51.12,5.68-.78,8.16Z"/>
    <path class="cls-7" d="M187.57,273.47c-.19,1.41-.72,2.48-2.73,2.73.24.55.87,1.04.92,1.39-1.12.25-4.2.75-4.67-.44.46-.13.7-.71,1.07-1.06.57-.53-.14-1.14-.48-1.51.1-2.1.33-3.86-.41-5.27.21-.83,1.89-1.51.86-2.82l5.44,6.98Z"/>
    <path class="cls-7" d="M97.23,545.75c-.28.1-.4.35-.41.49-.06.93.64,2.76-.14,3.78-.83,1.09-1.42,1.86-1.39,3.08l-.96-.17.24-1.79c-1.84.68-3.22.66-4.68.78-.23-.62-.9-.4-1.97-1.15,2.8-.87,5.68-4.06,5.41-7.35,0,.4.58,1.41.9,1.22.21-.13.43-1.08,1.32-.83.95.26.24,2.17,1.69,1.94Z"/>
    <path class="cls-1" d="M192.26,374.55c-.1.94-.69,1.34-1.7.59-.94.03-1.05,1.2-.83,2.13-4.82-1.91-8.96-4.27-13.03-7.24,5.34,1.51,10.19,3.79,15.56,4.52Z"/>
    <path class="cls-7" d="M80.87,550.46c-2.11-.16-4.35-.19-6.39-.9.9-2.48,2.19-5.65.78-8.16,3.4,1.73,2.23,6.8,5.62,9.06Z"/>
    <path class="cls-5" d="M138.07,314.69l-2.39-5.53c-.85-1.96-1.36-4.25.13-5.77l2.93,9.07c.13.41.3,1.31.28,1.8-.01.3-.32.51-.94.44Z"/>
    <path class="cls-2" d="M158.67,268.76c-1.74-.48-2.47-1.72-3.08-2.5-.84-1.08-.32-3.62,1.45-3.43,2.21.23,2.87,4.36,1.63,5.94Z"/>
    <path class="cls-2" d="M176.08,265.28l-7.56-1.89c-.36-.32-1.86-1.14-1.37-1.78,4.04-.65,7.4.99,11.32,2.03-.63.37-1.8-.2-2.38,1.64Z"/>
    <path class="cls-7" d="M191.85,168.83c-.64-1.73-1.48-3.25-2.94-4.73,1.73-.95,2.57.04,3.41.96.67.74,1.62,2.15-.47,3.77Z"/>
    <path class="cls-4" d="M176.08,265.28l-3.16-.7c-2.08.92-3.49-.38-4.4-1.18l7.56,1.89Z"/>
    <path class="cls-2" d="M82.65,547.17c.89,3.05,1.92,4.89.32,4.08-.25-.13-.55-.21-.54-.67-1.22-1.2-1.78-2.84-1.36-5.07.84.34.69.9.63,1.24-.04.26.5.61.95.42Z"/>
    <path class="cls-2" d="M181.09,277.15c-.27-2.56-.46-5.34.18-7.84.74,1.41.51,3.17.41,5.27.34.38,1.05.98.48,1.51-.37.34-.61.93-1.07,1.06Z"/>
    <path class="cls-7" d="M163.17,263.24c-.9-.13-1.3-2.22-.53-3.23,1.07.18,2.32,2.06.53,3.23Z"/>
    <path class="cls-3" d="M293.22,483.61l1.84,8.6,2.76,21c-.98.46-1.43,3.18-3.06,3.31l-14.44,1.14-134.03-.04-.04,16.72-.85-.26-.17-13.49c-.04-3.33.92-6.01,1.42-8.9,1.74-10.13,3.48-19.73,6.93-29.19l139.65,1.11Z"/>
    <path class="cls-2" d="M339.92,423.23c-2.03.33-4.2,1.15-4.9,3.45,2.2.7,3.96,1.23,5.7,1.11,2.59,2.66.66,8.58,4.53,16.12-1.83,5.19-8.26,7.71-13.31,9.04-8.79,2.32-16.89,3.54-25.77,2.99-.19.15-.28.73-.34.82-2.27.18-6.32-.31-8.76.71l.11-7.56-10.85,4.92c-11.16,3.14-22.65,3.6-34.37,3.5-1.61-.01-2.79-.18-4.12,1.2-.68-2.12,1.05-2.28,1.55-2.84l2.12-.44c6.75-.88,14.55.54,21.26-2.08,9.12-3.55,17.29-8.29,26.73-11.02l21.41-6.18,2.15-8.97c-6.59-.23-12.89,1.45-19.5,2.96-3.32.75-6.87.87-9.77,1.31-.37.06-1.14.41-1.48.55-.51.02-.91-.34-.91-.66,0-.7.3-.76.87-1.17,6.83-4.97,14.4-7.45,22.61-8.73,6.82-1.06,12.44-5.19,14.29-11.67l3.53-12.36c-7.02.54-13.22,1.33-18.79,4.09-6.98,3.46-15.22,4.98-21.75,9.99l-10.07,7.72c-1.19.92-2.19,1.43-3.57,1.27.51-1.44.06-4.14-1.72-5.14l-9.63,17.93c-1.58,2.93-12.03,14.87-13.72,14.84-2.8-.06-8.59,6.12-19.49,9.14-4.56,1.27-9.06.43-13.29-.39l-1.11-.17c.36-1.07,2.5-1.87,3.26-2.68,7.34-1.11,11-1.02,18.21-6.52,10.91-8.32,20.72-17.82,29.54-28.52,3.49-4.24,5.73-9.07,10.53-12.55l2.13,4.58c10.49-7.8,21.68-13,33.72-16.72l12.24-3.78c-1.31-7.94-1.52-16.18-5.79-22.92l-14.68-17.53c-2.42-2.89-5.67-3.61-9.37-2.8-6.11,1.33-5.31,15.32-9.51,15.82l-8.33.87c5.57-8.92,12.42-16.82,21.16-23.38,7.7-5.78,16.96-5.78,23.42,1.96,10.15,12.15,12.33,30.84,13.78,47.31-.3,1.61-1.64,3.28-2.34,4.72.77.15,2.53.74,2.65,1.5,1.38,8.78,1.53,17.69-.25,26.37ZM326.03,445.77c-8.84-1.29-23.64,1.47-21.08,6.03.68,1.21,1.99,1.72,3.49,1.29,9.36-2.68,18.05,1.27,17.59-7.31Z"/>
    <path class="cls-2" d="M350.23,519.73c-.9.4-1.4,1.13-1.46,2.41l-1.01,20.25c-.2,4.05-3.15,7.85-5.79,10.04.99.06,1.48-.15,2.28-.52,1.16,31.83-3.21,63.92-14.73,93.82-2.79,7.25-8.78,12.12-13.36,18.06-11.21,12.43-24.72,22.01-39.94,27.6l-8.95,2.59c-2.19.67-4.57.02-6.37,2.29-13.72,1.91-27.68,3.77-41.99,4.03l-23.7.46c.66-2.41,3.32-2.86,5.9-2.69,3.12.2,6.52-.43,9.38-1.65,6.33-2.71,13.26-2.83,19.73-4.64,5.23-1.47,11.1-1.8,15.55-4.31,11.16-.15,9.25-8.32,16.64-8.96,8.63-.74,15.8-5.14,23.17-8.91,5.68-2.91,8.41-8.96,11.11-13.72,8.96-5.11,18.65-9.43,24.37-18.63,11.93-19.21,11.24-46.91,8.13-69.8l-3.2-12.3c6.89-.06,8.6-8.46,8.65-16.02,1.17.13,3.13-.31,4.13.31,1.48,1.03,2.89,2.26,4.74,1.58-.31-9.28-1.79-22.34,2.88-25.29,1.68.77,3.11,2.31,3.85,4.02Z"/>
    <path class="cls-4" d="M298.2,527.06c-3.88,2.64-7.4,7.58-12.42,7.72l-16.19.45-89.28.27-34.06-1.18.04-16.72,134.03.04,14.44-1.14c1.63-.13,2.08-2.85,3.06-3.31l.38,13.86Z"/>
    <path class="cls-5" d="M339.76,677.09l-.24-20.52c-5.8,2-10,4.79-14.31,7.36l-14.21,8.47c-4.84,3.92-9.41,8.08-10.58,14.04-1.88.05-2.65-1.08-4.06-3.83-4.55,6.46-10.99,9.45-18.32,10.75-2.58.46-5.13,1.89-7.58,1.05,2.26-.89,5.04-.94,5.78-3.02,15.21-5.58,28.72-15.17,39.94-27.6,4.58-5.94,10.57-10.81,13.36-18.06,11.52-29.9,15.89-61.99,14.73-93.82-.07-1.86,2.91-2.5,4.61-2.26,5.56.77,10.01-3.82,12.64-8.45l-3.86,64.84-2.63,50.03c-1.21,3.71-4.83,7.31-7.17,10.4l-8.08,10.63Z"/>
    <path class="cls-2" d="M196.94,553.09c-.74-3.82-3.87-5.85-7.87-5.73-3.18.09-6,1.93-7.72,3.91-.38.44-3.08-.24-3.19.26-.09.39.39,1.04.42,1.38l-26.49-.71c.32-1.48-.47-2.55-2.03-2.06-.57.81-3.38,1.69-3.5.06l-1.16-16.13.85.26,34.06,1.18,89.28-.27,16.19-.45c5.02-.14,8.54-5.08,12.42-7.72.13,4.65-.81,8.67-1.96,13.81-.57,2.57.71,5.2-1.92,7.12-1.62,1.18-3.33,2.58-6.08,2.7l-41.15,1.87-50.13.52Z"/>
    <path class="cls-3" d="M334.99,472.9c-1.3,2.96.62,5.8,1.44,8.99l7.3,28.23,2.64,5.6c-4.67,2.94-3.19,16-2.88,25.29-1.84.69-3.26-.54-4.74-1.58-1-.63-2.96-.18-4.13-.31l.13-19.26c-2.06-1.63-1.99-3.17-3.38-3.56-4.43-1.25-5.01,7.22-5.33,14.75l-.47,11.24c-.26,6.17-4.28,6.86-8.5,9.52l.6-31.72c.02-1.19-1.36-2.62-2.02-3.28-.76-.77-3.43-.54-3.6.76l-1.41,10.99-3.23,10.3c-3.45,11-7.23,8.63-7.75,13.21.29.57-.28,1.03-.88.94-.13-.22-.4-.38-.82-.34,2.8-14.18,3.9-22.66,2.47-38.55l-1.35-15.06-1.45-17.18,6.01-4.88c10.13-3.79,20.92-4,31.36-4.11Z"/>
    <path class="cls-4" d="M168.11,563.17c4.73,24.68,6.8,49.5,6.28,75.14-.27,13.59-.79,26.18-3.42,39.74l3.92,2.91c-1.55,2.97-2.08,5.07-1.94,8.7-1.99-.68-3.47-.56-5.1-.17-1.66-1.27-4.12-.75-6.08-1.17-1.28-15.28-6.72-27.48-7.11-44.55l-.85-37.8-.37-42.46c-.62-.25-.84-.59-.87-.9l15.54.56Z"/>
    <path class="cls-2" d="M213.12,568.14l7.46,16.71c1.01,1.26,1.76,2.62,3.36,2.68,4.86,13.48,5.83,28,7.2,42.71.76,8.22.79,15.27-1.22,23.25-1.52,6.03-2.08,12.24-5.66,17.82-.55.85.26,2.22.34,2.83.25,1.87,2.85,4.12,5.37,4.76l12.87,3.26c1.34.34,2.38,1.14,2.63,2.54-4.76.87-9.33,3.91-14.77,4.16-7.94.37-15.76-.88-23.21-2.74.34-2.95.75-6.37,2.3-9.15,1.12-2.01,3.06-2.02,5.27-1.99l-3.87-2.71c7.8-35.74,4.42-72.38-9.23-105.77-.21-.51.19-1.84-.18-2.15,4.21.14,8.4.93,11.36,3.79Z"/>
    <path class="cls-2" d="M176.8,565.88l5.58,20.81c.4,1.49,1.74,2.75,2.65,4.28l4.48,44.3c1.64,16.23-2.73,31.98-8.1,46.67-.2.53.66,1.95,1.19,2.44,6.97,6.44,16.71,5.14,18.59,9.95-3.24.22-6.67.39-9.58.7-6.49-.75-12.37-2.33-18.78-4.86-1.58-.44-3.6.35-4.98-.7,1.64-.39,3.11-.5,5.1.17-.15-3.62.39-5.73,1.94-8.7l-3.92-2.91c2.63-13.56,3.15-26.14,3.42-39.74.52-25.65-1.55-50.46-6.28-75.14,3,.11,6.08,1.08,8.68,2.71Z"/>
    <path class="cls-2" d="M255.67,568.49l5.81,6.32c.81.88,2.04,1.77,2.5,2.99-.6,1.23-.56,2.49.49,3.69l5.41,5.21c1.04,2.51,1.79,5.36,1.41,8.15-.35,2.6-.39,5.1-.27,8.09l.5,12.84c.68,17.56-6.19,26.1-8.01,34.86l-1.55,7.47c-.1.5.83,1.25,1.23,1.55,5.25,3.89,12.65,4.93,19.22,5.51.75,1.8-7.85,5.73-10.37,5.89-1.24.08-1.21.71-1.33,1.25-7.77,1.11-15.31,1.48-22.83,1.1-1.1-3.79.52-7.25,1.43-10.91l7.59-30.66c3.36-22.26-2.68-44.84-14.49-63.62-1.01-1.6-1.35-2.4-.92-3.94,4.84.06,10.79.53,14.18,4.22Z"/>
    <path class="cls-3" d="M111.02,552.43c.08,2.06,2.76,3.9,4.49,4.46.1.83-.53,1.11-1.54,1,.76,1.09,2.02,1.53,2.99,2.33.78,7.74-1.87,14.82-1.79,22.49l.35,33.09c.24,22.96,2.09,45.22,6.48,67.77,1.87,3.51,6.66,5.11,10.19,6.1l2.63,1.95c.32.23.82.27,1.2.32.34.11.8.39.92.64.1.2.23.32-.3.4-1.45.36-3.43.65-4.21,1.7-1.2,1.67-.69,4.12-.68,5.82-5.94-1.7-13.14-5.91-17.6-10.38l-4.48-22.65c-2.03-10.28-3.49-20.26-4.7-30.73l-1.23-10.7c-.49-4.26-.19-8.58-.17-12.74l.19-34.72,2.86-24.93,3.4-1.49c.38-.17.81,0,1.02.29Z"/>
    <path class="cls-2" d="M142.98,565.8l4.26,4,.87,13.72,3.79,62.86c.78,12.88,1.27,25.26-.99,37.84-.43,2.37-.34,2.69.73,4.23,1.75,2.52,4.84,2.9,7.21,4.32,4.57,2.74,9.47,1.9,10.77,7.44-5.41,2.94-12.24,3.71-18.6,4.19-1.27-1.12-.48-2.63-.39-4.2.2-3.58,2.4-5.06,6.46-5.61-3.22-1.65-6.51-.46-10.06-1l-11.01-1.67c-.38-.06-.88-.09-1.2-.32,2.41-1.86,7.95-2.39,9.78-6.51,1.34-3.03-.62-6.61-.66-9.57l-.17-13.77-1.62-21.04-.92-53.17-.99-19.11c-.14-2.72-3.5-4.54-5.14-5.74-2.06-.6,3.36-1.58,7.89,3.09Z"/>
    <path class="cls-3" d="M148.01,482.66l-1.43,7.3c-.67-.87-.95-.98-1.15-1.36-.26-.48-1.36-.29-1.52.74l-4.07,26.4-8.11-.44c-2.36-.13-4.13,1.27-5.51,3.04-7.1,9.15-3.1,20.77-6.26,31.28-1.84-.18-.72,1.41.07.93.38-.22-.27,1.26-.55,1.38-.4-.11-1.06.02-1.52.13-2.36-11.53-2.89-23.58-2.08-35.42l.73-10.64c.63-9.18,2.17-18.26,6.05-26.5,7.72-.09,15.37.67,22.97,1.68.49,1.84,1.48.91,2.39,1.47Z"/>
    <path class="cls-5" d="M293.22,483.61l-139.65-1.11,2.12-5.82c.47-1.28,2.4-3.36,4.31-3.19l34.08,3.17c1.62.15,2.56,1.16,2.81,3.08,26.21.55,52.35.58,78.65-.78l14.3-1.57c2.82-.31,3,4.43,3.38,6.23Z"/>
    <path class="cls-3" d="M152.57,562.61c.03.31.26.65.87.9l.37,42.46.85,37.8c.38,17.06,5.83,29.26,7.11,44.55-3.24-.69-6.71-.66-10.13.15-1.07-1.54-1.16-1.87-.73-4.23,2.26-12.59,1.76-24.97.99-37.84l-3.79-62.86-.87-13.72c-.14-2.13-.42-5.21-.25-7.19l.1-1.16,5.49,1.16Z"/>
    <path class="cls-3" d="M188.12,563.89c1.45,10.7,1.7,21.25,2.05,32.25l1.69,52.9c.27,8.36,1.34,16.13,4.61,23.92-.95,3.26-2.73,5.83-2.19,8.74,2.34-.68,2.51,1.98.21,1.18-2.49-.62-5.1-1.2-7.81-.86-1.7.21-3.3.25-5.28-.08,5.37-14.69,9.74-30.44,8.1-46.67l-4.48-44.3c-.91-1.53-2.26-2.79-2.65-4.28l1.3-.13c2.18-.19-2.02-13.73-2.19-15.97l-.55-7.27,7.18.56Z"/>
    <path class="cls-2" d="M361.77,478.6c3.68,19.23,4.32,39.01,1.73,58.91-.19,1.48-1.48,2.79-1.99,3.69-2.63,4.63-7.08,9.22-12.64,8.45l.6-4.06c2.8-2.49,6.54-4.96,8.4-8.49s.77-8,1.26-11.57c.45-3.28-.52-5.1-.68-7.54l-.79-11.99-4.99-28.22c-.24-1.35-.78-2.22.06-3.46,3.35.27,6.45,2.34,9.04,4.27Z"/>
    <path class="cls-3" d="M260.76,562.09l3.72.56c15.06,20.53,13.11,45.07,10.95,70l.79,22.16c2.33-.53,3.17-.5,4.26.23-6.03,1.01-12.08,2.94-18.51,3.07l1.55-7.47c.48.52,2.66.35,3.19-.89,3.2-7.44,5.9-15.26,6.89-23.47,1.22-10.08.71-30.41-1.16-31.34-.25-.12-.82-.09-1.14-.08.38-2.79-.37-5.64-1.41-8.15l-3.12-7.51c-.51-1.22-1.37-1.52-2.78-1.39-.46-1.22-1.69-2.11-2.5-2.99,1.23-4.36-1.86-7.2-4.14-10.42.11-.85.5-1.37.88-1.63.7-.5,1.86-.65,2.55-.67Z"/>
    <path class="cls-3" d="M223.53,564.05c-.02,1.05.19,2.18.72,3.39,3.94,8.89,5.77,17.99,6.48,27.56l2.62,35.27-.17,26.68c2.08,4.65,3.16,9.32,3.62,14.4.39.16,1.28.19,1.55.42.25.21.01.86-.19,1.15-2.89-.14-6.18.79-9.21.89l-4.36.33c-.08-.61-.89-1.97-.34-2.83,3.58-5.58,4.14-11.8,5.66-17.82,2.02-7.98,1.98-15.03,1.22-23.25-1.36-14.72-2.34-29.23-7.2-42.71l-6.91-22.67c2.03-1.08,4.36-.83,6.51-.81Z"/>
    <path class="cls-5" d="M361.77,478.6c-2.59-1.93-5.69-4-9.04-4.27l-17.73-1.43c-10.44.11-21.23.32-31.36,4.11l-6.01,4.88c-.15-1.72-1.46-4.18-.71-6.69,1.22-4.09,5.56-7.54,9.99-8.45,13.5-2.78,26.74-1.41,40.11.22,3.66.45,7.41-.11,10.36,2.16,3.27,2.27,5.36,5.87,4.38,9.48Z"/>
    <path class="cls-5" d="M253.43,448.91c-.09.8-.24,2.27-.93,2.87-1.46,1.27-2.3,3.38-3.1,4.91-.5.56-2.23.72-1.55,2.84,1.33-1.39,2.51-1.22,4.12-1.2,11.72.1,23.2-.36,34.37-3.5l10.85-4.92-.11,7.56-3.24-.62c-8.44,3.37-18.06,5.34-27.33,4.76-7.25.69-13.97.66-21.14-.91-6.81,1.85-13.69,1.97-20.87,1.77-2.64.36-4.93.29-6.83-1.14,1.31-.81,2.19-.75,2.44-1.18.41-.7.39-1.68.55-2.47,4.23.82,8.72,1.65,13.29.39,10.89-3.02,16.68-9.2,19.49-9.14Z"/>
    <path class="cls-5" d="M297.96,552.67c.42-.04.69.12.82.34,2.23,3.73,8.07,3.66,11.32,1.36.78,1.16,1.85,2.04,2.4,3.27v1.78s-26.88,1.93-26.88,1.93l-24.86.75c-.69.02-1.84.16-2.55.67-.38.27-.77.79-.88,1.63-1.65-2.32-2.67-5.2-2.13-8.18l20.95-1.25,21.79-2.3Z"/>
    <path class="cls-2" d="M339.76,677.09c-3.58,4.71-11.46,4.81-16.88,7.12l-3.96,1.69c-.21-2.83.95-5.45,1.96-8.34l4.33-13.64c4.31-2.57,8.51-5.36,14.31-7.36l.24,20.52Z"/>
    <path class="cls-5" d="M216.55,460.33c-4.84,2.01-9.88,2.51-15.46,2.86-15.86.99-31.61-.14-47-4.56-.73-1.67-.42-3.41-.69-5.01,4.06,1.71,8.96,3.19,13.72,2.47,2.68-.41,4.06,1.27,6.05,1.86,8.52,2.53,17.26,2.59,26.1,2.86.55-.79,1.34-1.97,1.98-2.03,10.17-.84,23.66-11.13,29.46-18.38,1.44,1.87-.05,3.66-1.37,5.03l-10.3,10.71c-1.22,1.27-2.54,2.64-2.48,4.18Z"/>
    <path class="cls-2" d="M146.57,489.96l-1.09,7.21c-3.02,12.85-3.71,25.49-3.07,38.69.26,5.3-.57,10.72,1.47,15.28-5.09,3.43-14.16,2.19-21,.95,2.61-7.44,8.27-3.76,14.22-4.94,2.07-10.77,1.16-21.23,2.73-31.42l4.07-26.4c.16-1.03,1.27-1.23,1.52-.74.2.38.48.49,1.15,1.36Z"/>
    <path class="cls-3" d="M222.81,454.81c-.76.81-2.9,1.61-3.26,2.68l-1.04,1.15.42,1.12c-.43.98-1.3,1.5-1.82.87-.17-.2.07-.29-.56-.3-.05-1.54,1.26-2.9,2.48-4.18l10.3-10.71c1.32-1.37,2.81-3.16,1.37-5.03,2.06-2.57,4.22-5.44,6.96-7.44,4.99-3.63,8.32-9.33,11.63-15.21,9.38-16.63,18.51-33.01,29.29-48.36.24.1.59.21.78.43-2.94,8.27-7.3,15.62-12.06,23.26l-16.08,25.82-6.42,9.77-8.78,12.97-5.99,5.45-7.23,7.71Z"/>
    <path class="cls-4" d="M318.91,685.9l-18.5.53c1.17-5.96,5.74-10.13,10.58-14.04l14.21-8.47-4.33,13.64c-1.02,2.89-2.17,5.51-1.96,8.34Z"/>
    <path class="cls-5" d="M255.67,568.49c-3.39-3.69-9.34-4.17-14.18-4.22l-17.96-.21c-2.15-.03-4.48-.27-6.51.81-1.52-1.05-2.88-7.42-.56-7.43l29.15-.17c5.17-.03,9.43,6.97,10.05,11.23Z"/>
    <path class="cls-5" d="M213.12,568.14c-2.96-2.86-7.15-3.65-11.36-3.79l-13.64-.45-7.18-.56c-.15-1.98-.89-4.27-.01-6.47l19.3.23c7.2.09,12.95,4.08,12.89,11.05Z"/>
    <path class="cls-5" d="M148.01,482.66c-.91-.55-1.9.38-2.39-1.47-7.6-1.01-15.26-1.77-22.97-1.68-1.8-1.76.6-6.95,2.78-7.79l22.89,1.36c1.14,3.45.27,6.68-.3,9.58Z"/>
    <path class="cls-5" d="M176.8,565.88c-2.6-1.64-5.68-2.6-8.68-2.71l-15.54-.56-5.49-1.16c.11-1.29-.48-4.12.89-5.46l23.31.58c2.25.06,3.87,2.25,4.94,3.26,1.48,1.4.17,4.58.57,6.05Z"/>
    <path class="cls-4" d="M151.02,704.41c-6.45.48-12.9-2.09-19.27-3.92-.01-1.7-.52-4.15.68-5.82.77-1.06,2.75-1.34,4.21-1.7.53-.08.4-.2.3-.4-.12-.25-.58-.52-.92-.64l11.01,1.67c3.55.54,6.84-.66,10.06,1-4.06.55-6.25,2.03-6.46,5.61-.09,1.57-.88,3.08.39,4.2Z"/>
    <path class="cls-5" d="M148.74,451.65c-2.05,6.38-12.63-1.35-21.07-6.19-1.18-3.92-.77-7.75-1.02-11.42,6.38,7.16,13.54,14.01,22.09,17.61Z"/>
    <path class="cls-5" d="M117.95,552.07c.46-.12,1.13-.25,1.52-.13.99,1,2.5.19,3.41.16,6.84,1.24,15.9,2.49,21-.95.64,1.43-.1,3.51-.8,4.74-.24.46,1.27,1.96.47,2.1l-1.79-2.09c-.52-.61-1.78.2-2.65.04l-5.51-.96c-1.19-.21-2.5-.38-3.13.26-1.02,1.05-.44,2.35.7,3.21-1.49-.29-1.71-2.39-3.85-2.65-1.26,3.55.54,6.76.15,10.06-.61-1.49-1.34-3.98-1.47-5.54-.07-.81.52-2.74-.32-3.4-.63-.5-1.96-1.17-3.18-1.37l-6.11-.99c-2.18-.35-4.2-.47-5.37-2.14-.21-.3-.64-.45-1.02-.29-.03-1.05.95-1.47,1.56-1.96,2.32.33,4.65.45,6.39,1.88Z"/>
    <path class="cls-5" d="M201.18,694.33c.08.08.46.46.36.96-.57.86-.62,1.83-.42,2.77-2.58-.17-5.25.28-5.9,2.69-4.5,1.63-10.76.41-15.82-1.04-.16-1.68,1.27-3.54,2.7-3.69l9.51-1c2.91-.31,6.34-.47,9.58-.7Z"/>
    <path class="cls-5" d="M143.54,557.99c1.2,1.4,1.89,3.07,2.16,5.28.43-.4.8-.71,1.28-.67-.16,1.98.12,5.06.25,7.19l-4.26-4c-1.84-5.12-9.86-8.85-12.73-5.58-.21-.67.24-1.24.92-1.77-1.14-.86-1.72-2.15-.7-3.21.63-.65,1.94-.47,3.13-.26l5.51.96c.87.15,2.13-.66,2.65-.04l1.79,2.09ZM143.04,562.03c.72-.81-.92-2.51-1.46-2.12-.71.52-.25,1.58.2,1.81.28.15.48,1.18,1.26.31Z"/>
    <path class="cls-5" d="M53.81,463.99c.67-3.09,1.08-8.12,1.94-10.83,3.59-.26,7.57,1.21,9.92,4.18-3.44,3.51-7.87,4.54-11.87,6.65Z"/>
    <path class="cls-7" d="M196.94,553.09l-18.36-.18c-.03-.34-.5-1-.42-1.38.11-.49,2.81.18,3.19-.26,1.72-1.98,4.54-3.82,7.72-3.91,3.99-.12,7.12,1.91,7.87,5.73Z"/>
    <path class="cls-5" d="M169.62,700.23c-1.3-5.54-6.2-4.71-10.77-7.44,4.61-.43,7.87-2.24,14.13.58,1.3,1.43.55,5.31-.97,7.01-1.16-.13-1.82-.45-2.39-.14Z"/>
    <path class="cls-5" d="M116.6,506.01l-.73,10.64c-.75-.2-1.14-1.35-2.41-.52.25-1.1-.11-2.56-1.06-3.16l1.5-11.86c-.12,2.41-.3,4.79,1.34,6.83.1-1.39.55-1.92,1.36-1.93ZM115.98,509.59c.31-1.35-1.31-1.68-1.28-.29-.7,1.17,1.08,2.31,1.28.29Z"/>
    <path class="cls-1" d="M100.33,621.2c.51-.91,1.05-.03,1.21.19.29.4.12.72-.12.86-.61.36-1.52-.26-1.09-1.05Z"/>
    <path class="cls-4" d="M222.81,454.81l7.23-7.71,5.99-5.45,8.78-12.97,6.42-9.77,16.08-25.82c4.76-7.64,9.12-15,12.06-23.26-.2-.21-.54-.33-.78-.43l2.92-4.67,8.33-.87c4.2-.5,3.39-14.49,9.51-15.82,3.7-.81,6.95-.09,9.37,2.8l14.68,17.53c4.27,6.74,4.48,14.98,5.79,22.92l-12.24,3.78c-12.04,3.72-23.23,8.93-33.72,16.72l-2.13-4.58c-4.8,3.48-7.04,8.31-10.53,12.55-8.82,10.71-18.63,20.2-29.54,28.52-7.22,5.5-10.87,5.41-18.21,6.52Z"/>
    <path class="cls-1" d="M340.71,427.78c-1.74.12-3.5-.41-5.7-1.11.71-2.3,2.88-3.11,4.9-3.45l7.22-1.19c4.35-.72,7.42-2.84,10.58-6.25,3.09,6.58-10.93,11.58-17.01,12Z"/>
    <path class="cls-1" d="M222.73,374.91l7.5.65c-10.01,4.51-20.62.6-32.07,1.36-.32-.7-1.08-.95-1.46-.85-.3.08-.68-.5-.38-.98,8.82,1.2,17.66,0,26.41-.18Z"/>
    <path class="cls-3" d="M253.57,264.04c.77,3.03-2.49-1.52-11.2.16,1.08,1.29-.25,2.61-.48,3.5,1.54.83,1.58,1.4,1.54,1.91-.05.66-.53,1.46-.91,1.77-1.05-1.79-2.14-3.41-3.93-3.4-2.1.02-3.84.92-4.81,2.46-1.23,1.96-.38,4.14,1.17,5.43.2.44,1.28,1.31.35,1.99.44.07.15.37,1.36,1.18-5.1-.26-13.19-3.01-14.09-8.06-.98.95-.55,2.16-.87,3.16-.68-1.89-1.51-3.69-.2-5.61,1-1.47,2.66-3.3,4.69-3.74,7.44-1.63,15.26-2.65,22.97-2.24l4.4,1.49ZM225.49,270.27c.2.15.59.28,1.02.12.92-.95,2.17-1.72,2.66-3.07-.2-.15-.59-.28-1.02-.12-.92.95-2.17,1.72-2.66,3.07Z"/>
    <path class="cls-1" d="M217.08,263.7l9.13,1.1c-2.03.45-3.69,2.27-4.69,3.74-1.31,1.93-.49,3.73.2,5.61l1.09,3.04c-.41-.07-.72-.35-1.16-1.34-2.57,2.56-5.97,3.68-10.08,3.22v-6.24s.1-4.02.1-4.02c1.44-1.58,2.49-3.42,4.03-4.89.54-.14.96-.26,1.38-.22Z"/>
    <path class="cls-2" d="M261.84,251.06c.06,4.1.62,8.7-2.13,11.94l-10.79-3.44c-.03-5.81,6.65-7.85,12.92-8.5Z"/>
    <path class="cls-5" d="M252.66,194.02l.19.6c-5.34,1.69-10.95,3.71-17,2.84-2.68-.38-4.23-4.04-4.22-6.1,3.32-3.44,14.96-.29,21.02,2.65Z"/>
    <path class="cls-5" d="M259.3,180.38l-2.19,11.21c-.21,1.1-.55,2.13-1.53,2.41-.68.2-1.27.05-1.95-.17-2.66-3.36-4.36-7.37-1.9-11.78l7.57-1.68Z"/>
    <path class="cls-5" d="M235.23,181.13c-.85.49-1.25,1.8-2.8,1.07l4.65-3.93c.46.49.74,1.36-.01,1.79l-1.84,1.06Z"/>
    <path class="cls-1" d="M166.41,187.28c-4.48.72-8.78-.21-13.81.23-.69.06-1.94,1.11-2.78-.16-.34-.52.19-1.11.44-1.83-.07-.26.04-.58.07-.74,3.72-1.19,7.51-2.86,9.73-6.32l2.23-.63,3.37,5.44c.98,1.59,1.59,2.38.74,4Z"/>
    <path class="cls-5" d="M222.8,277.19c.99,2.75-.59,5.52-.83,8.48-.75,9.31,2.07,17.5,2.44,26.99.14,3.62-4.42,10.31-7.83,11.46-7.23,2.43-21.1-.06-23.72-6.65l1.84-.24c3.62,2.15,7.66,3.76,11.96,3,11.51-2.04.91-32.38,4.89-47.4v6.24c4.12.46,7.51-.67,10.09-3.22.44.99.76,1.27,1.16,1.34Z"/>
    <path class="cls-3" d="M202.74,338.17c-4.64-.02-8.74-2.16-13.68-1.57-.64-.67-2.02-.95-1.66-1.98.3-.88,1.36-1.23,2.28-1.49l7.5-2.11c4.29-1.21,2.82,3.65,5.55,7.15Z"/>
    <path class="cls-1" d="M242.52,271.38c-.49.39-.45,1.18-.17,1.43.17,1.87-1.59,2.71-2.8,3.42-1.58.93-2.75-.08-4.59-.35-1.55-1.29-2.4-3.47-1.17-5.43.97-1.55,2.7-2.45,4.81-2.46,1.78-.01,2.88,1.61,3.93,3.4Z"/>
    <path class="cls-3" d="M235.3,277.87c.94-.68-.15-1.55-.35-1.99,1.85.27,3.01,1.29,4.59.35,1.21-.71,2.97-1.55,2.8-3.42,1.86,1.64-.17,2.98-1.01,3.83-1.35,1.37-4.02,1.22-6.04,1.23Z"/>
    <path class="cls-2" d="M212.75,193.06c-3.19,2.84-8.8,4.46-12.4,2.4-4.92-2.82-8.32-14.36-1.64-17.99,5.31-2.88,15.71.99,16.81,7.11.58,3.24,0,6.02-2.77,8.48ZM203.38,194.76l4.47-13.11c-3.26-2.43-8.33-1.11-9.75,2.56-1.57,4.06,1.25,9.7,5.27,10.55Z"/>
    <path class="cls-7" d="M211.66,268.81c-1.35-1.18-2.38.1-3.68.04.12-1.1.64-2.23,1.41-2.8s1.83-.68,3.02-.54c1.64.19,2.38-1.35,3.28-1.59-1.54,1.47-2.59,3.31-4.03,4.89Z"/>
    <path class="cls-5" d="M115.87,516.65c-.81,11.84-.28,23.89,2.08,35.42-1.74-1.43-4.07-1.55-6.39-1.88,1.34-1.06,1.8-2.66,1.65-4.68-.78-11.06-1.84-21.91-.82-32.55.96.59,1.32,2.06,1.06,3.16,1.27-.83,1.66.33,2.41.52Z"/>
    <path class="cls-1" d="M45.39,597.98c-1.46-.57-.79-2.36-.73-3.48,1.16.84.61,2.35.73,3.48Z"/>
    <path class="cls-7" d="M169.81,255.34c.52-.35.94-.32,1.77-.3.7.02.49,1.08.08.97-.86-.23-.97.02-1.15.34-.55.95-1.64-.38-.69-1.01Z"/>
    <path class="cls-4" d="M292.31,432.8l-13.02,5.28c-1.83.74-3.53,1.51-2.48,3.89l17.66-7.17c.63-.26.86-.79,1.06-1.07.22-.3-.11-1.63-.42-1.53l-1.31.05c2.9-.44,6.45-.56,9.77-1.31,6.62-1.5,12.91-3.19,19.5-2.96l-2.15,8.97-21.41,6.18c-9.45,2.73-17.62,7.47-26.73,11.02-6.71,2.62-14.51,1.2-21.26,2.08l-2.12.44c.8-1.53,1.65-3.64,3.1-4.91l10.98-4.45c3.05-1.31,2.57-5.94,3.18-8.89,9.97-4.82,17.95-12.18,25.96-19.3l8.93-7.93,13.66-6.42c-.03-1.35-.43-1.94-1.3-2.49,5.57-2.76,11.77-3.55,18.79-4.09l-3.53,12.36c-1.85,6.48-7.47,10.61-14.29,11.67-8.22,1.27-15.78,3.75-22.61,8.73-.57.41-.87.47-.87,1.17,0,.32.39.68.91.66Z"/>
    <path class="cls-3" d="M313.91,402.3c.88.56,1.27,1.14,1.3,2.49l-13.66,6.42-8.93,7.93c-8.02,7.12-16,14.47-25.96,19.3-.6,2.95-.13,7.58-3.18,8.89l-10.98,4.45c.69-.6.84-2.07.93-2.87,1.69.04,12.15-11.9,13.72-14.84,1.76-.17,2.6-1.45,3.65-2.83,2.62-3.46,6.35-6.14,7.71-9.96,1.38.16,2.38-.35,3.57-1.27l10.07-7.72c6.53-5.01,14.77-6.53,21.75-9.99Z"/>
    <path class="cls-3" d="M326.03,445.77c.46,8.59-8.23,4.63-17.59,7.31-1.5.43-2.81-.08-3.49-1.29-2.57-4.56,12.24-7.32,21.08-6.03Z"/>
    <path class="cls-5" d="M278.51,421.28c-1.35,3.82-5.08,6.5-7.71,9.96-1.05,1.38-1.89,2.66-3.65,2.83l9.63-17.93c1.78,1,2.23,3.7,1.72,5.14Z"/>
    <path class="cls-3" d="M293.8,432.25l1.31-.05c.3-.09.63,1.23.42,1.53-.2.28-.43.81-1.06,1.07l-17.66,7.17c-1.04-2.38.66-3.15,2.48-3.89l13.02-5.28c.34-.14,1.11-.5,1.48-.55Z"/>
    <path class="cls-5" d="M334.63,539.11c-.05,7.56-1.75,15.96-8.65,16.02l3.2,12.3c3.11,22.89,3.8,50.6-8.13,69.8-5.72,9.21-15.41,13.53-24.37,18.63-2.69,4.76-5.42,10.81-11.11,13.72-7.37,3.78-14.54,8.17-23.17,8.91-7.38.63-5.48,8.8-16.64,8.96,4.63-2.62,8.15-6.36,8.8-11.96l10.75-1.4c1.63-.21,4.9.41,5.39-1.81.12-.54.09-1.17,1.33-1.25-.04,1.08.76,1.56,1.59,1.16l9.86-4.86c9.13-4.51,4.8-11.05,13.04-14.32,7.44-2.95,12.79-8.87,19.54-14.01,4.82-7.4,7.71-16.3,9.37-25.7,3.42-20.23,1.23-40.49-6.94-58.73,6.59,1,11.95-3.74,12.28-10.15l.94-18.25c.14-2.65.57-5.03,3.03-6.34l-.13,19.26Z"/>
    <path class="cls-4" d="M352.73,474.33c-.85,1.24-.3,2.11-.06,3.46l4.99,28.22.79,11.99c-2.33.58-5.21.15-7.07,1.57-.23.18-.76.25-1.15.17-.74-1.71-2.17-3.25-3.85-4.02l-2.64-5.6-7.3-28.23c-.83-3.19-2.74-6.02-1.44-8.99l17.73,1.43Z"/>
    <path class="cls-1" d="M238.18,672.92l9.71.48c7.52.37,15.06,0,22.83-1.1-.49,2.21-3.76,1.59-5.39,1.81l-10.75,1.4c-.65,5.6-4.17,9.34-8.8,11.96s-10.32,2.85-15.55,4.31c-6.75-1.21-14.52-2.35-21.04.33-2.48,1.02-4.79,3.28-7.65,3.19.1-.51-.28-.88-.36-.96,2.05-.14,6.03-3.1,4.46-5.62-6.08-5.04-16.29-1.68-20.65-5.66.96-.01,1.63-.33,1.69-1.03,2.71-.34,5.32.24,7.81.86l12.99,3.24c7.45,1.86,15.27,3.11,23.21,2.74,5.44-.25,10.01-3.29,14.77-4.16,3.49-.64,5-3.42,4.88-7.76-.02-.71-.23-1.44-.68-1.88-.85-.82-1.85.44-2.51.42l-16.41-.52-1.03.15c-.61.09-.95-.72-.75-1.3,3.03-.09,6.33-1.03,9.21-.89Z"/>
    <path class="cls-1" d="M351.37,519.56l-1.91,26.02-.6,4.06c-1.7-.23-4.68.41-4.61,2.26-.8.37-1.29.58-2.28.52,2.63-2.19,5.58-5.99,5.79-10.04l1.01-20.25c.06-1.28.56-2.01,1.46-2.41.39.08.91,0,1.15-.17Z"/>
    <path class="cls-5" d="M230.23,691.78c-6.47,1.81-13.4,1.93-19.73,4.64.42-.45.66-2.19-.77-1.81-.94-.28-.76-1.73-.54-2.5,6.52-2.67,14.29-1.54,21.04-.33Z"/>
    <path class="cls-5" d="M210.5,696.42c-2.85,1.22-6.26,1.86-9.38,1.65-.2-.94-.15-1.91.42-2.77,2.86.08,5.18-2.18,7.65-3.19-.22.77-.4,2.22.54,2.5,1.43-.38,1.18,1.37.77,1.81Z"/>
    <path class="cls-1" d="M317.08,551.8c0,.52-1.08,1.18-.18,1.95.71.61,1.04.76,1.62.84,8.17,18.24,10.36,38.5,6.94,58.73-1.66,9.4-4.55,18.3-9.37,25.7-6.76,5.14-12.11,11.06-19.54,14.01-8.24,3.27-3.91,9.82-13.04,14.32l-9.86,4.86c-.83.41-1.63-.08-1.59-1.16,2.52-.16,11.11-4.09,10.37-5.89,2.25.2,4.03-1.37,4.72-3.72.57-1.94.58-3.89.09-6.32-8.53,4.11-15.7,3.01-24.04,4.52-.4-.29-1.33-1.05-1.23-1.55,6.44-.13,12.48-2.06,18.51-3.07,2.4-.4,4.49-1.11,6.5-1.86,9.44-3.51,19.25-6.74,26.83-14.8-1.2-.87-2.02-1.73-1.85-2.7.24-1.29,11.76-18.94,10.73-42.18-.51-11.68-3.04-22.85-8.95-32.51,1.17-.17,1.71.46,2.71,1.56.03-2.67-1.13-4.38-2.77-6.45-.3,1.13-.55,1.42-1.19,1.53-.55-1.23-1.62-2.11-2.4-3.27l4.16-2.95c-.17-3.99-1.39-7.02-.76-10.39,1.87-9.94.69-17.36,4.18-20.95l-.6,31.72Z"/>
    <path class="cls-2" d="M334.76,519.85c-2.46,1.31-2.9,3.69-3.03,6.34l-.94,18.25c-.33,6.41-5.69,11.15-12.28,10.15-.58-.08-.91-.23-1.62-.84-.89-.77.17-1.43.18-1.95,4.22-2.66,8.24-3.35,8.5-9.52l.47-11.24c.32-7.53.9-16,5.33-14.75,1.39.39,1.32,1.93,3.38,3.56Z"/>
    <path class="cls-2" d="M317.68,520.08c-3.49,3.59-2.31,11.01-4.18,20.95-.63,3.37.59,6.4.76,10.39l-4.16,2.95c-3.25,2.3-9.09,2.36-11.32-1.36.61.09,1.17-.37.88-.94,2.88-2.21,9.69,1.1,12.13-4.22,1.09-2.36,1.88-15.5-1.15-19.29l1.41-10.99c.17-1.3,2.83-1.53,3.6-.76.66.67,2.04,2.1,2.02,3.28Z"/>
    <path class="cls-4" d="M299.66,552.07c.53-4.58,4.3-2.22,7.75-13.21l3.23-10.3c3.03,3.79,2.23,16.93,1.15,19.29-2.45,5.32-9.25,2.01-12.13,4.22Z"/>
    <path class="cls-4" d="M201.76,564.35c.38.31-.02,1.64.18,2.15,13.65,33.39,17.03,70.03,9.23,105.77l3.87,2.71c-2.2-.03-4.15-.02-5.27,1.99-1.55,2.78-1.96,6.2-2.3,9.15l-12.99-3.24c2.3.81,2.13-1.86-.21-1.18-.54-2.91,1.24-5.48,2.19-8.74-3.27-7.79-4.34-15.56-4.61-23.92l-1.69-52.9c-.35-11-.6-21.55-2.05-32.25l13.64.45Z"/>
    <path class="cls-5" d="M228.96,673.81c-.2.58.14,1.39.75,1.3l1.03-.15,16.41.52c.66.02,1.66-1.24,2.51-.42.45.44.66,1.17.68,1.88.12,4.34-1.38,7.13-4.88,7.76-.25-1.4-1.29-2.2-2.63-2.54l-12.87-3.26c-2.51-.64-5.11-2.89-5.37-4.76l4.36-.33Z"/>
    <path class="cls-5" d="M186.68,682.02c-.06.7-.73,1.02-1.69,1.03,4.35,3.98,14.56.62,20.65,5.66,1.57,2.52-2.4,5.47-4.46,5.62-1.88-4.8-11.62-3.51-18.59-9.95-.53-.49-1.39-1.91-1.19-2.44,1.98.33,3.58.3,5.28.08Z"/>
    <path class="cls-4" d="M241.49,564.26c-.43,1.55-.08,2.34.92,3.94,11.81,18.78,17.85,41.36,14.49,63.62l-7.59,30.66c-.91,3.67-2.53,7.12-1.43,10.91l-9.71-.48c.2-.29.44-.94.19-1.15-.27-.23-1.16-.26-1.55-.42-.47-5.08-1.54-9.76-3.62-14.4l.17-26.68-2.62-35.27c-.71-9.57-2.54-18.68-6.48-27.56-.54-1.21-.74-2.34-.72-3.39l17.96.21Z"/>
    <path class="cls-5" d="M263.51,650.64c1.82-8.76,8.69-17.3,8.01-34.86l-.5-12.84c-.12-2.99-.08-5.49.27-8.09.33-.01.89-.04,1.14.08,1.87.94,2.38,21.26,1.16,31.34-.99,8.21-3.69,16.03-6.89,23.47-.53,1.23-2.71,1.4-3.19.89Z"/>
    <path class="cls-5" d="M282.41,665.16c-6.57-.58-13.97-1.61-19.22-5.51,8.34-1.52,15.5-.41,24.04-4.52.48,2.42.48,4.37-.09,6.32-.69,2.35-2.47,3.91-4.72,3.72Z"/>
    <path class="cls-1" d="M269.88,586.71l-5.41-5.21c-1.05-1.2-1.1-2.46-.49-3.69,1.41-.12,2.28.17,2.78,1.39l3.12,7.51Z"/>
    <path class="cls-4" d="M132.8,683.41l.73,5.79,1.27-.04-1.17-12.45-.72-27.88-.3-28.2-.32-22.66.19-31.53c0-.92-1.15-1.02-1.76-.6.08-1.24-1.07-2.56-.53-3.86,1.68-.3,3.3.25,4.91.72,1.64,1.19,5,3.01,5.14,5.74l.99,19.11.92,53.17,1.62,21.04.17,13.77c.04,2.96,2,6.54.66,9.57-1.82,4.12-7.37,4.65-9.78,6.51l-2.63-1.95c-3.53-.98-8.32-2.59-10.19-6.1-4.39-22.55-6.24-44.81-6.48-67.77l-.35-33.09c-.08-7.66,2.57-14.75,1.79-22.49-.97-.8-2.23-1.23-2.99-2.33,1.02.11,1.64-.17,1.54-1,.28.09.71,0,.92-.1,6.11,2.48,6.25,8.84,6.74,17.57l1.71,30.83c.85,15.35,2.79,30.14,3.32,45.5.4,11.61.95,22.91,3.32,35.06,1.29.06.9-1.7,1.29-2.36Z"/>
    <path class="cls-2" d="M126,560.33c-3.15-1.23-6.28-2.97-9.57-3.54-.21.1-.64.19-.92.1-1.73-.57-4.41-2.41-4.49-4.46,1.17,1.67,3.19,1.79,5.37,2.14l6.11.99c1.22.2,2.55.87,3.18,1.37.84.66.25,2.58.32,3.4Z"/>
    <path class="cls-7" d="M142.98,565.8c-4.53-4.67-9.95-3.69-7.89-3.09-1.61-.47-3.23-1.03-4.91-.72.18-.44.21-1.3.07-1.76,2.88-3.27,10.89.46,12.73,5.58Z"/>
    <path class="cls-4" d="M139.83,515.74c-1.57,10.19-.66,20.64-2.73,31.42-5.95,1.18-11.61-2.5-14.22,4.94-.91.03-2.42.84-3.41-.16.28-.12.93-1.6.55-1.38-.79.47-1.91-1.11-.07-.93,3.16-10.51-.84-22.13,6.26-31.28,1.38-1.77,3.15-3.17,5.51-3.04l8.11.44Z"/>
    <path class="cls-3" d="M358.44,517.99c.16,2.44,1.13,4.26.68,7.54-.49,3.57.54,8.18-1.26,11.57s-5.6,5.99-8.4,8.49l1.91-26.02c1.86-1.42,4.74-.99,7.07-1.57Z"/>
    <path class="cls-4" d="M285.62,561.34l2.99.32c.51,0,1.04,1.42.64,2.36,6.38,6.23,9.03,14.55,10.64,23.24,2.64,14.25.66,28.09-2.93,42.15-1.78,6.96-3.03,13.68-9.05,18.42-.06,2.13-.71,3.72-.93,5.34-2.02.75-4.1,1.46-6.5,1.86-1.09-.73-1.92-.76-4.26-.23l-.79-22.16c2.16-24.92,4.11-49.47-10.95-70l-3.72-.56,24.86-.75Z"/>
    <path class="cls-2" d="M312.5,559.41l1.25,1.57c5.91,9.67,8.44,20.83,8.95,32.51,1.02,23.24-10.5,40.89-10.73,42.18-.18.97.64,1.83,1.85,2.7-7.58,8.06-17.39,11.29-26.83,14.8.21-1.62.86-3.21.93-5.34,6.02-4.74,7.28-11.46,9.05-18.42,3.59-14.06,5.58-27.9,2.93-42.15-1.61-8.68-4.26-17.01-10.64-23.24.4-.94-.13-2.37-.64-2.36l-2.99-.32,26.88-1.93Z"/>
    <path class="cls-1" d="M313.74,560.99l-1.25-1.57v-1.78c.64-.11.89-.4,1.19-1.53,1.64,2.07,2.8,3.77,2.77,6.45-1-1.1-1.54-1.73-2.71-1.56Z"/>
    <path class="cls-2" d="M126,560.33c.14,1.56.86,4.05,1.47,5.54,2.4,5.84-.2,12.35,2.12,16.14l1.19,42.58.51,34.6.86,15.09.65,9.12c-.39.66,0,2.41-1.29,2.36-2.37-12.15-2.92-23.45-3.32-35.06-.53-15.37-2.47-30.16-3.32-45.5l-1.71-30.83c-.48-8.73-.62-15.09-6.74-17.57,3.29.57,6.42,2.31,9.57,3.54Z"/>
    <path class="cls-1" d="M131.17,558.46c-.68.53-1.13,1.1-.92,1.77.14.47.11,1.33-.07,1.76-.54,1.3.61,2.63.53,3.86l-1.11,16.17c-2.32-3.8.28-10.31-2.12-16.14.38-3.31-1.42-6.51-.15-10.06,2.14.26,2.36,2.35,3.85,2.65Z"/>
    <path class="cls-5" d="M143.04,562.03c-.79.88-.99-.16-1.26-.31-.45-.24-.9-1.29-.2-1.81.54-.4,2.18,1.31,1.46,2.12Z"/>
    <path class="cls-1" d="M115.98,509.59c-.2,2.02-1.97.88-1.28-.29-.04-1.39,1.59-1.06,1.28.29Z"/>
    <path class="cls-7" d="M225.49,270.27c.49-1.35,1.74-2.12,2.66-3.07.44-.16.83-.03,1.02.12-.49,1.35-1.74,2.12-2.66,3.07-.44.16-.83.03-1.02-.12Z"/>
    <path class="cls-3" d="M203.38,194.76c-4.03-.86-6.85-6.49-5.27-10.55,1.42-3.67,6.49-4.98,9.75-2.56l-4.47,13.11Z"/>
    <path class="cls-3" d="M132.8,683.41l-.65-9.12-.86-15.09-.51-34.6-1.19-42.58,1.11-16.17c.61-.43,1.76-.33,1.76.6l-.19,31.53.32,22.66.3,28.2.72,27.88,1.17,12.45-1.27.04-.73-5.79Z"/>
  </g>
</svg>