<?xml version="1.0" encoding="UTF-8"?>
<svg id="Réteg_1" data-name="Réteg 1" xmlns="http://www.w3.org/2000/svg" viewBox="0 0 409.19 709.78">
  <defs>
    <style>
      .cls-1 {
        fill: #1c395c;
      }

      .cls-2 {
        fill: #f39ea5;
      }

      .cls-3 {
        fill: #fbedde;
      }

      .cls-4 {
        fill: #fcddb8;
      }

      .cls-5 {
        fill: #3e649e;
      }

      .cls-6 {
        fill: #f1b3a7;
      }
    </style>
  </defs>
  <g id="Generatív_objektum_0_0_" data-name="Generatív objektum (0, 0)">
    <g>
      <g>
        <path class="cls-1" d="M324.33,436.05l.02,6.62v19.88s0,2.65,0,2.65h-1.32s.07-19.97.07-19.97c0-1.42-.51-2.41-1.39-2.56v-2.65c1.56.22,1.56-1.55,0-1.32,0-1.02.57-1.96,1.32-2.65h1.3Z"/>
        <path class="cls-1" d="M159.64,423.57c-3.05-.23-6.25.09-8.23,3.05-1.46,2.19-1.62,5.38-2.09,8.17-1.04,6.29-.25,12.43-.02,18.68.25,7.2-.21,14.28,1.38,21.41.53,2.38.69,5.58,4.79,5.6l19.99.13c6.23.04,11.56.31,17.85.31l101.84-.05c6.82,0,7.1-6.16,10.22-4.07.46.31,1.25.45,1.81.55l-.15,1.01c-1.1.78-1.16,2.2-.55,2.93,1.36,1.63,9.04,2.06,12.25-1.11,1.95-1.93,1.38-4.35,1.78-6.99l1.21-7.98h1.32s-.01,6.61-.01,6.61l-.14,2.66-.59,6.79c5.68,3.52,11.11-.63,14.81-2.2,4.52,2.67,12.21,5.23,15.7-1.5l.24-2.56c.04-.46,1.78-.42,2.26-.26.74.24.48,3.09.68,4.02,3.05,2.19,8.89.21,11.93-1.73,1.94,4.38.53,9.46,1.45,14.78l2.5,14.49c-1.53.99-1.8,2.96-1.71,5.32-5.38-17.52-22.44-17.37-42.22-15.37-1.35,5.76-1,11.25.52,16.74,6.49,23.54,8.9,46.85,6.44,71.51-1.06,10.67-2.58,21.69-7.31,31.16-1.9,3.81-6.16,7.4-8.89,10.67l-16.09,9.04c-3.52,4.19-2.75,11.85-6.91,15.7l-13.73,7.64c-6.42,3.57-13.01,5.06-20.41,5.83l-4.41,9.1c-10.67,5.07-22.66,8.62-34.61,8.62-5.83,0-8.2,2.12-12.81,4.88-5.9,3.53-14.54,4.32-21.67,4.39-3.19.03-6.55,4.48-4.5,5.51,6.97,3.53,15,2.13,21.83,2.09l30.77.71,29.9-1.47c2.23-.11,5.21.89,6.7-1.28l1.05-.06c12.58-.72,22.06,4.78,35.54-11.92,1.57,2.86-2.11,5.96-2.12,7.75.14,3.04,3.76,1.58,5.15,1.7l13.29,1.16,6.65-.85c7.09-.9,14.08-.98,21.2-1.76,5.51-.6,10.85-1.87,16.93-5.01-.97-23.51-.3-46.6.19-70.47l.84-40.58.69-53.62c.02-1.75,1.36-2.62,2.71-2.55,1.89.04,3.89.67,5.7,1.66-.82,3.05-5.22,6.81-4.07,10.23l3.24,9.65.13,141.17c4.43,1.08,7-1.34,9.47-3.8.03,1.82.24,3.59.08,6.13l-26.74,9.67c-10.29,3.72-21.34,4.58-32.23,4.94l-26.93.89c-7.36.24-13.92,3.37-21.63,2.05l-10.7,1.56-140.7-.38c-8.58-.02-15.57-2.93-23.35-4.39-6.39-1.19-13.21-.79-19.75-1.57-16.42-1.97-31.92-4.92-46.81-11.8-1.18-1.52-2.57-4.71-4.98-5.63l-6.56-2.49.48-2.26,2.72-.52c.37,1.9,2.57,1.26,1.84-.29l.95-33.37c1.1.86,1.73.18,1.7-.91.29-2.84,1.1-4.97,2.25-6.62l1.29,41.26.23,4.36c.08,1.63,1.75,1.57,2.63,2.27,10.9,8.51,40.16,12.82,57.47,10.13.3-10.2-1.41-19.9-1.98-29.57l-1.2-20.38.75-31.96c.03-3.4-2.1-4.09-3.18-5.62-1.81-2.55.93-6.2,1.14-8.91l1.1-14.44.77-13.25.81-1.2c.31-.46-.49-1.33-1-1.83.67-3.57,2.02-7.82,1.73-11.73,2.22,5.57.07,11.6,1.04,17.24l.25,1.46c.62,3.59,1.35,9.61-.53,12.84-2.63,4.52-.04,8.21.17,12.35,1.07,20.46,1.9,40.95,4.49,62.19l4.52,37c7.06,2.83,13.84,2.68,20.3,3.01l18.42.93,12.19-1.06,9.09-1.48c1.33-.22,4.66,1.06,5.49-1.48.97-3.27,1.51-10.16.08-13.53-5.27-3.9-17.58-3.11-16.4.45-2.12-1.6-6.93-3.65-7.77-6.27,2.61-2.31,6.39-2.26,9.67-1.72l12.5,2.04c1.18.43,3,1.61,4.22,2.18,8.79,4.1,18.23,7.83,28,6.29,2.47-.39,3.77-1.86,4-3.42.43-2.93.72-7.03-1.77-7.84l-10.12-3.29c-4.5-1.47-7.83-3.47-12.27-4.61,4.66-1.41,8.4-.32,12.17-.11,3.82.21,7.34,1.93,10.92,3.22,1.24.45,2.6,1.3,4.03,1.16-.82.83-.25,1.57.41,1.58l2.1.06c.68.02,1.93-.19,2.62.15,11.24,5.41,25.95,5.4,35.76-2.36,3.79-3,3.88-7.82,2.8-12.62-8.96,1.31-15.92-.36-23.31-3.21,2.17-.47,2.86-.24,3.46-1.69l5.22-.14,10.94,1.5,8.48,1.56c5.51,1.01,12.18,1.85,17.42-.13,5.29-2,10.15-3.38,13.45-8,1.48-2.07,6.05-4.58,3.95-16.71-7.12,4.04-15.62,5.03-21.91,2.02l9.77-2.5,10.58-1.24c11.32-1.33,22.76-5.96,29.04-16.02-.63-1.2-2.06-2.71-2.07-3.58.04,1.72,22.21-44.52,1.39-98.59l-3.02-5.41c-1.49-6.67-5.73-14.97-13.75-16.49-11.35-2.14-22.49.2-34.21.39-3.71.06-9.81-.81-11.36,3.44-1.23,3.36,2.14,7.81,3.56,10.25,2.41,4.18,4.21,8.32,3.89,13.09-3.38-3.31-3.37-8.32-6.92-9.04-.16-.39.18-1.43.51-1.88-4.05-16.06-20.42-17.01-38.41-15.4-7.89.71-.65,10.77-2.09,18.49-2.4-5.72-3.2-13.34-9.22-16.8-7.73-4.44-17.9-3.81-26.35-2.38-2.2,2.38-.93,7.12-.77,9.43l.95,13.48c.1,1.37-.58,4.15,1.43,5.1-.14.85-.06,2.13.13,2.96l-2.93.05-4.56-19.96c-.58-2.55.75-5.29-1.45-7.8s-4.33-4.2-8.36-4.06l-16.79.57c-3.5.12-2.81,5.97-2.89,8.35l-.11,3.12c-2.69-.63-1.99-4.32-3.15-6.21-2.89-4.73-10.15-7.15-14.73-5.46-1.69.62-.52,5.1,1.24,4.79.96-.17,2.37,1.48,3.36,1.6-2.1-.58-4.5.44-5.27,2.29-.25.61-1.48.9-1.34,2.19.08.77.18,1.75,1.13,2.1l-.06,3.72-2.19,6.88c-.21-5.68-1.5-11.74-2.92-16.88,2.09-.93,3.24-3.07,1.81-5.66-.78-1.41-2.2-3.68-4.64-3.71l-15.37-.21-.44,7.83-.38,2.52-4.06,33.86-.65,20.6-2.81-2.71c1.26-16.09,3.42-32.29,2.14-48.42,1.98-3.12,3.48-8.96-.29-11.4-1.97-1.28-19.88-2.72-29.54-2.8-7.51-.07-14.77-9.78-17.7-.78-.77-1-1.3-2.26-2.27-2.85l-6.85-3.95c-.92-1.47-2.8-3.18-2.28-5.36l10.63-1.08c.08,3.61,3.31,4.2,5.04,5.6,3.54,2.88,7.15.38,10.72-.01,8.85,5.23,11.21,2.54,18.28-.21.17.37.23,1.06.22,1.64,3.09,2.69,9.48,2.85,11.92-.48l2.95-4.02c-.04,1.21.08,3.73,1.69,4.66,2.8,1.62,6.49.04,8.75-.58.58.24,1.46.91,2.05.81,2.34-.37,2.24-3.83,4.7-6.5l1.13,2.86c.36.8.41,1.92,1.16,2.5s1.92.64,2.78.47c.05.27.13.67.05.95-1.62,5.38,13.96,5.46,23.49,2.11,1.76-.62.56-5.58-1.24-6.02-1.09-13.2-.81-26.4-.2-40.22.23-5.21,1.44-10.24,4.15-14.4,3.91.14,6.58,1.04,9.1,2.43Z"/>
        <path class="cls-5" d="M371.85,506.31l-.12,7.96c-.05,3.23,1.08,4.95,3.12,6.64-1.34-.07-2.68.8-2.71,2.55l-.69,53.62-.84,40.58c-.5,23.87-1.17,46.96-.19,70.47-6.07,3.13-11.42,4.41-16.93,5.01l-1.29-30.7c-5.7.57-10.64,2.26-14.71,5.13-12.54,3.73-22.39,14.09-25.15,27.02-1.39-.12-5.01,1.34-5.15-1.7.01-1.79,3.7-4.89,2.12-7.75-13.48,16.7-22.96,11.2-35.54,11.92.34-.53,1.19-1.47,2.33-1.67,24.52-4.37,41.62-21.5,55.16-40.55,4.56-6.41,8.4-13.02,10.66-21.1,5.97-21.33,10.27-42.11,11.09-64.35.67-18.13,2.71-47.59-3.01-56.91-3.4-5.54-10.61-7.84-17.77-7.62l4.74,17.52,1.98,18.89c2.6,24.75,2.69,50.4-4.71,74.56-4.09,13.36-17.25,20.79-28.54,26.6l-3.16,9.1c-8.4,11.55-21.38,17.08-35.63,18.59l-7.56,10.82c-9.39,3.95-19.02,6.96-29.06,8.53-10.08,1.58-19.38,6.42-31,7.36,1.97,2.3,4.42,2.31,6.02,2.34-6.83.04-14.86,1.44-21.83-2.09-2.05-1.04,1.31-5.48,4.5-5.51,7.13-.07,15.77-.86,21.67-4.39,4.61-2.76,6.98-4.88,12.81-4.88,11.95,0,23.94-3.55,34.61-8.62l4.41-9.1c7.4-.77,13.99-2.25,20.41-5.83l13.73-7.64c4.17-3.85,3.39-11.51,6.91-15.7l16.09-9.04c2.73-3.27,6.99-6.86,8.89-10.67,4.73-9.47,6.24-20.49,7.31-31.16,2.46-24.67.05-47.98-6.44-71.51-1.51-5.49-1.87-10.98-.52-16.74,19.78-2,36.84-2.15,42.22,15.37-.09-2.36.18-4.33,1.71-5.32Z"/>
        <path class="cls-3" d="M42.31,473.06c-.52,2.18,1.37,3.89,2.28,5.36l-2.31,22.64c-2.17,21.19-2.82,41.53-2.74,62.11-2.87,3.48.45,9.37-2.4,12.04.11-.66-.12-2.02-.31-2.68.41-5.38-.38-10.59-.53-15.91l-.82-27.65c-2.8.27-7.26,1.56-9.03,4.39l-.18,137.2c0,1.63-.44,2.41-1.18,3.03l-6.58-3.73c-.78-2.14-1.5-4.12-1.49-7.28l.41-130.39c.01-4.18,1.34-8.67,3.48-10.72,6.05-5.78,14.9-1.21,14.76-6.03-.4-14.63.65-28.86,4.04-42.61l2.59.22Z"/>
        <path class="cls-5" d="M389.14,666.64l.18,13.18c-2.47,2.46-5.04,4.88-9.47,3.8l-.13-141.17-3.24-9.65c-1.15-3.41,3.25-7.18,4.07-10.23,2.46-.59,5.26.63,6.08,3.55l2.65,9.53-.14,130.99Z"/>
        <path class="cls-5" d="M25.09,673.59l4.42,2.96-.48,2.26c-4.49-1.71-8.81-4.3-10.52-8.95l6.58,3.73Z"/>
        <path class="cls-3" d="M94.31,498.3c-.64,1.93-.1,4.55-.17,6.6-2.02-.11-3.1.8-4.21,2.67-17.63,29.65-22.53,66.12-21.22,100.77l-1.05,19.76-2,23.85c11.87-21.14,19.6-43.35,25.13-66.05l2.98.19c-3.69,17.36-6.59,35.53-15.74,51.37l-14.13,24.45c17.11-9.3,22.4-31.16,26.15-33.58.22,1.42-.67,3.61-.18,5-7.15,10.04-11.81,21.33-15.66,33.46-2.35,7.39-5.15,14.27-5.38,22.07-8.72-1.29-17.07-3.48-25.71-6.13-.89-.69-2.55-.64-2.63-2.27l-.23-4.36.08-41c2.36-17.63,1.43-35.13,2.32-53.26l2.73-55.13c.62-12.51,3.08-23.8,5.69-35.23,1.2-.54,2.36-1.73,2.57-2.93.46,2.56,2.33,3.42,5.06,3.86l21.71,3.48c4.84.78,9.2,3.21,13.89,2.41Z"/>
        <path class="cls-4" d="M206.27,499.46c-.39,4.22,1.59,7.74,2.86,12.37,12.05,44.21,13.57,90.26,6.74,135.02-.2,1.34-1.1,2.87.17,3.99l2.67,2.34c-2.88.09-4.87.91-5.21,2.5l-1.04,4.91c-.85,4.03-.57,8.17-4.29,9.78-3.57-1.3-7.1-3.01-10.92-3.22,0-.49.14-1.32-.02-1.94-1.26-4.98,2.6-10.45,2.01-15.95-.49-4.63-2.91-9.46-3.16-14.71l-1.34-27.5-1.3-60.98c-.35-16.43-.11-32.19-3.02-47.69,5.29-.03,10.74-.51,15.85,1.09Z"/>
        <path class="cls-4" d="M246.31,500.34c.37,4.9,3.05,8.75,4.67,12.74,11.51,28.31,15.87,58.88,10.47,88.89l-9.26,52.84-10.94-1.5c-2.3-3.45,1.31-9.6.46-12.65-2.69-7.14-4.21-12.93-3.74-20.46l1.3-21.17-1.28-23.85-3.86-46.37c-.82-9.89-3.69-18.73-5.65-27.64l1.86-1.54c5.34.38,10.73.15,15.97.71Z"/>
        <path class="cls-4" d="M170.83,498.45c3.8,26.97,6.04,54.04,5.54,82.01l-.85,47.47-2.99,28.45c-.15,1.4-.38,2.68.16,3.72s2.23,1.52,3.72,1.58l-1.68,7.57c-.08.37-1,.71-.99,1.47,0,.27.5.6.67.75,0,.64-.23,1.99.1,2.58-.94.98-1.33,2.29-1.5,3.89l-12.5-2.04,1.37-9.23c-3.15-19.63-6.13-38.46-6.5-58.39-.46-24.93-.73-48.9-.19-73.63l.66-36.26c4.93.26,9.97-.11,14.96.06Z"/>
        <path class="cls-4" d="M295.06,499.73c-.31,4.64,3.48,8.02,5.14,11.98,13.28,31.62,8.86,68.13.39,101.76-3.97,5.1-5,10.83-6.66,16.34l-10.58,1.24-.32-8.1c-.27-6.39.56-12.48-1.15-18.82,1.9-32.9,5.03-68.33-9.38-97.71-1.16-2.36-3.29-4.08-2.88-6.71l25.43.03Z"/>
        <path class="cls-3" d="M113.84,497.1c.65.48,1.71,1.35,2.59,1.45.42,11.87.41,23.63-2.56,35.81l.47,78.5c.14,22.97,1.61,45.14,4.87,67.92,4.03,4.21,9.55,4.65,14.37,5.1l6.88.9c-3.12.01-6.38,2.13-10.39,2.45l-.32,10.83c-6.46-.33-13.24-.18-20.3-3.01l-4.52-37c-2.59-21.25-3.42-41.73-4.49-62.19,2.13-3.49,2.14-8.72-.17-12.35,1.88-3.24,1.15-9.25.53-12.84.35-.34,1.05-.99,1.05-1.44l.07-19.89.65-20.6,4.06-33.86,7.21.23Z"/>
        <path class="cls-2" d="M322.3,511.62c20.82,54.06-1.36,100.31-1.39,98.59.02.86,1.45,2.38,2.07,3.58-6.29,10.06-17.73,14.69-29.04,16.02,1.66-5.51,2.68-11.24,6.66-16.34,8.46-33.63,12.88-70.13-.39-101.76,1.96-.07,4.66-.04,6.44,1.67,5.96,5.7,9.02-.8,15.65-1.76Z"/>
        <path class="cls-2" d="M179.16,500.92l4.56,19.96c.78,3.4.89,6.89,2.29,10.15l2.74,6.37,3.15,51.04c1.63,26.47-1.88,51.82-8.09,76.68-.65,2.61,2.44,6.34,4.45,7.71l13.54,9.17c1.91,1.29,3.52,2.38,3.44,4.42-9.77,1.53-19.21-2.19-28-6.29-.29-2.4-1.66-4.18-2.72-6.07-.33-.59-.11-1.94-.1-2.58,2.39.34,2.24-2.03.32-2.22l1.68-7.57c1.55-.58,3.6-1.04,3.97-4.38l1.45-13.14c.71-6.39-.41-13.05-6.31-16.23l.85-47.47c.5-27.97-1.75-55.05-5.54-82.01,2.85.1,5.5.9,8.33,2.48Z"/>
        <path class="cls-2" d="M136.29,495.81c7.51.91,8.82,7.34,11.7,12.95,1.59,3.11,1.39,5.41,1.52,9.5l1.87,59.6,1.16,33.16c.75,21.5,1.06,42.41-3.28,63.5-.31,1.52,1.41,2.48,1.61,3.1.84,2.62,5.65,4.67,7.77,6.27,8.93,6.74,14.67,9.59,10.82,14.56l-9.09,1.48-.34-13.1c-.87-.52-2.27-.13-2.77-.13l-16.8.08-6.88-.9c-.17-.81.21-1.62,1.44-1.98,12.55-3.63,9.02-15.78,8.14-26.5-.75-9.2.73-17.82-1.32-27.01l-.27-121.41c0-2.57-1.3-3.92-2.3-5.1-2.1-2.48-5.06-3.68-8.22-4.29l-.03-1.49c.77-1.85,3.17-2.87,5.27-2.29Z"/>
        <path class="cls-2" d="M331.28,654.83c-13.54,19.05-30.64,36.18-55.16,40.55-1.14.2-2,1.14-2.33,1.67l-1.05.06c-2.26.13-5.06-.51-6.7,1.28l-29.9,1.47c-4.32-1.94-6.48-6.06-5.79-10.41,10.04-1.57,19.67-4.59,29.06-8.53-.11,2.07.95,3.63,2.36,4.11,1.64.56,2.93-.32,4.53-.83,15.1-4.82,28.35-11.6,40.19-22.39,5.51-5.02,9.47-11.55,16.65-15.76,3.22,2.68,6.09,5.57,8.15,8.79Z"/>
        <path class="cls-2" d="M267.4,516.89l1.34,1.31-1.24,2.13c-.85,1.43,1.03,2.43,2.34,1.77l.08,2.49c-.76.27-1.63.87-1.91,1.47-.4.87-.22,1.95.3,3.06,5.07,10.78,3.75,19.44,8.59,19.67,1.3,14.32,2.54,29.38.05,43.62-2.1-.54-2.9.34-3.06,2.01-.19,2.04.13,3.23,2.1,3.48-.11.66-.45,1.5-.48,2.19-4.34,1.82-9.03,1.71-14.06,1.87,5.39-30,1.04-60.57-10.47-88.89,3.32-.19,6.44-.74,9.61-2.12.7-.32.33-2.53-.11-3.1,3.55.72,3.54,5.73,6.92,9.04Z"/>
        <path class="cls-4" d="M36.3,556.61c-2.87,1.72-1.98,5.3-1.96,7.94l.69,77.81-.95,33.37-1.84.29-2.72.52-4.42-2.96c.73-.62,1.17-1.4,1.18-3.03l.18-137.2c1.76-2.82,6.22-4.11,9.03-4.39l.82,27.65Z"/>
        <path class="cls-2" d="M275.51,600.09c-.39,9.45-6.34,17.25-4.26,23.18-1.39,3.23-2.25,6.73-2.62,10.23-.09.87.44,2.25,1.14,2.92,7.66,7.28,17.5,7.13,21.76,11.81-3.3,4.62-8.16,6-13.45,8l-17.42.13-8.48-1.56,9.26-52.84c5.03-.16,9.72-.05,14.06-1.87Z"/>
        <path class="cls-3" d="M190.42,498.37c2.91,15.5,2.67,31.26,3.02,47.69l1.3,60.98,1.34,27.5c.26,5.25,2.67,10.08,3.16,14.71.59,5.5-3.27,10.97-2.01,15.95l-13.43-.08c6.21-24.86,9.73-50.21,8.09-76.68l-3.15-51.04-2.74-6.37c1.76-3.3,1.44-6.78.65-10.2-.19-.82-.26-2.11-.13-2.96.3-1.84.49-4.03-1.43-5.1l-.95-13.48c2.02-.98,4.14-.92,6.27-.93Z"/>
        <path class="cls-3" d="M155.87,498.39l-.66,36.26c-.54,24.73-.27,48.7.19,73.63.37,19.94,3.35,38.76,6.5,58.39l-1.37,9.23c-3.28-.54-7.06-.59-9.67,1.72-.2-.62-1.92-1.58-1.61-3.1,4.34-21.09,4.03-42.01,3.28-63.5l-1.16-33.16-1.87-59.6c-.13-4.09.07-6.39-1.52-9.5,2.94-1.08,1.49-4.93,1.59-7.65l.11-3.12,6.19.4Z"/>
        <path class="cls-3" d="M269.63,499.7c-.4,2.63,1.73,4.35,2.88,6.71,14.4,29.37,11.28,64.81,9.38,97.71,1.7,6.35.88,12.43,1.15,18.82l.32,8.1-9.77,2.5c-.72-.35-1.45-.35-2.19-.28l-2.75.25c.37-3.51,1.23-7.01,2.62-10.23.8-.35,1.75-1.11,2.17-2.32,6.02-17.48,7.87-35.18,7.31-53.66-.24-7.85.15-14.83-2.41-21.79-.85-2.33-.37-5.96-1.78-8.55l-3.77-13.68c-.49-1.59-1.84-2.08-2.66-2.47-.36-.68-.69-1.93-1.38-2.6l-1.34-1.31c.32-4.77-1.47-8.91-3.89-13.09-.73-1.87-.25-4.06,1.98-4.07l4.14-.03Z"/>
        <path class="cls-3" d="M228.73,499.51c.02.47,0,1.15-.25,1.65,1.96,8.91,4.83,17.75,5.65,27.64l3.86,46.37,1.28,23.85-1.3,21.17c-.46,7.53,1.06,13.32,3.74,20.46.85,3.05-2.75,9.2-.46,12.65l-5.22.14-6.59,1.1c-.21-1.62-.47-4.76.22-6.14,5.27-10.11,4.89-22.75,6.63-34.31,1.47-9.76.18-18.55-.3-28.18-.92-18.43-2.48-36.15-6.79-53.34l-8.18-32.62,7.71-.43Z"/>
        <path class="cls-2" d="M51.44,482.37c-.91,2.72-1.04,6.47-.37,9.11-2.61,11.43-5.07,22.72-5.69,35.23l-2.73,55.13c-.9,18.13.04,35.63-2.32,53.26-1.97-11.55-2.6-22.97-2.25-34.84.71.23,1.59-.35,1.58-1.27l-.14-35.81c-.08-20.58.57-40.92,2.74-62.11l2.31-22.64,6.85,3.95Z"/>
        <path class="cls-2" d="M125.64,496.11c1.42,5.14,2.71,11.2,2.92,16.88l-.22,10.57c-.03,1.52.47,2.44,1.32,2.6l.03,103.37-2.45,2.61-1.91-46.38-1.39-29.13.02-14.49c0-7.49-.74-13.84-.06-21.32.45-4.95-1.36-10.51-1.2-15.57.13-3.99-3.38-6.38-6.27-6.69-.88-.1-1.94-.97-2.59-1.45l-4.02-2.99c5.29-.47,10.62.22,15.82,2Z"/>
        <path class="cls-2" d="M101.24,500.21c1.28,16.13-.88,32.33-2.14,48.42-.12,1.53-.13,4,.4,5.33.29,3.91-1.07,8.16-1.73,11.73-3.99,4.12-.79,11.98-8.09,18.76l.79-22.2,2.9-35.3.77-22.05c.07-2.05-.47-4.67.17-6.6.57-1.73,1.35-3.32.77-5.44,3.5.35,5.86,3.61,6.16,7.35Z"/>
        <path class="cls-5" d="M319.27,506.2c-7.48-4.22-15.63-6.46-24.21-6.47l-25.43-.03-4.14.03c-2.23.02-2.71,2.2-1.98,4.07-1.41-2.44-4.79-6.89-3.56-10.25,1.55-4.25,7.65-3.38,11.36-3.44,11.72-.19,22.86-2.54,34.21-.39,8.03,1.52,12.26,9.82,13.75,16.49Z"/>
        <path class="cls-2" d="M353.49,693.13c-7.12.77-14.12.85-21.2,1.76-.4-11.11,4.01-18.74,5.2-27.33,4.06-2.86,9-4.56,14.71-5.13l1.29,30.7Z"/>
        <path class="cls-3" d="M139.27,503.89c-1.83-.32-4.24-.6-6.26.54l-1.25,37.39c-.22,6.53.21,11.32.22,17.67l.32,123.14c-2.27-2.23-1.36-4.9-1.26-6.67.29-4.87-1.02-9.45-1.1-14.75l-.22-14.42-.03-10.62v-6.63s-.03-103.37-.03-103.37c0-3.51-.11-6.93,1.01-10.94.89-3.16.03-6.4.07-9.1l.06-3.72.24-2.8c3.17.61,6.12,1.82,8.22,4.29Z"/>
        <path class="cls-4" d="M337.49,667.56c-1.2,8.59-5.61,16.22-5.2,27.33l-6.65.85-13.29-1.16c2.76-12.93,12.6-23.29,25.15-27.02Z"/>
        <path class="cls-2" d="M97.21,581.97l-1.1,14.44c-.21,2.72-2.95,6.36-1.14,8.91l-5.54,15.75c-.74,2.3-1.2,4.62.43,5.92l.21,1.34c-3.75,2.41-9.04,24.27-26.15,33.58l14.13-24.45c9.15-15.84,12.04-34.01,15.74-51.37.39-1.81,1.5-4.52,3.43-4.12Z"/>
        <path class="cls-2" d="M229.66,648.4c-.69,1.38-.43,4.52-.22,6.14.38,2.9,3.9,5.33,5.42,7.54l-6.66,3.58c-5.16,1.15-8.92,3.14-10.87,7.67-.69-.33-1.95-.13-2.62-.15.12-.58-.06-1.76-.96-2.3-.47-.28-1.13.2-1.55.66-1.43.14-2.79-.71-4.03-1.16,3.72-1.61,3.44-5.74,4.29-9.78l1.04-4.91c.34-1.59,2.32-2.41,5.21-2.5l-2.67-2.34c-1.27-1.12-.37-2.65-.17-3.99l13.79,1.55Z"/>
        <path class="cls-5" d="M260.98,505.97c-4.62-3.34-9.26-5.06-14.67-5.64-5.24-.56-10.63-.33-15.97-.71l-1.61-.12-7.71.43,8.18,32.62c-2.14-.66-3.15-2.76-3.98-5.13l-6.85-19.68c-1.88-5.41-6.84-8.47-12.09-8.28-5.11-1.6-10.56-1.12-15.85-1.09-2.13.01-4.25-.05-6.27.93-.16-2.31-1.44-7.05.77-9.43,8.45-1.43,18.62-2.06,26.35,2.38,6.02,3.46,6.82,11.08,9.22,16.8,1.44-7.72-5.8-17.78,2.09-18.49,17.99-1.61,34.36-.65,38.41,15.4Z"/>
        <path class="cls-2" d="M98.61,663.27c.57,9.68,2.28,19.37,1.98,29.57-17.31,2.69-46.57-1.62-57.47-10.13,8.64,2.65,17,4.85,25.71,6.13,5.64.83,14.39,3.45,22.06,2.21l.41-21.49c3.79-.19,4.03-4.23,7.3-6.3Z"/>
        <path class="cls-2" d="M234.86,662.07c5.71,2.57,12.56,4.8,18.23,8.88-9.81,7.76-24.52,7.77-35.76,2.36,1.96-4.53,5.71-6.51,10.87-7.67l6.66-3.58Z"/>
        <path class="cls-2" d="M97.4,642.9l1.2,20.38c-3.27,2.08-3.51,6.11-7.3,6.3v-30.87c0-2.33-.92-3.91-1.43-5.39-.48-1.39.4-3.58.18-5,1.01-.7,1.11-1.64,1.19-2.79.39-5.15,2.15-10.27,4.94-15.06l1.21,32.42Z"/>
        <path class="cls-4" d="M157.25,686.7c1.08,4.27-5.52,1.28-7.06,3.76-1.28,2.07.35,6.72-2.03,10.53l-18.42-.93.32-10.83c4.01-.32,7.27-2.44,10.39-2.45l16.8-.08Z"/>
        <path class="cls-5" d="M101.24,500.21c-.3-3.74-2.67-6.99-6.16-7.35-12.13-1.23-24.45-.89-36.45-5.74-1.15-.46-2.47-2.64-4.01-1.15-.57.55-.79,1.58-.96,2.58-.21,1.21-1.38,2.39-2.57,2.93-.67-2.64-.54-6.38.37-9.11.97.58,1.5,1.85,2.27,2.85,2.94-8.99,10.19.72,17.7.78,9.66.09,27.57,1.52,29.54,2.8,3.77,2.45,2.27,8.28.29,11.4Z"/>
        <path class="cls-5" d="M36.83,572.52c.18.67.41,2.02.31,2.68-1.36,8.41,1.2,16.85.96,25.05-.35,11.87.28,23.29,2.25,34.84l-.08,41-1.29-41.26c-1.16,1.65-1.96,3.78-2.25,6.62.03,1.09-.6,1.77-1.7.91l-.69-77.81,2.49,7.97Z"/>
        <path class="cls-5" d="M179.16,500.92c-2.83-1.57-5.48-2.38-8.33-2.48-4.99-.17-10.03.2-14.96-.06l-6.19-.4c.08-2.39-.61-8.23,2.89-8.35l16.79-.57c4.03-.14,6.17,1.57,8.36,4.06s.87,5.25,1.45,7.8Z"/>
        <path class="cls-2" d="M319.27,506.2l3.02,5.41c-6.63.96-9.7,7.46-15.65,1.76-1.79-1.71-4.49-1.74-6.44-1.67-1.66-3.96-5.45-7.34-5.14-11.98,8.58.01,16.74,2.26,24.21,6.47Z"/>
        <path class="cls-5" d="M291.54,648.23c-4.26-4.68-14.1-4.53-21.76-11.81,1.24-.65,1.78-1.91,1.61-3.16.74-.07,1.47-.06,2.19.28,6.28,3.01,14.79,2.02,21.91-2.02,2.1,12.13-2.47,14.64-3.95,16.71Z"/>
        <path class="cls-5" d="M236.03,653.44c-.6,1.45-1.29,1.22-3.46,1.69,7.39,2.85,14.35,4.52,23.31,3.21,1.08,4.8.99,9.62-2.8,12.62-5.67-4.08-12.51-6.31-18.23-8.88-1.51-2.2-5.04-4.63-5.42-7.54l6.59-1.1Z"/>
        <path class="cls-2" d="M230.34,689.45c-.69,4.35,1.47,8.47,5.79,10.41l-30.77-.71c-1.61-.04-4.06-.04-6.02-2.34,11.63-.94,20.93-5.78,31-7.36Z"/>
        <path class="cls-5" d="M197.23,665.2c.16.62.02,1.45.02,1.94-3.77-.21-7.51-1.3-12.17.11,4.45,1.14,7.77,3.14,12.27,4.61l10.12,3.29c2.49.81,2.2,4.92,1.77,7.84-.23,1.56-1.53,3.04-4,3.42.07-2.04-1.54-3.13-3.44-4.42l-13.54-9.17c-2.01-1.36-5.1-5.09-4.45-7.71l13.43.08Z"/>
        <path class="cls-5" d="M169.45,698.45c3.85-4.97-1.89-7.83-10.82-14.56-1.18-3.56,11.13-4.35,16.4-.45,1.43,3.37.89,10.26-.08,13.53-.83,2.55-4.16,1.26-5.49,1.48Z"/>
        <path class="cls-5" d="M125.64,496.11c-5.2-1.79-10.52-2.47-15.82-2l-2.82.24.44-7.83,15.37.21c2.44.03,3.86,2.31,4.64,3.71,1.43,2.59.27,4.73-1.81,5.66Z"/>
        <path class="cls-5" d="M149.57,501.11c-.09,2.73,1.36,6.57-1.59,7.65-2.88-5.62-4.19-12.04-11.7-12.95-.99-.12-2.4-1.77-3.36-1.6-1.76.32-2.93-4.16-1.24-4.79,4.58-1.68,11.84.73,14.73,5.46,1.16,1.9.47,5.59,3.15,6.21Z"/>
        <path class="cls-2" d="M160.36,699.93l-12.19,1.06c2.38-3.81.74-8.45,2.03-10.53,1.54-2.48,8.14.51,7.06-3.76.5,0,1.89-.4,2.77.13l.34,13.1Z"/>
        <path class="cls-2" d="M260.98,505.97c-.32.45-.67,1.49-.51,1.88.44.57.81,2.78.11,3.1-3.17,1.38-6.3,1.94-9.61,2.12-1.62-3.99-4.3-7.84-4.67-12.74,5.42.58,10.05,2.29,14.67,5.64Z"/>
        <path class="cls-5" d="M97.4,642.9l-1.21-32.42c-2.79,4.78-4.55,9.9-4.94,15.06-.59.13-1.48.93-1.4,1.45-1.63-1.3-1.17-3.62-.43-5.92l5.54-15.75c1.08,1.53,3.21,2.21,3.18,5.62l-.75,31.96Z"/>
        <path class="cls-6" d="M97.97,568.72l-.77,13.25c-1.93-.4-3.05,2.31-3.43,4.12l-2.98-.19c-.46-.02-1.12-.97-1.11-1.44,7.3-6.79,4.1-14.64,8.09-18.76l.2,3.03Z"/>
        <path class="cls-5" d="M101.92,551.33l-.07,19.89-1.3-.02c-.97-5.64,1.18-11.67-1.04-17.24-.53-1.33-.52-3.8-.4-5.33l2.81,2.71Z"/>
        <path class="cls-5" d="M129.66,526.16c-.85-.16-1.36-1.08-1.32-2.6l.22-10.57,2.19-6.88c-.04,2.7.82,5.94-.07,9.1-1.12,4.01-1.01,7.43-1.01,10.94Z"/>
        <path class="cls-6" d="M100.44,597.85c-.22-4.14-2.8-7.83-.17-12.35,2.32,3.63,2.3,8.86.17,12.35Z"/>
        <path class="cls-5" d="M278.09,656.23c-5.24,1.98-11.91,1.14-17.42.13l17.42-.13Z"/>
        <path class="cls-5" d="M186.65,520.84c.79,3.42,1.12,6.9-.65,10.2-1.4-3.26-1.51-6.74-2.29-10.15l2.93-.05Z"/>
        <path class="cls-6" d="M177.24,680.13c-1.22-.57-3.03-1.75-4.22-2.18.17-1.6.56-2.91,1.5-3.89,1.06,1.89,2.43,3.67,2.72,6.07Z"/>
        <polygon class="cls-4" points="109.82 494.11 113.84 497.1 106.63 496.87 107.01 494.35 109.82 494.11"/>
        <path class="cls-5" d="M272.74,697.11c-1.49,2.18-4.48,1.17-6.7,1.28,1.64-1.79,4.44-1.15,6.7-1.28Z"/>
        <path class="cls-2" d="M214.71,673.17l-2.1-.06c-.65-.02-1.23-.76-.41-1.58.42-.45,1.08-.94,1.55-.66.9.54,1.07,1.72.96,2.3Z"/>
        <path class="cls-5" d="M186.53,517.88c-2.01-.95-1.33-3.73-1.43-5.1,1.92,1.07,1.72,3.26,1.43,5.1Z"/>
        <path class="cls-5" d="M131.05,499.59l-.24,2.8c-.96-.35-1.05-1.33-1.13-2.1-.14-1.29,1.09-1.59,1.34-2.19l.03,1.49Z"/>
        <path class="cls-5" d="M97.97,568.72l-.2-3.03c.51.5,1.31,1.37,1,1.83l-.81,1.2Z"/>
        <path class="cls-5" d="M34.08,675.74c.73,1.55-1.48,2.19-1.84.29l1.84-.29Z"/>
        <path class="cls-6" d="M100.8,572.66l-.25-1.46,1.3.02c0,.44-.7,1.1-1.05,1.44Z"/>
        <path class="cls-2" d="M331.28,654.83c-2.06-3.22-4.93-6.1-8.15-8.79-7.19,4.2-11.14,10.73-16.65,15.76-11.84,10.79-25.09,17.57-40.19,22.39-1.6.51-2.89,1.39-4.53.83-1.41-.48-2.47-2.05-2.36-4.11l7.56-10.82c14.24-1.5,27.23-7.04,35.63-18.59l3.16-9.1c11.29-5.81,24.44-13.24,28.54-26.6,7.4-24.16,7.3-49.81,4.71-74.56l-1.98-18.89c2.66-3.8,9.34-2.69,13.03-9.89,5.72,9.32,3.68,38.78,3.01,56.91-.83,22.24-5.13,43.02-11.09,64.35-2.26,8.08-6.1,14.68-10.66,21.1Z"/>
        <path class="cls-2" d="M350.02,512.47c-3.69,7.2-10.36,6.09-13.03,9.89l-4.74-17.52c7.16-.22,14.37,2.09,17.77,7.62Z"/>
        <path class="cls-4" d="M38.1,600.25c.24-8.19-2.32-16.63-.96-25.05,2.85-2.67-.47-8.56,2.4-12.04l.14,35.81c0,.92-.88,1.5-1.58,1.27Z"/>
        <path class="cls-4" d="M36.83,572.52l-2.49-7.97c-.02-2.64-.91-6.21,1.96-7.94.16,5.32.95,10.53.53,15.91Z"/>
        <path class="cls-4" d="M94.14,504.9l-.77,22.05-2.9,35.3-.79,22.2c-.02.47.65,1.42,1.11,1.44-5.53,22.69-13.26,44.91-25.13,66.05l2-23.85,1.05-19.76c-1.31-34.65,3.59-71.12,21.22-100.77,1.11-1.86,2.19-2.77,4.21-2.67Z"/>
        <path class="cls-4" d="M91.3,669.58l-.41,21.49c-7.68,1.23-16.42-1.38-22.06-2.21.23-7.8,3.03-14.67,5.38-22.07,3.85-12.13,8.51-23.41,15.66-33.46.51,1.48,1.43,3.06,1.43,5.39v30.87Z"/>
        <path class="cls-6" d="M95.08,492.86c.58,2.12-.21,3.71-.77,5.44-4.7.8-9.05-1.64-13.89-2.41l-21.71-3.48c-2.73-.44-4.59-1.3-5.06-3.86.17-1,.39-2.02.96-2.58,1.54-1.5,2.87.68,4.01,1.15,12.01,4.86,24.33,4.52,36.45,5.74Z"/>
        <path class="cls-2" d="M229.19,532.56c4.31,17.19,5.87,34.91,6.79,53.34.48,9.64,1.77,18.42.3,28.18-1.74,11.56-1.36,24.2-6.63,34.31l-13.79-1.55c6.82-44.76,5.31-90.81-6.74-135.02-1.26-4.63-3.25-8.15-2.86-12.37,5.25-.19,10.21,2.87,12.09,8.28l6.85,19.68c.82,2.37,1.84,4.48,3.98,5.13Z"/>
        <path class="cls-2" d="M228.48,501.16c.24-.5.27-1.18.25-1.65l1.61.12-1.86,1.54Z"/>
        <path class="cls-2" d="M176.42,661.69c-1.48-.07-3.18-.56-3.72-1.58s-.31-2.31-.16-3.72l2.99-28.45c5.9,3.18,7.01,9.84,6.31,16.23l-1.45,13.14c-.37,3.34-2.42,3.8-3.97,4.38Z"/>
        <path class="cls-6" d="M174.42,671.47c-.18-.16-.67-.48-.67-.75,0-.76.91-1.1.99-1.47,1.92.19,2.08,2.56-.32,2.22Z"/>
        <path class="cls-4" d="M127.24,632.15l-.25,4.01-.03,10.58c-.01,3.49,1.14,6.77,1.2,10.74l.27,17.13c.02,1.51,1.79,1.74,2.62,1.34-.11,1.77-1.02,4.44,1.26,6.67l-.32-123.14c-.02-6.36-.44-11.14-.22-17.67l1.25-37.39c2.02-1.14,4.43-.86,6.26-.54,1,1.17,2.29,2.53,2.3,5.1l.27,121.41c2.04,9.19.57,17.8,1.32,27.01.88,10.71,4.41,22.87-8.14,26.5-1.23.36-1.62,1.16-1.44,1.98-4.82-.46-10.35-.9-14.37-5.1-3.26-22.77-4.73-44.94-4.87-67.92l-.47-78.5c2.97-12.17,2.98-23.94,2.56-35.81,2.89.31,6.4,2.71,6.27,6.69-.16,5.06,1.66,10.62,1.2,15.57-.69,7.49.06,13.84.06,21.32l-.02,14.49,1.39,29.13,1.91,46.38Z"/>
        <path class="cls-5" d="M271.26,623.27c-2.08-5.93,3.86-13.73,4.26-23.18.03-.69.36-1.53.48-2.19l.96-5.49c2.49-14.24,1.25-29.31-.05-43.62l1.42-3.28c2.56,6.96,2.17,13.94,2.41,21.79.56,18.48-1.29,36.18-7.31,53.66-.42,1.22-1.36,1.98-2.17,2.32Z"/>
        <path class="cls-2" d="M269.92,524.59l6.62,12.36c1.41,2.59.93,6.22,1.78,8.55l-1.42,3.28c-4.84-.23-3.52-8.89-8.59-19.67-.52-1.11-.7-2.18-.3-3.06.28-.6,1.15-1.2,1.91-1.47Z"/>
        <path class="cls-5" d="M276.54,536.95l-6.62-12.36-.08-2.49.28-1.29c.82.39,2.17.87,2.66,2.47l3.77,13.68Z"/>
        <path class="cls-2" d="M276.95,592.41l-.96,5.49c-1.97-.25-2.29-1.44-2.1-3.48.15-1.68.96-2.55,3.06-2.01Z"/>
        <path class="cls-2" d="M270.12,520.81l-.28,1.29c-1.31.66-3.19-.34-2.34-1.77l1.24-2.13c.69.67,1.02,1.92,1.38,2.6Z"/>
        <path class="cls-1" d="M271.38,633.26c.17,1.25-.37,2.51-1.61,3.16-.7-.67-1.23-2.05-1.14-2.92l2.75-.25Z"/>
        <polygon class="cls-6" points="129.69 636.16 126.99 636.16 127.24 632.15 129.69 629.53 129.69 636.16"/>
        <path class="cls-6" d="M129.73,646.78l.22,14.42c.08,5.3,1.39,9.88,1.1,14.75-.83.4-2.6.16-2.62-1.34l-.27-17.13c-.06-3.97-1.21-7.24-1.2-10.74l2.77.03Z"/>
        <polygon class="cls-2" points="129.69 636.16 129.73 646.78 126.96 646.74 126.99 636.16 129.69 636.16"/>
        <path class="cls-4" d="M90.06,628.33l-.21-1.34c-.08-.52.81-1.32,1.4-1.45-.09,1.15-.18,2.09-1.19,2.79Z"/>
      </g>
      <g>
        <path class="cls-5" d="M367.37,416.35c.42,1.33-1.11,1.73-1.86,1.29-5.9-5.96-18.47-7.94-24.78-5.19-10.72-1.16-21.02,1.51-31.03,5.35-.37-1.34-1.63-1.58-2.75-1.48,5.55-3.19,12.37-4.99,18.93-6.05,7.3-1.17,16.12.73,23.3-3.85,2.01-1.28-.74-4.57-1.14-5.86-.9-2.89-.62-8.03-2.27-11.13,2.52,1.3,5.51,1.34,8.18,2.95l.97-1.04c-3.18-3.47-7.42-5.81-11.92-7.1,2.61-5.43.96-18.14-1.02-26.82-.17-.76-2.05-1.78-2.51-2.2-.63-.57.78-2.5,2.29-3.45-1.62-20.92-11.56-65.89-30.3-63.7-9.17,1.08-24.12,17.15-27.14,24.78-.79,2-3.18,3.94-3.66,6.35-10.64,16.74-19.16,34.71-27.82,53.15-3.54,7.53-8.39,17.52-11.66,17.42,6.93-14.08,14.69-28.21,19.57-43.77l8.29-26.48c-43.1,24.16-78.7,13.91-106.21-24.09,1.14-.13,2.22-.73,3.28-1.95,2.47,2.05,6.51,2.69,8.98,5.06-.91.38-1.52.29-2.89.22,16.71,15.54,38.94,22.43,62.27,17.18,12.98-2.92,22.98-12.73,33-21.7,10.91-9.77,18.55-21.83,27.48-33.38,2.39-3.09,5.74-5.19,7.34-9.11,23.03,8.88,41.46,29.42,47.38,54.13,2.53,10.53,4.38,19.95,5.56,30.52l7.17,64.11,4.98,15.85ZM355.66,392.15l-.86.88c1.48,1.36,2.68,3.02,5.19,3.56.32-3.59-2.32-4.2-4.33-4.43Z"/>
        <path class="cls-3" d="M214.45,61.09c-11.51.21-21.08,8.83-20.42,21.08.45,8.43.81,16.23.09,24.53-2.73.21-4.86-.13-6.55,1.6,2.44,1,4.75.49,5.61,1.28.79.72.41,3.14.29,4.43l5.2,5.3c-3.27,3.7-5.73,6.98-5.57,11.61,2.75-.45,4.5-.34,5.94,1.42-3.67-.34-5.37,1.5-6.69,3.96-9.68.67-19.53,3.5-28.47,6.31-9.05,2.85-18.79,3.76-27.65,8.61-1.16-1.64-.94-3.89-1.24-6.71l-4.75-44.27-1.51-20.07c8.48-6.45,18.75-9.56,28.75-8.38-2.08,1.32-4.98,2.1-9.1,1.99l4.08,28.47c3.86,2.4,8.07-.29,11.21-.31,4.2-.02,4.46-2.38,5.87-3.37l11.83-8.33c1.87-1.32,4.02-2,4.75-3.99,1.92-5.23-11.04-9.81-4.14-19.84,3.22-4.49,9.01-5.61,14.01-.97,5.39-5.32,12.27-7.65,18.43-4.33Z"/>
        <path class="cls-5" d="M295.08,88.31c.1,7.85-1.54,19.54-3.1,28.79-2.06,12.23-1.72,24.15-4.53,35.33-12.54-3.94-25.03-8.82-38.61-10.24-9.29-.97-18.46-.46-26.54-4.23l6.73.06c3.6.03,6.52-1.66,6.74-5.13-2.8-.38-4.43-.9-5.6-2.63l24.76,3.13c.21-7.29,2.01-14.14,1-20.66l.68-5.44.11-5.43,10.7,2.47c3.28.77,5.19-1.39,5.69-4.36l3.41-20.14c6.92,3.08,11.98,7.08,18.55,8.48Z"/>
        <path class="cls-1" d="M302.27,251.73c-1.6,3.92-4.95,6.02-7.34,9.11-8.93,11.55-16.57,23.61-27.48,33.38-10.02,8.97-20.03,18.78-33,21.7-23.33,5.26-45.56-1.64-62.27-17.18,1.37.08,1.98.17,2.89-.22,1.24,1.19,3.5.76,4.83,1.26,5.72,2.15,12.05,1.68,18.64,1.33l26.46-1.4c4.6-.24,8.83.24,12.04-2.72l1.35-.14c1.74.69,4.67,2.33,7.24.9,17.46-9.65,30.7-25.93,35.2-45.6l4.48-26.95c3.3,10.69,8.53,19.72,16.98,26.52Z"/>
        <path class="cls-4" d="M225.86,64.05c-1.15,2.12.09,4.34,1.75,6.11l-4.51,6.15c-2.49,3.39-.25,8.65-1.21,12.4-1.31,5.15.92,10.1,1.09,16.54-4.48,1.42-9.34,1.34-14.1-.3-.73-.24-2.55,1.22-2.56,2.45l18.03,1.9c-5.76,8.79-3.33,18.05-17.05,18.79-.45,3.6-.5,6.96.95,9.74l-1.66.17-1.45-.03-3.72.23c-.65.03-1.25.35-1.66.85l-2.48-.16c-6.06-.39-25.24,2.01-29.04,5.86l-2.77-.31-1.57-1.86c8.94-2.81,18.79-5.64,28.47-6.31,1.32-2.46,3.02-4.29,6.69-3.96-1.44-1.76-3.19-1.87-5.94-1.42-.16-4.62,2.3-7.91,5.57-11.61l-5.2-5.3c.11-1.29.49-3.72-.29-4.43-.86-.79-3.18-.28-5.61-1.28,1.68-1.72,3.82-1.39,6.55-1.6.71-8.3.36-16.1-.09-24.53-.65-12.25,8.91-20.87,20.42-21.08,3.45,2.02,7.37,4.82,11.41,2.97ZM198.56,82.79c.22,4.69,4.31,9.98,8.59,9.19,5.3-.97,9.35-2.64,10.73-7.15s-.97-8.77-5.2-11.5c-3.35-2.16-7.55-2.51-10.88-.55s-3.45,5.6-3.24,10.01Z"/>
        <path class="cls-4" d="M232.91,88.82c1.2,9.52,9.46,7.97,14.1,9.49,2.65.87,5.12.33,8.11.42.18,1.2,1.22,2.35,1.61,3.13l-.11,5.43c-.46,1.99-3.99,2.58-5.29,3.53.17,2.64,3.31,2.26,4.62,1.92,1.01,6.52-.79,13.37-1,20.66l-24.76-3.13c1.17,1.74,2.8,2.25,5.6,2.63-.22,3.47-3.14,5.16-6.74,5.13l-6.73-.06h-2.52s-2.79-.02-2.79-.02l-8.75-.1c-1.44-2.78-1.4-6.15-.95-9.74,13.72-.74,11.28-10,17.05-18.79l-18.03-1.9c.01-1.23,1.83-2.69,2.56-2.45,4.76,1.64,9.62,1.72,14.1.3-.17-6.45-2.41-11.39-1.09-16.54,3.14.33,6.22.5,8.68-1.23.67.44,1.51,1.19,2.35,1.34Z"/>
        <path class="cls-3" d="M274.16,71.83l-3.04,22.06c-1.42,10.32-8.7-2.08-12.17,4.08-.88,1.87-2.58,1.08-1.88-1.11l3.45-23.94c4.66-2.12,9.35-1.44,13.64-1.09Z"/>
        <path class="cls-2" d="M295.08,88.31c-6.57-1.4-11.63-5.39-18.55-8.48l-3.41,20.14c-.5,2.96-2.41,5.13-5.69,4.36l-10.7-2.47c-.38-.78-1.42-1.92-1.61-3.13l.51-1.28c.25-.62.88-.8,1.43-.6-.7,2.19,1,2.98,1.88,1.11,3.47-6.16,10.75,6.25,12.17-4.08l3.04-22.06c7.09.57,7.93,6.65,19.83,10.05,2.22.63,1.07,4.66,1.09,6.43Z"/>
        <path class="cls-1" d="M375.17,431.86l1.06,2.58,1.44,8c.35,7.47-2.01,15.96.34,23.64,1.7,3.8,10.2,3.44,13.23,2.12-4.95,4.45-12.62,6.69-19.15,6.3-3.59-.31,1.71-4.53,1.05-9.19l-1.16-8.19.71-26.41c.87.46,1.91,1.14,2.47,1.15Z"/>
        <path class="cls-2" d="M391.87,438.1c2.49,4.07,3.19,8.77,3,13.73-3.51,5.08-10.59,6.7-15.77,2.1-.51-4.21-.75-7.75-1.42-11.5l-1.44-8c5.75,2.63,7.93,8.35,15.64,3.66Z"/>
        <path class="cls-2" d="M237.67,75.74c-2.07-.19-5.61.36-6.53,3.07-1,2.95-.39,6.1-.57,8.67-2.47,1.73-5.55,1.56-8.68,1.23.96-3.75-1.28-9.01,1.21-12.4l4.51-6.15c-1.66-1.76-2.89-3.99-1.75-6.11,1.56-.72,2.63-2.46,5.07-1.85,6.92,1.72,8.63,10.68,6.74,13.53Z"/>
        <path class="cls-2" d="M162.68,81.2c-1.77-.5-3.21.19-4.03,2.15-4.2,10.12-.37,16.73-6.16,18.87l-4.08-28.47c4.11.12,7.01-.67,9.1-1.99.69-.33,2.68-.55,3.39.22,2.63,2.89,1.73,6.29,1.78,9.21Z"/>
        <path class="cls-5" d="M394.87,451.83l-.46,11.83c-.1,2.69-1.85,3.36-3.16,4.54-3.04,1.32-11.53,1.68-13.23-2.12-2.36-7.67.01-16.17-.34-23.64.67,3.75.91,7.28,1.42,11.5,5.18,4.6,12.27,2.98,15.77-2.1Z"/>
        <path class="cls-5" d="M162.68,81.2l.25,13.8,6.64,3.55c-1.41.99-1.67,3.34-5.87,3.37-3.15.02-7.36,2.71-11.21.31,5.78-2.14,1.96-8.75,6.16-18.87.81-1.96,2.26-2.65,4.03-2.15Z"/>
        <path class="cls-2" d="M163.89,142.59l1.57,1.86c-.35,2.94-3.17,2.33-5.49,2.73-8.61,1.49-16.8,3.11-22.68,9.34-.15-1.41-.48-4.06-1.05-5.32,8.86-4.85,18.6-5.76,27.65-8.61Z"/>
        <path class="cls-1" d="M247.01,98.31c-4.64-1.52-12.9.03-14.1-9.49,7.99,1.49,12.62,1.06,14.1,9.49Z"/>
        <path class="cls-3" d="M391.87,438.1c-7.71,4.69-9.89-1.02-15.64-3.66l-1.06-2.58c6.43.17,13.23.57,16.7,6.24Z"/>
        <path class="cls-5" d="M237.67,75.74c-2.82,4.26-5.59,7.77-4.76,13.08-.84-.16-1.67-.9-2.35-1.34.19-2.57-.43-5.72.57-8.67.92-2.71,4.46-3.27,6.53-3.07Z"/>
        <path class="cls-4" d="M141.84,408.22c-.1-2.37-1.3-4.52-2.62-6.96-9.99-18.46-13.85-39.5-17.27-59.59,3.36,2.51,7.3,1.89,11.14.06,3.9,19.25,10.81,38.94,23.35,54.96.37-10.71-5.81-18.8-8.57-27.94-2.13-7.06-4.06-13.43-5.61-19.95,5.35-1.33,6.57,4.07,10.41,3.73.78-.07,2.49-1.31,2.07-2.64l-10.45-33.22c-1.56-4.95-3.28-9.65-6.19-13.19l-1.11-8.51c-.63-4.88-3.26-9.9-.76-14.86,7.2,12.89,11.92,25.07,20.67,36.1,10.36,13.05,21.86,26.12,36.22,34.75,12.53,7.53,28.49,4.9,41.61.73,5.4-1.72,9.44-5.07,15.04-2.04-13.15,26.55-28.02,60.5-56.54,64.98-11.8,1.85-21.74-3.51-31.59-9.83,1.3,5.64,5.5,8.23,8.35,13.14-3.58,2.17-6.78-.13-9.96-1.37-6.63-2.56-12.39-5.3-18.2-8.34ZM160.81,402.91l-.66.66.66.66.66-.66-.66-.66Z"/>
        <path class="cls-2" d="M140.63,254.6c-1.85,4.57,1.07,9.3,3.61,12.97l7.61,11.02c1.93,2.8,3.93,4.48,4.76,7.34,1.02,3.52,4.01,6.47,6.19,9.48,27.51,38.01,63.12,48.26,106.21,24.09l-8.29,26.48c-4.87,15.57-12.64,29.69-19.57,43.77-1.64,3.34-3.33,6.98-5.88,10.05l-8.42,10.12c-6.3,7.58-14.05,11.18-22.98,13.11-4.29.93-8.65,1.58-13.42,1.03-4.09-.48-8.98,1.45-13.33-2.03-5.57,2.04-11.57,2.57-17.5,1.54-2.52-1.39-5.19-2.29-9.1-2.43-2.7,4.16-3.92,9.18-4.15,14.4-.61,13.82-.88,27.02.2,40.22-4.47,4.52-13.99,3.81-22.24,3.91.08-.28,0-.68-.05-.95,3.71-1.91,1.32-7.22,3.34-9.48,2.21-2.47,11.37.03,12.17-3.04,2.79-10.67,2.3-21.29,3.29-31.49,1.08-11.16,6.5-14.57,1.06-15.97-4.87-7.37-12.83-4.08-16.17-16.86-.06-.7.6-1.95.34-2.8l-3.89-12.29c-.29-7.96-2.64-15.65-2.83-23.68l7.72,21.7c2.89,8.71,7.94,21.02,12.51,23.41,5.81,3.04,11.57,5.77,18.2,8.34,3.19,1.23,6.38,3.54,9.96,1.37-2.86-4.9-7.06-7.5-8.35-13.14,9.85,6.32,19.79,11.68,31.59,9.83,28.52-4.48,43.39-38.43,56.54-64.98-5.6-3.04-9.63.32-15.04,2.04-13.12,4.18-29.08,6.81-41.61-.73-14.35-8.63-25.86-21.7-36.22-34.75-8.75-11.03-13.47-23.21-20.67-36.1-2.5,4.96.12,9.98.76,14.86l1.11,8.51c-2.04.19-3.85.57-6.03,1.41-.29-2.58-2.56-5.71-2.48-9.3.07-3.19-.75-6.13-2.52-7.95l-.04-4.07-1.45-20.31,9.32-24.48c.39-1.02,4.04-.44,3.76.5-.21.71-1.03,2.58-.81,3.52l2.76,11.81Z"/>
        <path class="cls-2" d="M123.02,264.96c-.05,6.38.85,12.71,2.42,18.74.38,1.45.43,2.8,1.65,3.92l-.16,5.34c6.65,33.78,14.92,72.27,29.52,103.71-12.53-16.02-19.45-35.71-23.35-54.96-.83-4.08-.44-8.21-2.32-12.84l-2.09-14.92c-3.35-10.78-5.23-21.46-7.41-32.5-2.44-1.9-6.87-3.99-6.58-7.54,2.33-3.16,5.08-6.74,8.32-8.97Z"/>
        <path class="cls-2" d="M113.98,310.13c-2.39,1.7-1.23,5.01-1.27,7.93l-.77,70.91c-2.58.56-4.79.11-6.82,2.12,8.25,3.4,7.07,8.69,6.12,19.72l-17.41-.15c-5.68-.05-11.19-1.41-15.65,1.81-6.97.8-12.98,3.31-20.4,6.4,2.62-7.68,28.27-12.61,35.19-12.09,2.59.19,8.29.33,9.46-2.82,1.37-3.69.99-9.01.14-12.35-.56-2.18-3.55-1.56-4.67-1.96-2.35-.84-6.12-1.26-8.86-1.03-.46-1.78.68-2.81,1.75-2.86,1.55-.08,2.71-.31,5.49.13l2.88-30.69c1.77-18.82,3.12-37.2,6.73-55.62,1.21-6.18,3.54-11.69,2.59-17.68.61-.55.87-1.54,2.04-.84.99.59.57,1.66.64,2.44l1.22,12.43c.51,5.16.95,9.62,1.59,14.2Z"/>
        <path class="cls-4" d="M108.49,281.9c.95,5.99-1.38,11.5-2.59,17.68-3.62,18.42-4.97,36.8-6.73,55.62l-2.88,30.69c-2.78-.44-3.94-.21-5.49-.13-1.07.05-2.21,1.08-1.75,2.86l-11.28.92c2.17-2.25,3.22-4.12,3.5-7.09,1.9-20.12,3.48-39.82,8.09-59.6,3.23-13.85,9.48-26.18,15.44-38.82.83-1.77,2.99-1.5,3.69-2.13Z"/>
        <path class="cls-5" d="M118,348.63c-.96,4.47.03,9.5,1.32,14.45-.5,10.78-.19,20.92,1.06,31.51-1.16,1.02-3.15,1.76-3.57,2.44.41-.68,7.61,9.63,3.31,20.18-.5,1.24-4.5,1.81-4.95,3.19-1.86-1.43-4.37-3.36-6.68-4.08-9.84-3.09-20.13-5.03-30.31-3.87,4.45-3.22,9.96-1.86,15.65-1.81l17.41.15c.95-11.03,2.13-16.32-6.12-19.72,2.03-2.01,4.24-1.56,6.82-2.12l.77-70.91c.03-2.91-1.13-6.22,1.27-7.93l4.5,32.63c.36,2.61-.08,3.98-.49,5.87Z"/>
        <path class="cls-2" d="M133.09,341.72c-3.84,1.84-7.79,2.45-11.14-.06l-5.36-31.52-3.69-31.93c-.27-2.31.86-3.01,1.8-4.29-.3,3.55,4.13,5.64,6.58,7.54,2.18,11.04,4.05,21.71,7.41,32.5l2.09,14.92c1.87,4.63,1.49,8.76,2.32,12.84Z"/>
        <path class="cls-1" d="M121.62,363.11c.19,8.02,2.53,15.72,2.83,23.68l.34,9.13c.08,2.07,1.84,3.15,3.56,3.16.25.85-.4,2.1-.34,2.8l1.4,17.19c-3.21.03-9.02,3.79-9.48,7.41l-3.34-.44c.18-1.52-.23-4.73-1.4-5.63.44-1.38,4.44-1.96,4.95-3.19,4.3-10.55-2.9-20.85-3.31-20.18.41-.69,2.41-1.43,3.57-2.44-1.25-10.59-1.56-20.73-1.06-31.51-1.29-4.96-2.28-9.98-1.32-14.45l3.62,14.48Z"/>
        <path class="cls-4" d="M92.98,406.77c1.72-9.98-9.51-8.21-8.13-12.35.92-2.77,8.29-1.44,13.07-4.78,1.12.4,4.11-.22,4.67,1.96.85,3.34,1.24,8.66-.14,12.35-1.17,3.15-6.88,3.01-9.46,2.82Z"/>
        <path class="cls-5" d="M197.28,138.9c-2.07,2.75-6.08,1.15-5.4,4.24-1.97,0-4.05-.19-5.63,1.22l-18.01.4c3.8-3.85,22.98-6.25,29.04-5.86Z"/>
        <path class="cls-4" d="M125.6,263.25l1.45,20.31-1.61.14c-1.57-6.03-2.47-12.36-2.42-18.74l2.58-1.71Z"/>
        <path class="cls-2" d="M303.04,464.08c.09,2.89-1.72,9.4-5.75,9.64l-28.7,1.72-63.38.41c-.14-.89-1.39-1.42-1.56-.04l-2.82.19c.29-2.71-1.87-5.19-3.7-6.11-4.88-2.46-13.56,3.15-12.87,6.08l-15.02-.2c.05-.88-.07-2.11-.53-2.75-1.42-1.95-11.07-2.62-12.79.84l-2.42.97c-.74-.26-1.91-.06-2.83.05-1.58-7.14-1.12-14.21-1.38-21.41l137.87.3c7.85.02,14.53-3.58,17.18-9.92v7.98c0,4.33-1.43,8.26-1.3,12.25Z"/>
        <path class="cls-4" d="M302.44,434.72l2.05-.02-.15,9.14c-2.65,6.34-9.32,9.94-17.18,9.92l-137.87-.3c-.22-6.25-1.02-12.39.02-18.68l75.72-.14,77.4.07Z"/>
        <path class="cls-3" d="M190.47,424.06c4.09,2.6,9.11.46,13.42.41l11.93-.11c2.33-.02,3.98-.78,5.21-1.86.58,1.03,1.54,1.48,2.63,1.56-.1.95.53,1.36,1.35,1.36h38.43s38.48,1.21,38.48,1.21c-.13.43-.13,1.02-.09,1.47.06.71.63,1.26,1.33,1.32.08,1.7-.2,3.41-.71,5.3l-77.4-.07-75.72.14c.46-2.79.62-5.98,2.09-8.17,1.98-2.96,5.18-3.28,8.23-3.05,5.94,1.03,11.93.51,17.5-1.54,4.35,3.48,9.25,1.56,13.33,2.03Z"/>
        <path class="cls-5" d="M305.98,465.2l-.06,5.98-.55,5.62c-3.12-2.09-3.39,4.06-10.22,4.07l-101.84.05c-6.29,0-11.62-.27-17.85-.31l-19.99-.13c-4.1-.03-4.26-3.22-4.79-5.6.92-.11,2.09-.31,2.83-.05.94.33,1.83.63,2.88.65l12.86.29,15.02.2,16.57.03,2.82-.19,1.56.04,63.38-.41,28.7-1.72c4.03-.24,5.84-6.75,5.75-9.64l2.94,1.12Z"/>
        <path class="cls-3" d="M129.39,419.07l14.78-.33c5.44,1.4.02,4.82-1.06,15.97-3.21-.08-9.48-1.53-12.28,1.1-9.99,9.37-3.42,24.92-10.45,39.94l-1.13-2.86c-1.7-15.36-1.26-31.03.67-46.42.45-3.62,6.26-7.38,9.48-7.41Z"/>
        <path class="cls-4" d="M143.11,434.71c-.99,10.2-.5,20.82-3.29,31.49-.8,3.07-9.96.57-12.17,3.04-2.02,2.26.37,7.56-3.34,9.48-.87.17-2.01.13-2.78-.47s-.79-1.7-1.16-2.5c7.03-15.03.46-30.57,10.45-39.94,2.8-2.63,9.07-1.18,12.28-1.1Z"/>
        <path class="cls-5" d="M119.91,426.48c-1.93,15.39-2.36,31.05-.67,46.42-2.46,2.67-2.36,6.13-4.7,6.5-.59.09-1.46-.57-2.05-.81,2.75-3.77,2.87-8.26,2.75-13.42-.3-13.39-.17-26.57,1.32-39.12l3.34.44Z"/>
        <path class="cls-5" d="M124.36,479.67c8.25-.1,17.77.61,22.24-3.91,1.8.43,3,5.4,1.24,6.02-9.52,3.35-25.11,3.28-23.49-2.11Z"/>
        <path class="cls-4" d="M330.92,347.28c-17.39,1.33-32.19,10.06-46.08,21.52-.08-2.68.51-4.62-1.65-6.21-6.74,7.12-7.92,13.93-12.75,19.58-11.64,13.61-27.12,34.79-40.7,34.88,2.48-7.89,8.31-13.55,12.54-20.61,4.58-7.64,8.53-15.3,12.57-23.23l21.98-43.1c1.89-3.71,3.11-7.38,3.82-10.93.48-2.41,2.87-4.35,3.66-6.35,2.29.83,5.01,1.64,6.75.46,2.2-1.49,3.89-3.91,4.08-7.31.27-4.78,5.99-11.13,10.72-7.89,5.72,3.93,9.46,10.14,13.95,15.38,7.99,9.33,9.88,22.31,11.12,33.79Z"/>
        <path class="cls-2" d="M342.99,384.23c-1.6-.46-3.71-.15-3.95,1.74-.77,6.27-3.95-2.82-11.72.86l-2.37-2.09.57-7.37c.25-2.82,4.96-4.33,5.75-7.47l3.97-15.85c.59.03,2.83-1.59,2.01-2.44-1.96-2-4.9-2.5-6.33-4.33-1.24-11.48-3.13-24.46-11.12-33.79-4.49-5.24-8.22-11.46-13.95-15.38-4.73-3.24-10.45,3.11-10.72,7.89-.19,3.39-1.87,5.82-4.08,7.31-1.75,1.18-4.46.37-6.75-.46,3.02-7.63,17.97-23.71,27.14-24.78,18.74-2.2,28.68,42.78,30.3,63.7-1.51.95-2.92,2.87-2.29,3.45.45.42,2.33,1.44,2.51,2.2,1.99,8.68,3.63,21.4,1.02,26.82Z"/>
        <path class="cls-2" d="M339.05,385.97l6.71,3.45c1.65,3.1,1.37,8.24,2.27,11.13.4,1.3,3.15,4.58,1.14,5.86-7.19,4.58-16.01,2.68-23.3,3.85l-.18-2.16c1.29-.23,2.68-.46,3.85-.78,1.27-.35,2.12-3.25,1.15-4.2-7.23-.17-15.09,1.31-20.85,4.93-3.86-2.57-7.08,1.36-9.71,3.7-11.34,10.09-19.02,6.96-27.86,11.08h-11.54s-9.2-.21-9.2-.21c.37-1.57,1.57-2.08,2.65-2.01,7.4-2.21,16.82-1.68,24.13-3.82,15.29-10.86,31.12-18.63,48.82-24.19-1.1-2.81-1.28-4.76.22-5.78,7.77-3.68,10.95,5.41,11.72-.86Z"/>
        <path class="cls-3" d="M229.74,417.05c-1.66.13-3.88,2.64-6.03,2.06l11.07-15.82c.76-1.08.75-2.43.52-3.48,2.55-3.07,4.24-6.71,5.88-10.05,3.27.1,8.12-9.89,11.66-17.42,8.66-18.44,17.18-36.41,27.82-53.15-.71,3.55-1.93,7.22-3.82,10.93l-21.98,43.1c-4.05,7.93-7.99,15.59-12.57,23.23-4.24,7.06-10.06,12.71-12.54,20.61Z"/>
        <path class="cls-1" d="M309.69,417.8c-3.04,1.17-5.38,4.53-6.55,7.41-.3.38-1.08.92-1.23,1.42l-38.48-1.2-2.72-2.59h11.54c6.81,0,15.4,3.21,22.38-.69,2.58-1.44,3.99-3.99,7.1-3.68,1.45.14,3.86-1.38,5.19-2.15,1.12-.1,2.38.14,2.75,1.48Z"/>
        <path class="cls-6" d="M309.83,408.06c-.31.34.33,2.8,1.19,2.65l14.67-2.59.18,2.16c-6.57,1.06-13.38,2.86-18.93,6.05-1.34.77-3.74,2.29-5.19,2.15.08-2.35,1.99-4.15,1.35-8.07l-2.98,1.36c2.63-2.34,5.85-6.27,9.71-3.7Z"/>
        <path class="cls-1" d="M342.99,384.23c4.5,1.29,8.74,3.63,11.92,7.1l.74.81c2.01.23,4.64.84,4.33,4.43-2.5-.53-3.71-2.2-5.19-3.56l-.86-.65c-2.67-1.61-5.66-1.66-8.18-2.95l-6.71-3.45c.23-1.89,2.34-2.2,3.95-1.74Z"/>
        <path class="cls-2" d="M255.95,112.73c-1.31.35-4.44.73-4.62-1.92,1.31-.94,4.83-1.54,5.29-3.53l-.68,5.44Z"/>
        <path class="cls-2" d="M207.15,91.98c4.79-4.98,7.35-8.44,5.78-14.11-.36-1.29-1.89-.9-2.53-1.39-1.69-1.26-4.23-1.49-6.06.24s-3.6,3.72-3.23,6.41l-2.54-.35c-.21-4.41-.03-8.09,3.24-10.01s7.53-1.61,10.88.55c4.23,2.73,6.56,7.05,5.2,11.5s-5.42,6.18-10.73,7.15Z"/>
        <path class="cls-6" d="M207.15,91.98c-4.29.78-8.37-4.51-8.59-9.19l2.54.35c.35,2.52,1,5.7,4.41,7.11l4.88-13.76c.65.49,2.18.09,2.53,1.39,1.57,5.67-.99,9.12-5.78,14.11Z"/>
        <path class="cls-5" d="M205.14,137.98l1.45.03c-.02,1.42-1.54,1.33-1.45-.03Z"/>
        <path class="cls-5" d="M199.76,139.06c.41-.5,1.01-.81,1.66-.85-.43.16-1.1.88-1.66.85Z"/>
        <path class="cls-5" d="M219.79,137.96c.05.66-.36,1.06-.78,1.23-1.02.42-2.09-.3-2.01-1.25l2.79.02Z"/>
        <path class="cls-2" d="M138.11,303.46c2.91,3.54,4.64,8.24,6.19,13.19l10.45,33.22c.42,1.33-1.29,2.57-2.07,2.64-3.85.34-5.06-5.06-10.41-3.73-3.46-14.61-8.53-28.97-10.18-43.92,2.18-.84,3.99-1.22,6.03-1.41Z"/>
        <path class="cls-3" d="M132.08,304.88c1.66,14.95,6.72,29.3,10.18,43.92,1.54,6.52,3.48,12.89,5.61,19.95,2.75,9.14,8.93,17.23,8.57,27.94-14.6-31.44-22.87-69.93-29.52-103.71l.16-5.34c1.77,1.81,2.59,4.75,2.52,7.95-.08,3.59,2.19,6.72,2.48,9.3Z"/>
        <path class="cls-3" d="M127.08,287.63c-1.22-1.13-1.27-2.48-1.65-3.92l1.61-.14.04,4.07Z"/>
        <rect class="cls-2" x="160.34" y="403.11" width=".94" height=".94" transform="translate(-238.2 231.76) rotate(-44.98)"/>
        <path class="cls-5" d="M235.29,399.81c.24,1.06.24,2.4-.52,3.48l-11.07,15.82c-.78,1.12-.76,3.04-2.68,3.38-1.23,1.08-2.88,1.84-5.21,1.86l-11.93.11v-1.44c8.93-1.93,16.68-5.53,22.98-13.11l8.42-10.12Z"/>
        <path class="cls-5" d="M144.17,418.73l-14.78.33-1.4-17.19c3.34,12.78,11.31,9.5,16.17,16.86Z"/>
        <path class="cls-5" d="M128.33,399.07c-1.71,0-3.48-1.09-3.56-3.16l-.34-9.13,3.89,12.29Z"/>
        <path class="cls-4" d="M203.89,424.48c-4.31.04-9.32,2.19-13.42-.41,4.77.56,9.13-.1,13.42-1.03v1.44Z"/>
        <path class="cls-6" d="M200.83,476l-16.57-.03c-.69-2.93,8-8.54,12.87-6.08,1.83.92,3.99,3.4,3.7,6.11Z"/>
        <path class="cls-6" d="M169.25,475.78l-12.86-.29-.46-1.62c1.72-3.46,11.37-2.78,12.79-.84.46.63.58,1.86.53,2.75Z"/>
        <path class="cls-1" d="M305.81,457.24l.17,7.96-2.94-1.12c-.13-3.99,1.3-7.93,1.3-12.25v-7.98c1.32.12,1.6,1.06,1.59,2.69l-.12,10.71Z"/>
        <path class="cls-1" d="M155.92,473.87l.46,1.62c-1.05-.02-1.94-.32-2.88-.65l2.42-.97Z"/>
        <path class="cls-6" d="M205.21,475.85l-1.56-.04c.16-1.38,1.42-.86,1.56.04Z"/>
        <path class="cls-2" d="M330.92,347.28c1.43,1.82,4.38,2.33,6.33,4.33.82.84-1.41,2.47-2.01,2.44l-5.5,1.07c.04-1.56-1.68-1.39-1.5.17-3.93-.8-7.42.08-10.46,1.72-6.79,3.66-15.12,5.59-21.5,11.16l-14.19,12.39c-1.46-1.7-1.76-3.03-1.98-5.79l-8.2,18.98c-4.43,5.75-7.89,12.38-13.93,16.78l-5.47,3.99c-18.68,13.61-28.5,6.01-28.87,9.57-1.09-.08-2.05-.54-2.63-1.56,1.93-.35,1.9-2.26,2.68-3.38,2.15.58,4.37-1.93,6.03-2.06,13.58-.09,29.07-21.27,40.7-34.88,4.83-5.65,6.01-12.46,12.75-19.58,2.17,1.59,1.58,3.52,1.65,6.21,13.89-11.46,28.69-20.2,46.08-21.52Z"/>
        <path class="cls-5" d="M257.99,410.5c.32,3.16-1.92,5.33-2.96,7.93l-.87,2.18c-1.09-.08-2.29.44-2.65,2.01l9.2.21,2.72,2.59h-38.43c-.22-.39-.84-1.19-1.35-1.36.37-3.56,10.19,4.03,28.87-9.57l5.47-3.99Z"/>
        <path class="cls-4" d="M225.01,425.42c-.82,0-1.45-.41-1.35-1.36.51.17,1.13.97,1.35,1.36Z"/>
        <path class="cls-4" d="M303.15,429.42c-.7-.05-1.27-.6-1.33-1.32.7,0,1.3.62,1.33,1.32Z"/>
        <path class="cls-4" d="M335.25,354.04l-3.97,15.85c-.79,3.14-5.5,4.65-5.75,7.47-10.42,1.83-25.83,6.64-29.91,14.13l-13.78,6.65c-.1.51-.08,1.61.06,1.86l18.49-7.87c1.13-.48,1.48-1.78,1.44-2.47,7.61-2.25,15.23-3.98,23.13-4.92l2.37,2.09c-1.49,1.02-1.32,2.97-.22,5.78-17.69,5.55-33.52,13.33-48.82,24.19-7.31,2.14-16.73,1.61-24.13,3.82l.87-2.18c2.37.41,3.01-2.53,4.31-3.7,3.54-3.17,7.64-4.35,10.7-7.47-2.38-5.83,1.32-10.73,6.5-12.49,3.63-1.23,5.56-5.26,8.44-7.29,13.92-9.86,14.95-23.33,33.55-28.04,2.16.28,2.08-2.48-.73-2.44,3.03-1.64,6.53-2.51,10.46-1.72l1.5-.17,5.5-1.07Z"/>
        <path class="cls-2" d="M325.53,377.36l-.57,7.37c-7.9.95-15.52,2.67-23.13,4.92l-6.21,1.83c4.08-7.5,19.49-12.3,29.91-14.13Z"/>
        <path class="cls-5" d="M301.74,418.47c-3.11-.31-4.52,2.24-7.1,3.68-6.98,3.9-15.57.69-22.38.69,8.84-4.12,16.51-.99,27.86-11.08l2.98-1.36c.63,3.93-1.27,5.72-1.35,8.07Z"/>
        <path class="cls-3" d="M325.69,408.11l-14.67,2.59c-.86.15-1.49-2.3-1.19-2.65,5.76-3.61,13.62-5.09,20.85-4.93.98.95.12,3.85-1.15,4.2-1.16.32-2.55.55-3.85.78Z"/>
        <path class="cls-3" d="M210.39,76.49l-4.88,13.76c-3.41-1.41-4.06-4.59-4.41-7.11-.38-2.69,1.38-4.67,3.23-6.41s4.38-1.5,6.06-.24Z"/>
        <path class="cls-3" d="M317.8,357c2.82-.04,2.9,2.72.73,2.44-18.59,4.71-19.63,18.18-33.55,28.04-2.88,2.04-4.81,6.06-8.44,7.29-5.18,1.76-8.88,6.66-6.5,12.49-3.05,3.12-7.15,4.3-10.7,7.47-1.3,1.17-1.94,4.11-4.31,3.7,1.04-2.61,3.28-4.78,2.96-7.93,6.04-4.4,9.5-11.03,13.93-16.78l10.18-13.19,14.19-12.39c6.37-5.56,14.71-7.49,21.5-11.16Z"/>
        <path class="cls-5" d="M282.1,380.54l-10.18,13.19,8.2-18.98c.22,2.76.52,4.09,1.98,5.79Z"/>
        <path class="cls-6" d="M329.75,355.1l-1.5.17c-.18-1.56,1.54-1.73,1.5-.17Z"/>
        <path class="cls-3" d="M301.83,389.66c.04.69-.31,1.99-1.44,2.47l-18.49,7.87c-.14-.24-.15-1.34-.06-1.86l13.78-6.65,6.21-1.83Z"/>
        <g>
          <path class="cls-3" d="M168.24,144.76l18.01-.4c.78-.02,2.3-.27,2.98.22,2.32,1.64,5.22,1.03,7.94,1.28l.84.08c.84,2.63,3.62,4.41,5.37,7.06,2.59,3.93-.48,8.5-3.88,11.14,1.27,3.8,3.73,5.57,5.56,8.57l.33,49.24-10.32,1.3c-1.67.21-2.91,1.3-3.17,2.72-.2,1.12.85,2.08,1.16,3.01,1.72,5.12-9.33,15.17-8.15,25.76.06.5.24,1.45.47,1.86.33.58,11.46-1.6,22.53-2.07l-.21,3.81-1.41-.03c-2.63-.05-6.27-.03-8.22,1.72-2.24,2.02-2.59,5.56-2.12,9.77l10.57.31-.17,19.78c-6.48,6.46-14.68,9.47-23.79,8.3-1.38-.18-2.47.69-2.69,1.6-1.33-.5-3.59-.07-4.83-1.26-2.46-2.37-6.51-3-8.98-5.06-2.99-2.49-5.6-6.15-9.46-7.53-.83-2.86-2.83-4.55-4.76-7.34l-7.61-11.02c.27-4.71-2.65-8.88-3.61-12.97l-2.76-11.81c-.22-.94.6-2.81.81-3.52.27-.94-3.38-1.52-3.76-.5l-9.32,24.48-2.58,1.71c-3.24,2.22-5.99,5.8-8.32,8.97-.94,1.27-2.07,1.98-1.8,4.29l3.69,31.93,5.36,31.52c3.42,20.09,7.28,41.13,17.27,59.59,1.32,2.44,2.52,4.59,2.62,6.96-4.57-2.39-9.62-14.7-12.51-23.41l-7.72-21.7-3.62-14.48c.4-1.89.85-3.27.49-5.87l-4.5-32.63c-.63-4.58-1.08-9.03-1.59-14.2l-1.22-12.43c-.08-.78.35-1.86-.64-2.44-1.18-.7-1.44.29-2.04.84-.7.63-2.86.36-3.69,2.13-5.96,12.64-12.21,24.97-15.44,38.82-4.61,19.78-6.19,39.48-8.09,59.6-.28,2.97-1.34,4.83-3.5,7.09l11.28-.92c2.75-.22,6.52.19,8.86,1.03-4.77,3.34-12.15,2-13.07,4.78-1.38,4.14,9.85,2.37,8.13,12.35-6.93-.52-32.58,4.41-35.19,12.09,7.42-3.09,13.43-5.6,20.4-6.4,10.18-1.16,20.47.78,30.31,3.87l3.58,9.43c.43,13.67-7.05,22.17-1.47,33.42,1.42,2.87,1.17,7.49-1.15,9.98-1.77,1.9-4.79,3.66-7.86,3.96l-.92-5.33-.95-32.95c-.05-1.87-2.37-2.76-3.82-2.16-1.32.55-2.94,1.47-3.01,3.59l-.4,11.77-2.04,13.76c-.42,2.8-3.93,4.07-5.95,4.86-2.77-14.07.59-26.75-2.27-32.07-.53-.98-1.09-2.28-2.11-2.44-.69-.11-3.12.68-3.13,1.79l-.34,32.84-8.19,2.71-1.03-2.89c-1.84-12.55,1.2-29.74-.82-31.54-.42-.37-1.32-.37-1.72-.46-5.34-5.25-5.35,16.47-3.61,30.19-2.73,2.33-6.38.81-8.59,5.56-3.1-6.22-1.25-12.82-3.57-20.59-2.78,4.83-2.44,10.2-7.55,12.13-2,.75-5.21.67-6.19,3.05-.52-1.26-2.46-2.3-2.4-5.09l.33-16.85c.18-9.28,9.04-13.75,17.88-12.08,4.44-10.52,6.05-20.79,7.4-31.65l6.87-55.22c5.03-40.4,12.1-71.92,50.52-91.33,13.96-7.06,22.07-20.64,20.24-36.75l.92-15.86c-.67-10.35-1.69-20.01.37-30.52.82-4.19.21-9.39-.18-13.07,5.88-6.22,14.07-7.85,22.68-9.34,2.33-.4,5.14.21,5.49-2.73l2.77.31ZM175.9,169.16c3.47.02,7.41.49,10.08,2.75-3.94.55-7.91.57-12.72.28-1.18.51-2.12,1.35-2.57,2.7l10.68.21.03,3.87c-2.07-.92-5.77-2.13-7.42.21-1.49,2.1-.94,5.09,1.01,6.55,1.19.89,3.29,1.08,4.84-.98.81-1.08.97-2.77,1.29-4.39l2.83-.11c-.11.89-.14,2.09-.51,2.89-1.79,3.82-5.21,5.99-9.33,7.21,2.91.77,4.81.6,5.78,2.45l-9.62,2.89c8.9,4.78,17.44.57,23.41-5.61,2.52-2.61.54-4.7,1-6.22.95-2.43,1.04-6.11,1.29-8.75,1.12-1.36,3.48-2.72,2.06-5.6-5.08-10.31-42.29-7.24-38.34,7.55,5.18-5.1,10.38-7.92,16.21-7.88ZM166.69,175.82c-.24,2.02,1.54,2.12,2.06,1.81.72-.42.99-1.22.68-1.99-.25-.62-1.75-1.57-2.73.18ZM164.78,177.62l-.66.66.66.66.66-.66-.66-.66ZM163.74,186.21l-.23-6.28c-2.63.84-3.67,3.24-3.34,4.83.25,1.22,2.67,2.11,3.56,1.45ZM136.97,234.62l-.02.86v.89l.02.86.02-.86v-.89l-.02-.86Z"/>
          <path class="cls-5" d="M285.62,155.15c1.92,21.36,3.02,49.93-.32,70.06l-4.48,26.95c-4.49,19.67-17.74,35.95-35.2,45.6-2.58,1.43-5.5-.22-7.24-.9l1.52-2.4.92-1.39c2.44-1.19,4.63-3.55,5.59-6.91,7.38-25.85,14.3-51.36,18.38-78.16,1.17-7.69-1.63-15.45-3.74-23.2-3.11,2.65-3.37,5.03-5.6,6.72s-5.31,1.67-8.24-.8c4.4-2.86,8.37-5.08,11.5-9.06-1.89-5.68-7.49-9.48-12.31-10.28-5.22-.57-10.45-1.73-15.54-.36-.05-.57-.16-1.34-.54-1.85-.69-.93-3.18,4.23-10.52-.75l-.08-1.44,2.46-1.22c4.27-2.11,9.25-2.73,14.42-2.61l-.68,3.93c4.85.16,10.54-.56,14.18,1.98l9.74,6.78c2.16-6.5,1.55-12.82.1-18.39-.86-3.29-2.1-6.2-4.56-8.69,4.15-3.43,17.88,1.44,18.62,3.52,4.14,11.67,4.99,23.85,7.94,35.83,1.13,2.11,3.22,1.4,2.55-1.01l-7.26-34.73c4.09,1.31,5.83,3.07,8.39,2.79Z"/>
          <path class="cls-5" d="M341.6,464.07l-1.52,11.41c-.53,1.3,1.41,2.35,1.59.21l.87.33c15.4,1.86,13.36-21.27,13.57-39.97h2.67s-1.11,32.06-1.11,32.06c-.05,1.39-.93,3.02-.32,5.5,10.5.84,11.76-7.46,14.63-16.48l1.16,8.19c.66,4.67-4.64,8.88-1.05,9.19-1.04,1.22-2.87,1.7-4.19,2.54-3.04,1.94-8.89,3.92-11.93,1.73-.2-.93.06-3.77-.68-4.02-.48-.16-2.22-.2-2.26.26l-.24,2.56c-3.49,6.72-11.18,4.17-15.7,1.5-3.7,1.57-9.13,5.73-14.81,2.2l.59-6.79h1.47c-.25.2-.33,1.97.31,2.2,3.58,1.27,7.2.6,9.88-1.84,1.97-1.79,3.96-5.18,4.01-8.87l.39-27.27c.03-1.78.75-3.12,1.4-4.09l1.81.04-.54,29.41ZM356.77,469.82c0-2.31-1.86-1.82-1.98-1.38s-.08,1.62-.03,2.66c.02.48,2.01,1.11,2.01-1.29Z"/>
          <path class="cls-1" d="M205.14,137.98c-.09,1.37,1.43,1.46,1.45.03l1.66-.17,8.75.1c-.08.95.99,1.67,2.01,1.25.42-.17.82-.57.78-1.23h2.52c8.08,3.76,17.24,3.26,26.54,4.23,13.59,1.42,26.07,6.3,38.61,10.24-.55.63-1.5,1.86-1.84,2.72-2.56.28-4.3-1.48-8.39-2.79l7.26,34.73c.67,2.41-1.42,3.12-2.55,1.01-2.95-11.98-3.8-24.16-7.94-35.83-.74-2.08-14.46-6.96-18.62-3.52l-10.4-3.1c-16.21-2.51-32.01-2.19-47.74-2.44l-2.65-.04-2.71-.02c-.68-3.09,3.33-1.5,5.4-4.24l2.48.16c.56.04,1.23-.69,1.66-.85l3.72-.23Z"/>
          <path class="cls-2" d="M369.34,422.74c.77,2.25,3.44,5.21,3.36,7.96l-.71,26.41c-2.87,9.02-4.13,17.32-14.63,16.48-.6-2.47.27-4.1.32-5.5,2.43-.04,2.27-3.03,3.04-4.92,1.22-2.99,5.46-4.52,5.54-7.66l.44-16.85c.06-2.39-1.6-3.29-2.51-4.01,1.19-7.46-3.36-10.69-3.86-16.25l9.01,4.34Z"/>
          <path class="cls-2" d="M52.67,470.33c.23.47.26,1.2.27,1.65l-10.63,1.08-2.59-.22c-1.77-2.53-3.18-5.05-4.37-7.91.99-2.38,4.2-2.3,6.19-3.05,5.11-1.93,4.77-7.31,7.55-12.13,2.32,7.77.46,14.37,3.57,20.59Z"/>
          <path class="cls-1" d="M367.37,416.35c.63,2.02,1.27,4.32,1.97,6.4l-9.01-4.34c-3.93-2.11-7.94-2.79-12.32-3.98l-7.29-1.98c6.31-2.75,18.88-.77,24.78,5.19.75.44,2.29.04,1.86-1.29Z"/>
          <path class="cls-4" d="M240.82,293.06c-3.65-10.51-10.43-22.13-21.04-22.47l-13.26-.49c.03-3.94-1.9-7.93-.23-11.79l1.41.03c3.68.07,7.69-.56,10.89-3.11,2.82.79,6.71,0,10.49.25-3.21-3.9-8.22-4.13-13.06-4l-17.61.65-6.65-.48c3.39-1.41,7.97-4.21,11.72-3.42,4.05.86,8.37,1.78,11.92-2.09l-1.56-9.58c2.8.33,4.25-1.51,5.26-2.25,14.49-10.73,4.91-16.35,5.73-40.88.1-3.08,2.86-6.86-.2-9.13.19-1.16.64-3.03-.56-3.86l-.09-1.78c1.55-.63,3.18-1.04,4.88-1.15-.67,1.63-2.07,2.63-2.15,4.88,1.68,1.04,3.62,2.75,3.66,4.25.05,1.65-.35,3.52,1.21,4.93,1.08.98,2.71,1.75,5.33,1.48l.61-4.27c1.54.9,3.43-.38,4.8-.3,3.94.23,9.17-2.33,10.12-7.04.2-2.96-4.64-4.58-6.64-5.5-3.27-1.52-9.46-1.59-12.57-.67,3.03-4.57,8.2-1.79,13.17-3.9,4.83.8,10.43,4.6,12.31,10.28-3.13,3.97-7.11,6.2-11.5,9.06,2.93,2.46,6.1,2.43,8.24.8s2.5-4.07,5.6-6.72c2.11,7.75,4.91,15.51,3.74,23.2-4.08,26.8-11,52.32-18.38,78.16-.96,3.36-3.15,5.72-5.59,6.91Z"/>
          <path class="cls-6" d="M233.22,175.28c-1.25.37-2.12,3.1-4.36,2.23.04-.85.55-1.81,1.15-2.19.93-.59,2.28-.31,3.21-.04Z"/>
          <path class="cls-4" d="M240.82,293.06l-.92,1.39c-.45-.16-1.49-.39-2.21-.11-.82.32-1.08,1.85-.66,2.65-3.2,2.97-7.44,2.48-12.04,2.72l-26.46,1.4c-6.59.35-12.92.82-18.64-1.33.22-.9,1.31-1.78,2.69-1.6,9.1,1.17,17.3-1.85,23.79-8.3l.17-19.78,13.26.49c10.61.34,17.38,11.95,21.04,22.47Z"/>
          <path class="cls-4" d="M222.18,165.75l-2.46,1.22c-1.25.62-2.24,1.53-2.52,2.91-.25.07-.73.23-1.03.13-1.72-.53-5.75.18-6.63,2.31,2.1,5.3,1.51,11.51,1.64,16.84.26,10.76,1.23,28.23.24,30.5-1.24,2.83-4.3,2.07-6.04,2.29l-.33-49.24c-1.84-3-4.29-4.77-5.56-8.57,3.4-2.64,6.47-7.21,3.88-11.14-1.75-2.65-4.53-4.43-5.37-7.06,7.71.72,15.36-.08,23.63.33,1.44,6.94,3.17,13.53.54,19.48Z"/>
          <path class="cls-4" d="M255.38,148.74c2.46,2.49,3.7,5.4,4.56,8.69.05,1.25.11,5.11-1.7,5.42-2.37.41-4.4.1-6.2,1.29-1.16.77-1.82,2.7-1.94,4.9-3.64-2.53-9.33-1.82-14.18-1.98l.68-3.93c-5.17-.12-10.15.5-14.42,2.61,2.63-5.95.9-12.54-.54-19.48-8.27-.41-15.92.39-23.63-.33l-.84-.08.07-2.66c15.74.25,31.54-.08,47.74,2.44l10.4,3.1Z"/>
          <path class="cls-2" d="M82.22,434.58c-1.09.29-1.62,1.27-1.6,2.71l.22,26.57c.02,2.58,1.5,4.07,3.48,4.28-.33,3.34,1.31,6.27,2.66,9.22-7.07,2.75-9.43,5.44-18.28.21-3.57.39-7.19,2.89-10.72.01,2.13-2.2,4.42-4.19,5.49-7.27.91-2.63-.28-4.92-2.21-5.54-1.75-13.72-1.73-35.44,3.61-30.19-1.54,8.66-1.29,25.31.06,30.91.19.77,1.76.98,2.48,1.09l1.03,2.89c.48,1.33-.18,3.95.9,5.05,2.11,2.16,10.24,1.61,11.16.46,2.41-3.03-3.9-5.16-3.86-8.23l.34-32.84c.01-1.11,2.43-1.9,3.13-1.79,1.03.17,1.58,1.46,2.11,2.44Z"/>
          <path class="cls-4" d="M219.11,234.31c-1.01.75-2.46,2.58-5.26,2.25l1.56,9.58c-3.56,3.87-7.88,2.95-11.92,2.09.17-1.27,0-3.07-.92-3.69-1.58-1.07-10.41,2.42-12.33,6.87-.77,1.79-3.08,3.12-5.33,3.33-1.18-10.6,9.88-20.65,8.15-25.76.75.01,1.7.06,2.46-.61,6.84,5.07,14.54,7.33,23.57,5.95Z"/>
          <path class="cls-2" d="M115.18,420.41c1.17.9,1.58,4.11,1.4,5.63-1.5,12.56-1.63,25.73-1.32,39.12.12,5.16,0,9.65-2.75,13.42-2.26.62-5.95,2.2-8.75.58-1.61-.93-1.72-3.45-1.69-4.66l-.47-1.39c3.07-.29,6.09-2.05,7.86-3.96,2.31-2.49,2.57-7.12,1.15-9.98-5.57-11.26,1.9-19.75,1.47-33.42l-3.58-9.43c2.31.73,4.81,2.65,6.68,4.08Z"/>
          <path class="cls-6" d="M216.17,170.02l-.51,4.7c-.68-.08-1.38.07-1.79.35-3.45,2.34,3.52,26.49,1.9,43.62-.67,7.11-10.54,10.14-15.67,6.62-1.22-.84-3.43.28-4.15.55-.87.33-1.57,1.57-.41,2.51-.77.68-1.72.62-2.46.61-.31-.93-1.36-1.89-1.16-3.01.25-1.42,1.49-2.51,3.17-2.72l10.32-1.3c1.73-.22,4.8.54,6.04-2.29.99-2.27.03-19.73-.24-30.5-.13-5.33.46-11.54-1.64-16.84.88-2.12,4.91-2.84,6.63-2.31Z"/>
          <path class="cls-2" d="M99.73,434.83c-3.94,1.92-.4,6.44-.6,9.05-.64,8.34-2.47,15.45-.61,23.46.89,3.86.95,7.62.61,11.18-2.44,3.33-8.83,3.17-11.92.48l5.98-7.77c2.78-3.58,1.24-8.35,1.34-12.5.08-3.13,1.76-6.06.95-9.67-.28-1.25-2.1-1.5-2.97-1.04l.4-11.77c.07-2.11,1.69-3.04,3.01-3.59,1.45-.6,3.77.29,3.82,2.16Z"/>
          <path class="cls-2" d="M195.97,175.09c-7.69-7.87-20.64-11.87-20.07-5.93-5.83-.04-11.03,2.78-16.21,7.88-3.95-14.79,33.26-17.85,38.34-7.55,1.42,2.88-.95,4.24-2.06,5.6Z"/>
          <path class="cls-2" d="M194.69,183.84c-.46,1.52,1.52,3.61-1,6.22-5.97,6.18-14.5,10.39-23.41,5.61l9.62-2.89c3.8-1.14,8.44-1.31,10.96-5.91-3.09,1-4.66,2.99-7.15,1.89,1.19-1.67,2.75-3.08,2.94-4,.27-1.28-2.5-1.71-3.2-1.63.37-.79.4-2,.51-2.89,1.26-.4,2.18-1.35,2.54-2.61,4.07,2.13,3.14,7.17,8.19,6.21Z"/>
          <path class="cls-4" d="M87.2,479c0-.58-.05-1.27-.22-1.64-1.35-2.95-2.99-5.87-2.66-9.22.04-.43.27-1.01.18-1.49,2.02-.79,5.54-2.06,5.95-4.86l2.04-13.76c.87-.46,2.69-.21,2.97,1.04.81,3.61-.87,6.54-.95,9.67-.1,4.15,1.44,8.92-1.34,12.5l-5.98,7.77Z"/>
          <path class="cls-5" d="M195.97,175.09c-.25,2.64-.34,6.32-1.29,8.75-5.05.97-4.12-4.08-8.19-6.21-.45-.84-1.05-1.58-1.22-2.66.87.48,2.62-.38,2.16-1.21-.26-.47-.91-1.4-1.45-1.85-2.67-2.25-6.61-2.72-10.08-2.75-.57-5.94,12.38-1.94,20.07,5.93Z"/>
          <path class="cls-4" d="M206.29,258.31c-1.67,3.86.27,7.86.23,11.79l-10.57-.31c-.47-4.21-.12-7.75,2.12-9.77,1.94-1.75,5.59-1.77,8.22-1.72Z"/>
          <path class="cls-5" d="M67.41,466.58c-.72-.12-2.29-.32-2.48-1.09-1.36-5.6-1.6-22.25-.06-30.91.41.09,1.31.09,1.72.46,2.02,1.8-1.02,18.99.82,31.54Z"/>
          <path class="cls-5" d="M101.6,473.11l.47,1.39-2.95,4.02c.34-3.56.29-7.32-.61-11.18-1.85-8.01-.02-15.13.61-23.46.2-2.61-3.34-7.12.6-9.05l.95,32.95.92,5.33Z"/>
          <path class="cls-5" d="M84.5,466.65c.1.48-.13,1.06-.18,1.49-1.98-.21-3.46-1.69-3.48-4.28l-.22-26.57c-.01-1.44.51-2.42,1.6-2.71,2.87,5.31-.5,18,2.27,32.07Z"/>
          <path class="cls-4" d="M57.98,477.58c-1.72-1.4-4.95-1.99-5.04-5.6-.01-.45-.04-1.19-.27-1.65,2.21-4.75,5.86-3.22,8.59-5.56,1.93.62,3.12,2.91,2.21,5.54-1.07,3.08-3.36,5.06-5.49,7.27Z"/>
          <path class="cls-4" d="M76.64,466.76c-.03,3.07,6.28,5.2,3.86,8.23-.92,1.15-9.05,1.69-11.16-.46-1.08-1.1-.43-3.72-.9-5.05l8.19-2.71Z"/>
          <path class="cls-2" d="M191.76,251.65l6.65.48c4.57.33,9.57,1.18,9.5,2.4-11.07.48-22.2,2.65-22.53,2.07-.23-.41-.41-1.36-.47-1.86,2.24-.21,4.55-1.54,5.33-3.33l1.52.24Z"/>
          <path class="cls-1" d="M181.4,178.96l-.28,1.39c-.33,1.62-.48,3.3-1.29,4.39-1.55,2.06-3.65,1.87-4.84.98-1.95-1.46-2.49-4.45-1.01-6.55,1.65-2.33,5.34-1.13,7.42-.21Z"/>
          <path class="cls-4" d="M179.89,192.78c-.98-1.85-2.87-1.67-5.78-2.45,4.12-1.21,7.54-3.39,9.33-7.21.71-.08,3.47.35,3.2,1.63-.19.93-1.75,2.34-2.94,4,2.49,1.1,4.06-.9,7.15-1.89-2.52,4.61-7.16,4.77-10.96,5.91Z"/>
          <path class="cls-2" d="M185.98,171.91c.54.45,1.19,1.39,1.45,1.85.47.83-1.29,1.69-2.16,1.21l-3.9.12-10.68-.21c.44-1.35,1.38-2.19,2.57-2.7,4.82.29,8.78.27,12.72-.28Z"/>
          <path class="cls-5" d="M144.25,267.57c-2.54-3.68-5.46-8.4-3.61-12.97.96,4.1,3.88,8.26,3.61,12.97Z"/>
          <path class="cls-4" d="M218.59,255.23c-3.2,2.54-7.2,3.18-10.89,3.11l.21-3.81c3.76-.23,7.09-.3,10.67.7Z"/>
          <path class="cls-1" d="M166.08,293.47c-1.06,1.21-2.13,1.82-3.28,1.95-2.17-3-5.17-5.96-6.19-9.48,3.86,1.38,6.47,5.04,9.46,7.53Z"/>
          <path class="cls-4" d="M185.27,174.98c.18,1.08.77,1.82,1.22,2.66-.36,1.26-1.28,2.21-2.54,2.61l-2.83.11.28-1.39-.03-3.87,3.9-.12Z"/>
          <path class="cls-2" d="M163.74,186.21c-.89.66-3.31-.23-3.56-1.45-.33-1.59.71-3.99,3.34-4.83l.23,6.28Z"/>
          <path class="cls-4" d="M197.24,143.21l-.07,2.66c-2.72-.25-5.62.35-7.94-1.28,1.95.25,3.94-.05,5.36-1.42l2.65.04Z"/>
          <path class="cls-6" d="M191.88,143.15l2.71.02c-1.42,1.36-3.4,1.66-5.36,1.42-.68-.48-2.2-.23-2.98-.22,1.57-1.41,3.66-1.22,5.63-1.22Z"/>
          <path class="cls-2" d="M166.69,175.82c.99-1.75,2.49-.8,2.73-.18.31.78.04,1.57-.68,1.99-.52.31-2.3.21-2.06-1.81Z"/>
          <polygon class="cls-2" points="136.97 234.62 137 235.48 137 236.38 136.97 237.24 136.95 236.38 136.95 235.48 136.97 234.62"/>
          <rect class="cls-2" x="164.31" y="177.81" width=".94" height=".94" transform="translate(-77.8 168.64) rotate(-44.98)"/>
          <path class="cls-2" d="M323.37,434.11l-.34,1.93c-.75.69-1.31,1.63-1.32,2.65v1.32s0,2.65,0,2.65v22.54s-1.21,7.98-1.21,7.98c-3.86,4.12-7.93,6.55-13.47,5.17l.15-1.01c.18-1.21-.06-2.96.71-4.15,1.16-1.8,9.85-1.04,10.7-7.17,1.24-8.89.41-17.71-.99-26.02.73-1.49-.39-5.34.85-6.33,1.46-1.16,3.99-1.05,4.92.44Z"/>
          <path class="cls-5" d="M307.02,478.36c5.55,1.38,9.62-1.04,13.47-5.17-.4,2.64.18,5.06-1.78,6.99-3.22,3.17-10.89,2.74-12.25,1.11-.61-.73-.55-2.15.55-2.93Z"/>
          <path class="cls-5" d="M323.03,465.2h-1.32s0-22.53,0-22.53c.89.14,1.4,1.14,1.39,2.56l-.07,19.97Z"/>
          <polygon class="cls-5" points="324.41 471.83 323.02 471.83 323.03 465.2 324.35 465.2 324.41 471.83"/>
          <path class="cls-4" d="M307.17,477.35c-.56-.09-1.34-.23-1.81-.55l.55-5.62,2.98.51c-3.11-4.55,2.15-7.03,2.75-9.56,1.85-7.75,2.74-15.6,5.95-22.13,1.4,8.31,2.23,17.13.99,26.02-.85,6.12-9.55,5.37-10.7,7.17-.77,1.19-.53,2.94-.71,4.15Z"/>
          <path class="cls-4" d="M325.69,472.8c-.32.45-.81,1.37-1.34,1.67h-1.47s.14-2.65.14-2.65h1.4s1.27.97,1.27.97Z"/>
          <path class="cls-3" d="M340.72,412.45l7.29,1.98c-.97,1.35-2.37,1.69-3.33,2.25,2.89,5.59,6.62,11.39,7.1,16.63-1.21,5.06-1.15,10.31,0,16.06l-.98,8.23c-3.84.28-5.05-2.37-6.06-5.85-.56,3.74.16,7.5-1.6,9.69l-.99-26.78-1.81-.04c.05-.96-.5-1.91-1.15-2.15-1.1-.4-3.29-.07-4.3,1.08-1.83,2.09-1.15,5.17-1.17,7.49-7.72.35-6.58,14.45-.99,24.05-.9,3.81-4.19,5.61-7.03,7.7l-1.27-.97-.06-6.63v-2.65c.89-.14,1.39-1.14,1.39-2.55v-14.78c0-1.42-.52-2.41-1.4-2.55l-.02-6.62c0-.73-.6-1.35-.96-1.94-.93-1.49-3.46-1.59-4.92-.44-1.24.99-.12,4.84-.85,6.33-3.21,6.53-4.1,14.38-5.95,22.13-.6,2.53-5.86,5.01-2.75,9.56l-2.98-.51.06-5.98-.17-7.96c2.36-4.7,1.71-15.29.24-22.59-.64-3.19-.63-6.55-2.91-9.45,1.17-2.88,3.5-6.24,6.55-7.41,10.02-3.84,20.32-6.51,31.03-5.35Z"/>
          <path class="cls-1" d="M230.86,171.01c-2.94,1.28-5.7,3.49-6.91,6.53-1.03-.05-1.66.28-1.74,2.03-.04.94.35,2.66,1.86.86,1.2.83.75,2.7.56,3.86-2.65.78-5.34,1.5-8.72,1.22l-.25-10.8.51-4.7c.3.09.77-.06,1.03-.13.76-.58,1.56-1.09,2.6-1.47,7.34,4.98,9.83-.19,10.52.75.38.51.49,1.28.54,1.85Z"/>
          <path class="cls-2" d="M250.1,169.05c.11-2.2.77-4.13,1.94-4.9,1.8-1.19,3.83-.88,6.2-1.29,1.82-.31,1.75-4.17,1.7-5.42,1.45,5.57,2.06,11.89-.1,18.39l-9.74-6.78Z"/>
          <path class="cls-3" d="M245.8,175.95c.34,2.92,1.94,6-.44,8.8-1.23-1.95-.74-3.75-1.69-4.84-.68-.78-1.08-2.18-1.71-2.76-1.3-1.19-3.08-.24-4.34,1.08-1.82,1.92-2.39,4.32-1.19,5.96,1.37,1.88,4.06,1.93,5.96,1.5l-.06,2.79c-1.37-.08-3.26,1.19-4.8.3-2.12-1.24-4.53-2.16-7.15-2.15-.04-1.5-1.98-3.21-3.66-4.25.07-2.25,1.47-3.25,2.15-4.88,2.24.87,3.11-1.86,4.36-2.23,3.11-.92,9.3-.84,12.57.67Z"/>
          <path class="cls-3" d="M246.4,171.38c-4.97,2.11-10.15-.67-13.17,3.9-.94-.27-2.28-.55-3.21.04-.6.38-1.11,1.33-1.15,2.19-1.7.11-3.33.52-4.88,1.15l-.03-1.12c1.21-3.04,3.97-5.26,6.91-6.53,5.09-1.37,10.32-.2,15.54.36Z"/>
          <path class="cls-6" d="M239.9,294.45l-1.52,2.4-1.35.14c-.42-.8-.16-2.34.66-2.65.72-.28,1.75-.05,2.21.11Z"/>
          <path class="cls-6" d="M219.8,168.41c-1.03.38-1.84.89-2.6,1.47.28-1.38,1.26-2.29,2.52-2.91l.08,1.44Z"/>
          <path class="cls-2" d="M340.34,434.62c-.65.97-1.38,2.31-1.4,4.09l-.39,27.27c-.05,3.69-2.04,7.08-4.01,8.87-2.68,2.44-6.3,3.12-9.88,1.84-.64-.23-.56-2-.31-2.21.53-.31,1.02-1.23,1.34-1.67,2.84-2.09,6.13-3.89,7.03-7.7,1.83-7.77.91-16.01.99-24.05.02-2.32-.65-5.4,1.17-7.49,1.01-1.15,3.2-1.48,4.3-1.08.66.24,1.2,1.19,1.15,2.15Z"/>
          <path class="cls-4" d="M360.33,418.4c.5,5.56,5.05,8.79,3.86,16.25-1.99-.16-3.95.11-5.4,1.38h-2.67c0-.88-.45-2.04-1.06-2.43-.97-.61-2.13-.41-3.27-.3-.48-5.25-4.2-11.05-7.1-16.63.96-.56,2.36-.9,3.33-2.25,4.38,1.19,8.39,1.87,12.32,3.98Z"/>
          <path class="cls-2" d="M356.12,436.04c-.21,18.69,1.83,41.83-13.57,39.97-2.02-8.47,6.85-6.71,8.24-18.41l.98-8.23c-1.15-5.75-1.2-11,0-16.06,1.14-.11,2.3-.31,3.27.3.62.39,1.07,1.55,1.06,2.43Z"/>
          <path class="cls-3" d="M364.19,434.66c.91.72,2.57,1.62,2.51,4.01l-.44,16.85c-.08,3.14-4.32,4.67-5.54,7.66-.77,1.89-.61,4.87-3.04,4.92l1.11-32.06c1.46-1.27,3.42-1.54,5.4-1.38Z"/>
          <path class="cls-2" d="M350.79,457.6c-1.4,11.7-10.26,9.95-8.24,18.41l-.87-.33-1.59-.21,1.52-11.41c.1-.73,1.06-2.04,1.53-2.62,1.76-2.19,1.04-5.96,1.6-9.69,1.01,3.47,2.22,6.12,6.06,5.85Z"/>
          <path class="cls-6" d="M343.13,461.44c-.47.59-1.43,1.9-1.53,2.62l.54-29.41.99,26.78Z"/>
          <path class="cls-1" d="M356.77,469.82c0,2.4-1.99,1.76-2.01,1.29-.05-1.04-.09-2.22.03-2.66s1.99-.93,1.98,1.38Z"/>
          <path class="cls-6" d="M340.08,475.48l1.59.21c-.19,2.14-2.12,1.09-1.59-.21Z"/>
          <path class="cls-5" d="M215.66,174.71l.25,10.8c3.38.28,6.07-.44,8.72-1.22,3.06,2.28.31,6.05.2,9.13-.82,24.54,8.75,30.15-5.73,40.88-9.03,1.38-16.73-.88-23.57-5.95-1.15-.94-.46-2.18.41-2.51.72-.27,2.92-1.39,4.15-.55,5.13,3.52,15,.49,15.67-6.62,1.62-17.13-5.34-41.28-1.9-43.62.41-.28,1.11-.43,1.79-.35Z"/>
          <path class="cls-5" d="M218.59,255.23c-3.59-1-6.91-.93-10.67-.7.07-1.22-4.93-2.07-9.5-2.4l17.61-.65c4.84-.12,9.85.1,13.06,4-3.78-.25-7.67.54-10.49-.25Z"/>
          <path class="cls-4" d="M242.32,188.49l.06-2.79c.9-1.77,1.24-3.74,1.29-5.78.96,1.09.47,2.89,1.69,4.84,2.37-2.8.77-5.88.44-8.8,2,.93,6.84,2.54,6.64,5.5-.95,4.71-6.18,7.27-10.12,7.04Z"/>
          <path class="cls-3" d="M203.48,248.23c-3.75-.8-8.33,2.01-11.72,3.42l-1.52-.24c1.92-4.44,10.75-7.94,12.33-6.87.91.62,1.09,2.42.92,3.69Z"/>
          <path class="cls-4" d="M237.52,188.78l-.61,4.27c-2.61.27-4.25-.51-5.33-1.48-1.56-1.41-1.17-3.28-1.21-4.93,2.62-.02,5.02.9,7.15,2.15Z"/>
          <path class="cls-5" d="M223.98,178.66l.09,1.78c-1.52,1.8-1.9.08-1.86-.86.08-1.75.7-2.08,1.74-2.03l.03,1.12Z"/>
          <path class="cls-5" d="M305.81,457.24l.12-10.71c.02-1.63-.26-2.57-1.58-2.69l.15-9.14,1.56-.05c1.47,7.3,2.12,17.89-.24,22.59Z"/>
          <path class="cls-2" d="M306.05,434.66l-1.56.05-2.05.02c.51-1.9.79-3.6.71-5.3-.03-.7-.63-1.32-1.33-1.32-.04-.46-.04-1.05.09-1.47.15-.5.93-1.04,1.23-1.42,2.28,2.9,2.27,6.26,2.91,9.45Z"/>
          <path class="cls-5" d="M321.7,440.02v-1.32c1.56-.22,1.56,1.54,0,1.32Z"/>
          <path class="cls-5" d="M324.33,436.05h-1.3s.34-1.94.34-1.94c.37.59.96,1.2.96,1.94Z"/>
          <path class="cls-4" d="M333.71,441.04c-.09,8.04.84,16.29-.99,24.05-5.58-9.61-6.73-23.7.99-24.05Z"/>
          <path class="cls-4" d="M324.35,462.55v-19.88c.88.14,1.39,1.13,1.39,2.55v14.78c0,1.41-.51,2.41-1.39,2.55Z"/>
          <path class="cls-1" d="M243.67,179.91c-.05,2.04-.39,4.01-1.29,5.78-1.9.43-4.58.38-5.96-1.5-1.2-1.64-.63-4.04,1.19-5.96,1.26-1.32,3.04-2.27,4.34-1.08.63.57,1.03,1.98,1.71,2.76Z"/>
        </g>
      </g>
    </g>
  </g>
</svg>