<?xml version="1.0" encoding="UTF-8"?>
<svg id="Réteg_1" data-name="Réteg 1" xmlns="http://www.w3.org/2000/svg" viewBox="0 0 409.19 709.78">
  <defs>
    <style>
      .cls-1 {
        fill: #f8bbac;
      }

      .cls-2 {
        fill: #f7b8ad;
      }

      .cls-3 {
        fill: #f8f4e9;
      }

      .cls-4 {
        fill: #f8beae;
      }

      .cls-5 {
        fill: #1c3d60;
      }

      .cls-6 {
        fill: #f6b5af;
      }

      .cls-7 {
        fill: #f5ada8;
      }

      .cls-8 {
        fill: #f8caaa;
      }

      .cls-9 {
        fill: #f9c3af;
      }

      .cls-10 {
        fill: #978a84;
      }

      .cls-11 {
        fill: #f9c1a9;
      }

      .cls-12 {
        fill: #f4b8a9;
      }

      .cls-13 {
        fill: #a48f9d;
      }

      .cls-14 {
        fill: #14435d;
      }

      .cls-15 {
        fill: #f7b5ac;
      }

      .cls-16 {
        fill: #f6b1a9;
      }

      .cls-17 {
        fill: #fbd3af;
      }

      .cls-18 {
        fill: #f2c0a4;
      }

      .cls-19 {
        fill: #f9c8ab;
      }

      .cls-20 {
        fill: #f6b0b0;
      }

      .cls-21 {
        fill: #f6b4af;
      }

      .cls-22 {
        fill: #5d6585;
      }

      .cls-23 {
        fill: #f8c1aa;
      }

      .cls-24 {
        fill: #f8bdad;
      }

      .cls-25 {
        fill: #172c43;
      }

      .cls-26 {
        fill: #f6b0aa;
      }

      .cls-27 {
        fill: #e79cad;
      }

      .cls-28 {
        fill: #f8cbab;
      }

      .cls-29 {
        fill: #f6b1ab;
      }

      .cls-30 {
        fill: #f6b2af;
      }

      .cls-31 {
        fill: #f5afb2;
      }

      .cls-32 {
        fill: #f8cdbd;
      }

      .cls-33 {
        fill: #fcd3b1;
      }

      .cls-34 {
        fill: #9d7c6f;
      }

      .cls-35 {
        fill: #f4aeac;
      }

      .cls-36 {
        fill: #f8c0af;
      }

      .cls-37 {
        fill: #f9cbab;
      }

      .cls-38 {
        fill: #fcd7b4;
      }

      .cls-39 {
        fill: #facead;
      }

      .cls-40 {
        fill: #385782;
      }

      .cls-41 {
        fill: #fcd5b0;
      }

      .cls-42 {
        fill: #f7baae;
      }

      .cls-43 {
        fill: #f8bfaa;
      }

      .cls-44 {
        fill: #f8bcad;
      }

      .cls-45 {
        fill: #f6b3ac;
      }

      .cls-46 {
        fill: #fcddb8;
      }

      .cls-47 {
        fill: #f7baad;
      }

      .cls-48 {
        fill: #f1f6ee;
      }

      .cls-49 {
        fill: #f9c7aa;
      }

      .cls-50 {
        fill: #fbd4b3;
      }

      .cls-51 {
        fill: #fcd7b2;
      }

      .cls-52 {
        fill: #ebb9ab;
      }

      .cls-53 {
        fill: #f5aea9;
      }

      .cls-54 {
        fill: #fad1ae;
      }

      .cls-55 {
        fill: #324971;
      }

      .cls-56 {
        fill: #3e649e;
      }

      .cls-57 {
        fill: #f8c0ac;
      }

      .cls-58 {
        fill: #f6b0ad;
      }

      .cls-59 {
        fill: #f3abb2;
      }

      .cls-60 {
        fill: #f7b8ae;
      }

      .cls-61 {
        fill: #fad6af;
      }
    </style>
  </defs>
  <g id="Generatív_objektum_180_30_" data-name="Generatív objektum (180, 30)">
    <path class="cls-56" d="M107.48,128.79c3.53,10.41,10.61,24.45,22.68,25.28,1.58.39,3.24.06,4.52-.91,1.43-1.08,2.22-2.81,2.07-4.6-1.21-1.17-1.27-2.87-1.63-4.6-1.13-5.54-6.87-8.76-11.07-12.17l10.28,2.39c4.28,2.5,8.08,5.44,12.1,8.59,2.98-2.98,8.67-4.47,11.76-2.07.61,6.5,2.41,12.37,7.81,15.54,5.5,3.23,11.99,4.14,17.79.12,5.14-3.57,5.3-10.5,3.63-16.86l15.39,5.16c.39.34.78.69,1.4.68.68-.02,1.33-.51,1.99-1.13,2.48,2.83,5.4,1.58,7.78.34,2.41-1.26,5.19-2.74,5.87-5.77,2.81-1.33,6.57-1.19,9.51-.79-.2.24-.04.68,0,.89.1.42.9,1.32,1.35,1.4.31.06,1.15-.88,1.18.13l.12,4.8c.1,4.07,4.3,7.21,8.84,5.9,10.19-2.94,15.44-13.18,14.4-23.47-.39-3.88,3.08-6.26,6.39-5.74,6.52,1.02,5.86,6.57,10.56,3.15-.22,4.65-1.28,9.06-5.06,12.02.35.21.26.67-.18.63l-4.14,15.24c3.03-2.64,5.16-6.59,5.5-10.73l1.78-.33c.44.22,1.33.05,1.8.24.54.21.89,1.45.71,2.39-1.88,10.15-2.93,19.88-4.12,29.99-.31,2.66-.73,5.8-1.68,7.82-35.19,21.64-102.27,24.85-139.26,7.02-3.84-1.85-6.71-4.36-9.89-6.94.84,4.94,4.83,6.58,8.15,8.64,11.97,7.41,31.74,12.59,45.76,13.38l13.66.77c4.19.24,8.38-.02,12.23-.31,21.86-1.64,48.38-6.32,65.91-18.71,1.11-.79,1.73-1.93,3.07-1.56l.17,29.44,1.67,13.54c-.74-.46-.95-1.21-1.41-1.43-4.64-2.23-4.1,7.78-1.82,17.4l5.78,13.03c2.01,4.52,4.72,6.55,8.98,9.28,9.11,5.84,16.07,14.94,23.54,22.79l6.6,5.66c3.59,3.08,7.78,8.9,9.13,5.31,1.94,1.96,4.43,3.56,7.37,4.11-1.36,2.57-3.44,4.91-6,6.57-.81-.26-1.75-.36-2.28-.81l-15.84-13.4-11.26-11.33c-5.47-5.51-11.19-10.65-15.6-17.46l-3.14,4.24c-1.63.19-2.65-.65-3.69-2.06l-11.23-15.19-5.41-12.45c-.92-2.11-2.62-8.51-4.5-8.79-1.11-.17-2.54.65-3.38,1.76-2.88,3.81-1.27,8.41,1.35,11.96,2.56,3.47,2.03,11.22,7.24,11.42,1.68,7.17,8.49,16.68,15.51,20.89,1.51.9,2.75,4.57,5.52,3.71,5.46-1.69,4.52,2.75,8.07,3.28.61-.12.76.4.78.79-1.38.59-.14.89-.06,1.4.13.81.93,1.52,1.65,1.16,8.94,11.53,18.18,23.23,26.19,35.47,2.52,3.85,4.36,8.05,6.32,12.43l3.73,8.34c3.37,9.98,6.3,19.58,8.32,29.36l1.7,8.24c4.81,29.66,7.96,59.21,10.39,89.2l1.31,16.24c.67.28,1.38.13,1.88.26-1.95,2.62-3.26,5.26-6.01,7.94-27.79,27.06-66.36,40.27-104.2,45.73-3.42-3.96-7.73-5.94-12.41-6.5-3.24-.39-5.76-3.02-8.74-4.44l-7.04-1.47c-.18-2.12-.11-3.99.31-6.29-2.65-.72-4.91-.85-7.34.03.56,2.61.95,4.5.32,6.76-11.25-.74-10.84,4.78-14.24,5.14-5.3.56-10.26,2.78-13.93,7.3-39.56-5.83-75.36-17.49-103.12-46.02,1.81-3.85,1.23-8.01,1.64-12.35l4.82-51.57,4.26-36.76,3.09-18.05,1.87-13.36c4.56,3.38.34-5.17,7.1-12.21l10.97-11.42c3.26-3.39,6.78-5.6,11.03-7.53-.95-1.49-.03-2.24,1.29-1.26,1.26-3.31.6-5.95.78-9.62l-5.88,1.29c.36,1.44.28,2.48.22,3.15-.05.52-1.81.19-2.18.58l-8.22,8.82c-4.12,4.42-7.81,8.47-12.27,12.64l-3.32,3.11c-.04,6.05-2.95,10.77-3.62,16.41l-2.94,24.73c-.41,3.43-1.53,6.89-1.91,10.57l-2.26,21.66c-2.23-2.23-1.84-4.83-2.26-7.58-.09-.56,2.86-11.83-.47-8-2.69,3.1-2.98,23.49-3.62,33.92l-2.77,45.17c-1.27-.5-1.59-1.34-2.54-1.7-2.44-4.31-3.98-9.04-5.92-13.94-2.68-6.77-2.63-13.6-3.43-20.61,1.06-2.44.99-5.38.48-8.71l3.35-85.15,1.9-33.84c.2-3.64,4.12-6.59,5.52-9.32.23-5.39,2.01-8.72,5.64-12.68.02-3.41-.71-8.13,1.46-11.87l.61-3.99,10.57-10.48,15.36-16.05c8.73-9.12,15.3-19.49,18.53-31.28.17-.63.33-1.55,1.43-2.4.54-16.43,1.6-33.06-.35-49.24l-2.05-7.31c-3.2-11.44-5-22.88-9.23-34.01-1.91-5.04-3.03-10.16-4.12-15.34,3.1,1.63,6.23,4.15,7.26,7.18ZM125.78,230.58c-.02-11.18,2.38-20.66-1.48-31.67l-.67,17.29-1.06,11.94c-.1,1.1.49,2.02,1,2.55.31.33.93.64,2.2-.12ZM114.5,282.86c-.58,1.37-2.7.2-3.31.71l-13.26,11.03c-.56.46-.93,1.22-1.08,1.69-.34,1.08-1.68.58-2.47,1.35l-4.36,4.3c-3.53,2-6.51,4.74-8.79,7.74-4.79,2.56-8.25,4.39-6.99,7.92-2.8-1.53-4.15-1.58-6.51-.34-2.77,1.46-4.07,2.8-4.27,5.48-.42,5.41,5.07,8.64,5.55,8.57,1.45-.18,5.17-3.36,5.6-4.24.5-1.01-.76-2.84-1.17-3.92-.61-1.62,2.24-3.28,2.98-2.12l1.36,2.17c1.15,1.83,2.49-.74,7.84-4.28,4.59-3.04,9.34-6.91,13.49-11.08l19.32-19.43c10.25-10.31,17.7-22.26,24.78-34.68,3.35-5.88,4.88-12.04,4.27-19.24-1.9.25-2.92-.08-5.03-.81.05,6.77-2.97,12-5.39,17.82-2.03,4.89-3.5,9.45-7.03,13.28-4.74,5.15-8.47,11.02-14.2,15.45-.96.74-1.19,1.87-1.33,2.64ZM117,249.57c3.35.88,5.43-1.62,6.55-3.99,1.44-3.04.8-5.33-2.3-7.83l-1.44,7.29c-1.13-.06-3.12.32-3.31,1.45-.13.77-.37,2.85.5,3.08ZM256.76,306.03c.57.48-.08,2.14,0,2.62,1.46,1.1,4.3,2.12,5.8,1.61.98-.33,1.76-1.34,2.77-2.41,2.36,2.21,4.63,4.69,7.96,6.12l4.94-.22c.72,4.49,3.34,7.83,7.07,9.91,3.28,1.83,5.17,4.55,7.02,7.2l5.79,4.96,1.55,2.23c.54.78,2.45.14,3.16.18,1.72,1.06,2.56,3.42,5.1,3.84-.32-3.53-2.19-5.75-4.35-7.8l-16.84-16.03c-1.71-1.63-4.3-3.1-5.16-5.1-1.07-2.47-4.14-1.74-5.25-2.72-4.17-3.67-8.24-6.24-12.85-7.71-1.32-.42-2.04-2.86-4.5-2.18-3.54.97-7.51-4.14-14.07-3.87-.48,1.54-1.74,3.74-1.21,5.31.59,1.74,3.26.14,4.2-.31,2.92.97,6.52,2.96,8.87,4.37ZM145.33,310.63c1.89-.59,3.9-1.38,6.53-1.3-1.57-3.98-6.51-3.74-9.1-5-1.74-.85-5.14-3.34-7.36-1.41-3.08,2.67-5.81,5.64-9.23,7.85l.52,7.36c-1.4.5-1.48,1.32-1.52,1.9s1.54,1.79,2.21,1.36l10.4-6.59c2.44-1.55,4.75-3.3,7.55-4.18ZM71.68,409.4c-.87-9.33-.87-17.74-.56-26.76.26-7.6,1.49-14.85.32-22.63l-2.94,19.43-1.83,24.92c1.9,1.54,2.2,3.88,5,5.04Z"/>
    <path class="cls-3" d="M372.98,630.64l-2.03-82.94-.64-38-.95-10.24c-.28-3.04-3.14-4.09-5.63-4.42-2.29-.31-4.88.11-6.47,2.75l9.21,1.46c-.86,4.7-4.42,7.68-6.71,11.16s-4.25,4.7-8.93,4.33c-5.53-.44-9.57,8.21-15.15,9.29-.49.1-1.18,1.34-1.52,1.51-.6.31-.96-.42-1.73-.69.11-.11.16-.23.14-.32l-1.92-9.95,13.71-14.82c9.33-13.42,15.99-33.41,10.05-49.34-1.38,9.41-1.05,17.46-3.4,25.43-.96,1.21-2.49,1.92-4.29,1.05,3.21-11.91,2.91-23.46,2.29-35.52l-3.21-62.04c-.84-16.2-1.69-31.72-5.85-47.42-1.68-6.33-3.65-12.33-8.05-17.52-2.66,2.12,1.1,6.42-.7,7.62-.72.48-1.86.1-2.53-.77l-7.94-10.26c-.31.02-.47-.47-.26-.72,2.56-1.66,4.64-4.01,6-6.57,1.47-2.76,4.46-4.66,4.32-8.9l-1.84,1.82c-.89.88-2.06,1.02-3,.11l-10.16-9.77-17.97-20.89-13.49-17.81c-1.58-2.09-1.64-3.66-3.85-5.23-2.68-1.89-3.98-6.15-4.84-9.35l-5.19-19.28-2.67,1.3c-.45.22-.72-1.61-1.15-1.68l-.17-29.44.38-2.29c.95-2.02,1.37-5.16,1.68-7.82,1.19-10.11,2.23-19.84,4.12-29.99.17-.94-.18-2.18-.71-2.39-.47-.19-1.36-.01-1.8-.24l-2.14-1.08c-.85-.43-.77-2.16-1-3.09.44.05.53-.42.18-.63,4.67-3.26,7.75-8.08,9.6-13.77l2.5-7.69c-2.94-.75-5.09,1.37-5.76,4.13-.75-3.79-1.61-7.52-3.09-11.36l-4.72-.94c.55-2.3.79-4.86,2.01-6.92.64-1.07-.36-1.85-.34-2.81,10.54-5.41,6.67-8.37,7.9-15.1l.46-2.54c2.31-2.65.89-5-.47-7.57-4.83-9.13-10.83-18.71-20.92-15.16l-5.61.62c-1.17.13-2.74-2.69-4.53-.88-2.56,2.58-3.36,8.21-.91,10.79-.73.42-1.46,1.6-2.66,1.62l-1.79-1.57c-1.58-.14-1.74-.16-2.85.88-.11-.56-.23-1.09-.14-1.54,2.37-1.71.46-4.37-.74-6.39-2.57-4.36-4.61-8.61-7.54-12.69-1.6-2.23-2.22-4.55-2-7.44-5.99-2.14-12.46-3.53-18.56-1.78-1.95.56-3.12,1.29-4.75.18-3.05-2.06-6.87-2.52-10.97-3.13-5.36-.8-10.27,3.01-14.84,6.31-2.83,2.04-8.27-4.75-23.31,3.98-11.6,6.74-11.31,12.54-13.15,12.5-1.03-.02-1.31-1.01-1.65-1.7-1.2-2.41-3.4-2.59-5.4-1.77,0-.76.52-1.35,1.59-1.1,3.56-5.27,8.45-9.02,14.52-9.16,5.94-9.15,16.91-12.29,26-5.79,2.93-5.1,8.23-7.63,13.18-8.33,6.07-.86,11.22,1.28,15.54,5.92,9.06-8.05,24.01-4.67,32.13,4.63,4.34-1.41,9.02-2.89,13.13.06,3,2.15,6.23,5.38,6.47,10.58,6.23-1.52,12.04-.31,16.22,4.21l8.92,9.65c5.77,6.24,8.95,13.24,9.23,22.45-1.43,4.61-2.92,9.62-2.8,14.96l-5.27,25.76c-3.15,15.4-6.41,30.25-8.09,45.65,2.13,12.94,3.35,25.17,6.13,37.39,2.14,9.44,7.07,16.04,14.55,21.94,12.68,10,32.13,26.67,37.01,40.77l.87,10.42c6.54,7.5,10.02,16.22,11.28,25.97,3.13,24.36,5.47,48.17,6.81,72.91l3.09,57.21c8.61.6,18.92,14.92,19.72,21.23.37,2.91,1.92,7.05,1.65,9.95-.41,4.37.66,7.77.73,11.59l1.14,64.2.78,64.33c.08,6.96-1.03,16.78-4.48,17.87ZM268.27,199.12c-.16,2.36-.29,3.93.17,5.68,1.89-.51,1.2-2.5-.17-5.68ZM269.24,212.89c.11-.01.38-.12.53-.43l-.25-6.86c-.11.01-.38.12-.53.43l.25,6.86Z"/>
    <path class="cls-40" d="M332.57,524.54c.02.09-.03.21-.14.32.65,1.63,1.69,3.19,1.88,5l.05.97c-.88-.02-1.03.86-1.07,1.35-4.73,4.08-10.51,5.02-15.94,7.55-3.8,1.77-6.41,4.93-10.79,5.78,1.6,1.44,2.66.59,3.06,1.44l1.35,2.88c.06,7.61-1.09,14.54,1.92,23.32,7.38-.95,12.57-4.73,18.41-8.5l1.15,2.45,1.34,26.2,3.67,72.49c3.14-.58,6.09-2.81,5.96-5.32.61.78,1.17.71,2.16-.11,10.27-8.56,19.54-17.81,26.84-28.12.45,2.13-1.5,3.04-.55,4.1-3.8,7.67-9.09,14.75-15.74,20.98-6.59,6.93-14.12,12.33-22.21,16.66.67-.97,1.97-2.08,2.19-3.23.16-.8-.51-2.25-.87-3.17-4.77,2.51-10.12,4.23-13.59,7.07l-6.16,2.54c-1.55.7-4.56-.83-5.88.88l-.06-15.45c-.02-5.22.4-9.93.42-15.23l.06-14.53c-1.95-.16-3.61-.88-3.92-2.04-.61-2.29,1.71-6.95.29-7.48l-2.79-1.04-.72-24.79c-.31-10.58.5-20.84-2.5-30.86-.96-3.21-7.03,5.21-16.15,4.38l-22.27-2.02c-2.46-.22-3.55,2.34-5.28,3.12-6.44,1.99-13.23,1.14-19.86,2.24l-10.66,1.77c-5.95-7.81-11.87-.62-18.76-2.35-7.76-1.95-18.24,1.51-28.12.39,1.67-1.26,2.42-2.36,3.65-4-7.9-.36-14.84-2.44-21.81-6.04-7.01.97-13.64.92-19.98-2.2-5.09-.31-1.7,5.45-4.23,6.94-2.19,1.29-6.32-1.29-15.27,3.47-2.89,1.54-6.57.99-9.55.28l-9.28-2.22c-.57,1.89-.53,3.28-.53,4.68-1.18-.65-.63-2.04-.73-2.89-.14-1.24,1.37-2.06,1.88-2.87-1.12-3.43-5.76-8.33-8.67-8.96.33-8.27-.37-16.44.76-25.56,12.68,7.23,25.84,11.29,39.21,15.88,37.36,12.82,86.08,16.04,123.79,2.58l27.92-9.97c14.85-5.3,28.25-12.98,40.76-22.67.79-.61,1.26-1.49,2.27-.81.44.3.68,1.16.86,1.82l.61,2.2c.13.48.99.84,1.63.68Z"/>
    <path class="cls-25" d="M332.57,524.54c-.63.16-1.49-.2-1.63-.68l-.61-2.2c-.18-.66-.42-1.53-.86-1.82-1.01-.68-1.49.2-2.27.81-12.51,9.69-25.9,17.37-40.76,22.67l-27.92,9.97c-37.71,13.46-86.43,10.25-123.79-2.58-13.37-4.59-26.53-8.65-39.21-15.88-1.13,9.12-.43,17.29-.76,25.56l-1.63,41.26-.45,23.24-.69,4.8v11.17s-.45,37.35-.45,37.35c-2.48,2.23-5.52-.11-7.95-1.32-4.9-2.45-9.71-4.09-13.62-7.37.26-.7-.27-1.19-.67-2.57,5.91,1.31,11.02,4.2,17.47,7.16l.78-7.06.64-17.8.94-36.93,1.71-36.6.29-23.32-17.01-14.41.34-2.49,1.69-14.25c-8.31-2.85-13.3-12.48-19.63-14.57-3.37-1.11-7.04-.72-10.56-1.07-2.41,8.28-1.86,16.11-1.98,23.96l-.36,108.27c-.23,0-.64.02-1.15.77l-7.13-7.83c-1.03-1.14-.33-3.31-.31-4.49l1.11-78.6.04-51.63c1.35.25,1.83,1.16,2.31,2.8.97-2.9,1.56-6.05,1.13-9.12-.09-.65.62-1.17,1.5-.98l1.01-9.09,3.24-18.15c.42-2.34,1.17-4.69-.32-6.48,1.94-.48,3.64-2.1,6.07-1.77.8,7.01.74,13.83,3.43,20.61,1.94,4.9,3.48,9.63,5.92,13.94,1.96,3.46,4.42,6.54,7.18,9.38,27.76,28.54,63.56,40.19,103.12,46.02,3.67-4.52,8.63-6.74,13.93-7.3,3.4-.36,2.99-5.88,14.24-5.14.64-2.26.25-4.15-.32-6.76,2.43-.89,4.69-.76,7.34-.03-.42,2.3-.49,4.17-.31,6.29-.35,1.26-1.01,2.33-2.79,3.19-1.77-.42-10.38.81-15.54,4.06-2.97,1.87-6.71,2.62-8.59,6.01,16.48,1.72,32.57,1.68,48.49-.59-2.21-2.27-4.54-3.84-6.32-4.71l.53-2.05c4.69.56,8.99,2.54,12.41,6.5,37.84-5.46,76.41-18.67,104.2-45.73,2.76-2.69,4.07-5.32,6.01-7.94,3.03-4.07,5.49-8.11,6.96-13.12,2.35-7.98,2.02-16.02,3.4-25.43,5.94,15.93-.72,35.92-10.05,49.34l-13.71,14.82,1.92,9.95ZM92.62,543.82c.25-3.38.31-7.91-.33-10.81l-3.27-.92-.93,9.99c-.17,1.87,3.8,2.99,4.53,1.74Z"/>
    <path class="cls-56" d="M370.3,509.7l.64,38,2.03,82.94c.05,2.01,1.43,4.22-1.1,5.71-.95-1.05.99-1.97.55-4.1-7.3,10.31-16.56,19.56-26.84,28.12-.99.82-1.54.89-2.16.11l-2.24-44.49-5.42-81.16c-.11-1.59-.54-3.3-1.4-4l-.05-.97c11.28-5.28,22.6-10.61,33.06-18.2,1.05-.76,1.4-2.56,2.93-1.95Z"/>
    <path class="cls-55" d="M35.01,626.27c-.02,1.18-.72,3.36.31,4.49l7.13,7.83c.52-.74.93-.77,1.15-.77.25,1.99-.16,6.45,1.47,7.87l9.03,9.03,14.2,11.59c.47.96.58,2.3,1.65,3.2,3.92,3.28,8.73,4.92,13.62,7.37,2.43,1.21,5.47,3.55,7.95,1.32.07,1.69,1.71,1.4,2.88,1.87l25.48,10.23,6.03,1.36c43.55,15.4,116.08,14.11,159.95-1.8l22.8-8.27c.54-.2,1.91-.99,2.01-1.53.1-.5-1.07-1.16-1.07-1.99,1.32-1.71,4.34-.18,5.88-.88l6.16-2.54c-.62.5-1.46,2.13-3.19,2.29-.77.1-1.68.6-1.79,1.48-.08.59.62,1.19,1.04,1.35.8.3,1.3-.54,1.49-.94.65.79,1.18.76,1.56.81.28.03.23.86.48,1.13-18.67,9.99-39.31,17.94-61.02,21.8-17.97,3.19-35.26,4.02-53.17,5.52l-5.54.08c-49.08-2.96-74.23-5.65-119.17-27.77-14.19-6.98-26.4-15.15-37.18-27.3-8.57-9.65-15.06-19.88-18.12-32.15,1.09-.12,1.7-.74,3.47-.54-.36,2.13,1.55,4.3,2.6,5.14.3.24-.2,1.88-.03,2.22.28.56.78.55,1.3.25.8-.2,1.05-1.17.59-1.77Z"/>
    <path class="cls-2" d="M202.25,39.17c-1.13,2.42-2.88,4.98-5.01,7.02.23,1.03.62,3.18-.9,3.42-.89.27-.03,1.24.07,1.69-1.18-1.34-3.1-3.1-4.64-1.93l-5.34,4.05.45-3.96c-1.6.73-1.74,2.05-2.48,2.91-2.29,2.65-1.6,6.23.14,8.86,2.11,3.17,5.58,4.94,9.57,3.34,2.98-1.19,5.05-4.44,6.53-6.9l1.49,2.26c.12.23.15.54.08.83-.99.35-1.33,1.57-1.94,2.28-.14.17-.36.47-.22.85-1.68.79-3.34,1.75-4.53,3.29-.38.49-1.28.79-1.21,1.75.18,2.62,1.75,4.54,4.11,4.55,1.49,0,1.51-1.72,2.13-2.28.81-.73,3.35-.24,3.08-2.19,1.13-.2,1.94-.14,2.82.21.34-.01.85-.33,1.35,0s.73.66.7,1.25c-.04.72.75,1.38,1.92.84.55.23,1.59,1.11,2.56.74.55-.21,1.23-.7,1.19-1.59l.81-.06c.54-.22,1.47.03,1.46.4-.02.63-.34.99-.5,1.51-.63.41-1.04,2.17-3.12,2.26-.31,1.97,2.24,3.8,3.5,4,3.19.73,5.22-.05,7.1-2.34,4.81-2.71,9.53-8.13,8.11-13.86,1.32-.2,1.82.26,2.33,1.28l1.98,3.62c-.09.45.03.98.14,1.54l1.4,7.46c-6.32,4.02-14.98,6.1-22.99,3.69-3.85-1.16-6.39-5.35-8.98-7.72-2.31.14-3.78,2.04-5.64,3.05-3.14,1.71-6.18-.92-7.53-4.45-2.01,2.67-1.36,5.73-1.02,9.44-2.11.23-3.45-.27-5.69.73l-1.59-6.03c-.39-1.49-3.08-4.29-4.84-3.16-6.33,6.87-13.76,6.11-16.45,12.12-5.9,1.13-12.8.03-18.08-2.58-.07,4.3,1.74,7.11,2.49,10.07-3.04-.08-5.5-.48-8.74-1.74,2.05-2.78,1.19-4.67.48-7.39-.67-2.6.77-6.17-1.74-7.9-.17-2.67.06-5.73-.84-8.78,1.14-3.77-1.52-6.03-4.11-7.77-.22-1.16.4-1.84.84-2.5,2-.82,4.2-.64,5.4,1.77.34.69.62,1.67,1.65,1.7,1.83.04,1.54-5.76,13.15-12.5,15.03-8.74,20.48-1.94,23.31-3.98,4.57-3.29,9.48-7.11,14.84-6.31,4.1.61,7.92,1.07,10.97,3.13ZM186.22,39.9c-1.28.16-2.7.55-3.65,1.25l-4.54,3.32c-1.84,1.07-2.98,1.58-4.87.29-.32-.22-1.28.85-1.65.65-2.06-1.11-6.61-1.89-8.89-.16-2.21.15-4.67.61-5.66,2.77-2.16-.3-3,2.16-5.92,2.51.09,1.22.77,2.03,1.16,3.22-.9-.9-2.67-2.95-3.73-1.64l-7.36,9.15c-1.04,1.29-2.86,1.59-2.89,2.91-.02,1.08.08,3.18.97,3.41,1.25-.53,1.97-.12,2.52-.21,2.69,3.05,3.09,6.84,4.09,11.05,5.17-2.04-.99-3.75.29-11.94,1.78-4.05,3.87-8.64,8.3-9.74,2.27-.57,4.35-1.86,6.74-2.19l1.54-.21c2.2-.3,4.62.28,7.12-.17,1.41.85,3.11,2.6,3.77,4.08l1.8,4.05c.66,1.48.13,3.43.21,4.99l.17,3.34c1.79-.61,3.27-.7,4.79-.82.94-.08,1.48.47,2.25.62.56.11,1.16.2,1.46.89.45,1,1.15,1.93,1.54,2.6.32.55.28,1.69.64,2.22.89,1.34,2.43.68,2.58-.78l.56-5.78c.14-1.4-2.63-3.28-3.8-2.32s-1.73,2.19-2.92,2.38c.56-1.21,1.59-2.21,2.76-3-1.29-1.05-1.89-1.53-2.72-1.72.4-1.37-.84-2.31-1.52-3.18-.11-.3-.26-.98-.62-1.06.29-1.29-.35-2.57-.3-3.88l.06-1.42.09-1.91c1.09-3.34,3.78-5.22,6.6-7.23.58-.41,1.79-1.19,2.59-.74.99.56,2.24-.22,3.06-.21,1.7.82,2.93-.99,3.76-2,.53-.65,2.66-.9,1.98-2.56-.39-.94-2.81-1.06-3.56-.83-.11-.46-.38-.57-.61-.69-.65-.36-1.06.17-1.33.35-.89-.2-2.17-.41-2.85-.83-1.68-1.01-2.8,1.02-4.01,1.17ZM154.84,59.03c-4.2,1.63-8.71,9.65-4.43,15.51,4.06,5.55,11.49,5.43,17.28,1.62,5.93-3.91,7.63-10.94,2.95-17.06l-.44-1.27c-.1-.3-1.15-.32-1.4-.14-.39.29-.53,1.26-.66,1.77-.69-1.73-1.59-3.05-3.97-3.39-3.56-.52-6.5,1.86-9.35,2.97ZM211.62,74.05l-3.68-.81c1.04,1.45,1.99,2.45,2.72,2.69.77.26,1.53-1.76.96-1.89ZM151.65,81.34c.8-.65.07-2.51-1.36-2.9-.88-.24-2.25-.81-3.39,1.16,1.27.27,2.89,1.95,4.75,1.73Z"/>
    <path class="cls-40" d="M147.07,91.44c-.7,1.27-1.18,2.51-.71,4.21l3.48,12.64c-.66.35-1.25.84-1.47,1.38-.37.89.32,2.44.94,3.29.57,4.67,2.53,8.49,6.91,9.79l15.4-5.61,10.9.43c4.62.18,8.81.48,13.08-1.45,4.16-1.88,9.09-1.82,13.01-.46-7.66-.92-14.22.18-18.55,7.68-10.18-6.86-23.42-6.61-32.08,2.53-4.66-4.56-11.07-7.6-17.68-6.74l-6.52,3.68c-4.89-3.36-9.57-7.16-15.46-7.88l-.45-1.27c-1.73-6.23-1.6-10.14-3.38-11.1-.89-.48-1.96-.18-3.53-.87,1.06-1.86,1-5.21,4.35-5.54,1.52,1.79,1.95,4.36,4.73,5.89-1.17-6.55-4.33-18.31-9-18.6.29-.29.25-1.23.05-1.55.85-.55,1.53-.76,2.67-.3l6.52,2.61c2.67,1.07,5.12,5.62,8.7,5.21,2.45-.28,8.48-9.02,8.09-14.99,2.51,1.73,1.07,5.3,1.74,7.9.71,2.72,1.57,4.61-.48,7.39,3.24,1.27,5.71,1.67,8.74,1.74ZM124.48,100.88c1.37-.42.97-1.61.36-1.96-.73-.42-1-1.45-2.37-.81.6.25,1.42,1.19,1.16,1.58-.23.34-.53,1.61.86,1.18Z"/>
    <path class="cls-56" d="M35.94,486.41c-.02.98.77,1.74,1.03,2.36.45,1.05,1.81,1.29,2.64.94.43,3.07-.16,6.22-1.13,9.12-.48-1.64-.96-2.55-2.31-2.8l-.04,51.63-1.11,78.6c.46.6.21,1.57-.59,1.77-.52.3-1.03.31-1.3-.25-.17-.35.33-1.98.03-2.22-1.05-.84-2.96-3.01-2.6-5.14-1.77-.2-2.38.42-3.47.54-.9-3.62-.95-6.53-.82-10.75l2.83-93.08.78-30.65c1.71,1.36,4.12,1.27,6.08-.07Z"/>
    <path class="cls-56" d="M132.11,57.85c2.59,1.73,5.25,4,4.11,7.77.9,3.06.67,6.12.84,8.78.39,5.97-5.64,14.71-8.09,14.99-3.58.41-6.03-4.14-8.7-5.21l-6.52-2.61,1.64-10.21c2.24-8.38,8.51-13.77,16.72-13.52Z"/>
    <path class="cls-35" d="M70.09,287.71l1.47-9.14c2.25-6.9,6.38-13,11.57-18.2l15.71-15.73,15.71-14.75c-3.23,11.8-9.8,22.16-18.53,31.28l-15.36,16.05-10.57,10.48Z"/>
    <path class="cls-40" d="M45.04,455.02c1.49,1.79.74,4.14.32,6.48l-3.24,18.15c-1.84,1.01-3.7,1.44-6.06,1.57l-.12,5.19c-1.96,1.34-4.37,1.43-6.08.07l.3-11.33c.17-6.3,2.43-12.61,6.44-17.45,2.14-2.58,5.91-2.04,8.44-2.68Z"/>
    <path class="cls-3" d="M111.07,81.88c.2.32.24,1.26-.05,1.55-1.48,1.44-.41,4.14-.83,5.98-1.04,4.53-2.13,8.61-1.1,13.28.37,1.68-1.42,4.75.57,6.37l-.07,1.17c-1.21.03-2.33-.12-4.1-.15l-10.89-.38,2.45-9.9c-.18-4.17.08-7,1.99-11,1.28-2.68,1.68-5.22,4.42-6.72,2.42-1.33,5.08-1.13,7.61-.21Z"/>
    <path class="cls-32" d="M109.6,110.24c3.04-.06,5.96,1.44,8.26,3.41l.45,1.27-6.35,2.97c-1.09,1.4.3,4.65,1.08,6.02-.39,1.2-.43,2.19-.07,3.64l-5.19-1.23c-.7,1.04.14,1.64-.3,2.48-1.03-3.03-4.16-5.55-7.26-7.18-.85-4.01-5.6-6.87-5.62-11.89l10.89.38c1.77.03,2.89.17,4.1.15Z"/>
    <path class="cls-25" d="M333.93,673.99l-12.67,6.78c-.25-.28-.2-1.1-.48-1.13-.38-.05-.91-.01-1.56-.81-.19.39-.69,1.24-1.49.94-.42-.16-1.12-.77-1.04-1.35.12-.87,1.02-1.37,1.79-1.48,1.73-.16,2.57-1.78,3.19-2.29,3.47-2.84,8.82-4.56,13.59-7.07.36.92,1.03,2.37.87,3.17-.22,1.15-1.52,2.26-2.19,3.23Z"/>
    <path class="cls-35" d="M265.67,107.44l4.72.94c1.47,3.84,2.33,7.57,3.09,11.36l-1.27,5.31c-4.7,3.41-4.03-2.13-10.56-3.15-3.31-.52-6.79,1.86-6.39,5.74,1.05,10.29-4.21,20.54-14.4,23.47-4.54,1.31-8.74-1.83-8.84-5.9,2.66,1.27,5.4,3.21,8.68,2.23,7.88-2.34,11.88-13.12,8.77-15.43-1.23-.92-3.71-2.48-4.79-.77-1.41-.06-3.6-1-5.56-.78-4.1.47-7.16,4.38-9.76,7.52-2.94-.4-6.7-.54-9.51.79l.7-1.2s-2.78-4.43-6.37-3.56c-.55.13-1.38-.51-2.12-.52s-1.19.35-1.1,1.58c-.76-1.27-.86-1.86-1.99-1.91-1.45-.07-2.28.48-3.57.86-3.6,1.07-6,5.12-4.43,7.53,1.05-.02,2.81.97,3.56,2.06.24.44-.11.84-.38.83-.3-.01-.94,0-1.34.2l-15.39-5.16c1.67,6.37,1.51,13.29-3.63,16.86-5.8,4.03-12.28,3.12-17.79-.12-5.4-3.17-7.2-9.04-7.81-15.54-3.09-2.4-8.78-.91-11.76,2.07-4.02-3.15-7.82-6.09-12.1-8.59-1.65-2.8,1.97-5.99.95-8.14,1.46.49,2.58-.27,4.19-.78,7.33-2.32,14.23,6.61,24.68,2.1,14.95-6.45,23.12.66,35.44-2.21,3.4-7.47,11.31-3.35,17.62-3.28,6.8.08,12.61-6.04,21.12-3.68,4.53,1.26,9.07-5.35,18.82-2.13,1.1-1.8.81-4.55.21-6.02,1.74-2.8,5.56-3.15,8.29-2.61ZM178.98,143.97c-2.24.33-2.65-2.21-.5-2.33,1.22.43,2.53-.26,2.5-.77-.15-2.39-6.3-3.52-11.76-2.6-3.52.59-5.42,4.4-5.4,7.35.02,3.41,2.13,6.15,5.32,7.88,3.3,1.79,7.05,2.5,10.7.45,5.04-2.82,5.36-9.76,3.24-10.23-.86-.19-2.49,0-4.08.25Z"/>
    <path class="cls-46" d="M351.02,475.87c-1.48,5.01-3.94,9.06-6.96,13.12-.49-.13-1.21.02-1.88-.26l-1.31-16.24c-2.43-30-5.58-59.55-10.39-89.2l-1.7-8.24c.31-1.23,1.6-2.29,2.33-2.88.42-.34-.36-2.11-.22-2.71.17-.71,1.53-.7,1.99-1.01,2.25-2.35.1-5.83-.63-8.44l-2.76-9.9c-1.25-4.49-2.33-10.39-5.84-13.85-2.59-2.55-4.48-4.08-3.55-7.85l-4.46-9.64c-1.12-1.46.79-2.99.81-4.58.48.06.9-.29.75-.81,1.17-.81,1.86-2.27,3.53-2.39l7.94,10.26c.67.87,1.81,1.25,2.53.77,1.8-1.2-1.96-5.5.7-7.62,4.4,5.19,6.38,11.19,8.05,17.52,4.16,15.69,5.01,31.21,5.85,47.42l3.21,62.04c.62,12.06.92,23.61-2.29,35.52,1.81.87,3.34.16,4.29-1.05Z"/>
    <path class="cls-12" d="M318.18,309.48c-1.67-.65-1.9,1.08-.58,1.18,1.13,1.42-.77,1.85-.42,2.73.16.52-.26.87-.75.81-1,1.02-2.51,2.89-2.1,5.26-1.14,1.63-3.2,3.21-3.94,5.45-8.02-12.25-17.25-23.95-26.19-35.47.33-.54.1-1.63-.33-1.67-.41-.04-1.2.19-1.26-.89-.02-.39-.17-.91-.78-.79l-10.55-13.35c.71-.59.93-.98,1.06-1.2l3.14-4.24c4.41,6.81,10.12,11.95,15.6,17.46l11.26,11.33,15.84,13.4Z"/>
    <path class="cls-55" d="M78.36,396.5l-4.26,36.76-4.82,51.57c-.41,4.34.17,8.5-1.64,12.35-2.76-2.84-5.22-5.92-7.18-9.38.95.36,1.27,1.21,2.54,1.7l2.77-45.17c.64-10.43.92-30.82,3.62-33.92,3.33-3.84.38,7.43.47,8,.42,2.75.03,5.35,2.26,7.58l2.26-21.66c.38-3.68,1.5-7.13,1.91-10.57.46,1.07.96,2.17,2.08,2.73Z"/>
    <path class="cls-25" d="M266.82,182.31l-.38,2.29c-1.34-.37-1.95.77-3.07,1.56-17.53,12.4-44.06,17.07-65.91,18.71-3.85.29-8.03.54-12.23.31l-13.66-.77c-14.02-.79-33.78-5.97-45.76-13.38-3.32-2.05-7.31-3.69-8.15-8.64,3.18,2.58,6.05,5.09,9.89,6.94,36.99,17.83,104.07,14.62,139.26-7.02Z"/>
    <path class="cls-55" d="M85.63,318.91c-5.35,3.54-6.69,6.11-7.84,4.28l-1.36-2.17c-.73-1.16-3.58.5-2.98,2.12.41,1.08,1.67,2.92,1.17,3.92-.44.88-4.16,4.06-5.6,4.24-.48.06-5.97-3.16-5.55-8.57.21-2.68,1.5-4.02,4.27-5.48,2.36-1.25,3.7-1.19,6.51.34-1.26-3.52,2.2-5.36,6.99-7.92,2.28-3,5.25-5.74,8.79-7.74l4.36-4.3c.78-.77,2.13-.27,2.47-1.35.15-.47.52-1.23,1.08-1.69l13.26-11.03c.61-.51,2.73.66,3.31-.71-.23,1.23-.62,1.98,1.37,3.7l-17.34,18.02c-2.13,2.22-5.18,3.8-6.73,6.27-4,6.37-9.33,5.56-6.17,8.06Z"/>
    <path class="cls-25" d="M85.63,318.91c-3.16-2.51,2.17-1.7,6.17-8.06,1.55-2.47,4.6-4.06,6.73-6.27l17.34-18.02c-1.99-1.71-1.6-2.47-1.37-3.7.15-.77.38-1.9,1.33-2.64,5.74-4.43,9.46-10.3,14.2-15.45,3.53-3.83,4.99-8.39,7.03-13.28,2.42-5.82,5.43-11.04,5.39-17.82,2.11.73,3.13,1.06,5.03.81.61,7.2-.92,13.35-4.27,19.24-7.08,12.43-14.53,24.37-24.78,34.68l-19.32,19.43c-4.15,4.17-8.89,8.05-13.49,11.08ZM145.08,235.79c-.33,1.4.9,1.42,1.24,1.23.57-.32.58-.75.53-1.25-.09-.82-1.45-1.33-1.77.02Z"/>
    <path class="cls-24" d="M315.78,286.98c-2.3-2.22-5.59-4.72-7.43-3.95.39-.74-.23-1.27-.78-1.2-.15-.18-.52-1.1-.77-1.03l-1.64.49c-.45.13-1.28-1.1-2.04-.07-.34.46.35.75-.33,1.92l-2.3-1.88c-2.09-.89-1.37-4.33-2.41-5.47l-7.87-8.66c-7.15-7.86-13.32-16.2-17.62-25.68-1.94-4.27-3.73-9.19-4.31-13.88l-1.67-13.54c.43.07.7,1.9,1.15,1.68l2.67-1.3,5.19,19.28c.86,3.19,2.17,7.46,4.84,9.35,2.22,1.57,2.27,3.14,3.85,5.23l13.49,17.81,17.97,20.89ZM282.44,253.27c1.81,2.37,2.62,6.23,6.52,7.97-.99-3.12-3.54-5.45-5.29-8.07l-5.42-8.11c-.27-.1-.74-.09-1.05.11l1.53,3.24,3.71,4.86Z"/>
    <path class="cls-25" d="M272.35,271.54c-.13.22-.35.61-1.06,1.2l10.55,13.35c-3.55-.53-2.61-4.97-8.07-3.28-2.77.86-4.01-2.81-5.52-3.71-7.01-4.21-13.83-13.72-15.51-20.89-5.22-.21-4.69-7.96-7.24-11.42-2.62-3.56-4.23-8.15-1.35-11.96.84-1.11,2.27-1.93,3.38-1.76,1.88.28,3.59,6.68,4.5,8.79l5.41,12.45,11.23,15.19c1.04,1.41,2.06,2.26,3.69,2.06Z"/>
    <path class="cls-40" d="M78.36,396.5c-1.11-.56-1.61-1.66-2.08-2.73l2.94-24.73c.67-5.63,3.58-10.36,3.62-16.41l3.32-3.11c4.45-4.17,8.14-8.22,12.27-12.64l8.22-8.82c.37-.4,2.13-.06,2.18-.58.06-.67.14-1.7-.22-3.15l5.88-1.29c-.17,3.68.48,6.31-.78,9.62-1.32-.98-2.23-.23-1.29,1.26-4.25,1.92-7.77,4.14-11.03,7.53l-10.97,11.42c-6.76,7.04-2.54,15.58-7.1,12.21l-1.87,13.36-3.09,18.05Z"/>
    <path class="cls-18" d="M328.77,375.05c-2.02-9.78-4.95-19.38-8.32-29.36l-3.73-8.34c-1.96-4.38-3.81-8.59-6.32-12.43.74-2.24,2.8-3.82,3.94-5.45-.41-2.37,1.1-4.25,2.1-5.26-.02,1.59-1.93,3.11-.81,4.58l4.46,9.64c-.92,3.77.96,5.3,3.55,7.85,3.51,3.46,4.59,9.36,5.84,13.85l2.76,9.9c.73,2.61,2.87,6.09.63,8.44-.45.32-1.82.3-1.99,1.01-.14.6.64,2.36.22,2.71-.73.59-2.02,1.66-2.33,2.88ZM324.7,338.48c-2.07-.86-2.94.96-4.18,1.45-1.49.59-1.02,2.91.42,3.1,1.51.2,3.42-2.7,3.76-4.55Z"/>
    <path class="cls-27" d="M133.77,122.8l1.53,3.23c1.02,2.15-2.6,5.34-.95,8.14l-10.28-2.39c-2.37-1.92-5.09-1.62-7.89-1.93-3.01-.34-1.99-3.96-3.13-5.95-.79-1.37-2.17-4.61-1.08-6.02l6.35-2.97c5.89.72,10.57,4.53,15.46,7.88Z"/>
    <path class="cls-55" d="M262.55,310.26c-.51-.59-1.56-.4-1.58-1.32-.03-1.27,1.16-1.7,2.06-2.12,1.98-.94,1.29-2.89.44-4.12,4.61,1.47,8.68,4.04,12.85,7.71,1.1.98,4.18.25,5.25,2.72.86,2,3.45,3.47,5.16,5.1l16.84,16.03c2.15,2.05,4.02,4.27,4.35,7.8-2.55-.43-3.38-2.79-5.1-3.84-.71-.04-2.62.59-3.16-.18l-1.55-2.23-5.79-4.96c-1.85-2.65-3.74-5.37-7.02-7.2-3.73-2.08-6.35-5.42-7.07-9.91l-4.94.22c-3.33-1.43-5.6-3.91-7.96-6.12-1.01,1.07-1.79,2.08-2.77,2.41Z"/>
    <path class="cls-55" d="M124.06,131.79c4.2,3.41,9.94,6.63,11.07,12.17.35,1.73.42,3.43,1.63,4.6-7.2,5.85-18.76-3.16-21.24-12.94-.55-2.15-.42-4.06.65-5.77,2.8.32,5.53.02,7.89,1.93ZM121.12,134.15c.73-1.32.61-2.13.27-2.58-1.19.77-1.1,1.26-1.38,1.98-.34.87.54,1.65,1.11.59ZM129.03,137.91c-2.14-2.85-6.05-4.82-6.6-4.33-.79.72-.89,1.23-.85,1.69.09,1.13,4.4,2.85,7.45,2.63ZM128.83,146.73c2.08.72,4.22-.19,4.95-2.27.25-.71.02-1.48-.66-2.09-.41-.37-1.15-1.31-1.68-.81.51,2.5-1.56,3.81-4.57,2.93.2,1.35,1.13,1.94,1.95,2.23Z"/>
    <path class="cls-5" d="M276.29,255.55c3.42,5.59,7.93,10.38,12.94,15.11l11.25,10.6,2.3,1.88,16.29,16.47c-1.36,3.59-5.54-2.23-9.13-5.31l-6.6-5.66c-7.47-7.85-14.44-16.95-23.54-22.79-4.26-2.73-6.98-4.76-8.98-9.28.6-1.36.95-2.3,2.59-3.51.63.91,1.92,1.95,2.87,2.48Z"/>
    <path class="cls-40" d="M142.76,304.33c-.93,1.7-1.49,3.16-.57,4.33s1.71,1.76,3.15,1.97c-2.79.88-5.11,2.63-7.55,4.18l-10.4,6.59c-.67.43-2.25-.79-2.21-1.36s.12-1.41,1.52-1.9l-.52-7.36c3.42-2.22,6.15-5.19,9.23-7.85,2.22-1.92,5.62.57,7.36,1.41Z"/>
    <path class="cls-35" d="M116.17,129.85c-1.07,1.71-1.2,3.62-.65,5.77,2.49,9.78,14.05,18.79,21.24,12.94.15,1.79-.64,3.52-2.07,4.6-1.28.97-2.94,1.3-4.52.91-12.07-.83-19.15-14.87-22.68-25.28.43-.84-.4-1.45.3-2.48l5.19,1.23c-.36-1.45-.32-2.44.07-3.64,1.14,1.99.12,5.61,3.13,5.95Z"/>
    <path class="cls-29" d="M307.57,281.83c-.38,3.34,2.37,6.48,5.7,7.75-.77-3.39-3.62-4.32-4.92-6.55,1.84-.76,5.13,1.74,7.43,3.95l10.16,9.77c.94.9,2.11.77,3-.11l1.84-1.82c.13,4.24-2.85,6.14-4.32,8.9-2.95-.54-5.44-2.15-7.37-4.11l-16.29-16.47c.68-1.17-.01-1.47.33-1.92.76-1.02,1.59.21,2.04.07l1.64-.49c.25-.07.62.85.77,1.03ZM304.72,282.39c-.11.72.74,1.38.97,1.21.3-.22.33-.88.3-1.19-.05-.49-1.13-.98-1.27-.02ZM326.23,300.55c-3.91-2.11-6.07-5.52-10.41-8.17,2.45,3.56,5.55,7.6,10.41,8.17Z"/>
    <path class="cls-40" d="M268.28,227.58c.58,4.69,2.37,9.61,4.31,13.88-1.94,5.09-.39,10.71,3.7,14.09-.95-.53-2.24-1.57-2.87-2.48-1.64,1.2-1.99,2.15-2.59,3.51l-5.78-13.03c-2.27-9.62-2.82-19.63,1.82-17.4.46.22.67.97,1.41,1.43Z"/>
    <path class="cls-55" d="M232.02,145.21l-.12-4.8c-.02-1-.86-.07-1.18-.13-.45-.08-1.25-.99-1.35-1.4,1.35.24,2.56-.66,4.1-.78l2.01-.16c.32-.03.76.2.68.74-.2.59-.09,1.4.16,1.87,1.64,3.13,5.54-2.37,9.27-7.52.5-.69-.11-1.42-.9-1.78,1.08-1.71,3.56-.15,4.79.77,3.11,2.31-.89,13.09-8.77,15.43-3.29.97-6.03-.97-8.68-2.23ZM234.54,140.37c2.21-.25.34-2.62-.45-.95-2.03.04-1.01,1.91.45.95Z"/>
    <path class="cls-40" d="M71.68,409.4c-2.8-1.16-3.1-3.5-5-5.04l1.83-24.92,2.94-19.43c1.17,7.79-.06,15.04-.32,22.63-.31,9.02-.31,17.44.56,26.76Z"/>
    <path class="cls-55" d="M125.78,230.58c-1.27.76-1.89.44-2.2.12-.51-.53-1.1-1.45-1-2.55l1.06-11.94.67-17.29c3.86,11.02,1.46,20.5,1.48,31.67Z"/>
    <path class="cls-55" d="M258.96,300.52c-.85,1.42.54,3.35.52,4.78-.46.49-2.46.7-2.73.73-2.35-1.42-5.95-3.41-8.87-4.37-.94.45-3.61,2.05-4.2.31-.53-1.57.73-3.77,1.21-5.31,6.56-.27,10.53,4.84,14.07,3.87Z"/>
    <path class="cls-55" d="M267.15,137.08c3.79-2.96,4.84-7.38,5.06-12.02l1.27-5.31c.66-2.77,2.82-4.89,5.76-4.13l-2.5,7.69c-1.85,5.7-4.93,10.51-9.6,13.77Z"/>
    <path class="cls-55" d="M221.43,536.17l-.53,2.05c-2.52.22-4.45-1.53-6.97-2.13l-11.08-2.64c1.79-.86,2.45-1.93,2.79-3.19l7.04,1.47c2.98,1.42,5.5,4.05,8.74,4.44Z"/>
    <path class="cls-25" d="M117,249.57c-.87-.23-.63-2.31-.5-3.08.19-1.14,2.18-1.51,3.31-1.45l1.44-7.29c3.11,2.5,3.74,4.79,2.3,7.83-1.12,2.37-3.2,4.88-6.55,3.99Z"/>
    <path class="cls-3" d="M239.13,130.47l-1.36,6.06c-.29,1.18-.53,2.01-1.61,2.15.08-.55-.35-.77-.68-.74l-2.01.16c-1.54.12-2.75,1.02-4.1.78-.05-.21-.21-.64,0-.89,2.6-3.14,5.66-7.05,9.76-7.52Z"/>
    <path class="cls-25" d="M263.47,302.7c.84,1.22,1.53,3.18-.44,4.12-.9.43-2.09.85-2.06,2.12.02.92,1.07.72,1.58,1.32-1.5.51-4.33-.51-5.8-1.61-.08-.48.57-2.14,0-2.62.27-.03,2.27-.24,2.73-.73.02-1.43-1.37-3.36-.52-4.78,2.47-.68,3.19,1.76,4.5,2.18Z"/>
    <path class="cls-46" d="M219.87,138.78c-.68,3.03-3.46,4.51-5.87,5.77.76-.85.82-1.09.86-2.12.02-.54.34-1.12-.71-1.27,1.08-2.31,1.57-4.98.04-7.14,3.59-.88,6.34,3.6,6.37,3.56l-.7,1.2Z"/>
    <path class="cls-25" d="M145.33,310.63c-1.43-.2-2.22-.78-3.15-1.97s-.35-2.63.57-4.33c2.59,1.26,7.53,1.02,9.1,5-2.63-.08-4.64.7-6.53,1.3Z"/>
    <path class="cls-59" d="M270.1,141.88l-1.78.33c-.34,4.14-2.47,8.1-5.5,10.73l4.14-15.24c.23.93.15,2.66,1,3.09l2.14,1.08Z"/>
    <path class="cls-52" d="M214.15,141.16c1.05.15.73.73.71,1.27-.04,1.03-.1,1.27-.86,2.12-2.38,1.24-5.3,2.49-7.78-.34-.67.62-1.32,1.11-1.99,1.13-.62.02-1.02-.34-1.4-.68.4-.2,1.04-.21,1.34-.2.27,0,.62-.39.38-.83,3.47.47,3.85-1.84,5.71-4.4-.35,1.79-1.03,3.55-2.44,4.84.74.66,1.32,1.58,1.29,1.37,2.45-1.07,4.27-2.48,5.05-4.28Z"/>
    <path class="cls-18" d="M318.18,309.48c.52.44,1.47.55,2.28.81-.21.25-.04.74.26.72-1.67.12-2.36,1.57-3.53,2.39-.35-.89,1.55-1.31.42-2.73-1.32-.1-1.09-1.84.58-1.18Z"/>
    <path class="cls-25" d="M284.21,289.43c-.72.36-1.52-.36-1.65-1.16-.08-.5-1.31-.81.06-1.4.06,1.09.84.86,1.26.89.44.04.66,1.13.33,1.67Z"/>
    <path class="cls-56" d="M237.38,76.29c.86,4.58-1.77,9.84-.62,11.46,1.13,1.58,2.48.08,8.05.5.87.06,1.52-.14,2.1-.61,2.58,1.89,4.9,4.52,5.57,7.41.04.42.16.58.33.82.79,1.11,2.11-.09,4.09-.66l8.31,4.7c.61.34,1.42-.18,1.76-.34.23-.11.79.72.71.96-1.22,2.05-1.46,4.61-2.01,6.92-2.73-.54-6.55-.19-8.29,2.61-3.93-2.39-9.33-2.11-13.33.59-12.21-10.58-26.49-12.38-43.27-13.97-11.42-1.08-22.15,1.22-33.23,4.13-6.54,1.72-12.15,4.48-17.72,7.49l-3.48-12.64c-.47-1.69.02-2.94.71-4.21-.76-2.95-2.57-5.77-2.49-10.07,5.28,2.61,12.18,3.71,18.08,2.58,2.69-6.01,10.12-5.25,16.45-12.12,1.76-1.13,4.45,1.68,4.84,3.16l1.59,6.03c2.24-1,3.59-.51,5.69-.73-.34-3.71-.99-6.77,1.02-9.44,1.36,3.53,4.39,6.15,7.53,4.45,1.86-1.01,3.33-2.91,5.64-3.05,2.59,2.37,5.12,6.55,8.98,7.72,8.01,2.42,16.67.33,22.99-3.69Z"/>
    <path class="cls-46" d="M275.72,80.08c-2.42-2.45-4.58-5.2-7.45-7.43-.83-.65-1.39-1.61-2.52-1.91-1.79-.48-3.1-.25-4.32.99-1.63,1.65-2.06,3.22-2.12,5.17-.14,4.57-.35,9.02,2.36,12.8-.29.33-.09.83.29.85l-.33,2.25c-2.15.43-3.91.41-5.39-.61-2.24-1.69-2.92-4.9-5.8-6.61-1.74-1.04-4.34,1.42-5.63,2.67-5.57-.41-6.92,1.08-8.05-.5-1.16-1.61,1.48-6.87.62-11.46l-1.4-7.46c1.11-1.04,1.27-1.03,2.85-.88l1.79,1.57c1.2-.02,1.94-1.2,2.66-1.62,1.9.91,5.56,1.47,6.75-.93,1.44-2.9-.48-6.32-1.32-8.98l5.61-.62c10.09-3.55,16.09,6.03,20.92,15.16,1.36,2.57,2.78,4.92.47,7.57Z"/>
    <path class="cls-46" d="M370.3,509.7c-1.53-.61-1.88,1.19-2.93,1.95-10.46,7.59-21.78,12.92-33.06,18.2-.19-1.81-1.23-3.36-1.88-5,.77.27,1.14,1,1.73.69.34-.18,1.03-1.42,1.52-1.51,5.57-1.08,9.61-9.73,15.15-9.29,4.68.37,6.64-.85,8.93-4.33s5.85-6.45,6.71-11.16l-9.21-1.46c1.59-2.64,4.18-3.06,6.47-2.75,2.49.33,5.35,1.38,5.63,4.42l.95,10.24Z"/>
    <path class="cls-50" d="M235.84,67.28l-1.98-3.62c-.51-1.02-1.01-1.48-2.33-1.28-1.31-5.32-7.51-9.02-13.28-8.97-4.06,2.79-3.88,8.03-1.13,11.55,1.38,3.05,1.85,5.36-1.19,7.37.16-.51.49-.88.5-1.51,0-.38-.92-.62-1.46-.4,3.37-3.52-4.31-6.16-1.51-13.56.62-1.64.93-2.98,2.1-4.59.74-1.02-.69-3.49-1.37-4.24,2.28,2.34,4.92,3.38,8.15,3.46,1.28.39,1.73.36,2.14-1.09.24-.84.02-2.16-.59-2.64-.91-.7,0-2.8-.68-3.93-1.73-2.84-6.49-2.79-9.06-2.5-1.64-1.31-3.95-.81-5.65.04l-5.57,1.24-3.29,3.69c-.38-.29-.84.19-.64.42.27.31.41,1.14.02,1.95,2.57,1.76,3.68,4.24,3.82,7.08l.16,3.31c.02.48-.21.84-.88.87l-1.49-2.26c.98-2.65-1.01-5.24-3.3-6.16-.26.62-.86.24-.93-.21-.1-.44-.96-1.42-.07-1.69,1.52-.24,1.13-2.38.9-3.42,2.13-2.05,3.88-4.6,5.01-7.02,1.63,1.1,2.8.37,4.75-.18,6.1-1.74,12.57-.35,18.56,1.78-.22,2.89.4,5.21,2,7.44,2.93,4.08,4.97,8.34,7.54,12.69,1.19,2.02,3.11,4.68.74,6.39Z"/>
    <path class="cls-55" d="M270.52,78.47c.52.24.94.32,1.28.8.45.62,1.57-.21.83-.78-.26-.2-.52-.4-.5-.81,1.66.09,1.78,2.64,3.12,4.94-1.23,6.73,2.63,9.69-7.9,15.1-2.78-1.36-4.37-4.48-5.39-7.17-.38-.03-.59-.52-.29-.85.14-.39.38-1.09.22-1.5,1.38.32,1.98,2.27,2.95,3.32,1.43,1.33,2.42-.59,1.05-1.02-2.53-2.75-4.13-6.29-4.09-9.57,1.82-3.19,6.88-.07,4.53-4.09,2.4-.65,2.93,1.06,4.19,1.63Z"/>
    <path class="cls-52" d="M248.72,57.97c.84,2.66,2.75,6.09,1.32,8.98-1.19,2.4-4.85,1.84-6.75.93-2.45-2.59-1.65-8.21.91-10.79,1.79-1.8,3.36,1.01,4.53.88Z"/>
    <path class="cls-59" d="M267.35,97.72c-.02.96.97,1.74.34,2.81.08-.24-.47-1.07-.71-.96-.35.16-1.16.68-1.76.34l-8.31-4.7c.87-.82.7-1.78-.81-1.4-.56.47-1.24.88-1.73.48-.4-.33-.72-.78-.68-1.31.77.02,2.08.49,2.57-.78,1.48,1.03,3.24,1.04,5.39.61l.33-2.25c1.01,2.69,2.61,5.81,5.39,7.17Z"/>
    <path class="cls-55" d="M275.72,80.08l-.46,2.54c-1.33-2.31-1.45-4.86-3.12-4.94-.53-.03-.68-.21-.74-.44-.1-.42-1.33-.54-1.51-.01-.11.32.75,1,.64,1.26-1.26-.57-1.79-2.28-4.19-1.63,2.35,4.03-2.72.9-4.53,4.09l.03-2.47c.03-2.44,1.55-5.24,4.75-4.83.8.1,1.34-.03,1.68-.98,2.87,2.24,5.03,4.99,7.45,7.43Z"/>
    <path class="cls-52" d="M268.27,199.12c1.37,3.18,2.06,5.17.17,5.68-.46-1.75-.33-3.32-.17-5.68Z"/>
    <path class="cls-3" d="M269.24,212.89l-.25-6.86c.15-.31.42-.42.53-.43l.25,6.86c-.15.31-.42.42-.53.43Z"/>
    <path class="cls-56" d="M309.62,678.08c0,.82,1.17,1.49,1.07,1.99-.11.54-1.48,1.34-2.01,1.53l-22.8,8.27c-43.87,15.91-116.4,17.2-159.95,1.8l-6.03-1.36-25.48-10.23c-1.17-.47-2.81-.18-2.88-1.87l.44-37.35c2.35-1.11,4.96-.66,8.48-.17.32-2.62.68-5.86.13-8.77l-7.91-7.04.45-23.24c-.03.06.52-.66.72-.85l8.41.51.03-26.22c0-1.4-.04-2.78.53-4.68l9.28,2.22c2.97.71,6.65,1.26,9.55-.28,8.96-4.76,13.08-2.17,15.27-3.47,2.53-1.49-.86-7.25,4.23-6.94,6.34,3.12,12.98,3.17,19.98,2.2,6.97,3.6,13.92,5.68,21.81,6.04-1.23,1.64-1.98,2.74-3.65,4,9.88,1.12,20.36-2.34,28.12-.39,6.9,1.73,12.82-5.46,18.76,2.35l10.66-1.77c6.63-1.1,13.42-.25,19.86-2.24,1.73-.79,2.82-3.35,5.28-3.12l22.27,2.02c9.13.83,15.19-7.59,16.15-4.38,3,10.02,2.19,20.28,2.5,30.86l.72,24.79,2.79,1.04c1.42.53-.9,5.19-.29,7.48.31,1.15,1.97,1.88,3.92,2.04l-.06,14.53c-.02,5.31-.44,10.01-.42,15.23l.06,15.45Z"/>
    <path class="cls-25" d="M343.43,660.47c.13,2.5-2.83,4.74-5.96,5.32l-3.67-72.49-1.34-26.2-2.32-22.87-7.14,3.57c-3.59,1.8-7.32,2.82-10.59,6.23-1.04-2.03-.81-2.87-1.43-4.2l-1.35-2.88c-.4-.85-1.46,0-3.06-1.44,4.38-.84,6.99-4.01,10.79-5.78,5.43-2.53,11.21-3.47,15.94-7.55.04-.5.19-1.37,1.07-1.35.87.7,1.3,2.41,1.4,4l5.42,81.16,2.24,44.49Z"/>
    <path class="cls-5" d="M332.45,567.1l-1.15-2.45c-5.84,3.77-11.02,7.55-18.41,8.5-3.01-8.79-1.85-15.71-1.92-23.32.62,1.34.39,2.17,1.43,4.2,3.27-3.41,7-4.43,10.59-6.23l7.14-3.57,2.32,22.87Z"/>
    <path class="cls-55" d="M102.29,575.09l-.03,26.22-8.41-.51c-.2.19-.74.9-.72.85l1.63-41.26c2.91.63,7.55,5.52,8.67,8.96-.5.81-2.02,1.63-1.88,2.87.1.85-.45,2.24.73,2.89Z"/>
    <path class="cls-56" d="M74.45,535.49l-.34,2.49-.69,13.81-5.11,114.53-14.2-11.59-9.03-9.03c-1.63-1.43-1.22-5.88-1.47-7.87l.36-108.27c1.94,1.19,3.14-.21,4.18-1.15,1.59-1.44,1.97-2.58,2.01-4.79.24-.6,1.38-.92,2.18-.66,2.64,2.19,5.91,3.58,9.04,3.45,4.73,3.14,9.27,5.37,13.07,9.08Z"/>
    <path class="cls-5" d="M69.96,669.52c-1.07-.9-1.18-2.24-1.65-3.2l5.11-114.53.69-13.81,17.01,14.41-.29,23.32-1.71,36.6-.94,36.93-.64,17.8-.78,7.06c-6.45-2.96-11.57-5.85-17.47-7.16.4,1.38.93,1.88.67,2.57Z"/>
    <path class="cls-40" d="M74.45,535.49c-3.8-3.71-8.35-5.94-13.07-9.08-3.13.13-6.4-1.25-9.04-3.45-.8-.27-1.94.06-2.18.66-.04,2.21-.43,3.35-2.01,4.79-1.04.94-2.24,2.34-4.18,1.15.12-7.85-.42-15.68,1.98-23.96,3.53.35,7.2-.04,10.56,1.07,6.33,2.09,11.32,11.72,19.63,14.57l-1.69,14.25Z"/>
    <path class="cls-40" d="M202.86,533.45l11.08,2.64c2.52.6,4.45,2.35,6.97,2.13,1.78.87,4.11,2.44,6.32,4.71-15.93,2.27-32.02,2.31-48.49.59,1.87-3.39,5.61-4.14,8.59-6.01,5.17-3.25,13.78-4.49,15.54-4.06Z"/>
    <path class="cls-55" d="M91.98,640.86v-11.17s.7-4.8.7-4.8l7.91,7.04c.54,2.91.19,6.15-.13,8.77-3.51-.49-6.13-.94-8.48.17Z"/>
    <path class="cls-55" d="M92.62,543.82c-.74,1.25-4.71.13-4.53-1.74l.93-9.99,3.27.92c.64,2.9.58,7.43.33,10.81Z"/>
    <path class="cls-5" d="M42.12,479.65l-1.01,9.09c-.88-.2-1.59.33-1.5.98-.83.35-2.19.1-2.64-.94-.27-.62-1.06-1.38-1.03-2.36l.12-5.19c2.36-.13,4.22-.56,6.06-1.57Z"/>
    <path class="cls-10" d="M168.16,59.45c1.46,3.64,1.19,7.96-1.09,11.6-1.86,2.97-5.61,5.97-9.68,5.52l-5.16-3.22c-1.98-5.02-1.14-10.15,2.61-14.32,2.85-1.1,5.79-3.48,9.35-2.97,2.38.34,3.28,1.66,3.97,3.39Z"/>
    <path class="cls-40" d="M231.53,62.38c1.42,5.73-3.31,11.15-8.11,13.86-1.88,2.29-3.9,3.07-7.1,2.34-1.26-.19-3.81-2.03-3.5-4,2.07-.09,2.49-1.84,3.12-2.26,3.04-2.01,2.57-4.32,1.19-7.37-2.75-3.52-2.93-8.76,1.13-11.55,5.77-.06,11.97,3.65,13.28,8.97ZM225.88,61.05c-1.47-2.69-5.23-4.04-8.47-3.55-1.03.16-1.28,2.75-.68,3.5.41.52,4.75,3.51,7.32,2.88.95-.23,2.46-1.68,1.83-2.83Z"/>
    <path class="cls-61" d="M214.22,47.24l-.02.79c.68.75,2.11,3.23,1.37,4.24-1.17,1.61-1.48,2.95-2.1,4.59-2.8,7.39,4.88,10.04,1.51,13.56l-.81.06c-.08-1.25-1.32-1.52-2.08-1.62l-2.59-3.32c.19-1.82-.62-3.4-1.9-4.72,4.13-3.19-2.4-10.41,1-13.87,1.17-1.19.08-1.64-.06-2.22,1.84.72,3.54,2.26,5.69,2.5Z"/>
    <path class="cls-46" d="M150.42,74.54c.79.04,1.4-.61,1.82-1.19l5.16,3.22c4.06.45,7.81-2.55,9.68-5.52,2.28-3.64,2.54-7.95,1.09-11.6.13-.5.27-1.48.66-1.77.25-.19,1.29-.16,1.4.14l.44,1.27c4.68,6.12,2.98,13.15-2.95,17.06-5.79,3.81-13.22,3.94-17.28-1.62Z"/>
    <path class="cls-30" d="M152.21,53.76c.88.88,1.83,1.83,2.19,2.99-4.43,1.11-6.52,5.69-8.3,9.74-1.66.1-3.23-.22-4.38.89-.55.09-1.27-.32-2.52.21-.89-.24-.99-2.33-.97-3.41.02-1.32,1.85-1.62,2.89-2.91l7.36-9.15c1.06-1.31,2.83.74,3.73,1.64Z"/>
    <path class="cls-3" d="M200.64,57.66c-1.48,2.45-3.55,5.7-6.53,6.9-4,1.6-7.46-.17-9.57-3.34-1.75-2.63-2.44-6.2-.14-8.86-.03,2.56.64,5.07,2.53,7.07,1.29,1.36,4.06,2.59,6.32,1.36,2.95-1.6,4.28-5.64,4.09-9.3,2.3.92,4.28,3.52,3.3,6.16Z"/>
    <path class="cls-13" d="M191.77,49.37c1.38.98,2.06,1.94,2.27,3.09.59,3.17-5.53,7.22.22,5.82.22,1.63-.68,1.81-1.01,2.52-2.26,1.23-5.02,0-6.32-1.36-1.89-1.99-2.56-4.5-2.53-7.07.74-.86.88-2.17,2.48-2.91l-.45,3.96,5.34-4.05Z"/>
    <path class="cls-47" d="M180.59,53.48l-.09,1.91-10.58-1.91c.13-.16.34-.49.4-.66.77-2.03,1.3-5.06,1.2-7.41.37.2,1.33-.87,1.65-.65,1.89,1.29,3.03.78,4.87-.29-.13,3.14.88,6.44,2.56,9Z"/>
    <path class="cls-1" d="M186.22,39.9c-.39,2.22-.2,4.39.97,6.35-2.82,2.01-5.51,3.88-6.6,7.23-1.68-2.57-2.69-5.87-2.56-9l4.54-3.32c.95-.7,2.38-1.08,3.65-1.25Z"/>
    <path class="cls-21" d="M156.97,48.03c2.66,1.02,4.52,3.78,4.17,6.53-2.39.33-4.48,1.62-6.74,2.19-.36-1.16-1.31-2.11-2.19-2.99-.38-1.19-1.07-2-1.16-3.22,2.92-.36,3.76-2.81,5.92-2.51Z"/>
    <path class="cls-2" d="M171.51,45.42c.1,2.35-.43,5.38-1.2,7.41-1.1.14-1.9-.23-2.66-1.01l-4.93-4.86-.1-1.7c2.27-1.73,6.82-.95,8.89.16Z"/>
    <path class="cls-15" d="M182.87,64.92c-1.18,1.45-2.38,3-2.34,4.9-1.52.12-3,.21-4.79.82l-.17-3.34c1.7-2.01,3.57-4.67,5.78-5.56.68.86,1.92,1.81,1.52,3.18Z"/>
    <path class="cls-55" d="M196.41,51.29c.07.44.67.82.93.21.19,3.65-1.14,7.7-4.09,9.3.33-.71,1.23-.89,1.01-2.52-5.75,1.39.36-2.65-.22-5.82-.21-1.15-.89-2.11-2.27-3.09,1.54-1.17,3.46.59,4.64,1.93Z"/>
    <path class="cls-46" d="M152.24,73.35c-.42.57-1.03,1.23-1.82,1.19-4.29-5.86.23-13.88,4.43-15.51-3.75,4.17-4.59,9.31-2.61,14.32Z"/>
    <path class="cls-37" d="M207.59,60.82c1.28,1.32,2.09,2.9,1.9,4.72-1.64-.37-2.14,1.23-3.13,1.71-.28-.74-.85-1.19-1.43-1.74-1.24-1.18-2.86-2.31-4.66-2.48.61-.71.95-1.92,1.94-2.28l3.26,1.89c.87-.82.56-1.4.61-1.87,2.18-.75.39-3.13-.89-4.02.99.21,1.82.92,2.32,1.52.67.8.34,1.79.08,2.55Z"/>
    <path class="cls-23" d="M200.36,64.76c.57,1.61,2.59,2.47,3.25,4.25.27,1.95-2.27,1.46-3.08,2.19-1.5-1.85-3.51-2.38-5.02-4.02,1.19-1.54,2.85-2.5,4.53-3.29l.31.88Z"/>
    <path class="cls-60" d="M170.32,52.82c-.06.16-.26.5-.4.66-.19.23-.3.47-.12.7-2.5.45-4.92-.14-7.12.17l.05-7.39,4.93,4.86c.76.78,1.56,1.15,2.66,1.01Z"/>
    <path class="cls-6" d="M162.63,45.26l.1,1.7-.05,7.39-1.54.21c.35-2.75-1.51-5.52-4.17-6.53,1-2.17,3.45-2.62,5.66-2.77Z"/>
    <path class="cls-20" d="M146.09,66.49c-1.28,8.19,4.87,9.9-.29,11.94-1-4.21-1.4-8-4.09-11.05,1.15-1.12,2.72-.79,4.38-.89Z"/>
    <path class="cls-60" d="M180.44,56.8c-.05,1.3.59,2.59.3,3.88-1.69,1.39-3.15,2.43-5.37,1.63l-1.8-4.05c2.35-1.27,4.73-.85,6.87-1.46Z"/>
    <path class="cls-42" d="M180.5,55.39l-.06,1.42c-2.15.61-4.52.19-6.87,1.46-.66-1.49-2.36-3.24-3.77-4.08-.18-.23-.07-.47.12-.7l10.58,1.91Z"/>
    <path class="cls-44" d="M190.23,38.73l-.45,6.78c-.8-.45-2.01.32-2.59.74-1.17-1.96-1.36-4.13-.97-6.35,1.21-.16,2.33-2.19,4.01-1.17Z"/>
    <path class="cls-43" d="M200.53,71.2c-.62.56-.63,2.28-2.13,2.28-2.35,0-3.93-1.93-4.11-4.55-.07-.96.84-1.27,1.21-1.75,1.51,1.65,3.52,2.18,5.02,4.02Z"/>
    <path class="cls-36" d="M195.02,39.9l1.59,3.4c-.84,1.01-2.06,2.83-3.76,2-.3-1.88-.56-3.94.24-5.75.27-.18.68-.71,1.33-.35.22.12.49.23.61.69Z"/>
    <path class="cls-8" d="M209.48,65.54l2.59,3.32c-1.16,1.33-1.93,1.95-3.59,1.62.03-.59-.2-.93-.7-1.25s-1.01-.02-1.35,0c.45-.77.21-1.2-.08-1.97.99-.48,1.49-2.08,3.13-1.71Z"/>
    <path class="cls-4" d="M193.08,39.56c-.79,1.81-.54,3.87-.24,5.75-.83,0-2.07.77-3.06.21l.45-6.78c.68.41,1.96.63,2.85.83Z"/>
    <path class="cls-26" d="M189.55,69.58l-1.05.03c.06-1.59-1.47-1-1.36.04-.91,1.43-1.65,1.8-2.9,1.68-.3-.69-.9-.77-1.46-.89l.06-.81c1.19-.19,1.7-1.37,2.92-2.38s3.93.92,3.8,2.32Z"/>
    <path class="cls-7" d="M185.78,73.92c1.26-1.45,2.84-2.45,2.72-4.31l1.05-.03-.56,5.78c-.14,1.46-1.69,2.12-2.58.78-.35-.53-.32-1.67-.64-2.22Z"/>
    <path class="cls-45" d="M182.83,69.63l-.06.81c-.77-.16-1.3-.7-2.25-.62-.04-1.9,1.15-3.45,2.34-4.9.84.19,1.44.66,2.72,1.72-1.17.79-2.2,1.79-2.76,3Z"/>
    <path class="cls-2" d="M181.35,61.74c-2.22.89-4.08,3.55-5.78,5.56-.08-1.56.45-3.51-.21-4.99,2.22.8,3.69-.24,5.37-1.63.36.08.5.76.62,1.06Z"/>
    <path class="cls-49" d="M204.93,65.52c.58.55,1.15,1,1.43,1.74s.53,1.19.08,1.97c-.89-.35-1.69-.41-2.82-.21-.66-1.79-2.69-2.64-3.25-4.25,1.58.8,2.81,1.48,4.57.76Z"/>
    <path class="cls-31" d="M151.65,81.34c-1.86.22-3.48-1.46-4.75-1.73,1.14-1.97,2.51-1.4,3.39-1.16,1.44.39,2.16,2.25,1.36,2.9Z"/>
    <path class="cls-28" d="M214.16,70.48c.04.89-.64,1.38-1.19,1.59-.97.37-2.02-.52-2.56-.74-1.17.54-1.96-.13-1.92-.84,1.67.33,2.43-.28,3.59-1.62.76.09,2,.37,2.08,1.62Z"/>
    <path class="cls-53" d="M188.5,69.61c.11,1.86-1.47,2.86-2.72,4.31-.39-.67-1.09-1.59-1.54-2.6,1.25.12,1.99-.24,2.9-1.68-.11-1.04,1.42-1.63,1.36-.04Z"/>
    <path class="cls-39" d="M206.09,60.77c-.05.48.26,1.05-.61,1.87l-3.26-1.89c.07-.29.05-.6-.08-.83.67-.04.91-.4.88-.87,1.47-.26,1.93,1.17,3.07,1.72Z"/>
    <path class="cls-9" d="M196.61,43.3l-1.59-3.4c.75-.23,3.17-.11,3.56.83.68,1.66-1.44,1.92-1.98,2.56Z"/>
    <path class="cls-19" d="M204.93,65.52c-1.76.73-3,.04-4.57-.76l-.31-.88c-.13-.37.08-.68.22-.85,1.79.18,3.42,1.3,4.66,2.48Z"/>
    <path class="cls-59" d="M211.62,74.05c.57.12-.19,2.15-.96,1.89-.73-.24-1.67-1.24-2.72-2.69l3.68.81Z"/>
    <path class="cls-34" d="M244.06,110.64c-2.23,1.51-4.23,3.28-5.42,5.73-7.11-6.17-14.03-3.5-21.36,3.25-2.9-1.54-5.58-3.59-8.67-3.96-3.92-1.36-8.85-1.42-13.01.46-4.26,1.92-8.46,1.63-13.08,1.45l-10.9-.43-15.4,5.61c-4.37-1.31-6.34-5.13-6.91-9.79-.63-.86-1.31-2.4-.94-3.29.22-.54.81-1.03,1.47-1.38,5.57-3.01,11.18-5.77,17.72-7.49,11.08-2.91,21.8-5.21,33.23-4.13,16.78,1.59,31.06,3.39,43.27,13.97Z"/>
    <path class="cls-48" d="M238.63,116.37c-.23.47-.26,1.12-.29,1.83-8.51-2.37-14.32,3.76-21.12,3.68-6.31-.07-14.22-4.19-17.62,3.28-12.31,2.87-20.49-4.24-35.44,2.21-10.45,4.51-17.35-4.42-24.68-2.1-1.6.51-2.72,1.26-4.19.78l-1.53-3.23,6.52-3.68c6.61-.85,13.02,2.19,17.68,6.74,8.66-9.14,21.9-9.39,32.08-2.53,4.34-7.5,10.89-8.6,18.55-7.68,3.09.37,5.76,2.41,8.67,3.96,7.33-6.75,14.25-9.42,21.36-3.25Z"/>
    <path class="cls-12" d="M110.95,101.68c-1.28,2.23-1.02,4.74-1.28,7.38-1.99-1.62-.2-4.7-.57-6.37-1.03-4.68.06-8.76,1.1-13.28.42-1.84-.65-4.54.83-5.98,4.68.29,7.84,12.05,9,18.6-2.78-1.53-3.2-4.1-4.73-5.89-3.35.33-3.29,3.69-4.35,5.54Z"/>
    <path class="cls-25" d="M117.86,113.65c-2.3-1.98-5.22-3.48-8.26-3.41l.07-1.17c.26-2.64,0-5.15,1.28-7.38,1.57.69,2.64.39,3.53.87,1.78.96,1.65,4.87,3.38,11.1Z"/>
    <path class="cls-22" d="M124.48,100.88c-1.39.43-1.09-.84-.86-1.18.27-.4-.56-1.33-1.16-1.58,1.37-.64,1.64.38,2.37.81.61.35,1.02,1.54-.36,1.96Z"/>
    <path class="cls-14" d="M178.98,143.97c1.59-.24,3.23-.44,4.08-.25,2.12.47,1.8,7.41-3.24,10.23-3.65,2.05-7.4,1.34-10.7-.45-3.19-1.73-5.3-4.47-5.32-7.88-.01-2.95,1.89-6.76,5.4-7.35,5.47-.91,11.61.21,11.76,2.6.03.51-1.28,1.2-2.5.77-2.16.12-1.74,2.66.5,2.33ZM168.86,141.26c1.05.07,2-.9,1.83-1.29-.27-.61-1.97-.67-2.63.45-1.31.57-.16,2.37.8.84ZM173.56,141.53c0-.07,1.77,1.76,2.07.88.27-.81-.23-1.06-.48-1.18-.3-.14-1.6-.04-1.59.3Z"/>
    <path class="cls-3" d="M257.38,110.05c.6,1.47.89,4.22-.21,6.02-9.75-3.22-14.3,3.39-18.82,2.13.02-.71.06-1.36.29-1.83,1.2-2.45,3.19-4.22,5.42-5.73,4-2.7,9.4-2.98,13.33-.59Z"/>
    <path class="cls-3" d="M210.98,135.08l-.73,4.15c-1.86,2.56-2.24,4.86-5.71,4.4-.75-1.09-2.51-2.08-3.56-2.06-1.56-2.42.84-6.47,4.43-7.53,1.3-.38,2.12-.93,3.57-.86,1.13.05,1.24.64,1.99,1.91Z"/>
    <path class="cls-18" d="M244.69,131.25c.79.36,1.4,1.1.9,1.78-3.72,5.16-7.63,10.65-9.27,7.52-.25-.47-.36-1.29-.16-1.87,1.08-.14,1.32-.96,1.61-2.15l1.36-6.06c1.96-.23,4.15.72,5.56.78Z"/>
    <path class="cls-40" d="M214.19,134.03c1.53,2.15,1.04,4.83-.04,7.14-.78,1.8-2.6,3.2-5.05,4.28.03.21-.55-.72-1.29-1.37,1.41-1.29,2.09-3.04,2.44-4.84l.73-4.15c-.09-1.22.37-1.59,1.1-1.58s1.57.65,2.12.52Z"/>
    <path class="cls-55" d="M145.08,235.79c.32-1.36,1.68-.85,1.77-.02.05.5.04.93-.53,1.25-.34.19-1.57.18-1.24-1.23Z"/>
    <path class="cls-56" d="M300.49,281.26l-11.25-10.6c-5.02-4.72-9.53-9.52-12.94-15.11-4.1-3.38-5.65-9-3.7-14.09,4.3,9.48,10.47,17.81,17.62,25.68l7.87,8.66c1.04,1.14.32,4.57,2.41,5.47Z"/>
    <path class="cls-57" d="M282.44,253.27l1.23-.1c1.75,2.62,4.3,4.95,5.29,8.07-3.91-1.74-4.71-5.6-6.52-7.97Z"/>
    <path class="cls-11" d="M283.66,253.17l-1.23.1-3.71-4.86-1.53-3.24c.31-.2.78-.21,1.05-.11l5.42,8.11Z"/>
    <path class="cls-58" d="M308.35,283.03c1.3,2.23,4.16,3.16,4.92,6.55-3.33-1.27-6.08-4.41-5.7-7.75.55-.07,1.17.46.78,1.2Z"/>
    <path class="cls-52" d="M324.7,338.48c-.34,1.85-2.25,4.75-3.76,4.55s-1.9-2.5-.42-3.1c1.23-.49,2.11-2.31,4.18-1.45Z"/>
    <path class="cls-22" d="M129.03,137.91c-3.04.22-7.36-1.51-7.45-2.63-.04-.46.06-.98.85-1.69.54-.49,4.45,1.47,6.6,4.33Z"/>
    <path class="cls-13" d="M133.78,144.46c-.34-.03-1.13-.98-1.26-.72l-.86,1.79-2.84,1.2c-.83-.29-1.76-.88-1.95-2.23,3.01.87,5.08-.44,4.57-2.93.52-.5,1.26.44,1.68.81.68.61.91,1.37.66,2.09Z"/>
    <path class="cls-52" d="M133.78,144.46c-.73,2.07-2.87,2.99-4.95,2.27l2.84-1.2.86-1.79c.12-.25.92.69,1.26.72Z"/>
    <path class="cls-56" d="M121.12,134.15c-.58,1.05-1.45.27-1.11-.59.28-.72.2-1.21,1.38-1.98.34.44.46,1.25-.27,2.58Z"/>
    <path class="cls-16" d="M326.23,300.55c-4.86-.57-7.96-4.6-10.41-8.17,4.34,2.64,6.5,6.06,10.41,8.17Z"/>
    <path class="cls-24" d="M304.72,282.39c.14-.96,1.22-.47,1.27.02.03.31,0,.97-.3,1.19-.23.17-1.08-.5-.97-1.21Z"/>
    <path class="cls-56" d="M234.54,140.37c-1.46.96-2.48-.91-.45-.95.79-1.67,2.66.7.45.95Z"/>
    <path class="cls-13" d="M256.24,92.18c-.49,1.27-1.8.8-2.57.78-.89-.02-1.11,1.4-1.19,2.07-.67-2.89-2.99-5.52-5.57-7.41-.58.47-1.22.67-2.1.61,1.29-1.24,3.89-3.7,5.63-2.67,2.88,1.71,3.56,4.92,5.8,6.61Z"/>
    <path class="cls-46" d="M256.9,95.2c-1.98.57-3.3,1.77-4.09.66-.17-.24-.29-.4-.33-.82.08-.68.3-2.1,1.19-2.07-.03.54.28.99.68,1.31.5.4,1.17-.01,1.73-.48,1.51-.38,1.68.58.81,1.4Z"/>
    <path class="cls-59" d="M268.27,72.64c-.34.95-.89,1.08-1.68.98-3.2-.41-4.72,2.39-4.75,4.83l-.89.02-.03-1.98c0-.5-1.09-.24-1.61.39.06-1.96.48-3.52,2.12-5.17,1.22-1.23,2.53-1.47,4.32-.99,1.13.31,1.69,1.27,2.52,1.91Z"/>
    <path class="cls-12" d="M260.95,78.48c.04,3.24-.44,6.76.94,9.72.16.41-.08,1.11-.22,1.5-2.71-3.78-2.5-8.23-2.36-12.8.52-.63,1.6-.89,1.61-.39l.03,1.98Z"/>
    <path class="cls-17" d="M208.53,44.74c.14.58,1.23,1.03.06,2.22-3.4,3.45,3.13,10.68-1,13.87.26-.76.59-1.75-.08-2.55-.5-.6-1.33-1.31-2.32-1.52-.63-.14-1.26-1.31-2.34-1-.14-2.84-1.25-5.32-3.82-7.08.39-.81.24-1.63-.02-1.95-.2-.23.26-.71.64-.42,2.83-.62,6-2.7,8.88-1.56Z"/>
    <path class="cls-51" d="M223.89,47.75c-1.17.44-1.85,2.27-1.55,3.73-3.23-.07-5.86-1.11-8.15-3.46l.02-.79c.06-1.97.36-3.88-.06-5.91,2.57-.29,7.33-.34,9.06,2.5.69,1.13-.23,3.23.68,3.93Z"/>
    <path class="cls-41" d="M214.15,41.33c.42,2.04.12,3.94.06,5.91-2.14-.24-3.85-1.78-5.69-2.5.19-1.2.33-2.21-.02-3.37,1.7-.86,4-1.35,5.65-.04Z"/>
    <path class="cls-33" d="M208.51,41.37c.35,1.15.21,2.17.02,3.37-2.88-1.13-6.05.94-8.88,1.56l3.29-3.69,5.57-1.24Z"/>
    <path class="cls-54" d="M205.19,56.75c1.28.89,3.07,3.28.89,4.02-1.14-.54-1.6-1.98-3.07-1.72l-.16-3.31c1.08-.31,1.71.87,2.34,1Z"/>
    <path class="cls-38" d="M222.34,51.48c-.29-1.47.38-3.3,1.55-3.73.62.47.83,1.8.59,2.64-.42,1.46-.86,1.48-2.14,1.09Z"/>
    <path class="cls-13" d="M261.8,80.93c-.04,3.28,1.56,6.82,4.09,9.57,1.38.43.38,2.35-1.05,1.02-.97-1.05-1.57-3-2.95-3.32-1.38-2.96-.9-6.48-.94-9.72l.89-.02-.03,2.47Z"/>
    <path class="cls-13" d="M272.14,77.67c-.02.42.24.62.5.81.74.57-.38,1.41-.83.78-.34-.48-.76-.56-1.28-.8.1-.26-.76-.94-.64-1.26.18-.52,1.41-.4,1.51.01.06.23.22.42.74.44Z"/>
    <path class="cls-12" d="M225.88,61.05c.63,1.15-.88,2.6-1.83,2.83-2.57.63-6.91-2.36-7.32-2.88-.6-.76-.35-3.35.68-3.5,3.24-.49,7,.86,8.47,3.55Z"/>
    <path class="cls-59" d="M168.86,141.26c-.96,1.53-2.11-.26-.8-.84.66-1.12,2.37-1.06,2.63-.45.17.39-.78,1.36-1.83,1.29Z"/>
    <path class="cls-13" d="M173.56,141.53c-.01-.34,1.28-.45,1.59-.3.26.12.76.38.48,1.18-.3.88-2.07-.94-2.07-.88Z"/>
  </g>
</svg>