<?xml version="1.0" encoding="UTF-8"?>
<svg id="Réteg_1" data-name="Réteg 1" xmlns="http://www.w3.org/2000/svg" xmlns:xlink="http://www.w3.org/1999/xlink" viewBox="0 0 409.19 709.78">
  <defs>
    <style>
      .cls-1 {
        fill: url(#Névtelen_színátmenet_84);
      }

      .cls-2 {
        fill: #f8f4e9;
      }

      .cls-3 {
        fill: #f4b8a9;
      }

      .cls-4 {
        fill: #a48f9d;
      }

      .cls-5 {
        fill: #5d6585;
      }

      .cls-6 {
        fill: #172c43;
      }

      .cls-7 {
        fill: #f4b0ac;
      }

      .cls-8 {
        fill: #385782;
      }

      .cls-9 {
        fill: #fcddb8;
      }

      .cls-10 {
        fill: #ebb9ab;
      }

      .cls-11 {
        fill: #324971;
      }

      .cls-12 {
        fill: #3e649e;
      }

      .cls-13 {
        fill: #f3abb2;
      }
    </style>
    <linearGradient id="Névtelen_színátmenet_84" data-name="Névtelen színátmenet 84" x1="1037.77" y1="-917.79" x2="976.94" y2="-913.25" gradientTransform="translate(-516.5936 1228.3343) scale(.8047)" gradientUnits="userSpaceOnUse">
      <stop offset="0" stop-color="#f3abaf"/>
      <stop offset="1" stop-color="#f7b8a6"/>
    </linearGradient>
  </defs>
  <g id="Generatív_objektum_0_30_" data-name="Generatív objektum (0, 30)">
    <path class="cls-2" d="M294.9,161.54c-2.55,1.22-7.9,5.44-7.55,7.96.92-.74,2.26-.06,2.12.93-3.21-.02-3.77,5.43-9.08,7.83-3.55-3.05-7.49-1.24-10.79.23-2.95,1.31-6.04,1.21-7.88,4.58l-5.52-1.54c-4.79-1.33-9.67-1.64-14.97-1.72,1,1.82,1.87,2.69,1.9,4.48-12.79.37-21.47,8.51-20.9,1.18l9.06-5.03-10.78,1.44c-.5-.04-.96-.11-1.45-.33-5.83-2.65-12.67-2.77-19.57-1.41.89,1.98,2.52.38,3.31.29l5.65.58c2.97.3,6.18.52,7.7,3.61l-10.79.91c-2.36.2-5.28,1.04-7.47,2.34-2.98,1.76-4.46.5-7.15-.25-6.48-1.83-13.57-1.88-20.04-1.22-5.03.51-8.98,3.11-11.4,6.45-2.95,4.08-2.66,9.07-1.63,13.95,2.72,12.85,5.21,25.33,5.67,38.36l22.9,4.36c-2.03,4.05-12.47-3.14-22.12-.21.77,1.22.82,2.09,1.04,2.93.34,1.34.06,2.54-1.71,1.98-1.53.38-2.67-.88-3.98-.84l-.89.02c-.24-1.55-2.21-.56-3.13-.73-9.85-1.92-18.05-5.98-27.66-9.59,1.58,3.02,5.07,3.85,8.08,4.92l20.18,7.19c2.6.93,5.66,1.2,8.23,1.62l19.24,3.15c3.64.6,7.08-.09,10.5.73-.18,1.05-2.19.4-3.47,1.38,3.04,1.61,8.4,1.75,9.69,5.95,1.87,6.12.71,13.03.45,19.24l-.26,6.02c-.12,2.7-1.08,5.92.96,8.37-2.15,7.68,1.23,16.85-.02,26.72l-7.01.95-1.66-.29c-.94-.17-1.94,1.57-.79,2.26l4.36,2.6,3.43,9.61c.51,1.45-.13,2.92-.8,3.73s-1.75,1.47-2.95,1.4c-4.15-.21-8.46-.75-12.57,1.25l-1.11.86c-2.63,2.04,3.89,1.01,11.97,1.37l9.55.42c-1.26,2.58-4.61.98-7.37,3.3l1.67,4.64c-1.74,3.85-.17,6.46,2.23,9.62,2.12,2.79,2.3,7.78-.01,9.6-3.51,1.11-7.04,1.63-11.3,1.07-2.69-.35-3.57-3.67-4.35-5.92l-10.19-29.41c-2.85-8.23-4.33-16.47-8.57-23.65-.33-3.64-2.53-6.73-5.61-8.91-.88-.62-.4,1.72-2.22,1.8-1.14,10.63-.91,22.06-.21,32.83.12,1.87-.65,3.7,1.18,5.95l-4.33,1.51c-3.14,9.43-3.07,19.1-.99,28.81,1.05,4.9-5.14,4.87-4.63,10.66-5.38-1.8-10.09-4.61-15.46-7.34,3.29,6.84,15.54,10.7,24.33,12.94.78.2.17,2.39-.58,2.96-.91.71-1.69.63-2.85.47-2.66-.38-4.87-.97-8.19-2.09,1.27,5.49-1.09,9.42-5.03,12.94,2.08,2.11,3.26,4.29,3.53,6.72-5.36-1.55-10.36-3.68-15.38-6.33,3.06,4.64,7.52,7.23,11.77,9.08-2.98,5.45-4.42,11.16-6.25,16.91l-4.68,14.69c-1.37,4.29-3.33,8.17-2.85,12.79l-9.13,2.43c-2.19.58-4.72-.34-6.3,1.4l6.2,7.11c-5.1-5.28-10.32-10.32-16.49-14.06l-4.29-3.26c.15-2.18-.44-4.14-1.33-5.7l-.42-8.72c1.39-7.78,6.52-14.31,12.86-18.69.54-.37,2.76.34,3.14-.19.54-.74.71-1.94,1.05-2.61,1.67-.64,2.31-2.73,3.19-4.24,2.02-3.5,4.52-6.97,4.9-11.11.06-.62.99-1.25,1.28-1.97,3.74-9.43,5.42-19.12,7.33-28.93.3-1.55,1.63-2.68.92-4.65-3.76-10.59-5.58-21.37-6.92-32.43-.48-3.94-1.95-7.93-.83-11.53.95-3.05-.42-5.79-.27-9.22l.68-15.23c.18-4,.96-7.64.24-11.27,3.25-7.2,2.9-11.99,3.53-16.26l1.85-12.72c.18-1.21-.2-2.72-1.65-3.51-1.59,3.77-2.03,7.44-4.08,10.57l-5.42,8.25c-2.62,3.99-6.08,7.27-8.55,11.4-1.56,2.6-4.79,3.69-7.3,4.26-.66,4.68-3.29,9.33-8.74,9.31-6.87,8.61-12.72,17.04-18.09,26.38-1.86,3.23-4.84,6.05-8.66,5.32.66,2.1,2.48,3.63,4.53,3.89,1.48,2.43,4.19,3.52,6.69,5.7l6.4-2.61c3.64-4.61,4.25-10.19,6.4-15.38,2.29-5.53,8.04-8.29,12.15-11.91,2.52-2.21,3.47-2.49,6.41-2.86-.21,1.57.86,2.3,1.79,3.33l8.1,8.96c.32,1.45-.48,2.09-1.15,3.13-4.96,7.75-10.15,14.69-16.04,21.92-13.88,17.05-20.78,36.37-21.3,58.69,7.15-4.03,13.82-5.14,21.52-4.65.69.04.87,1.81.71,2.42l-15.99,8.76c-2.75,1.51-4.51,3.41-6.66,5.61-10.29,10.53-14.1,24.91-10.23,39.68,1.39-2.96.62-5.95.79-9.1.88-16.87,10.59-22.43,10.38-25.04l7.94-1.81c6.42.56,10.92-3.78,10.86-3.87-.21-.28,1.16.18,1.47,0-6.14,6.51-10.17,14.86-11.67,24.13-1.12,6.92,1.32,14.34,4.28,21.03l4.45,6.45c.12.66.46,1.3.28,2.43-5.08-1.19-8.19-5.76-12.18-6.74-2-.61-1.68-1.91-2.26-3.71-1.77-5.52-2.51-10.42-2.73-15.83l-.74-3.94c-.19-1.03-1.3-1.25-1.78-1.26-.79,0-1.3.12-1.27,1.26.01.53-.06,1.18.88,1.24-.18.25-.13.79.34.77-1.27,10.54,3.61,22.92,10.26,32.14,3.31,4.59,5.67,9.3,8.15,14.41,11.05,22.81,14.29,47.72,15.41,73.23l1.48,33.94.54,30.79-6.51-.96c1.34,2.44,3.83,2.65,6.49,3.17.49,3.6.11,6.94-.87,10.27,1.35.39,2.23,1.07,2.51,1.73l-4.87-.75c.26-2.08-2.3-1.2-3.1-1.67-3.7-2.13-7.91-2.63-12.05-3.46-3.86-.77-7.11-3.66-11.56-2.68,1.51.77,3.23,1.59,3.72,2.96-2.79-.92-5.17-3.72-7.47-2.71-.82.36-.58,2.13.05,3.05-.97.24-1.58-.24-2.26-.59-1.67-.85-1.49-13.07-.32-15.56.98-2.11,2.8-3.88,1.21-6.88l1.74-18.72c.39-4.2.81-8.15.93-12.49l.82-28.25c.16-5.45.47-10.92-.58-16.79-.86-4.79-.43-9.61-2.75-14.39-6.03,42.06-10.17,83.16-14.09,125.63-.15,1.66,2.55,1.86,3.45,4.01-3.92,1.39-2.95,4.33-5.55,4.27-5.42-2.16-10.61-5.29-14.63-9.45l-5.63-5.83,2.49-80.44,2.35-47.2c1.48-1.14,1.47-2.42.77-3.72-.47-.87-1.72-2.27-2.79-2.05-.21.04-.34.37-.77.64-2.4,1.53,1.57-4.17,1.67-8.66,1.06.53,1.35.93,1.62,1.38.45.75,1.67.8,1.3-.37l1.12-24.82c-.63-1.29-2.72-2.73-4.85-3.28l-3.42,26.95-2.21,10.05c-4.2,38.5-6.91,76.65-8.77,115.07-6.48-6.66-9.48-15.36-9.59-25.05l-.51-46.36.79-51.58,1-42.31,1.18-14.43c.46-5.54,10.16-7.02,18.09-6.21l4.15-62.82,1.99-23.16c1.15-13.34,3.82-40.66,13.18-45.44l1.61.72c.19.09.57.17.8-.25.29-.54-.47-1.39-.56-1.65-.67-9.13,5.66-21.57,12.15-30.1,9.56-12.57,21.79-22.32,35.33-30.48l5.23-4.42c.44-3.92,1.17-7.26,3.09-11.02l-11.99-48.36-5.57-21.37c3.26-8.7,11.25-15.42,19.46-13.57,3.93-6.8,11.81-8.38,18.16-4,2.72-3.68,6.59-5.79,11.1-5.26l11.03,1.27,3.44-1.29c1.07,1.1.2,1.73.4,2.34.36,1.12,2.71,1.12,3.58,1.06l20.9-1.61,18.57.08c5.73.03,11.44.42,17.58.67.71-1.19.21-2.3.96-3.06,2.49.73,5.1.2,8.04.77l11.27,2.22c3.08.61,5.87.08,9.12,2.12,5.53-5.15,13.78-3.4,18.55,1.48l-2.47.34c-.63.09-1.54,1.22-.85,1.57l6.4,3.21c3.76-3.8,7.62-4.34,12.14-2.19,3.13,1.48,6.22,4.75,5.65,8.74ZM139.31,151.76c-.01-.12-.45-.67-.84-.99-1.25-.32-2.57-1.16-3.98-.93v1.04c1.49.35,3.01,1.53,4.82.89ZM277.83,158.8c-.13-.38-.16-.66-.14-1.1.91,0,1.04-.79.79-1.25-.42-.77-1.39-1.52-1.94-1.19-.92.55-.89,1.33-1.25,2.49l-1.3,4.15,3.85-3.1ZM123.4,165.02c1.94.03,3.53,1.34,5.16,2.16.76.9,1.46,1.68-.69,2.26,4.19,2.2,7.54,5.1,10.73,9.24.81,1.05,1.68-.24,2.25-.77,1.36-1.25,2.72-2.3,5.08-2.74-1.45-2.2-3.51-2.35-5.96-3.92-4.45-2.84-11.06-6.73-15.76-7.81l-4.3-5.83c-1.56-2.08-6.35-.46-8.84.51,2.85,2.05,4.87,3.88,6.61,6.81l5.72.08ZM156.23,179.26c1.64.76,3.31,1.62,5.15,1.82.18-.14.54-.57.63-.81-1.54-1.21-3.58-1.83-5.54-2.61l-7.88-3.14c-.28.22-.51.51-.66.87l8.31,3.87ZM181.12,179.16c.13-.23.25-.98-.36-1.36-1.73,0-3.59-.37-5.29.38,2.17.46,3.91,1.4,5.64.98ZM198.93,181.04c-5.6,2.71-10.78-2.83-17.08-2.06,4.69,1.61,8.32,3.23,12.32,6.39l4.75-4.33ZM127.5,199.78c1.26-.77,4.86-2.13,3.92-4.1l-4.76-10.02c-1.08-2.26-2.28-3.23-4.06-4.95-1.68-1.63-7.49-2.12-7.77,1.27-.71,8.68,8.08,20.6,12.66,17.8ZM153.28,202.52c2.18-3.98-1.76-9.35-5.56-10.5-1.58-.48-2.3-.58-3.25.22-.78.66-1.41,1.74-.94,3.43.97,3.48,6.33,7.93,9.75,6.85ZM174.06,276.76c-.15.77-.75,1.51-.4,2.28.43.95-.08,1.56-.43,2.4-.28.68-2.15.33-1.75,2.33,3.88-1.64,10.02-.36,10.14,4.14.19,7.32-8.25,7.21-10.49,8.19-.43.19-1.61-.09-.67-1.36-5.41-1.89-9.19.66-13.36-2.15,1.01,3.56,3.5,5.09,5.8,7.3,1.8-.15,3.05-.56,4.41.35,5.89,3.95,16.78,4.29,16.19-.07,3.14-.18,6.36-2.4,7.99-4.65,2.22-3.07,1.78-6.68.78-10.01,1.08-.58,1.73-.98,1.85-1.92.2-1.52-.45-2.2-1.46-2.98l-3.12-2.43c-2.92-2.28-6.22-3.32-10.07-4.58-8.35-2.73-17.68-2.94-24.87,2.16-1.02.72-.71,2.34-.92,2.93s1.1,2.36,1.73,1.89c4.64-3.52,10.25-4.39,16.11-3.13.68.15,1.94-.63,2.53-.68ZM160.95,289.58c-1.48-2.34-2.74-3.28-4.64-4.59.09,2.66,1.91,4.32,4.64,4.59ZM176.7,288.9c-.35-2.08-2.04-3.41-3.61-3.84-2.1-.57-3.39-.21-4.46,1.33-.83,1.2-.11,2.98.99,4.28,1.25,1.47,2.62,2.45,4.42,1.88,1.1-.35,3-1.56,2.66-3.65ZM136.1,312.72l.12,33.31c0,1.72,3.85,2.26,3.81.85l-.48-16.68.36-8.11.85-7.47-.5-7.84-.2-3.23c-.13-2.06-.85-4.52-3.57-5.47l-.38,14.65ZM150.45,354.05c.74-.35,1.65-.99,2.1-1.64.69-1-.24-2.2-.34-3.24-1.09-12.5-.44-23.24-.95-34.66,1.24.18,2.41.7,3.18.27,2.27-1.24-1.02-11.65-5.37-13.12-.36-.53-.91-1.23-1.48-1.41-1.36-.41-2.24.61-2.27,2.04l-.79,32.9c-.19,7.91,2.8,21.94,5.92,18.86ZM129.17,324.73l.78-7.04c.28-2.5,2.69-5.76-1.27-7.5.57,3.04-.29,5.22-.33,7.72l-.36,23.84c4.37-1.2.32-9.3,1.18-17.02ZM52.15,476.21l.92-15.35c.78-1.61,4.62-4.19,1.53-6.85,2.59-3.68,1.37-7.9,1.32-12.32-.1-8.88,1.96-17.47-.85-25.83-.26,5.69-1.22,10.77-1.75,16.22l-1.86,19.13-2.36,19.46c-.31,2.52.78,5.41,3.05,5.54ZM41.66,465.9c.41-2.35-.46-3.32-.94-4.87-.85,1.65-.8,3.86.94,4.87ZM29.17,569.7c0,.46,1.28.95,1.61.67-.63-9.08.62-17.67.96-26.76l2.21-58.72c-3.77,4.56-3.71,10.02-3.81,15.61l-.57,31.11-.63,25.97.24,12.13Z"/>
    <path class="cls-12" d="M289.47,170.43c-.74,5.07-2.03,10.86-4.78,15.19-1.13,1.77-.04,2.61.38,4.36-.7,2.49-1.33,4.99-2.25,7-2.57.88-3.6,2.33-4.94,4.25-2.17,3.12-5.33,5.03-6.98,9.32,2.39-.79,4.14-2.12,6.95-2l1.86.59c.98.31,1.44-.92,2.02-1.3,4.29-2.79,7.49-6.57,9.85-11.38l7.56-15.39c.7-.11.91.07.81.6-1.09,5.93-2.61,11.28-4.59,17.05-4.01,11.72-7.77,23.03-10.77,34.86-.59,2.34-2.33,4.35-3.69,6.02.36,6.54.76,13.02.61,19.35,11.54,9.37,22.61,18.26,31.89,29.6,8.95,10.94,13.96,23.83,18.38,37.28.96,2.92,3.29,5.52,1.91,8.58-.89,1.98-.48,4.35.8,6.2,3.42,4.97,3.61,10.53,3.92,16.31l1.14,21.29.77,66.98c6.65.57,11.67,3.59,15.91,7.69-2.08-1.37-3.59.81-5.18.92-3.89.28-7.8.03-11.62,1.26l-.03,28.54.34,34.7-.44,110.85-.25,19.38c-2.25,3.03-4.74,5.6-7.28,8.18-7.8,2.72-16.21,2.52-24.19,2.15-.14-.64-.67-.85-1.41-1.02l-7.21-1.64c-2.42-.55-7.32-.22-9.25-1.83,1.9-1.56,4.27-1.25,6.45-1.95,10-3.23,17.26-11.67,20.69-20.07-2.1-4.46.52-9.07-1.41-13.51l-1.62-20.98-4.16-32.96c-1.42-11.22,2.34-21.95,4.2-32.99l4.06-24.15c1.18-6.99-.52-14.71-5.13-19.41-.29-.3-.46-.93-1.6-.67-.73-2.89-1.96-6.14-3.84-9.01.63-.75,1.72-1.66,1.74-2.68l1.97.41c.44.09,1.43-.88,1.5-1.48l1.86-15.5c4.34-36.21,10.4-70.82-2.64-106.46-.67-.99-3.91,0-4.95.44-.39-5.68-.43-10.93-3.98-14.62.23-1.35,1.84-1.72,2.81-2.76l5.03-5.33c.76-.8,2.16-.52,3.17-1.98l2.54,2.16c1.63,5,4.16,9.92,8.05,14.33-.92,1.95,1.96,2.17,1.61.37,1.55-1.35,1.46-1.94.65-3.08-2.79-3.96-5.52-12.72-1.63-13.29.15.55.79.64,1.51.35.86-16.63-11.96-26.78-24.73-36.71-4.86-3.78-8.64-8.45-14.82-11.41-1.03,2.14-.79,5.46,1.24,7.23-1.29,3.93,1.69,6.06,3.72,8.45,5.36,6.34,11.06,4.5,10.4,7.25-.17.69-.84,1.92-2.5,2.52l-5.35-3.14c-.84,3.13,3.03,2.74,3.73,3.8,4.05,6.17,16.67,10.65,26.26,18.85-.8.28-.7,2.1-1.09,2.54-1.82,2.04-4.47.27-6.19-.79-7.32-4.55-6.91-11.86-9.88-8.74l-10-5.81-2.81-2.91c-8.31-5.63-14.51-13.61-16.98-23.35l.21-2.05c.03-.29-.72-.24-1.05-.17-.44.08-1.39.39-1.35,1.45.36,7.99-1.1,15.44-3.41,23.19-3.31,11.09-6.64,21.84-12.29,31.4-2.44,4.12-5.38,8.46-8.78,12.54l-11.83,14.17c3.91-1.94,7.31-3.96,11.16-2.51l-6.33,16.79c-.62,1.66-.31,4.26.88,4.87l-.82,4.11c-.2-.18-.45-.23-.7-.1-.49-1.71-2.8-2.1-4.49-1.81-6.13,1.05-16.23,8.26-28.83,5.15l-7.46,17.46-1.34,5.37c-.77,3.08-1.42,6.01-2.11,9.42l-.86,4.25-1.08,16.25c-.71.54-1.01,1.62-1.44,2.57,1.28.18,1.85.21,2.77.08.65-.09,1.4.08,1.27,1.21l-4.62-.08c-2.16,5.18-5.76,9.28-9.69,12.63-2.48-2.62-4.93-5.25-5.1-9.03,2.69-4.22,8.16-3.9,13.28-4.23-1.48-2.23-4.04-2-5.8-2.84.09-4.79,1.98-8.87.84-13.74-4.6,5.55-3.16,18.44-7.71,15.69-1.07-.65-.26-2.26-.12-3.38l3.93-29.31-2.51-18.98c.14-1.36,3.2-2.06,4.47-2.07l3.26-11.79c1.28.2,3.26.27,4.06-.79,3.37.21,6.92.07,10.1-1.05,9.25.56,19.19-1.23,26.35-7.6,4.17-2.17,6.22-6.06,5.22-10.76,4.38-18.8,11.72-35.94,18.3-54.01.68-6.73.19-14.03-.26-21.39-4.21,8.35-9.4,10.98-7.16,7.15,1.01-1.45,2.87-2.59,3.07-4.62-.65-1.21-1.98-1.25-1.77.47-1.67-.34-2.87.48-3.08,1.61l-2.81-.03c-.47,0-.01-.93.21-1.58,6.2-1.77,3.19-5.39,5-10.74.34-1,.45-2.73,1.36-2.97,1.63-.43,3.5.11,5.58,1.52,2.53-6.94,2.79-14.68-.73-21.43-.17-.33-1.54-.26-1.8-.36.53-.09,1.8-.85,1.99-1.78,4.3-1.6,9.23-2.66,13.05-5.09,1.07-.68,2.21-1.58,4.15-2.05,3.01,7.68,2.4,15.69,3.27,23.88,5.01-11.43-2.7-24.06,2.69-30.93-2.5,2.02-3.95,3.33-6.12,4.31l3.3-9.12c.34-.9-2.23-1.17-2.6-.42-.2.42-.91.73-1.63,1.29l-5.01,3.92c-5.69,2.36-11.74,3.44-18.25,4.34l6.27-22.86c3.93-2.14,9.23-3.93,11.82-7.62-6.5-16.5,5.76-29.65-9.75-32.41-1.07-.85.34-2.05,1.42-1.18l5.52,1.54c1.83-3.37,4.93-3.27,7.88-4.58,3.3-1.46,7.24-3.28,10.79-.23,5.31-2.4,5.87-7.85,9.08-7.83ZM334.51,412.8v-45.09c0-5.2.54-10.32-1.65-14.95-2.13,4.63-.58,8.93-.54,13.32l.44,50.64c1.44-.91,1.75-2.49,1.75-3.92ZM329.33,627.61c.3,2.87.27,5.88,1.91,9.15l.88-12.17,1.28-55.69.43-38.66c.12-10.88-2.58-21.22-5.11-31.93l-4.81,31.81c-1.03,6.83-1.14,13.32-1.44,20.25-.54,12.21,1.14,23.33,2.43,35.46l4.43,41.78Z"/>
    <path class="cls-12" d="M359.89,508.45l-.08,8.09c-1.64,1.31-1.91,3.65-.98,6.03-.37.53-1.37,1.82-1.37,2.85l.09,25.68c0,1.04.4,1.1,1.27,1.29l.75.11c.89,1.23,1.11,2.48,1.13,4.36l.55,53c.11,10.26-3.77,18.07-11.19,23.83.35-.47.27-1.95,1.8-2.34l-1.26-31.26c-3.02-1.3-3.61-2.79-3.82-5.55-1.8-23.17-2.54-45.74-3.24-69.06l-1.01-33.59c.75-3.61,3.6-6.68,7.52-7.69l.27,8.98c.02.64.6,1.58,1.01,1.59s1.54-.91,1.59-1.36l1.5-11.81c2.68,1.02,2.23,3.16,2.52,4.92,1.89,11.48-2.25,19.32,1.79,23.07.22-1.12.93-1.16,1.19-1.15Z"/>
    <path class="cls-11" d="M108.96,651.87c-.04,1.82-.77,4.01.34,5.62-.71,3.33-1.68,8.65-6.14,8.58-3.42-.05-5.85.87-6.47,4.26l-16.4.3c2.29,5,11.85,7.63,16.25,7.09-.88,2.31.11,4.47,2.75,5.28l7.93,2.46c3.29,1.02,5.62,2.85,8.66,3.55l10.44,2.42c3.1.72,6.1.38,9.99.65l-.58-26.38c-.06-2.8.21-5.83-1.69-7.77-.96-.98-2.18-1.92-3.48-2.16.06-.86.69-.85,1.38-.62l7.67,1.89.92,2.88-1.43,25.63.36,2.06c.39,2.28.94,4.23,2.96,5.43,4.19,2.5,9.74,4.23,14.45,3.34,1.64-1.56,4.54-.81,6.16-2.79.95-1.16.51-1.85.11-3.11.95.29,1.66.05,2.01-.88-2.8-3.05-5.88-4.93-9.12-6.53-.91-.45-1.97-1.41-2.09-2.44.38.01.65-.28.64-.69,3.18.68,5.96,2.63,8.89,4.85,12.67,9.61,27.46,15.51,42.37,12.07,10.2-2.36,19.62-5.12,27.6-12.02.93-.81,2.12-1.25,2.89-1.64l6.84-3.43c-.49,2.21-1.64,3.48-2.74,4.72l-2.78,3.51c-1.43-.29-2.69.33-3.92,1.08l-8.72,5.28c4.7,1.91,17.26-.05,17.74-.35,7.61,2.07,15.58-2.09,18.46-9.67.89-.48,1.52.4,1.5.88l-.08,1.88c-.05,1.17.25,1.78.6,2.14.46.48,1.59.87,2.49.56l18.62-6.41c4.22-1.45,8.06-3.84,10.22-7.44.78.19.76.95.85,1.31.17.6,2.06-.52,2.01-1.31l-.52-8.43c.58-.42,1.28.28,1.14.72-.11.36-.68,1.05.18,2.06.74-1.03.12-2.4.22-3.44,1.86.03.87,4.17,2.5,6.28.43.56,1.69.23,2.6-.25l17.21-9.07c1.32-1.6,2.33,1.16.1.83-.93.4-.68,1.33-.55,1.7-22.35,17.87-49.52,29.33-78.78,31.75-17.16,1.42-33.62,3.5-50.06,2.67-19.52-.99-38.63-1.66-58.08-4.34-14.11-1.95-27.13-5.57-39.79-11.87-13.12-6.54-25.7-13.18-36.9-22.78l-9.24-7.92c.49-.65.94-.59,1.13-.64,4.02,4.16,9.21,7.29,14.63,9.45,2.7,1.08,5.57,1.33,8.66,1.76,9.41,1.29,18.59,2.22,27.98-.44,1.04-.29,2.05-.03,2.89-.77.66-.58,1.05-1.53,1.1-2.64l.16-4.06c1.59-1.75,1.41-4.46,1.46-6.96.27-.24.67-.26.83-.18-.05,1.43-.51,3.13.33,4.42,1.25-.65,1.02-1.36,1.12-1.64.12-.32.87-.56,1.19-.28ZM298.93,672.23c-.04-1.36-1.16-1.05-1.17-.78l-.04,1.59c0,.31,1.26.71,1.21-.81Z"/>
    <path class="cls-6" d="M351.04,453.79c.2.59.56.93.63,1.33.3,1.51-9.79,16.27-9.17,36.77l1.01,33.59c.7,23.31,1.44,45.89,3.24,69.06.21,2.75.8,4.25,3.82,5.55l1.26,31.26c-1.53.39-1.45,1.87-1.8,2.34l-11,14.82.25-19.38.44-110.85-.34-34.7.03-28.54c3.82-1.23,7.72-.97,11.62-1.26Z"/>
    <path class="cls-13" d="M50.75,482.16l-1.78-.32c-1.56,5.82-1.85,11.59-2.49,17.57-.34,3.2,0,6.91,3.16,7.56.37,1.17-.85,1.12-1.3.37-.27-.45-.56-.86-1.62-1.38-.1,4.49-4.07,10.19-1.67,8.66.43-.28.56-.6.77-.64-2.5,3.64-2.41,7.98-2.77,12.53l-3.55,45.6-2.93,45.32-1.14,17.19c-.04.67-1.38.81-1.63.74-.23-1.34-2.36-2.98-2.29-4.41,1.85-38.42,4.57-76.57,8.77-115.07l2.21-10.05,3.42-26.95c2.12.55,4.22,1.99,4.85,3.28Z"/>
    <path class="cls-11" d="M45.48,566.94l-2.49,80.44c-1.28-1.32-2.43-3.08-3.8-4.98-1.85-2.57-4.86-3.94-5.39-7.03.25.07,1.58-.08,1.63-.74l1.14-17.19,2.93-45.32c.42-.21.9.18.83.48-.1.43-.45,1.39.56,1.96l.55-7.33c1.23-.03,1.54-.41,2.51-.84.27-2.32-.17-4.89.98-7.27l.55,7.83Z"/>
    <path class="cls-8" d="M356.22,452.87c2.19,2.12,3.36,3.85,3.38,7.52l.28,48.06c-.26-.01-.97.03-1.19,1.15-4.04-3.75.1-11.6-1.79-23.07-.29-1.76.16-3.91-2.52-4.92l-1.5,11.81c-.06.45-1.19,1.38-1.59,1.36s-.99-.95-1.01-1.59l-.27-8.98c-3.92,1.01-6.78,4.08-7.52,7.69-.62-20.5,9.47-35.26,9.17-36.77-.08-.39-.43-.74-.63-1.33,1.59-.11,3.1-2.3,5.18-.92Z"/>
    <path class="cls-13" d="M299.13,181.06l-7.56,15.39c-2.36,4.81-5.56,8.59-9.85,11.38-1.02-2.21.31-6.52,2.36-7.32,3.33-1.31,3.64-4.47,5.09-7.18,2.34-4.35,3.95-8.84,2.86-14.02-3.22.28-3.94,5.48-7.35,6.3,2.76-4.32,4.04-10.11,4.78-15.19.14-.99-1.2-1.66-2.12-.93-.35-2.52,5-6.74,7.55-7.96s5.02-.97,6.93,1.97c.79,1.21,3.32,3.47,2.89,5.22l-5.59,12.33Z"/>
    <path class="cls-8" d="M320.33,666.35c-.13-.37-.38-1.3.55-1.7,2.23.32,1.22-2.43-.1-.83l-17.21,9.07c-.91.48-2.17.81-2.6.25-1.62-2.11-.64-6.24-2.5-6.28.09-.91-.27-3.49,1.18-3.55l24.92-1.04c1.38-1.02,2.96-2.89,4.79-3.14l-9.03,7.22Z"/>
    <path class="cls-6" d="M331.76,656.69l-2.4,2.44c-1.83.25-3.41,2.12-4.79,3.14l-24.92,1.04c-1.45.06-1.09,2.64-1.18,3.55-.1,1.04.52,2.42-.22,3.44-.86-1.01-.3-1.7-.18-2.06.14-.44-.56-1.14-1.14-.72l-.81-7.62c3.73-.52,7.94,1.23,11.47-1.07,7.98.37,16.39.58,24.19-2.15Z"/>
    <path class="cls-13" d="M190.89,143.04c.1,1.08-.36,1.71-.96,2.56l-20.9,1.61c-.87.07-3.22.07-3.58-1.06-.19-.61.67-1.24-.4-2.34,8.47-1.59,17.24-2.46,25.92-1.98.02.77-.07,1.17-.09,1.22Z"/>
    <path class="cls-8" d="M359.55,552.5l-.75-.11c-.87-.19-1.26-.25-1.27-1.29l-.09-25.68c0-1.03,1-2.32,1.37-2.85-.93-2.39-.66-4.72.98-6.03-.03,2.5-.38,5.12.36,7.87l.3,26.58c-.74.25-1.15,1.17-.91,1.5Z"/>
    <path class="cls-13" d="M227.04,143.29c-.75.75-.25,1.87-.96,3.06-6.14-.25-11.85-.64-17.58-.67-.14-1.17-.66-2.24-.45-3.62,6.23.6,12.93-.55,18.98,1.23Z"/>
    <path class="cls-10" d="M208.05,142.06c-.21,1.39.31,2.46.45,3.62l-18.57-.08c.6-.85,1.06-1.48.96-2.56,5.65-1.6,11.4-1.54,17.17-.98ZM201.24,142.83c-1.59-.8-2.39-.58-3.29-.12.99.8,2.44.7,3.29.12Z"/>
    <path class="cls-13" d="M219.06,181.54c.23,1.13,1.22,2.35,2.06,2.62,1.07.34,2.85-.66,3.84-1.43,1.45.2,1.1-1.65-.3-1.03-1.35,1.14-3.4,1.48-4.15.17l10.78-1.44-9.06,5.03c-.57,7.33,8.11-.81,20.9-1.18-.03-1.78-.9-2.66-1.9-4.48,5.31.09,10.18.39,14.97,1.72-1.08-.87-2.49.34-1.42,1.18,15.51,2.75,3.24,15.91,9.75,32.41-2.58,3.69-7.89,5.47-11.82,7.62l-6.27,22.86c6.5-.9,12.56-1.98,18.25-4.34.91,0,1.17.83.75,1.37-4.11,5.35-9.6,7.89-15.89,9.98l-15.22,5.05-3.28-.72-19.37,2.02-7.03-.66c.96-2.25.37-4.87.12-7.3,4.39,0,7.66.74,11.64-.65-3.26-1.94-6.17-1.43-9.88-1.67-2.49-5.69-2.03-12.34,1.51-17.66l-3.66-4.05,2.07-15.12,5.57-1.58c4.2-1.19,9.11-3.87,9.29-9.06.05-1.51-2.07-2.7-3-3.14-1.13-.53-3.07.31-4.07.41-.87-.26-2.4-.82-3.41-1.36l-4.2-2.23-1.9-.19.64-9.16,10.79-.91c-1.52-3.1-4.73-3.31-7.7-3.61l-5.65-.58c-.79.1-2.42,1.7-3.31-.29,6.89-1.36,13.74-1.24,19.57,1.41ZM243.01,198.4c-3.09-1.37-6.6.89-8.4,2.84-2.97,3.22-3.84,6.81-2.28,10.51,1.63,3.66,5.02,5.58,8.35,3.72,7.6.4,13.07-5.71,13.51-13.61.06-1.07-.1-2.09-.59-2.75-.63-.86-1.44-1.34-2.59-1.23-.68.06-1.43-.12-2.11-.26-1.47-1.28-5.09-1.37-5.89.79ZM256.48,216.67c.98-1,.44-2.72-.53-3.78-.56-.61-1.96-1.66-2.69-1.16-1.37,2.14-2.06,3.96-3.02,6.62,2.24,1,4.33.28,6.24-1.68Z"/>
    <path class="cls-6" d="M179.71,379.66c-.36,1.15.42,2.65,1.98,2.89l8.25,1.28-3.26,11.79c-1.28.01-4.34.71-4.47,2.07l2.51,18.98-3.93,29.31c-.15,1.11-.95,2.73.12,3.38,4.55,2.75,3.11-10.14,7.71-15.69,1.13,4.87-.75,8.95-.84,13.74,1.76.84,4.32.6,5.8,2.84-5.12.33-10.58,0-13.28,4.23-3.48-.62-6,2.2-8.3,4.52l-8.31,8.39-7.37,4.27c-2.63,1.52-4.75,3.23-4.23,6.39-4.52,3.18-6.74,8.71-8.87,13.6-1.43.11-1.59-1.69.03-1.97-1.12-1.26-.03-1.96-.19-2.46-.19-.57-1.72-.85-2.63-1.05-2.7-.6-5.49,2.95-4.85,6.37.73,3.93.85,9.36,3.21,12.22,2.71,3.28.62,6.79.39,10.3-1.05,16.32-.97,32.9-.1,49.77.57,11.25.84,21.79.28,33.02-.31,6.2.05,12.16,1.03,17.82,1.56.14,2.38.13,3.27-.08.65-.16.66-1.32,1.43-2.02-.36,3.19.06,6.35-.94,9.51l-.23,3.62c-.37,5.91-1.88,11.47-1.49,16.94l-2.27,9.25c.33,2.48.51,4.71.38,7.04l-.92-2.88-7.67-1.89c-.69-.23-1.32-.25-1.38.62-.87-.16-1.66-.7-2.44-1.11-.15-.18-.36-.27-.56.03-.47-1.43-1.44-2.1-2.87-2.47.75-.66,1.64-.36,2.02-.4.33-.04.66-.41.45-.8,1.36.16,3.58.31,4.83.11.78-.13,2.91,1.36,3.07-.49l1.49-16.89c1.72-.53,5.48-1.64,4.61-4.41-.55-1.76-4.87-3.33-4.92-5.68l-.63-26.63-1.44-27.71-1.49-16.57c-1.01-11.27-2.21-21.95-4.79-33.01l-5.29-15.46c-3.5-10.23-9.15-22.45-17.86-27.76-.77-1.34-2.1-2.91-3.23-3.58-4.32-2.58-6.46-7.58-8.16-12.11,2.5-.34,2.83-2.76,2.73-4.77.89,1.56,1.49,3.52,1.33,5.7l4.29,3.26c-1.27.64-1.46.86-1.49,1.86-.03,1.14,1.06,1.3,1.53,1.83,12.72,14.44,18.13,12.74,18.94,13.4.23.19.68.11.88,0,1.47,3.56,13.93,1.94,17.44-.58.33.92,0,1.19-.3,2.06,4.72-1.73,11.18-3.71,12.6-8.47,1.36-4.55,3.55-8.05,5.49-11.94,3.47-6.93,5.02-14.44,6.98-22l5.44-20.97c1.36-5.26,2.6-9.73,3.58-15.02.6-3.24,3.09-7.15-.33-9.77l4.57-14.05c.43-1.32,1.56-2.02,2.64-1.72Z"/>
    <path class="cls-9" d="M205.36,185.52l-.64,9.16c-2.48,1.58-5.38,3.68-5.07,7.26.22,2.54,2.69,3.61,4.32,4.86-1.12-.18-2.2.24-1.04,1.18,2.77.99,5.29.12,7.52-.17-.55.36-1,.61-1.08,1.13-.08.56.98,2.09,1.18,1.64.15-.34.72-.91,1.48-.32l-5.57,1.58-2.07,15.12,3.66,4.05c-3.53,5.32-4,11.97-1.51,17.66,3.7.23,6.61-.28,9.88,1.67-3.99,1.39-7.25.66-11.64.65.25,2.43.83,5.05-.12,7.3l-3.66.19c-7.84.4-29.47-1.28-35.94-3.49l-1.17.04c-.28,0-.57-.37-.42-.81,1.77.56,2.05-.64,1.71-1.98-.21-.85-.26-1.71-1.04-2.93,9.65-2.92,20.1,4.26,22.12.21l-22.9-4.36c-.46-13.03-2.95-25.51-5.67-38.36-1.03-4.88-1.32-9.87,1.63-13.95,2.41-3.34,6.37-5.94,11.4-6.45,6.47-.66,13.57-.6,20.04,1.22,2.69.76,4.17,2.02,7.15.25,2.19-1.3,5.11-2.14,7.47-2.34ZM172.2,216.99c.09-.79.72-.61.94-.66-.03.32-.11.95.01,1.23,1.23,2.76,14.94,1.89,17.14-7.54.44-1.9-1.91-4.97-3.17-5.07-1.19,3.57-2.49,5.74-5.06,7.04-2.83-1.95-6.94-4.77-7.56-8.36s2.96-5.4,5.88-6.73c-2.23-1.08-4.61-.51-6.68-.16-3.74-1.87-9.56-1.13-11.39,3.32-3.04,7.39,2.79,15.78,9.88,16.92Z"/>
    <path class="cls-7" d="M204.1,381.99c1.39-.65,2.6-.46,3.83-1.25,2.89-1.84,6.12-3.9,5.48-8.34-.53-3.66-2.02-8.64-4.69-11.24-3.23-1.27-7.59-.46-10.63-.71l-1.67-4.64c2.76-2.32,6.11-.72,7.37-3.3,5.1.23,10.28-1.55,15.95-.81-.04-1-.85-1.6-1.51-1.63l-16.21-.87c1.11-2,5.84.1,9.29-1.21-1.99-4.18-2.23-7.65-.55-10.93.38.1.75.12.87-.41,7.5-.42,12.85-7.43,11.38-14.91l-2.86-14.54c-.72-3.66,3.2-8.6,2.26-11.84.46-.29.7-.6.81-1.81l2.97,2.84c6.2.75,12.03-1.19,15.99-5.15-.22.65-.68,1.58-.21,1.58l2.81.03c-.11.56-.17,1.37.11,1.9.24.45,1.01.68,1.67.64-2.24,3.84,2.95,1.2,7.16-7.15.45,7.36.94,14.66.26,21.39-6.57,18.07-13.92,35.2-18.3,54.01.99,4.7-1.05,8.59-5.22,10.76-7.15,6.38-17.09,8.16-26.35,7.6Z"/>
    <path class="cls-9" d="M120.29,332.09c-.91,5.34.54,10.68.98,16.28l1.69,21.5c-5.33-1.87-8.26-10.26-9.29-7.33-.78,2.2,4.86,10.17,3.41,22.91-.95,8.36-5.11,14.76-13.22,17.52.75,2.52,1.47,4.18,1.64,6.42l-3.14-.49c.16-.61-.02-2.37-.71-2.42-7.69-.49-14.37.62-21.52,4.65.52-22.32,7.42-41.63,21.3-58.69,5.89-7.23,11.07-14.17,16.04-21.92.66-1.04,1.47-1.68,1.15-3.13,1.38,1.52,2.03,2.6,1.67,4.7Z"/>
    <path class="cls-13" d="M170.16,398.82c.73,4.27-2.11,8.47-6.96,10.09l5.04,2.3c.1,2.74-1.99,4.48-4.43,5.18.61,1.38,1.39,1.02,1.71,1.16.56.25.85,1.63.45,2.45-1.6,3.31-4.54,4.45-8.81,4.54.68,2.11,2.44,2.15,4.58,3.5-1.82,11.31-3.96,22.35-8.34,32.61l-7.05,13.24c-1.53,2.88-4.91,5.9-7.32,7.63-3.51,2.53-15.97,4.14-17.44.58l2.68-1.54c3.99-2.29,9.04-4.2,11.45-8.74,7.33-13.8,11.42-29.05,15.28-44.57-3.36-2.31-6.93-2.28-9.79-3.53-4.24-1.85-8.71-4.44-11.77-9.08,5.02,2.65,10.02,4.78,15.38,6.33,2.77.8,5.72,2.23,8.02-1.29,2.57-3.93,3.63-9.23,2.38-13.99l-1.36-1.36c-.21-.21.47-.74.66-.94,1.16.17,1.94.24,2.85-.47.74-.57,1.36-2.76.58-2.96-8.79-2.24-21.04-6.1-24.33-12.94,5.38,2.73,10.09,5.54,15.46,7.34,2.4.8,5.52,3.72,8.8,2.98,5.31-3.46,8.44-11.17,7.03-17.66l-5.73-26.38c-.45-2.09-.39-4.3-1.33-5.86-.7-10.77-.92-22.2.21-32.83,1.82-.07,1.33-2.42,2.22-1.8-.45,1.99.06,4.2.32,6.47l4.15,35.43c.79,6.76,4.22,12.98,6.66,19.39,2.86,7.5-.68,21.53-8.56,24.99,2.86.74,5.01.5,7.32-.31Z"/>
    <path class="cls-9" d="M82.77,559.93c-.36-.19-1.49-.25-1.76.15-.31.44-.52,1.56-.55,2.37l-1.4,33c-.42,9.95-2.02,19.3-1.34,29.37,2.03-1.51,1.41-3.77,1.56-5.43,1.59,2.99-.23,4.76-1.21,6.88-1.16,2.5-1.34,14.72.32,15.56.68.35,1.29.83,2.26.59,1.35-.34,3.46.42,4.63,1.3.16.51,1.23,1.33.84,2.45-.47,1.37-2.16,1.37-3.16.45-.75-.69-.77-1.64-1.03-2.77-.83.91-2-.64-1.73-.24-.5.17-.74.75-.48,1.24.91-1.38,2.19.35.9.66,2.29,8.06,8.42,16.53,15.13,14.64.02-.61,1.15-.6,1.15.09l6.96.34c-.05,1.11-.44,2.06-1.1,2.64-.83.73-1.85.47-2.89.77-9.39,2.66-18.56,1.73-27.98.44-3.09-.42-5.96-.68-8.66-1.76,2.6.06,1.63-2.88,5.55-4.27-.89-2.15-3.6-2.35-3.45-4.01,3.92-42.47,8.06-83.57,14.09-125.63,2.32,4.78,1.89,9.6,2.75,14.39,1.05,5.87.74,11.35.58,16.79Z"/>
    <path class="cls-13" d="M120.81,410.5c-13.46,1.76-26.12,6.78-37.81,14.39-1.5.98-2.51,2.34-2.38,3.91.22,2.61-9.5,8.17-10.38,25.04-.16,3.15.6,6.14-.79,9.1-3.87-14.76-.05-29.15,10.23-39.68,2.15-2.21,3.91-4.1,6.66-5.61l15.99-8.76,3.14.49c-.17-2.24-.89-3.91-1.64-6.42,8.12-2.76,12.27-9.16,13.22-17.52,1.45-12.74-4.18-20.71-3.41-22.91,1.03-2.92,3.96,5.47,9.29,7.33l-1.69-21.5c-.44-5.6-1.89-10.94-.98-16.28l1.25-1.2,1.05.09c-1.12,3.6.35,7.59.83,11.53,1.35,11.06,3.16,21.83,6.92,32.43.7,1.98-.62,3.1-.92,4.65-1.91,9.81-3.59,19.5-7.33,28.93-.29.72-1.22,1.36-1.28,1.97Z"/>
    <path class="cls-13" d="M86.05,470.43c-1.65,5.42,8.54,11.2,12.29,20.35l7.71,18.86c7.15,17.48,8.26,37.25,9.83,56.72l2.15,26.66,1.15,51.46c.04,1.99-.35,3.56.8,4.86-1.18-1.06-2.44-1.43-4.03-1.67-.28-.66-1.16-1.33-2.51-1.73.98-3.33,1.36-6.67.87-10.27-2.65-.52-5.14-.72-6.49-3.17l6.51.96-.54-30.79-1.48-33.94c-1.11-25.51-4.35-50.43-15.41-73.23-2.48-5.12-4.84-9.82-8.15-14.41-6.65-9.22-11.53-21.59-10.26-32.14l1.4,10.8,1.37-.16-1.55-11.45c-.09-.7.15-1.23-.37-1.61-.37-.28-1.06.01-1.19.39-.1.31-.07.76,0,1.25-.94-.06-.87-.71-.88-1.24-.03-1.13.48-1.26,1.27-1.26.48,0,1.58.23,1.78,1.26l.74,3.94c.22,5.42.96,10.31,2.73,15.83.57,1.79.26,3.1,2.26,3.71Z"/>
    <path class="cls-9" d="M121.59,482.12c-.2.12-.66.19-.88,0-.19-1.14-1.52-2.02-2.5-3.04l-6.2-7.11c1.58-1.75,4.1-.82,6.3-1.4l9.13-2.43c-.48-4.62,1.49-8.5,2.85-12.79l4.68-14.69c1.83-5.75,3.27-11.46,6.25-16.91,2.87,1.25,6.43,1.21,9.79,3.53-3.86,15.51-7.96,30.77-15.28,44.57-2.41,4.54-7.46,6.45-11.45,8.74l-2.68,1.54Z"/>
    <path class="cls-11" d="M165.89,321.76c1.71,18.63,7.29,36.32,15.22,53.22-1.56,1.06-1.66,2.89-1.4,4.68-1.08-.3-2.21.39-2.64,1.72l-4.57,14.05c-.88,1.09-2.05,2.2-2.34,3.4-2.3.8-4.46,1.05-7.32.31,7.88-3.47,11.42-17.5,8.56-24.99-2.44-6.41-5.87-12.63-6.66-19.39l-4.15-35.43c-.27-2.27-.77-4.48-.32-6.47,3.08,2.18,5.28,5.27,5.61,8.91Z"/>
    <path class="cls-8" d="M121.64,289.61c-4.16,6.37-7.48,13.09-12.83,19.24,1.28,1.24,2.23.88,3.19,1.03l-1.36,1.53c-.35.39-.55,1.44.48,2.08-1.27.11-2.28.63-2.41,1.59-2.94.37-3.9.64-6.41,2.86-4.11,3.62-9.86,6.37-12.15,11.91-2.15,5.19-2.76,10.77-6.4,15.38l-6.4,2.61c-2.5-2.18-5.21-3.27-6.69-5.7,2.72.19,4.96-1.18,6.49-3.62l2.81-4.48c5.01-7.97,10.01-23.48,16.94-18.88.46.3,2.03.5,2.43.12.38-.36.16-1.58.48-2.31,2.92-6.72,7.93-11.79,11.97-17.75l6.51-9.61c.6,0,.99.19,1.08.47.11.36-.13,1.44-.17,1.75,1,.74,1.9,1.04,2.42,1.77Z"/>
    <path class="cls-9" d="M149.09,394.4c-.51-5.78,5.67-5.76,4.63-10.66-2.07-9.71-2.15-19.38.99-28.81l4.33-1.51c-1.83-2.24-1.06-4.08-1.18-5.95.93,1.56.87,3.77,1.33,5.86l5.73,26.38c1.41,6.49-1.72,14.2-7.03,17.66-3.27.75-6.39-2.17-8.8-2.98Z"/>
    <path class="cls-13" d="M124.23,276.53l-5.92,9.08-6.51,9.61c-4.04,5.96-9.05,11.03-11.97,17.75-.32.73-.11,1.95-.48,2.31-.4.38-1.97.18-2.43-.12-6.93-4.61-11.93,10.9-16.94,18.88l-2.81,4.48c-1.53,2.44-3.77,3.81-6.49,3.62-2.05-.25-3.87-1.79-4.53-3.89,3.82.73,6.8-2.09,8.66-5.32,5.38-9.35,11.23-17.77,18.09-26.38,5.45.02,8.08-4.63,8.74-9.31,2.51-.56,5.74-1.65,7.3-4.26,2.48-4.13,5.93-7.41,8.55-11.4l5.42-8.25c1.03,1.09.97,2.24,1.34,3.19Z"/>
    <path class="cls-9" d="M97.95,474.75c.4-.35,1.17.1,1.08.41-.1.36.02,1.24.81,1.33.56.07,1.08-.63,1.2-.82.12-.18.66.32.5.72-.15.33.15,1.08-1,2.09,4.07,2.51,6.96,7.53,9.05,11.29-1.66.06-1.12,1.08-1.19,1.68-.14,1.21-.06,1.58.4,2.65-.9-.93-2.34-1.67-3.24-.47-2.3,3.1,4.55,7.96,2.81,12.9-.55.72-2.94,1.13-2.33,3.13l-7.71-18.86c-3.74-9.15-13.93-14.93-12.29-20.35,3.98.98,7.1,5.56,12.18,6.74.18-1.13-.16-1.77-.28-2.43Z"/>
    <path class="cls-11" d="M120.81,410.5c-.38,4.14-2.87,7.62-4.9,11.11-4.77-.72-11.17-.6-15.03,1.52-.31.17-1.68-.29-1.47,0,.07.09-4.44,4.43-10.86,3.87l-7.94,1.81c-.13-1.57.88-2.93,2.38-3.91,11.68-7.61,24.35-12.63,37.81-14.39Z"/>
    <path class="cls-8" d="M45.48,566.94l-.55-7.83c-1.15,2.38-.71,4.96-.98,7.27-.97.43-1.29.8-2.51.84l-.55,7.33c-1.01-.58-.65-1.54-.56-1.96.07-.3-.41-.69-.83-.48l3.55-45.6c.35-4.55.27-8.89,2.77-12.53,1.07-.23,2.32,1.17,2.79,2.05.7,1.29.71,2.58-.77,3.72l-2.35,47.2Z"/>
    <path class="cls-10" d="M183.5,300.16c.6,4.35-10.29,4.02-16.19.07-1.36-.91-2.62-.51-4.41-.35-2.31-2.21-4.8-3.73-5.8-7.3,4.17,2.82,7.95.26,13.36,2.15-.94,1.27.24,1.55.67,1.36,2.24-.98,10.68-.86,10.49-8.19-.12-4.49-6.26-5.78-10.14-4.14-.41-2,1.47-1.65,1.75-2.33.34-.84.86-1.46.43-2.4,2.69-.25,7.13-.83,7.89,2.7-.56-.33-1.28-.12-1.55.45s.03,1.26.52,2.14c3.89.86,7.38,3.48,8.69,7.37-2.97,5.69-11.26,3.91-9.5,8.8,1.18-.43,2.5-.27,3.81-.34ZM169.59,295.28c-1.86-.59-3.05-.2-4.12.75,1.41,1.71,3.77,1.2,4.12-.75Z"/>
    <path class="cls-9" d="M207.93,380.74c-1.29-.17-2.97.47-4.06-.47l-1.5-1.28c-.53-.45-1.49.5-2.06.68,2.31-1.82,2.14-6.82.01-9.6-2.4-3.16-3.97-5.76-2.23-9.62,3.05.25,7.41-.56,10.63.71,2.67,2.6,4.15,7.57,4.69,11.24.65,4.44-2.59,6.51-5.48,8.34Z"/>
    <path class="cls-3" d="M115.92,421.61c-.88,1.52-1.52,3.6-3.19,4.24-3.53-1.38-6.45-.44-9.34,1.64-9.89,7.12-14.32,21.87-10.02,33.34,1.7,4.53,3.84,9.53,8.16,12.11.29.86.81,1.31.89,2.16.07.71-.23,1.06-.87,1.27.16-.4-.38-.9-.5-.72-.12.19-.64.89-1.2.82-.79-.09-.91-.97-.81-1.33.08-.31-.69-.76-1.08-.41l-4.45-6.45c-2.96-6.69-5.4-14.11-4.28-21.03,1.5-9.27,5.53-17.62,11.67-24.13,3.85-2.13,10.25-2.24,15.03-1.52Z"/>
    <path class="cls-11" d="M220.15,307.19l2.86,14.54c-.67.08-1.27-.52-1.44-1.54l-2.05-12.23-.6.61,1.55,18.26c-1.64,4.68-7.5,7.14-8.84,9.8-.13.53-.49.51-.87.41-5.13.82-10.09-.58-14.48-3.2l-4.36-2.6c-1.15-.69-.15-2.42.79-2.26l1.66.29c6.44,1.79,10.41,6.97,12.57,2.77l2.43-.49c2.95.22,6.47.05,8.56-2.77,1.34-1.81.82-4.42-.1-6.14s-3.05-1.98-4.65-3.1c-2.58-1.81-.96-6.07-.55-8.2.06-.3.51-1.32.25-1.56-2.04-1.85,1.29-2.9,7.28-2.62Z"/>
    <path class="cls-10" d="M29.17,569.7l-.24-12.13.63-25.97.57-31.11c.1-5.58.03-11.05,3.81-15.61l-2.21,58.72c-.34,9.09-1.59,17.68-.96,26.76-.33.28-1.6-.21-1.61-.67Z"/>
    <path class="cls-9" d="M204.11,263.09c1.17.28,3.42,2.75,3.43,3.99l.09,18.94c0,1.41-.81,3.02-1.29,4.98-2.95-.77-4.6.17-5.91,2.26l.26-6.02c.27-6.21,1.42-13.12-.45-19.24-1.28-4.2-6.64-4.34-9.69-5.95,1.27-.97,3.29-.33,3.47-1.38l10.08,2.43Z"/>
    <path class="cls-7" d="M184.66,374.82c-.48,1.15-1.65,2.14-2.77,2.47l-.78-2.31c-7.92-16.9-13.51-34.59-15.22-53.22,4.24,7.17,5.72,15.42,8.57,23.65l10.19,29.41Z"/>
    <path class="cls-6" d="M123.25,295.26c.72,3.63-.06,7.28-.24,11.27l-.68,15.23c-.15,3.43,1.21,6.17.27,9.22l-1.05-.09c-1.21-4.31-2.78-8.54-2.48-13.08,2.4-1.07,1.48-5.39.04-6.23,1.17-.61,1.53-1.55,1.69-2.27.23-1.02-.07-2.16-.94-2.35-2.39-.54-4.05.46-4.97,2-.55.92-2.14.7-2.87.94-.96-.15-1.91.2-3.19-1.03,5.35-6.15,8.67-12.87,12.83-19.24.44.31,1.54-.06,2.25,1.12-.97,1.21-.92,3.12-.64,4.52Z"/>
    <path class="cls-13" d="M52.15,476.21c-2.27-.14-3.35-3.03-3.05-5.54l2.36-19.46,1.86-19.13c.53-5.44,1.48-10.53,1.75-16.22,2.81,8.37.74,16.96.85,25.83.05,4.42,1.27,8.63-1.32,12.32,3.1,2.66-.74,5.24-1.53,6.85l-.92,15.35Z"/>
    <path class="cls-9" d="M154.53,403.42c-.19.2-.86.73-.66.94l1.36,1.36c1.25,4.75.19,10.06-2.38,13.99-2.3,3.52-5.25,2.09-8.02,1.29-.27-2.44-1.45-4.61-3.53-6.72,3.94-3.52,6.3-7.45,5.03-12.94,3.33,1.13,5.53,1.71,8.19,2.09Z"/>
    <path class="cls-9" d="M206.18,307.37c1.25,1.5,1.83,3.4,1.86,5.55l.14,10.96-1.97,4.59c-1.55.35-3.33,1.9-3.37,3.61.85.66,2.05,1.17,2.46.34.43-.33,1.07-.25,1.62-.36-2.16,4.21-6.12-.97-12.57-2.77l7.01-.95c1.25-9.87-2.13-19.04.02-26.72l4.79,5.74Z"/>
    <path class="cls-3" d="M149.07,301.66c-1.5,3.38-1.1,6.93-1.09,10.34l.12,29.95c.02,4.25,2.55,8.18,2.35,12.11-3.12,3.08-6.12-10.95-5.92-18.86l.79-32.9c.03-1.43.91-2.44,2.27-2.04.57.17,1.13.88,1.48,1.41Z"/>
    <path class="cls-3" d="M82.77,559.93l-.82,28.25c-.13,4.34-.54,8.29-.93,12.49l-1.74,18.72c-.15,1.66.47,3.92-1.56,5.43-.68-10.07.92-19.43,1.34-29.37l1.4-33c.03-.81.24-1.92.55-2.37.28-.39,1.4-.34,1.76-.15Z"/>
    <path class="cls-11" d="M112.73,425.86c-.33.67-.51,1.87-1.05,2.61-.39.53-2.61-.18-3.14.19-6.34,4.38-11.47,10.91-12.86,18.69l.42,8.72c.1,2.01-.23,4.44-2.73,4.77-4.3-11.47.13-26.22,10.02-33.34,2.89-2.08,5.81-3.02,9.34-1.64ZM110.29,426.21l-4.36.61c.62,1.99,2.22,1.46,2.76.85.31-.34,1.51.13,1.6-1.46Z"/>
    <path class="cls-8" d="M185.8,280.22l6.47,5.29c.99,3.34,1.43,6.95-.78,10.01-1.63,2.25-4.85,4.47-7.99,4.65-1.31.07-2.63-.08-3.81.34-1.76-4.89,6.53-3.11,9.5-8.8-1.31-3.88-4.8-6.51-8.69-7.37-.49-.88-.79-1.57-.52-2.14s.99-.78,1.55-.45c-.76-3.53-5.19-2.95-7.89-2.7-.35-.77.25-1.51.4-2.28,3.82-.35,8.68.88,11.74,3.45Z"/>
    <path class="cls-3" d="M189.55,278.17c-1.6.27-2.49.94-3.75,2.04-3.06-2.57-7.92-3.8-11.74-3.45-.58.05-1.84.83-2.53.68-5.86-1.26-11.47-.39-16.11,3.13-.63.48-1.94-1.3-1.73-1.89s-.1-2.21.92-2.93c7.18-5.1,16.51-4.89,24.87-2.16,3.84,1.26,7.14,2.3,10.07,4.58Z"/>
    <path class="cls-5" d="M151.26,314.51c.51,11.42-.14,22.16.95,34.66.09,1.04,1.02,2.24.34,3.24-.45.65-1.37,1.29-2.1,1.64.2-3.92-2.33-7.86-2.35-12.11l-.12-29.95c.98.32,1.13.98.49,2.11l2.79.4Z"/>
    <path class="cls-9" d="M210.76,337.05c-1.68,3.28-1.45,6.75.55,10.93-3.44,1.31-8.18-.79-9.29,1.21-1.78-.1-3.86-.38-5.51.43-.35-.33-.51-.65-.55-1.02,1.2.06,2.26-.58,2.95-1.4s1.31-2.28.8-3.73l-3.43-9.61c4.39,2.62,9.35,4.02,14.48,3.2Z"/>
    <path class="cls-11" d="M122.62,180.71c1.77,1.72,2.98,2.68,4.06,4.95l4.76,10.02c.94,1.97-2.67,3.33-3.92,4.1-1,.06-1.68-.26-1.87-1.12-4-4.75-9.05-12.97-7.33-15.62.84-1.29,2.63-2.09,4.31-2.33Z"/>
    <path class="cls-4" d="M139.9,322.09l-.36,8.11.48,16.68c.04,1.41-3.8.88-3.81-.85l-.12-33.31c1.45.87.85,2.78,1.29,3.64,1.67,1.32,1.75,4.03,2.51,5.73Z"/>
    <path class="cls-10" d="M209.65,288.27l-.3,2.98c-.6-.05-.61-.81-1.45-1.62l-.28,17.01c0,.5-1.21.83-1.45.74l-4.79-5.74c-2.04-2.45-1.08-5.67-.96-8.37,1.31-2.09,2.96-3.03,5.91-2.26.48-1.96,1.3-3.57,1.29-4.98.9.42,1.62,1.44,2.02,2.25Z"/>
    <path class="cls-5" d="M200.97,258.47c2.09,5.92,6.89,1.07,11,2.7l-1.75,1.11c-2.19-.09-4.33-.17-6.11.81l-10.08-2.43c-3.42-.82-6.86-.13-10.5-.73l-19.24-3.15c.03-.76.56-1.21.75-1.81,6.47,2.21,28.1,3.89,35.94,3.49Z"/>
    <path class="cls-11" d="M118.21,479.09c.98,1.02,2.31,1.9,2.5,3.04-.81-.66-6.22,1.03-18.94-13.4-.47-.54-1.57-.7-1.53-1.83.03-1,.22-1.22,1.49-1.86,6.17,3.73,11.38,8.78,16.49,14.06Z"/>
    <path class="cls-7" d="M119.06,317.8c-.3,4.54,1.27,8.77,2.48,13.08l-1.25,1.2c.36-2.1-.29-3.18-1.67-4.7l-8.1-8.96c-.93-1.03-2-1.76-1.79-3.33,2.32-.29,5.61-1,8.26.86l1.74.26c.64.1.38.97.34,1.6Z"/>
    <path class="cls-13" d="M122.62,180.71c-1.68.25-3.47,1.04-4.31,2.33-1.73,2.65,3.33,10.86,7.33,15.62.19.86.87,1.17,1.87,1.12-4.57,2.8-13.37-9.12-12.66-17.8.28-3.4,6.09-2.9,7.77-1.27Z"/>
    <path class="cls-11" d="M50.75,482.16l-1.12,24.82c-3.15-.65-3.5-4.36-3.16-7.56.64-5.98.93-11.76,2.49-17.57l1.78.32Z"/>
    <path class="cls-9" d="M153.28,202.52c-3.42,1.08-8.78-3.38-9.75-6.85-.47-1.69.16-2.77.94-3.43.95-.8,1.67-.69,3.25-.22,3.8,1.15,7.75,6.52,5.56,10.5Z"/>
    <path class="cls-4" d="M140.05,303.54c-.76-.15-1.84.9-1.51,1.76.24.63,1.1,1.3,1.71,1.47l.5,7.84-.85,7.47c-.76-1.7-.83-4.41-2.51-5.73-.44-.86.15-2.76-1.29-3.64l.38-14.65c2.72.96,3.44,3.42,3.57,5.47Z"/>
    <path class="cls-8" d="M111.07,646.93l4.87.75c1.59.25,2.86.62,4.03,1.67,2.15,1.92,4.62,1.38,7.18,1.67.2.39-.12.76-.45.8-.37.04-1.27-.26-2.02.4,1.43.36,2.39,1.04,2.87,2.47-5.43,0-10.08-3.84-17.21-2.11l1.38-2c.26-.38-1.79-1.14-1.85-1.03l-1.08,1.62c-.64-1.49.49-2.85.55-4.25h1.71Z"/>
    <path class="cls-12" d="M126.77,279c-.62,4.26-.28,9.06-3.53,16.26-.28-1.41-.33-3.32.64-4.52-.7-1.18-1.81-.82-2.25-1.12-.52-.74-1.43-1.04-2.42-1.77.03-.31.28-1.39.17-1.75-.09-.28-.48-.47-1.08-.47l5.92-9.08c.42,1.11,1.33,2.45,2.54,2.47Z"/>
    <path class="cls-12" d="M151.26,314.51l-2.79-.4c.65-1.13.49-1.79-.49-2.11-.01-3.4-.42-6.95,1.09-10.34,4.35,1.48,7.65,11.88,5.37,13.12-.77.42-1.95-.1-3.18-.27Z"/>
    <path class="cls-10" d="M200.31,379.67c.57-.18,1.53-1.13,2.06-.68l1.5,1.28c1.09.93,2.78.3,4.06.47-1.23.78-2.44.59-3.83,1.25-3.19,1.12-6.74,1.26-10.1,1.05l-4.66-.29c-3.49-.22-6.3-2.02-7.45-5.46,1.12-.33,2.29-1.32,2.77-2.47.78,2.26,1.66,5.57,4.35,5.92,4.26.56,7.79.04,11.3-1.07Z"/>
    <path class="cls-4" d="M202.02,349.2l16.21.87c.66.04,1.47.63,1.51,1.63-5.67-.74-10.85,1.04-15.95.81l-9.55-.42c-.1-.17-.31-.48-.9-.9l3.17-1.56c1.64-.81,3.72-.52,5.51-.43Z"/>
    <path class="cls-10" d="M158.57,253.38c-.36,0-1.19,1.13-1.25.73-.09-.59-1.42-1.81-2.06-.1,2.26,1.22,5.2,1.81,8.23,1.57-1.51-.73-3.28-.84-4.03-2.23,1.31-.03,2.45,1.22,3.98.84-.15.45.14.82.42.81l1.17-.04c-.18.6-.72,1.05-.75,1.81-2.56-.42-5.62-.69-8.23-1.62l-20.18-7.19c-3.01-1.07-6.5-1.91-8.08-4.92,9.61,3.61,17.8,7.67,27.66,9.59.92.18,2.89-.82,3.13.73Z"/>
    <path class="cls-11" d="M124.2,163.44c4.7,1.07,11.31,4.96,15.76,7.81,2.45,1.57,4.51,1.72,5.96,3.92-2.36.44-3.72,1.49-5.08,2.74-.07-.82-.36-2.45-.89-3.4-3.13-3.47-7.53-5.4-11.39-7.34-1.62-.81-3.22-2.13-5.16-2.16-1.04-.58-.28-1.25-.54-1.12-.46.22-.88-1.04-.16-1.29.39-.14.99.72,1.51.84Z"/>
    <path class="cls-12" d="M124.2,163.44c-.51-.12-1.12-.98-1.51-.84-.72.26-.3,1.52.16,1.29.26-.13-.5.54.54,1.12l-5.72-.08c-1.74-2.93-3.75-4.76-6.61-6.81,2.49-.97,7.28-2.59,8.84-.51l4.3,5.83Z"/>
    <path class="cls-9" d="M111.07,646.93h-1.71s-2.93-.11-2.93-.11l-.92-.28-16.31-3.7c-.41-.09-.91-.46-1.12-.75-.49-1.37-2.21-2.19-3.72-2.96,4.45-.98,7.69,1.91,11.56,2.68,4.14.82,8.36,1.33,12.05,3.46.8.46,3.36-.41,3.1,1.67Z"/>
    <path class="cls-6" d="M176.7,288.9c.35,2.09-1.55,3.3-2.66,3.65-1.8.57-3.17-.41-4.42-1.88-1.1-1.3-1.82-3.08-.99-4.28,1.07-1.54,2.36-1.91,4.46-1.33,1.57.43,3.26,1.76,3.61,3.84Z"/>
    <path class="cls-3" d="M129.17,324.73c-.86,7.72,3.19,15.82-1.18,17.02l.36-23.84c.04-2.5.9-4.68.33-7.72,3.96,1.74,1.55,4.99,1.27,7.5l-.78,7.04Z"/>
    <path class="cls-13" d="M126.77,279c-1.21-.02-2.12-1.36-2.54-2.47-.36-.96-.31-2.1-1.34-3.19,2.05-3.13,2.49-6.8,4.08-10.57,1.44.79,1.83,2.3,1.65,3.51l-1.85,12.72Z"/>
    <path class="cls-9" d="M140.84,177.91c-.57.52-1.44,1.82-2.25.77-3.19-4.14-6.54-7.04-10.73-9.24,2.15-.58,1.45-1.36.69-2.26,3.86,1.93,8.26,3.87,11.39,7.34.53.95.82,2.58.89,3.4Z"/>
    <path class="cls-3" d="M195.96,348.6c.04.37.2.69.55,1.02l-3.17,1.56c.59.42.8.73.9.9-8.08-.36-14.59.67-11.97-1.37l1.11-.86c4.11-2.01,8.42-1.47,12.57-1.25Z"/>
    <path class="cls-6" d="M88.08,642.09c.21.29.71.65,1.12.75.31-.33.9-.48,1.38-.23s.69.82.5,1.33c-.26.44-.84.68-1.71.92.14.36.79,1.15,1.23,1.29.59.18.29,1.09-.69,1.03l-4.63-3.46c-1.16-.87-3.27-1.63-4.63-1.3-.63-.92-.87-2.69-.05-3.05,2.3-1.01,4.68,1.79,7.47,2.71Z"/>
    <path class="cls-13" d="M189.55,278.17l3.12,2.43c1.01.79,1.66,1.46,1.46,2.98-.12.94-.78,1.34-1.85,1.92l-6.47-5.29c1.26-1.1,2.15-1.77,3.75-2.04Z"/>
    <path class="cls-13" d="M198.93,181.04l-4.75,4.33c-4-3.16-7.63-4.78-12.32-6.39,6.3-.77,11.48,4.77,17.08,2.06Z"/>
    <path class="cls-4" d="M78.49,448.97c-.47.02-.53-.52-.34-.77-.06-.49-.1-.94,0-1.25.13-.38.82-.67,1.19-.39.51.38.27.91.37,1.61l1.55,11.45-1.37.16-1.4-10.8Z"/>
    <path class="cls-10" d="M156.47,177.65c-.99-.12-1.31.72-.68.95.3.11.51.39.44.66l-8.31-3.87c.15-.37.38-.65.66-.87l7.88,3.14Z"/>
    <path class="cls-9" d="M277.69,157.7c-.75.06-1.04-.87.02-1.19-.68-1.15-1.8-.25-1.65.59.08.44-.27,1.3.35,2.04.27.32.98-.63,1.41-.34l-3.85,3.1,1.3-4.15c.36-1.16.34-1.94,1.25-2.49.55-.33,1.53.43,1.94,1.19.25.46.12,1.25-.79,1.25Z"/>
    <path class="cls-4" d="M156.23,179.26c.06-.27-.14-.55-.44-.66-.63-.23-.31-1.07.68-.95,1.96.78,4,1.4,5.54,2.61-.08.24-.45.67-.63.81-1.84-.2-3.51-1.06-5.15-1.82Z"/>
    <path class="cls-4" d="M220.51,181.87c.75,1.31,2.8.97,4.15-.17,1.4-.63,1.74,1.22.3,1.03-.99.77-2.78,1.78-3.84,1.43-.83-.27-1.82-1.49-2.06-2.62.49.22.95.29,1.45.33Z"/>
    <path class="cls-13" d="M158.57,253.38l.89-.02c.75,1.39,2.52,1.49,4.03,2.23-3.03.24-5.97-.35-8.23-1.57.64-1.7,1.97-.48,2.06.1.06.39.88-.72,1.25-.73Z"/>
    <path class="cls-9" d="M160.95,289.58c-2.74-.27-4.56-1.94-4.64-4.59,1.9,1.32,3.17,2.25,4.64,4.59Z"/>
    <path class="cls-9" d="M181.12,179.16c-1.73.42-3.47-.52-5.64-.98,1.7-.74,3.56-.37,5.29-.38.61.38.49,1.13.36,1.36Z"/>
    <path class="cls-10" d="M139.31,151.76c-1.81.64-3.33-.54-4.83-.89v-1.04c1.43-.23,2.74.61,3.99.93.38.33.82.87.84.99Z"/>
    <path class="cls-9" d="M41.66,465.9c-1.74-1.01-1.79-3.23-.94-4.87.48,1.56,1.35,2.53.94,4.87Z"/>
    <path class="cls-3" d="M277.69,157.7c-.02.45,0,.72.14,1.1-.43-.29-1.14.66-1.41.34-.62-.74-.27-1.6-.35-2.04-.15-.84.97-1.74,1.65-.59-1.06.32-.78,1.25-.02,1.19Z"/>
    <path class="cls-5" d="M140.25,306.77c-.61-.17-1.47-.84-1.71-1.47-.33-.86.75-1.9,1.51-1.76l.2,3.23Z"/>
    <path class="cls-1" d="M302.81,338.75c3.56,3.69,3.6,8.94,3.98,14.62,1.04-.44,4.28-1.43,4.95-.44,13.04,35.64,6.98,70.25,2.64,106.46l-1.86,15.5c-.07.6-1.06,1.57-1.5,1.48l-1.97-.41c-4.65-3.3-11.21-5.87-11.83-3.13-.29,1.29,7.03,10.22,9.32,20.46.54,2.4.97,4.89,2.3,6.78l.41,15.7c.32,12.3-7.26,26.47-7.52,40.1l2.43,34.1,1.91,25.56,1.44,14.93-.65,5.9c.66.23,2.23.04,2.68.86.64,1.18.3,2.05-.95,2.87l-3.2,2.13c-1.46-1.64-3.81-.31-5.49.26-1.35-.72-2.9-.13-4.46.22-8.38,1.87-16.16,2.59-24.24,2.59-4.86,0-9.89,1.86-14.67.4,2.38.25,3.43-.94,4.93-2.32,2.2-2.02.98-3.84.97-6.21l-.08-23.96-1.05-4.93.61-16.07c.22-5.74,1.12-11.47-1.35-16.78-1.08-2.31,1.06-4.01,2.59-5.91l2.16-7.3,6.06-12.65c-.47-1.28-.94-2.24-.96-3.31l2.06-2.81c4.62-6.29,10.69-11.31,14.07-18.91,6.84-15.38,3.83-33.32-7.1-45.71-2.08-2.36-5.54-3.13-6.68-5.72l8.21,4.89c5.42,3.23,10.14,8.36,12.86,14.42l3.42,14.19c.49,2.05.5,3.61-1.1,5.49.9.86,1.82.27,2.23-.18.78-.86,1.2-2.07,1.02-3.43l-1.98-14.94c-.9-6.81-9.34-11.87-11.49-18.13-3.85-3.41-9.41-4.22-14.06-4.82-.3-1.34-1.79-1.87-2.92-2.31,1.55-1.16,1.23-2.15,1.21-3.93l12.36,3.09,10.81,2.21c-.94-4.4-5.42-2.29-7.45-3.18-4.87-2.15-8.86-4.21-13.86-5.03,1.18-.77,1.53-2.05,1.99-3.42l17.96-53.68c.57-11.8,2.16-22.63,4.49-34.66-5.18,2.77-8.79,6.26-12.8,9.5-10.87,8.79-9.41,17.9-16.58,28.41-1.82-5.36,2.04-10.05,1.82-10.49-.28-.56-1.58-1.83-2.31-1.07l-13.91,14.27c-1.74,1.78-3.08,3.8-6.46,2.45l8.89-25.29c-.61-.36-2.14-.03-2.56,1.05l-3.36,8.68c-.42,1.09-4.37-.08-4.48-1.33-.16-1.8.62-3.81-.78-4.8l.82-4.11,2.22-5.8c2.02-.46,4.5-.89,5.98-2.79,2.82-3.62,6.94-5.42,10.25-8.3l14.21-12.34c3-2.61,4.55-6.57,8.45-8.51,1.74-.87,1.96-3.61,3.16-4.43l8-5.45c1.39-.94,4.11-.26,5.78-.62ZM288.01,532.52c-1.27,1.67-2.48,3.75-4.14,5.45-1.37,1.4-2.81,2.55-2.11,4.36-1.39.91-1.75,2.35-2.57,3.32-5.43,6.37-8.71,14.07-10.04,22.82l-.54,22.01c-.15,6.11-1.66,11.8-1.48,17.52l.98,31.8c.08,2.43,13.23,2.18,11.9-2.49-.99-3.5-3.49-6.52-4.26-10.28-3.49-16.98-6.59-38.91.71-53.87,1.35-2.77,5.52-3.04,8.06-3.8,1.07-3.41-1.82-6.96-2.46-10.09,2.33-8.27,6.7-15.38,10.77-22.57,1.68-2.97,1.6-6.11,1.73-8.97.12-2.55,2.35-4.98.5-8.49-2.68,3.19-3.45,7.18-5.4,11.11l-1.65,2.17Z"/>
    <path class="cls-9" d="M199.7,450.95c2.93.05,6.17.61,8.89-.17,1.18-.34,11.6,1.39,14.65,5.43-.66,2.7-2.1,6.58-3.94,7.86-3.05.64-5.65,2.47-5.79,6.12l-.34,8.61c-.09,2.38,1.88,4.01,3.63,5.03-.3.27-1.21.61-1.04,1.33-3.18,1.62-6.26,3.96-6.61,8.02-.25,2.82,1.06,4.91,3.36,5.62.03.61.2,1.48.88,1.7-.17.48-.67,1.15-.94,1.54-1.47.69-2.61,2.56-2.94,3.88-1.64,6.55,7.3,10.38,16.69,10.71l.03.79-4.05-.12c-3.42-.1-7.33-1.87-10.06-2.66-2.12,2.92-1.07,6.49,1.27,7.85-.82.42-1.07,1.05-.99,1.34l3.58,13.51,2.57,10.87c-2.7,5.25-5.93,9.93-10.08,14.21-4.71-.2-9.29-1.35-14.39-.33l8.11,4.08c1.31.66,2.19,1.1,3.31.34-.28.39-.67,1.53-2.09,1.32-1.44,3.66-5.66,4.37-8.62,5.84-5.83,2.9-11.09,5.18-17.48,5.79-1.21.12-1.93,1.67-3.39.29-5.42-5.13-6.55-16.05-8.82-25.35-2.43-9.94-3.45-19.48-3.02-29.13l1.2,1.06.98,4.75c2.72,7.27,6.74,13.78,11.94,19.77,1.99-1.91.13-3.09-.88-4.29-7.63-9.04-10.44-20.54-10.1-32.37l.36-12.39,3.13-11.73c1.64-6.15,3.89-12.14,6.22-18.52.54-1.48,1.56-2.21,2.34-3.31l4.85-2.26c.84-.39,2.21.31,2.72-.79.21-.45.72-1.04.57-1.69,3.93-3.35,7.53-7.45,9.69-12.63l4.62.08Z"/>
    <path class="cls-9" d="M272.04,461.47c-1.05-.17-2.85-.09-3.76-.59-1.58-.87-2.83-2.52-5.28-3.28-.81,1.33-.61,2.71-.68,3.87-.56.22-1.05.56-1.85.35-.55-.15-.61-1.15-.97-1.98-3.69-8.63-4.44-18.09-2.53-27.78-2.9-1.85-4.29-4.51-5.52-7.52-4.44,6.29-4.81,13.31-6.34,20.09-.38,1.7-.02,3.07.18,4.25l-2.12,10.55c-.39,1.93-1.41,3.03-2.33,4.18-2-3.74-1.7-7.34-1.26-11.51l2.37-22.91,4.19-17.44c-4.11,2.26-4.23,6.94-5.58,10.6l-2.47,6.7c-2.53-1.93-1.17-4.87-.9-7.43l2.35-22.32c.3-2.88,2.04-6.1,3.7-8.28.25-.13.49-.08.7.1,1.4.99.62,3,.78,4.8.11,1.25,4.06,2.42,4.48,1.33l3.36-8.68c.42-1.09,1.95-1.41,2.56-1.05l-8.89,25.29c3.38,1.35,4.72-.67,6.46-2.45l13.91-14.27c.74-.76,2.03.52,2.31,1.07.22.44-3.64,5.13-1.82,10.49,7.17-10.51,5.71-19.62,16.58-28.41,4.01-3.24,7.62-6.73,12.8-9.5-2.33,12.03-3.92,22.86-4.49,34.66l-17.96,53.68c-.46,1.38-.81,2.65-1.99,3.42Z"/>
    <path class="cls-6" d="M312.78,488.31c4.61,4.7,6.31,12.41,5.13,19.41l-4.06,24.15c-1.86,11.05-5.62,21.77-4.2,32.99l4.16,32.96,1.62,20.98c1.93,4.44-.69,9.05,1.41,13.51-3.43,8.4-10.69,16.84-20.69,20.07-2.18.7-4.56.39-6.45,1.95l-1.83-.19c-.47-.05-.44-1.26-.33-1.73.64-.04,13.65-6.14,17.89-10.19l3.2-2.13c1.25-.83,1.59-1.69.95-2.87-.45-.82-2.02-.64-2.68-.86l.65-5.9c1.22-1.39,2.23-3.91,2.75-5.85,3.43-1.81,4.67-5.57,3.34-9.86-2.45,1.68-5.36,2.22-7.53.78l-1.91-25.56-2.43-34.1c.26-13.63,7.85-27.8,7.52-40.1l-.41-15.7c-1.33-1.89-1.77-4.38-2.3-6.78,2.7-.41,3.55-5.04,6.22-4.97ZM311.69,632.99c1.6.68,2.72.31,3-.15.18-.31.51-1.26-.1-2.21l-2.89,2.36Z"/>
    <path class="cls-7" d="M238.76,389.19l-1.45,9.87c-.73,4.49-1.72,7.95-3.72,12.14-.95,1.97.44,5.43-1.1,6.98-.44-.32-.82-.21-1.14,0-.37.23-.46,1.31-.59,1.77l-8.08,27.74-10.78.77c-.52.04-1.26.9-2.11.5-.44-.21-.71-.59-1.17-1.05,5.24-1.45,10.47-10.25,7.65-14.82-3.78-6.12-6.59-11.89-5.66-19.24-2.88.95-4.17,3.12-6.47,2.24-.21-1.63-.31-3.03-1.64-4.27l7.46-17.46c12.6,3.11,22.7-4.1,28.83-5.15Z"/>
    <path class="cls-3" d="M332.13,624.59c-.35.22-1.34.23-1.84.78-.32.35-.25,1.4-.24,1.77,0,.3-.4.66-.71.46l-4.43-41.78c-1.29-12.12-2.96-23.25-2.43-35.46.3-6.92.41-13.42,1.44-20.25l4.81-31.81c2.52,10.7,5.23,21.04,5.11,31.93l-.43,38.66-1.28,55.69Z"/>
    <path class="cls-7" d="M251.58,257.24c.26.1,1.63.04,1.8.36,3.52,6.74,3.26,14.49.73,21.43-2.08-1.4-3.95-1.95-5.58-1.52-.91.24-1.03,1.97-1.36,2.97l-1.37-.06c-2.29-.31-4.22-1.87-6.51-1.13-.21-.46.45-1.41.89-1.51.86-.19,1.26-.41,1.7-1.15.48-.8.33-1.82-.19-2.09-.73-.38-2.07-.36-2.61-.08-1.86.96-4.32-1.29-11.92,2.23-1.2.56-2.4,1.61-3.31,2.52l-2.31-3.54c-7.12,2.99-11.26,6.26-11.88,12.59-.4-.82-1.11-1.83-2.02-2.25l-.09-18.94c0-1.23-2.26-3.71-3.43-3.99,1.78-.98,3.91-.9,6.11-.81l1.75-1.11,10.5-.86c4.04-.33,7.95.59,11.83-1.13l2.04-.9c.9-.4,1.63.98,2.2,1.19l13.05-2.23Z"/>
    <path class="cls-6" d="M297.34,313.57l-.38,1.43-7.19.14c-2.13-2.26-4.72-3.83-8.01-5.25l-9.32,17.07c-1.54,2.82-1.76,6.21-3.74,8.51-3.27,3.78-4.89,8.51-7.01,12.92l-5.75,11.95c-3.27,6.8-6.26,13.84-8.94,20.85l-2.22,5.8c-1.19-.61-1.5-3.21-.88-4.87l6.33-16.79,11.64-23.68c-.22-.4-1.24-.42-2.2-.53,5.65-9.56,8.98-20.31,12.29-31.4,2.32-7.75,3.77-15.2,3.41-23.19-.05-1.07.9-1.37,1.35-1.45.33-.06,1.07-.12,1.05.17l-.21,2.05c2.47,9.75,8.66,17.72,16.98,23.35l2.81,2.91Z"/>
    <path class="cls-13" d="M325.05,329.17c.32-.81.24-2.11-.55-2.79-9.59-8.21-22.2-12.68-26.26-18.85-.7-1.06-4.57-.68-3.73-3.8l5.35,3.14c1.65-.6,2.33-1.83,2.5-2.52.66-2.75-5.04-.91-10.4-7.25-2.02-2.39-5-4.52-3.72-8.45-2.03-1.77-2.27-5.09-1.24-7.23,6.18,2.96,9.96,7.63,14.82,11.41,12.77,9.93,25.6,20.08,24.73,36.71-.72.29-1.36.19-1.51-.35Z"/>
    <path class="cls-9" d="M208.6,447.88c-.33-.33-.69-.05-.91-.11-4.69-1.34-9.93,2.13-10.61-.68l1.08-16.25.86-4.25c.69-3.41,1.34-6.34,2.11-9.42.65.26,1.36.52,2.01.34.5-.14.67-.87.97-1.44,2.3.88,3.59-1.29,6.47-2.24-.93,7.35,1.88,13.11,5.66,19.24,2.82,4.57-2.41,13.36-7.65,14.82Z"/>
    <path class="cls-8" d="M307.34,319.39c-.3,1.58-1.36,4.21-.96,5.8.65,2.59,3.28,3.67,4.27,5.47l-5.03,5.33c-.98,1.04-2.59,1.41-2.81,2.76-1.67.36-4.39-.32-5.78.62l-8,5.45c-2.91-6.08-1.65-13.32,4.23-17.06,2.96-1.89,5.72-3.77,7.77-6.4-2.76-1.33-4.24-3.88-4.08-6.35l.38-1.43,10,5.81Z"/>
    <path class="cls-11" d="M270.61,245.59c-2.33,1.05-4.52,2.59-6.78,4.32,1.24.92,2.11.26,2.8.46-3.83,2.43-8.75,3.49-13.05,5.09-.2.93-1.47,1.69-1.99,1.78l-13.05,2.23c-.57-.21-1.3-1.59-2.2-1.19l-2.04.9c-.19-.51-.11-1.06.01-1.53l15.22-5.05c6.29-2.09,11.79-4.63,15.89-9.98.41-.54.15-1.37-.75-1.37l5.01-3.92c.72-.56,1.42-.87,1.63-1.29.37-.75,2.94-.48,2.6.42l-3.3,9.12Z"/>
    <path class="cls-8" d="M180.29,454.47c.17,3.79,2.62,6.42,5.1,9.03.16.65-.36,1.24-.57,1.69-.52,1.11-1.88.4-2.72.79l-4.85,2.26c-2.57,1.2-5.75.65-8.24,2.3-1.1.72-2.84.76-4.13,1.1-.13-1.46-.56-2.79-1.2-4.26l8.31-8.39c2.3-2.32,4.82-5.14,8.3-4.52Z"/>
    <path class="cls-11" d="M281.72,207.84c-.58.38-1.05,1.61-2.02,1.3l-1.86-.59c-2.81-.12-4.56,1.21-6.95,2,1.65-4.28,4.81-6.2,6.98-9.32,1.33-1.92,2.37-3.37,4.94-4.25,2.05-.71,3.23-3.86,3.81-6.43-.37-.56-1.11-.62-1.56-.57-.41-1.75-1.51-2.59-.38-4.36,3.41-.82,4.13-6.02,7.35-6.3,1.09,5.18-.52,9.66-2.86,14.02-1.45,2.7-1.76,5.86-5.09,7.18-2.05.81-3.38,5.12-2.36,7.32Z"/>
    <path class="cls-11" d="M334.51,412.8c0,1.43-.31,3.01-1.75,3.92l-.44-50.64c-.04-4.39-1.59-8.69.54-13.32,2.19,4.64,1.64,9.76,1.64,14.95v45.09Z"/>
    <path class="cls-8" d="M309.07,475.96c-.02,1.01-1.11,1.93-1.74,2.68,1.89,2.87,3.11,6.11,3.84,9.01,1.14-.25,1.31.37,1.6.67-2.67-.07-3.51,4.56-6.22,4.97-2.29-10.24-9.61-19.17-9.32-20.46.62-2.74,7.18-.17,11.83,3.13Z"/>
    <path class="cls-8" d="M250.22,365.33c-3.85-1.46-7.26.56-11.16,2.51l11.83-14.17c3.4-4.08,6.34-8.42,8.78-12.54.96.11,1.99.13,2.2.53l-11.64,23.68Z"/>
    <path class="cls-6" d="M266.63,250.37c-.69-.2-1.55.46-2.8-.46,2.26-1.73,4.45-3.27,6.78-4.32,2.17-.98,3.62-2.3,6.12-4.31-5.4,6.87,2.31,19.5-2.69,30.93-.87-8.19-.26-16.21-3.27-23.88-1.93.47-3.08,1.37-4.15,2.05Z"/>
    <path class="cls-6" d="M325.05,329.17c-3.89.57-1.16,9.33,1.63,13.29.8,1.14.89,1.73-.65,3.08.34,1.81-2.53,1.59-1.61-.37-3.89-4.42-6.42-9.33-8.05-14.33.69-.18,1.65-1.02,1.46-1.33l-.6-1.39c1.72,1.07,4.36,2.84,6.19.79.39-.44.29-2.26,1.09-2.54.79.68.88,1.98.55,2.79Z"/>
    <path class="cls-9" d="M287.53,652.42c-.1.47-.13,1.68.33,1.73l1.83.19c1.93,1.61,6.84,1.28,9.25,1.83l7.21,1.64c.74.17,1.27.38,1.41,1.02-3.53,2.3-7.74.55-11.47,1.07-3.7-1.76-7.49-2.65-11.87-2.64-1.52-.77-.86-3.67-.94-4.88,1.59.23.23,2.68,1.35,3.98.33.38,1.44.46,1.73-.14.2-.42.69-1.08.71-1.7-.36-.23-1.13-.84-.93-1.52.12-.44.91-.54,1.39-.57Z"/>
    <path class="cls-6" d="M317.22,328.13l.6,1.39c.19.32-.77,1.15-1.46,1.33l-2.54-2.16c-1.01,1.45-2.41,1.17-3.17,1.98-.99-1.8-3.62-2.88-4.27-5.47-.4-1.6.66-4.22.96-5.8,2.97-3.13,2.56,4.19,9.88,8.74Z"/>
    <path class="cls-12" d="M207.7,447.77c.07.52.81,1.41.41,1.79-2.2.19-.64,1.85.48,1.22-2.72.79-5.96.22-8.89.17.13-1.14-.62-1.31-1.27-1.21-.92.13-1.49.1-2.77-.08.43-.94.73-2.03,1.44-2.57.69,2.81,5.92-.66,10.61.68Z"/>
    <path class="cls-8" d="M181.89,377.29c1.16,3.44,3.97,5.24,7.45,5.46l4.66.29c-.79,1.06-2.77.99-4.06.79l-8.25-1.28c-1.55-.24-2.33-1.74-1.98-2.89-.27-1.79-.16-3.62,1.4-4.68l.78,2.31Z"/>
    <path class="cls-11" d="M243.25,391c-1.67,2.18-3.4,5.4-3.7,8.28l-2.24-.23,1.45-9.87c1.69-.29,4,.1,4.49,1.81Z"/>
    <path class="cls-10" d="M247.17,280.48c-1.81,5.36,1.2,8.97-5,10.74,1.13-3.1,1.16-6.32.85-9.61.79.52,1.26.57,1.83.47.92-.17,1.27-1.1.95-1.66l1.37.06Z"/>
    <path class="cls-10" d="M329.33,627.61c.31.2.72-.16.71-.46-.01-.37-.08-1.43.24-1.77.5-.55,1.49-.55,1.84-.78l-.88,12.17c-1.64-3.27-1.61-6.28-1.91-9.15Z"/>
    <path class="cls-10" d="M246.55,295.38c-.66.04-1.43-.19-1.67-.64-.28-.53-.22-1.34-.11-1.9.21-1.13,1.41-1.95,3.08-1.61-.2-1.72,1.12-1.67,1.77-.47-.2,2.03-2.07,3.17-3.07,4.62Z"/>
    <path class="cls-13" d="M282.81,196.98c.92-2.01,1.55-4.51,2.25-7,.45-.05,1.18.01,1.56.57-.58,2.57-1.75,5.72-3.81,6.43Z"/>
    <path class="cls-10" d="M204.12,416.07c-.3.57-.47,1.3-.97,1.44-.65.18-1.36-.08-2.01-.34l1.34-5.37c1.33,1.24,1.43,2.64,1.64,4.27Z"/>
    <path class="cls-13" d="M155.3,613.23c5.61,8.18,11.49,15.3,20.6,20.65,17.24,10.12,35.95,6.27,50.71-7.34,4.71-4.34,3.11-18.62-1.46-25.23,2.11-.92,2.61-2.54,3.58-3.39l1.72-1.5c1.41-.55,3.25-1.61,5.75-2,1.43,1.43,2.42,3.76,2.7,5.52s1.24,4.65.35,6.76l-6.59,15.7c4.71.59,4.95-5,9.34-7.35l2.17,13.41c.28,1.73,1.96,4.02,1.01,5.63-2.25,3.83-3.13,8.17-4.76,12.91,4.25-.83,4.43-8.07,9.2-8.99v6.37s.3,5.13.3,5.13l.74,23.23c-1.41.91-3.42,1.66-3.27,3.71l12.8.86c.5.03,1,.48,1.43-.19.19-.31.08-.81.07-1.21l-.71-24.96c2.29-1.79,5.36-.94,7.84-1.1,2.54-.16,5.03.48,7.38,2.66l5.41,5.01,11.15,13.84c1.24,1.53,2.25,2.62,1.8,4.6-2.15,3.6-5.99,5.99-10.22,7.44l-18.62,6.41c-.9.31-2.03-.08-2.49-.56-.34-.36-.65-.97-.6-2.14l.08-1.88c.02-.48-.62-1.36-1.5-.88-2.88,7.58-10.85,11.75-18.46,9.67l7.42-4.57c1.78-1.1,3.13-2.9,3.1-5.13-4.88-.54-8.81,1.56-13.13,3.14-.51-1.25.19-1.95.3-2.95,1.1-1.24,2.25-2.51,2.74-4.72l-6.84,3.43c.43-.39.55-.64.77-.84s.4-.52-.02-.81c-.25-.17-1.08.1-2.08.61,1.87-6.95,3.69-14,1.62-21.62l-9.45,7.61c-7.38,5.94-15.34,10.94-25.18,12.34-14.6,2.08-28.55-3.87-39.13-13.76-6.84-6.4-9.68-13.88-14.68-19.05-.1-1.24.2-2.91-.47-4.22l-5.29.17c-.38-5.48,1.12-11.03,1.49-16.94l.23-3.62c.47-.09.84-.32,1.17-.26.34.06.77.89.83,1.35,1.33,11.61,8.45,27.91,17.62,34.68,1.49,2.53,3.52,4.31,6.24,6.47,16.21,12.86,37.76,12.68,53.84-.76l12.21-11.74c-5.54-2.85-3.15-12.5-6.58-21.93-10.51,10.39-25.87,18.83-39.14,15.68-15.09-3.59-26.72-13.45-34.23-26.81-1.28-2.27-3.55-4.59-5.6-4.95-3.74-.65-1.04-3-2.51-8.71-.23-.92-1.23-1.09-1.42-.65-.1.23-.05.61-.65.75l-.96-3c2.83-.27-.4-5.23,3.15-8.56,3.24,5.59,2.53,11.79,7.2,18.6Z"/>
    <path class="cls-9" d="M236.33,683.21c-.78.39-1.96.83-2.89,1.64-7.98,6.91-17.41,9.67-27.6,12.02-14.91,3.45-29.7-2.45-42.37-12.07-2.92-2.22-5.7-4.17-8.89-4.85.28-1.21-.16-2.6-.83-4.02-3.14-6.7-4.36-13.57-4.97-20.95l-.61-7.3c5,5.17,7.84,12.65,14.68,19.05,10.58,9.89,24.53,15.84,39.13,13.76,9.84-1.4,17.81-6.4,25.18-12.34l9.45-7.61c2.07,7.62.25,14.67-1.62,21.62.99-.51,1.82-.78,2.08-.61.42.28.24.61.02.81s-.34.44-.77.84Z"/>
    <path class="cls-9" d="M130.56,655.78c1.3.24,2.52,1.18,3.48,2.16-.69-.17-3.93.43-3.73,1.94,1.43,10.82,2,21.45-.12,31.72-1.84-.7-2.91-.38-3.86-.17l-10.44-2.42c-.03-6.34.28-12.66-1.31-18.86-.42-1.65-3.81-6.1-3.97-3.67-.22-3.53,2.04-5.95,5.05-7.85,7.26-4.58,11.78.51,12.47-3.96.78.41,1.58.95,2.44,1.11Z"/>
    <path class="cls-2" d="M148.18,647.68l.61,7.3c.61,7.38,1.83,14.25,4.97,20.95.67,1.43,1.1,2.81.83,4.02.01.41-.26.7-.64.69-.1-.84-7.13-6.12-10.76-2.68l4.24,2.47c1.55.9,1.2,3.74.73,5.21-1.27-.36-2.39,1.02-3.56,1.68-.46-.05-.49-.46-.32-.64.4-.41.83-1.08,1.11-1.7l-4.7,1.12c.85,1.29-.92,1.22-.7.68.5-1.26-.51-1.33-.87-1.22l1.43-25.63c.13-2.34-.05-4.57-.38-7.04l2.27-9.25,5.29-.17c.67,1.3.37,2.98.47,4.22Z"/>
    <path class="cls-12" d="M299.92,642.49c-5.47,1.86-10.77,3.96-17.06,3.97l.43,5.92c.09,1.22-.57,4.12.94,4.88,4.38-.02,8.17.87,11.87,2.64l.81,7.62.52,8.43c.05.79-1.85,1.92-2.01,1.31-.1-.36-.07-1.12-.85-1.31.45-1.98-.56-3.07-1.8-4.6l-11.15-13.84-5.41-5.01c-2.35-2.17-4.84-2.82-7.38-2.66.11-.05.99-.7.76-.94l-1.52-1.59,4.01-.71c-.56-.27-.9-.79-.86-1.31,8.08,0,15.86-.72,24.24-2.59,1.57-.35,3.12-.94,4.46-.22Z"/>
    <path class="cls-2" d="M115.88,689.01c-3.05-.71-5.38-2.54-8.66-3.55l-7.93-2.46c-2.63-.82-3.63-2.97-2.75-5.28.35-.91.97-2.36.78-3.38l9.18-3c2.71-.91,4.26-2.35,4.1-4.86.16-2.43,3.55,2.02,3.97,3.67,1.59,6.2,1.28,12.52,1.31,18.86Z"/>
    <path class="cls-3" d="M127.55,654.69c.19-.3.41-.21.56-.03-.69,4.47-5.21-.62-12.47,3.96-3,1.89-5.27,4.32-5.05,7.85.16,2.51-1.4,3.95-4.1,4.86l-9.18,3c-.24-1.31-.86-2.69-.62-4.01.61-3.39,3.05-4.31,6.47-4.26,4.46.07,5.42-5.24,6.14-8.58l1.05-4.91c7.13-1.73,11.78,2.12,17.21,2.11Z"/>
    <path class="cls-13" d="M134.04,657.93c1.9,1.94,1.63,4.97,1.69,7.77l.58,26.38c-3.88-.27-6.89.06-9.99-.65.95-.21,2.02-.53,3.86.17,2.12-10.27,1.55-20.9.12-31.72-.2-1.52,3.05-2.12,3.73-1.94Z"/>
    <path class="cls-10" d="M85.28,643.72l4.63,3.46,11.26,7.17c.77.49,1.5,2.05,2.86,2.16l-.16,4.06-6.96-.34c.69-.64.53-1.13.59-1.63.1-.73-.11-1.2-.85-1.23v-.78c-.22-1.31-1.72-1.46-2.57-2.16l-7.85-6.43c.41,2.65,2.32,4.79,3.9,5.05-.1.51-.16,1.04-.03,1.2,1.65,2.03,3.52,4.01,5.65,5.88-6.71,1.89-12.85-6.58-15.13-14.64,1.28-.32,0-2.05-.9-.66-.26-.49-.02-1.06.48-1.24-.28-.4.9,1.15,1.73.24.26,1.12.28,2.08,1.03,2.77,1,.92,2.69.92,3.16-.45.38-1.12-.68-1.94-.84-2.45Z"/>
    <path class="cls-12" d="M242.76,694.01c-.48.3-13.04,2.26-17.74.35l8.72-5.28c1.24-.75,2.49-1.37,3.92-1.08,1.15.23,1.72-.28,2.48-.56,4.32-1.58,8.25-3.68,13.13-3.14.03,2.24-1.32,4.04-3.1,5.13l-7.42,4.57Z"/>
    <path class="cls-8" d="M148.14,685.65l1.42.4,13.58,4.45c.4,1.26.84,1.95-.11,3.11-1.62,1.98-4.53,1.23-6.16,2.79l-12.13-8.33c-.15-.19-.19-.46-.16-.73,1.17-.66,2.28-2.04,3.56-1.68Z"/>
    <path class="cls-3" d="M96.7,670.32c-.24,1.32.38,2.7.62,4.01.19,1.02-.43,2.47-.78,3.38-4.4.54-13.95-2.09-16.25-7.09l16.4-.3Z"/>
    <path class="cls-3" d="M153.94,680.64c.12,1.03,1.18,1.99,2.09,2.44l1.08,1.37c.34.37-.88,1.98-1.43,1.84l-2.57-.64c-1.3-.33-1.64-.44-2.19-.85-.66-.48-1.64.46-1.36,1.24l-1.42-.4c.47-1.47.82-4.3-.73-5.21l-4.24-2.47c3.63-3.45,10.66,1.84,10.76,2.68Z"/>
    <path class="cls-3" d="M156.87,696.39c-4.71.89-10.26-.84-14.45-3.34,1.19-1.61,1.21-3.43,1.64-5.04l.69.04,12.13,8.33Z"/>
    <path class="cls-10" d="M163.15,690.5l-13.58-4.45c-.28-.78.7-1.72,1.36-1.24.56.41.9.52,2.19.85l2.57.64c.55.14,1.77-1.47,1.43-1.84l-1.08-1.37c3.25,1.6,6.32,3.48,9.12,6.53-.35.92-1.05,1.17-2.01.88Z"/>
    <path class="cls-10" d="M144.06,688.02c-.43,1.61-.45,3.43-1.64,5.04-2.02-1.2-2.57-3.15-2.96-5.43l1.04,1.22c1.26-1.31,2.54-.89,3.56-.82Z"/>
    <path class="cls-6" d="M109.36,646.92c-.06,1.4-1.19,2.76-.55,4.25.08.18.17.41.16.7-.32-.28-1.08-.03-1.19.28-.11.28.12,1-1.12,1.64-.84-1.29-.38-2.99-.33-4.42l.1-2.56,2.93.11Z"/>
    <path class="cls-12" d="M106.43,646.82l-.1,2.56c-.16-.08-.55-.06-.83.18-.06,2.5.12,5.21-1.46,6.96-1.36-.11-2.09-1.67-2.86-2.16.68-.06,1.48.52,2.02.31,2.87-1.14.41-6.29,2.31-8.13l.92.28Z"/>
    <path class="cls-9" d="M144.59,687.33c-.02.27,0,.54.16.73l-.69-.04c-1.01-.06-2.29-.49-3.56.82l-1.04-1.22-.36-2.06c.36-.1,1.37-.04.87,1.22-.22.54,1.55.61.7-.68l4.7-1.12c-.28.62-.71,1.29-1.11,1.7-.17.17-.13.59.32.64Z"/>
    <path class="cls-12" d="M110.35,652.58l-1.05,4.91c-1.11-1.61-.37-3.8-.34-5.62,0-.29-.09-.52-.16-.7l1.08-1.62c.06-.11,2.1.65,1.85,1.03l-1.38,2Z"/>
    <path class="cls-4" d="M240.14,687.45c-.76.28-1.33.79-2.48.56l2.78-3.51c-.1,1-.81,1.7-.3,2.95Z"/>
    <path class="cls-6" d="M298.93,672.23c.05,1.52-1.22,1.12-1.21.81l.04-1.59c0-.27,1.13-.59,1.17.78Z"/>
    <path class="cls-9" d="M201.24,142.83c-.86.58-2.31.67-3.29-.12.9-.45,1.7-.68,3.29.12Z"/>
    <path class="cls-9" d="M243.01,198.4c.48.47,1.41,1.18,1.75,1.77l.47,5.24c-.31.49-.99,1.32-.92,1.92.05.38-.43.68.63,1.14-1.13,2.61-3.99,3.86-4.26,6.99-3.33,1.86-6.72-.05-8.35-3.72-1.56-3.7-.69-7.29,2.28-10.51,1.8-1.95,5.3-4.21,8.4-2.84Z"/>
    <path class="cls-2" d="M240.68,215.47c.27-3.13,3.13-4.38,4.26-6.99,5-3.06,6.55-5.33,6.07-10.6,1.15-.11,1.96.38,2.59,1.23.49.66.65,1.68.59,2.75-.44,7.89-5.91,14-13.51,13.61Z"/>
    <path class="cls-6" d="M234.31,257.65c-.13.47-.2,1.02-.01,1.53-3.88,1.72-7.78.8-11.83,1.13l-10.5.86c-4.11-1.63-8.91,3.22-11-2.7l3.66-.19,7.03.66,19.37-2.02,3.28.72Z"/>
    <path class="cls-2" d="M206.62,194.87c.67.47,1.67,1.09,1.49,2.03l-.49,2.62-.92,3.89c-.42,1.78-1.13,3.44-2.74,3.39-1.63-1.25-4.1-2.32-4.32-4.86-.31-3.58,2.6-5.68,5.07-7.26l1.9.19Z"/>
    <path class="cls-9" d="M212.02,210.26c-.76-.59-1.33-.01-1.48.32-.2.45-1.26-1.09-1.18-1.64.08-.52.53-.77,1.08-1.13,1.02-.13,1.13-.63,1.56-1.06.79-.8,3.08-1.3,2.82-3.2l-.59-5.09c1-.1,2.94-.94,4.07-.41.94.44,3.05,1.63,3,3.14-.18,5.19-5.09,7.88-9.29,9.06Z"/>
    <path class="cls-3" d="M251.01,197.88c.48,5.27-1.07,7.54-6.07,10.6-1.06-.46-.58-.76-.63-1.14-.07-.61.61-1.43.92-1.92l-.47-5.24c.35.13.83.85,1.19.85.14,0,2.24-1.74,2.94-3.41.68.14,1.43.33,2.11.26Z"/>
    <path class="cls-11" d="M214.23,198.46l.59,5.09c.26,1.9-2.02,2.4-2.82,3.2-.92-.28-1.79-.11-2.6-.07,1.11-3.02,1.2-6.39,1.42-9.57,1,.53,2.54,1.09,3.41,1.36Z"/>
    <path class="cls-11" d="M256.48,216.67c-1.91,1.96-4,2.69-6.24,1.68.97-2.66,1.65-4.48,3.02-6.62.73-.5,2.14.55,2.69,1.16.97,1.06,1.51,2.78.53,3.78Z"/>
    <path class="cls-10" d="M210.82,197.1c-.22,3.19-.31,6.55-1.42,9.57-1.12.05-1.67-1.38-1.5-2.08l.62-2.56c.25-1.02.3-1.72.65-2.16.24-.3-1.26-.68-1.55-.36l.49-2.62c.18-.94-.82-1.55-1.49-2.03l4.2,2.23Z"/>
    <path class="cls-5" d="M248.9,197.62c-.71,1.67-2.8,3.41-2.94,3.41-.37,0-.84-.72-1.19-.85-.34-.59-1.27-1.31-1.75-1.77.8-2.15,4.42-2.07,5.89-.79Z"/>
    <path class="cls-3" d="M160.13,476.33c1.18,1.33,1.23,3.1.13,4.83-5.12,8.05-9.1,41.94-10.74,56.27l-2.06,17.99-2.62-5.86-2.79-27.8c-1.02-10.17-2.82-21.03,1.16-30.13,2.14-4.89,4.35-10.41,8.87-13.6,2.39-1.68,5.26-1.87,8.05-1.7Z"/>
    <path class="cls-12" d="M143.21,491.63c-3.98,9.1-2.18,19.96-1.16,30.13l2.79,27.8.04,5.66c-.31-.04-1.11-.13-1.49.14-.28,6.91.64,18.08,1.14,18.35.34.18.86-.02,1.13.02l.65,1.48c-.23.45-.35.4-.38.65-.05.39-1.61.21-1.49-.01.16-.32.74-1.34-.67-.57-.25-.58-.68-1.42-1.33-1.21-1.26.41-1.96.54-1.32,2.14,5.85-2.61,1.18,7.65,3.81,12.44.95,1.73.7,2.22-.5,4.03l.43,5.74c-.97,2.05-.7,3.58.1,4.77l.96,3-.84,7.37c-.77.71-.77,1.86-1.43,2.02-.89.21-1.71.22-3.27.08-.98-5.66-1.34-11.62-1.03-17.82.56-11.23.3-21.77-.28-33.02-.86-16.87-.95-33.46.1-49.77.23-3.5,2.31-7.01-.39-10.3-2.36-2.86-2.49-8.29-3.21-12.22-.63-3.42,2.16-6.96,4.85-6.37.91.2,2.44.48,2.63,1.05.16.49-.93,1.19.19,2.46-1.63.27-1.46,2.08-.03,1.97Z"/>
    <path class="cls-3" d="M122.17,517.68c3.88,13.76,6.09,28.17,6.76,43.1l1.3,11.41.08,14.31,1.03,13,.64,51.64c-1.25.2-3.47.05-4.83-.11.88-3.14.75-6.24.68-9.77l-1.08-52.23-.93-23.42c-.66-16.61-2.46-32.58-5.95-48.25l2.29.31Z"/>
    <path class="cls-8" d="M134.18,569.33c-.65.69-.77,1.7.2,2.9-2.09.51-2.31-.56-2.58-1.86-.91.68-.44,1.86-1.57,1.83l-1.3-11.41c-.67-14.92-2.88-29.33-6.76-43.1,1.65-.38.33-2,.52-2.63,1.79-6.22-4.49-5.67-4.51-11.99,0-.47-.9-1.65-1.36-2.13-.32-.33-.75-.48-1.41.19-1.08-3.08-1.86-5.99-4.41-8.8l-1.42-2.56c-2.08-3.75-4.97-8.78-9.05-11.29,1.15-1,.86-1.75,1-2.09.64-.21.94-.56.87-1.27-.09-.86-.61-1.3-.89-2.16,1.13.68,2.46,2.24,3.23,3.58,8.71,5.32,14.36,17.54,17.86,27.76l5.29,15.46c2.58,11.05,3.77,21.74,4.79,33.01l1.49,16.57Z"/>
    <path class="cls-8" d="M139.03,481.54c2.41-1.74,5.79-4.76,7.32-7.63l7.05-13.24c4.38-10.26,6.52-21.29,8.34-32.61-2.14-1.35-3.9-1.38-4.58-3.5,4.27-.09,7.21-1.23,8.81-4.54.4-.83.11-2.2-.45-2.45-.32-.14-1.09.22-1.71-1.16,2.45-.7,4.53-2.44,4.43-5.18l-5.04-2.3c4.85-1.62,7.69-5.83,6.96-10.09.29-1.19,1.46-2.31,2.34-3.4,3.42,2.62.93,6.53.33,9.77-.98,5.29-2.22,9.76-3.58,15.02l-5.44,20.97c-1.96,7.56-3.51,15.07-6.98,22-1.95,3.88-4.13,7.39-5.49,11.94-1.42,4.76-7.88,6.74-12.6,8.47.29-.87.63-1.14.3-2.06Z"/>
    <path class="cls-11" d="M131.99,651.14l-.64-51.64-1.03-13-.08-14.31c1.13.03.66-1.14,1.57-1.83.28,1.3.49,2.37,2.58,1.86-.98-1.19-.85-2.2-.2-2.9l1.44,27.71.63,26.63c.06,2.35,4.37,3.92,4.92,5.68.86,2.78-2.89,3.89-4.61,4.41l-1.49,16.89c-.16,1.85-2.3.37-3.07.49Z"/>
    <path class="cls-2" d="M150.49,614.8c-2.07,1.86-1.69,4.41-1.53,7.21.8,14.27,8.13,25.51,14.79,36.83-9.16-6.77-16.29-23.07-17.62-34.68-.05-.46-.48-1.29-.83-1.35s-.69.17-1.17.26c1-3.15.57-6.31.94-9.51l.84-7.37c.6-.15.56-.53.65-.75.18-.44,1.18-.26,1.42.65,1.46,5.71-1.24,8.06,2.51,8.71Z"/>
    <path class="cls-12" d="M164.88,471.64c-3.32.86-2.74,4.82-4.75,4.7-2.79-.17-5.66.02-8.05,1.7-.52-3.16,1.6-4.87,4.23-6.39l7.37-4.27c.64,1.47,1.06,2.81,1.2,4.26Z"/>
    <path class="cls-11" d="M182.07,211.99c-2.84,1.44-5.63,3.62-8.93,4.34-.22.05-.85-.13-.94.66l-4.33-5.83c-2.31-2.65-2.9-5.69-1.7-9.44.79-2.45,4.45-4.46,7.54-4.98,2.06-.35,4.45-.91,6.68.16-2.92,1.32-6.5,3.09-5.88,6.73s4.72,6.4,7.56,8.36Z"/>
    <path class="cls-7" d="M173.71,196.74c-3.09.52-6.75,2.53-7.54,4.98-1.21,3.75-.61,6.79,1.7,9.44l4.33,5.83c-7.09-1.14-12.92-9.53-9.88-16.92,1.83-4.45,7.65-5.2,11.39-3.32Z"/>
    <path class="cls-2" d="M173.15,216.33c3.3-.72,6.09-2.9,8.93-4.34,2.56-1.3,3.87-3.46,5.06-7.04,1.26.09,3.61,3.16,3.17,5.07-2.2,9.43-15.91,10.3-17.14,7.54-.13-.28-.04-.91-.01-1.23Z"/>
    <path class="cls-3" d="M209.4,206.68c.81-.04,1.68-.2,2.6.07-.43.43-.54.93-1.56,1.06-2.23.29-4.75,1.16-7.52.17-1.15-.94-.07-1.36,1.04-1.18,1.61.05,2.31-1.61,2.74-3.39l.92-3.89c.29-.32,1.79.06,1.55.36-.35.44-.4,1.13-.65,2.16l-.62,2.56c-.17.7.38,2.13,1.5,2.08Z"/>
    <path class="cls-2" d="M243.02,281.62c.31,3.29.28,6.5-.85,9.61-3.95,3.97-9.78,5.91-15.99,5.15l-2.97-2.84c-.11,1.21-.35,1.52-.81,1.81-.43-1.46-1.34-3.28-2.03-4.49-.78-1.94.18-3.33,1.1-5.26,1.82-.79,3.88-2.61,6.31-2.97l9.78-1.42c1.93-.28,3.75-.84,5.45.41ZM236.7,290c1.48-1.52,1.48-3.55.38-5.17-.58-.86-2.5-.66-3.91-.44-2.27.35-3.36,1.62-3.3,4,.03,1.22.43,2.97,2.46,3.36,1.14.22,2.92-.29,4.36-1.75Z"/>
    <path class="cls-8" d="M223.85,279.22c-1.32,1.33-2.41,2.45-4.14,3.63-1.31.89-1.43,3.24-1.75,4.77-3.86-7.74-8.39,6.18-5.03,19.6,1.45-1.68,2.21-3.39,3.09-5.16l2.12-4.29c.93-1.87.93-4.14.31-5.65-.2-.48.57-1.85.51-2.46.65-.14,1.16.74,1.43,1.2.69,1.21,1.61,3.03,2.03,4.49.94,3.24-2.98,8.18-2.26,11.84-5.98-.29-9.32.76-7.28,2.62.26.24-.2,1.25-.25,1.56-.33-.12-1.01-.77-1.31-.63-.42.18-.46,1.48-1.06,1.51l-1.22-12.99.33-8.01.3-2.98c.63-6.33,4.77-9.6,11.88-12.59l2.31,3.54Z"/>
    <path class="cls-12" d="M223.01,321.73c1.47,7.48-3.88,14.49-11.38,14.91,1.34-2.67,7.2-5.12,8.84-9.8l-1.55-18.26.6-.61,2.05,12.23c.17,1.02.76,1.62,1.44,1.54Z"/>
    <path class="cls-13" d="M96.64,657.38c.74.03.95.5.85,1.23-.06.49.1.98-.59,1.63,0-.69-1.13-.7-1.15-.09-2.13-1.87-4-3.85-5.65-5.88l4.61,3.89c1.14-1.36,1.32.13,1.24.48-.1.44.71.57.71-.07v-1.17Z"/>
    <path class="cls-2" d="M108.8,494.09c2.11,4.94,4.02,10.58,7.26,15.15.69-.15.7-.85.69-1.13,0-.36.83-.66.98-.38l2.15,9.64c3.49,15.66,5.29,31.64,5.95,48.25l.93,23.42,1.08,52.23c.07,3.54.2,6.64-.68,9.77-2.56-.29-5.04.25-7.18-1.67-1.15-1.3-.75-2.87-.8-4.86l-1.15-51.46-2.15-26.66c-1.57-19.47-2.68-39.25-9.83-56.72-.61-1.99,1.78-2.4,2.33-3.13,1.74-4.94-5.12-9.8-2.81-12.9.9-1.21,2.34-.46,3.24.47Z"/>
    <path class="cls-5" d="M119.1,311.57c1.44.84,2.37,5.16-.04,6.23.04-.63.3-1.5-.34-1.6l-1.74-.26c-2.65-1.86-5.94-1.15-8.26-.86.13-.96,1.14-1.49,2.41-1.59-1.03-.64-.83-1.69-.48-2.08l1.36-1.53c.73-.24,2.32-.02,2.87-.94.16,2.09,3.03,1.93,4.21,2.62Z"/>
    <path class="cls-9" d="M109.59,489.76l1.42,2.56c2.55,2.81,3.33,5.72,4.41,8.8l2.32,6.61c-.15-.28-.98.01-.98.38,0,.28,0,.98-.69,1.13-3.24-4.57-5.15-10.21-7.26-15.15-.46-1.07-.54-1.45-.4-2.65.07-.6-.48-1.62,1.19-1.68Z"/>
    <path class="cls-9" d="M169.59,295.28c-.35,1.95-2.7,2.46-4.12.75,1.07-.95,2.25-1.34,4.12-.75Z"/>
    <path class="cls-5" d="M212.62,311.36c-.41,2.12-2.02,6.38.55,8.2,1.6,1.12,3.73,1.37,4.65,3.1s1.44,4.33.1,6.14c-2.09,2.82-5.6,2.99-8.56,2.77,3.96-6.42,1.27-10.76.88-19.32.61-.03.65-1.33,1.06-1.51.3-.13.97.51,1.31.63Z"/>
    <path class="cls-3" d="M209.36,331.56l-2.43.49c-.55.11-1.2.03-1.62.36-.4.17-.96-.54-.73-.67,1.57-.9,1.15-2.16,1.64-3.29l1.97-4.59-.14-10.96c.78-.26,1.39-.64,2.2-.68.39,8.56,3.08,12.9-.88,19.32Z"/>
    <path class="cls-5" d="M119.1,311.57c-1.18-.69-4.05-.53-4.21-2.62.93-1.54,2.58-2.54,4.97-2,.86.19,1.16,1.33.94,2.35-.16.72-.52,1.65-1.69,2.27Z"/>
    <path class="cls-3" d="M209.36,291.25l-.33,8.01,1.22,12.99c-.81.04-1.43.42-2.2.68-.03-2.15-.61-4.05-1.86-5.55.23.1,1.44-.23,1.45-.74l.28-17.01c.83.81.84,1.57,1.45,1.62Z"/>
    <path class="cls-9" d="M205.31,332.42c-.41.83-1.61.32-2.46-.34.04-1.71,1.82-3.26,3.37-3.61-.48,1.13-.07,2.39-1.64,3.29-.23.13.33.83.73.67Z"/>
    <path class="cls-8" d="M110.29,426.21c-.09,1.59-1.29,1.12-1.6,1.46-.54.61-2.14,1.14-2.76-.85l4.36-.61Z"/>
    <path class="cls-8" d="M105.51,646.53c-1.9,1.84.56,6.99-2.31,8.13-.54.21-1.34-.37-2.02-.31l-11.26-7.17c.98.06,1.27-.84.69-1.03-.45-.14-1.09-.94-1.23-1.29.86-.24,1.45-.48,1.71-.92.19-.51-.02-1.08-.5-1.33s-1.07-.1-1.38.23l16.31,3.7Z"/>
    <path class="cls-2" d="M272.79,473.12c1.14,2.59,4.59,3.36,6.68,5.72,10.93,12.39,13.94,30.33,7.1,45.71-3.38,7.6-9.46,12.62-14.07,18.91l-2.06,2.81c-3.52,1.12-5.13,5.01-6.97,8.36-3.76,6.87-7.04,13.74-7.13,21.86l-.45,40.64,1.61,25.8c.07,1.17-1.22,1.79-1.56,2.46l-2.1-.08c-1.51-.06-2.99.29-4.21-.93v-6.37s-.05-5.1-.05-5.1l-.03-14.93.13-33.24c.06-15.57,4.25-32.12,17.06-42.08l9.21-9.29c14.7-14.82,13.02-38.49-3.2-50.82l-10.75-8.17c6.24-1.2,5.2-4.59,10.79-1.26Z"/>
    <path class="cls-12" d="M296.96,315c-.16,2.47,1.32,5.03,4.08,6.35-2.05,2.63-4.81,4.51-7.77,6.4-5.88,3.74-7.14,10.98-4.23,17.06-1.2.82-1.42,3.56-3.16,4.43-3.9,1.94-5.45,5.91-8.45,8.51l-14.21,12.34c-3.32,2.88-7.43,4.68-10.25,8.3-1.48,1.89-3.96,2.33-5.98,2.79,2.68-7.01,5.67-14.05,8.94-20.85.43-.16,1.04.27.92.54-.14.32-.21,1.2.6,1.49,5.21,1.88,12.93-3.11,12.12-8.95-.5-3.59-5.69-3.81-7.88-5.03,2.12-4.41,3.74-9.14,7.01-12.92,3.73-2.17,9.47-.7,12.37,3.69l7.17-18.15c.8-2.04,2.14-3.79,1.53-5.86l7.19-.14Z"/>
    <path class="cls-9" d="M267.12,608c1.25.24,1.56-.19,2.01-.75.9-1.14.04-2.03.07-2.94l.83-28.65c.3-10.41,5.14-19.65,9.67-28.84.8-.52.38-1.34-.51-1.17.82-.96,1.18-2.4,2.57-3.32,2.55-1.68,4.96-5.25,6.41-7.85,2.35-1.5,2.56-5.3,6.39-6.75-.13,2.86-.05,6-1.73,8.97-4.07,7.19-8.44,14.3-10.77,22.57.63,3.13,3.53,6.67,2.46,10.09-2.54.76-6.71,1.03-8.06,3.8-7.3,14.96-4.2,36.89-.71,53.87.77,3.76,3.27,6.78,4.26,10.28,1.32,4.66-11.83,4.91-11.9,2.49l-.98-31.8Z"/>
    <path class="cls-9" d="M256.55,645.69c0-.32-.37-.44-.62-.31.33-.68,1.63-1.3,1.56-2.46l-1.61-25.8.45-40.64c.09-8.12,3.37-14.99,7.13-21.86,1.83-3.35,3.45-7.24,6.97-8.36.01,1.08.48,2.03.96,3.31l-6.06,12.65-2.16,7.3c-1.53,1.9-3.66,3.6-2.59,5.91,2.47,5.31,1.57,11.04,1.35,16.78l-.61,16.07,1.05,4.93.08,23.96c0,2.36,1.23,4.19-.97,6.21-1.5,1.38-2.55,2.57-4.93,2.32Z"/>
    <path class="cls-11" d="M272.79,473.12c.05-.77-1.25-1.65-.89-2.5,4.65.6,10.21,1.4,14.06,4.82,2.15,6.26,10.59,11.32,11.49,18.13l1.98,14.94c.18,1.36-.25,2.57-1.02,3.43-.41.45-1.33,1.04-2.23.18,1.6-1.88,1.59-3.44,1.1-5.49l-3.42-14.19c-2.72-6.06-7.44-11.19-12.86-14.42l-8.21-4.89Z"/>
    <path class="cls-6" d="M255.93,645.38c.25-.13.62,0,.62.31,4.77,1.46,9.81-.4,14.67-.4-.04.52.3,1.04.86,1.31l-4.01.71,1.52,1.59c.23.24-.65.89-.76.94-2.48.16-5.54-.69-7.84,1.1l.71,24.96c-.39.03-1.03.93-1.35.73-.52-.33-.23-1.84-.29-2.36l-3.31-26.8-2.65-.69c-.46-.12-.48-.96-.25-1.49l2.1.08Z"/>
    <path class="cls-2" d="M267.12,608c-.18-5.72,1.33-11.41,1.48-17.52l.54-22.01c1.33-8.75,4.61-16.45,10.04-22.82.89-.16,1.31.65.51,1.17-4.53,9.2-9.37,18.44-9.67,28.84l-.83,28.65c-.03.9.83,1.79-.07,2.94-.44.56-.76.99-2.01.75Z"/>
    <path class="cls-2" d="M305.41,642.23c-4.24,4.05-17.25,10.16-17.89,10.19-.48.03-1.27.13-1.39.57-.19.69.57,1.3.93,1.52-.02.62-.51,1.29-.71,1.7-.29.6-1.39.53-1.73.14-1.12-1.29.24-3.75-1.35-3.98l-.43-5.92c6.29,0,11.59-2.11,17.06-3.97,1.69-.57,4.03-1.9,5.49-.26Z"/>
    <path class="cls-3" d="M266.45,463.56l3.74.82c.02,1.77.34,2.77-1.21,3.93l-4.33-1.69-4.08,5.56c-.24.33-1.17.18-1.44.16-4.62-1.2-6.3-4.42-9.03-5.93.29-.34.31-1.44.48-1.94,4.39-1.17,9.18.18,13.33,2.6.21-2.12-1.98-1.97-2.24-3.09l2.31-.42c.85-.15,1.66-.16,2.47.02Z"/>
    <path class="cls-2" d="M272.04,461.47c5.01.82,8.99,2.88,13.86,5.03,2.03.9,6.51-1.21,7.45,3.18l-10.81-2.21-12.36-3.09-3.74-.82c-.4-1.21.57-2.21,1.83-2.68.91.5,2.71.41,3.76.59Z"/>
    <path class="cls-8" d="M307.53,630.46l-1.44-14.93c2.17,1.44,5.08.9,7.53-.78,1.33,4.3.09,8.05-3.34,9.86-.52,1.93-1.53,4.45-2.75,5.85Z"/>
    <path class="cls-8" d="M268.97,468.31c1.13.44,2.62.97,2.92,2.31-.36.84.94,1.73.89,2.5-5.59-3.33-4.55.06-10.79,1.26-1.3-.14-2.53-.98-2.87-2.04.27.02,1.2.17,1.44-.16l4.08-5.56,4.33,1.69Z"/>
    <path class="cls-4" d="M294.56,527.73c-3.83,1.45-4.04,5.25-6.39,6.75.17-.31.41-1.23.74-1.43.2-.13-.59-.9-.91-.53l1.65-2.17c1.94-3.93,2.72-7.92,5.4-11.11,1.85,3.51-.38,5.94-.5,8.49Z"/>
    <path class="cls-5" d="M288.17,534.48c-1.45,2.6-3.86,6.17-6.41,7.85-.7-1.81.74-2.96,2.11-4.36,1.66-1.7,2.87-3.78,4.14-5.45.32-.37,1.11.4.91.53-.33.21-.57,1.12-.74,1.43Z"/>
    <path class="cls-2" d="M223.78,525.82c-.92.16-1.43.32-2.05,1.29-.33.51,0,.93.51,1.13l2.1.81c6.53,2.54,14.34.82,20.73-.54l1.4.41c-2.25,2.29-6.07,1.23-8.67,3.01-6.34,4.34-14.57-.87-12.89,3.99-1.8-.33-3.29-1.46-5.45-1.15,2.94,5.64,17.35,4.47,25.4,3,1.02-.19,1.48-1.38,1.32-2.1,1.07-.21,3.09.13,3.63,1.16-.28.49.09,1.86-.75,2.16l-2.62.94-12.6,1.89-6.26,1.11c-1.32,1.68.67,2.45,1.08,3.2.44,4.64-1.18,8.72-3.2,13.11l-3.37,7.33c-.6,1.31-1.06,2.73-.37,5.12l-18.69,12.03c-1.89-.59-4.65,1.26-5.71,2.79l-9.71.13-9.05-2.37c-.63-.71-2.16-1.34-2.89-2.96.29-.68,1.14-1.23,1.62-1.86,6.38-.61,11.65-2.89,17.48-5.79,2.96-1.47,7.18-2.18,8.62-5.84,1.41.21,1.81-.94,2.09-1.32l2.98-4.08c4.15-4.27,7.38-8.96,10.08-14.21.97-1.89,2.11-3.9,2.54-6.69-1.82-1.32-3.88-2.32-5.1-4.19l-3.58-13.51c2.34-2.23,5.06,2.31,11.41,1.99Z"/>
    <path class="cls-9" d="M162.05,525.27c-.43,9.65.59,19.19,3.02,29.13,2.27,9.3,3.4,20.22,8.82,25.35,1.46,1.38,2.18-.18,3.39-.29-.48.63-1.33,1.19-1.62,1.86.73,1.62,2.26,2.25,2.89,2.96,3.28,3.73,7.74,5.15,12.52,6.83,6.18,2.17,12.05,2.95,18.23,1.19l-1.37,1.37c-.68.68.71,1.48.98,1.98-2.61,8.77-19.19,7-29.1,3.51-1.27-.45-2.15-2.14-3.37-2.18-1-.03-1.83-.95-2.56-1.51.23-.97-.15-1.4-1.01-2.29-5-5.19-9.6-10.9-11.94-17.83-2.01-5.94-4.39-11.76-5.07-18.15-1.01-9.42.75-27.4,3.2-37.2l.49,2.95c.24,1.46.98,2.47,2.51,2.31Z"/>
    <path class="cls-9" d="M249.81,536.84c-.54-1.03-2.56-1.38-3.63-1.16-6.91,1.37-14.21,1.56-21.26.26-1.68-4.86,6.55.35,12.89-3.99,2.61-1.78,6.43-.72,8.67-3.01.93-.95,2.44-1.51,2.14-3.31l-3.07.04c-6.8,1.77-14.1,2.06-20.95.6-.07-1.64.98-.63,1.24-.95.49-.61-.23-1.1-.63-1.21l-2.53-.72c1.17-.47,2.42-.61,2.7-1.88,2.51-.14,5,.47,7.85.36l9.89-.41c1.36-.06,2.44-.03,3.12-1.29.42-.77,1.71-2.2-.07-2.84-1.53-.55-3.56-.47-5.47-.09-5.09,1-9.77.34-14.47.21l-.03-.79c1.68.06,1.95-1.2,3.23-1.33l8.32-.88c2.51-.27,4.48-3.39,5.48-5.8l.54-1.29c.12-.3-.52-.76-.8-1.1,4.94-1.28,9.22-4.42,13.9-6.46-2.26,4.59-4.12,9.66-4.92,15.26.22,1.14,2.02,2.68,3.75,3.26-.67,6.06-2.89,13.24-5.87,18.56Z"/>
    <path class="cls-11" d="M232.49,418.17c.25-.04,1.24.52,1.16.93l-3.75,21.75c-1.91,11.11-4.22,21.81-2.95,32.74-.73.17-1.32.98-.57,2.26-1.56.85-3.45.35-4.91-.48.79-.51,2.12-.29,2.31-1.18.85-3.95-3.32-4.29-6.01-7.56.36-.66,1.61-1.73,1.53-2.57,1.84-1.28,3.28-5.16,3.94-7.86-3.05-4.03-13.47-5.77-14.65-5.43-1.12.63-2.68-1.03-.48-1.22.4-.37-.35-1.26-.41-1.79.22.06.58-.22.91.11.46.46.73.85,1.17,1.05.85.4,1.59-.46,2.11-.5l10.78-.77,8.08-27.74c.13-.45.23-1.54.59-1.77.32-.2.7-.31,1.14,0Z"/>
    <path class="cls-2" d="M213.9,502.44c.37.74,1.2.98,1.89,1.32,2.02,1.01,4.02,2.43,6.65,2.99,6.86,1.44,13.99,1.17,20.51-.52.28.34.92.81.8,1.1l-.54,1.29c-1,2.41-2.97,5.54-5.48,5.8l-8.32.88c-1.28.14-1.55,1.39-3.23,1.33-9.39-.33-18.33-4.16-16.69-10.71.33-1.32,1.47-3.19,2.94-3.88.46-.06,1.3.07,1.46.39Z"/>
    <path class="cls-2" d="M232.3,487.84c4.79,1.73,9.32-2.68,7.79,2.27-6.59,7-14.69,4.18-15.59,14.65-1.82-.32-3.81.44-5.56-1.37-1.13-1.18-1.72-3.41-2.26-5.39-1.11-2.94-1.29-6.07-1.05-9.22.09-1.18.57-2.4.12-3.62-.17-.72.74-1.05,1.04-1.33.89-.8.4-1.94.52-2.71,2.62,5.58,9.86,6.61,14.99,6.72Z"/>
    <path class="cls-2" d="M168.69,490.07l-3.13,11.73-.36,12.39c-.34,11.83,2.46,23.32,10.1,32.37,1.01,1.19,2.87,2.38.88,4.29-5.2-5.99-9.22-12.5-11.94-19.77l-.98-4.75c-1.71-12.01-.77-24.42,2.43-36.24.24-.88-.05-1.63,1.21-1.35.69.15,1.25.39,1.8,1.33Z"/>
    <path class="cls-13" d="M219.3,464.07c.08.84-1.17,1.91-1.53,2.57,2.7,3.26,6.86,3.6,6.01,7.56-.19.89-1.51.67-2.31,1.18-1.77,1.14-3.05,2.92-3.36,4.81-.49.06-.74.5-.8.95-.12.77.37,1.91-.52,2.71-1.75-1.02-3.72-2.66-3.63-5.03l.34-8.61c.14-3.66,2.75-5.48,5.79-6.12Z"/>
    <path class="cls-9" d="M177.25,468.24c-.79,1.1-1.8,1.84-2.34,3.31-2.34,6.38-4.58,12.37-6.22,18.52-.55-.94-1.11-1.18-1.8-1.33-1.26-.27-.97.48-1.21,1.35-.55-1.04-.71-1.77-2.08-1.98.9-5.85,6.25-11.14,5.4-17.57,2.5-1.65,5.67-1.11,8.24-2.3Z"/>
    <path class="cls-13" d="M165.68,490.1c-3.2,11.82-4.14,24.22-2.43,36.24l-1.2-1.06c-1.53.16-2.27-.85-2.51-2.31l-.49-2.95c0-7.13,1.95-15.06,3.12-22.62l1.44-9.28c1.36.21,1.53.94,2.08,1.98Z"/>
    <path class="cls-2" d="M222.16,517.31c-.1.6.52,1.25.77,1.65-.21,1.27,1.49,2.46,2.44,2.54-.28,1.27-1.53,1.41-2.7,1.88l2.53.72c.41.12,1.13.61.63,1.21-.26.33-1.31-.69-1.24.95-.23.1-.8.14-.81-.44-6.35.32-9.07-4.22-11.41-1.99-.08-.29.18-.92.99-1.34-2.34-1.36-3.39-4.93-1.27-7.85,2.74.79,6.65,2.56,10.06,2.66Z"/>
    <path class="cls-8" d="M246.16,517.31c1.12,3.61-10.55,4-18.43,2.49-1.55-.3-3.64.68-4.79-.84-.26-.4-.87-1.05-.77-1.65l4.05.12c4.7.14,9.38.79,14.47-.21,1.92-.38,3.95-.46,5.47.09Z"/>
    <path class="cls-8" d="M215.63,488.78c-1.59,3.11-3.28,6.45-3.13,10.02-2.3-.71-3.61-2.8-3.36-5.62.36-4.06,3.43-6.4,6.61-8.02.45,1.22-.03,2.44-.12,3.62Z"/>
    <path class="cls-11" d="M208.44,562.42l-2.98,4.08c-1.11.77-1.99.32-3.31-.34l-8.11-4.08c5.1-1.02,9.68.13,14.39.33Z"/>
    <path class="cls-4" d="M216.68,497.99c-2.21.38.51,3.23-.89,5.77-.69-.34-1.52-.58-1.89-1.32.71-.99,1.55-2.11.87-3.56-.7.11-.79.85-.66,1.19.09.24-.49.5-.73.44-.69-.23-.86-1.1-.88-1.7-.15-3.57,1.54-6.91,3.13-10.02-.24,3.15-.07,6.28,1.05,9.22Z"/>
    <path class="cls-5" d="M218.52,548.21l-2.57-10.87c1.22,1.87,3.28,2.87,5.1,4.19-.43,2.78-1.57,4.79-2.54,6.69Z"/>
    <path class="cls-4" d="M213.9,502.44c-.16-.32-1-.45-1.46-.39.27-.39.78-1.06.94-1.54.23.06.82-.2.73-.44-.13-.34-.03-1.08.66-1.19.68,1.45-.16,2.57-.87,3.56Z"/>
    <path class="cls-2" d="M239.55,399.28l-2.35,22.32c-.27,2.56-1.63,5.5.9,7.43l2.47-6.7c1.35-3.66,1.48-8.34,5.58-10.6l-4.19,17.44-2.37,22.91c-.43,4.17-.74,7.77,1.26,11.51-1.25,1.55-3.69,4.12-.56,6.63-1.68-.53-2.07.7-2.04,1.3-7.33-.49-11.48,7.07-11.3,2.06-1.27-10.93,1.04-21.63,2.95-32.74l3.75-21.75c.07-.41-.91-.97-1.16-.93,1.54-1.54.15-5.01,1.1-6.98,2.01-4.19,2.99-7.65,3.72-12.14l2.24.23Z"/>
    <path class="cls-2" d="M259.51,459.84c-.29,1.1-1.08,1.36-2.3,2.37l-5.85-3.02c-2.57-1.32-2.95-8.44-6.05-10.31-.2-1.18-.56-2.55-.18-4.25,1.53-6.78,1.91-13.8,6.34-20.09,1.22,3,2.62,5.66,5.52,7.52-1.92,9.69-1.16,19.15,2.53,27.78Z"/>
    <path class="cls-3" d="M251.35,459.19c-1.02.12-1.83-.25-2.7-.11,1.67,4.19.48,7.88-2.43,10.03-2.55.71-5.31,2.61-7.98,2.43-.03-.59.36-1.82,2.04-1.3-3.13-2.51-.69-5.08.56-6.63.93-1.15,1.95-2.25,2.33-4.18l2.12-10.55c3.11,1.87,3.49,8.99,6.05,10.31Z"/>
    <path class="cls-2" d="M268.28,460.88c-1.27.47-2.24,1.47-1.83,2.68-.8-.18-1.62-.17-2.47-.02l-1.65-2.07c.06-1.16-.13-2.54.68-3.87,2.45.76,3.7,2.41,5.28,3.28Z"/>
    <path class="cls-9" d="M262.32,461.47l1.65,2.07-2.31.42c-2.22.4-3.23-1.13-4.46-1.77,1.22-1.01,2.01-1.26,2.3-2.37.36.83.42,1.83.97,1.98.8.21,1.29-.13,1.85-.35Z"/>
    <path class="cls-11" d="M311.69,632.99l2.89-2.36c.61.95.29,1.91.1,2.21-.27.46-1.4.83-3,.15Z"/>
    <path class="cls-5" d="M227.06,278.42c-.05,1.34-1.58.1-1.74,1.78,4.76.3,9.69.48,13.97-.9,2.29-.74,4.22.83,6.51,1.13.32.56-.03,1.5-.95,1.66-.57.1-1.04.05-1.83-.47-1.7-1.25-3.52-.69-5.45-.41l-9.78,1.42c-2.43.35-4.5,2.18-6.31,2.97-.81.43-1.73.03-1.72-.45l-.06-2.31c1.73-1.18,2.82-2.3,4.14-3.63.91-.91,2.11-1.96,3.31-2.52-.04.35-.62.83-.9,1.27-.13.19.55.59.81.45Z"/>
    <path class="cls-4" d="M240.18,277.78c-.43.1-1.1,1.05-.89,1.51-4.28,1.38-9.2,1.2-13.97.9.16-1.68,1.69-.44,1.74-1.78l.61-.04c1.46-.05,2.96.3,4.33-.62.7-.47,2.21-.35,3.11-1.05-.68,1.81,1.16,1.32,5.06,1.08Z"/>
    <path class="cls-8" d="M239.07,274.46c.09.38.13.86-.02,1.13-.3.53-1.14.04-1.46.06l-2.07.14c-.31.02-.6.46-.41.92-.9.7-2.41.57-3.11,1.05-1.51-.25-3.51-.65-4.33.62l-.61.04c-.26.14-.94-.26-.81-.45.28-.43.86-.92.9-1.27,7.6-3.53,10.06-1.27,11.92-2.23Z"/>
    <path class="cls-10" d="M240.18,277.78c-3.91.25-5.75.73-5.06-1.08-.2-.46.1-.9.41-.92l2.07-.14c.32-.02,1.15.47,1.46-.06.15-.27.11-.74.02-1.13.54-.28,1.88-.3,2.61.08.52.27.67,1.29.19,2.09-.44.74-.84.96-1.7,1.15Z"/>
    <path class="cls-8" d="M289.77,315.14c.61,2.07-.73,3.82-1.53,5.86l-7.17,18.15c-2.91-4.39-8.65-5.86-12.37-3.69,1.98-2.29,2.2-5.68,3.74-8.51l9.32-17.07c3.29,1.42,5.88,3,8.01,5.25Z"/>
    <path class="cls-8" d="M255.94,360.34l5.75-11.95c2.19,1.22,7.39,1.44,7.88,5.03.81,5.84-6.91,10.83-12.12,8.95-.8-.29-.74-1.16-.6-1.49.12-.27-.49-.7-.92-.54Z"/>
    <path class="cls-2" d="M169.01,470.54c.84,6.43-4.5,11.72-5.4,17.57l-1.44,9.28c-1.17,7.56-3.13,15.49-3.12,22.62-2.44,9.8-4.21,27.79-3.2,37.2.69,6.39,3.07,12.2,5.07,18.15,2.34,6.93,6.94,12.64,11.94,17.83.85.89,1.23,1.32,1.01,2.29-6.15-4.67-11.23-10.64-15.35-17.81-3.92-6.83-3.19-15.08-6.27-22.98-1.24,6.01.98,11.63.61,17.41l-.61,9.45.38,2.96c1.11,8.6.33,17.6,3.87,25.74.3.7.95,1.6.64,2.43-.18.49-.96.82-1.84.54-4.66-6.81-3.95-13.01-7.2-18.6-1.08-1.86-.92-4.02-.89-6.44l.14-12.87.09-19.9,2.06-17.99c1.64-14.33,5.62-48.22,10.74-56.27,1.1-1.73,1.05-3.5-.13-4.83,2.02.12,1.44-3.84,4.75-4.7,1.28-.33,3.03-.37,4.13-1.1Z"/>
    <path class="cls-9" d="M163.75,658.84c-6.66-11.32-13.99-22.56-14.79-36.83-.16-2.8-.54-5.35,1.53-7.21,2.04.36,4.32,2.67,5.6,4.95,7.5,13.36,19.13,23.22,34.23,26.81,13.27,3.16,28.63-5.28,39.14-15.68,3.43,9.43,1.04,19.08,6.58,21.93l-12.21,11.74c-16.08,13.43-37.63,13.62-53.84.76-2.72-2.16-4.75-3.94-6.24-6.47Z"/>
    <path class="cls-9" d="M218.86,604.54l4.6-2.28,5.28-4.35c-.97.85-1.48,2.48-3.58,3.39,4.56,6.61,6.16,20.89,1.46,25.23-14.76,13.61-33.47,17.45-50.71,7.34-9.11-5.35-14.99-12.46-20.6-20.65.87.28,1.65-.05,1.84-.54.31-.83-.34-1.74-.64-2.43-3.54-8.14-2.76-17.13-3.87-25.74l-.38-2.96c.66.83.59,2.5,1.39,2.53l4.27.17c10.14,18.48,19.27,30.59,41.82,30.01,7.64-.2,14.12-4.34,19.14-9.72Z"/>
    <path class="cls-8" d="M253.83,645.3c-.23.53-.21,1.37.25,1.49l2.65.69,3.31,26.8c.06.52-.23,2.04.29,2.36.32.2.96-.7,1.35-.73.01.39.12.89-.07,1.21-.42.67-.93.23-1.43.19l-12.8-.86c-.15-2.05,1.86-2.8,3.27-3.71l-.74-23.23-.3-5.13c1.22,1.22,2.7.87,4.21.93Z"/>
    <path class="cls-11" d="M232.78,589.79c-1.53,1.2-3.21,3.59-4.06,5.47.43.17,1.63.39,1.73,1.15l-1.72,1.5-5.28,4.35-4.6,2.28c-10.21,5.06-21.24,6.28-31.55.82-1.93-1.02-4.78-1.06-5.32-3.46,13.19,3.86,22.25,5.23,35.32-3.22,4.89-3.16,8.82-7.36,12.72-11.63,1.58.78,1.84,1.16,2.76,2.75Z"/>
    <path class="cls-8" d="M243.13,603.71c.61.25.34,1.95.58,2.47,5.92,3.85.31,10.28,5.83,11.8l.03,14.93c-.77.27-1.16.95-.96,2.5-1.13-.16-2.11-.86-3.43-1.32.94-1.61-.73-3.9-1.01-5.63l-2.17-13.41c-4.39,2.35-4.63,7.94-9.34,7.35l6.59-15.7c.89-2.12-.06-4.94-.35-6.76.47-.22.92-.3,1.2.19.45.78-.06,1.62-.08,1.95s.66.51.98.52c.36.01.94-.28,1.01-.78.03,1.3.43,1.6,1.12,1.88Z"/>
    <path class="cls-12" d="M244.38,587.49c-.17,5.39.26,10.92-1.24,16.22-.7-.28-1.09-.58-1.12-1.88-.06.5-.65.79-1.01.78-.32-.01-1-.2-.98-.52s.53-1.17.08-1.95c-.28-.49-.73-.41-1.2-.19-.28-1.76-1.27-4.09-2.7-5.52-2.5.39-4.34,1.45-5.75,2-.1-.76-1.3-.98-1.73-1.15.85-1.89,2.53-4.28,4.06-5.47,3.22-2.53,5.83-5.44,8.54-9.38,2.47,1.8,3.14,4.59,3.06,7.07Z"/>
    <path class="cls-11" d="M146.31,575.2c.34.1.7.14,1.05.11l-.14,12.87c-.03,2.43-.19,4.58.89,6.44-3.55,3.32-.32,8.28-3.15,8.56-.8-1.2-1.06-2.72-.1-4.77l-.43-5.74c1.2-1.82,1.45-2.31.5-4.03-2.64-4.78,2.04-15.05-3.81-12.44-.65-1.6.06-1.74,1.32-2.14.65-.21,1.08.63,1.33,1.21,1.41-.77.83.25.67.57-.11.23,1.45.4,1.49.01.03-.25.15-.2.38-.65Z"/>
    <path class="cls-5" d="M249.62,638c-4.76.91-4.94,8.16-9.2,8.99,1.63-4.74,2.51-9.07,4.76-12.91,1.32.46,2.3,1.16,3.43,1.32-.21-1.55.18-2.24.96-2.5l.05,5.1Z"/>
    <path class="cls-13" d="M96.64,656.6c-.56.07-.68-.27-.82-.44-.51-.66-1.1.14-1.19.26-1.1-1.59-2.9-3.09-4.51-3.36-1.59-.26-3.49-2.4-3.9-5.05l7.85,6.43c.85.7,2.35.85,2.57,2.16Z"/>
    <path class="cls-4" d="M96.64,656.6v.78s0,1.17,0,1.17c0,.64-.81.51-.71.07.08-.35-.09-1.84-1.24-.48l-4.61-3.89c-.13-.16-.07-.69.03-1.2,1.6.27,3.4,1.77,4.51,3.36.1-.12.68-.93,1.19-.26.13.17.26.51.82.44Z"/>
    <path class="cls-4" d="M147.45,555.42l-.09,19.9c-.35.02-.71-.01-1.05-.11l-.65-1.48c.18-2.67-.37-5.28-.46-8.23l-.32-10.28-.04-5.66,2.62,5.86ZM146.93,564.44c0-1.53-1.54-1.16-1.44-.81s.26.98-.03,1.59c-.16.33,1.47.86,1.46-.78Z"/>
    <path class="cls-6" d="M144.88,555.22l.32,10.28c.09,2.95.64,5.56.46,8.23-.27-.04-.79.16-1.13-.02-.51-.26-1.42-11.44-1.14-18.35.37-.28,1.18-.18,1.49-.14Z"/>
    <path class="cls-11" d="M122.17,517.68l-2.29-.31-2.15-9.64-2.32-6.61c.66-.66,1.09-.52,1.41-.19.45.48,1.36,1.66,1.36,2.13.01,6.32,6.3,5.77,4.51,11.99-.18.63,1.13,2.25-.52,2.63Z"/>
    <path class="cls-6" d="M236.7,290c-1.43,1.47-3.22,1.98-4.36,1.75-2.04-.4-2.43-2.15-2.46-3.36-.06-2.38,1.03-3.65,3.3-4,1.41-.22,3.33-.42,3.91.44,1.1,1.62,1.1,3.65-.38,5.17Z"/>
    <path class="cls-5" d="M221.48,285.6c-.93,1.93-1.88,3.32-1.1,5.26-.26-.46-.77-1.34-1.43-1.2-.08-.86-.68-1.41-1-2.04.32-1.53.44-3.88,1.75-4.77l.06,2.31c-.02.48.91.88,1.72.45Z"/>
    <path class="cls-6" d="M217.95,287.62c.32.64.92,1.18,1,2.04.06.6-.71,1.97-.51,2.46.62,1.51.61,3.78-.31,5.65-1.01.11-1.63,1.04-1.56.15.04-.44.6-1.39-.43-2.26-1.09,1.97-1.01,4.15-.13,6.4-.88,1.77-1.63,3.48-3.09,5.16-3.36-13.43,1.17-27.34,5.03-19.6Z"/>
    <path class="cls-6" d="M218.13,297.77l-2.12,4.29c-.88-2.26-.97-4.43.13-6.4,1.03.87.47,1.81.43,2.26-.07.89.56-.04,1.56-.15Z"/>
    <path class="cls-6" d="M249.67,584.73c-1.28,1.39-1.35,3.72-.52,5.95-2.61-.4-3.56-1.74-4.78-3.19.08-2.48-.58-5.27-3.06-7.07-2.71,3.94-5.32,6.85-8.54,9.38-.92-1.58-1.18-1.97-2.76-2.75l1.11-1.22,5.57-7.29c-3.13-.09-4.48,2.21-6.42,3.36-6.21.3-11.26,3.59-16.94,6.29l-11.53,2.16c-2.93-.33-6.48.87-9.25-1.45-1.4-1.17-3.48-1.79-4.97-2.24l9.71-.13,7.76-.5,2.6-1.84c-.07.36-.35,1.05.11,1.54,20.97-7.34,30.06-16.91,39.51-36.02.82-1.65.55-3.8-.01-5.42.31-.58,1.48-1.05,1.56-1.96l12.78-7.99c1.15-1.02,1.72-.75,2.4-.78,4.71-.26,7.75-5.05,10.75-8.64,5.95-7.13,8.06-16.48,6.56-25.51-1.56-.96-2.75-2.73-3.47-4.06-1.38-2.54-3.07-5.22-5.2-7.07-.54-1.26,1.37-1.8,1.62-2.32.03-1.12-2.19-2.24-1.53-3.41,16.23,12.34,17.9,36,3.2,50.82l-9.21,9.29c-12.81,9.96-17,26.51-17.06,42.08Z"/>
    <path class="cls-6" d="M259.12,472.33c.35,1.06,1.57,1.9,2.87,2.04l10.75,8.17c-.66,1.17,1.56,2.29,1.53,3.41-.25.51-2.15,1.06-1.62,2.32-2.72-2.36-6.32-4.06-10.01-5.02-1.44,6.42-3.31,11.45-5.8,16.51-4.67,2.05-8.95,5.18-13.9,6.46-6.52,1.69-13.65,1.96-20.51.52-2.63-.55-4.63-1.98-6.65-2.99,1.4-2.53-1.32-5.39.89-5.77.54,1.97,1.13,4.21,2.26,5.39,1.74,1.81,3.74,1.05,5.56,1.37,2.68.47,7.04,1.64,8.83-1,6.92-.74,13.38-3.94,17.81-9.73l-.13-11.94c-.02-1.41,1.61-2.98.81-4.88-9.56.84-18.61,6.36-28.8,3.14-1.88-.59-3.27-1.24-4.9-.17.3-1.89,1.59-3.66,3.36-4.81,1.46.83,3.35,1.33,4.91.48-.74-1.27-.16-2.08.57-2.26-.18,5.01,3.96-2.55,11.3-2.06,2.67.18,5.43-1.72,7.98-2.43,1.53-.42,2.86-1.52,3.87-2.71,2.72,1.51,4.4,4.74,9.03,5.93Z"/>
    <path class="cls-6" d="M249.55,617.97c-5.52-1.52.08-7.95-5.83-11.8-.24-.52.03-2.22-.58-2.47,1.5-5.29,1.07-10.82,1.24-16.22,1.22,1.45,2.16,2.79,4.78,3.19-.82-2.23-.76-4.56.52-5.95l-.13,33.24Z"/>
    <path class="cls-5" d="M251.35,459.19l5.85,3.02c1.23.63,2.24,2.17,4.46,1.77.26,1.13,2.46.97,2.24,3.09-4.16-2.42-8.94-3.78-13.33-2.6-.17.5-.19,1.61-.48,1.94-1.02,1.19-2.35,2.29-3.87,2.71,2.91-2.15,4.1-5.84,2.43-10.03.87-.14,1.68.23,2.7.11Z"/>
    <path class="cls-3" d="M272.65,488.27c2.14,1.86,3.82,4.54,5.2,7.07,1.76,14.93-2.75,25.25-13.23,36.25-.85.89-3.13,1.05-3.01,2.74l-12.78,7.99c-2.53,1.58-5.28,1.75-8.24,2.25,1.21-1.03,3.81-2.43,5.77-3.22,1.17-.1.36-1.11.07-1.41l2.62-.94c.84-.3.47-1.67.75-2.16,2.98-5.31,5.21-12.5,5.87-18.56-1.73-.58-3.53-2.12-3.75-3.26.8-5.61,2.66-10.68,4.92-15.26,2.49-5.06,4.36-10.08,5.8-16.51,3.68.95,7.29,2.65,10.01,5.02Z"/>
    <path class="cls-3" d="M246.44,539.94c.29.3,1.09,1.31-.07,1.41-1.95.79-4.56,2.19-5.77,3.22l-1.79.44c-.68.17-.95,1.55.22,2.17s2.01,1.36,3.11,2.4c-6.26,15.1-17.51,26.51-31.93,33.11-2.59.02-4.52,1.88-7.18,1.05l18.69-12.03c-.69-2.39-.23-3.81.37-5.12,3.91,2.71,9.28-6.85,13.11-13.62l2.02-5.88c-.43-.42-.43-.78-1.62-1.33-2.74-.51-5.58-1.09-8.02-2.81l6.26-1.11,12.6-1.89Z"/>
    <path class="cls-9" d="M237.22,547.09l-2.02,5.88c-3.83,6.76-9.2,16.33-13.11,13.62l3.37-7.33c2.02-4.4,3.64-8.48,3.2-13.11l8.56.95Z"/>
    <path class="cls-8" d="M187.61,586.66c1.49.45,3.57,1.07,4.97,2.24,2.77,2.31,6.32,1.12,9.25,1.45,3.25.36,6.14.39,10.08-.66l-2.6,2.64c-6.17,1.75-12.04.98-18.23-1.19-4.78-1.68-9.23-3.11-12.52-6.83l9.05,2.37Z"/>
    <path class="cls-5" d="M245.07,528.52c-6.39,1.36-14.2,3.07-20.73.54l-2.1-.81c-.52-.2-.85-.62-.51-1.13.63-.96,1.14-1.13,2.05-1.29.01.58.59.54.81.44,6.85,1.45,14.15,1.17,20.95-.6.02.97-.16,1.89-.47,2.86Z"/>
    <path class="cls-11" d="M224.91,535.94c7.06,1.31,14.35,1.11,21.26-.26.16.72-.3,1.92-1.32,2.1-8.05,1.48-22.46,2.64-25.4-3,2.16-.31,3.65.82,5.45,1.15Z"/>
    <path class="cls-4" d="M210.21,582.68l-2.53,1.51-2.6,1.84-7.76.5c1.06-1.53,3.82-3.39,5.71-2.79,2.66.83,4.59-1.03,7.18-1.05Z"/>
    <path class="cls-4" d="M237.22,547.09l-8.56-.95c-.4-.75-2.4-1.52-1.08-3.2,2.44,1.72,5.28,2.3,8.02,2.81,1.18.55,1.19.91,1.62,1.33Z"/>
    <path class="cls-2" d="M246.47,528.93l-1.4-.41c.31-.97.5-1.9.47-2.86l3.07-.04c.3,1.8-1.21,2.36-2.14,3.31Z"/>
    <path class="cls-13" d="M173.87,595.49c.73.56,1.56,1.48,2.56,1.51-.21,1.05,1.43,1.54,1.93,2.02.84,1.46,2.17,2.46,3.62,2.88.54,2.4,3.39,2.43,5.32,3.46,10.31,5.46,21.34,4.24,31.55-.82-5.02,5.38-11.5,9.53-19.14,9.72-22.54.58-31.68-11.53-41.82-30.01l-4.27-.17c-.8-.03-.73-1.7-1.39-2.53l.61-9.45c.38-5.78-1.85-11.4-.61-17.41,3.08,7.9,2.35,16.15,6.27,22.98,4.12,7.17,9.2,13.14,15.35,17.81Z"/>
    <path class="cls-2" d="M215.54,590.48c.44.08,1.08-.24,1.42-.11.19.08,2.09,6.22.35,8.31-13.07,8.45-22.12,7.08-35.32,3.22-1.45-.42-2.78-1.42-3.62-2.88-.5-.48-2.14-.97-1.93-2.02,1.22.04,2.11,1.73,3.37,2.18,9.91,3.5,26.49,5.27,29.1-3.51-.27-.5-1.66-1.31-.98-1.98l1.37-1.37,6.25-1.84Z"/>
    <path class="cls-2" d="M225.37,521.49c-.95-.08-2.65-1.27-2.44-2.54,1.14,1.52,3.24.55,4.79.84,7.88,1.51,19.56,1.12,18.43-2.49,1.78.64.49,2.07.07,2.84-.68,1.26-1.76,1.23-3.12,1.29l-9.89.41c-2.85.12-5.34-.5-7.85-.36Z"/>
    <path class="cls-8" d="M251,482.08l-13.07,4.4c-1.9.67-3.39,1.58-5.63,1.36-5.13-.11-12.37-1.14-14.99-6.72.07-.44.32-.89.8-.95,1.64-1.08,3.02-.43,4.9.17,10.19,3.22,19.24-2.3,28.8-3.14.8,1.9-.83,3.48-.81,4.88Z"/>
    <path class="cls-7" d="M251,482.08l.13,11.94c-4.43,5.79-10.89,8.99-17.81,9.73,2.77-4.11,11.25-7.33,6.77-13.65,1.53-4.94-2.99-.53-7.79-2.27,2.24.23,3.73-.69,5.63-1.36l13.07-4.4Z"/>
    <path class="cls-9" d="M233.32,503.75c-1.78,2.64-6.15,1.47-8.83,1,.9-10.47,9-7.65,15.59-14.65,4.48,6.32-3.99,9.54-6.77,13.65Z"/>
    <path class="cls-5" d="M232,277.76c-1.37.92-2.88.57-4.33.62.82-1.27,2.82-.87,4.33-.62Z"/>
    <path class="cls-3" d="M229.05,584.07c.44.12,1.54.2,1.95.53.22.18.03.91.14,1.23l-1.11,1.22c-3.9,4.27-7.82,8.47-12.72,11.63,1.74-2.09-.15-8.24-.35-8.31-.34-.13-.97.19-1.42.11l13.5-6.41Z"/>
    <path class="cls-4" d="M146.93,564.44c0,1.64-1.62,1.11-1.46.78.29-.61.13-1.24.03-1.59s1.43-.72,1.44.81Z"/>
    <path class="cls-12" d="M207.68,584.19l2.53-1.51c14.42-6.59,25.67-18.01,31.93-33.11-1.1-1.04-1.97-1.8-3.11-2.4s-.9-2-.22-2.17l1.79-.44c2.95-.5,5.71-.66,8.24-2.25-.08.92-1.24,1.39-1.56,1.96.56,1.62.83,3.77.01,5.42-9.44,19.1-18.54,28.68-39.51,36.02-.46-.49-.17-1.18-.11-1.54Z"/>
    <path class="cls-11" d="M261.61,534.33c-.12-1.69,2.16-1.85,3.01-2.74,10.48-11,14.99-21.32,13.23-36.25.72,1.33,1.91,3.1,3.47,4.06,1.5,9.03-.61,18.38-6.56,25.51-3,3.59-6.04,8.38-10.75,8.64-.68.04-1.26-.23-2.4.78Z"/>
    <path class="cls-11" d="M230.29,581.9c-.52.71-1.14,1.3-1.25,2.17l-13.5,6.41-6.25,1.84,2.6-2.64c-3.94,1.05-6.83,1.03-10.08.66l11.53-2.16c5.69-2.69,10.73-5.98,16.94-6.29Z"/>
    <path class="cls-5" d="M231.13,585.83c-.11-.32.08-1.05-.14-1.23-.41-.33-1.5-.41-1.95-.53.11-.87.72-1.45,1.25-2.17,1.94-1.16,3.29-3.45,6.42-3.36l-5.57,7.29Z"/>
  </g>
</svg>