<?xml version="1.0" encoding="UTF-8"?>
<svg id="Réteg_1" data-name="Réteg 1" xmlns="http://www.w3.org/2000/svg" viewBox="0 0 1920 1080">
  <defs>
    <style>
      .cls-1 {
        letter-spacing: 0em;
      }

      .cls-2 {
        letter-spacing: 0em;
      }

      .cls-3 {
        letter-spacing: .01em;
      }

      .cls-4 {
        letter-spacing: 0em;
      }

      .cls-5, .cls-6, .cls-7, .cls-8, .cls-9, .cls-10, .cls-11 {
        stroke-miterlimit: 10;
      }

      .cls-5, .cls-6, .cls-7, .cls-8, .cls-9, .cls-11 {
        stroke: #000;
      }

      .cls-5, .cls-8 {
        stroke-width: .25px;
      }

      .cls-12 {
        letter-spacing: 0em;
      }

      .cls-13 {
        letter-spacing: 0em;
      }

      .cls-14 {
        letter-spacing: 0em;
      }

      .cls-15 {
        letter-spacing: -.01em;
      }

      .cls-6 {
        fill: #fff;
      }

      .cls-7 {
        fill: #332b2b;
      }

      .cls-16 {
        letter-spacing: -.02em;
      }

      .cls-8 {
        fill: #282828;
      }

      .cls-17 {
        letter-spacing: 0em;
      }

      .cls-18 {
        letter-spacing: .01em;
      }

      .cls-19 {
        letter-spacing: 0em;
      }

      .cls-20 {
        font-size: 21px;
      }

      .cls-20, .cls-21 {
        font-family: MyriadPro-Regular, 'Myriad Pro';
      }

      .cls-22 {
        letter-spacing: .02em;
      }

      .cls-23 {
        letter-spacing: 0em;
      }

      .cls-24 {
        letter-spacing: 0em;
      }

      .cls-25 {
        letter-spacing: .03em;
      }

      .cls-9 {
        fill: #5e5555;
      }

      .cls-26 {
        letter-spacing: 0em;
      }

      .cls-27 {
        letter-spacing: .02em;
      }

      .cls-28 {
        letter-spacing: 0em;
      }

      .cls-29 {
        letter-spacing: .02em;
      }

      .cls-30 {
        letter-spacing: 0em;
      }

      .cls-31 {
        letter-spacing: .02em;
      }

      .cls-32 {
        letter-spacing: .01em;
      }

      .cls-33 {
        letter-spacing: 0em;
      }

      .cls-34 {
        letter-spacing: 0em;
      }

      .cls-10 {
        fill: none;
        stroke: #dfdbd1;
        stroke-width: 3px;
      }

      .cls-35 {
        letter-spacing: .02em;
      }

      .cls-21 {
        font-size: 12px;
      }

      .cls-11 {
        fill: #9e822a;
      }

      .cls-36 {
        letter-spacing: 0em;
      }

      .cls-37 {
        letter-spacing: 0em;
      }

      .cls-38 {
        letter-spacing: -.01em;
      }

      .cls-39 {
        letter-spacing: 0em;
      }

      .cls-40 {
        letter-spacing: -.04em;
      }

      .cls-41 {
        letter-spacing: 0em;
      }

      .cls-42 {
        letter-spacing: 0em;
      }

      .cls-43 {
        letter-spacing: .02em;
      }

      .cls-44 {
        letter-spacing: .02em;
      }
    </style>
  </defs>
  <rect class="cls-6" x="-58.87" y="-60.61" width="2094.06" height="1227.79"/>
  <rect class="cls-9" x="-3.77" width="1923.77" height="121.23"/>
  <circle class="cls-7" cx="347.77" cy="71.23" r="28.46"/>
  <rect class="cls-7" x="1203.92" y="42.77" width="198.46" height="56.92"/>
  <circle class="cls-11" cx="1437" cy="71.23" r="17.69"/>
  <rect class="cls-6" x="311.62" y="150.46" width="300" height="452.31"/>
  <rect class="cls-6" x="311.62" y="621.23" width="300" height="412.31"/>
  <rect class="cls-6" x="625.54" y="150.46" width="523.08" height="883.08"/>
  <rect class="cls-6" x="625.51" y="150.46" width="521.81" height="96.51"/>
  <rect class="cls-6" x="987" y="213.54" width="155.38" height="27.69"/>
  <rect class="cls-6" x="861.44" y="217.93" width="18.46" height="18.46"/>
  <rect class="cls-6" x="663.02" y="277.66" width="127.33" height="164.84"/>
  <rect class="cls-6" x="815.07" y="277.66" width="127.33" height="164.84"/>
  <rect class="cls-6" x="967.12" y="277.66" width="127.33" height="164.84"/>
  <rect class="cls-6" x="663.02" y="513.56" width="127.33" height="164.84"/>
  <rect class="cls-6" x="663.02" y="744.96" width="127.33" height="164.84"/>
  <rect class="cls-6" x="815.07" y="513.56" width="127.33" height="164.84"/>
  <rect class="cls-6" x="967.12" y="513.56" width="127.33" height="164.84"/>
  <rect class="cls-6" x="815.07" y="744.96" width="127.33" height="164.84"/>
  <rect class="cls-6" x="967.12" y="744.96" width="127.33" height="164.84"/>
  <text class="cls-21" transform="translate(1006.35 226.51)"><tspan class="cls-24" x="0" y="0">S</tspan><tspan x="5.99" y="0">ea</tspan><tspan class="cls-38" x="17.78" y="0">r</tspan><tspan x="21.59" y="0">ch</tspan></text>
  <text class="cls-21" transform="translate(889.9 229.24)"><tspan class="cls-36" x="0" y="0">M</tspan><tspan x="9.73" y="0">y </tspan><tspan class="cls-30" x="17.93" y="0">c</tspan><tspan x="23.23" y="0">olle</tspan><tspan class="cls-18" x="41.5" y="0">c</tspan><tspan x="47.03" y="0">tion</tspan></text>
  <text class="cls-21" transform="translate(713.04 336.78)"><tspan class="cls-27" x="0" y="0">K</tspan><tspan class="cls-2" x="6.7" y="0">á</tspan><tspan class="cls-43" x="12.48" y="0">r</tspan><tspan class="cls-14" x="16.69" y="0">t</tspan><tspan class="cls-41" x="20.77" y="0">y</tspan><tspan class="cls-33" x="26.38" y="0">a</tspan></text>
  <text class="cls-21" transform="translate(832.41 332.23)"><tspan class="cls-27" x="0" y="0">K</tspan><tspan class="cls-33" x="6.7" y="0">á</tspan><tspan class="cls-35" x="12.48" y="0">r</tspan><tspan class="cls-14" x="16.69" y="0">t</tspan><tspan class="cls-17" x="20.77" y="0">y</tspan><tspan x="26.38" y="0">a</tspan></text>
  <text class="cls-21" transform="translate(980.2 328.82)"><tspan class="cls-44" x="0" y="0">K</tspan><tspan class="cls-26" x="6.7" y="0">á</tspan><tspan class="cls-43" x="12.48" y="0">r</tspan><tspan class="cls-14" x="16.69" y="0">t</tspan><tspan class="cls-12" x="20.77" y="0">y</tspan><tspan x="26.38" y="0">a</tspan></text>
  <text class="cls-21" transform="translate(694.85 568.69)"><tspan class="cls-27" x="0" y="0">K</tspan><tspan class="cls-2" x="6.7" y="0">á</tspan><tspan class="cls-43" x="12.48" y="0">r</tspan><tspan class="cls-14" x="16.69" y="0">t</tspan><tspan class="cls-41" x="20.77" y="0">y</tspan><tspan class="cls-33" x="26.38" y="0">a</tspan></text>
  <text class="cls-21" transform="translate(849.46 558.46)"><tspan class="cls-27" x="0" y="0">K</tspan><tspan class="cls-33" x="6.7" y="0">á</tspan><tspan class="cls-35" x="12.48" y="0">r</tspan><tspan class="cls-14" x="16.69" y="0">t</tspan><tspan class="cls-17" x="20.77" y="0">y</tspan><tspan x="26.38" y="0">a</tspan></text>
  <text class="cls-21" transform="translate(1001.8 563.01)"><tspan class="cls-44" x="0" y="0">K</tspan><tspan class="cls-26" x="6.7" y="0">á</tspan><tspan class="cls-43" x="12.48" y="0">r</tspan><tspan class="cls-14" x="16.69" y="0">t</tspan><tspan class="cls-12" x="20.77" y="0">y</tspan><tspan x="26.38" y="0">a</tspan></text>
  <text class="cls-21" transform="translate(689.17 817.66)"><tspan class="cls-27" x="0" y="0">K</tspan><tspan class="cls-33" x="6.7" y="0">á</tspan><tspan class="cls-35" x="12.48" y="0">r</tspan><tspan class="cls-14" x="16.69" y="0">t</tspan><tspan class="cls-17" x="20.77" y="0">y</tspan><tspan x="26.38" y="0">a</tspan></text>
  <text class="cls-21" transform="translate(829 804.02)"><tspan class="cls-27" x="0" y="0">K</tspan><tspan class="cls-2" x="6.7" y="0">á</tspan><tspan class="cls-43" x="12.48" y="0">r</tspan><tspan class="cls-14" x="16.69" y="0">t</tspan><tspan class="cls-41" x="20.77" y="0">y</tspan><tspan class="cls-33" x="26.38" y="0">a</tspan></text>
  <text class="cls-21" transform="translate(987.02 815.39)"><tspan class="cls-31" x="0" y="0">K</tspan><tspan x="6.7" y="0">á</tspan><tspan class="cls-43" x="12.48" y="0">r</tspan><tspan class="cls-14" x="16.69" y="0">t</tspan><tspan class="cls-12" x="20.77" y="0">y</tspan><tspan x="26.38" y="0">a</tspan></text>
  <text class="cls-21" transform="translate(357.21 263.45)"><tspan class="cls-27" x="0" y="0">K</tspan><tspan x="6.7" y="0">á</tspan><tspan class="cls-35" x="12.48" y="0">r</tspan><tspan class="cls-28" x="16.69" y="0">t</tspan><tspan class="cls-17" x="20.77" y="0">y</tspan><tspan x="26.37" y="0">a nag</tspan><tspan class="cls-38" x="53.85" y="0">y</tspan><tspan x="59.39" y="0">obb képpel itt </tspan><tspan x="0" y="14.4">jelenik me</tspan><tspan class="cls-16" x="51.43" y="14.4">g</tspan><tspan x="57.96" y="14.4">. Ha a k</tspan><tspan class="cls-34" x="93.09" y="14.4">öz</tspan><tspan x="104.65" y="14.4">épső </tspan><tspan class="cls-38" x="0" y="28.8">r</tspan><tspan x="3.8" y="28.8">és</tspan><tspan class="cls-34" x="14.57" y="28.8">z</tspan><tspan x="19.62" y="28.8">en </tspan><tspan class="cls-4" x="34.83" y="28.8">r</tspan><tspan class="cls-19" x="38.7" y="28.8">á</tspan><tspan class="cls-2" x="44.39" y="28.8">visszük </tspan><tspan class="cls-17" x="0" y="43.2">v</tspan><tspan x="5.72" y="43.2">alamelyi</tspan><tspan class="cls-29" x="47.44" y="43.2">k</tspan><tspan class="cls-38" x="53.27" y="43.2">r</tspan><tspan x="57.07" y="43.2">e az ege</tspan><tspan class="cls-38" x="97.82" y="43.2">r</tspan><tspan x="101.63" y="43.2">e</tspan><tspan class="cls-23" x="107.64" y="43.2">t</tspan><tspan x="111.57" y="43.2">.</tspan></text>
  <text class="cls-21" transform="translate(353.8 696.58)"><tspan class="cls-27" x="0" y="0">I</tspan><tspan x="3.06" y="0">tt jelennek meg a</tspan><tspan class="cls-37" x="89.88" y="0">z</tspan><tspan x="94.93" y="0">ok a pac</tspan><tspan class="cls-39" x="136.01" y="0">k</tspan><tspan class="cls-22" x="141.51" y="0">-</tspan><tspan x="145.41" y="0">ek </tspan><tspan x="0" y="14.4">amiket meg</tspan><tspan class="cls-38" x="59.48" y="14.4">v</tspan><tspan x="65.14" y="14.4">ettün</tspan><tspan class="cls-32" x="92.36" y="14.4">k</tspan><tspan x="98.16" y="14.4">. Ha </tspan><tspan class="cls-1" x="119.34" y="14.4">t</tspan><tspan x="123.24" y="14.4">öbb </tspan><tspan class="cls-17" x="146.02" y="14.4">v</tspan><tspan x="151.75" y="14.4">an </tspan><tspan x="0" y="28.8">a</tspan><tspan class="cls-29" x="5.78" y="28.8">k</tspan><tspan x="11.62" y="28.8">kor </tspan><tspan class="cls-30" x="30.3" y="28.8">E</tspan><tspan x="36.13" y="28.8">gymáson elcsúszt</tspan><tspan class="cls-17" x="124.27" y="28.8">a</tspan><tspan class="cls-28" x="130.01" y="28.8">t</tspan><tspan class="cls-17" x="134.09" y="28.8">v</tspan><tspan x="139.81" y="28.8">a, </tspan><tspan x="0" y="43.2">egymás</tspan><tspan class="cls-4" x="38.92" y="43.2">r</tspan><tspan x="42.78" y="43.2">a ilel</tspan><tspan class="cls-28" x="65.59" y="43.2">t</tspan><tspan class="cls-39" x="69.67" y="43.2">v</tspan><tspan x="75.32" y="43.2">e jelenjenek me</tspan><tspan class="cls-16" x="154.1" y="43.2">g</tspan><tspan x="160.63" y="43.2">. </tspan><tspan x="0" y="57.6">(maximum 4 jelenjen meg íg</tspan><tspan class="cls-40" x="142.79" y="57.6">y</tspan><tspan x="147.97" y="57.6">, ha </tspan><tspan x="0" y="72">ennél </tspan><tspan class="cls-1" x="30.72" y="72">t</tspan><tspan x="34.62" y="72">öbb pack </tspan><tspan class="cls-41" x="83.57" y="72">v</tspan><tspan x="89.29" y="72">an a</tspan><tspan class="cls-29" x="110.06" y="72">k</tspan><tspan x="115.89" y="72">kor is 4</tspan><tspan class="cls-22" x="150.84" y="72">-</tspan><tspan x="154.74" y="72">et </tspan><tspan x="0" y="86.4">mutasson.)</tspan></text>
  <text class="cls-21" transform="translate(788.07 175.91)"><tspan class="cls-3" x="0" y="0">I</tspan><tspan class="cls-15" x="2.99" y="0">n</tspan><tspan class="cls-39" x="9.49" y="0">v</tspan><tspan x="15.14" y="0">e</tspan><tspan class="cls-17" x="21.16" y="0">n</tspan><tspan class="cls-30" x="27.77" y="0">t</tspan><tspan x="31.67" y="0">o</tspan><tspan class="cls-25" x="38.25" y="0">r</tspan><tspan class="cls-2" x="42.48" y="0">y</tspan></text>
  <g>
    <rect class="cls-6" x="1163.92" y="148.92" width="446.15" height="884.62"/>
    <rect class="cls-6" x="1185.4" y="403.85" width="127.33" height="164.84"/>
    <text class="cls-21" transform="translate(1198.48 455.01)"><tspan class="cls-44" x="0" y="0">K</tspan><tspan class="cls-26" x="6.7" y="0">á</tspan><tspan class="cls-43" x="12.48" y="0">r</tspan><tspan class="cls-14" x="16.69" y="0">t</tspan><tspan class="cls-12" x="20.77" y="0">y</tspan><tspan x="26.38" y="0">a</tspan></text>
    <rect class="cls-6" x="1321.82" y="403.85" width="127.33" height="164.84"/>
    <text class="cls-21" transform="translate(1334.9 455.01)"><tspan class="cls-44" x="0" y="0">K</tspan><tspan class="cls-26" x="6.7" y="0">á</tspan><tspan class="cls-43" x="12.48" y="0">r</tspan><tspan class="cls-14" x="16.69" y="0">t</tspan><tspan class="cls-12" x="20.77" y="0">y</tspan><tspan x="26.38" y="0">a</tspan></text>
    <rect class="cls-6" x="1458.24" y="403.85" width="127.33" height="164.84"/>
    <text class="cls-21" transform="translate(1471.32 455.01)"><tspan class="cls-44" x="0" y="0">K</tspan><tspan class="cls-26" x="6.7" y="0">á</tspan><tspan class="cls-43" x="12.48" y="0">r</tspan><tspan class="cls-14" x="16.69" y="0">t</tspan><tspan class="cls-12" x="20.77" y="0">y</tspan><tspan x="26.38" y="0">a</tspan></text>
    <rect class="cls-6" x="1185.4" y="605.64" width="127.33" height="164.84"/>
    <text class="cls-21" transform="translate(1198.48 656.8)"><tspan class="cls-44" x="0" y="0">K</tspan><tspan class="cls-26" x="6.7" y="0">á</tspan><tspan class="cls-43" x="12.48" y="0">r</tspan><tspan class="cls-14" x="16.69" y="0">t</tspan><tspan class="cls-12" x="20.77" y="0">y</tspan><tspan x="26.38" y="0">a</tspan></text>
    <rect class="cls-6" x="1321.82" y="605.64" width="127.33" height="164.84"/>
    <text class="cls-21" transform="translate(1334.9 656.8)"><tspan class="cls-44" x="0" y="0">K</tspan><tspan class="cls-26" x="6.7" y="0">á</tspan><tspan class="cls-43" x="12.48" y="0">r</tspan><tspan class="cls-14" x="16.69" y="0">t</tspan><tspan class="cls-12" x="20.77" y="0">y</tspan><tspan x="26.38" y="0">a</tspan></text>
    <rect class="cls-6" x="1458.24" y="605.64" width="127.33" height="164.84"/>
    <text class="cls-21" transform="translate(1471.32 656.8)"><tspan class="cls-44" x="0" y="0">K</tspan><tspan class="cls-26" x="6.7" y="0">á</tspan><tspan class="cls-43" x="12.48" y="0">r</tspan><tspan class="cls-14" x="16.69" y="0">t</tspan><tspan class="cls-12" x="20.77" y="0">y</tspan><tspan x="26.38" y="0">a</tspan></text>
    <rect class="cls-6" x="1185.4" y="784.44" width="127.33" height="164.84"/>
    <text class="cls-21" transform="translate(1198.48 835.59)"><tspan class="cls-44" x="0" y="0">K</tspan><tspan class="cls-26" x="6.7" y="0">á</tspan><tspan class="cls-43" x="12.48" y="0">r</tspan><tspan class="cls-14" x="16.69" y="0">t</tspan><tspan class="cls-12" x="20.77" y="0">y</tspan><tspan x="26.38" y="0">a</tspan></text>
    <rect class="cls-6" x="1321.82" y="784.44" width="127.33" height="164.84"/>
    <text class="cls-21" transform="translate(1334.9 835.59)"><tspan class="cls-44" x="0" y="0">K</tspan><tspan class="cls-26" x="6.7" y="0">á</tspan><tspan class="cls-43" x="12.48" y="0">r</tspan><tspan class="cls-14" x="16.69" y="0">t</tspan><tspan class="cls-12" x="20.77" y="0">y</tspan><tspan x="26.38" y="0">a</tspan></text>
    <rect class="cls-6" x="1458.24" y="784.44" width="127.33" height="164.84"/>
    <text class="cls-21" transform="translate(1471.32 835.59)"><tspan class="cls-44" x="0" y="0">K</tspan><tspan class="cls-26" x="6.7" y="0">á</tspan><tspan class="cls-43" x="12.48" y="0">r</tspan><tspan class="cls-14" x="16.69" y="0">t</tspan><tspan class="cls-12" x="20.77" y="0">y</tspan><tspan x="26.38" y="0">a</tspan></text>
    <rect class="cls-6" x="1596.37" y="286.76" width="11.37" height="662.52"/>
    <rect class="cls-6" x="1596.37" y="368.23" width="11.37" height="70.61"/>
    <rect class="cls-6" x="1185.4" y="981.37" width="127.33" height="36.38"/>
    <text class="cls-21" transform="translate(1205.67 999.49)"><tspan class="cls-42" x="0" y="0">D</tspan><tspan x="8.04" y="0">one</tspan></text>
    <rect class="cls-6" x="1458.24" y="981.43" width="127.33" height="36.38"/>
    <text class="cls-21" transform="translate(1478.52 999.55)"><tspan class="cls-37" x="0" y="0">C</tspan><tspan x="6.88" y="0">an</tspan><tspan class="cls-30" x="19.32" y="0">c</tspan><tspan x="24.62" y="0">el</tspan></text>
    <rect class="cls-6" x="1185.4" y="301.13" width="390.51" height="27.69"/>
    <text class="cls-21" transform="translate(1204.75 314.1)"><tspan x="0" y="0">D</tspan><tspan class="cls-12" x="7.99" y="0">E</tspan><tspan x="13.85" y="0">ck Name</tspan></text>
    <text class="cls-21" transform="translate(1342.85 186.27)"><tspan class="cls-36" x="0" y="0">M</tspan><tspan x="9.73" y="0">y D</tspan><tspan class="cls-17" x="25.92" y="0">E</tspan><tspan x="31.78" y="0">cks</tspan></text>
    <text class="cls-21" transform="translate(1346.26 986.6)"><tspan x="0" y="0">15/15</tspan></text>
    <text class="cls-20" transform="translate(1354.96 366.09)"><tspan x="0" y="0">N</tspan><tspan class="cls-13" x="13.82" y="0">e</tspan><tspan x="24.28" y="0">xus</tspan></text>
    <text class="cls-20" transform="translate(1365.59 593.61)"><tspan x="0" y="0">Units</tspan></text>
    <line class="cls-5" x1="1266.68" y1="593.85" x2="1518.94" y2="593.85"/>
    <line class="cls-5" x1="1272.56" y1="376.62" x2="1524.82" y2="376.62"/>
  </g>
  <rect class="cls-8" x="1058.26" y="981.43" width="37.14" height="31.9"/>
  <path class="cls-10" d="M1070.39,988.32l1.52,2.27,9.54,9.54-10.23,10.23"/>
  <rect class="cls-8" x="663.02" y="982.03" width="37.14" height="31.9" transform="translate(1363.18 1995.96) rotate(180)"/>
  <path class="cls-10" d="M688.03,1007.04l-1.52-2.27-9.54-9.54,10.23-10.23"/>
  <text class="cls-20" transform="translate(864.24 1002.12)"><tspan x="0" y="0">5/11</tspan></text>
  <rect class="cls-6" x="357.21" y="838.25" width="127.33" height="164.84"/>
  <rect class="cls-6" x="374.26" y="822.24" width="127.33" height="164.84"/>
  <rect class="cls-6" x="391.18" y="806.67" width="127.33" height="164.84"/>
  <rect class="cls-6" x="407.8" y="790.32" width="127.33" height="164.84"/>
</svg>