<?xml version="1.0" encoding="UTF-8"?>
<svg id="Réteg_1" data-name="Réteg 1" xmlns="http://www.w3.org/2000/svg" viewBox="0 0 1920 1080">
  <defs>
    <style>
      .cls-1 {
        opacity: .85;
      }

      .cls-2 {
        letter-spacing: 0em;
      }

      .cls-3 {
        letter-spacing: 0em;
      }

      .cls-4 {
        letter-spacing: 0em;
      }

      .cls-5 {
        letter-spacing: .01em;
      }

      .cls-6 {
        letter-spacing: 0em;
      }

      .cls-7 {
        letter-spacing: -.03em;
      }

      .cls-8 {
        letter-spacing: 0em;
      }

      .cls-9 {
        letter-spacing: -.07em;
      }

      .cls-10 {
        letter-spacing: 0em;
      }

      .cls-11 {
        letter-spacing: -.01em;
      }

      .cls-12 {
        fill: #fff;
      }

      .cls-12, .cls-13, .cls-14, .cls-15, .cls-16, .cls-17 {
        stroke-miterlimit: 10;
      }

      .cls-12, .cls-13, .cls-14, .cls-15, .cls-17 {
        stroke: #000;
      }

      .cls-13 {
        fill: #332b2b;
      }

      .cls-18 {
        letter-spacing: -.02em;
      }

      .cls-19 {
        letter-spacing: 0em;
      }

      .cls-20 {
        letter-spacing: .02em;
      }

      .cls-14 {
        fill: #282828;
        stroke-width: .25px;
      }

      .cls-21 {
        letter-spacing: 0em;
      }

      .cls-22 {
        fill: #ededed;
      }

      .cls-22, .cls-23, .cls-24 {
        font-size: 21px;
      }

      .cls-22, .cls-23, .cls-24, .cls-25 {
        font-family: MyriadPro-Regular, 'Myriad Pro';
      }

      .cls-26 {
        letter-spacing: .01em;
      }

      .cls-27 {
        letter-spacing: 0em;
      }

      .cls-28 {
        letter-spacing: 0em;
      }

      .cls-29 {
        letter-spacing: .02em;
      }

      .cls-30 {
        letter-spacing: 0em;
      }

      .cls-31 {
        letter-spacing: 0em;
      }

      .cls-24 {
        fill: #dbdbdb;
      }

      .cls-32 {
        letter-spacing: .03em;
      }

      .cls-15 {
        fill: #5e5555;
      }

      .cls-33 {
        letter-spacing: 0em;
      }

      .cls-34 {
        letter-spacing: 0em;
      }

      .cls-35 {
        letter-spacing: .02em;
      }

      .cls-36 {
        letter-spacing: 0em;
      }

      .cls-37 {
        letter-spacing: .02em;
      }

      .cls-38 {
        letter-spacing: 0em;
      }

      .cls-39 {
        letter-spacing: .02em;
      }

      .cls-40 {
        letter-spacing: .01em;
      }

      .cls-41 {
        letter-spacing: 0em;
      }

      .cls-42 {
        letter-spacing: 0em;
      }

      .cls-43 {
        letter-spacing: 0em;
      }

      .cls-16 {
        fill: none;
        stroke: #dfdbd1;
        stroke-width: 3px;
      }

      .cls-44 {
        letter-spacing: -.02em;
      }

      .cls-45 {
        letter-spacing: 0em;
      }

      .cls-46 {
        letter-spacing: 0em;
      }

      .cls-47 {
        letter-spacing: .02em;
      }

      .cls-25 {
        font-size: 12px;
      }

      .cls-17 {
        fill: #9e822a;
      }

      .cls-48 {
        letter-spacing: 0em;
      }

      .cls-49 {
        letter-spacing: 0em;
      }

      .cls-50 {
        fill: #b5a7a7;
      }

      .cls-51 {
        letter-spacing: 0em;
      }

      .cls-52 {
        letter-spacing: -.01em;
      }

      .cls-53 {
        letter-spacing: 0em;
      }

      .cls-54 {
        letter-spacing: 0em;
      }

      .cls-55 {
        letter-spacing: -.04em;
      }

      .cls-56 {
        letter-spacing: 0em;
      }

      .cls-57 {
        letter-spacing: .02em;
      }

      .cls-58 {
        letter-spacing: .02em;
      }
    </style>
  </defs>
  <rect class="cls-12" x="-58.87" y="-60.61" width="2094.06" height="1227.79"/>
  <rect class="cls-15" x="-3.77" width="1923.77" height="121.23"/>
  <text class="cls-23" transform="translate(338.67 57.68)"><tspan class="cls-44" x="0" y="0">V</tspan><tspan x="11.38" y="0">i</tspan><tspan x="-16.88" y="25.2">ssza </tspan></text>
  <rect class="cls-13" x="1203.92" y="42.77" width="198.46" height="56.92"/>
  <circle class="cls-17" cx="1437" cy="71.23" r="17.69"/>
  <rect class="cls-12" x="311.62" y="150.46" width="300" height="452.31"/>
  <rect class="cls-12" x="311.62" y="621.23" width="300" height="412.31"/>
  <rect class="cls-12" x="625.54" y="150.46" width="523.08" height="883.08"/>
  <rect class="cls-12" x="625.51" y="150.46" width="521.81" height="96.51"/>
  <rect class="cls-12" x="987" y="213.54" width="155.38" height="27.69"/>
  <rect class="cls-12" x="861.44" y="217.93" width="18.46" height="18.46"/>
  <rect class="cls-12" x="663.02" y="277.66" width="127.33" height="164.84"/>
  <rect class="cls-12" x="815.07" y="277.66" width="127.33" height="164.84"/>
  <rect class="cls-12" x="967.12" y="277.66" width="127.33" height="164.84"/>
  <rect class="cls-12" x="663.02" y="513.56" width="127.33" height="164.84"/>
  <rect class="cls-12" x="663.02" y="744.96" width="127.33" height="164.84"/>
  <rect class="cls-12" x="815.07" y="513.56" width="127.33" height="164.84"/>
  <rect class="cls-12" x="967.12" y="513.56" width="127.33" height="164.84"/>
  <rect class="cls-12" x="815.07" y="744.96" width="127.33" height="164.84"/>
  <rect class="cls-12" x="967.12" y="744.96" width="127.33" height="164.84"/>
  <text class="cls-25" transform="translate(1006.35 226.51)"><tspan class="cls-31" x="0" y="0">S</tspan><tspan x="5.99" y="0">ea</tspan><tspan class="cls-52" x="17.78" y="0">r</tspan><tspan x="21.59" y="0">ch</tspan></text>
  <text class="cls-25" transform="translate(889.9 229.24)"><tspan class="cls-48" x="0" y="0">M</tspan><tspan x="9.73" y="0">y </tspan><tspan class="cls-38" x="17.93" y="0">c</tspan><tspan x="23.23" y="0">olle</tspan><tspan class="cls-26" x="41.5" y="0">c</tspan><tspan x="47.03" y="0">tion</tspan></text>
  <text class="cls-25" transform="translate(713.04 336.78)"><tspan class="cls-35" x="0" y="0">K</tspan><tspan class="cls-4" x="6.7" y="0">á</tspan><tspan class="cls-57" x="12.48" y="0">r</tspan><tspan class="cls-10" x="16.69" y="0">t</tspan><tspan class="cls-56" x="20.77" y="0">y</tspan><tspan class="cls-42" x="26.38" y="0">a</tspan></text>
  <text class="cls-25" transform="translate(832.41 332.23)"><tspan class="cls-35" x="0" y="0">K</tspan><tspan class="cls-42" x="6.7" y="0">á</tspan><tspan class="cls-47" x="12.48" y="0">r</tspan><tspan class="cls-10" x="16.69" y="0">t</tspan><tspan class="cls-21" x="20.77" y="0">y</tspan><tspan x="26.38" y="0">a</tspan></text>
  <text class="cls-25" transform="translate(980.2 328.82)"><tspan class="cls-58" x="0" y="0">K</tspan><tspan class="cls-34" x="6.7" y="0">á</tspan><tspan class="cls-57" x="12.48" y="0">r</tspan><tspan class="cls-10" x="16.69" y="0">t</tspan><tspan class="cls-8" x="20.77" y="0">y</tspan><tspan x="26.38" y="0">a</tspan></text>
  <text class="cls-25" transform="translate(694.85 568.69)"><tspan class="cls-35" x="0" y="0">K</tspan><tspan class="cls-4" x="6.7" y="0">á</tspan><tspan class="cls-57" x="12.48" y="0">r</tspan><tspan class="cls-10" x="16.69" y="0">t</tspan><tspan class="cls-56" x="20.77" y="0">y</tspan><tspan class="cls-42" x="26.38" y="0">a</tspan></text>
  <text class="cls-25" transform="translate(849.46 558.46)"><tspan class="cls-35" x="0" y="0">K</tspan><tspan class="cls-42" x="6.7" y="0">á</tspan><tspan class="cls-47" x="12.48" y="0">r</tspan><tspan class="cls-10" x="16.69" y="0">t</tspan><tspan class="cls-21" x="20.77" y="0">y</tspan><tspan x="26.38" y="0">a</tspan></text>
  <text class="cls-25" transform="translate(1001.8 563.01)"><tspan class="cls-58" x="0" y="0">K</tspan><tspan class="cls-34" x="6.7" y="0">á</tspan><tspan class="cls-57" x="12.48" y="0">r</tspan><tspan class="cls-10" x="16.69" y="0">t</tspan><tspan class="cls-8" x="20.77" y="0">y</tspan><tspan x="26.38" y="0">a</tspan></text>
  <text class="cls-25" transform="translate(689.17 817.66)"><tspan class="cls-35" x="0" y="0">K</tspan><tspan class="cls-42" x="6.7" y="0">á</tspan><tspan class="cls-47" x="12.48" y="0">r</tspan><tspan class="cls-10" x="16.69" y="0">t</tspan><tspan class="cls-21" x="20.77" y="0">y</tspan><tspan x="26.38" y="0">a</tspan></text>
  <text class="cls-25" transform="translate(829 804.02)"><tspan class="cls-35" x="0" y="0">K</tspan><tspan class="cls-4" x="6.7" y="0">á</tspan><tspan class="cls-57" x="12.48" y="0">r</tspan><tspan class="cls-10" x="16.69" y="0">t</tspan><tspan class="cls-56" x="20.77" y="0">y</tspan><tspan class="cls-42" x="26.38" y="0">a</tspan></text>
  <text class="cls-25" transform="translate(987.02 815.39)"><tspan class="cls-39" x="0" y="0">K</tspan><tspan x="6.7" y="0">á</tspan><tspan class="cls-57" x="12.48" y="0">r</tspan><tspan class="cls-10" x="16.69" y="0">t</tspan><tspan class="cls-8" x="20.77" y="0">y</tspan><tspan x="26.38" y="0">a</tspan></text>
  <text class="cls-25" transform="translate(357.21 263.45)"><tspan class="cls-35" x="0" y="0">K</tspan><tspan x="6.7" y="0">á</tspan><tspan class="cls-47" x="12.48" y="0">r</tspan><tspan class="cls-36" x="16.69" y="0">t</tspan><tspan class="cls-21" x="20.77" y="0">y</tspan><tspan x="26.37" y="0">a nag</tspan><tspan class="cls-52" x="53.85" y="0">y</tspan><tspan x="59.39" y="0">obb képpel itt </tspan><tspan x="0" y="14.4">jelenik me</tspan><tspan class="cls-18" x="51.43" y="14.4">g</tspan><tspan x="57.96" y="14.4">. Ha a k</tspan><tspan class="cls-43" x="93.09" y="14.4">öz</tspan><tspan x="104.65" y="14.4">épső </tspan><tspan class="cls-52" x="0" y="28.8">r</tspan><tspan x="3.8" y="28.8">és</tspan><tspan class="cls-43" x="14.57" y="28.8">z</tspan><tspan x="19.62" y="28.8">en </tspan><tspan class="cls-6" x="34.83" y="28.8">r</tspan><tspan class="cls-27" x="38.7" y="28.8">á</tspan><tspan class="cls-4" x="44.39" y="28.8">visszük </tspan><tspan class="cls-21" x="0" y="43.2">v</tspan><tspan x="5.72" y="43.2">alamelyi</tspan><tspan class="cls-37" x="47.44" y="43.2">k</tspan><tspan class="cls-52" x="53.27" y="43.2">r</tspan><tspan x="57.07" y="43.2">e az ege</tspan><tspan class="cls-52" x="97.82" y="43.2">r</tspan><tspan x="101.63" y="43.2">e</tspan><tspan class="cls-30" x="107.64" y="43.2">t</tspan><tspan x="111.57" y="43.2">.</tspan></text>
  <text class="cls-25" transform="translate(353.8 696.58)"><tspan class="cls-35" x="0" y="0">I</tspan><tspan x="3.06" y="0">tt jelennek meg a</tspan><tspan class="cls-49" x="89.88" y="0">z</tspan><tspan x="94.93" y="0">ok a pac</tspan><tspan class="cls-54" x="136.01" y="0">k</tspan><tspan class="cls-29" x="141.51" y="0">-</tspan><tspan x="145.41" y="0">ek </tspan><tspan x="0" y="14.4">amiket meg</tspan><tspan class="cls-52" x="59.48" y="14.4">v</tspan><tspan x="65.14" y="14.4">ettün</tspan><tspan class="cls-40" x="92.36" y="14.4">k</tspan><tspan x="98.16" y="14.4">. Ha </tspan><tspan class="cls-2" x="119.34" y="14.4">t</tspan><tspan x="123.24" y="14.4">öbb </tspan><tspan class="cls-21" x="146.02" y="14.4">v</tspan><tspan x="151.75" y="14.4">an </tspan><tspan x="0" y="28.8">a</tspan><tspan class="cls-37" x="5.78" y="28.8">k</tspan><tspan x="11.62" y="28.8">kor </tspan><tspan class="cls-38" x="30.3" y="28.8">E</tspan><tspan x="36.13" y="28.8">gymáson elcsúszt</tspan><tspan class="cls-21" x="124.27" y="28.8">a</tspan><tspan class="cls-36" x="130.01" y="28.8">t</tspan><tspan class="cls-21" x="134.09" y="28.8">v</tspan><tspan x="139.81" y="28.8">a, </tspan><tspan x="0" y="43.2">egymás</tspan><tspan class="cls-6" x="38.92" y="43.2">r</tspan><tspan x="42.78" y="43.2">a ilel</tspan><tspan class="cls-36" x="65.59" y="43.2">t</tspan><tspan class="cls-54" x="69.67" y="43.2">v</tspan><tspan x="75.32" y="43.2">e jelenjenek me</tspan><tspan class="cls-18" x="154.1" y="43.2">g</tspan><tspan x="160.63" y="43.2">. </tspan><tspan x="0" y="57.6">(maximum 4 jelenjen meg íg</tspan><tspan class="cls-55" x="142.79" y="57.6">y</tspan><tspan x="147.97" y="57.6">, ha </tspan><tspan x="0" y="72">ennél </tspan><tspan class="cls-2" x="30.72" y="72">t</tspan><tspan x="34.62" y="72">öbb pack </tspan><tspan class="cls-56" x="83.57" y="72">v</tspan><tspan x="89.29" y="72">an a</tspan><tspan class="cls-37" x="110.06" y="72">k</tspan><tspan x="115.89" y="72">kor is 4</tspan><tspan class="cls-29" x="150.84" y="72">-</tspan><tspan x="154.74" y="72">et </tspan><tspan x="0" y="86.4">mutasson.)</tspan></text>
  <text class="cls-25" transform="translate(788.07 175.91)"><tspan class="cls-5" x="0" y="0">I</tspan><tspan class="cls-11" x="2.99" y="0">n</tspan><tspan class="cls-54" x="9.49" y="0">v</tspan><tspan x="15.14" y="0">e</tspan><tspan class="cls-21" x="21.16" y="0">n</tspan><tspan class="cls-38" x="27.77" y="0">t</tspan><tspan x="31.67" y="0">o</tspan><tspan class="cls-32" x="38.25" y="0">r</tspan><tspan class="cls-4" x="42.48" y="0">y</tspan></text>
  <rect class="cls-12" x="1163.92" y="148.92" width="446.15" height="884.62"/>
  <text class="cls-25" transform="translate(1342.85 186.27)"><tspan class="cls-48" x="0" y="0">M</tspan><tspan x="9.73" y="0">y D</tspan><tspan class="cls-21" x="25.92" y="0">E</tspan><tspan x="31.78" y="0">cks</tspan></text>
  <rect class="cls-14" x="1058.26" y="981.43" width="37.14" height="31.9"/>
  <path class="cls-16" d="M1070.39,988.32l1.52,2.27,9.54,9.54-10.23,10.23"/>
  <rect class="cls-14" x="663.02" y="982.03" width="37.14" height="31.9" transform="translate(1363.18 1995.96) rotate(180)"/>
  <path class="cls-16" d="M688.03,1007.04l-1.52-2.27-9.54-9.54,10.23-10.23"/>
  <text class="cls-23" transform="translate(864.24 1002.12)"><tspan x="0" y="0">5/11</tspan></text>
  <rect class="cls-12" x="357.21" y="838.25" width="127.33" height="164.84"/>
  <rect class="cls-12" x="374.26" y="822.24" width="127.33" height="164.84"/>
  <rect class="cls-12" x="391.18" y="806.67" width="127.33" height="164.84"/>
  <rect class="cls-12" x="407.8" y="790.32" width="127.33" height="164.84"/>
  <rect class="cls-12" x="1187.47" y="212.66" width="155.38" height="27.69"/>
  <text class="cls-23" transform="translate(1199.23 226.25)"><tspan x="0" y="0">New </tspan><tspan class="cls-41" x="44.25" y="0">D</tspan><tspan class="cls-19" x="58.32" y="0">eck</tspan></text>
  <rect class="cls-12" x="1277.91" y="321.15" width="60.14" height="77.86" transform="translate(-29.06 130.33) rotate(-5.64)"/>
  <rect class="cls-12" x="1349.73" y="321.15" width="60.14" height="77.86" transform="translate(234.34 -489.28) rotate(21.93)"/>
  <rect class="cls-12" x="1421.55" y="321.15" width="60.14" height="77.86" transform="translate(-28.37 144.45) rotate(-5.64)"/>
  <path class="cls-1" d="M1217.8,355.85h324v70.34c0,19.14-15.54,34.67-34.67,34.67h-254.65c-19.14,0-34.67-15.54-34.67-34.67v-70.34h0Z"/>
  <text class="cls-25" transform="translate(1256.16 346.88)"><tspan class="cls-38" x="0" y="0">E</tspan><tspan x="5.83" y="0">gy </tspan><tspan class="cls-29" x="20.74" y="0">k</tspan><tspan x="26.58" y="0">á</tspan><tspan class="cls-57" x="32.36" y="0">r</tspan><tspan class="cls-10" x="36.58" y="0">t</tspan><tspan class="cls-8" x="40.66" y="0">y</tspan><tspan x="46.26" y="0">a a pa</tspan><tspan class="cls-37" x="75.53" y="0">k</tspan><tspan x="81.36" y="0">li elejé</tspan><tspan class="cls-28" x="113.33" y="0">r</tspan><tspan x="117.13" y="0">ő</tspan><tspan class="cls-52" x="123.72" y="0">l</tspan><tspan x="126.43" y="0">, </tspan><tspan class="cls-28" x="131.46" y="0">v</tspan><tspan x="137.11" y="0">égé</tspan><tspan class="cls-52" x="155.84" y="0">r</tspan><tspan x="159.64" y="0">ől és a k</tspan><tspan class="cls-49" x="198.87" y="0">öz</tspan><tspan class="cls-3" x="210.43" y="0">epé</tspan><tspan class="cls-28" x="229.28" y="0">r</tspan><tspan x="233.08" y="0">ő</tspan><tspan class="cls-52" x="239.67" y="0">l</tspan><tspan x="242.38" y="0">.</tspan></text>
  <circle class="cls-50" cx="1457.45" cy="427.87" r="20.45"/>
  <circle class="cls-50" cx="1506.82" cy="427.87" r="20.45"/>
  <text class="cls-22" transform="translate(1231.44 398.67)"><tspan class="cls-7" x="0" y="0">P</tspan><tspan x="10.63" y="0">a</tspan><tspan class="cls-20" x="20.75" y="0">k</tspan><tspan x="30.95" y="0">li Név</tspan></text>
  <text class="cls-24" transform="translate(1236.75 433.29)"><tspan x="0" y="0">15/15</tspan></text>
  <text class="cls-23" transform="translate(1445.17 435.81) scale(.33 1)"><tspan x="0" y="0">S</tspan><tspan class="cls-53" x="10.35" y="0">z</tspan><tspan x="19.19" y="0">e</tspan><tspan class="cls-33" x="29.72" y="0">r</tspan><tspan x="36.67" y="0">kesz</tspan><tspan class="cls-46" x="74.34" y="0">t</tspan><tspan x="81.16" y="0">és</tspan></text>
  <text class="cls-23" transform="translate(1490.85 436.02) scale(.61 1)"><tspan class="cls-9" x="0" y="0">T</tspan><tspan class="cls-51" x="8.95" y="0">ö</tspan><tspan class="cls-45" x="20.47" y="0">r</tspan><tspan x="27.43" y="0">lés</tspan></text>
</svg>