<?xml version="1.0" encoding="UTF-8"?>
<svg id="Réteg_1" data-name="Réteg 1" xmlns="http://www.w3.org/2000/svg" viewBox="0 0 409.19 709.78">
  <defs>
    <style>
      .cls-1 {
        fill: #f8f4e9;
      }

      .cls-2 {
        fill: #a78493;
      }

      .cls-3 {
        fill: #f4afa6;
      }

      .cls-4 {
        fill: #f2f7ee;
      }

      .cls-5 {
        fill: #274368;
      }

      .cls-6 {
        fill: #172c43;
      }

      .cls-7 {
        fill: #f7f0e5;
      }

      .cls-8 {
        fill: #395b85;
      }

      .cls-9 {
        fill: #fad1b6;
      }

      .cls-10 {
        fill: #f0a1a4;
      }

      .cls-11 {
        fill: #fcddb8;
      }

      .cls-12 {
        fill: #ecb6ac;
      }

      .cls-13 {
        fill: #3e649e;
      }

      .cls-14 {
        fill: #334f76;
      }

      .cls-15 {
        fill: #6c6e89;
      }

      .cls-16 {
        fill: #f3abb2;
      }

      .cls-17 {
        fill: #e7a69d;
      }
    </style>
  </defs>
  <g id="Generatív_objektum_0_30_" data-name="Generatív objektum (0, 30)">
    <path class="cls-1" d="M200.74,95.99c-.84,2.28-1.32,4.91-1.34,7.94l-.17,28.51.16,14.15.72,48.77c-7.81,8.88-18.12,14.21-30.61,17.63,7.74,3.87,15.98,2.78,23.93,2.98l9.22.23c-.07,1.35-1.13,2.39-1.96,2.96-2.52,1.73-7.08-2.51-11.88-.51,2.95,3.04,6.59,3.21,10.67,4.07,1.29,2.22,1.44,5.15,1.37,7.71l-32.14-.44-9.03.49c2.71.43,4.54,1.54,6.72,2.87-.48,1.76-2.87,2.11-2.49,3.73.07.32.32.71.83.51.34-.13.67.13.89.14,2.51.09,5.79-.91,8.1.04,3.55,1.46,6.14,4.3,8.47,7.08-.94-.27-1.35-1.01-2.72-.69,2.32,5.06-7.11,10.17-12.25,11.3-1.1.24-4.66-.33-4.03,1.59,4.9,4.1,12.04,3.32,17.86,1.86,5.19-1.3,7.62-5.19,6.46-10.08l2.51.26-1.56-4.98c1.81-1.77,1.31-4.59,2.01-6.59.37-1.06,1.26-2.37,1.26-4.18,2.91-1.3,5.71-.82,8.36-.25-2.29,1.12-4.97.12-7.76,2.14,1.33,2.2,4.09,3.52,6.16,4.39l-.52,50.81c.4,1.77,5.06,2.27,6.19,1.78.95.05,1.56.59,1.63,1.5.11,1.42-.12,2.23-1.82,2.98-1.16.51-1.24,3.68,0,4.06,1.22.37,2.61-.09,2.95.71-4.56,2.07-10.17,1.81-13.75-2.12-2.04.51-3.89.17-6.32-.07.02,1.76,2.51,3.01,3.99,2.89l5.16,6.51c1.18,1.38,1.2,2.64,1.35,4.07-.77.31-1.81,1.19-1.49,2.1.07.19.06.39-.02.63-7.74-.53-13.17,2.23-19.51,3.04-.4-1.75-.48-4.6-1.42-6.48-.22-.44-.91-1.27-2.57-.53.07-7.32-3.91-13.13-8.46-18.26-1.53-1.73-2.81-3.37-5.46-4.22-.82-.26-1.43-.35-2.45.11-1.3.59-1.36,2-1.19,3.32l.47,36.91c-5,5.15-4.82,12.15-.5,17.65l1.01,44.71c1.1.33,1.44.82,3.12.69l1.1,36.94.5,37.53c-2.09-.98-2.63,1.03-2.1,1.67.35.42.66.94,1.91,1.48-.46.64-.38,2.64-1.01,2.75l-3.02.52c1.68,3.09-1.28,4.58-1.82,6.04l-1.91,16.34c-.07.57,1.72,1.28,1.97,1.78.28.55-1.27,1.52-1.24,2.3l.87,21.55c1.65-.44,2.2.05,2.4.67-2.77,1.74-6.25,1.63-9.1.12l.12-.98-.28-8.77c-.03-1.01-1.74-1.35-2.28-1.07-.43.22-1.72-.74-1.45-1.58,1.78-5.47,1.56-16.53,1.1-17.21-.27-.4-.75-.87-1.56-.71-.89.18-1.43,1.04-1.58,2.24l-2.48,19.99c-1.83,2.2-4.64,3.5-7.52,5.34.61,1.49,1.74,3.67,2.74,4.03l5.14,1.83c.64.23,2.19-.15,3.21.12,11.34,2.93,22.54,3.69,34.08,4.27l11.9.6c.11.48.44.95.44,1.36s-2.08.27-2.33.6c-2.54,3.55-8.79-.34-19.03.89-7.07.85-13.84,1.45-20.14,5.51l-5.76,2.51c-1.88-.28-2.94-1.09-4.93-1.79l-15.08-5.31c-.56-.02-.94,1.27-1.36,1.86-.39.09-.68-.21-.57-.44.26-.55.52-1.41.43-1.67l-3.1-3.86c-.59-2.4-2.22-5.46-3.5-7.7l.96-3.37.07-2.58c2.41.29,3.85-1.17,5.45-1.56l6.94-1.72,2.76-.84c.82-.25.49-1.68.34-2.29-.06-.26.17-.8-.62-1.18l-.12-39.12c1.17-10.81.02-21.18.31-31.98l.92-33.49,1.41-46.72c.08-2.54,3.28-13.24-2.9-12.84-1.37.09-3.12.91-4.47,1.31-2.21.67-4.85.74-7.52.78-10.6.15-17.16,8.52-17.66,18.9-1.84,38.14,2.1,75.84,10.22,113,.73,3.34.11,5.9,1.26,8.67,1.11,2.67,1.56,6.79,1.88,10.22l1.03,10.69-.9-.1-3.1-8.32c-4.66-12.5-7.15-25.09-10.22-38.24-3.18-13.6-7.51-26.34-8.76-40.32-.2-2.27.64-4.94-.76-6.51.76-3.01-.96-6.27-1.03-8.85l-.41-15.76c-.02-.66-.82-.95-1.21-.9,1.2-5.21.91-11.06-.22-16.52-2.67,4.52-1.32,9.29-2.69,13.61-.82,2.61-3.7,4.04-5.14,6.24l.32,18.96c-2.08-.26-4.05-1.19-7.15-.8-1.2,15.49-2.24,30.61-1.8,46.14.04,1.33,1.75,2.75.4,3.95-1.76.54-5.74.97-6.6,3.21-1.69,4.38,9.07-.31,17.93.77-.43,2.07-1.62,4.4-.74,7.23-5.07,1.75-8.63,4.99-10.81,10.1,1.57,1.97,3.37,2.24,6.28,1.44,1.21-.07,2.66-2.2,4.28-3.55.57.47.87.54,1.06.12.41,1,2.33,1.21,2.86,2.37,3.48,7.91,7.1,15.41,11.51,23.05-4.69,1.84-6.59,5.53-6.06,10.09,3.12.36,6.79.03,8.76-1.88,1,2.57,4.6,1.45,8.32.33.06.45-.13.53-.32.64-.37.24-.21,1.06.5.84.25.38-.76,1.34-.97,1.85,1.33,2.15,3.46,4.8,4.15,7.09l1.71,5.71c-5.07,2.5-7.47,6.95-9.67,11.84-2.53,5.63-6.11,11.28-5.52,17.83.31,3.47.3,7.64,1.17,10.28.6,1.81,3.09,2.11,4.11,2.42,1.49.45,3.96,1.29,5.75,1.13.74,2.65,3.15,1.94,5.42,4.02,1.26,1.15.7,2.21.49,4.33l-6.53,65.7-3.64,29.34c-.02.17-3.76,6.87-.36,13.8-4.93.62-8.49-2.89-12.39-5.82l-11.63-8.74c-3.43-2.58-1.19-6.62-1.61-12.25-.27-3.71,3.51-12.71.86-21.46-1.27-1.55.32-2.79.64-3.95,1.64-6,1.42-11.44,1.84-17.35l.71-9.79-.07-3.98c.75-1.24,1.69-1.95,3.01-2.68l2.03-22.61c-5.39,1.62-6.82,7.84-5.8,12.87.24,1.11-.06,1.73-1.25,1.64-.9,3.63-1.67,8.42-1.03,12.2-1.92.92-2.33,2.94-2.71,5l-6.54,35.99-.02,1.99c0,.29.32.48.88.56l-5.29,8.12c-.57-.65-1.21-1.4-2.06-1.65l-7.45-15.38c-3.89-8.04-3.75-16.07-2.4-24.75l8.76-56.58c1.4-9.03,2.2-17.54,5.38-26.13-7.57-13.29-13.06-26.55-16.33-41.24l-3.6-16.15-3.01-41.16c-1.06-29.63,1.28-58.8,8.04-87.54,1.02-4.35,3.27-8.25,5.01-12.36l9.93-23.45c5.48-12.95,20.32-26.6,24.38-33.78,2.5-4.42,5.98-6.05,10.32-8.1,2.87-1.36,4.94-5.08,8.39-6.15-1.77-3.02-3.26-7.16-1.15-10.09,2.85-3.94,3.25-7.98,4.06-12.7l5.31-30.75c-4.54-14.45,0-19.45,1.29-27.49.88-5.49,2.32-11.18,4.58-16.31l4.79-10.83c2.92-6.6,6.27-12.72,9.49-18.96,2.15-4.18,4.08-6.74,7.9-9.62,3.08-2.32,4.76-7.43,8.28-9.68,4.92-3.15,8.96-6.49,12.15-11.62,4.92-1.04,8.85-3.21,13.11-5.86,5.96-3.4,12.79-6.61,19.57-6.16ZM149.73,228.68c-1.59-1.31-2.98-1.48-4.66-1.73.83,1.57,2.79,2.93,4.66,1.73ZM175.67,242.86c-1.63-1.1-5.32-.9-7.55-.42-2.1.46-2.49,2.76-1.74,4.4,1.02,2.27,6.16,3.79,8.89,1.44,1.53-1.31,2.11-4.28.41-5.43ZM119.62,283.18c-3.01,3.4-5.26,6.27-9.18,9.11,4.83.56,12.55-8.01,12.55-8.05-.02-.42.53-1.19,1.74-1.03.03-5.94-.54-11.85-1.65-17.9-3.63-.08-6.33,1.49-9.33,2.13,2.06,4.22,5.33,6.1,7.83,9.29,1.45,1.84-.71,5.03-1.96,6.44ZM133.61,335.1c1.24.67,4.01,1.53,4.42.02,1.11-4-2.09-6.29-3.34-9.3l-5.04-12.15c-.76-1.83-.24-4.46-2.15-5.69,1.73-7.42-.53-15.52-2.87-23.41-.06,9.7-3.79,22.36-7.09,32.75-.86,2.69-1.11,5.23-3.99,6.86-1.53.87-3.29,2.16-3.88,4.46,2.23.78,4.19,1.38,6.52.98l-.34,4.15c6.79,1.03,15.27,3.62,17.75,1.33ZM89.29,561.01l-10.5-10.09c7.5,14.45,13.28,12.76,10.5,10.09Z"/>
    <path class="cls-13" d="M299.15,271.13l17.17,14.87c1.75,1.52,3.01,3.48,3.07,5.78.29,11.32-2.21,23.3-3.87,35.02,3.16,2.48,3.78,5.71,4.61,8.92,1.9,7.39,2.28,13.89,1.89,21.55l-2.02,39.32-.87,37.69c-.16,6.98-.48,13.62.89,20.46-.62,5.8-.87,11.86-.23,18.06l-.46,24.29-1.92,62.55c-.06,2.06-.04,3.93,1.54,5.26l3.37-39.62c5.52-23.51,8.61-47.02,9.58-71.23.82-20.71-2.61-38.06-1.91-50.64l1.06-19.32c.14-2.49,1.9-4.82-1.23-7.22,1.85-2.09,2.71-3.52,3.69-6.25l-1.24.52c-.58.24-1.08-1.58-.63-2.2.35-20.85-.02-41.21-1.43-61.77.59-.07,1.4.47,1.39.9l-.03,1.38,6.7,9.34c1.09,3.9,3.66,6.31,5.07,9.83,3.85,9.6,6.96,19.5,8.63,29.54l3.42,20.52,2.29,7.51,2.12,34.26c.43,7.02-.2,14.57-.83,21.03l-2.08,21.52c-.24,2.44,1.12,5.39,1.22,7.13-1.35,6.68-2.2,12.65-3.56,18.98l-1.98,9.2c-4.59,14.93-10.8,29.33-18.72,42.62-2.06,3.46-1.92,4.3-1.31,8.33l7.46,49.09c1.74,11.43,4.11,22.1,5.3,33.29-1.08.04-1.78.48-2.03,1.78l-2.41,12.21-5.7,13.26c-1.11,2.57-.34,5.51,1.85,6.62-5.8,7.31-12.39,14.28-20.78,18.7,1.38-1.1,2.29-2.54,2-4.89-2.65-21.5-5.42-42.58-10.14-63.54l-3.17-14.47c3.64-.62,5.91-3.01,6.84-7l2.73-11.72c1.77-7.62.6-15.06.66-22.8l.61-87.6c-2.42-1.18-2.68-2.8-2.68-5.11l.04-50.02c.02-21.56.19-42.43-.91-63.64-.26-4.91-2.01-8.87-5.69-11.95,1.76-2.12,3.13-4.54,3.48-7.14.44.02.76-.29.65-.76.8.16,1.24-.67.9-1.31-.24-.44-.74-1.13-1.52-1.47l-10.75-4.73c-2.82-1.24-6.04-1.35-8.6.44-5.36-1.73-12.64-4.76-15.04-8.82,0-.93,3.48-.46,2.43-2.77l7.58-1.76c.72-12.53,5.65-23.91,4.56-35.76,2.92-1.25,6.11-3.69,5.86-7.25,1.44.62,1.55,1.69,1.51,2.17-.03.42,1.32.42,1.59.03.17-.24-.09-1,0-1.2Z"/>
    <path class="cls-13" d="M220.45,103.7c1.86.4,3.07.72,4.89,1.98l11.18,7.76,22.11,22.07c4.68,4.67,7.3,11.32,10.59,17.02l4.56,7.91c.28,3.85,1.52,7.12,4.14,9.84l7.34,28.57c.82,3.17,2.67,5.39,2.11,9.22l-1.62,11.15c.05,6.6,2.02,12.83,3.06,18.87.84,4.84,2.29,9.15,4.8,13.42l2.51,10.39c.53,2.2.14,4.15-.1,5.75-3.99,1.7-7.92,1.71-12.5.05l-4.24,40.87-11.03,4.98c-3.44,11.73-5.75,23.9-4.28,35.82-1.06,4.73-2.09,9.7-5.45,13.21-2.22,2.32-5.03,4.79-7.73,6.7-4.17,2.95-9.21,4.44-13.91,6.37-2.22.91-5.02-1.46-4.81-3.8,4.52-.01,7.86-4.36,11.23-7.36,2.5-2.23,3.05-4.05,1.82-7.34l3.69,1.36c.85.31,2.22-1.68,1.96-2.95l-1.54-7.67,1.21.99c.23.22.95-.51,1.31-.72l2.8.57c1.36-8.79-7.17-10.69-6.05-16.01,2.37.35,4.02,1.4,6.5.8-1.05-4.4-3.09-7.69-5.05-11.5,2.57-.26,6.51-2.99,5.97-5.22s-1.54-3.77-1.39-6.35l.72-12.14.16-18.17-.55-13.19c-.04-.92.51-1.43.97-2.17s-1.98-1.31-2.09-2.11c-.56-4.09,1.02-9.71-1.02-14.07-1.88,1.66-3.29,3.43-5.31,2.89l-.72-3.3c1.32-3.67,2.59-6.73,2.78-10.88-4.89-2.81-10.03-5.25-15.16-4.71-.29-.11-.56-.27-.92-.22.21-.15.23-1.48-.15-1.49s-1.11.52-1.27-.74l4.12.14,13.85.28c2.5.05,5.32.72,8.21.19l10.29-1.9c3.03-.56,6.64-.7,8.44-3.83-5.53,2.5-10.13,3.29-15.04,3.9l-5.2.65c-2.18.27-4.12,1.2-5.84-.33.4-3.58-.06-7.06-2.66-9.89-2.3-2.5-5.56-4.21-9.62-3.97l-12.31.73-3.94-.19c-.03-1.1.45-2.5.83-3.39.59-1.37,2.64-.9,3.84-1.12l10-1.84c-.74-8.09-2.44-15.53-4.71-23.18-5.48-18.48-10.11-36.98-18.03-54.78-1.14-2.55-3.14-5-3.9-7.25-1.31-3.84-.2-8.33-1.89-12.35,1.78-1.33,3.12-1.42,4.99-2.22-1.28-2.93-2.46-5.21-2.47-8.11l9.51,2.02ZM278.46,223.98c-.98.97.06,1.67.68,1.24.41-.28,1.14-.9,1.14-1.26,0-.26-1.04-.76-1.82.02Z"/>
    <path class="cls-6" d="M330.19,307.15c1.41,20.57,1.78,40.92,1.43,61.77-.45.62.05,2.44.63,2.2l1.24-.52c-.98,2.73-1.85,4.16-3.69,6.25,3.13,2.4,1.37,4.73,1.23,7.22l-1.06,19.32c-.69,12.58,2.74,29.93,1.91,50.64-.96,24.22-4.06,47.72-9.58,71.23l-3.37,39.62c-1.58-1.33-1.6-3.2-1.54-5.26l1.92-62.55.46-24.29c-.64-6.21-.39-12.26.23-18.06-1.37-6.84-1.05-13.47-.89-20.46l.87-37.69,2.02-39.32c.39-7.65.02-14.16-1.89-21.55-.83-3.2-1.44-6.43-4.61-8.92,1.67-11.72,4.16-23.69,3.87-35.02,2.13.68,3.89,1.94,5.36,3.9,3.39,4.53,6.48,5.09,5.46,11.46Z"/>
    <path class="cls-16" d="M220.45,103.7l-9.51-2.02c0,2.9,1.19,5.18,2.47,8.11-1.86.79-3.21.88-4.99,2.22,1.69,4.02.59,8.51,1.89,12.35.76,2.25,2.77,4.69,3.9,7.25,7.92,17.8,12.55,36.3,18.03,54.78,2.27,7.65,3.97,15.09,4.71,23.18l-10,1.84c-1.21.22-3.25-.25-3.84,1.12-.38.89-.86,2.29-.83,3.39l-19.62.27-9.22-.23c-7.95-.2-16.19.89-23.93-2.98,12.48-3.42,22.8-8.75,30.61-17.63,5.71,1.3,9.29,6.74,17.06,7.66.95.11,1.59-.74,1.63-1.2.21-2.54-7.39-3.49-3.81-9.6-2.6-2.83-2.28-6.7-2.75-10.42-2.08-16.4-5.76-32.05-11.45-47.32-.3-.8-1.1-1.89-1.56-2.03l.17-28.51c.02-3.02.5-5.66,1.34-7.94,3.99.26,17.25,4.36,19.71,7.72Z"/>
    <path class="cls-6" d="M296.02,267.65c.59,1.82,2,2.5,3.12,3.48-.09.2.17.96,0,1.2-.27.39-1.62.39-1.59-.03.03-.49-.07-1.56-1.51-2.17.25,3.56-2.94,6-5.86,7.25,1.1,11.85-3.84,23.22-4.56,35.76l-7.58,1.76c1.05,2.31-2.42,1.84-2.43,2.77-.68.55-1.37-.47-1.72-.47-1.69,2.08-4.83,5.13-5.22,7.79l-2.34,15.76c-1.12,7.53-.65,10.44-2.36,8.63-1.46-11.92.84-24.09,4.28-35.82l11.03-4.98,4.24-40.87c4.58,1.66,8.51,1.66,12.5-.05Z"/>
    <path class="cls-6" d="M339.91,665.02c-2.11,2.91-3.66,6.25-6.8,9-5.04,4.41-9.39,9.96-15.74,12.86-15.52,7.08-48.17,12.18-66.32,12.53l-68.98,1.34c-1.2.02-2.6.08-3.92-.23-.78-.18-1.18-1.15-.69-1.44.27-.16.56-.29.52-.77l8.16-.78c4.98.74,10.12,1.69,14.61-.08.5-.2,1.15.05,1.62.11,5.38.7,10.61.49,15.92.22l3.93-.2,18.94-.74c13.31-.52,26.49-1.39,40-3.61,7.65-1.26,14.9-2.01,22.05-3.99l9.74-2.71c.63-1.72,2.16-1.76,3.28-2.35,8.4-4.42,14.98-11.39,20.78-18.7.43-.54,2.09-.91,2.93-.48Z"/>
    <path class="cls-14" d="M151.65,657.97c-.22,2.94-1.06,5.56-1.27,8.75l-.62,9.25-2.58,20.25c-.16,1.29,1.82,1.16,2.73,1.48,3.43,1.22,9.01,1.35,13.07,1.43l12.42.22,2.55-1.02c.05.48-.24.61-.52.77-.49.29-.09,1.26.69,1.44,1.33.31,2.72.25,3.92.23-1.09,2.01-3.5.21-4.83.2l-43.48-.24c-.31,0-.5-.65-.4-.85l15.04-.1-.02-1.22c-5.62-1.22-11.44.93-16.46-.76l2.7-.51c-.45-2.02.24-3.93.32-5.6,3.73.94,8.06.03,11.38-2.18-.13-6.26-.82-12.12.08-17.93l2.03-13.19c1.43-.52,2.32-.41,3.25-.41Z"/>
    <path class="cls-10" d="M82.79,611.4l-.71,9.79c-.43,5.9-.2,11.35-1.84,17.35-.32,1.16-1.9,2.4-.64,3.95-.79,0-.81-.36-1.02-.54-.38-.33-.96.03-.93.31l.19,1.85-2.28,17.97c-.18,1.38.64,3-.81,3.97-4.28,2.86-5.3-3.71-11-6.17.26-.37.27-.85.17-1.05.85.25,1.49,1,2.06,1.65l5.29-8.12c-.26-1.02-.2-2.17.71-2.53,4.14-1.64,3.67-5.98,4.38-9.75l2.93-15.67c.65-3.47-.76-7.77,1.14-10.49,1.2-1.71.55-3.37.82-5.1,1.52.49.79,1.64.67,2.01-.1.32.39.72.86.56Z"/>
    <path class="cls-14" d="M75.57,662.08c1.67-.81,2.08.76,3.18,1.87.41,5.63-1.82,9.67,1.61,12.25l11.63,8.74c3.9,2.93,7.46,6.45,12.39,5.82,3.87,4.7,10.65,5.66,17.79,5.1.61-.22,1.02.13,1.14.82-.96.11-2,.94-2.84,1.35l12.23,1.26c-14.77-.36-32.91-3.79-44.16-14.13-2.51-2.31-6.43-3.73-8.37-6.06l-6.14-7.37-10.27-11.83c5.69,2.46,6.71,9.03,11,6.17,1.45-.97.64-2.59.81-3.97Z"/>
    <path class="cls-8" d="M345.27,631.63l1.05,9.94c.84,7.92-2.26,17.72-6.42,23.45-.84-.43-2.5-.06-2.93.48-2.18-1.11-2.95-4.04-1.85-6.62l5.7-13.26,2.41-12.21c.26-1.3.95-1.74,2.03-1.78Z"/>
    <path class="cls-6" d="M131.9,697.79c5.02,1.69,10.85-.46,16.46.76l.02,1.22-15.04.1c-.3.17-.82.09-.64-.58l-12.23-1.26c.83-.41,1.88-1.24,2.84-1.35,2.88-.33,5.87.19,8.59,1.1Z"/>
    <path class="cls-11" d="M132.13,357.35l-1.41,46.72-.92,33.49c-.3,10.8.85,21.16-.31,31.98l.12,39.12c.79.38.56.92.62,1.18-3.5,1.81-7.47.44-8.88-3.21l-6.47-16.7c-.82-2.11-.55-4.67-3.41-5.55.23,1.02.23,1.8-.4,2.78-1.15-2.78-.53-5.33-1.26-8.67-8.12-37.16-12.05-74.86-10.22-113,.5-10.38,7.05-18.75,17.66-18.9,2.67-.04,5.31-.11,7.52-.78-.15,4.77,3.03,9.3,7.37,11.53Z"/>
    <path class="cls-9" d="M123.73,580.92c1.49.89,4.3,2.09,5.61,3.57l.39,2.58c-.62-.04-.66-.91-1.59-1.96-.18,2.14.55,3.61,1.51,5.8l-6.13,96.95c-2.66,2.42-3.01,5.43-1.35,8-7.15.55-13.93-.4-17.79-5.1-3.4-6.93.34-13.63.36-13.8l3.64-29.34,6.53-65.7c.21-2.12.77-3.18-.49-4.33-2.27-2.08-4.69-1.37-5.42-4.02.03-.44.16-.89.3-1.25l14.45,8.6Z"/>
    <path class="cls-11" d="M247.43,251.49c2.02.54,3.43-1.23,5.31-2.89,2.04,4.35.46,9.98,1.02,14.07.11.8,2.54,1.38,2.09,2.11s-1.01,1.25-.97,2.17c-1.77,8.84-6.28,15.64.55,13.19l-.16,18.17c-5.44,2.8-9.72,7.32-10.29,13.56-.31,3.36-2.49,3.78-4.51,5.58-2.46,2.19-.24,7.61,1.22,10.08l-4.13,1.57c-2.03,2-3.62-.91-4.93-1.13.3-1.15,1.19-1.87,1.92-2.34-3.58-3.53-7.84-4.09-11.69-5.41-3.94-1.35-7.5-1.93-12.23-2.05l-11.04-.29c-1.13-1.07-2.88-.91-3.69-2.38.08-.24.08-.44.02-.63.53.28.95.81,1.65.74.57-.06,1.27-.05,1.81-.5.62-.52.71-1.26.6-2.12,3.55,4.11,6.71-.59,13.29-.2,1.82.11,2.9-4.66,1.37-5.25l-13.03,3.26c-1.08-.91-1.1-2.99.05-3.71,3.51.17,7.15.67,10.62-.19l7.61-1.88c6.87-1.7,11.11-7.08,9.61-14.31l-3.77-18.12c-.28-1.33-1.82-3-2.24-4.64,4.66,2.92,12.11-6.85,10.95-11.02-.12-.45-.7-.79-1.43-.6.76-1.54-.03-2.92-.35-5.07,2.8-1.75,6.23-3.63,8.22-5.56,3.06,3.02,3.28,7,1.88,11.51,2.23.11,5.66-5.58,5.49-4.46.05-.36-.55-.85-.8-1.25Z"/>
    <path class="cls-16" d="M167.37,358.85c.38,7.41,1.93,14.71,1.32,22.23.35.18.28.57.27.75l.78,10.66-.26,28.63c-.28,30.77-3,65.31,1.11,95.12-.04,1.33-.13,3.7-.75,4.76-1.06.73-.68,1.05-.2,1.79l-2.56.22-4.02-1.8c-1.29-.58-2.82-1.48-3.87-.82-.24-3.04.63-5.94.68-9.03l.03-2.46v-13.96s.44-24.86.44-24.86c-1.25-.54-1.55-1.06-1.91-1.48-.54-.64,0-2.65,2.1-1.67l-.5-37.53-1.1-36.94c-1.68.13-2.02-.36-3.12-.69,4.86-4.99,2.36-11.01,7.95-11.33-2.47-2.75-3.16-4.66-3.09-7.63l.32-13.95,6.39.03Z"/>
    <path class="cls-13" d="M163.93,293.26c-5.16,1.21,2.39,6.23,3.52,13.09.38,2.32,1.27,4.44,2.19,6.64,2.08-.75,3.57-.98,5.31-.94.94,1.88,1.02,4.73,1.42,6.48.2.86.8,2.75,1.72,3.4l21.48-4.06,11.04.29c4.73.12,8.29.71,12.23,2.05-1.39,2.19-2.76,4.89-5.41,4.68-11.5-.92-23.28-.6-34.31.84-1.26.16-2.01,3.35-1.84,4.52l3.68,24.25c.23,1.5,2.41,2.8,1.56,4.97-.27,3.9-.58,9.24,1.47,12.99,1.66,3.03,5.82.21,7.88-.24,4.56,2.29,10.73,4.29,15.28.39.43,1.31.26,2.24.59,2.73s1.29,1.04,1.99.97c1.19,1.33,1.02,3.18,1.69,4.8l-21.12.49c1.92-.63-3.18-3.82-7.59-5.28-5.07-1.68-8.21-5.5-7.74-10.98,1.08-12.49-3.88-23.58-2.19-36.07,2.3-1.2,5.02-2.5,5.9-5.23l-12.98.46,4.57,29.7c.52,3.39,2.05,5.15,1.44,8.88l1.26,13.27c-1.29,1.49-5.18,2.13-7.31,2.28-.26.13.13,1.44.02,1.89-.08.33-.25.67-1.01.57.61-7.51-.94-14.81-1.32-22.23l-.71-13.92-2.14-11.43c-.26-1.36-1.34-2.62-1.85-3.6.34-9.06-1.67-18.19-2.47-27.65-.72-8.49-4.67-11.96-1.74-13.21,2.65.85,3.93,2.5,5.46,4.22Z"/>
    <path class="cls-9" d="M158.47,289.03c-2.93,1.26,1.02,4.72,1.74,13.21.8,9.46,2.81,18.59,2.47,27.65-.05,1.31-1.43,2.51-2.54,3.27l-.5,13.16c3.07.05,4.72-.92,7.04-1.4l.71,13.92-6.39-.03-.32,13.95c-.07,2.97.62,4.88,3.09,7.63-5.58.32-3.09,6.34-7.95,11.33l-1.01-44.71c-4.32-5.5-4.5-12.5.5-17.65l-.47-36.91c-.17-1.32-.1-2.73,1.19-3.32,1.02-.46,1.63-.38,2.45-.11Z"/>
    <path class="cls-11" d="M197.51,531.95c3.54,3.47,2.56,5.79,2.96,9.45-1.42,4.67-5.62,7.65-10.44,8.53l-3.24-4.9c-13.16,1.09-25.6-1.09-38.51-2.98l-6.47-.95,5.76-2.51c6.3-4.06,13.07-4.66,20.14-5.51,10.23-1.23,16.49,2.66,19.03-.89.25-.33,2.32-.2,2.33-.6s-.33-.88-.44-1.36c3.06.15,6.09.22,8.88,1.73Z"/>
    <path class="cls-11" d="M200.12,195.35l-.72-48.77-.16-14.15c.46.14,1.27,1.23,1.56,2.03,5.69,15.27,9.37,30.92,11.45,47.32.47,3.72.15,7.6,2.75,10.42-3.58,6.12,4.02,7.06,3.81,9.6-.04.47-.68,1.32-1.63,1.2-7.77-.92-11.35-6.37-17.06-7.66Z"/>
    <path class="cls-6" d="M200.86,230.42l31.13-.28c.16,1.26.89.74,1.27.74s.36,1.34.15,1.49l-10.26,1.44c-5.76.81-7.52-1.62-8.8-.45-1.8,1.64,0,7.95,2.11,10.88.76,1.06.82,2.63,1.51,3.82.82,1.4,1.99,2.41,2.09,4.23-1.55,1.25-1.28,3.36-3.56,4.91l3.05,15.74c2.22,11.43,6.18,24.2-.57,27.21l-9.17,4.09,5.92.81c-.84.85-1.72.63-2.16.49-.7-.23-1.43.13-1.31,1.34-3.47.86-7.11.36-10.62.19l-3.72-2.68c-2.45-1.77-4.31-2.42-7.03-2.22-1.48.11-3.97-1.13-3.99-2.89,2.44.24,4.29.58,6.32.07,3.58,3.93,9.18,4.19,13.75,2.12l3.54-.81c.91-.21.97-.56,2.19-.23,3.63.96,8.16-3.02,7.44-6.62l-7.53-37.33c-1.68-8.34-.67-23.82-7.69-22.16-1.51.36-3.31-.91-4.78-1.23-2.65-.57-5.46-1.04-8.36.25,0,1.81-.89,3.12-1.26,4.18-6.36-7.11-11.03-5.03-18.31-6.62-2.39-.52-5.12.01-5.78,2.44-2.18-1.32-4-2.43-6.72-2.87l9.03-.49,32.14.44Z"/>
    <path class="cls-6" d="M113.07,507.98l.05,2.1c.01.47,1.84.7,1.7,1.17-.71,2.37-2.02,5.96-.17,7.57l-.96,3.37-2.96-5.15c-.67-1.16-1.51-1.78-2.5-1.62-.71.22-.87-.61-.5-.84.18-.12.37-.19.32-.64,1.08-.32,3.14-2,3.02-3.14l-4.3-7.55c1.14-6.64-5.43-19.39-10.34-26.1-1.58-2.16-2.19-4.15.24-6.78l-5.71-4.92c-1.28-1.92-.79-4.29-.29-6.63,1.13-5.24-.8-10.26-.77-15.52.05-9.02.81-29.5-.58-27.39l.87-1.32c1.4,1.56.56,4.23.76,6.51,1.25,13.98,5.59,26.72,8.76,40.32,3.07,13.14,5.57,25.73,10.22,38.24l3.1,8.32Z"/>
    <path class="cls-13" d="M90.22,414.6l-.87,1.32c1.38-2.11.63,18.37.58,27.39-.03,5.26,1.91,10.28.77,15.52-.51,2.33-.99,4.71.29,6.63,1.7,2.23-1.07.93-.78,3.37-1.4-2.78-4.41-3.9-7.58-4.19l1.55-7.5c-2.2-20.66-.78-40.87,2.69-61.35.42-2.5.22-4.63.7-6.69.39-.05,1.19.24,1.21.9l.41,15.76c.07,2.58,1.79,5.83,1.03,8.85Z"/>
    <path class="cls-11" d="M79.85,411.38l.12,14.38c-.71,3.68.12,7.19.17,11l.27,21.13c-5.04,3.3-8.24,1.95-8.37,2.08l-.73.7c1.35-1.2-.36-2.62-.4-3.95-.44-15.53.6-30.65,1.8-46.14,3.09-.39,5.06.54,7.15.8Z"/>
    <path class="cls-10" d="M87.57,389.09c-.47,2.06-.27,4.2-.7,6.69-3.47,20.48-4.9,40.69-2.69,61.35l-1.55,7.5c-8.86-1.08-19.62,3.62-17.93-.77.86-2.24,4.84-2.66,6.6-3.21l.73-.7c.14-.13,3.34,1.23,8.37-2.08l-.27-21.13c-.05-3.8-.88-7.31-.17-11l-.12-14.38-.32-18.96c1.44-2.21,4.31-3.63,5.14-6.24,1.36-4.32.02-9.09,2.69-13.61,1.13,5.46,1.42,11.31.22,16.52ZM81.5,457.08c1.76-.35,1.81-3.1.42-3.12-1.2-.02-1.15,2.96-.42,3.12Z"/>
    <path class="cls-9" d="M222.28,215.92l3.94.19c.07,4.33.52,8.5-.03,13.13l8.35.03c.89,0,1.56.08,1.57,1.02l-4.12-.14-31.13.28c.07-2.56-.08-5.49-1.37-7.71-4.08-.85-7.72-1.02-10.67-4.07,4.8-2,9.36,2.23,11.88.51.83-.57,1.89-1.6,1.96-2.96l19.62-.27Z"/>
    <path class="cls-16" d="M204.91,234.32c1.37,1.26,1.77,2.77,1.93,4.79l1.53,20.22,1.36,20.05,1.71,12.24c.48,3.46,1.83,6.81-.94,9.04l-3.54.81c-.34-.8-1.73-.35-2.95-.71-1.25-.38-1.16-3.55,0-4.06,1.7-.75,1.93-1.56,1.82-2.98-.07-.91-.67-1.45-1.63-1.5.92-.5.51-1.79.81-2.43.81-1.7-.24-4.93-.27-6.69.35-5.66-.12-14.89-.54-21.62-.4-6.33.28-11.67-1.4-17.5-.8-2.79-1.98-3.39-4.27-4.36-2.06-.87-4.82-2.2-6.16-4.39,2.79-2.02,5.47-1.02,7.76-2.14,1.47.32,3.27,1.59,4.78,1.23Z"/>
    <path class="cls-10" d="M127.51,307.98l-4,17.14c-.57,2.44-.86,4.05,1.73,5.45l8.37,4.53c-2.48,2.28-10.96-.3-17.75-1.33l.34-4.15c-2.33.4-4.29-.2-6.52-.98.59-2.3,2.35-3.59,3.88-4.46,2.88-1.63,3.14-4.17,3.99-6.86,3.31-10.39,7.03-23.06,7.09-32.75,2.33,7.89,4.6,15.99,2.87,23.41Z"/>
    <path class="cls-13" d="M147.49,522.13c2.86,1.51,6.33,1.62,9.1-.12l2.61-1.64c1.05-.66,2.58.25,3.87.82l4.02,1.8c8.26,3.7,24.59-2.19,33.2,7.2,1.75,1.58.07,3.25,3.91,5.52-2.14-.59-1.84,2.12.33.98.58,1.25-.96,1.08-1.6.97-1.72-.28-1.02-2.95-4.48-5.46.92-.58,1.12-1.65.37-2.1-.32-.19-1.04.05-1.22.47-.13.31-.15.71-.09,1.37-2.78-1.5-5.81-1.57-8.88-1.73l-11.9-.6c-11.54-.58-22.75-1.34-34.08-4.27-1.02-.26-2.57.11-3.21-.12l1.6-4.67c2.55.09,4.64.6,6.44,1.56Z"/>
    <path class="cls-9" d="M204.74,283.09c-1.97.25-3.21,1.13-3.6,2.74-.42,1.72,1.33,3.29,3.86,3.95-.3.65.11,1.94-.81,2.43-1.13.49-5.79,0-6.19-1.78l.52-50.81c2.29.96,3.47,1.57,4.27,4.36,1.68,5.83,1.01,11.16,1.4,17.5.42,6.73.89,15.96.54,21.62Z"/>
    <path class="cls-9" d="M159.91,508.89c-.82-.01-.97.48-.95,1.23.02.66.03,1.16.92,1.23-.04,3.09-.92,5.99-.68,9.03l-2.61,1.64c-.2-.62-.76-1.12-2.4-.67l-.87-21.55c-.03-.78,1.51-1.74,1.24-2.3-.25-.5-2.03-1.2-1.97-1.78l1.91-16.34c.54-1.46,3.5-2.95,1.82-6.04l3.02-.52c.63-.11.55-2.1,1.01-2.75l-.43,24.86v13.96Z"/>
    <path class="cls-3" d="M103.9,505.41c.46,3.24-1.76,5.87-4.15,8.2-1.97,1.91-5.64,2.25-8.76,1.88-.53-4.56,1.38-8.25,6.06-10.09-4.41-7.64-8.02-15.14-11.51-23.05-.53-1.15-2.45-1.36-2.86-2.37,2.19,1.45,5.54.63,8.1.52,3.4,3.34,4.98,8.8,7.38,12.91,2.4,4.1,4.48,7.85,5.73,12Z"/>
    <path class="cls-13" d="M106.78,503.26l-2.89,2.15c-1.24-4.14-3.32-7.9-5.73-12-2.41-4.11-3.99-9.57-7.38-12.91-2.56.11-5.91.93-8.1-.52-.19.42-.49.35-1.06-.12l7.14-5.94c1.72-1.43,1.65-3.28,1.44-5.1-.29-2.44,2.48-1.14.78-3.37l5.71,4.92c-2.43,2.62-1.83,4.61-.24,6.78,4.9,6.71,11.47,19.46,10.34,26.1Z"/>
    <path class="cls-3" d="M141.82,541.1l6.47.95c12.91,1.9,25.35,4.08,38.51,2.98l3.24,4.9c-3.89.71-8.15-.18-11.97-.84-3.56-2.38-8.17-2.12-12.52-1.04-15.06.04-29.25-3.63-42.69-10.35-.38-1.35-1.4-2.14-2.41-1.84.43-.6.8-1.89,1.36-1.86l15.08,5.31c1.99.7,3.05,1.51,4.93,1.79Z"/>
    <path class="cls-5" d="M120.45,535.86c-.23.34-.17.92.02,1.26.13.24-.28.61-.9.88.6-.69-.17-1.51-.72-1.24l-7.95,3.91c1.15,3.45-.57,5.87-3.55,6.76-.52,2.23,1.12,4.32.33,5.88-1.54,3.05-.11,5.98-.27,8.84-.19,3.55-1.28,8.3,1.87,10.17-.13.36-.27.8-.3,1.25-1.79.16-4.26-.67-5.75-1.13-1.15-10.43-1.78-19.29,3-28.62,2.18-4.25,4.17-8.02,7.96-10.8l3.02-3.14,3.1,3.86c.09.26-.17,1.12-.43,1.67-.11.23.18.53.57.44Z"/>
    <path class="cls-8" d="M133.61,335.1l-8.37-4.53c-2.59-1.4-2.3-3.01-1.73-5.45l4-17.14c1.9,1.23,1.39,3.87,2.15,5.69l5.04,12.15c1.25,3.01,4.44,5.3,3.34,9.3-.42,1.51-3.18.65-4.42-.02Z"/>
    <path class="cls-3" d="M182.21,244.85c1.46,1.75,3.49,3.1,5.33,3.99,1.17,4.89-1.27,8.77-6.46,10.08-5.82,1.46-12.96,2.25-17.86-1.86-.63-1.92,2.93-1.35,4.03-1.59,5.14-1.13,14.56-6.24,12.25-11.3,1.37-.32,1.77.42,2.72.69Z"/>
    <path class="cls-9" d="M145.05,511.3c-1.78,3.74-.72,9.76,2.56,9.85l-.12.98c-1.81-.96-3.9-1.47-6.44-1.56l-1.6,4.67-5.14-1.83c-1.01-.36-2.13-2.54-2.74-4.03,2.88-1.83,5.69-3.14,7.52-5.34l2.48-19.99c.15-1.21.69-2.06,1.58-2.24.81-.16,1.29.31,1.56.71.46.67.68,11.73-1.1,17.21-.27.84,1.02,1.8,1.45,1.58Z"/>
    <path class="cls-17" d="M114.19,533.03c-3.78,2.78-5.78,6.55-7.96,10.8-4.78,9.32-4.15,18.18-3,28.62-1.02-.31-3.51-.61-4.11-2.42-.87-2.65-.86-6.81-1.17-10.28-.59-6.55,2.99-12.2,5.52-17.83,2.2-4.89,4.59-9.34,9.67-11.84l-1.71-5.71c1.05.25,2.24,1.26,2.11,2.88,2.04.27,1.41,1.09,1.54,1.71.25,1.2.46,2.19-1.06,3.17-.19.12-.23.59.18.91Z"/>
    <path class="cls-3" d="M90.2,468.83c.22,1.82.28,3.67-1.44,5.1l-7.14,5.94c-1.63,1.35-3.07,3.48-4.28,3.55-2.91.8-4.71.53-6.28-1.44,2.18-5.11,5.75-8.36,10.81-10.1-.87-2.83.31-5.16.74-7.23,3.16.29,6.18,1.41,7.58,4.19Z"/>
    <path class="cls-9" d="M80.44,613.94c-1.91,2.71-.49,7.02-1.14,10.49l-2.93,15.67c-.71,3.76-.24,8.1-4.38,9.75-.9.36-.97,1.51-.71,2.53-.55-.08-.88-.27-.88-.56l.02-1.99,6.54-35.99c.38-2.07.79-4.09,2.71-5,.22,1.27,1.23,3.25.77,5.11Z"/>
    <path class="cls-17" d="M190.5,237.52c-.71,2.01-.2,4.82-2.01,6.59-4.43-3.22-9.12-6.62-14.54-7.61l-1.75-5.61c7.28,1.59,11.95-.49,18.31,6.62Z"/>
    <path class="cls-16" d="M121.34,506.63c-1.83.03-3.52,1.38-4.02,3.14-.48-.31-1.47-.23-2.13.02-.86.31-1.74-.66-1.22-1.71l-1.03-10.69c-.32-3.43-.78-7.55-1.88-10.22.63-.98.63-1.76.4-2.78,2.87.88,2.6,3.44,3.41,5.55l6.47,16.7Z"/>
    <path class="cls-14" d="M122.99,284.24c-.87.47-1.19.77-2.07.91-1.01.16-1.68-.44-1.3-1.97,1.25-1.42,3.41-4.6,1.96-6.44-2.51-3.19-5.77-5.07-7.83-9.29,2.99-.64,5.7-2.22,9.33-2.13,1.11,6.05,1.68,11.96,1.65,17.9-1.21-.16-1.76.61-1.74,1.03Z"/>
    <path class="cls-9" d="M82.72,607.42c-.07-3.65.4-7.62-2.02-10.78,1.2.09,1.49-.53,1.25-1.64-1.01-5.03.42-11.25,5.8-12.87l-2.03,22.61c-1.32.74-2.25,1.45-3.01,2.68Z"/>
    <path class="cls-12" d="M163.93,293.26c4.55,5.14,8.52,10.95,8.46,18.26,1.66-.74,2.35.09,2.57.53-1.74-.04-3.23.19-5.31.94-.93-2.2-1.81-4.33-2.19-6.64-1.13-6.86-8.68-11.87-3.52-13.09Z"/>
    <path class="cls-10" d="M195.89,315.49c.82,1.47,2.57,1.31,3.69,2.38l-21.48,4.06c-.93-.65-1.53-2.54-1.72-3.4,6.34-.81,11.77-3.57,19.51-3.04Z"/>
    <path class="cls-15" d="M108.06,513.94c-3.72,1.11-7.32,2.23-8.32-.33,2.39-2.32,4.61-4.96,4.15-8.2l2.89-2.15,4.3,7.55c.12,1.14-1.94,2.81-3.02,3.14Z"/>
    <path class="cls-10" d="M132.13,357.35c-4.34-2.22-7.52-6.75-7.37-11.53,1.35-.41,3.1-1.22,4.47-1.31,6.18-.4,2.97,10.3,2.9,12.84Z"/>
    <path class="cls-13" d="M79.61,642.49c2.66,8.75-1.13,17.75-.86,21.46-1.1-1.1-1.51-2.68-3.18-1.87l2.28-17.97-.19-1.85c-.03-.28.55-.64.93-.31.21.18.23.54,1.02.54Z"/>
    <path class="cls-5" d="M188.49,244.12l1.56,4.98-2.51-.26c-1.83-.88-3.86-2.24-5.33-3.99-2.33-2.78-4.92-5.62-8.47-7.08.26-.58.31-.96.21-1.26,5.43.99,10.11,4.39,14.54,7.61Z"/>
    <path class="cls-6" d="M175.67,242.86c1.7,1.15,1.12,4.12-.41,5.43-2.73,2.35-7.87.83-8.89-1.44-.74-1.65-.35-3.95,1.74-4.4,2.23-.48,5.93-.68,7.55.42Z"/>
    <path class="cls-3" d="M201.64,307.07c-1.15.72-1.13,2.8-.05,3.71-1.08.27-1.77,1.17-1.63,2.2.11.86.02,1.6-.6,2.12-.54.45-1.24.44-1.81.5-.08-.45.12-1.29.38-1.67.22-.32,1.01-.43,1.12.37-.77-.5-1.59-.95-1.65-1.54-.15-1.43-.17-2.69-1.35-4.07l-5.16-6.51c2.72-.21,4.57.45,7.03,2.22l3.72,2.68Z"/>
    <path class="cls-16" d="M121.34,506.63c1.41,3.65,5.39,5.02,8.88,3.21.14.6.48,2.03-.34,2.29l-2.76.84-6.94,1.72c.13-.59.66-2.67-.15-3.19l-2.71-1.73c.5-1.76,2.19-3.11,4.02-3.14Z"/>
    <path class="cls-12" d="M172.19,230.9l1.75,5.61c.1.3.05.68-.21,1.26-2.31-.95-5.58.05-8.1-.04.05-1.18,1.4-1.63.31-1.86-.87-.18-1.1.24-1.19.49-.09.27-.02.92,0,1.22-.51.2-.76-.19-.83-.51-.37-1.63,2.02-1.98,2.49-3.73.66-2.42,3.39-2.96,5.78-2.44Z"/>
    <path class="cls-2" d="M113.71,522.19c1.29,2.24,2.92,5.3,3.5,7.7l-3.02,3.14c-.41-.32-.36-.79-.18-.91,1.51-.98,1.31-1.97,1.06-3.17-.13-.62.51-1.44-1.54-1.71.13-1.62-1.06-2.63-2.11-2.88-.69-2.29-2.82-4.94-4.15-7.09.21-.5,1.22-1.47.97-1.85.99-.16,1.83.46,2.5,1.62l2.96,5.15Z"/>
    <path class="cls-17" d="M82.72,607.42l.07,3.98c-.47.17-.96-.24-.86-.56.12-.37.85-1.52-.67-2.01-.27,1.73.38,3.4-.82,5.1.46-1.86-.55-3.84-.77-5.11-.64-3.77.13-8.57,1.03-12.2,2.42,3.16,1.95,7.13,2.02,10.78Z"/>
    <path class="cls-2" d="M117.32,509.77l2.71,1.73c.81.51.27,2.59.15,3.19-1.6.4-3.04,1.85-5.45,1.56l-.07,2.58c-1.85-1.61-.54-5.2.17-7.57.14-.47-1.69-.7-1.7-1.17l-.05-2.1.9.1c-.52,1.05.36,2.02,1.22,1.71.66-.24,1.65-.32,2.13-.02Z"/>
    <path class="cls-12" d="M89.29,561.01c2.78,2.67-2.99,4.36-10.5-10.09l10.5,10.09Z"/>
    <path class="cls-17" d="M122.99,284.24s-7.72,8.61-12.55,8.05c3.92-2.84,6.17-5.71,9.18-9.11-.38,1.53.29,2.13,1.3,1.97.88-.14,1.2-.44,2.07-.91Z"/>
    <path class="cls-2" d="M147.61,521.15c-3.28-.09-4.34-6.11-2.56-9.85.54-.27,2.25.06,2.28,1.07l.28,8.77Z"/>
    <path class="cls-9" d="M149.73,228.68c-1.87,1.2-3.83-.16-4.66-1.73,1.68.25,3.07.41,4.66,1.73Z"/>
    <path class="cls-10" d="M197.55,315.6c-.7.07-1.12-.46-1.65-.74-.32-.92.72-1.8,1.49-2.1.06.59.88,1.04,1.65,1.54-.11-.8-.89-.7-1.12-.37-.26.38-.46,1.23-.38,1.67Z"/>
    <path class="cls-17" d="M165.64,237.72c-.21-.01-.55-.27-.89-.14-.01-.3-.08-.96,0-1.22s.32-.68,1.19-.49c1.09.23-.26.68-.31,1.86Z"/>
    <path class="cls-11" d="M306.48,341.45c3.67,3.08,5.43,7.04,5.69,11.95,1.1,21.21.93,42.08.91,63.64l-.04,50.02c0,2.31.26,3.93,2.68,5.11l-.61,87.6c-.05,7.73,1.12,15.18-.66,22.8l-2.73,11.72c-.93,3.99-3.2,6.39-6.84,7-.87.15-1.53.06-2.27-.48-3.98-11.7-5.37-23.9-7.27-36.42-.91-9.12-1.65-17.81-4.37-26.69l-4.06-49.28-2.8-29.86-1.15-21.85-3.87-57.28-.57-13.29c-.19-4.47-3.26-9.96-1.87-14.49,3.02-7.38,11.97-11.49,18.1-14.01,3.76-1.55,8.33.97,11.73,3.82Z"/>
    <path class="cls-1" d="M275.61,317.66c2.39,4.06,9.67,7.09,15.04,8.82,1.77.57,2.37,2.46,3.68,3.55.96,2.22,1.74,5.35.42,7.6-6.13,2.52-15.08,6.63-18.1,14.01-1.39,4.53,1.67,10.03,1.87,14.49l.57,13.29,3.87,57.28,1.15,21.85,2.8,29.86,4.06,49.28c2.72,8.87,3.46,17.57,4.37,26.69,1.9,12.52,3.29,24.72,7.27,36.42-1.3,1.48-3.19.68-4.52-.6-5.12-4.91-4.79-9.78-7.69-12.79l-3.24-11.88-.24-4.33-2.52-20.45-4.31-37.77-5.3-50.07c-.5-4.69-1.68-8.95-1.36-13.52.26-3.79-1.28-7.68-1.43-11.73l-.72-19.9c-.21-5.73-1.23-11-1.2-17.1,0-1.67-1.83-3.82-1.37-6.75.64-4.1,1.83-9.99.11-13.52-1.49-3.06-.92-5.07-1.07-8.42-.49-10.56-1.58-20.9-1.4-31.23l2.34-15.76c.39-2.66,3.54-5.71,5.22-7.79.35,0,1.03,1.02,1.72.47Z"/>
    <path class="cls-10" d="M302.61,600.81c.75.54,1.41.63,2.27.48l3.17,14.47c4.73,20.96,7.49,42.05,10.14,63.54.29,2.35-.62,3.8-2,4.89-1.11.59-2.65.63-3.28,2.35l-9.74,2.71c.07-.37-.02-.55-.4-.85s.4-.8.41-1.88c-1.68.86-2.87,1.6-4.94.98,3.68-6.95,3.36-14.55.48-21.6-5.92-1.96-11.74-1.59-17.71-1.4l-1.16-5.85c-.46-2.31,1.26-4.79-.03-7.54-.74-1.59-.28-3.97-.31-5.6l-.19-12.95-1.39-4.09c.92-.18,1.24-1.18,1.01-2.39-1.86-10.14.14-19.76,4.49-28.89,1.77-3.73,3.55-7.41,6.95-9.79,2.91,3,2.57,7.87,7.69,12.79,1.33,1.28,3.23,2.08,4.52.6Z"/>
    <path class="cls-3" d="M299.25,326.04c-.16,1.22,1.43,1.65,1.9,2.22-.29,3.16,2.44,2.5,7.09,3.98.38.12.98.11,1.17-1.33l1.21,2.64c.1.47-.21.79-.65.76-5.4,2.27-11.31-.7-15.63-4.28-1.31-1.08-1.91-2.98-3.68-3.55,2.56-1.79,5.78-1.68,8.6-.44Z"/>
    <path class="cls-9" d="M309.95,334.31c-.35,2.6-1.72,5.02-3.48,7.14-3.39-2.85-7.97-5.36-11.73-3.82,1.32-2.25.54-5.38-.42-7.6,4.32,3.58,10.23,6.54,15.63,4.28Z"/>
    <path class="cls-12" d="M310.61,333.54l-1.21-2.64c-.18,1.44-.79,1.45-1.17,1.33-4.65-1.48-7.38-.82-7.09-3.98-.47-.56-2.06-.99-1.9-2.22l10.75,4.73c.77.34,1.28,1.02,1.52,1.47.34.64-.11,1.47-.9,1.31Z"/>
    <path class="cls-16" d="M251.75,348.15c-.41-1.41-1.31-3.09-3.11-3.38l.59,3.11,1.54,7.67c.26,1.27-1.11,3.26-1.96,2.95l-3.69-1.36c1.23,3.29.68,5.11-1.82,7.34-3.37,3-6.72,7.35-11.23,7.36-2.37,0-3.4,4.82-10.99,1.2l1.67-.4c-.53-10.53-1.32-20.89-3.52-31.23-.88-1.04-3.15-1.35-4.43-1.39l-14.66-.44-2.82-1.96c-.84-1.47-1.89-2.9-2.31-4.93,5.4-3.14,11.65-.45,20.56-4.25,1.34-.57,1.7-1.1,1.77-2.38,1.92-.52,3.76-.14,6.03.26l9.25,1.61c1.31.23,2.9,3.14,4.93,1.13l4.13-1.57c-1.46-2.46-3.68-7.89-1.22-10.08,2.02-1.8,4.2-2.22,4.51-5.58.58-6.24,4.86-10.76,10.29-13.56l-.72,12.14c-.15,2.58.86,4.19,1.39,6.35s-3.4,4.96-5.97,5.22c1.96,3.81,4.01,7.11,5.05,11.5-2.48.6-4.14-.45-6.5-.8-1.12,5.33,7.41,7.22,6.05,16.01l-2.8-.57Z"/>
    <path class="cls-6" d="M273.42,449.4c-.25,1.01-.54,2.03-1.18,1.75-1.36-.61-1.57-.6-2.49-1.24l-2.87-21.33c-.73-5.44-3.63-10.43-3.23-16.14.47-6.89-6.79-15.65-9.96-13.02-1.93,1.6-.35,6.41-.31,8.5.02,1.08-1.54,1.1-1.86.62-.29-.42-.83-1.11-.95-1.9l-1.64-10.61c-1.02-6.57-1.22-13.25-4.3-19.32l-5.28,1.72c-.14.04-.45.03-.61.16.09-.88-1.02-1.32-1.44-1.02-.31.22-1.48.61-1.85-.05-.3-.55.64-1.08,1.09-.66.25.23.98-.77.35-1.19,4.7-1.93,9.74-3.43,13.91-6.37,1.47,1.72.08,5.16,2.86,4.9,4.49-.41,8.06-3.67,12.05-6.21-2.69-3.21-6.48-2.66-7.18-5.39,3.36-3.51,4.39-8.48,5.45-13.21,1.71,1.81,1.24-1.11,2.36-8.63-.17,10.33.92,20.67,1.4,31.23.15,3.35-.42,5.36,1.07,8.42,1.72,3.53.53,9.42-.11,13.52-.46,2.94,1.38,5.08,1.37,6.75-.03,6.1,1,11.38,1.2,17.1l.72,19.9c.15,4.05,1.68,7.94,1.43,11.73Z"/>
    <path class="cls-10" d="M250.82,229.24c-.62.04-.98.56-.86,1.32l-13.85-.28c-.01-.95-.68-1.02-1.57-1.02l-8.35-.03c.55-4.62.11-8.8.03-13.13l12.31-.73c4.06-.24,7.32,1.47,9.62,3.97,2.61,2.83,3.07,6.31,2.66,9.89Z"/>
    <path class="cls-3" d="M233.41,232.37c.36-.05.63.11.92.22,4.84,1.91,9.68,3.92,14.42,7.19-2.39,1.23-4.08.37-5.89.11l-8.43-1.24c-8.28-1.22-10.46,5.87-13.81,8.08-.42-2.96-.18-5.64,1.99-8.43-.28-1.82-1.47-1.35-2.07-.34.29-1.68,1.5-2.96,2.6-4.13l10.26-1.44Z"/>
    <path class="cls-9" d="M247.43,251.49c.25.41.85.9.8,1.25.17-1.13-3.26,4.56-5.49,4.46,1.4-4.5,1.18-8.48-1.88-11.51.57-1.12.67-3.42,2.67-4.35-.2-.19-.78-.89-.66-1.46,1.81.27,3.5,1.13,5.89-.11-4.74-3.26-9.58-5.28-14.42-7.19,5.13-.54,10.27,1.9,15.16,4.71-.19,4.16-1.46,7.21-2.78,10.88l.72,3.3Z"/>
    <path class="cls-6" d="M232.07,371.85c-.21,2.34,2.59,4.72,4.81,3.8.62.43-.1,1.42-.35,1.19-.45-.42-1.39.12-1.09.66.37.67,1.54.28,1.85.05.42-.3,1.53.14,1.44,1.02-3.67-.25-7.31.56-10.83,1.56l-2.36.11c-4.14-3.56-9.35-.43-10.01-2.73l-.39-1.34c1.75-.84,2.93-2.33,4.54-3.5.5.01.89.12,1.41.36,7.59,3.62,8.62-1.2,10.99-1.2Z"/>
    <path class="cls-5" d="M258.52,362.58c.71,2.72,4.49,2.18,7.18,5.39-4,2.54-7.56,5.8-12.05,6.21-2.78.26-1.38-3.18-2.86-4.9,2.7-1.91,5.51-4.38,7.73-6.7Z"/>
    <path class="cls-17" d="M255.43,280.13c-6.83,2.44-2.32-4.35-.55-13.19l.55,13.19Z"/>
    <path class="cls-5" d="M249.96,230.56c-.12-.77.23-1.28.86-1.32,1.72,1.53,3.66.6,5.84.33l5.2-.65c4.91-.61,9.51-1.41,15.04-3.9-1.8,3.13-5.41,3.27-8.44,3.83l-10.29,1.9c-2.89.53-5.7-.14-8.21-.19Z"/>
    <path class="cls-5" d="M251.75,348.15c-.36.21-1.08.94-1.31.72l-1.21-.99-.59-3.11c1.79.29,2.69,1.97,3.11,3.38Z"/>
    <path class="cls-14" d="M278.46,223.98c.78-.78,1.82-.27,1.82-.02,0,.36-.73.98-1.14,1.26-.62.42-1.66-.27-.68-1.24Z"/>
    <path class="cls-11" d="M275.58,649.06l.11,7.95c-1.3,2.6-3.08,4.49-3.92,7.92,1.75,1.03,3.85.73,5.46.47l3.21,23.66c1.63-.34,1.69-1.6,1.62-3.1l-1.04-21.45c5.97-.2,11.8-.56,17.71,1.4,2.87,7.05,3.2,14.65-.48,21.6,2.07.62,3.26-.12,4.94-.98,0,1.08-.76,1.6-.41,1.88s.47.48.4.85c-7.14,1.98-14.4,2.73-22.05,3.99-13.5,2.22-26.68,3.09-40,3.61l1.67-14.28c1.67-5.07,6.63-9.06,9.14-14.42l10.91-23.31,11.05,6.1c1.09.62,1.22-1.33.61-1.44-.37-.06.73-.92,1.06-.45Z"/>
    <path class="cls-1" d="M151.5,596.65c.05.31.94.85.82,1.18l-.43,1.26-2.46,11.76c4.29-.25,6.68.73,8.74,3.13.31-.29.63-.32.8-.31,6.01,17.27,15.07,32.83,23.57,49.39,5.71,11.11,11.56,21.68,19.73,30.54.49.54,1.03,1.33,1.92,1.58-.04.43-.25.82-.61.83l-1.99.11c.53.35.85.89.74,1.43-.47-.06-1.11-.31-1.62-.11l-7.91-6.82-11.66-17.03c-1.62-2.36-3.35-5.2-4.51-7.52l-15.88-31.76-8.05-17.3-.49-1.41c-.64-3.16-2.8-5.06-6.44-5.84-2.34-.5-.71-7.82-6.86-8.82-1.25-1.1-1.81-2.69-.43-3.93.79-.71,2.44-.69,3.97-1.07l9.04.7Z"/>
    <path class="cls-10" d="M200.72,697.46c-4.49,1.77-9.62.82-14.61.08l-8.16.78-2.55,1.02c-2.12-4.09.68-8.42-1.68-13.3,1.35-2.51.87-5.23,1.04-8.27l.62-11.61,1.27-.07c1.16,2.32,2.9,5.16,4.51,7.52l11.66,17.03,7.91,6.82Z"/>
    <path class="cls-10" d="M241.13,696.85l-18.94.74c.28-.96.97-1.81.69-2.99.54.18,1.74.7,2.11.37l1.16-1.03c6.54-2.62,11.5-6.9,16.65-11.36l-1.67,14.28Z"/>
    <path class="cls-9" d="M220.8,694.99c-1.4.16-2.57,1.32-2.54,2.8-5.32.27-10.54.48-15.92-.22.11-.53-.21-1.08-.74-1.43l1.99-.11c.35-.02.57-.4.61-.83l10.3-.54,9.66-3.42c-1.17,1.14-1.4,3.53-3.35,3.75Z"/>
    <path class="cls-12" d="M222.88,694.6c.28,1.18-.42,2.03-.69,2.99l-3.93.2c-.03-1.48,1.14-2.64,2.54-2.8.19,1.25,1.43-.61,2.08-.39Z"/>
    <path class="cls-13" d="M152.22,615.61c-1.67-2.16-2.98-4.59-6.33-4.76.64,1.16,1.09,3.21,2.42,3.97l4.4,2.19,8.05,17.3,15.88,31.76-1.27.07-8.98-17.03c-1.02-1.94-1.58-4.24-2.69-5.59l-9.03-15.64c-1.76,6.55-.51,13.17-1.42,16.28-1.27,4.33-1.26,9.27-1.6,13.8-.93,0-1.82-.11-3.25.41l-2.03,13.19c-.89,5.81-.21,11.68-.08,17.93-3.32,2.21-7.65,3.12-11.38,2.18l2.62-51.65c.67-13.3.13-26.43,1.38-39.08,6.14,1,4.52,8.32,6.86,8.82,3.64.78,5.8,2.68,6.44,5.84Z"/>
    <path class="cls-10" d="M129.73,587.08c2.68,4.06,7.88,6.57,12.82,6.9l4.29.29c-1.4,1.83-4.37-.55-4.38,1.69-1.53.38-3.18.35-3.97,1.07-1.38,1.23-.82,2.83.43,3.93-1.24,12.65-.7,25.78-1.38,39.08l-2.62,51.65c-.08,1.67-.77,3.58-.32,5.6l-2.7.51c-2.72-.92-5.72-1.43-8.59-1.1-.12-.69-.53-1.04-1.14-.82-1.66-2.57-1.31-5.58,1.35-8l6.13-96.95c-.97-2.18-1.69-3.66-1.51-5.8.94,1.05.97,1.92,1.59,1.96Z"/>
    <path class="cls-1" d="M158.21,643.25l.04,14.03,1.6,17.23c.79,8.56,1.46,16.69,3.13,24.61-4.06-.07-9.64-.21-13.07-1.43-.75-2.66,1.04-4.82,1.22-7.09l1.58-19.99,1.53-24.92c.05-.82.88-1.75.64-2.64,1.1-1.03,2.44.21,3.33.2Z"/>
    <path class="cls-9" d="M173.72,686.04c2.36,4.88-.43,9.21,1.68,13.3l-12.42-.22c-1.67-7.92-2.34-16.05-3.13-24.61l-1.6-17.23c.87.27,2.96.95,3.42,2.3l3.55,10.28c2.07,5.99,4.5,11.71,8.5,16.19Z"/>
    <path class="cls-3" d="M149.91,697.69c-.9-.32-2.89-.2-2.73-1.48l2.58-20.25.62-9.25c.21-3.19,1.05-5.81,1.27-8.75.34-4.53.33-9.47,1.6-13.8.58.02,1.12-.63,1.63-1.11.24.89-.59,1.83-.64,2.64l-1.53,24.92-1.58,19.99c-.18,2.26-1.97,4.42-1.22,7.09Z"/>
    <path class="cls-11" d="M142.55,593.98c-4.94-.33-10.15-2.84-12.82-6.9l-.39-2.58c-1.31-1.48-4.11-2.68-5.61-3.57.97-.55.78-1.3.16-1.56-.35-.15-.04-.74-.84-1.31,4.92,3.68,10.06,6.69,16.42,8.45,3.68,1.02,2.14,3.75,3.07,7.47Z"/>
    <path class="cls-12" d="M123.06,578.06c.8.56.49,1.16.84,1.31.62.26.8,1.01-.16,1.56l-14.45-8.6c-3.15-1.87-2.06-6.63-1.87-10.17,1.55.5-.62,3.73,4.18,7.33l11.47,8.58Z"/>
    <path class="cls-13" d="M223.47,267.94c.42,1.64,1.96,3.31,2.24,4.64l3.77,18.12c1.5,7.23-2.74,12.61-9.61,14.31l-7.61,1.88c-.12-1.2.61-1.56,1.31-1.34.44.14,1.32.36,2.16-.49l-5.92-.81,9.17-4.09c6.75-3.01,2.79-15.79.57-27.21l-3.05-15.74c2.28-1.55,2.01-3.66,3.56-4.91.3,5.37,2.09,10.5,3.4,15.65Z"/>
    <path class="cls-1" d="M242.86,239.88c-.12.57.46,1.27.66,1.46-2,.93-2.1,3.23-2.67,4.35-1.99,1.93-5.42,3.81-8.22,5.56.33,2.16,1.11,3.53.35,5.07-5.63-.47-11.25-3.48-14.14-8.44l1.78-1.17c3.35-2.2,5.52-9.3,13.81-8.08l8.43,1.24ZM235.59,243.12c-.95-1.48-4.72-1.78-6.11-.84-1.82,1.23-2.26,4.26-1.15,5.8.84,1.15,3.22,2.3,4.62,1.22,1.95-1.5,4.46-3.32,2.63-6.17Z"/>
    <path class="cls-16" d="M232.99,256.33c.73-.2,1.31.15,1.43.6,1.16,4.17-6.28,13.94-10.95,11.02-1.31-5.15-3.11-10.27-3.4-15.65-.1-1.82-1.27-2.84-2.09-4.23.34-.04.67-.04.87-.18,2.89,4.96,8.51,7.97,14.14,8.44Z"/>
    <path class="cls-14" d="M232.62,327.96l-9.25-1.61c-2.28-.4-4.11-.78-6.03-.26l.1-1.19c2.65.21,4.02-2.49,5.41-4.68,3.85,1.31,8.11,1.88,11.69,5.41-.73.47-1.62,1.19-1.92,2.34Z"/>
    <path class="cls-1" d="M199.96,312.98c-.13-1.03.55-1.93,1.63-2.2l13.03-3.26c1.52.59.45,5.36-1.37,5.25-6.58-.38-9.74,4.32-13.29.2Z"/>
    <path class="cls-11" d="M192.09,407c-.54.94-1.32,1.38-1.41,3.52l-1.23,31.23c-.1,2.56,1.67,6.46.56,8.71l-2.34.51c-.42.09-.97.94-.75,1.61.14.42.91.88,1.99,1.43l-1.5,30.23c-.28,5.57,1.55,10.15,1.26,14.75l-.77,12.31c-.24,3.88.43,7.47-1.1,10.75-1.97-.84-6.79-1.64-7.69-4.41-.78-5.92,1.23-12.94-1.97-12.79,1.02-1.51,1.2-3.56,1.2-5.72l.03-47.72-.12-14.94c-1.99.11-2.23,1.36-2.12,2.72l.8,10.37c-.68.36-1.55.03-1.46-.29.16-.59.46-2.15-.85-2.78.73,4.3-1.17,8.11-1.27,12.49l-.8,34.15-.34,10.59.29,10.32-.42,1.73c-.11.47-.83.83-1.49.45-4.11-29.81-1.39-64.35-1.11-95.12.67.2,1.73.09,1.81-.4l.39-2.26c6.21-11.71,4.09-22.43,9.63-32.34,2.33,7.58.79,14.63-.12,21.89l-2.31,18.59c.82.44,1.97,1.02,3.58.71-.19-10.5,2.5-19.44,4.2-29.18.74-4.21.17-9.05,3.88-12.25,4.8,1.88,4.76,15.52,1.54,21.12ZM178.95,430.76c.45-.36.5-2.35.09-2.69-.67-.55-1.8-.02-1.65,1.12.08.61-.04,1.96,1.56,1.58ZM180.44,494.19c.26.08.74-.21.74-.46l-.11-43.09c-.26-.08-.74.21-.74.46l.11,43.09ZM181.49,516.29s.28-.17.47-.44c.06-1.2.27-2.51-.31-3.71-.05.02-.28.17-.47.44-.06,1.2-.27,2.51.31,3.71Z"/>
    <path class="cls-4" d="M225.54,380.26l2.36-.11c-1.04,1.76-2.54,3.41-4.68,3.51-1.58.07-3.06,1.11-5.47.59-.58.41-.45,1.13-.23,1.76l-1.52-.72c-.26-.12-.93.27-1.31.27-3.5.02-7.45.4-11.4-.4-2.59-.53-4.61,1.8-4.7,4.17l-.44,11.27c-2.31,14.83-1.12,29.28-1.23,44.3l-.34,45.13.6,30.27c-.51.11-1.65.43-2.06-.31-.25-.45-.61-1.27-.65-2.17l-.82-18.37-1.1-51.22.52-35.29c.03-2.05.87-4.36-.98-5.94,3.23-5.59,3.26-19.23-1.54-21.12-3.71,3.2-3.15,8.04-3.88,12.25-1.7,9.74-4.39,18.68-4.2,29.18-1.61.31-2.75-.28-3.58-.71l2.31-18.59c.9-7.27,2.44-14.31.12-21.89-5.54,9.92-3.42,20.63-9.63,32.34l-.39,2.26c-.08.48-1.14.59-1.81.4l.26-28.63-.78-10.66,25.35-.24,21.12-.49,10.1-.84Z"/>
    <path class="cls-6" d="M194.32,381.59l-25.35.24c0-.19.08-.58-.27-.75.77.1.93-.24,1.01-.57.11-.45-.28-1.77-.02-1.89,2.13-.16,6.01-.8,7.31-2.28l-1.26-13.27c.6-3.73-.92-5.49-1.44-8.88l-4.57-29.7,12.98-.46c-.88,2.73-3.6,4.03-5.9,5.23-1.69,12.48,3.27,23.58,2.19,36.07-.47,5.48,2.67,9.3,7.74,10.98,4.42,1.47,9.52,4.65,7.59,5.28Z"/>
    <path class="cls-6" d="M186.8,522.06c1.19,2.24,3.89,2.63,6.67,2.32,1.9.22,4.33.38,5.36,1.47,1.11,1.18,1.3,3,1.46,4.36-8.61-9.38-24.94-3.5-33.2-7.2l2.56-.22c4.83-.05,7.82-4.28,7.32-8.98l-.8-7.58c.11-.58.67-.93.97-1.38,3.2-.15,1.19,6.88,1.97,12.79.9,2.77,5.72,3.58,7.69,4.41Z"/>
    <path class="cls-3" d="M176.17,506.23l.8,7.58c.5,4.7-2.49,8.93-7.32,8.98-.49-.73-.86-1.05.2-1.79.61-1.06.71-3.44.75-4.76.66.38,1.37.02,1.49-.45l.42-1.73-.29-10.32c.55-.09.92.36.91.7-.01.37-.13,1.5.08,1.78.82,1.15,2.19.46,2.98.02Z"/>
    <path class="cls-1" d="M159.88,511.35c-.88-.07-.89-.57-.92-1.23-.03-.75.12-1.24.95-1.23l-.03,2.46Z"/>
    <path class="cls-1" d="M217.44,324.89l-.1,1.19c-.07,1.28-.43,1.81-1.77,2.38-8.91,3.8-15.16,1.11-20.56,4.25.42,2.03,1.47,3.46,2.31,4.93.34.59,1.68,1.4,1.66,2.23l-.52,20.62c-.08,3.01-4.22,5.43-6.84,6.12-1.88-3.41-.96-6.82-1.27-10.19-.1-1.1.16-2.14-1.31-3.2,1.31-2.78,1.08-5.24-1.02-6.83-.19-7.63-.6-16.58-4.89-20.65,11.02-1.44,22.81-1.75,34.31-.84Z"/>
    <path class="cls-12" d="M190.35,356.42c.31,3.37-.61,6.79,1.27,10.19,2.77,5.02,11.24,4.89,15.44.66,3.26,1.82,5.34,2.98,8.54,3.16.31-3.51-.8-6.15.78-9.8l3.58,10.12-.9.51c-.51-2.17-.73-4.01-2.58-6.05l-.34,5.37c1.29.63,2.73,1.17,3.53,2.12-1.61,1.17-2.79,2.66-4.54,3.5-.47-.17-.98-.14-1.39.11-.7.07-1.64-.46-1.99-.97s-.16-1.41-.59-2.73c-4.55,3.9-10.72,1.9-15.28-.39-2.06.45-6.22,3.27-7.88.24-2.05-3.75-1.74-9.08-1.47-12.99.08-1.12.57-2.22,1.26-2.66.81-.52,1.64-.46,2.55-.38Z"/>
    <path class="cls-10" d="M190.35,356.42c-.9-.08-1.73-.13-2.55.38-.7.44-1.19,1.54-1.26,2.66.85-2.16-1.34-3.47-1.56-4.97l-3.68-24.25c-.18-1.17.58-4.36,1.84-4.52,4.29,4.08,4.69,13.02,4.89,20.65,2.1,1.59,2.33,4.06,1.02,6.83,1.46,1.06,1.2,2.1,1.31,3.2Z"/>
    <path class="cls-16" d="M166.67,344.93c-2.32.48-3.98,1.45-7.04,1.4l.5-13.16c1.11-.76,2.49-1.96,2.54-3.27.52.98,1.6,2.23,1.85,3.6l2.14,11.43Z"/>
    <path class="cls-14" d="M225.54,380.26l-10.1.84c-.68-1.63-.5-3.47-1.69-4.8.41-.25.92-.28,1.39-.11l.39,1.34c.66,2.29,5.88-.83,10.01,2.73Z"/>
    <path class="cls-6" d="M204.28,546.26c.26,1.04-.48,2.27-1.47,1.05-6.38,5.66-12.19,3.57-14.41,5.45s.24,17.94-1.66,30.51c-.27,1.79-2.03,3.55-2.85,5.38-2.53,5.66-1.1,11.64-2.22,18.06-.62,3.58-7.35,5.88-10.47,4.71-.68-.67-.05-1.25.09-1.84.36-.14.91-.13,1.07.45,2.82,1.12,7.31-2.5,7.51-5.86.18-3.02-.8-5.64-1.33-8.36-2.95-.41-6.58,1.08-9.42,1.87-1.56.43-4.56-1.58-5.97.58-.24.02-.61.05-.83-.02-.57-.18-1.4-.04-1.87-.04l-8.94-1.55-9.04-.7c.01-2.24,2.98.14,4.38-1.69,3.31.22,6.87-.24,10.57.76,3.02.81,5.69,1.17,8.33.25l4.39-1.53c4.18,1.15,9.53-.32,11.18-4.42l1.68-4.16c1.27-3.14,2.47-6.19,1.68-9.74-.47-2.11.48-3.85.39-5.82l-.68-14.84c-.16-3.4-3.77-3.25-5.59-3.26-2.75,0-5,.74-7.46.62.6-.91.46-2.58.27-4.15l6.48,1.11c3.82.65,8.07,1.54,11.97.84,4.82-.87,9.02-3.86,10.44-8.53.27-.88.13-2.23,1.19-3.51,2.09,2.79,1.65,5.94,2.62,8.37ZM200.82,544.11c1.55-.36,2.4-1.67,1.38-3.35-.66,1.03-1.34,1.84-1.38,3.35ZM179.41,550.07c-1.82-1.06-2.39.44-2.07.62,1.59.71,2.15-.41,2.07-.62ZM187.11,572.85c0-.58-.47-1.05-1.05-1.05s-1.05.47-1.05,1.05.47,1.05,1.05,1.05,1.05-.47,1.05-1.05Z"/>
    <path class="cls-13" d="M204.2,535.72c1.47.86,2.23,2.27,2.23,4.35v8.22s-2.15-2.03-2.15-2.03c-.97-2.43-.53-5.58-2.62-8.37-1.05,1.28-.92,2.63-1.19,3.51-.41-3.66.58-5.98-2.96-9.45-.06-.66-.05-1.06.09-1.37.18-.42.89-.66,1.22-.47.76.45.55,1.52-.37,2.1,3.46,2.51,2.76,5.18,4.48,5.46.64.1,2.18.28,1.6-.97-2.17,1.14-2.47-1.56-.33-.98Z"/>
    <path class="cls-13" d="M212.6,256.48l7.53,37.33c.73,3.6-3.81,7.58-7.44,6.62-1.22-.32-1.28.03-2.19.23,2.76-2.23,1.42-5.58.94-9.04l-1.71-12.24-1.36-20.05c1.5,0,.2-3.11,1.96-3.66.7-.22,1.35.52,2.27.82Z"/>
    <path class="cls-14" d="M212.6,256.48c-.92-.29-1.57-1.03-2.27-.82-1.77.55-.46,3.66-1.96,3.66l-1.53-20.22c-.15-2.02-.55-3.53-1.93-4.79,7.02-1.66,6.01,13.82,7.69,22.16Z"/>
    <path class="cls-14" d="M223.15,233.81c-1.1,1.17-2.32,2.45-2.6,4.13-.33,1.91-2.1,3.79-3.93,4.53-.02.41.15,1.37-.15,1.77-2.11-2.93-3.92-9.24-2.11-10.88,1.28-1.17,3.04,1.26,8.8.45Z"/>
    <path class="cls-12" d="M220.63,246.71l-1.78,1.17c-.2.13-.53.14-.87.18-.7-1.19-.75-2.76-1.51-3.82.3-.4.13-1.36.15-1.77,1.83-.74,3.61-2.62,3.93-4.53.59-1.01,1.78-1.48,2.07.34-2.17,2.79-2.41,5.47-1.99,8.43Z"/>
    <path class="cls-10" d="M81.5,457.08c-.73-.16-.78-3.14.42-3.12,1.39.02,1.34,2.77-.42,3.12Z"/>
    <path class="cls-1" d="M204.74,283.09c.02,1.76,1.07,4.99.27,6.69-2.54-.66-4.28-2.23-3.86-3.95.39-1.61,1.63-2.49,3.6-2.74Z"/>
    <path class="cls-16" d="M238.73,378.58c.15-.13.47-.12.61-.16-1.7,13.01,1.22,25.77,4.79,38.68l5.71,28.72c.98,4.93,1.94,9.56.99,14.81,1.78,2.31,2.5,5.18,1.29,8.09l3.78,4.12,3.23,26.82c1.27.34,2.22.95,2.9,1.89l-.42-4.75c1.1-.76.97-2.23,1.2-3.79.97.8,2,1.21,2.37.16.28-.78.39-.85,1.19-.87l1.36,5.51c-.7,3.56,1.38,7.99,1.06,11.86l-3.26,38.63c-1.82,21.56-5.86,42.41-12.18,63.03l-16.53,53.92c-2.5,8.16-7.28,13.98-9.19,20.09-.81,2.6-1.68,4.17-3.47,5.9l-9.66,3.42-10.3.54c-.89-.25-1.43-1.04-1.92-1.58,1.14-1.33.57-2.16.22-3.56l-7.24-28.75-9.01-42.61c-.26-1.22-.44-2.47-1.2-3.09-.75-.61-1.59-.98-2.81-.49.68-.92.17-1.29-.38-1.48,1.16-.71,1.97-1.3,2.5-3.21,1.21.51,1.87.25,2.57-.21.86-.57.98-1.61,1.07-2.71l1.01-13.11c.25-3.23,4.06-5.17,3.98-8.42l-.65-28.56,5.85-2.04c3.51-1.22,7.35-3.46,8.21-7.08v-8.22c.01-2.08-.75-3.49-2.22-4.35-3.84-2.26-2.16-3.94-3.91-5.52-.16-1.36-.35-3.18-1.46-4.36-1.04-1.09-3.46-1.26-5.36-1.47-2.78.32-5.48-.08-6.67-2.32,1.53-3.29.86-6.87,1.1-10.75l.77-12.31c.29-4.6-1.54-9.18-1.26-14.75l1.5-30.23c-1.08-.56-1.85-1.01-1.99-1.43-.21-.66.34-1.52.75-1.61l2.34-.51c1.11-2.26-.66-6.15-.56-8.71l1.23-31.23c.08-2.13.87-2.58,1.41-3.52,1.86,1.58,1.01,3.89.98,5.94l-.52,35.29,1.1,51.22.82,18.37c.04.9.4,1.71.65,2.17.41.74,1.55.41,2.06.31,1.45-.3,4.78-.22,5.46-2.15,1.4-3.96.5-8.3.65-12.56l2.35-6.96c-.55-4-3.03-7.37-4.75-10.27,1.4-1.18,2.02-2.73,1.94-4.86-.43-11.43,1.17-22.29,1.15-33.63l-.09-40.73c0-1.64-1.31-3.97.09-5.82,1.15-1.51,3.74.56,5,1.25,3.51-1.17,5.19-6.04,5.86-9.27,1.64-.13,2.34-.55,3.26-1.52,1.88-1.97-2.96-4.07-3.4-8.21.38,0,1.05-.4,1.31-.27l1.52.72c2.6,3.62,1.43,8.45,2.07,13.03,2.01,14.33,4.18,28.03,3.52,42.68l.7,4.31c-1.6-.65.07-2.45-2.04-2.96-2.69-.65.14,10.55-.25,21.57-.03.97,2.69,1.18,2.93.53.12-3.27.85-6.73.15-9.68.45.31,1.34.97,1.72.41,1.31-1.99-.12-4.12-.04-6.05.73-16.75-.99-32.68-3.23-49.15-.81-5.93-1.15-11.74.19-17.05,2.15-.1,3.64-1.75,4.68-3.51,3.52-1,7.17-1.82,10.83-1.56ZM229.17,400.68l2.83,18.64,5.77,36.26c.44,2.76-.22,6.12,2.75,7.98,1.61-7.56,0-14.54-.93-21.91l-3.05-23.86c-.35-2.71-.29-5.96-3.02-8.01.04-1.77.37-4.01-.12-5.57-1.01.43-2.25.53-2.49.01-.28-.59,1.28-2.1,1.23-2.67l-1.61-17.34c-.11-1.17-2.54-1.94-3.43-1.51l2.07,17.96ZM212.51,516.69l-.31-28.31c-.12-11.13,0-21.72-.33-32.9l-1.42-47.38c-.03-1.07-.51-1.48-.8-1.82-.25-.29-1.66-.73-1.64.04l.74,41.35.83,40.98.55,32.17c2.81-.3,2.41-2.05,2.39-4.13ZM262.22,505.49c.8-1.82-.58-2.91-1.68-2.32-1.91,1.23-.82,5.88,1.6,6.14,1.35.14.89-2.99.08-3.82Z"/>
    <path class="cls-8" d="M178.07,549.09l-6.48-1.11c.18,1.57.33,3.24-.27,4.15l-14.38-.71c-13.39-.66-26.59-5.87-37.38-13.42.62-.27,1.03-.64.9-.88-.19-.34-.25-.92-.02-1.26,1.02-.3,2.03.49,2.41,1.84,13.44,6.72,27.63,10.39,42.69,10.35,4.35-1.09,8.96-1.34,12.52,1.04Z"/>
    <path class="cls-1" d="M119.57,537.99c10.79,7.55,23.99,12.76,37.38,13.42,1.66.83,2.71,1.71,2.94,3.62-2.37.36-.4,5.29-10.94,2.49-2.46-.65-5.23,3.95-3.67,5.95,1.07,1.37,2.68,1.47,3.86,1.85,5.18,1.66,5.69.12,9.05.13l.04,6.48c-4.08.5-8.42-.61-12.04,1.25-2.75,3.44-.47,9.58-3.95,9.53-.99-.02-1.63-.21-3.04-.8.57,2.86,3.05,4.29,5.93,4.37l17.02.52c6.98,6.16,14.82-3.13,14.17,1.2l-.24,2.04c-.51-.11-.89.36-.65.9-.54.17-.99.24-1.46.89-4.11.7-8.82-2.94-14.62.48,1.6,2.41,4.2,2.54,6.39,2.95-2.64.92-5.32.57-8.33-.25-3.7-1-7.26-.54-10.57-.76l-4.29-.29c-.93-3.71.61-6.45-3.07-7.47-6.37-1.76-11.5-4.77-16.42-8.45l-11.47-8.58c-4.81-3.6-2.63-6.83-4.18-7.33.15-2.86-1.28-5.79.27-8.84.79-1.56-.85-3.65-.33-5.88,2.98-.89,4.7-3.31,3.55-6.76l7.95-3.91c.55-.27,1.32.55.72,1.24Z"/>
    <path class="cls-6" d="M284.4,550.76c-3.76,1.81-4.85,12.78-3.37,18.12.59,2.15,4.45,2.17,5.89,2.33l.24,4.33c-5.67.25-8.61,6.38-10.85,12.11l-5.1,12.98c-.57,1.45-.9,2.99-.74,4.17.35,2.44-2.84,3.28-3.17,4.9-.13,2.18-1.53,3.34-2.24,5.24l-11.05,29.23-9.97,21.92c-3.6,7.92-7.15,15.64-13.5,22.27l6.45-12.97,13.01-32.92c3.68-9.31,7.54-17.9,10.17-27.61l12.91-47.61,5.49-33.74.56-16.24c.05-1.31.24-2.98.96-4.27l4.31,37.77Z"/>
    <path class="cls-8" d="M287.15,575.54l3.24,11.88c-3.4,2.38-5.17,6.06-6.95,9.79-4.34,9.13-6.35,18.75-4.49,28.89.22,1.2-.09,2.2-1.01,2.39-.19-.54-.04-1.55.36-1.95.34-.35-2.33-.57-2.42-1.07-1.06-5.79-1.88-12.8-1.8-19.13-1.21-1.01-2.53-1.03-3.62-1.54-.17-1.18.17-2.71.74-4.17l5.1-12.98c2.25-5.72,5.19-11.86,10.85-12.11Z"/>
    <path class="cls-5" d="M273.42,449.4c-.31,4.57.87,8.83,1.36,13.52l5.3,50.07c-.72,1.29-.91,2.95-.96,4.27l-2.19-13.11c-4.12-16.72-5.83-34.95-6.8-51.58,1.23-.75.5-1.67-.39-2.65.92.64,1.13.63,2.49,1.24.64.28.94-.73,1.18-1.75Z"/>
    <path class="cls-13" d="M286.91,571.21c-1.43-.16-5.29-.18-5.89-2.33-1.48-5.35-.38-16.32,3.37-18.12l2.52,20.45Z"/>
    <path class="cls-5" d="M277.94,628.49l1.39,4.09.19,12.95-1.35,1.79c-.48.78-1.93.48-2.74-.57-.14-2.16.4-4.36-.59-6.66-1.75.81-2.46-1.31-.35-1.26-3.43-2.77-.54-7.4-1.39-12.76.77-.09,1.42,0,2.16.9.67-1.24-.15-2.13-1.51-1.79l-5.16-14.39c-.25-.7-.85-.95-1.29-1.09.32-1.62,3.52-2.46,3.17-4.9,1.08.51,2.41.54,3.62,1.54-.07,6.33.74,13.34,1.8,19.13.09.5,2.76.72,2.42,1.07-.4.4-.55,1.41-.36,1.95Z"/>
    <path class="cls-8" d="M281.01,664.51l1.04,21.45c.07,1.5.01,2.76-1.62,3.1l-3.21-23.66c-.2-1.45-1.86-3.53-.33-5.37-.06-.89-.99-2.38-1.22-3.02l-.11-7.95-.15-2.32c.81,1.05,2.26,1.35,2.74.57l1.35-1.79c.02,1.63-.44,4.01.31,5.6,1.28,2.75-.43,5.23.03,7.54l1.16,5.85Z"/>
    <path class="cls-9" d="M221.08,373.05c-.52-.25-.91-.35-1.41-.36-.8-.96-2.24-1.5-3.53-2.12l.34-5.37c1.85,2.04,2.06,3.88,2.58,6.05l.9-.51-3.58-10.12c-1.58,3.65-.47,6.29-.78,9.8-3.21-.17-5.29-1.34-8.54-3.16-4.2,4.24-12.67,4.36-15.44-.66,2.62-.69,6.76-3.1,6.84-6.12l.52-20.62c.02-.83-1.32-1.64-1.66-2.23l2.82,1.96,14.66.44c1.28.04,3.54.35,4.43,1.39,2.2,10.34,3,20.7,3.52,31.23l-1.67.4Z"/>
    <path class="cls-13" d="M269.75,449.91c.9.98,1.62,1.91.39,2.65.97,16.64,2.68,34.87,6.8,51.58l2.19,13.11-.56,16.24-5.49,33.74-12.91,47.61c-2.63,9.7-6.49,18.29-10.17,27.61l-13.01,32.92-6.45,12.97c6.35-6.63,9.9-14.35,13.5-22.27l9.97-21.92,11.05-29.23c.72-1.9,2.11-3.06,2.24-5.24.44.14,1.04.39,1.29,1.09l5.16,14.39c1.36-.34,2.19.54,1.51,1.79-.74-.89-1.39-.99-2.16-.9-5.6.63-5.1,5.03-7.09,10.36l-3.15,8.42-10.91,23.31c-2.51,5.36-7.48,9.35-9.14,14.42-5.15,4.46-10.12,8.74-16.65,11.36l-1.16,1.03c-.37.33-1.57-.19-2.11-.37-.65-.22-1.89,1.64-2.08.39,1.95-.22,2.18-2.62,3.35-3.75,1.79-1.73,2.66-3.3,3.47-5.9,1.91-6.11,6.69-11.93,9.19-20.09l16.53-53.92c6.32-20.63,10.36-41.47,12.18-63.03l3.26-38.63c.33-3.86-1.75-8.29-1.06-11.86l-1.36-5.51.15-8.83c.02-.96-.35-1.99-.83-2.09l-2.64-.58c1.9-5.89.97-11.8,0-17.63-1.76-10.53-3.59-33.95-6.04-36.19-.36-.33-1.85.07-2.02.96-.87,4.78.79,9.57,1.26,14.44l2.07,21.4c.32,3.32,1.23,5.5,1.5,9.03l1.8,23.98.42,4.75c-.68-.94-1.63-1.55-2.9-1.89l-3.23-26.82-3.78-4.12c1.2-2.91.49-5.78-1.29-8.09.95-5.25-.01-9.88-.99-14.81l-5.71-28.72c-3.57-12.9-6.49-25.67-4.79-38.68l5.28-1.72c3.09,6.06,3.29,12.74,4.3,19.32l1.64,10.61c.12.79.66,1.48.95,1.9.33.47,1.88.46,1.86-.62-.04-2.09-1.62-6.9.31-8.5,3.17-2.62,10.43,6.13,9.96,13.02-.39,5.71,2.5,10.7,3.23,16.14l2.87,21.33Z"/>
    <path class="cls-3" d="M273.1,626.07c.85,5.36-2.05,10,1.39,12.76-2.1-.05-1.4,2.06.35,1.26.99,2.3.45,4.49.59,6.66l.15,2.32c-.33-.47-1.43.39-1.06.45.62.11.48,2.05-.61,1.44l-11.05-6.1,3.15-8.42c1.99-5.33,1.49-9.73,7.09-10.36Z"/>
    <path class="cls-12" d="M277.23,665.39c-1.61.26-3.72.56-5.46-.47.83-3.43,2.62-5.32,3.92-7.92.23.64,1.16,2.14,1.22,3.02-1.53,1.84.13,3.92.33,5.37Z"/>
    <path class="cls-9" d="M180.44,614.2c.25-.57.9-.75,1.44-.56s1.06.56.38,1.48c1.22-.49,2.05-.13,2.81.49.76.61.94,1.86,1.2,3.09l9.01,42.61,7.24,28.75c.35,1.4.92,2.23-.22,3.56-8.17-8.86-14.02-19.43-19.73-30.54-8.51-16.56-17.57-32.13-23.57-49.39l5.72.41c5.44.39,10.87,1.06,15.74.11Z"/>
    <path class="cls-9" d="M160.45,598.21c.42,2.71,6.32,3.38,3.47,8.31-1.29,2.23-4.13,3.63-6.34,4.49-1.85,1.2.57,2.19.59,2.97-2.06-2.4-4.45-3.38-8.74-3.13l2.46-11.76.43-1.26c.11-.34-.77-.88-.82-1.18l8.94,1.55Z"/>
    <path class="cls-15" d="M171.19,611.42c.54,2.82,4.35,2.37,9.24,2.77-4.87.95-10.3.28-15.74-.11l-5.72-.41c-.17-.01-.5.01-.8.31-.02-.78-2.45-1.77-.59-2.97,5.83.08,11.29,1.24,13.7-1.43-.13.59-.77,1.16-.09,1.84Z"/>
    <path class="cls-6" d="M152.22,615.61l.49,1.41-4.4-2.19c-1.34-.76-1.78-2.82-2.42-3.97,3.36.18,4.67,2.6,6.33,4.76Z"/>
    <path class="cls-3" d="M163.7,643.53c1.11,1.35,1.67,3.65,2.69,5.59l8.98,17.03-.62,11.61c-.16,3.05.31,5.77-1.04,8.27-4-4.48-6.43-10.2-8.5-16.19l-3.55-10.28c-.46-1.34-2.55-2.03-3.42-2.3l-.04-14.03,2.87-3.37c.78,1.48,1.65,2.48,2.62,3.65Z"/>
    <path class="cls-9" d="M163.7,643.53c-.96-1.17-1.84-2.17-2.62-3.65l-2.87,3.37c-.89.02-2.23-1.23-3.33-.2-.51.48-1.05,1.14-1.63,1.11.91-3.11-.34-9.73,1.42-16.28l9.03,15.64Z"/>
    <path class="cls-6" d="M235.59,243.12c1.82,2.85-.69,4.67-2.63,6.17-1.41,1.08-3.78-.06-4.62-1.22-1.12-1.54-.67-4.57,1.15-5.8,1.39-.94,5.17-.63,6.11.84Z"/>
    <path class="cls-10" d="M177.14,504.85c-.3.45-.86.81-.97,1.38-.79.43-2.15,1.12-2.98-.02-.2-.28-.09-1.41-.08-1.78.01-.34-.36-.79-.91-.7l.34-10.59.8-34.15c.1-4.38,2-8.19,1.27-12.49,1.32.63,1.02,2.19.85,2.78-.09.32.78.65,1.46.29l-.8-10.37c-.11-1.35.13-2.6,2.12-2.72l.12,14.94-.03,47.72c0,2.16-.18,4.22-1.2,5.72Z"/>
    <path class="cls-7" d="M180.44,494.19l-.11-43.09c0-.26.48-.55.74-.46l.11,43.09c0,.26-.48.55-.74.46Z"/>
    <path class="cls-10" d="M178.95,430.76c-1.6.39-1.48-.97-1.56-1.58-.15-1.14.98-1.67,1.65-1.12.41.34.37,2.33-.09,2.69Z"/>
    <path class="cls-9" d="M181.49,516.29c-.57-1.2-.36-2.51-.31-3.71.19-.27.42-.43.47-.44.57,1.2.36,2.51.31,3.71-.19.27-.42.43-.47.44Z"/>
    <path class="cls-11" d="M214.7,385.56c.45,4.15,5.28,6.24,3.4,8.21-.93.97-1.62,1.39-3.26,1.52-.67,3.23-2.36,8.1-5.86,9.27-1.26-.69-3.85-2.77-5-1.25-1.4,1.85-.09,4.18-.09,5.82l.09,40.73c.03,11.35-1.58,22.2-1.15,33.63.08,2.13-.54,3.68-1.94,4.86,1.72,2.9,4.2,6.27,4.75,10.27l-2.35,6.96c-.16,4.26.75,8.6-.65,12.56-.68,1.93-4.01,1.84-5.46,2.15l-.6-30.27.34-45.13c.11-15.01-1.07-29.47,1.23-44.3l.44-11.27c.09-2.37,2.11-4.69,4.7-4.17,3.95.8,7.91.42,11.4.4Z"/>
    <path class="cls-11" d="M223.22,383.65c-1.33,5.31-.99,11.13-.19,17.05,2.25,16.47,3.96,32.39,3.23,49.15-.08,1.93,1.35,4.06.04,6.05-.37.57-1.27-.1-1.72-.41-.74-3.07-.28-6.4-.78-9.47l-.7-4.31c.66-14.65-1.51-28.35-3.52-42.68-.64-4.57.53-9.41-2.07-13.03-.22-.63-.36-1.36.23-1.76,2.41.52,3.89-.52,5.47-.59Z"/>
    <path class="cls-10" d="M178.79,551.51c1.68,1.61,1.35,3.8.98,5.49-1.23,5.5-8.63,3.92-7.19,7.75,2.32-1.21,7.22-2.1,8.52.58,2.07,4.27-4.89,8.01-6.51,11.37l-21.37,2.12c-.99-2.25.52-3.71,1.14-4.83,1-1.81,3.84-.96,5.4-.97,7.62-.04,13.3-3.54,11.99-6.85-.27-.67-1.35-.75-2.05-.75.72-.21.91-.51,1.27-.74.24-.16.8-.49-.01-.87-.3-.14-.83-.08-1.07-.12-.04-.89-1.16-.51-2.44-1.17l1.6-6.34,2.28-4.06c2.47.12,4.71-.62,7.46-.62Z"/>
    <path class="cls-8" d="M206.42,548.3c-.86,3.62-4.7,5.86-8.21,7.08l-5.85,2.04.65,28.56c-.67.06-1.43.78-2.1.41-1.12-2.12-2.8-2.06-4.17-3.12,1.9-12.58-.52-28.67,1.66-30.51s8.03.21,14.41-5.45c.99,1.21,1.73,0,1.47-1.05l2.14,2.03Z"/>
    <path class="cls-5" d="M181.31,589.32l-5.88,1.62c-.24-.54.14-1,.65-.9,1.68.05,1.01-2,1-2.88-.02-1.44-.03-2.45-1.99-2.29,4-.63,6.28-4.32,6.25-8.7-2.84-1.02-4.59.32-6.75.53,1.62-3.36,8.58-7.1,6.51-11.37-1.3-2.68-6.2-1.79-8.52-.58-1.43-3.84,5.97-2.25,7.19-7.75.38-1.69.71-3.88-.98-5.49,1.82,0,5.43-.14,5.59,3.26l.68,14.84c.09,1.96-.86,3.71-.39,5.82.79,3.54-.41,6.6-1.68,9.74l-1.68,4.16Z"/>
    <path class="cls-13" d="M193.01,585.98c.07,3.26-3.74,5.19-3.98,8.42l-1.01,13.11c-.08,1.09-.21,2.13-1.07,2.71-.7.46-1.35.72-2.57.21-.53,1.9-1.35,2.5-2.5,3.21-.54-.19-1.19,0-1.44.56-4.89-.4-8.7.05-9.24-2.77,3.13,1.17,9.85-1.13,10.47-4.71,1.12-6.42-.32-12.4,2.22-18.06.82-1.83,2.58-3.59,2.85-5.38,1.37,1.07,3.05,1,4.17,3.12.67.37,1.43-.35,2.1-.41Z"/>
    <path class="cls-10" d="M162.31,598.25c.31,1.95,5.81,2.38,8.33,1.52,1.55,1.06,3.49,2.65,3.51,4.6s-1.17,3.5-1.8,5.66c-.16-.57-.71-.58-1.07-.45-2.42,2.66-7.87,1.51-13.7,1.43,2.21-.86,5.05-2.26,6.34-4.49,2.85-4.93-3.05-5.61-3.47-8.31.46,0,1.29-.14,1.87.04Z"/>
    <path class="cls-8" d="M172.35,610.03c.63-2.17,1.82-3.76,1.8-5.66s-1.96-3.55-3.51-4.6c-2.17-1.48-4.89-1.75-7.5-1.5,1.41-2.17,4.41-.15,5.97-.58,2.84-.79,6.47-2.28,9.42-1.87.53,2.71,1.51,5.34,1.33,8.36-.2,3.37-4.69,6.98-7.51,5.86Z"/>
    <path class="cls-17" d="M173.97,591.84c-.88,1.21-2.57,1.46-3.84,1.9l-4.39,1.53c-2.2-.41-4.8-.54-6.39-2.95,5.81-3.43,10.51.22,14.62-.48Z"/>
    <path class="cls-13" d="M181.31,589.32c-1.65,4.1-7,5.57-11.18,4.42,1.26-.44,2.96-.69,3.84-1.9.47-.65.92-.72,1.46-.89l5.88-1.62Z"/>
    <path class="cls-9" d="M170.64,599.77c-2.51.86-8.02.43-8.33-1.52.22.07.59.04.83.02,2.61-.25,5.33.02,7.5,1.5Z"/>
    <path class="cls-5" d="M200.82,544.11c.04-1.51.72-2.32,1.38-3.35,1.03,1.68.17,2.99-1.38,3.35Z"/>
    <circle class="cls-5" cx="186.07" cy="572.85" r="1.05"/>
    <path class="cls-5" d="M179.41,550.07c.09.21-.48,1.33-2.07.62-.32-.18.25-1.68,2.07-.62Z"/>
    <path class="cls-9" d="M212.51,516.69c.02,2.08.42,3.82-2.39,4.13l-.55-32.17-.83-40.98-.74-41.35c-.01-.77,1.39-.33,1.64-.04.29.34.76.74.8,1.82l1.42,47.38c.33,11.18.21,21.76.33,32.9l.31,28.31Z"/>
    <path class="cls-3" d="M266.37,492.3c-.8.02-.91.09-1.19.87-.37,1.05-1.4.65-2.37-.16-.23,1.56-.09,3.03-1.2,3.79l-1.8-23.98c-.27-3.53-1.17-5.71-1.5-9.03l-2.07-21.4c-.47-4.86-2.14-9.65-1.26-14.44.16-.89,1.66-1.29,2.02-.96,2.45,2.24,4.28,25.66,6.04,36.19.98,5.83,1.9,11.74,0,17.63l2.64.58c.47.1.84,1.13.83,2.09l-.15,8.83Z"/>
    <path class="cls-2" d="M236.54,417.79l3.05,23.86c.94,7.36,2.55,14.34.93,21.91-2.97-1.87-2.31-5.22-2.75-7.98l-5.77-36.26,4.54-1.52Z"/>
    <path class="cls-15" d="M232.13,401.56c-1.3.14-2.04,0-2.97-.88l-2.07-17.96c.89-.44,3.32.33,3.43,1.51l1.61,17.34Z"/>
    <path class="cls-15" d="M223.81,446.03c.5,3.07.05,6.4.78,9.47.71,2.95-.02,6.4-.15,9.68-.23.65-2.96.44-2.93-.53.39-11.02-2.44-22.22.25-21.57,2.11.51.44,2.3,2.04,2.96ZM222.41,456.08c-1.06,1.36-.29,1.87.45,2.34.24.16.57.8,1.12.02s-1-3.08-1.57-2.36Z"/>
    <path class="cls-13" d="M232.13,401.56c.05.57-1.5,2.07-1.23,2.67.24.51,1.48.42,2.49-.01.48,1.56.16,3.8.12,5.57,2.72,2.05,2.67,5.3,3.02,8.01l-4.54,1.52-2.83-18.64c.93.89,1.66,1.03,2.97.88Z"/>
    <path class="cls-15" d="M262.22,505.49c.82.83,1.27,3.96-.08,3.82-2.42-.25-3.5-4.91-1.6-6.14,1.1-.59,2.47.5,1.68,2.32Z"/>
    <path class="cls-7" d="M171.32,552.13l-2.28,4.06c-.61.1-1.47-.25-1.53,1.71,1.37-5.8-.94-3.87-7.63-2.86-.23-1.92-1.28-2.79-2.94-3.62l14.38.71Z"/>
    <path class="cls-9" d="M169.7,565.42c.7,0,1.78.07,2.05.75,1.31,3.31-4.37,6.82-11.99,6.85-1.57,0-4.4-.84-5.4.97-.62,1.12-2.13,2.58-1.14,4.83l21.37-2.12c2.17-.22,3.92-1.55,6.75-.53.03,4.38-2.25,8.07-6.25,8.7-2.02.32-3.72.92-6.3,1.21l-6.64.73-17.02-.52c-2.89-.09-5.36-1.51-5.93-4.37,1.42.59,2.05.79,3.04.8,3.48.06,1.2-6.08,3.95-9.53,3.63-1.87,7.97-.75,12.04-1.25l-.04-6.48,11.51-.04Z"/>
    <path class="cls-9" d="M169.04,556.19l-1.6,6.34c1.28.67,2.4.28,2.44,1.17l-9.3.93c-3.3.31-6.94-1.89-9.93-.12l-1.13-.63c-.2-.11-.58,1.17-.38,1.44-1.18-.38-2.79-.48-3.86-1.85-1.56-2,1.2-6.6,3.67-5.95,10.54,2.8,8.57-2.13,10.94-2.49,6.69-1.01,9-2.94,7.63,2.86.06-1.96.92-1.61,1.53-1.71Z"/>
    <path class="cls-13" d="M175.08,584.88c1.96-.15,1.97.85,1.99,2.29.01.88.68,2.93-1,2.88l.24-2.04c.65-4.33-7.19,4.96-14.17-1.2l6.64-.73c2.58-.28,4.28-.89,6.3-1.21Z"/>
    <path class="cls-2" d="M150.65,564.51l7.41.2c.18.2.13.6.13.75-3.36,0-3.87,1.53-9.05-.13-.2-.27.18-1.55.38-1.44l1.13.63Z"/>
    <path class="cls-2" d="M169.88,563.7c.24.04.77-.03,1.07.12.82.38.26.71.01.87-.36.23-.55.53-1.27.74l-11.51.04c0-.15.05-.55-.13-.75l-7.41-.2c3-1.77,6.63.42,9.93.12l9.3-.93Z"/>
    <path class="cls-2" d="M222.41,456.08c.56-.72,2.11,1.6,1.57,2.36s-.88.14-1.12-.02c-.73-.47-1.51-.99-.45-2.34Z"/>
  </g>
</svg>