<?xml version="1.0" encoding="UTF-8"?>
<svg id="Réteg_1" data-name="Réteg 1" xmlns="http://www.w3.org/2000/svg" viewBox="0 0 409.19 709.78">
  <defs>
    <style>
      .cls-1 {
        fill: #1c395c;
      }

      .cls-2 {
        fill: #f39ea5;
      }

      .cls-3 {
        fill: #f6b3a6;
      }

      .cls-4 {
        fill: #e4aca3;
      }

      .cls-5 {
        fill: #fbedde;
      }

      .cls-6 {
        fill: #39587d;
      }

      .cls-7 {
        fill: #fcddb8;
      }

      .cls-8 {
        fill: #3e649e;
      }
    </style>
  </defs>
  <g id="Generatív_objektum_0_0_" data-name="Generatív objektum (0, 0)">
    <path class="cls-4" d="M210.05,703.05l-28.54-.29c.2-.76,1.21-1.28,2.67-1.28h23.25c1.46,0,2.48.53,2.62,1.57Z"/>
    <g>
      <polygon class="cls-4" points="284.63 195.09 283.25 195.03 284.65 193.6 284.63 195.09"/>
      <g>
        <path class="cls-5" d="M203.23,37.31l-.25,46.31c-7.83,2.54-15.79,6.43-21.66,13.17,10.87-.23,20.38-3.96,27.39-.88l-20.69,2.93c2.28,4.27-.32,11.57-5.08,12.77-3.18.8-6.46.13-8.11,1.91l-3.95,1.32c-2.72.91-6.22.49-8.31,2.75l-2.45.13c-3.36.18-5.75,2.44-8.5,3.93l-10.63,5.77c-.69.38.97,2.46,2,2.35,1.67-.18,7.34-3.77,16.74-6.77.64-.2,1.26-.69,1.8-1.09l10.48-.68c-.39,1.49-.13,3.7.93,4.3,1.98,1.12,4.42.78,5.99-.26-.1,3.67-4.03,4.07-4.24,6.5-.17,1.91,1.6,3.28,3.42,3.46,1.24.12,3.68-.27,4.06-2.28.23-1.24-1.01-3.08-2.82-4.85-.5-.55,2.13-2.38,2.91-2.1-.37-.13,6.6,6.84,6.26,5.88.64,1.81-1.82,3.76-3.25,4.18l-9.43,2.65c1.86,2.49,4.41,3.19,3.12,3.97-1.12.68-2.86.3-5.35,1.19,7.28,3.51,17.21-1.04,18.44-9.13.46-3.05,2.64-5.1,4.14-8.13.99-2.02.56-4.68,1.51-6.23l3.04.1c.69,1.34,2.35,3.17,2.37,5.3l.42,34.68c.01,1,.61,3.07,1.08,3.74.56.79,2.38.72,3.91-.11l-.17,2.52c-.56.12-1.62.92-1.82,1.47-1.14-.41-3.01-.26-3.19,1.09h-2.63s-3.04.94-3.04.94c-1.62.51-3.28.17-5.14.98-1.71.75-2.8,4.22.11,4.49,1.29.12,2.81,1.32,3.94,1.56,1.23,4.18.63,8.39-1.59,11.93l-1.52.17-5.63,4.4c-4.99-11.43-8.97-22.34-16.46-31.77-1.36-.84-5.05-1.38-5.62-2.99-.25-.71-1.86-1.65-2.98-1.62-1.78,4.75,1.42,10.44.45,14.5-2.25,9.46.4,18.67,1.62,28.84,1.08,9,.68,17.88,1.88,26.89l3.45,25.96c-3.9-.46-3.47-3.13-3.96-5.71-3.1,4.86-.36,10.01.19,15.51l9.02,89.2-3.51,13.5c1.43,8.03,1.25,15.31,1.99,23.11.61,6.5,1.26,12.47-2.87,17.48,6.98,1.3,12.33-.27,16.85-2.61l1.73.42c1.85,1.69,5.38,1.83,7-.2h2.63c1.19,1.33,2.65.97,4.07.21.79-.42,2.37-.58,3.25-.44l1.88.3c5.03.81,10.23-.93,15.26.87-.45,2.02-1.88,2.9-4.18,3.11l-22.24,2c-7.86.71-15.06,2.38-22.82,4.05-8.63,1.86-17.29,1.85-25.54,6.7-2.2-3.18-1.66-6.28-.13-9.38s6.49-2.36,9.38-3.4c6.08-2.2,3.16-8.99,2.74-13.61l-13.18-146.46-1.56-26.07-.13-8.08-12.35,2.58c-6,1.25-11.59,2.5-15.55,6.98-4.46,5.05-5.82,11.67-5.42,19.16,2.47,46.1,8.98,91.35,16.91,136.1,1.28,7.25,2.48,14.72,4.48,22.59,1.6,6.32,2.22,12.2-.05,17.87-2.44-.03-4.43-1.78-4.97-4.44-5.87-28.87-11.69-57.73-15.99-87.51-.25-1.71-1.2-2.78-1.99-3.2l-.11-1.47.27-4.07c.26-3.91-1.07-7.56-1.53-11.28-.84-6.88-.76-13.94-3.31-21.54-1.57,2.82-.7,5.64-.75,8.34-3.52,3.1,1.38,9.92-4.86,15.32-3.4,2.94-1.9,6.19-2.34,9.44-2.4,17.51-6.46,34.43-6.4,51.56l.08,21.26-.04,1.38c-2,.03-1.33,2.27.16,1.82,3.59-1.24,8.37-3.06,10.71.81.91,5.14-6.45,6.6-7.06,15.16,3.68-.78,5.83-2.27,8.19-3.72l1.9-.09,4.56-.05c3.11,5.61,7.15,10.9,13.18,14.54-.48,2.67-1.24,4.04-1.95,5.71-7.74,6.78-11.08,26.01-10.54,33.99-2.22.18-2.62-3.91-3.77-4.79-19.44-6.95-34.51-18.01-40.54-37.59-1.22,6.9,2.78,12.77-.31,15.22-.32-2.25-1.73-5.39-1.7-8.29l.57-61.77c2.33-28.45,5.05-56.01,13.01-83.21,4.93-16.85,12.53-31.12,24.42-43.49.68-7.13,1.59-15.9,7.04-20.03,5.53-4.2,9.81-6.62,13.13-13.24,1.15-2.29,5.48-4.33,5.08-7.71.68.33,2.23.34,2.97.18,1.25,3.82.03,7.72-1.78,11.6,2.81,1.15,4.62-.25,5.86-.09,1.84.24,3.57.9,5.73-1l-3.77-5.47c-1.21-7.26-.01-13.7.13-21.12-5.96,3.36-8.39,7.85-12.36,11.36-.54-3.67.96-6.91,1.78-10.97l9.16-45.41c-2.31-7.85,1.03-14,2.98-21.07,8.68-31.45,27.44-58.43,56.1-74.18,2.97-1.63,5.36-2.71,8.19-2.83Z"/>
        <path class="cls-2" d="M298.31,201.76c15.18-.24,20.98,22.96,18.53,37.9-.5,3.07-1.87,6.21-.63,9.73l.25,26.08c.27,28.14-1.79,55.67-4.42,83.09-4.43-3.33-3.27-7.93-3.13-12.76l.95-32.65c.51-17.69.5-35.02-.12-52.37l-1.1-30.29c-5.25,4.69-.95,10.12-.99,14.69l-.51,61.97c-1.99,35.12-4.25,69.29-8.26,104.2l-3.91,34.13c-2.71,23.63-6.27,46.36-10.31,69.9l-5.99,34.83-4.69,20.92c-.76,3.38-2,6.37-2.5,9.51-1.66-1.68-1.88-4.09-1.27-6.49l6.3-24.76,9.37-60.04,5.71-44.51,4.11-36.62,4.15-46.39c4-44.73,5.56-88.84,3.19-133.43-.87-16.3-17.46-17.7-34.56-16.96l-4.01.17,1.45-3c4.63-.35,8.79-1.57,9.72-6.52l22.71-.36Z"/>
        <path class="cls-8" d="M272.25,135.25l2.92,18.78,5.22,26.22,3.13,7.88c-4.56.11-7.98-3.09-11.94-7.01-1.12,4.15,0,8.31-.28,12.36-7.52.91-14.84,2.44-22.8,1.31-.37-1.88-.69-3.23-1.5-4.11l1.78-33.58c.37-6.15-1.74-11.84-3.62-17.92-1.82.97-4.31,1.54-5.18,2.85-1.78-2.09-.75-4.69-.88-6.59-.05-.72.61-2.08,1.07-2.63,3.13-3.71-4.12-3.56-5.62-10.13,3.59,1.98,20.25-.03,37.69,12.58Z"/>
        <path class="cls-8" d="M211.5,40.13c29.88,20.16,42.61,33.46,55.91,67.64l5.32,13.67c1.25,3.22,2.8,5.52,2.24,8.82-8.69-4.98-17.63-8.96-26.94-12.29,3.15-5.01-3.68-10.28-1.64-16.54-4.7-.93-8.55-1.64-12.47-3.7,2.92-1.17,4.61-.6,6.7-1.65-6.13-16.57-12.43-31.43-21.95-45.48-2.83-4.17-5.83-7.37-10.03-9.71,1.22-1.1,2.2-.63,2.86-.76Z"/>
        <path class="cls-2" d="M208.8,38.82c.55.52,1.93.79,2.7,1.31-.66.14-1.64-.34-2.86.76,4.2,2.34,7.2,5.53,10.03,9.71,9.52,14.06,15.82,28.91,21.95,45.48-2.09,1.05-3.78.48-6.7,1.65,3.92,2.06,7.77,2.77,12.47,3.7-2.04,6.26,4.79,11.53,1.64,16.54l-16.16-3.57c0-6.08-.43-11.99-2.91-17.38-1.05-2.29-4.29-3.87-6.8-3.77.35-1.29,1.47-3.17,1.38-4.33-3.91-13.61-7.83-27.4-15.49-40.12-1.93-3.21-4.78-5.21-3.09-10.12l3.85.14Z"/>
        <path class="cls-1" d="M192.33,112.03l24.47.76c5.42.17,10.23.55,15.06,1.62l16.16,3.57c9.31,3.33,18.25,7.31,26.94,12.29-.31,1.81-.05,3.8-2.71,4.98-17.43-12.61-34.1-10.6-37.69-12.58-5.93-3.28-13.97-3.9-20.96-3.09-1.82-3-5.65-3.83-8.81-4.72-6.15-1.73-7.4,2.47-11.02,3.57-5.7,1.73-11.99-.12-17.16,2.4-1.08.53-3.44.34-4.63.41l-10.48.68c-.84.05-1.55.22-1.8,1.09-9.4,2.99-15.06,6.59-16.74,6.77-1.02.11-2.69-1.98-2-2.35l10.63-5.77c3.2-.68,6.66-1.28,8.5-3.93l2.45-.13c3.03-.16,6.34-.25,8.31-2.75l3.95-1.32,17.52-1.5Z"/>
        <path class="cls-5" d="M298.31,201.76l-22.71.36-39.79,4.43c-7.69.86-14.45,2.47-20.9,6.98-4,2.8-8.02-4.42-10.18-.99-2.79.27-6.62-.99-9.52-1.39l-1.4-.21c-.24-2.27-1.63-4-3.46-5.2,4.46-2.61,9.64-1.03,14.42-2.06,5.95-1.29,12.19-.15,17.66-3.14.61-.33,1.83-.14,2.55-.1-.08,1.56,1.56,1.44,1.46.19l44.67-4.16,9.42-.16c-.07,1.8,1.83,1.4,1.5-.02l1.21-1.26,1.38.05c4.28,4.4,11.25,1.86,13.68,6.67Z"/>
        <path class="cls-7" d="M208.8,38.82l-3.85-.14c-1.69,4.91,1.16,6.91,3.09,10.12,7.66,12.72,11.58,26.51,15.49,40.12-2.45.65-5.02-.4-7.95-1.32l-12.61-3.97.25-46.31c2.12-.1,4.02.03,5.57,1.51Z"/>
        <path class="cls-8" d="M135.28,207.99c.03-7.06-.62-12.26-4.08-11.51-.74.16-2.29.16-2.97-.18-1.89-.92-2.94-2.67-3.21-4.54,3.97-3.51,6.4-8,12.36-11.36-.14,7.42-1.34,13.86-.13,21.12l3.77,5.47c-2.15,1.89-3.89,1.24-5.73,1Z"/>
        <path class="cls-1" d="M283.52,188.14l1.13,5.46-1.4,1.44-1.21,1.26-1.5.02-9.42.16.18-2.99c.28-4.05-.84-8.21.28-12.36,3.96,3.93,7.38,7.12,11.94,7.01Z"/>
        <path class="cls-6" d="M318.72,242.61c-1.1,1.62-2.53,4.87-2.52,6.77-1.23-3.51.13-6.66.63-9.73,1.73.39,1.42,2.24,1.88,2.95Z"/>
        <path class="cls-7" d="M146.16,222.03l1.56,26.07,13.18,146.46c.42,4.63,3.33,11.41-2.74,13.61-2.88,1.04-7.83.26-9.38,3.4s-2.07,6.21.13,9.38c8.25-4.86,16.9-4.84,25.54-6.7,7.76-1.67,14.96-3.34,22.82-4.05l22.24-2c2.3-.21,3.72-1.08,4.18-3.11,1.34.48,2.52.82,3.89,1.61l-6.3,8.74c-10.95,4.65-22.57,2.83-34.15,3.93-7.55.72-14.37,3.82-22.01,3.18l-17.19,1.49c.06-2.15-.77-2.82-1.03-3.42-.49-1.13-1.8-.99-1.79.38,0,.51-.03,1.04.17,1.84-2.38-.41-3.2-2.29-3.68-4.64l-8.21-39.99c-4.87-23.74-7.69-47.72-11.26-72.41-3-20.8-5.06-41-5.8-61.95-.44-12.23,6.84-20.01,18.13-22.5,3.62-.8,8.02-.63,11.69.65Z"/>
        <path class="cls-7" d="M172.35,204.63c-7.24-2.43-2.64,7.37-1.73,22.86.17,2.94,1.99,4.52,4.38,4.36-.37,11.44,2.62,23.01,3.59,35.06l1.11,13.73,2.46,18.09c1.37,10.04,2.39,19.69,4.06,29.78s.71,20.89,4.54,31.08c2.56,6.82,2.32,13.85,3.73,20.99,1.24,6.3,4.11,13.61.76,19.5-2.4.81-5.58,2.94-7.37,3.87-4.52,2.34-9.86,3.91-16.85,2.61,4.13-5,3.48-10.98,2.87-17.48-.73-7.8-.56-15.08-1.99-23.11l3.51-13.5-9.02-89.2c-.56-5.5-3.3-10.65-.19-15.51.49,2.59.07,5.26,3.96,5.71l-3.45-25.96c-1.2-9-.79-17.89-1.88-26.89-1.22-10.17-3.88-19.38-1.62-28.84,1.62.59,2.63,1.52,2.92,3.27l2.51,15.23,3.72,14.35ZM185.31,377.64l-3.93-34.78c-4.65-28.47-6.05-56.5-12.35-84.94l14.38,133.82c.39,3.63-.3,6.96,3.07,10.03,1.22-7.66-.16-15.31-1.16-24.13Z"/>
        <path class="cls-2" d="M165.72,158.89c-.36,3.56,2.01,5.99,3.67,8.77-1.19,1.45-1.31,3.35-.3,5.72,3.77,8.84,5.04,18.38,8.24,27.32,2.78,7.77,3.23,14.52,4.38,22.98l23.19,170.42c.28,2.09,1.42,4.14.39,5.78-.64,1.03-2.07,1.72-3.31,2.71-.85.68-1.49,1.54-2.77,1.55h-2.63s-7,.21-7,.21l-1.73-.42c1.79-.93,4.97-3.06,7.37-3.87,3.35-5.89.48-13.2-.76-19.5-1.4-7.14-1.16-14.17-3.73-20.99-3.83-10.19-2.83-20.77-4.54-31.08s-2.7-19.74-4.06-29.78l-2.46-18.09-1.11-13.73c-.97-12.05-3.96-23.62-3.59-35.06.31-9.35-.29-18.15-2.64-27.22l-3.72-14.35-2.51-15.23c-.29-1.75-1.31-2.69-2.92-3.27.97-4.06-2.23-9.75-.45-14.5,1.12-.04,2.73.91,2.98,1.62Z"/>
        <path class="cls-2" d="M247,190.68c-.92.88-2.48,1.67-3.57,1.45-2.17-.44-2.99-3.4-5.77-4.99-1.33-.76-2.17.28-1.45,1.47.41.69.6,1.3,1.1,2.89-3.38.25-5.26,2.9-7.09,6.14-8.5-3.68-17.01-4.27-25.61-4.12-2.8.05-6.75-.38-9.45.01-.77-1.25-1.23-2.69-1.72-4.27l1.52-.17c.59,1.23,2.23,3.3,4.1,2.71l6.87-2.14,5.7-.13c1.19,2.27,6.28,4.11,8.04,1.13-.86-1.34-4.59-2.77-4.33-4.5s.97-3.46,1.35-5.33c2.32-.63,6.31-1.77,8.41-3.29,3.1-2.25.26-6.47-.16-8.69l-3.09-16.59c-1.86-9.98,12.29-1.34,18.13-10.23.86-1.31,3.36-1.88,5.18-2.85,1.87,6.08,3.99,11.77,3.62,17.92l-1.78,33.58Z"/>
        <path class="cls-1" d="M195.16,193.53c2.7-.39,6.65.04,9.45-.01-1.63,1.22-4.1,1.09-5.42,3.05-3.27.47-6.81.93-10.15,4.29l12.98.73c1.63.09,2.53,1.1,2.76,2.08-4.78,1.04-9.97-.55-14.42,2.06-.69-1.13-1.09-.98-1.76-1.1-1.49-.27-3.89.77-3.25,2.34l3.48,8.51c.47,7.62,1.14,14.5,2.19,21.53l5.4,36.13,10.64,74.09c2.1-.7,3.07-2.22,4.45-2.94.15,2.68-.14,5.34-1.57,7.86-2.8,4.97-.61,9.09.25,13.65,1.32,7.01.51,14.88,4.09,21.82,2.43,4.72-.63,11.62,2.34,13.32.73.42,3.18-.65,3.14,2.69-4.31-1.49-8.58-1.83-11.34.6l-1.88-.3c-.5-.69-1.6-.81-1.84-2.6,1.53.71,5.56.21,6.1-1.15l-3.25-25.93c-.73-5.81-.3-11.66-2.04-17.32-2.15-7.01-2.6-13.45-3.63-20.82l-13.32-96.16-3.33-24.44c-.74-5.41-5.54-11.85-3.05-17.4,2.7-.4,6.7-.13,7.74-3.17.55-1.59,3.83-1.19,5.23-1.39Z"/>
        <path class="cls-2" d="M133.68,216.53l.79,4.85c-11.29,2.49-18.57,10.27-18.13,22.5.75,20.95,2.8,41.15,5.8,61.95,3.57,24.69,6.39,48.67,11.26,72.41l-3.77.54c-7.93-44.75-14.44-90-16.91-136.1-.4-7.49.95-14.11,5.42-19.16,3.96-4.49,9.55-5.73,15.55-6.98Z"/>
        <path class="cls-8" d="M234.57,122.67c1.49,6.57,8.74,6.43,5.62,10.13-1.66-2.99-5.4-6.86-8.52-4.43-.3.23-.99.19-1.36-.07-3.12-2.23-6.81.51-9.19,2.8-1.07,1.03-1.67,1.71-1.5,3.95l1.16,16.82c-2.85-2.51-7.06-3.37-8.18-7.27l-1.82-21.13c-.24-2.82-2.74-3.14-4.42-3.42l-4.42-.74c-.4-.98-1.41-2.35-2.77-1.23-.73.61-1.03,1.56-1.5,2.32-.95,1.55-.52,4.22-1.51,6.23-1.5,3.03-3.67,5.08-4.14,8.13-2.22,1.66-4.72.74-6.78,1.31,1.43-.42,3.89-2.37,3.25-4.18.34.96-6.63-6.02-6.26-5.88-.78-.28-3.41,1.55-2.91,2.1,1.8,1.77,3.05,3.61,2.82,4.85-.38,2.01-2.81,2.4-4.06,2.28-1.82-.18-3.59-1.55-3.42-3.46.22-2.43,4.14-2.83,4.24-6.5,1.03-1.07,1.59-2.27,1.16-3.24-.53-1.21-2.96-1.52-3.46-1.22,5.17-2.52,11.46-.67,17.16-2.4,3.61-1.09,4.86-5.3,11.02-3.57,3.17.89,6.99,1.72,8.81,4.72,7-.81,15.03-.19,20.96,3.09Z"/>
        <path class="cls-8" d="M223.72,330.42c-3.65,4.6-1.48,10.29-1.08,15.4l1.01,13.62c-4.2-1.68-1.43-9.55-4.84-16.72-5.83,8.75-3.15,17.98.73,25.96,2.22,4.58-2.86,5.29-.55,8.33l.71,16.15c.06,1.28,1.1,3.3,1.88,3.62s2.6-1.51,3.44-1.93c1.43,2.37,2.24,5.25,3.87,7.09,1.45,1.63,3.23,2.31,5.65,2.25l-3.28,4.64-3.68-2.11c-1.37-.79-2.55-1.14-3.89-1.61-5.03-1.79-10.23-.06-15.26-.87,2.75-2.42,7.03-2.08,11.34-.6.04-3.34-2.41-2.27-3.14-2.69-2.97-1.71.09-8.61-2.34-13.32-3.57-6.93-2.76-14.81-4.09-21.82-.86-4.55-3.05-8.68-.25-13.65,1.42-2.53,1.72-5.18,1.57-7.86-.13-2.28,1.51-6.19,2.87-7.9l6.51-8.23c1.47.23,2.03,1.43,2.84,2.26Z"/>
        <path class="cls-7" d="M216.02,95.79c.5.15,1.01.68,1.37,1.13-2.3.13-4.92.04-7.29,1.76,1.37,3.22,1.8,6.66.3,9.04-2.95,4.69-12.67,1.46-18.06,4.3l-17.52,1.5c1.65-1.78,4.93-1.11,8.11-1.91,4.76-1.2,7.37-8.51,5.08-12.77l20.69-2.93c2.47-.35,4.68-.89,7.31-.12Z"/>
        <path class="cls-2" d="M202.98,83.62l12.61,3.97c2.93.92,5.49,1.98,7.95,1.32.09,1.17-1.03,3.05-1.38,4.33l-9.75.37c2.03,1.23,3.06,1.11,3.62,2.17-2.63-.77-4.85-.23-7.31.12-7.01-3.08-16.52.65-27.39.88,5.87-6.73,13.83-10.63,21.66-13.17Z"/>
        <path class="cls-2" d="M212.59,144.6l1.99,17.48c.37,3.27.79,5.91-.55,8.42-1.04-.25-1.4.53-1.52,1.29-.2.36-.73.98-1.08,1.21-7.23,4.67-11.07-2.72-17.24-.27-.88.35-2.16,1.07-1.57,2.88-2.92-.27-1.83-3.74-.11-4.49,1.86-.81,3.52-.48,5.14-.98,1.19.5,2.53.22,3.04-.95h2.63c.2.79,1.28,1.44,1.83,1.16.9-.44,1.16-1.62,1.36-2.24.2-.55,1.26-1.36,1.82-1.47.94,0,2.22-.22,2.8-1.09.49-.73-.25-1.79-.33-2.56l-3.35-33.22c-.35-3.49.49-6.9-1.08-9.72,1.68.28,4.18.61,4.42,3.42l1.82,21.13Z"/>
        <path class="cls-7" d="M206.35,120.04c1.57,2.82.73,6.22,1.08,9.72l3.35,33.22c.08.76.82,1.83.33,2.56-.58.87-1.85,1.08-2.8,1.09l.17-2.52c-1.53.83-3.35.89-3.91.11-.47-.67-1.07-2.73-1.08-3.74l-.42-34.68c-.03-2.13-1.68-3.96-2.37-5.3l1.22-1.2,4.42.74Z"/>
        <path class="cls-2" d="M133.4,378.24l8.21,39.99c-2.76-.88-3.17,3.32-5.33,3.35-.99.01-1.76-1.67-2.22-2.34,2.27-5.67,1.65-11.55.05-17.87-2-7.87-3.2-15.34-4.48-22.59l3.77-.54Z"/>
        <path class="cls-7" d="M193.43,189.26c.49,1.58.95,3.02,1.72,4.27-1.4.2-4.68-.2-5.23,1.39-4.68.49-5.19-3.87-7.2-6.6-3.2-4.34-6.28-6.88-8.31-12.14-1.14-2.96-3.55-6.06-5.02-8.53-1.66-2.78-4.04-5.21-3.67-8.77.57,1.61,4.26,2.15,5.62,2.99,7.48,9.44,11.47,20.34,16.46,31.77l5.63-4.4Z"/>
        <path class="cls-7" d="M203.13,178.68c.5.43,1.11,1.06,1.82,1.34,3.42,1.34,8.01,1.83,11.74.81-.39,1.87-1.08,3.53-1.35,5.33s3.47,3.16,4.33,4.5c-1.76,2.97-6.85,1.14-8.04-1.13.47-2.69-1.72-7.36-5.25-6.25-1.33.91-.8,5.12-.45,6.39l-6.87,2.14c-1.88.59-3.52-1.48-4.1-2.71,2.22-3.54,2.83-7.75,1.59-11.93,2.18.45,4.47.64,6.58,1.52Z"/>
        <path class="cls-8" d="M224.94,168.85c.41,2.21,3.25,6.44.16,8.69-2.1,1.53-6.09,2.66-8.41,3.29-3.73,1.02-8.32.53-11.74-.81-.55-.59-1.15-1.06-1.82-1.34-2.11-.89-4.4-1.07-6.58-1.52-1.13-.24-2.65-1.44-3.94-1.56-.59-1.82.69-2.53,1.57-2.88,6.17-2.45,10.01,4.94,17.24.27l-1.24,2.6c3.9,1.97,9.54,2.37,12.32-.85-.97-1.4-3.72-1.94-4.27-2.93,1.49-2.06,3.96-2.96,6.7-2.96Z"/>
        <path class="cls-8" d="M134.06,419.24c.46.67,1.23,2.35,2.22,2.34,2.16-.03,2.57-4.23,5.33-3.35.48,2.35,1.31,4.23,3.68,4.64,1.28.22,2.88,3.12,2.73,4.54l-12.93-4.03c-5.35-1.6-8.63,5.38-12.93,4.93.02-.37-.22-.91-.33-1.09l8.27-7.24-2.8-3.51,1.79-1.66c.54,2.66,2.53,4.4,4.97,4.44Z"/>
        <path class="cls-2" d="M192.02,134.76c-1.23,8.09-11.16,12.64-18.44,9.13,2.49-.9,4.23-.51,5.35-1.19,1.29-.78-1.26-1.48-3.12-3.97l9.43-2.65c2.06-.58,4.56.34,6.78-1.31Z"/>
        <path class="cls-3" d="M146.16,222.03c-3.66-1.28-8.07-1.45-11.69-.65l-.79-4.85,12.35-2.58.13,8.08Z"/>
        <path class="cls-4" d="M135.28,207.99c-1.24-.16-3.05,1.25-5.86.09,1.8-3.88,3.03-7.78,1.78-11.6,3.47-.75,4.12,4.45,4.08,11.51Z"/>
        <path class="cls-2" d="M176.61,120.83c.5-.31,2.93.01,3.46,1.22.42.96-.13,2.17-1.16,3.24-1.57,1.04-4.01,1.38-5.99.26-1.06-.6-1.32-2.81-.93-4.3,1.19-.08,3.54.12,4.63-.41Z"/>
        <path class="cls-6" d="M170.87,114.85c-1.97,2.5-5.28,2.59-8.31,2.75,2.08-2.25,5.59-1.84,8.31-2.75Z"/>
        <path class="cls-7" d="M196.59,404.16c-1.62,2.03-5.14,1.9-7,.2l7-.2Z"/>
        <path class="cls-2" d="M201.93,119.3l-1.22,1.2-3.04-.1c.47-.76.76-1.71,1.5-2.32,1.35-1.12,2.37.25,2.77,1.23Z"/>
        <path class="cls-8" d="M189.93,194.93c-1.04,3.04-5.05,2.77-7.74,3.17-2.49,5.55,2.31,12,3.05,17.4l3.33,24.44,13.32,96.16c1.02,7.37,1.47,13.81,3.63,20.82,1.74,5.66,1.31,11.52,2.04,17.32l3.25,25.93c-.54,1.36-4.57,1.85-6.1,1.15.25,1.79,1.34,1.91,1.84,2.6-.88-.14-2.46.01-3.25.44l-1.3-1.77c1.24-.99,2.66-1.68,3.31-2.71,1.03-1.65-.11-3.69-.39-5.78l-23.19-170.42c-1.15-8.47-1.59-15.21-4.38-22.98-3.2-8.94-4.47-18.48-8.24-27.32-1.01-2.37-.89-4.27.3-5.72,1.48,2.47,3.88,5.57,5.02,8.53,2.03,5.26,5.11,7.8,8.31,12.14,2.01,2.73,2.52,7.09,7.2,6.6Z"/>
        <path class="cls-7" d="M206.5,168.1c-.2.62-.46,1.8-1.36,2.24-.55.27-1.62-.37-1.83-1.15.18-1.36,2.05-1.5,3.19-1.09Z"/>
        <path class="cls-6" d="M151.61,121.65c2.74-1.49,5.14-3.76,8.5-3.93-1.84,2.65-5.3,3.25-8.5,3.93Z"/>
        <path class="cls-7" d="M203.29,404.37c-1.42.76-2.88,1.12-4.07-.22,1.28-.01,1.92-.87,2.77-1.55l1.3,1.77Z"/>
        <path class="cls-7" d="M200.68,169.18c-.5,1.17-1.85,1.45-3.04.95l3.04-.95Z"/>
        <path class="cls-2" d="M159.71,123.01c.25-.87.96-1.03,1.8-1.09-.53.4-1.16.88-1.8,1.09Z"/>
        <path class="cls-7" d="M178.83,501.82c.03,1.72.2,3.75.88,5.42s3.75,1.34,4.81,1.53c.12,2.4,2.65,2.77,3.71,3.83,7.08,7.12,21.29,4.54,34.27,1.1l3.97,56.2,7.08,79.86c.54,6.12.36,11.76,2.58,17.62,7.36,2.05,13.41-2.56,15.69-9.69l5.9-18.43,12.22-49.1,1.52-9.51c.5-3.14,1.75-6.13,2.5-9.51,1.5,1.31,1.45,4.5,1.02,6.6l-4.43,21.57c-1.25,6.07-2.87,11.53-4.04,16.97-1.5,6.97-5.1,12.81-5.68,21.08-.24,3.51-3.94,8.19-1.41,12.41.31.53,2.18.45,2.93.24l-3.17,10.98c-2.59,8.99-8.97,15.12-17.89,15.85l-4.81-.31c1.92-2.27-4.02-3.27-4.91-5.05-15.67-31.5-31.03-63.97-38.92-97.33l-13.19-44.23c-2.14-7.19-2.49-15.07-6.02-22.81-.7-1.54-.51-4.54.72-5.27,1.09-.65,3.36-.31,4.67-.03Z"/>
        <path class="cls-7" d="M312.03,358.56l-6.87,71.61c-.71-.61-1.55-1.73-2.25-1.99-.76-.28-3,.33-3.05,1.75-.4,12.84-5.08,21.94,2.06,21.91-.76,2.21-.13,5.44-.43,7.91-1.31-.17-2.69-.21-3.67.34-1.31.74-1.59,2.59-1.84,4.48l-2.7,20.62c-2.73,6.42-1.52,12.86-3.03,19.07-2.82,11.6-5.32,22.09-6.49,33.76-.94,9.42-7.58,25.3-.3,26.68l-2.59,9.18-2.21-.02c-.47,0-.99,1.15-.74,1.72.22.5.67.87,1.33,1.02l.18,1.82v3.63c-1.23-1.71-2.24-3.78-4.45-4.3.43-2.1.49-5.28-1.02-6.6l4.69-20.92,5.99-34.83c4.05-23.54,7.6-46.28,10.31-69.9l3.91-34.13c4-34.9,6.27-69.08,8.26-104.2l.51-61.97c.04-4.57-4.26-10,.99-14.69l1.1,30.29c.63,17.34.64,34.68.12,52.37l-.95,32.65c-.14,4.82-1.3,9.43,3.13,12.76Z"/>
        <path class="cls-2" d="M301.49,459.76c-4.29,35.23-10,70.39-18.03,104.95-7.28-1.39-.64-17.27.3-26.68,1.17-11.67,3.67-22.16,6.49-33.76,1.51-6.21.29-12.66,3.03-19.07l2.7-20.62c.25-1.89.53-3.74,1.84-4.48.98-.56,2.36-.51,3.67-.34Z"/>
        <path class="cls-4" d="M279.42,582.04l-8.03,35.47c-1.52-1.04-3.02-1.33-4.88-1.22,1.17-5.44,2.8-10.91,4.04-16.97l4.43-21.57c2.21.52,3.22,2.59,4.44,4.3Z"/>
        <path class="cls-3" d="M271.39,617.52l-9.04,32.51c-.75.21-2.61.29-2.93-.24-2.52-4.22,1.17-8.89,1.41-12.41.58-8.27,4.17-14.11,5.68-21.08,1.86-.11,3.35.18,4.88,1.22Z"/>
        <path class="cls-2" d="M305.16,430.17c-.7,7.27-.88,14.83-3.25,21.68-7.13.03-2.46-9.07-2.06-21.91.04-1.43,2.28-2.04,3.05-1.75.7.26,1.54,1.38,2.25,1.99Z"/>
        <path class="cls-2" d="M280.87,573.88l-.3,2.7h-1.33c-.66-.14-1.11-.51-1.33-1.01-.25-.57.27-1.72.74-1.72l2.21.02Z"/>
        <path class="cls-4" d="M279.43,578.42l-.18-1.82h1.33c-.07.65-.71,1.32-1.15,1.82Z"/>
        <path class="cls-7" d="M271.46,580.66l-1.52,9.51-12.22,49.1-5.9,18.43c-2.28,7.13-8.33,11.74-15.69,9.69-2.22-5.86-2.03-11.5-2.58-17.62l-7.08-79.86-3.97-56.2c-12.98,3.44-27.2,6.02-34.27-1.1l2.83.14c8.75,2.09,19.58,1.87,27.96-3.12,3.6-2.14,3.38-8.09,3.24-11.63-.85-5.77-.37-10.32,3.44-14.57l-.28-34c-.02-2.78-1.68-9,1.46-10.7,5.41-2.92,9.5-5.77,9.01-13.04-.24-3.58.16-7.77-1.43-10.79,5.67-3.77,9.05-9.55,13.48-14.97,3.78-4.63,7.67-8.52,10.94-13.66,3.46-5.45,9.14-9.36,11.32-16.07-12.65-14.89-27.03-27.31-38.65-42.5,9.57-32.3,20.52-63.72,34.13-94.66,3.15-7.16,2.42-14.48,2.77-21.58,17.09-.74,33.69.66,34.56,16.96,2.37,44.6.81,88.7-3.19,133.43l-4.15,46.39-4.11,36.62-5.71,44.51-9.37,60.04-6.3,24.76c-.61,2.4-.39,4.8,1.27,6.49Z"/>
        <path class="cls-7" d="M275.6,202.12c-.93,4.95-5.09,6.17-9.72,6.52l-38.22,2.9.05,2.31,36.72-2.21,4.01-.17c-.35,7.1.38,14.42-2.77,21.58-13.61,30.94-24.55,62.36-34.13,94.66,11.62,15.19,26,27.61,38.65,42.5-2.18,6.71-7.86,10.62-11.32,16.07-3.27,5.14-7.16,9.03-10.94,13.66-4.42,5.42-7.81,11.2-13.48,14.97-.39-.74-1.48-1.46-1.5-2.6.16-.45.17-1.47.08-1.92l31.62-37.2c.44-.52.75-2.02.71-2.42-.07-.62-1.87-.77-2.35-.99-1.95-2.6-5.25-6.76-9.13-7.06-.59-1.36-1.95-3.85-3.17-4.65.56-3.04-1.7-4.97-3.81-7.1l-17.59-17.76c-2.88-2.91-4.28-7.7-8.51-7.72-1.22,0-2.44.19-3.59,1.09l-9.75-63.7-5.76-45.12,7.33-2.9c-2.14-1.36-3.36-1.48-4.29-2.31,2.17-3.43,6.18,3.78,10.18.99,6.45-4.51,13.21-6.12,20.9-6.98l39.79-4.43Z"/>
        <polygon class="cls-3" points="265.88 208.64 264.43 211.63 227.71 213.84 227.66 211.54 265.88 208.64"/>
        <path class="cls-8" d="M247,190.68c.82.88,1.13,2.23,1.5,4.11,7.96,1.13,15.28-.41,22.8-1.31l-.18,2.99-44.67,4.16c-.35-.13-1.09-.17-1.46-.19-.72-.04-1.94-.24-2.55.1-1.82-4.48-15.76-5.05-23.26-3.97,1.31-1.96,3.78-1.83,5.42-3.05,8.61-.15,17.12.44,25.61,4.12,1.83-3.24,3.71-5.89,7.09-6.14-.5-1.59-.69-2.2-1.1-2.89-.71-1.19.12-2.23,1.45-1.47,2.78,1.59,3.6,4.55,5.77,4.99,1.09.22,2.65-.57,3.57-1.45Z"/>
        <path class="cls-4" d="M233.11,136.98c1.87-.77,3.8-1.32,6-1.54.13,1.91-.9,4.51.88,6.59-5.85,8.88-19.99.24-18.13,10.23-.43,0-.87-.2-1.09-.39l-1.16-16.82c-.17-2.25.44-2.93,1.5-3.95-.45,1.62.13,3.57,2.11,4.51,3.3,1.58,6.76,1.56,9.9,1.37Z"/>
        <path class="cls-7" d="M240.18,132.8c-.46.55-1.12,1.92-1.07,2.63-2.2.22-4.12.77-6,1.54l-.06-2.17c.65-1.12,1.13-2.59.7-3.83-.36-1.02-1.27-1.83-2.09-2.6,3.12-2.42,6.87,1.45,8.52,4.43Z"/>
        <path class="cls-2" d="M217.39,96.93c3.87-.21,7.73-.2,11.56.1,2.48,5.39,2.92,11.3,2.91,17.38-4.83-1.07-9.64-1.45-15.06-1.62l-24.47-.76c5.39-2.84,15.11.39,18.06-4.3,1.5-2.39,1.07-5.83-.3-9.04,2.37-1.71,4.99-1.63,7.29-1.76Z"/>
        <path class="cls-2" d="M222.15,93.25c2.51-.1,5.75,1.48,6.8,3.77-3.83-.3-7.69-.31-11.56-.1-.36-.45-.87-.99-1.37-1.13-.56-1.06-1.59-.94-3.62-2.17l9.75-.37Z"/>
        <path class="cls-2" d="M204.74,212.54c.93.83,2.15.94,4.29,2.31l-7.33,2.9,5.76,45.12,9.75,63.7c1.15-.91,2.37-1.1,3.59-1.09l.08,2.69-6.51,8.23-10.47-62.22-4.77-32.97c-.06-.4-.06-1.06,0-1.43.26-1.64-1.18-3.47-1.53-4.77l-2.57-22.22.19-1.64c2.9.4,6.72,1.67,9.52,1.39Z"/>
        <path class="cls-2" d="M199.19,196.57c7.5-1.08,21.44-.51,23.26,3.97-5.47,2.99-11.71,1.85-17.66,3.14-.23-.98-1.13-1.99-2.76-2.08l-12.98-.73c3.34-3.36,6.88-3.82,10.15-4.29Z"/>
        <path class="cls-4" d="M280.54,196.32l1.5-.02c.33,1.43-1.57,1.82-1.5.02Z"/>
        <path class="cls-4" d="M225,200.44c.37.02,1.11.07,1.46.19.1,1.24-1.54,1.37-1.46-.19Z"/>
        <path class="cls-8" d="M234.46,414.89c1.59,3.02,1.19,7.21,1.43,10.79.49,7.27-3.6,10.11-9.01,13.04-3.14,1.7-1.48,7.92-1.46,10.7l.28,34c-3.81,4.25-4.29,8.8-3.44,14.57.14,3.54.35,9.49-3.24,11.63-8.38,5-19.21,5.22-27.96,3.12l12.39-.55c-1.21-.93-4.49-2.1-4.14-3.55,2.76.03,5.6.16,8.53-1.32,2.63-1.33,3.54-3.66,3.64-6.87.21-6.41-4.96-11.43-12.28-11.26l-16.39.38c-1.57.04-2.26.72-2.64,1.47-.91,1.74-1.49,3.61-1.45,5.59-7.93-2.27-17.18-6.32-19.89-2.82l-1.92.04c-.35-8.95-6.14,5.25-28.4-4,5.71.96,12.11-.27,18.04-1.5l-2.92-9.72c-1.86-10.8-3.22-21.92-.06-32.43l-.08,12.37c0,1.45.57,2.39,1.61,2.65,1.04,6.12,1.73,9.22,3.69,15.01,1.28,3.77,3.26,6.55,8.22,7.04l24.63,2.42,6.55-.22c.59-.02,1.31-.6,1.65-1.05l10.74-.33c1.71,3.1,7.14-.23,11.72,4.08,1.18,1.11.11,4.25,3.77,6,5.01-19.05,3.9-39.67,3.27-60.15-.17-5.52,6.37-2.66,9.96-7.14.99-1.24,0-2.91.07-4.09.87-3.03,1.78-7.8,3.57-10.48.02,1.14,1.11,1.86,1.5,2.6Z"/>
        <path class="cls-5" d="M148.01,427.41c-7.13,12.15-11.36,26.28-9.79,40.64l-7.65-3.15-15.9-2.34c-2.8-18.39,7.21-27.9,7.49-34.26,4.3.45,7.59-6.52,12.93-4.93l12.93,4.03Z"/>
        <path class="cls-4" d="M231.26,408.82c.63.36.8,1.45,1.78,1.55.09.45.07,1.46-.08,1.92-1.79,2.68-2.7,7.45-3.57,10.48l-8.27.1c-2.06-1.46-4.61-1.18-7.03-1.18l-8.07.02-1.16.05-2.67-.13-34.33,3.19c-3.6.33-6.46-.54-8.09,3.58l-10-1.11c-1.38,7.29-6.16,12.37-6.2,18.89-3.16,10.51-1.8,21.63.06,32.43-1.08-.42-2.42-.56-3.33.14-2.15-3.56-1.71-7.24-2.09-10.7-1.57-14.37,2.67-28.5,9.79-40.64.16-1.42-1.45-4.32-2.73-4.54-.21-.81-.17-1.33-.17-1.84,0-1.37,1.3-1.51,1.79-.38.26.6,1.09,1.27,1.03,3.42l17.19-1.49c7.64.64,14.46-2.46,22.01-3.18,11.58-1.11,23.2.72,34.15-3.93l6.3-8.74,3.68,2.11Z"/>
        <path class="cls-7" d="M138.22,468.05c.38,3.46-.06,7.15,2.09,10.7-3.95,3.04-9.91.03-14.92-.76l-8.09-1.27c-3.14-4.76-1.95-9.63-2.64-14.15l15.9,2.34,7.65,3.15Z"/>
        <path class="cls-5" d="M185.31,377.64c1,8.82,2.38,16.47,1.16,24.13-3.37-3.07-2.68-6.4-3.07-10.03l-14.38-133.82c6.3,28.44,7.7,56.47,12.35,84.94l3.93,34.78Z"/>
        <path class="cls-3" d="M172.35,204.63c2.35,9.06,2.95,17.86,2.64,27.22-2.39.16-4.2-1.42-4.38-4.36-.91-15.48-5.51-25.28,1.73-22.86Z"/>
        <path class="cls-8" d="M220.77,151.87c.22.19.66.39,1.09.39l3.09,16.59c-2.74,0-5.21.91-6.7,2.96l-2.62.21c.08-1-.73-1.32-1.59-1.53,1.34-2.5.93-5.15.55-8.42l-1.99-17.48c1.12,3.89,5.33,4.76,8.18,7.27Z"/>
        <path class="cls-5" d="M211.63,189.52l-5.7.13c-.34-1.27-.87-5.48.45-6.39,3.53-1.11,5.72,3.56,5.25,6.25Z"/>
        <path class="cls-5" d="M230.3,128.3c-1.07.64-2.1,1.47-2.77,2.13-1.56,1.54-.26,3.14.71,3.74,1.61.99,3.42,1.07,4.81.63l.06,2.17c-3.14.19-6.6.21-9.9-1.37-1.97-.94-2.55-2.89-2.11-4.51,2.38-2.29,6.07-5.02,9.19-2.8Z"/>
        <path class="cls-1" d="M231.66,128.37c.81.78,1.73,1.58,2.09,2.6.43,1.24-.04,2.71-.7,3.83-1.39.43-3.2.36-4.81-.63-.98-.6-2.27-2.2-.71-3.74.67-.66,1.7-1.49,2.77-2.13.37.26,1.06.31,1.36.07Z"/>
        <path class="cls-2" d="M250.7,358.06c1.23.8,2.59,3.29,3.17,4.65.72,1.67,1.24,3.5,2.91,4.53h-6.44s-16.14-6.79-16.14-6.79c-.99-.93-.67-3.43-1.4-4.34-.81-1-2.8-1.4-3.8-1.18l-2.73-6.43c-.82-1.93-1.95-2.87-3.63-2.68-.4-5.11-2.57-10.8,1.08-15.4l14.96,15.29c4.17,4.26,7.2,9.19,12.02,12.35Z"/>
        <path class="cls-2" d="M234.21,360.45c-.67,2.89-5.08,4.72-6.94,6.89.11,4.11,5.37,5.86,8.85,6.56,6.65,1.34,11.41-1.02,14.24-6.66h6.44c2.33,1.45,4.14,3.9,3.17,6.74-1.02.3-2.85,1.02-3.51,1.84.7-5.96-10.71-1.28-14.95,7.88l-6.84,1.5c.04-3.41-1.82-7.03-5.73-7.79-.9-.17-1.48,1.62-1.41,2.01-2.87,1.13-6.13-.53-8.52-2.4-2.31-3.04,2.77-3.75.55-8.33,1.98.3,3.01,1.5,5.71,2.3-.4-4.4-1.79-8.16-.17-10.51l3.93-5.54c.99-.22,2.98.18,3.8,1.18.73.91.41,3.41,1.4,4.34Z"/>
        <path class="cls-2" d="M256.44,375.82c-3.27,5.73-6.8,10.8-11.19,9.5.13-1.47-1.78-1.83-1.66.02-1.3,1.43.53,3.92,2.18,5.29l-11.23,13.55c-2.42.06-4.2-.62-5.65-2.25-.46-4.34-.26-8.29.99-12.32-.61,1.96,2.75,4.82,3.95,3.33,1.77-2.2.81-5.76.83-7.75l6.84-1.5c4.24-9.15,15.65-13.84,14.95-7.88Z"/>
        <path class="cls-2" d="M227.51,379.41c.76,3.04,3.33,7.09,2.37,10.21-1.24,4.02-1.44,7.98-.99,12.32-1.63-1.83-2.44-4.72-3.87-7.09-.84.42-2.7,2.23-3.44,1.93-.77-.32-1.82-2.35-1.88-3.62l-.71-16.15c2.38,1.88,5.65,3.54,8.52,2.4Z"/>
        <path class="cls-2" d="M223.65,359.44c.41.17.84.62,1.43,1.03-1.63,2.35-.23,6.11.17,10.51-2.69-.8-3.72-1.99-5.71-2.3-3.88-7.99-6.56-17.21-.73-25.96,3.41,7.17.64,15.04,4.84,16.72Z"/>
        <path class="cls-5" d="M233.04,410.38c-.98-.1-1.15-1.19-1.78-1.55l3.28-4.64,11.23-13.55c4.83-5.83,11.85-9.86,15.83-16.46.79-1.3,1.23-2.82,1.41-4.41.48.22,2.28.37,2.35.99.05.41-.27,1.91-.71,2.42l-31.62,37.2Z"/>
        <path class="cls-7" d="M229.01,354.93l-3.93,5.54c-.59-.4-1.02-.86-1.43-1.03l-1.01-13.62c1.68-.19,2.81.75,3.63,2.68l2.73,6.43Z"/>
        <path class="cls-5" d="M250.7,358.06c-4.82-3.15-7.85-8.09-12.02-12.35l-14.96-15.29c-.81-.82-1.36-2.03-2.84-2.26l-.08-2.69c4.24.02,5.63,4.81,8.51,7.72l17.59,17.76c2.11,2.13,4.36,4.06,3.81,7.1Z"/>
        <path class="cls-1" d="M215.62,172.02l2.62-.21c.55.99,3.29,1.53,4.27,2.93-2.78,3.21-8.42,2.82-12.32.85l1.24-2.6c.35-.23.88-.85,1.08-1.21l3.12.24Z"/>
        <path class="cls-6" d="M215.62,172.02l-3.12-.24c.12-.76.48-1.54,1.52-1.29.86.21,1.68.53,1.59,1.53Z"/>
        <path class="cls-4" d="M204.95,180.02c-.71-.28-1.32-.91-1.82-1.34.67.28,1.28.75,1.82,1.34Z"/>
        <path class="cls-5" d="M177.09,531.48l9.91,30.28c1.46,4.46,2.25,8.97,5.64,12.4,7.9,33.36,23.25,65.83,38.92,97.33.89,1.79,6.83,2.78,4.91,5.05-6.76-.43-12.26-5.18-15.64-11.71-10.72-20.73-19.09-41.75-27.02-63.78l-17.81-49.49-19.09-57.72,1.92-.04c1.34,3.04,5.85,5.34,8.17,7.66l10.09,30.02Z"/>
        <path class="cls-2" d="M178.72,496.63l.1,5.2c-1.31-.28-3.58-.62-4.67.03-1.22.72-1.42,3.73-.72,5.27,3.52,7.74,3.87,15.62,6.02,22.81l-2.36,1.55-10.09-30.02c-2.32-2.32-6.83-4.62-8.17-7.66,2.71-3.5,11.96.56,19.89,2.82Z"/>
        <path class="cls-5" d="M191.22,492.36c-1.25,5.51-.1,11.05-.24,16.62l-6.46-.21c-1.05-.18-4.1.23-4.81-1.53s-.85-3.7-.88-5.42l-.1-5.2c-.04-1.97.54-3.85,1.45-5.59,3.28,1.54,7.48,1.86,11.04,1.32Z"/>
        <path class="cls-3" d="M192.64,574.16c-3.39-3.42-4.18-7.93-5.64-12.4l-9.91-30.28,2.36-1.55,13.19,44.23Z"/>
        <path class="cls-8" d="M190.97,508.99l8.34-.34c-.36,1.45,2.92,2.62,4.14,3.55l-12.39.55-2.83-.14c-1.06-1.07-3.59-1.43-3.71-3.83l6.46.21Z"/>
        <path class="cls-8" d="M263.01,369.76c-.18,1.59-.63,3.11-1.41,4.41-.45-.15-1.22-.32-1.64-.19.98-2.84-.84-5.29-3.17-6.74-1.67-1.04-2.19-2.86-2.91-4.53,3.89.29,7.18,4.46,9.13,7.06Z"/>
        <path class="cls-1" d="M204.86,421.77c-.04,1.76,1.5,1.18,1.16-.05l8.07-.02c1.62,2.35,4.68,1.2,7.03,1.18l8.27-.1c-.08,1.18.92,2.85-.07,4.09-3.59,4.48-10.13,1.62-9.96,7.14.63,20.48,1.74,41.1-3.27,60.15-3.65-1.75-2.59-4.89-3.77-6-4.58-4.31-10.01-.98-11.72-4.08l6.55-1.12c2.12-.36,5.77.54,7.6-1.37,1.34-1.4,2.56-5.37,1.36-7.22-1.04-1.61-2.82-.75-3.52-1.11-.89-.47-2.04-1.77-3.3-2.08l4.31-5.12c.97-1.16.71-3.71.33-5.22-.32-1.26-1.58-2.46-3.52-2.58l-.03-2.82c4.13-1.26,5.13-7.3,2.68-10.61-.76-1.03-2.49-1.33-4.52-1.81,5.01-3.5,5.74-8.96,2.81-11.61-3.85-3.48-8.51-2.42-12.58-2.22l-22.49,1.1-22.67,2.14c-6.02,1.97-6.69,11.58-7.75,16.22-.97,4.24-1.52,8.1-.76,12.55-1.04-.27-1.62-1.2-1.61-2.65l.08-12.37c.04-6.52,4.82-11.6,6.2-18.89l10,1.11c12.11,1.35,36.12.64,42.42-6.77l2.67.13Z"/>
        <path class="cls-7" d="M181.41,459.76l6.94-1.38c.68,1.85,2.67,1.27,4.51.74,5.13-1.49,9.93-.21,14.47-.6,0,14.07-19.95,1.76-24.17,14.3,1.37,1.62,3.52.41,5.3.3-.99,1.48-1.04,3.05,0,4.25l-7.82,1.54-31.85-2.69c-1.96-5.79-2.64-8.9-3.69-15.01-.76-4.45-.21-8.31.76-12.55.45,4.19-.11,8.8,1.03,12.82,9.11,3.46,18.08,1.93,27.1,3.37,2.34.37,3.88,2.44,6.06.72,1.82-1.44,2.62-3.82,1.36-5.79Z"/>
        <path class="cls-3" d="M209.29,471.19c1.26.3,2.41,1.6,3.3,2.08.64,4.34-1.95,7.56-5.45,9.69l-6.55,1.12-10.74.33c-.65.02-1.34.54-1.65,1.05l-6.55.22-1.01-6.78,7.82-1.54,10.72.02c3.6,0,6.14-2.49,7.1-5.32.88-.05,2.37-.13,3.01-.89Z"/>
        <path class="cls-2" d="M180.64,478.91l1.01,6.78-24.63-2.42c-4.96-.49-6.95-3.27-8.22-7.04l31.85,2.69Z"/>
        <path class="cls-2" d="M211.48,500.46c-3.41.64-6.69-.37-9.65-1.77-1.23-5.15-5.64-7.08-10.61-6.33-3.56.54-7.77.22-11.04-1.32.39-.74,1.07-1.43,2.64-1.47l16.39-.38c7.32-.17,12.48,4.85,12.28,11.26Z"/>
        <path class="cls-4" d="M211.48,500.46c-.1,3.21-1.01,5.55-3.64,6.87-2.94,1.48-5.77,1.35-8.53,1.32l2.52-9.96c2.96,1.4,6.24,2.41,9.65,1.77Z"/>
        <path class="cls-2" d="M188.2,485.46c.31-.51,1-1.03,1.65-1.05-.34.45-1.06,1.03-1.65,1.05Z"/>
        <path class="cls-8" d="M202.19,421.63c-6.29,7.41-30.3,8.12-42.42,6.77,1.63-4.12,4.49-3.25,8.09-3.58l34.33-3.19Z"/>
        <path class="cls-8" d="M221.11,422.87c-2.35.03-5.41,1.17-7.03-1.18,2.42,0,4.97-.28,7.03,1.18Z"/>
        <path class="cls-8" d="M204.86,421.77l1.16-.05c.35,1.23-1.2,1.81-1.16.05Z"/>
        <path class="cls-7" d="M250.35,367.24c-2.82,5.63-7.59,7.99-14.24,6.66-3.47-.7-8.73-2.45-8.85-6.56,1.86-2.16,6.28-4,6.94-6.89l16.14,6.79Z"/>
        <path class="cls-7" d="M234.65,385.2c-.02,1.99.94,5.55-.83,7.75-1.2,1.49-4.55-1.36-3.95-3.33.96-3.12-1.61-7.16-2.37-10.21-.07-.39.52-2.18,1.41-2.01,3.92.76,5.77,4.39,5.73,7.79Z"/>
        <path class="cls-8" d="M259.95,373.98c.42-.12,1.2.04,1.64.19-3.98,6.61-11,10.63-15.83,16.46-1.65-1.37-3.48-3.87-2.18-5.29.35-.38,1.45-.27,1.66-.02,4.39,1.29,7.92-3.77,11.19-9.5.66-.83,2.49-1.54,3.51-1.84Z"/>
        <path class="cls-3" d="M245.25,385.32c-.21-.25-1.32-.36-1.66.02-.12-1.85,1.79-1.49,1.66-.02Z"/>
        <path class="cls-7" d="M201.83,498.69l-2.52,9.96-8.34.34c.15-5.57-1.01-11.12.24-16.62,4.97-.76,9.39,1.18,10.61,6.33Z"/>
        <path class="cls-5" d="M198.77,429.19c1.57.37,4.75.17,5.73,1.46.87,1.14.22,5.66-1.59,5.8l-17.32,1.38c-2.11.17-3.76.34-4.83,1.5-.87.93-.89,3.4-.44,4.54.42,1.06,3.51,2.33,4.65,1.66,2.8-1.66,5.86-.61,8.65-1.07.21,2.68-.54,4.92-1.82,6.92-5.02-.6-9.93.35-11.42,3.97-.76,1.83.1,2.96,1.03,4.41,1.26,1.97.46,4.35-1.36,5.79-2.18,1.73-3.72-.34-6.06-.72-9.03-1.44-17.99.09-27.1-3.37-1.14-4.02-.57-8.63-1.03-12.82,1.06-4.64,1.73-14.25,7.75-16.22l22.67-2.14,22.49-1.1Z"/>
        <path class="cls-2" d="M213.07,444.84c-2.33-.2-5.41,1.4-6.9,3.06.12-.83.34-3.21-.35-3.96-4.33-1.42-8.63-.06-12.2.52-2.79.46-5.85-.6-8.65,1.07-1.14.68-4.23-.59-4.65-1.66-.45-1.14-.42-3.61.44-4.54,1.07-1.16,2.72-1.33,4.83-1.5l17.32-1.38c1.81-.14,2.46-4.66,1.59-5.8-.98-1.29-4.16-1.09-5.73-1.46,4.07-.2,8.73-1.25,12.58,2.22,2.94,2.65,2.2,8.11-2.81,11.61,2.03.48,3.77.79,4.52,1.81Z"/>
        <path class="cls-2" d="M210.42,458.27c1.94.12,3.2,1.31,3.52,2.58.38,1.51.64,4.06-.33,5.22l-4.31,5.12c-.64.76-2.13.83-3.01.89l-17.82,1.05c-1.78.1-3.94,1.32-5.3-.3,4.22-12.54,24.18-.23,24.17-14.3l3.09-.24Z"/>
        <path class="cls-2" d="M213.07,444.84c2.44,3.31,1.45,9.36-2.68,10.61-5.72,1.74-11.54,2.06-17.34,1.33l.77-5.16,5.34.2c.54.17.71,1.44,1.81.87.82-.43.82-1.82,1.02-2.3l2.84-.49c.86-.15.92-1.49,1.35-1.99,1.49-1.66,4.57-3.26,6.9-3.06Z"/>
        <path class="cls-8" d="M207.15,482.96c3.5-2.14,6.09-5.35,5.45-9.69.7.35,2.48-.51,3.52,1.11,1.19,1.85-.03,5.83-1.36,7.22-1.83,1.91-5.49,1.01-7.6,1.37Z"/>
        <path class="cls-2" d="M210.39,455.45l.03,2.82-3.09.24c-4.53.39-9.34-.89-14.47.6-1.83.53-3.82,1.11-4.51-.74,1.4-.27,3.12-1.8,4.69-1.6,5.8.73,11.62.41,17.34-1.33Z"/>
        <path class="cls-2" d="M191.81,451.38l2.01.24-.77,5.16c-1.58-.2-3.3,1.33-4.69,1.6l-6.94,1.38c-.93-1.45-1.78-2.57-1.03-4.41,1.49-3.62,6.41-4.56,11.42-3.97Z"/>
        <path class="cls-5" d="M206.28,472.07c-.96,2.83-3.5,5.33-7.1,5.32l-10.72-.02c-1.04-1.21-.99-2.78,0-4.25l17.82-1.05Z"/>
        <path class="cls-7" d="M206.18,447.9c-.43.51-.49,1.84-1.35,1.99l-2.84.49c-1.14-.22-2.32.19-2.82,1.43l-5.34-.2-2.01-.24c1.28-2.01,2.03-4.24,1.82-6.92,3.57-.58,7.87-1.94,12.2-.52.69.75.46,3.13.35,3.96Z"/>
        <path class="cls-3" d="M201.99,450.38c-.19.49-.2,1.88-1.02,2.3-1.1.57-1.27-.7-1.81-.87.5-1.24,1.68-1.66,2.82-1.43Z"/>
      </g>
      <g>
        <path class="cls-5" d="M91.35,476.26c.08.39.12,1.05-.11,1.54l12.64,16.47c.55-.13,1.02-.1,1.41,0,2.59,3.61,5.19,8.17,9.28,9.76l1.7.66,1.57,1.43c.44.73.82,1.88,1.5,2.35-.92,9.07-3.9,17.69-5.91,26.85l-10.08,45.75-20.98,102.29c-5.13-1.31-10.46-2.26-15.79-5.18-3.1-1.7-6.44-2.72-10.03-2.37-2.71-3.32-6.09-4.83-5.54-11.08.46-5.28.47-10.55,1.48-16.41,10.02-58.4,21.89-115.79,36.95-172.28l1.92.22Z"/>
        <path class="cls-8" d="M330.53,476.6c-6.54.8-13.66,9.03-24.39,12.08-.58-10.78,1.48-20.07,2.79-30.22l4.66-35.97c7.5-8.64,10.56-18.37,11.7-29.63,2.23-21.98,2.37-44.14-1.33-65.94-.75-4.4-1.03-6.78-.34-11.26,3.36-21.83.24-42.18,1.95-62.42,20.74,32.16,22.51,53.97,26.12,91.26l2.54,26.29,1.51,21.36c.87,12.32,1.41,33.27-2.17,41.02-2.09,4.51-1.91,16.1-13.65,30.4-3.52,4.29-6.82,8.62-9.39,13.06Z"/>
        <path class="cls-8" d="M366.13,672.36c-2.74-1-3.57.91-5.09,2.35-5.46,5.17-12.67,7.36-19.44,7.78-1.89-7.84-1.47-16.1-4.7-23.51-.44-1.01-.4-2.49-.35-3.6l.06-1.44c-1.64-15.64-5.06-31.17-8.07-47.48l-13.77-74.49-15.32,48.59c-.41,1.29-1.81,2.5-1.07,4.35l.03,4.02h-4.09c1.46-6.86-2.94-14.47-1.37-21.84l10.63-49.94c7.74-6.42,12.59-13.79,18.22-21.57l10.26-14.09c.68,11.06,3.94,21.57,6.4,32.91.93,4.3.98,8.22,2.42,12.59,3.12,9.52,2.47,19.24,4.71,25.44,3.48,9.62,3.92,19.37,5.99,29.29l4.67,22.39,5.49,35.42c1.75,11.32,3.37,21.97,4.39,32.81Z"/>
        <path class="cls-1" d="M325.57,253.23c-1.71,20.25,1.41,40.59-1.95,62.42-.69,4.48-.4,6.86.34,11.26,3.7,21.8,3.56,43.96,1.33,65.94-1.14,11.26-4.2,20.99-11.7,29.63l-4.66,35.97c-1.32,10.16-3.38,19.44-2.79,30.22,10.73-3.05,17.84-11.28,24.39-12.08l1.54,4.91-10.26,14.09c-5.63,7.77-10.48,15.14-18.22,21.57l-10.63,49.94c-1.57,7.37,2.83,14.98,1.37,21.84-.24,1.13-.34,2.18-1.44,3.01l-2.48-15.08c-2.9,5.43-3.95,9.74-5.18,14.94-5.32,22.6-12.09,44.15-19.72,66.03-1.02,2.92-3.52,5.12-2.27,8.13-1.42.65-2.84,1.99-3.56,3.75-3.92,9.47-18.33,13-18.39,7.14,8.91-.74,15.29-6.86,17.89-15.85l3.17-10.98,9.04-32.51,8.03-35.47v-3.63c.44-.5,1.08-1.17,1.15-1.83l.3-2.7,2.59-9.18c8.03-34.56,13.73-69.72,18.03-104.95.3-2.46-.34-5.69.43-7.91,2.36-6.85,2.55-14.41,3.25-21.68l6.87-71.61c2.63-27.42,4.69-54.95,4.42-83.09l-.25-26.08c-.02-1.9,1.42-5.16,2.52-6.77l6.85,10.62Z"/>
        <path class="cls-1" d="M331.98,688.03c1.81-.21,3.95-.71,5.8.59-2.24,1-2.82,2.21-2.94,3.21-7.15,2.1-14.93,1.98-22.3,3.79-9.12,2.23-17.73,3.87-27.17,4.03l-52.13.89c-4.63.08-8.9.66-13.6,1.28l-9.57,1.25c-.15-1.04-1.17-1.57-2.62-1.57h-23.25c-1.45,0-2.47.52-2.67,1.29-2.9-.03-7.08-2.37-10.64-1.24-5.8,1.85-10.39-2.18-15.2-2.27-16.99-.34-32.97-1.44-48.9-3.82,1.35-4.29,5.16-4.61,8.41-5.76l28.27,2.89c5,.51,9.39,1.44,14.11-1.85-.3,2.15.45,4.37,3.33,4.58l13.75,1,23.63.91c11.6.45,23.54-.4,34.67-3.59.49-.14,1.02-.19,1.52-.17-.2,1.52,1.52,1.61,1.5.05l14.52,1.37c.44,4.49,12.42,3.47,22.07,1.75-2-.56-4.7.65-5.83-2.23,5.49.52,10.1,1.27,13.95-.91l17.53-1.3c1.59,1.93,5.51,1.97,6.89-.16l1.07-.08c2.74-.2,6.38.93,8.37-1.32l3.88-.07c1.2-.02,2.6.02,2.99-1.29l10.58-1.23Z"/>
        <path class="cls-7" d="M111.28,461.2l.87,13.01c-12.83-2.35-24.61-8.07-33.22-17.12-3.42-3.59-4.15-11.22-8.5-10.38-1.57-4.12-3.13-8.23-3.75-12.66,3.08-2.45-.91-8.33.31-15.22,6.03,19.58,21.1,30.64,40.54,37.59,1.15.88,1.55,4.97,3.77,4.79Z"/>
        <path class="cls-2" d="M122.15,428.31c-.28,6.36-10.29,15.87-7.49,34.26.69,4.52-.51,9.38,2.64,14.15l8.09,1.27c5.02.79,10.97,3.8,14.92.76.91-.7,2.25-.56,3.33-.14l2.92,9.72c-5.93,1.23-12.33,2.46-18.04,1.5-3.04-1.26-7.2-3.03-8.45-5.69l-1.47,1.03c-.15,1.23-.98,1.42-1.87,1.8-2.43-4.09-7.21-4.9-10.97-7.08l-9.12-5.3-8.1-6.03c-2.31-1.72-3.8-4.03-6.72-2.58-1.64-2.3-2.91-4.73-3.26-7.44l.38-1.46c8.62,9.04,20.39,14.77,33.22,17.12l-.87-13.01c-.53-7.98,2.8-27.21,10.54-33.99.11.19.34.73.33,1.09ZM119.06,482.02c.3,1.27-1.85.51-.99,1.93l.99-1.93Z"/>
        <path class="cls-8" d="M82.36,683.35c9.34,2.4,18.91,5.11,28.69,5.18l4.12,1.15c-3.25,1.15-7.06,1.46-8.41,5.76-15.59-2.33-42.11-9.69-50.23-19.63,3.59-.35,6.93.66,10.03,2.37,5.33,2.93,10.67,3.87,15.79,5.18Z"/>
        <path class="cls-8" d="M366.13,672.36c.29,3.08.99,6.78-4.22,9.14-3.11,1.41-6.69,4.32-10.35,5.4l-16.73,4.92c.12-.99.7-2.21,2.94-3.21-1.85-1.29-3.99-.8-5.8-.59,2.3-2.99,7.18-1.61,9.63-5.53,6.77-.42,13.98-2.61,19.44-7.78,1.52-1.44,2.35-3.35,5.09-2.35ZM340.99,686.61l-.68.68.68.68.68-.68-.68-.68Z"/>
        <path class="cls-6" d="M96.63,474.61c-.45,1.92-1.84,2.6-3.37,3-.53-.66-1.12-1.21-1.91-1.34l-1.92-.22c-1.64-4.29-5.23-6.68-7.63-10.04,2.92-1.45,4.42.86,6.72,2.58l8.1,6.03Z"/>
        <path class="cls-6" d="M103.09,486.26c-.36,3.01.18,5.49.79,8.02l-12.64-16.47,2.02-.2c2.56,3.23,6.24,6.7,9.83,8.65Z"/>
        <path class="cls-2" d="M78.93,457.09l-.38,1.46c-5.27-1.02-6.42-7.39-8.12-11.84,4.35-.84,5.08,6.79,8.5,10.38Z"/>
        <path class="cls-8" d="M111.27,318.55c-1.31-.15-1.83.64-1.76,2.03.05,1.02.08,1.97,1.49,2.04l.11,1.47c-1.08,5.22.9,11.6,1.06,17.5l.92,34.01c-.33-.22-2.48-.03-2.88.56l-.85,9.03c-.14,1.5.1,3.03.8,4.05.61.88,2.07,1.51,3.35,1.32-.92,3.58.23,5.15,3.18,8,7.42,7.16,8.78,6.07,9.32,16.45-5.84-1.7-9.2-8.1-15.41-8.04l-4.56.05-.21-1.73c1.45-1.55,4.26-1.79,6.28-2.78,1.26-1.89-1.34-4.09-2.08-5.33-1.04-1.73-2.66-3.49-5.99-4.08.76-1.43,1.82-2.03,2.72-2.49.3-.15.95-.19,1.15-.77.12-.35-.81-.76-.94-.89l-.13-6.45c.29-.43,1.78-.9,1.44-2.11-.24-.83-1.63-1.11-2.39-.93l-.25-9.81-.06-28.51c-.01-4.7.05-9.89,1.59-14.36,1.46-4.22,2.22-9.56-.19-13.74l.13-4.1,2.63-1.69c.46,3.73,1.79,7.38,1.53,11.28Z"/>
        <path class="cls-1" d="M129.09,414.8l-1.79,1.66c-.3-.37-1.26-.73-1.3-1.46-.54-10.38-1.9-9.29-9.32-16.45-2.96-2.85-4.1-4.42-3.18-8,1.21-4.71-.29-10.1-.42-14.96l-.92-34.01c-.16-5.91-2.14-12.28-1.06-17.5.79.42,1.74,1.49,1.99,3.2,4.3,29.79,10.12,58.64,15.99,87.51Z"/>
        <path class="cls-2" d="M107.11,308.95l-.13,4.1c-.2,6.06-3.06,10.78.19,13.74-1.54,4.47-1.6,9.66-1.59,14.36-1.47.26-6.3,1.17-6.78,3.2l-.47,19.61c-.05,2.08.89,4.41-.89,5.62-1.39.94-3.63.9-5.35.82-.06-17.13,4-34.06,6.4-51.56.44-3.25-1.05-6.5,2.34-9.44,6.24-5.4,1.34-12.22,4.86-15.32l-.19,10.85c-.02,1.02-.63,2.1-.29,2.75.31.62,1.49,1,1.91,1.27Z"/>
        <path class="cls-7" d="M105.57,341.15l.06,28.51c-9.24,8.64-1.65,19-13.47,21.99l-.08-21.26c1.72.08,3.96.13,5.35-.82,1.77-1.21.84-3.54.89-5.62l.47-19.61c.48-2.03,5.31-2.94,6.78-3.2Z"/>
        <path class="cls-2" d="M105.88,379.47c.03,1.02-.18,2.46.95,3.04l.13,6.45-.21,1.66c-.91.46-1.96,1.05-2.72,2.49,3.32.59,4.94,2.35,5.99,4.08-2.29-.92-4.65-1.37-7.02-1.51-2.34-3.88-7.12-2.06-10.71-.81l-.16-1.82.04-1.38c11.82-2.99,4.23-13.35,13.47-21.99l.25,9.81Z"/>
        <path class="cls-2" d="M110.02,397.18c.75,1.24,3.34,3.44,2.08,5.33-2.01.99-4.82,1.23-6.28,2.78l-1.7,1.82c-2.36,1.45-4.51,2.95-8.19,3.72.61-8.56,7.96-10.02,7.06-15.16,2.37.13,4.73.59,7.02,1.51Z"/>
        <path class="cls-4" d="M126,415c.04.73,1,1.09,1.3,1.46l2.8,3.51-8.27,7.24c.7-1.67,1.47-3.04,1.95-5.71-6.03-3.64-10.07-8.93-13.18-14.54,6.21-.07,9.57,6.34,15.41,8.04Z"/>
        <path class="cls-8" d="M109.74,307.26l-2.63,1.69c-.42-.27-1.59-.66-1.91-1.27-.33-.65.28-1.74.29-2.75l.19-10.85c.05-2.7-.82-5.53.75-8.34,2.55,7.6,2.47,14.65,3.31,21.54Z"/>
        <path class="cls-1" d="M111,322.62c-1.42-.07-1.44-1.02-1.49-2.04-.07-1.38.45-2.18,1.76-2.03l-.27,4.07Z"/>
        <polygon class="cls-4" points="106.03 407.01 104.13 407.1 105.83 405.28 106.03 407.01"/>
        <path class="cls-7" d="M92.29,394.86c-1.49.45-2.16-1.79-.16-1.82l.16,1.82Z"/>
        <path class="cls-7" d="M139.55,522.16l-9.77,53.4-18.72,112.97c-9.78-.07-19.35-2.78-28.69-5.18l20.98-102.29,10.08-45.75c2.02-9.15,4.99-17.78,5.91-26.85l20.21,13.69Z"/>
        <path class="cls-8" d="M160.47,523.3c-4.09,2.68-8.4,3.69-13.06,3.34l-7.87-4.48-20.21-13.69c-.68-.46-1.06-1.62-1.5-2.35-.35-.59-.97-1.19-1.57-1.43l-1.7-.66c1.83-3.23-6.77-9.08-9.28-9.76-.39-.1-.86-.13-1.41,0-.6-2.52-1.14-5.01-.79-8.02l16.03,8.71,22.23,10.83c4.98,2.42,9.27,6.07,14.58,8.1,4.01,1.53,3.54,6.99,4.54,9.41Z"/>
        <path class="cls-6" d="M114.56,504.03c-4.08-1.59-6.69-6.14-9.28-9.76,2.5.68,11.1,6.53,9.28,9.76Z"/>
        <path class="cls-6" d="M117.84,506.13l-1.57-1.43c.61.24,1.22.84,1.57,1.43Z"/>
        <path class="cls-1" d="M93.26,477.6l-2.02.2c.23-.5.18-1.15.11-1.54.79.14,1.39.68,1.91,1.34Z"/>
        <path class="cls-1" d="M105.75,479.91c.8,2.47,2.04,4.77,3.97,6.3,2.1,1.66,4.53,1.84,7,.78.9-.38,1.72-.58,1.87-1.8.15-.35.18-.91-.53-1.23-.86-1.43,1.3-.66.99-1.93l1.01,2.14c1.26,2.65,5.41,4.42,8.45,5.69,22.25,9.25,28.04-4.95,28.4,4l19.09,57.72-4.3,2.02-6.09-17.87-5.14-12.41c-1-2.42-.53-7.87-4.54-9.41-5.31-2.03-9.6-5.68-14.58-8.1l-22.23-10.83-16.03-8.71c-3.59-1.95-7.27-5.43-9.83-8.65,1.53-.39,2.92-1.08,3.37-3l9.12,5.3Z"/>
        <path class="cls-2" d="M336.62,653.94c-2.19-.21-1.78,1.98-.06,1.44-.05,1.11-.09,2.59.35,3.6l-8.83,2.15c-4.79,1.24-8.37-4.51-11.92-7.38l-11.39-4.31c-2.9-20.15-6.23-40.21-6.36-60.5l-.03-4.02c1.23-1.05,1.48-2.76,1.07-4.35l15.32-48.59,13.77,74.49c3.02,16.31,6.44,31.83,8.07,47.48Z"/>
        <path class="cls-2" d="M304.77,649.44l11.39,4.31c3.55,2.87,7.13,8.62,11.92,7.38l8.83-2.15c3.23,7.41,2.81,15.67,4.7,23.51-2.45,3.92-7.33,2.54-9.63,5.53l-10.58,1.23c-1.13.13-2.19.36-2.99,1.29l-3.88.07c-2.83.05-6.18-.66-8.37,1.32l-1.07.08-6.89.16-17.53,1.3c-.05-7.76.38-15.7-2.34-23.76-.91-2.7-3.93-5.01-3.62-8.09,5.78-17.86,12.2-35.45,16.96-53.58.82-.75,1.15-1.92,1.08-3.05-.02-.26-.01-.56.07-.8.83.13,1.42.84,1.67,2.21l8.87,49.75c3.33-1.65,1.68-4.8,1.41-6.69ZM303.6,663.04c-.25,2.07,1.58,2.17,2.11,1.86.73-.43,1.01-1.25.69-2.04-.25-.63-1.79-1.61-2.8.19ZM306.78,679.85c1.09.31,1.87,0,2.42-.77-.96-4.25-.66-9.09-2.65-13.07-.41.03-1.1.2-1.65.96l1.87,12.87Z"/>
        <path class="cls-8" d="M298.42,588.94c.13,20.29,3.45,40.35,6.36,60.5.27,1.89,1.92,5.05-1.41,6.69l-8.87-49.75c-.24-1.37-.84-2.08-1.67-2.21,1.32-3.91.73-8.18.06-12.23,1.1-.83,1.2-1.88,1.44-3.01h4.09Z"/>
        <path class="cls-6" d="M298.39,584.92c-.74-1.85.66-3.06,1.07-4.35.41,1.59.16,3.3-1.07,4.35Z"/>
        <path class="cls-3" d="M336.56,655.38c-1.72.54-2.13-1.65.06-1.44l-.06,1.44Z"/>
        <path class="cls-8" d="M236.48,676.55l4.81.31c.06,5.87,14.47,2.34,18.39-7.14.73-1.76,2.14-3.1,3.56-3.75,2.87,2,6.41,4.34,9.03,1.1l-5.49,12.7c-4.58,4.18-10.22,7.74-16.75,8.16-5.69.37-13.49-.49-18.44-4.19-7.08-5.28-12.24-14.2-16.14-22.86l-17.59-39.12-9.62-24.51-5.26-13.62-3.26-10.23-4.1-12.76c-.65-2.02-.72-4.72-3.39-4.42l-.52-2.64,4.3-2.02,17.81,49.49c7.93,22.03,16.3,43.06,27.02,63.78,3.38,6.53,8.88,11.28,15.64,11.71Z"/>
        <path class="cls-8" d="M292.89,591.95c.67,4.05,1.25,8.32-.06,12.23-.08.24-.09.55-.07.8-1.47.56-.85,2.18-1.08,3.05-4.76,18.13-11.18,35.72-16.96,53.58l-2.44,5.45c-2.62,3.24-6.16.9-9.03-1.1-1.25-3,1.25-5.2,2.27-8.13,7.63-21.88,14.4-43.43,19.72-66.03,1.23-5.21,2.27-9.51,5.18-14.94l2.48,15.08Z"/>
        <path class="cls-2" d="M143.91,689.3l-.46,3.27-28.27-2.89-4.12-1.15,18.72-112.97c6.12,1.35,14.23,8.7,14.92,16.09l2.2,23.52c-1.16,9.08.44,17.59-.68,26.65l-2.33,18.9c-.5,4.04.2,7.04.17,11.16l-.15,17.41Z"/>
        <path class="cls-7" d="M178.98,588.08c.56,2.98,13.81,24.53,14.38,33.59l3.15,49.98c.57,9-.2,17.4,1.77,25.55l-23.63-.91c.82-5.71-1.24-11.51-1.04-17.81l2.79-88.14c.04-1.4,1.05-2.44,2.59-2.24Z"/>
        <path class="cls-2" d="M231.59,683.75c.61,3.4,1.6,6.5,1.35,9.86-11.13,3.19-23.07,4.04-34.67,3.59-1.97-8.14-1.2-16.54-1.77-25.55l-3.15-49.98c-.57-9.06-13.82-30.61-14.38-33.59l-2.4-12.76,3.14-1.92,3.26,10.23,5.26,13.62,9.62,24.51,17.59,39.12c3.9,8.67,9.06,17.58,16.14,22.86Z"/>
        <path class="cls-5" d="M176.58,575.32l2.4,12.76c-1.54-.2-2.55.85-2.59,2.24l-2.79,88.14c-.2,6.31,1.86,12.1,1.04,17.81l-13.75-1c-2.88-.21-3.64-2.42-3.33-4.58l2.46-17.46c.41-.37,1.19-1.02,1.17-1.59l-.13-2.96,10.9-101.81,4.63,8.43Z"/>
        <path class="cls-8" d="M161.05,668.7l.13,2.96c-.88.05-1.05.77-1.17,1.59l-2.46,17.46c-4.71,3.29-9.11,2.36-14.11,1.85l.46-3.27c1.65.24,3.53-.19,4.45-1.32.85-1.04,1.48-2.64,1.58-4.33l.96-17.56c3.91.7,1.03,7.11,3.1,14.58,7.93-2.49,1.58-15.67,7.05-11.96Z"/>
        <path class="cls-2" d="M250.03,687.93l.73,5.71-.27,1.21-14.52-1.37-1.5-.05c-.49-.02-1.02.03-1.52.17.24-3.36-.75-6.46-1.35-9.86,4.95,3.69,12.75,4.56,18.44,4.19Z"/>
        <path class="cls-8" d="M272.02,693.22l8.66.25c-3.86,2.18-8.46,1.42-13.95.91,1.12,2.88,3.83,1.68,5.83,2.23-9.65,1.72-21.63,2.74-22.07-1.75l.27-1.21c7.09,1.32,14.19-.63,21.26-.43Z"/>
        <path class="cls-8" d="M314.52,690.62c-1.98,2.24-5.62,1.12-8.37,1.32,2.19-1.97,5.54-1.27,8.37-1.32Z"/>
        <path class="cls-8" d="M305.09,692.01c-1.38,2.12-5.3,2.08-6.89.16l6.89-.16Z"/>
        <path class="cls-8" d="M321.39,689.26c-.4,1.31-1.79,1.27-2.99,1.29.81-.93,1.86-1.16,2.99-1.29Z"/>
        <path class="cls-6" d="M234.46,693.44l1.5.05c.02,1.56-1.7,1.47-1.5-.05Z"/>
        <path class="cls-8" d="M190.36,205.74c1.82,1.2,3.21,2.93,3.46,5.2.07.61.77,1.38,1.21,1.85l2.57,22.22c-2.2,1.25-4.35,2.15-6.59,2.01-1.05-7.03-1.71-13.91-2.19-21.53l-3.48-8.51c-.64-1.57,1.76-2.61,3.25-2.34.67.12,1.07-.03,1.76,1.1Z"/>
        <path class="cls-7" d="M195.03,212.79c-.45-.47-1.15-1.25-1.21-1.85l1.4.21-.19,1.64Z"/>
        <path class="cls-6" d="M116.72,486.99c-2.48,1.06-4.9.88-7-.78-1.93-1.53-3.16-3.83-3.97-6.3,3.75,2.18,8.54,2.99,10.97,7.08Z"/>
        <rect class="cls-1" x="340.51" y="686.81" width=".96" height=".96" transform="translate(-385.99 442.06) rotate(-44.97)"/>
        <path class="cls-8" d="M203.9,274.17l10.47,62.22c-1.36,1.72-2.99,5.63-2.87,7.9-1.38.72-2.35,2.24-4.45,2.94l-10.64-74.09c2.62-.76,4.94-.07,7.49,1.03Z"/>
        <path class="cls-6" d="M197.6,235.01c.35,1.3,1.79,3.12,1.53,4.77-1.73-.02-1.3,1.76,0,1.43l4.77,32.97c-2.55-1.1-4.86-1.79-7.49-1.03l-5.4-36.13c2.24.14,4.39-.76,6.59-2.01Z"/>
        <path class="cls-8" d="M113.08,375.59c.13,4.87,1.63,10.26.42,14.96-1.27.19-2.74-.44-3.35-1.32-.71-1.02-.94-2.55-.8-4.05l.85-9.03c.4-.59,2.55-.78,2.88-.56Z"/>
        <path class="cls-8" d="M107.16,326.79c-3.25-2.96-.38-7.68-.19-13.74,2.4,4.18,1.64,9.52.19,13.74Z"/>
        <path class="cls-8" d="M106.83,382.51c-1.13-.58-.92-2.02-.95-3.04.76-.17,2.15.1,2.39.93.34,1.21-1.15,1.67-1.44,2.11Z"/>
        <path class="cls-8" d="M106.76,390.61l.21-1.66c.13.12,1.05.54.94.89-.19.58-.84.62-1.15.77Z"/>
        <path class="cls-2" d="M147.42,526.64c4.27,2.43,7.44,7.85,9.52,12.59,1.13,2.59,2.2,7.74,1.93,11.61l-7.97,115.24-.96,17.56c-.09,1.69-.73,3.29-1.58,4.33-.92,1.13-2.8,1.56-4.45,1.32l.15-17.41c.03-4.12-.66-7.12-.17-11.16l2.33-18.9c1.12-9.06-.48-17.58.68-26.65l-2.2-23.52c-.69-7.39-8.8-14.74-14.92-16.09l9.77-53.4,7.87,4.48Z"/>
        <path class="cls-8" d="M165.62,535.71c-3.14-.21-5.96,1.09-8.68,3.52-2.08-4.74-5.25-10.16-9.52-12.59,4.66.36,8.97-.66,13.06-3.34l5.14,12.41Z"/>
        <path class="cls-2" d="M280.68,693.47l-8.66-.25c1.45-6.1-5.29-8.02-5.24-13.45l5.49-12.7,2.44-5.45c-.31,3.08,2.71,5.4,3.62,8.09,2.72,8.06,2.29,16,2.34,23.76Z"/>
        <path class="cls-8" d="M306.78,679.85l-1.87-12.87c.55-.76,1.24-.94,1.65-.96,1.99,3.98,1.69,8.81,2.65,13.07-.55.77-1.33,1.08-2.42.77Z"/>
        <path class="cls-8" d="M303.6,663.04c1.01-1.79,2.55-.82,2.8-.19.32.8.04,1.61-.69,2.04-.53.31-2.36.22-2.11-1.86Z"/>
        <path class="cls-6" d="M291.68,608.04c.23-.87-.39-2.5,1.08-3.05.07,1.14-.26,2.3-1.08,3.05Z"/>
        <path class="cls-8" d="M165.62,535.71l6.09,17.87.52,2.64c.7,3.52.1,7.11-.28,10.66l-10.9,101.81c-5.47-3.7.88,9.47-7.05,11.96-2.08-7.47.8-13.88-3.1-14.58l7.97-115.24c.27-3.87-.8-9.02-1.93-11.61,2.72-2.43,5.54-3.73,8.68-3.52Z"/>
        <path class="cls-2" d="M272.02,693.22c-7.08-.2-14.17,1.75-21.26.43l-.73-5.71c6.54-.43,12.17-3.99,16.75-8.16-.05,5.43,6.68,7.35,5.24,13.45Z"/>
        <path class="cls-4" d="M179.72,573.4l-3.14,1.92-4.63-8.43c.38-3.55.98-7.14.28-10.66,2.67-.31,2.75,2.4,3.39,4.42l4.1,12.76Z"/>
        <path class="cls-8" d="M160.02,673.25c.12-.83.29-1.54,1.17-1.59.03.58-.75,1.22-1.17,1.59Z"/>
        <path class="cls-8" d="M199.13,241.2c-1.3.33-1.73-1.45,0-1.43-.06.37-.06,1.03,0,1.43Z"/>
      </g>
    </g>
  </g>
</svg>