<?xml version="1.0" encoding="UTF-8"?>
<svg id="Réteg_1" data-name="Réteg 1" xmlns="http://www.w3.org/2000/svg" viewBox="0 0 409.19 709.78">
  <defs>
    <style>
      .cls-1 {
        fill: #1c395c;
      }

      .cls-2 {
        fill: #f39ea5;
      }

      .cls-3 {
        fill: #9888a6;
      }

      .cls-4 {
        fill: #f6b3a6;
      }

      .cls-5 {
        fill: #e4aca3;
      }

      .cls-6 {
        fill: #3b6fad;
      }

      .cls-7 {
        fill: #fbedde;
      }

      .cls-8 {
        fill: #f6bea0;
      }

      .cls-9 {
        fill: #fafaf0;
      }

      .cls-10 {
        fill: #fcddb8;
      }

      .cls-11 {
        fill: #f9d0b1;
      }

      .cls-12 {
        fill: #fce7cf;
      }

      .cls-13 {
        fill: #3e649e;
      }
    </style>
  </defs>
  <g id="Generatív_objektum_180_30_" data-name="Generatív objektum (180, 30)">
    <path class="cls-13" d="M146.54,513.36c3.32,1.97,1.75,5.8,3.1,10.86l-9.6-1.22c-2.63.78-3.02,5.53-3.58,8.78l-14.1,81.4-4.71,30.61c-.36,2.35-1.54,4.26-1.45,7,.27,8.7-5.73,26.26-5.11,40.19,4.09,2.77,8.92,5.75,13.73,5.28-4.4-2.65-9.01-3.19-12.56-6.62l4.23-30.65c.96-1.83,1.72-3.57.79-5.79l13.27-78.92,6.57-37.03c8.32,2.66,15.97,5.52,24.15,6.09l-10.53,106.48-4.73,50.44c-2.62-.47-4.26-.82-6.58-.04,3.64,2.23,7.52,2.17,12,3.14,1.36.3,3.23,2.41,4.94.98l-3.09-2.05,7.77-93.13,6.47-65.01,24.55,3.36c1.07.17,1.79.4,2.29.89.8.8.81,2.3-.12,3.79,2.94.91,5.51.17,8.58.25l-.02,14.31c-1.05-.39-4.15-.45-4.17.51l-.22,9.45c-4.03.57-8.33-1.3-12.58,1.42,5.75,1.62,11.11,1.4,16.84,1.44l-.19,22.35c-.05,5.79,1.28,11.6-.21,17.44,1.26.54,1.99.37,2.2-.06.29-.6-.07-2.09-.16-2.6l-.48-2.91c-.15-.91,1.74-1.21,2.24-1.59,2.01-3.48-.14-8.16-.9-11.63-1.52-6.96-.25-13.96-.19-20.72l14-.3c.37-.11.67-1.33.53-1.62-.21-.42-.92-.4-1.52-.44l-10.9-.67c.43-2.92,1.2-5.9.6-8.21-1.3-.47-2.84-1.33-2.83-3.05l.16-15.03c3.1-.84,5.76-2.7,8.55-2.78,1.56-.04,2.74-.76,4.32-.92l17.82-1.8,5.76,86.53,3.93,63.24c.22,3.59.4,6.49-.75,10.28l19.24-3.77c-2.11-1.21-5.28.83-6.93-.61l-6.91-84.83-6.47-68.9.32-3.19c9.01-.58,17.33-2.54,25.27-6.27-.37,2.41.82,3.9,1.14,5.97l14.5,94.73,7.58,51.7c-1.82,2.47-4.33,2.88-6.97,4.38-1.23.1-2.43,1.31-.36,1.68,2.83-2.03,5.79-3.21,8.55-2.88,1.02,6.11,1.92-7.71,1.68-1.54-14.82,7.53-30.19,14.34-47.14,15.3-36.41,2.07-82.38,3.59-111.74-4.61-9.53-2.66-17.9-6.24-26.93-10.81l1.35-.98c-21.15-8.28-42.02-20.6-50.86-42.26.87-1.34.44-3.23.55-4.39,1.51-15.27,4.5-29.92,7.64-45.54l17.11-85.05c.54-5.34,1.24-10.29,2.7-15.18-1.62-5.99-.23-11.51.23-17.14,1.03-.56,1.67-3.09,1.54-4.25,10.72,21.19,35.49,29.76,56.79,36.73ZM200.04,611.54c.07-7.52,2-17.48-.4-12.79l-.72,1.4-1.4,11.37c-.11.86,2.51,1.01,2.52.01Z"/>
    <path class="cls-13" d="M220.45,107.28c26.77,23.41,44.12,62.67,53.24,96.46.25.31,1.15,1.62-.28,1.54-2.5,5.36-13.32,9.43-20.43,11.35-28.24,7.62-58.2,8.34-86.75,1.55-10.43-2.48-19.38-6.64-28.12-13.03,1.16,4.92,4.93,7.5,8.87,9.83,13.48,7.99,28.38,11.85,44.37,13.7,22.44,2.6,44.76-.49,65.51-8.24,7.22-2.69,12.52-6.81,16.82-12.79l7.18,37.09c.71,3.6,4.91,6.6,5.4,10.54l-5.74-1.55.81,1.78c-1.75-1.8-3.67-.79-4.87.69-1.4,1.74-2.18,4.91.91,5.97.1,1.03-.57,2.39-.85,3.58.56-.99-1.03-3.08-1.16-.72-3.14.49-1.88,3.38-2.85,4.25-1.11,1-1.99,1.98-1.37,4.53-.09.65.3.93.5,1.03.3.15-.55.81-1.71.5,1.19,7.62-9.65,10.48-19.59,13.26l-5.32.29c-1.23-3.69-2.37-7.48-4.81-10.99l-2.55,1.51-4.61,12.65-25.23,2.64-2.04-10.24c-1.9,3.07-1.66,6.53-2.94,10.03-9.12-.42-17.81-1.08-26.52-3l-4.61-13.02c-3.51,1.88-5.58,5.66-6.87,9.96-6.81.07-13.21-2.36-19.28-5.59-10.04-5.34-1.82-15.99-5.94-16.56-1.19-.16-3.06,1.28-4.01.7l-2.72-10.45-12.32,4.63c.05-.62.09-1.17-.16-1.92,1.4-.87,4.69-2.28,3.88-4.27l-1.91-5.15c2.19-.99,5.73-3.82,6.32-6.73l4.41-21.78c1.35-6.66,2.69-13.15,2.03-19.31-.57.05-.52-.5-.58-.52-.97-2.41-1.07-4.03-.17-6.06l2.55-5.73c6.39-24.35,17.39-46.98,34.16-65.76,5.92-6.62,11.48-13.19,18.5-17.38l12.35-7.37c3.88-2.31,13.3,3.56,18.5,8.11Z"/>
    <path class="cls-13" d="M349.6,643.88l.67,3.55-6.18,13.19c-.43-.34-.8-.66-1.3-.63l-21.81-113.16-8.83-43.84c-4.36,8.86-8.53,16.92-16.68,23.42l27.28,151.85-1.59-.81c-8.36,6.07-18.32,10.19-27.44,14l-3.43-28.17-3.26-22.66-15.86-102.75-2.45-12.82c-.91-4.79-1.75-9.94-.06-14.13,11.4-3.69,21.83-8.95,32.12-14.57,7.27-3.97,10.21-10.11,14.22-15.58,2.14,2.76,2.14,5.95,2.91,9.47l16.99,77.39c5.73,25.67,10.73,50.69,14.68,76.28Z"/>
    <path class="cls-1" d="M298.85,316.87c2.06,1.79,3.16,5.14,3.74,7.7l2.64,11.62c.54,2.39-.55,5.14,1.14,7.37-1.07,5.26,1.15,10.03,4.89,13.13l5.02,12.78c-3.4-1.61-3.23-9.25-7.45-8.78,1.72,10.07,1.46,19.03,2.16,28.88,13.81-3.07-.66,18.68,3.84,35.97l2.93.93-.7,2.97c.94,9.39,1.89,18.75,4.75,27.43.62,1.86.76,2.88.18,5.15-.36,1.4,1.24,3.74-.92,4.89-1.96,1.02-5.44,2.94-5.76,5.87-.17,1.57,1.81,3.95,1.15,5.35-.56,1.07-1.04,2.05-1.44,2.6-4.01,5.47-6.95,11.61-14.22,15.58-10.3,5.63-20.72,10.88-32.12,14.57-22.34,7.24-58.21,8.28-81.86,6.82l-14.01-.87-17.07-2.64-4.02-.51c.36-1.76-2.7-1.01-3.61-.64-.98-2.14-2.23-.98-1.55.31-21.31-6.97-46.07-15.55-56.79-36.73l-.73-6.4c.48-2.05,1.98-5.17-.35-7.43-5.36-5.22-8.44-2.69-6.78-17.97,1.33-12.21.35-24.6,4.72-36.87l-2.5,23.95c-.39,3.77-.33,7.37-.68,11.16l-.87,9.41c-.1,1.12.17,2.4.79,2.83,5.21,3.69,6.86-6.06,8.61-12.87,4.11-16,7.17-31.87,7.47-48.58-2.01.44-4.77-.34-4.39-2.6.18-1.08,2.5-1.86,4.06-1.9l2.15-23.22c.3-3.25.43-6.4-.56-9.8-5.49,8.65-7.93,17.56-9.76,27.09-.31,1.63-2.63,3.66-.34,5.61-1.83,3.88-3.08,8.04-2.63,12.89-.13,1.85-.17,3.75-2.28,4.08,2.03-22.46,8.26-43.39,18.97-63.31.25-7.4,1.64-14.43,4.3-21.45l2.33-7.82c.35.31.6.27,1.05.29-2.43,11.29-7.34,23.2-6.15,36.55.99,11.09,4.38,21.25,6.58,31.9l2.52,23.14c.97,19.77-2.63,38.97-9.85,57.14-2.05,5.16-3.59,10.03-7.44,13.79,4.71,5.59,9.79,9.04,15.96,12.38,32.42,17.56,73.6,18.89,111.01,16.95,26.91-1.4,63.37-8.91,82.91-28.2-13.31-30.54-14.94-60.12-8.9-93.7,2.02-11.23,5.54-21.83,6.08-33.39l-.81-10.79c-.49-6.46-3.65-15.96-5.38-22.62Z"/>
    <path class="cls-13" d="M89.02,470.23l-9.7-8.91c-7.9-7.59-11.54-18.01-14.83-28.32-1.58-4.96-1.99-10.33-1.69-15.46l.47-8.15c.13-2.16-.04-4.87.21-7.11l.51-4.52,6.75-34.97c5.8-21.9,20.88-39.41,40.53-49.37l-2.33,7.82c-2.66,7.02-4.06,14.05-4.3,21.45-10.7,19.92-16.94,40.85-18.97,63.31,2.11-.33,2.15-2.23,2.28-4.08-.45-4.85.8-9.01,2.63-12.89-2.28-1.95.03-3.98.34-5.61,1.83-9.53,4.27-18.44,9.76-27.09.99,3.4.86,6.55.56,9.8l-2.15,23.22c-1.56.04-3.88.82-4.06,1.9-.39,2.26,2.38,3.04,4.39,2.6-.3,16.71-3.36,32.58-7.47,48.58-1.75,6.8-3.4,16.56-8.61,12.87-.62-.44-.89-1.72-.79-2.83l.87-9.41c.35-3.78.29-7.39.68-11.16l2.5-23.95c-4.37,12.27-3.39,24.66-4.72,36.87-1.66,15.28,1.42,12.75,6.78,17.97,2.32,2.26.82,5.38.35,7.43Z"/>
    <path class="cls-13" d="M342.79,659.98c.71,3.69-1.42,7.89-3.7,11.29-4.4,6.59-10.21,1.79-15.6,7.24-.46-.17-1.13-.27-1.21-.55l-.42-1.48-1.15-9.72-25.25-140.37c8.15-6.5,12.32-14.56,16.68-23.42l8.83,43.84,21.81,113.16ZM325.06,674.71c6.96-.11,13.06-9.81,16.59-15.9l-8.08,7.96c-2.67,2.63-4.57,6.41-8.51,7.95Z"/>
    <path class="cls-7" d="M296.06,223.98c-1.9-.87-2.45-3.8-4.86-4.33l-8.07-1.78c.15,4.32.51,7.72,2.09,10.92l.76,5.26,2.09,12.17c.64,3.73.92,7.22-.55,10.85-.82-.3-1.06-1.24-1.28-1.78-.49-3.93-4.69-6.94-5.4-10.54l-7.18-37.09,1.45-2.02c.56-.78-.74-1.91-1.44-1.9-9.12-33.79-26.47-73.05-53.24-96.46-4.13-5.44-8.49-10.66-15.14-14.02l-15.86,9.39c-4.9,2.9-9.84,5.91-13.72,10.76-1.94,2.41-6.27,1.42-8.5,2.53-6.1,3.04-8.89,9.64-12,15.14l-11.21,19.78-2.92,7.88-1.66-.72c1.17-3.1,2.56-6.03,4.09-9.27,10.77-22.78,22.17-39.73,44.4-53.89,5.75-3.66,11.44-6.79,17.93-8.14,39.46,15.18,62.44,55.29,72.38,94.31,1.67,6.56,2.53,11.93.25,18.79l2.83,11.43,8.39,4.81c3.32,1.9,5.12,4.66,6.35,7.93Z"/>
    <path class="cls-2" d="M132.43,271.22c.89,6.35,4.6,12.19,8.82,17.17-1.17.99-2.13,1.83-2.48,2.95-4.49,2.51-7.69,6.91-11.88,10.37l-14.57,12.01c-.45-.03-.71.01-1.05-.29-19.64,9.95-34.73,27.47-40.53,49.37l-6.75,34.97c-.67-.07-1.1-.58-1.58-.9l1.44-24.27,1.64-17.48c.79-8.4,1-16.94,3.69-24.41,3.09-8.56,6.81-16.61,12.65-23.99,11.44-14.45,21.43-19.58,36.72-28.34,3.71-2.13,7.22-4.1,11.3-4.95-.86-3.37-1.82-5.36-1.16-8.33,1.45,2.35,3.47,4.23,3.74,6.13ZM133.61,281.99c.51-2.22-1.69-6.14-3.3-7.56-.08.04-.55.46-.72.63l4.01,6.93Z"/>
    <path class="cls-2" d="M339.31,434.36c-1.67,7.49-7.77,23.12-9.76,22.53,1.58-2.46.24-5.33.12-8.41-1.25-31.02-4.59-61.1-11.06-91.46-2.7-12.67-7.61-23.27-16.01-32.46-.58-2.56-1.68-5.92-3.74-7.7-3.58-3.1-6.24-6.84-9.54-10.53-8.17-9.14-8.02-16.78-13.9-23.5l-.06-.61c1.71-.69,2.53-1.52,4.68-4.15,8.14,11.38,17.87,20.14,27.75,29.81,12.3,12.05,20,26.31,23.64,43.12,5.21,24.03,7.66,48.51,8,73.32.05,3.43-2.38,7.19-.13,10.03Z"/>
    <path class="cls-7" d="M281.32,255.51c2.41,2.47,5.39,3.61,8.18,5.61l7.26,5.22.4-6.32c.52-.42,1.09-.52,1.77-.31-.12,2.77.39,5.75-.36,8.97,22.29,15.63,30.96,35.69,36.49,61.12,5.32,24.44,6.43,49.3,5.76,74.52l-.32,11.92-.57,15.29-.63,2.82c-2.26-2.84.17-6.61.13-10.03-.34-24.81-2.8-49.3-8-73.32-3.64-16.81-11.34-31.07-23.64-43.12-9.88-9.68-19.62-18.43-27.75-29.81-2.15,2.62-2.97,3.45-4.68,4.15,4.2-4.9,8.26-10.07,7.09-16.85l-3.9,7.3c-2.48-1.33-2.54-4.68-2.02-6.92.27-1.19.95-2.55.85-3.58-3.09-1.05-2.31-4.23-.91-5.97,1.2-1.48,3.12-2.49,4.87-.69Z"/>
    <path class="cls-13" d="M329.55,456.9c-.19-.06-.62-.05-.82.14-1.51,4.27-3.84,7.9-7.65,9.88,2.17-1.15.56-3.49.92-4.89.58-2.27.44-3.29-.18-5.15-2.86-8.68-3.81-18.04-4.75-27.43l.7-2.97-2.93-.93c-4.5-17.29,9.98-39.05-3.84-35.97-.7-9.85-.44-18.81-2.16-28.88,4.22-.47,4.06,7.17,7.45,8.78l-5.02-12.78c-3.74-3.09-5.97-7.87-4.89-13.13-1.69-2.23-.6-4.98-1.14-7.37l-2.64-11.62c8.4,9.19,13.31,19.78,16.01,32.46,6.47,30.36,9.81,60.44,11.06,91.46.12,3.09,1.46,5.95-.12,8.41Z"/>
    <path class="cls-7" d="M135.61,266.97c.32,1.23-.78,4.9-2.09,5.07-.31.04-.75-.36-1.09-.83-.27-1.9-2.29-3.78-3.74-6.13-.66,2.97.3,4.96,1.16,8.33-4.07.85-7.59,2.83-11.3,4.95-15.28,8.76-25.28,13.89-36.72,28.34-5.84,7.38-9.56,15.42-12.65,23.99l6.16-21.33c4.31-13.63,17.77-31.8,28.74-39.06,5.22-3.45,10.57-6.94,16.48-9.15l12.32-4.63,2.72,10.45Z"/>
    <path class="cls-2" d="M60.51,643.8c-.61.11-.96-.25-1.15-.6-1.46-2.7-1.85-13.86-.8-20.05l5.72-33.74,7.04-37.94,11.89-55.43,2.9-10.47c.45-1.61.38-3.74,2.09-4.68-.46,5.64-1.86,11.16-.23,17.14-1.47,4.89-2.16,9.84-2.7,15.18l-17.11,85.05c-3.14,15.62-6.14,30.27-7.64,45.54Z"/>
    <path class="cls-10" d="M189.45,102.64c-.07,1.48-.04,2.58.14,3.9-7.03,4.19-12.59,10.76-18.5,17.38-16.77,18.78-27.77,41.4-34.16,65.76l-2.55,5.73c-1.97.45-3.58-7.57-2.79-11.47,1.84-9.13,4.74-17.66,7.85-25.92l1.66.72,2.92-7.88,11.21-19.78c3.11-5.49,5.9-12.1,12-15.14,2.23-1.11,6.56-.12,8.5-2.53,3.88-4.84,8.83-7.85,13.72-10.76Z"/>
    <path class="cls-1" d="M124.64,236.04l-1.84,5.85c-.86,2.74-1.58,5.49-.42,7.92l-1.74-.74c-2.02,2.85-3.32,8.19-3.33,12.09l3.09-1.93c.25.75.21,1.3.16,1.92-5.9,2.22-11.26,5.7-16.48,9.15l-.1-19.02-.14-14.25c-.05-.22-.09-.55.16-.72,3.58,1.57,8.11.16,12.28,1.13,3.3.77,5.82,1.45,8.35-1.4Z"/>
    <path class="cls-9" d="M349.6,643.88c-3.95-25.59-8.94-50.61-14.68-76.28l-16.99-77.39c-.77-3.52-.78-6.71-2.91-9.47.4-.55.88-1.53,1.44-2.6,13.49,49.65,24.92,100.09,34.06,151.57.69,5.62.95,9.87.44,15.24-.79-.24-1-.82-1.36-1.07Z"/>
    <path class="cls-11" d="M296.06,223.98c1.45,3.86,4.04,7.98,3.85,12.59l-.98,23.13c-.68-.21-1.25-.11-1.77.31-.72-5.99,1.56-12.29-.55-17.8-1.23-3.19-3.04-5.89-5.59-8.29l-5.8-5.16c-1.59-3.19-1.94-6.6-2.09-10.92l8.07,1.78c2.41.53,2.96,3.46,4.86,4.33Z"/>
    <path class="cls-2" d="M119.59,205.75l6.1,1.85-10.09,3.82c-8.49,5.67-11.5,15.5-11.6,24.89-.25.17-.21.5-.16.72-.57-.18-1.01-.78-1.73-.73l-.09-13.32c-.04-5.82,1.82-11.23,5.82-15.02,1.38,2.58,1.91-4.01,6.42-4.15,1.8-.06,3.41,1.49,5.32,1.94Z"/>
    <path class="cls-7" d="M134.55,201.47c.06.02.02.57.58.52-.37.53-.25,1.43-.91,1.85s-1.47-.58-2.02-.8c-3.52,2.33-8.43,2.64-12.61,2.71-1.91-.45-3.51-2-5.32-1.94-4.51.14-5.04,6.73-6.42,4.15.61-2.71,2.79-4.97,5.87-5.96,2.12-.68,3.39-3.38,5.15-3.96l12.8-4.23c1.19,3.26,1.13,5.66,2.89,7.65Z"/>
    <path class="cls-5" d="M103.85,237.03l.14,14.25c-.43.02-.94.1-1.75-.13l-.12-14.85c.72-.06,1.17.55,1.73.73Z"/>
    <path class="cls-5" d="M63.99,397.76l-.51,4.52c-.25,2.24-.09,4.95-.21,7.11-1.01.03-1.13-.68-1.02-1.57l.16-10.95c.49.31.91.83,1.58.9Z"/>
    <path class="cls-1" d="M293.72,691.43l-.12,1.66c-2.76-.33-5.72.85-8.55,2.88-2.08-.37-.87-1.58.36-1.68,2.64-1.49,5.15-1.91,6.97-4.38l-7.58-51.7-14.5-94.73c-.32-2.07-1.5-3.55-1.14-5.97-7.94,3.74-16.25,5.69-25.27,6.27l-.32,3.19c-1.58-.74-.21-2.77-.28-3.81l-1.11-17.75c-8.1-2.13-10.31,2.6-16.72,5.53l-.14,8.15c-3.81,2.18-6.99,4.43-9.54,7.79-1.31-1.17-2.3-.17-2.21.88-2.8.08-5.45,1.94-8.55,2.78l-.16,15.03c-.02,1.72,1.53,2.59,2.83,3.05.6,2.31-.17,5.29-.6,8.21l10.9.67c.6.04,1.31.02,1.52.44.15.29-.16,1.51-.53,1.62l-14,.3c-.06,6.76-1.34,13.77.19,20.72.76,3.47,2.91,8.16.9,11.63-.5.38-2.39.68-2.24,1.59l.48,2.91c.08.51.45,2,.16,2.6-.21.43-.94.61-2.2.06,1.49-5.84.16-11.65.21-17.44l.19-22.35c-5.73-.04-11.1.18-16.84-1.44,4.25-2.73,8.54-.85,12.58-1.42l.22-9.45c.02-.96,3.12-.9,4.17-.51l.02-14.31c-3.07-.08-5.65.66-8.58-.25.93-1.49.92-2.99.12-3.79-.49-.49-1.22-.72-2.29-.89.25-4.71-9.89-3.11-15.11-9.16-1.49-1.73.33-6.16-.74-8.19-2.46-4.65-9.04-5.23-13.36-4.76-1.76,6.52-1.01,12.22-1.58,17.93-8.19-.56-15.83-3.43-24.15-6.09l-6.57,37.03-13.27,78.92c.92,2.22.17,3.96-.79,5.79l-4.23,30.65c3.55,3.44,8.16,3.97,12.56,6.62-4.81.47-9.64-2.51-13.73-5.28-.62-13.93,5.38-31.49,5.11-40.19-.09-2.75,1.09-4.65,1.45-7l4.71-30.61,14.1-81.4c.56-3.25.95-8.01,3.58-8.78l9.6,1.22c-1.36-5.06.22-8.89-3.1-10.86-.67-1.29.57-2.45,1.55-.31.91-.36,3.97-1.12,3.61.64l4.02.51,17.07,2.64,14.01.87c23.65,1.46,59.52.41,81.86-6.82-1.69,4.19-.86,9.35.06,14.13l2.45,12.82,15.86,102.75,3.26,22.66,3.43,28.17Z"/>
    <path class="cls-1" d="M243.58,546.98l6.47,68.9,6.91,84.83c1.65,1.44,4.83-.6,6.93.61l-19.24,3.77c1.15-3.79.97-6.69.75-10.28l-3.93-63.24-5.76-86.53-17.82,1.8c-1.58.16-2.76.88-4.32.92-.09-1.05.91-2.05,2.21-.88,2.55-3.36,5.73-5.62,9.54-7.79l.14-8.15c6.41-2.93,8.62-7.66,16.72-5.53l1.11,17.75c.07,1.04-1.31,3.07.28,3.81Z"/>
    <path class="cls-1" d="M192.07,547.52l-24.55-3.36-6.47,65.01-7.77,93.13,3.09,2.05c-1.71,1.43-3.58-.69-4.94-.98-4.48-.97-8.36-.91-12-3.14,2.31-.77,3.96-.42,6.58.04l4.73-50.44,10.53-106.48c.56-5.71-.18-11.41,1.58-17.93,4.32-.47,10.9.11,13.36,4.76,1.07,2.03-.75,6.47.74,8.19,5.23,6.05,15.37,4.44,15.11,9.16Z"/>
    <path class="cls-1" d="M200.04,611.54c0,1-2.63.85-2.52-.01l1.4-11.37.72-1.4c2.4-4.69.48,5.26.4,12.79Z"/>
    <path class="cls-1" d="M276.51,265.75c-.52,2.24-.46,5.59,2.02,6.92l3.9-7.3c1.18,6.78-2.88,11.95-7.09,16.85l.06.61c-8.01,10.63-19.57,17.61-32.26,22.08-13.06,4.6-26.04,7.82-40.3,6.92-16.06-1.01-31.16-5.53-45.72-12.34l-15.51-10.95c-.7,1.75-1.92,2.28-2.85,2.8.36-1.12,1.31-1.96,2.48-2.95-4.23-4.98-7.93-10.82-8.82-17.17.34.47.78.87,1.09.83,1.32-.17,2.41-3.84,2.09-5.07.95.58,2.81-.87,4.01-.7,4.12.57-4.1,11.22,5.94,16.56,6.08,3.23,12.47,5.66,19.28,5.59,1.29-4.3,3.37-8.08,6.87-9.96l4.61,13.02c8.71,1.93,17.41,2.58,26.52,3,1.29-3.5,1.04-6.96,2.94-10.03l2.04,10.24,25.23-2.64,4.61-12.65,2.55-1.51c2.44,3.51,3.57,7.3,4.81,10.99l5.32-.29c9.94-2.78,20.78-5.63,19.59-13.26,1.16.32,2.01-.34,1.71-.5-.2-.1-.59-.38-.5-1.03,2.31.24,2.05-2.59,1.37-4.53.97-.87-.3-3.76,2.85-4.25.13-2.36,1.72-.27,1.16.72Z"/>
    <path class="cls-1" d="M273.67,207.65c-4.3,5.98-9.6,10.1-16.82,12.79-20.75,7.74-43.07,10.84-65.51,8.24-15.98-1.85-30.89-5.71-44.37-13.7-3.94-2.33-7.71-4.91-8.87-9.83,8.74,6.39,17.69,10.55,28.12,13.03,28.55,6.79,58.51,6.08,86.75-1.55,7.11-1.92,17.92-6,20.43-11.35,1.43.08.53-1.23.28-1.54.7-.01,2,1.12,1.44,1.9l-1.45,2.02Z"/>
    <path class="cls-1" d="M296.61,242.23c2.11,5.51-.17,11.81.55,17.8l-.4,6.32-7.26-5.22c-2.79-2-5.77-3.14-8.18-5.61l-.81-1.78,5.74,1.55c.22.54.46,1.48,1.28,1.78,1.47-3.63,1.19-7.12.55-10.85l-2.09-12.17,1.05-.03c.86,3.01,2.48,5.51,5.11,6.95-.91,1.21-2.71.72-2.87.1l-.36-1.43c-2.86,2.31,3.28,4.61,7.69,2.6Z"/>
    <path class="cls-12" d="M122.38,249.81c-1.15-2.42-.44-5.17.42-7.92l1.84-5.85c2.91-9.25,4.59-19.36,6.56-28.82.84-.21,1.88-.81,1.93-2.12.03-.76-.46-1.27-.94-2.07.55.22,1.38,1.21,2.02.8s.55-1.32.91-1.85c.66,6.17-.68,12.65-2.03,19.31l-4.41,21.78c-.59,2.91-4.13,5.74-6.32,6.73Z"/>
    <path class="cls-8" d="M220.45,107.28c-5.2-4.55-14.62-10.42-18.5-8.11l-12.35,7.37c-.18-1.31-.21-2.42-.14-3.9l15.86-9.39c6.64,3.36,11.01,8.58,15.14,14.02Z"/>
    <path class="cls-3" d="M122.38,249.81l1.91,5.15c.81,1.99-2.48,3.4-3.88,4.27l-3.09,1.93c0-3.9,1.31-9.24,3.33-12.09l1.74.74Z"/>
    <path class="cls-3" d="M272.51,269.28c.69,1.94.94,4.77-1.37,4.53-.62-2.55.26-3.53,1.37-4.53Z"/>
    <path class="cls-13" d="M298.85,316.87c1.73,6.66,4.89,16.16,5.38,22.62l.81,10.79c-.54,11.56-4.06,22.16-6.08,33.39-6.04,33.58-4.41,63.16,8.9,93.7-19.54,19.29-55.99,26.81-82.91,28.2-37.41,1.94-78.59.61-111.01-16.95-6.17-3.34-11.25-6.78-15.96-12.38,3.85-3.75,5.38-8.62,7.44-13.79,7.22-18.17,10.82-37.38,9.85-57.14l-2.52-23.14c-2.2-10.64-5.58-20.81-6.58-31.9-1.2-13.35,3.72-25.26,6.15-36.55l14.57-12.01c4.19-3.46,7.39-7.86,11.88-10.37.93-.52,2.15-1.04,2.85-2.8l15.51,10.95c14.57,6.82,29.66,11.34,45.72,12.34,14.26.89,27.24-2.32,40.3-6.92,12.69-4.47,24.25-11.45,32.26-22.08,5.88,6.72,5.73,14.37,13.9,23.5,3.3,3.69,5.96,7.43,9.54,10.53Z"/>
    <path class="cls-13" d="M325.06,674.71c3.94-1.54,5.84-5.31,8.51-7.95l8.08-7.96c-3.53,6.09-9.62,15.79-16.59,15.9Z"/>
    <path class="cls-6" d="M296.61,242.23c-4.41,2.01-10.55-.28-7.69-2.6l.36,1.43c.15.61,1.96,1.11,2.87-.1-2.63-1.44-4.25-3.94-5.11-6.95l-1.05.03-.76-5.26,5.8,5.16c2.55,2.39,4.36,5.09,5.59,8.29Z"/>
    <path class="cls-4" d="M133.61,281.99l-4.01-6.93c.17-.17.64-.59.72-.63,1.6,1.42,3.8,5.34,3.3,7.56Z"/>
    <path class="cls-13" d="M131.2,207.23c-1.97,9.45-3.65,19.56-6.56,28.82-2.53,2.85-5.05,2.17-8.35,1.4-4.17-.97-8.7.44-12.28-1.13.1-9.39,3.11-19.22,11.6-24.89l10.09-3.82c1.39-.22,3.83.14,5.51-.37Z"/>
    <path class="cls-5" d="M131.2,207.23c-1.68.52-4.12.15-5.51.37l-6.1-1.85c4.18-.07,9.09-.38,12.61-2.71.48.8.97,1.31.94,2.07-.05,1.31-1.09,1.91-1.93,2.12Z"/>
  </g>
</svg>