<?xml version="1.0" encoding="UTF-8"?>
<svg id="Réteg_1" data-name="Réteg 1" xmlns="http://www.w3.org/2000/svg" viewBox="0 0 409.19 709.78">
  <defs>
    <style>
      .cls-1 {
        fill: #0d3450;
      }

      .cls-2 {
        fill: #1c395c;
      }

      .cls-3 {
        fill: #f39ea5;
      }

      .cls-4 {
        fill: #f6b3a6;
      }

      .cls-5 {
        fill: #e4aca3;
      }

      .cls-6 {
        fill: #fbedde;
      }

      .cls-7 {
        fill: #39587d;
      }

      .cls-8 {
        fill: #fcddb8;
      }

      .cls-9 {
        fill: #3e649e;
      }
    </style>
  </defs>
  <g id="Generatív_objektum_0_30_" data-name="Generatív objektum (0, 30)">
    <path class="cls-6" d="M201.54,100.59c-.9,2.15-1.36,4.47-1.41,6.99l-.52,23.87c-1.46,22.1-.49,44.69-.61,67.52,0,.89-.56,1.38-.6,2.17-7.88,1.49-16.06,5.95-22.41,11.34-3.86,3.27,16.37,2.14,23.64,3.03,3.03.37,5.31,2.04,8.89.31.91-.44,3.47-.74,4.05.84l-5.99,1.53-23.52.14c.09,4.35.8,7.83-.51,10.85-1.1,2.53-4.67,2.59-6.7,2.41l-9.94-.89c-.53,1.34.54,2.46,1.27,2.44l3.69-.08c.68-.01,1.37-.7,1.93-.59.42.08.91.66,1.36.85-.14.53-.08,1.08-.05,1.63-.5-.08-.84.32-.76.79-1.47.16-3.77.36-5.12,1.49-1.09.91.15,2.41.22,3.21.25,2.97,1.04,1.14,2.35,3.5-1.86.77.43,3.19.9,4.22-.41,2.26-3.88,1.78-6.04,2.01,3.57,3.76,9.15,4.86,14.1,3.43,3.9-1.12,6.83-5.43,8.67-9.51,2.61-5.82,2.36-9.02,4.59-9.29-.75.21-.57.76-.55.96.17,1.6,2.58,2.94,2.78,4.43l1.1,8.03.7,33.06c.05,2.15,3.19,3.15,4.62,4.27l-2.56,2.86c-6.02-4.46-15.35-2.99-14.69,0,.17.76.67,1.08,1.47,1.36,1.49.52,2.58,2.94,4.2,3.11.3,6.52-.4,9.4-5.27,12.85l-5.11,1.3c-2.5.64-5.59,1.26-7.16,4.23-.79,1.5,2.5,1.98,4.14,2.17,1.03.12,2.28,2,3.51,2.29,4.38,1.03,6.53.29,6.98,1.32-1.08-.02-2.2.33-2.31,1.48-.07.79.5,1.79,1.76,2.4-.58.66-1.27.62-1.89.85-1.72-.33-3.38-1.53-5.53-1.05-.2,2.19.42,3.88.75,5.62-.24-.06-.53-.07-.84.17-2.95-6.69-8.68-11.11-15.57-14.51-1.55-.76-3.02-1.53-4.49-.61-.06-1.58-1.54-3.22-3.01-4.1-1.93,2.04-.68,4.43-.39,6.7.37,2.94.19,6.09,1.64,8.28l-1.24,9.91,2.71,17.07,1.65,18.91,3.81,24.86c.12.76-.13,1.46-.52,1.55-1.78.43-1.85-2.42-3.28-2.53-.95-.07-1.5.54-1.32,1.82l5,34.07,2.92,22.83c1.01,7.92,1.72,15.74,3.64,23.51l-4.27,9.43c1.19,8.68,2.57,17.09,1.79,25.75-.22,2.48-3.57,4.15-5.24,5.98,3.97,3.67,13.03,3.26,18.73.73.05.16.12.51-.04,1.05,4.89,2.44,10.34-.04,14.85.34,2.96.25,6.74,3.77,10.47,1.75l1.38-.72c4.52.36,9.1,1.02,12.58,3.28l-1.69,3.45-21.74.65-29.73-.17-18.54-.72c-1.59-.06-2.23.23-2.76,1.35-.44.93-.63,1.58-.47,2.51l-3.48,8.03c-.05.26-.09.64-.2.89l-2.23,5.29c-2.76-4.3-5.83,8.97-5.84,17.1-7-2.77-13.22-9.89-21.87-11.78l-.62-6.51c.94-6.43,2.96-12.08,6.63-17.52.09-.93-.41-2.81.71-3.38,6.32-2.1,10.81-10.16,12.67-8.07,2.37,4.56,6.59,8.12,11.58,10.91l-2.99-7.29c.92-1.74,1.92-2.75,3.21-3.93l4.87-.64c3.26.61,6.67.31,9.5-1.5l-12.08-100.81-5.31-54.74c1-1.17,1-3.24.28-5.26-5.95.15-11.52-.51-17.29-1.24-8.99.43-16.19,5.65-17.61,14.68,4.15,39.56,10.77,77.9,20.84,116.29,2.27,8.65,3.76,16.35,4.19,24.46-.62-.23-.61-.8-.73-.79h-2.03c-1.86-2.48-3.2-6.51-3.97-9.44l-1.92-7.3-1.02-2.27-5.37-19.53c1.07.17,1.24,1.38,1.72.44-.06.12-2.72-12.61-2.86-12.68-.36-.16-.91.43-1.38.54l-4.85-19.07-1.39-6.76-3.6-20.7-3.41-24.17-3.03,6.69c-.26.56-.93,1.67-1.04,2.55-2.35,19.03-7.55,34.1-7.52,53.29l.04,20.76c0,.55.85,1.24.69,1.56-2.22,4.56,5.02,1.04,11.88,3.12-.91,7.89-7.34,14.23-6.64,21.25l12.89-5.3c1.89,6.81,5.64,12.08,9.38,17.69,2.1,3.14,5.17,5.62,6.16,9.22l-2.26,2.13c-.84,1.58-1.21,3.17-2.38,4.44-5.81,6.31-9.05,14.54-9.58,23.27-8.94-6.85-16.87-14.75-24.31-23.8-1.26.91-.59,2.96,1.08,2.83.43,1.09.07,1.87-.74,2.96-1.79-2.2-2.91-5.2-5.61-6.02.54-.53,1.42-2.07.65-2.64l-2.21-1.65c-10.19-15.29-14.3-33.06-14.47-51.49l-.11-11.82c-1.68-45,.95-103.22,20.16-142.49,5.37-10.97,12.74-20.63,21.38-29.4l16.59-14.18,1.84-.71c2.07.74,4.39-.08,5.71,1.93-4,.47-2.27,12.71-1.05,21.14,1.98,13.67,7.77,26.41,14.98,38.86,2.04-6.16,3.66-11.61,8.18-15.22-6.77-7.48-13.94-14.43-17.25-23.71-2.14-6-1.87-12.37-2.65-18.01l.31-9.18c-3.64-.46-8.41.48-11.44,1.32l-1.97.54c-3.19-1.87-2.05-5.78-1.29-8.92l10.44-43.36c-.82-3.59-2.31-7.47-1.26-11.61,9.08-35.75,22.13-72.21,55.97-92.08,6.39-3.75,13.21-6.29,19.88-5.5ZM151.19,227.56c.27-.17.72-.55.18-1.21l-11.93-4.61c-.11.38.18.83.34,1.05,3.26,2.2,7.61,3.6,11.41,4.77ZM173.4,307.43c-1.2-3.19-2.09-4.69-4.57-6.44-1.13,2.93-.44,5.67.84,8.69,1.16.63,4.25-.88,3.73-2.25ZM121.16,335.68c-1.9-5.02-4.06-10.01-6.4-9.26s-4.1,7.25-4.77,12.57l11.16-3.31ZM140.48,337.02l-8.74-.38-.02,1.18,8.45.93c.4.04,1.06-.95.3-1.73Z"/>
    <path class="cls-8" d="M272.63,346.51c-.49,2.08-2.58,5.44-5.27,5.5l-14.08.3c-.16-.99-.8-1-1.66-.91h-28.37c-.83,0-1.15,1.62-.83,2.07.48.68,1.57.53,2.49.56l21.68.62,14.99.02c13.68.02,37.51,1.67,38.17,14.16l.63,12.06c2.89,55.22-11.81,156.99-25.01,211.31-3.62,14.89-5.98,29.58-12.15,43.81-1.22,2.8-3.37,5.81-.44,9.05l5.81-17.67,8.21-30.77c1.27.08,1.15.99.43,1.56-.38.3,1.65.55,1.86.15l-4.52,16.58c-1.75,6.41-5.41,14.92-2.44,18.76l1.76-3-2.43,8.54-1.96,1.77c-.34.31.05,1.04.53,1.55-.97.75-3.3,1.45-4.03,2.88l-5.44,14.76-10.28,27.28c-.21.56,2.07.96,2.08,1.58l.29,2.09c-2.65,7.42-8.71,13.88-16.86,13.89-2.56,0-5.23.06-7.68-.68-.4-.12-.96-.14-1.39-.03l-8.58-12.55c-9.1-14.79-17.46-29.38-24.44-45.26l-6.84-15.57c.23.16.66,1.23,1.73.77l-12.62-31.49-2.58-8.74c2.34.26,4.46.93,6.61,1.32.32,1.41,1.66,1.61,3,1.99,10.97,3.15,28.55,2.42,32.67-4.63,2.7-4.61-3.15-11.96,4.29-16.81l-.24-27.13c0-1.11-.74-2.55-.19-3.38,2.17-3.23,12.17-2.01,11.13-14.25-.24-2.79.11-5.99-3.54-7.2.3-1.48.44-2.66.23-3.5l13.18-10.44,10.18-9.56c2.92-2.75,5.97-5.1,8.5-8.29.08-.69-.82-1.12-1.16-.82l-6.76-6.34c-.6-.56-1.8-.21-2.32-.13l-2.48-4.16c-.72-1.2-.97-2.6-2.19-3.84l-23.14-23.59c-2.2-2.24-4.67-2.88-7.9-4.17-.1,1.94,1.78,2.07,2.42,2.9l-3.04,2.7c-.13-1.35.58-2.21.86-2.96-1.74-1.99-2.04-4.78-2.47-7.32l-7.38-43.31-6.49-43.14c2.44-.87,4.08-1.88,6.07-3.33l-1.84-2.1c11.06,5.86,13.77-3.01,19.65-3.12l15.57-.3,36.01-.05Z"/>
    <path class="cls-9" d="M324.98,683.27c1.06-1.93,1.13-2.88.78-4.81l-3.15-17.36-7.19-43.33-9.48-51.47-11.73,36.54c-1.53,4.77-4.75,9.03-4.88,13.54-.08,2.66-1.25,5.09-1.11,8.05.75,15.18,2.83,29.85,5.13,44.58-.55.86-1.69.95-2.11.89-.61-.09-1.1-.58-.76-1.55l-6.9-33.12-11.72,31.84c-3.77,10.25-7.85,20.08-14.15,29.12l-5.91,2.91c-.19.01-.73-.05-.93.1.52-.59.69-2.16,1.03-2.99,5.42-5.84,8.5-12.73,11.37-20.23l10.79-28.23,3.5-13.96c1.26-5.03,3.48-6.37,4.02-8.96.13-.6,1.29-1.03,1.97-.31.44.46.5,1.26.67,2.39,1.93-.99,2.66-4.33,1.75-6.23-1.97-4.1-.68-6.57.47-10.56l14.29-49.47c8-9.97,16.14-18.89,21.71-30.39-7.69,7.73-12.49,16.55-21.49,23.8l7.46-45.29,7.82-16.31c4.34-9.06,4.84-34.95,5.54-48.61l1.1-21.71c-.5-10.23-1.28-20.03-1-30.21.05-1.84-1.53-3.64-2.32-5.59,2.76-5.41,2.14-10.8,2.91-16.65.43-3.26,1.43-7.16-.97-9.73-3.17-3.41-7.72-6.16-9.8-10.38-1.57-3.19-1.11-6.78-5.69-7.56l-2.05-10.55c-.53-2.7-.76-4.94-3.33-6.82.65,4.08-1.51,5.15-3.81,7.23-2.45,2.22-2.36,7.39-1.93,10.2l-13.35-3.83c-2.1-.59-4.44.43-6.84.39l-54.11-.78c.37-.08.42-.56.74-.46.59.19,1.94-.45,1.38-1.92,6.75-1.42,13.75-3.27,19.36-7.67,8.11-6.36,14.25-14.1,19.63-22.9,6.08-9.93,8.49-21.12,10.43-32.62.27-1.63.17-3.6,2.26-4.31,1.88,7.8,1.6,15.53.61,23.54l-3.25,26.42c1.93.08,3.19-2.08,3.55-3.74,3.45-15.89,4.19-31.94,3.66-48.53-.04-1.23,3.38-1.44,4.53-1.97-3.75-2.86-9.36-3.32-13.87-2.73l-2.61,24.51c-3.1,11.6-10.98,21.08-19.67,29.21-6.36,5.95-13.6,9.73-21.67,11.42-1.16-3.64.73-7.02,2.73-10.39-.71-1.89-3.57-2.31-5.72-3.17.74-2.23-.22.35-.63.43s-1.14-.8-1.36-1.19l.93-1.92c-.74.02-1.52-.09-1.91-.28-.42-.2-.71-.66-.76-1.4l3.47,1.45c3.96-.63,6.64-4.5,8.98-7.54.38-.5,2.23-.64,1.63-1.83-.27-.53-.76-1.15-.82-2.15-.1-1.64,1.08-1.77,1.97-1.28l2.46,1.36c1.38.77,1.95,2.26,3.59,1.42.96-.49,2.4-1.35,2.54-3.18l2.97-38.22c.31-3.98-3.7-7.86-2.86-11.87-3.46,1.27-4.64,3.28-6.99,5.16-1.34-2.16-1.44-4.82-.1-6.68.79-1.1,1.73-2.95.57-4.29-.64-.74-1.99-1.22-2.93-1.92-1.22-.91-3.98-3.75-5.41-.81-5.21.4-10.19,3.26-13.64,7.91.14,7.23,1.08,15.1,2.95,22.59l4.79,19.1c-1.2,5.94-7,9.35-13,9.46-.08.74-.96.56-1.17.3-.99.58-1.51-.53-2.08-.65.2-.43-.14-1.62-.93-1.4-.95.25-1.35.45-2.12-.24-.35-.32-.61-1.06.42-1.13,1.92,1.84,4.43.82,6.73.23,2.06-.53,6.37-1.93,7.46-4.09.06-3.25-4.84-5.18-6.86-4.06l-1.4.77c-1.7-16.28-2.97-32.4-3.55-49.28h-4.66c-2.25.01-4.57-.85-6.6.65.2-1.4-.24-2.2-.6-2.42-.32-.2-.85.04-1.32.21-.02-.21-.2-.75.55-.96-.38-.22-.16-.77-1.68-.93-.06.23-.95,1.24-1.65,1.08-.3-.07-.46-.08-.84-.41.56-.15,1.13-.67,1.13-1.27l6.9.03,8.07.7,23.33-1.89c2.43,2.19,6.09.62,8.93.57,5.39-.1,9.81-1.19,14.4-3.59l14.81-7.72c2.14-1.12,4.65-1.9,4.78-5-6.83,4.76-13.94,8.71-22.12,11.48-.76-.65-1.24-1.41-1.65-1.51l-1.25-5.29c-.73-3.24-1.54-5.95-1.02-9.61-4.33,1.61-8.44,2.91-12.58,2.27-1.12-2.72,3.57-2.37,6.26-5.39,1.11-1.25-13.01-44.17-17.78-55.19l-11.87-27.38-4.94-4.79c2.07-2.32,2.13-5.06,2.7-7.08.85-3.02-4.37-2.98-1.74-11.71,6.83.45,13.85,3.38,19.64,8.03l10.61,8.54c22.31,22.46,33.83,51.48,41.24,82l-2.47,13.96,11.56,41.58c1.84,6.62-1.26,5.95-1.56,7.45-.14.73.28,1.74,1.21,2.22,5.56,2.84,9.58,6.63,14.48,10.55,14.56,11.63,26.24,25.65,33.75,42.81,5.34,12.22,9.99,25.09,11.76,38.8,4.49,34.66,6.72,68.86,6.06,103.93-.41,22-9.85,42.02-22.35,59.4l3.55,17.66c3.36,8.4,4.4,16.33,5.82,25.29,3.63,22.89,8.42,45,10.37,68.25,2.12,25.35-6.41,34.96-23.91,50.63ZM227.13,235.53c-2.1-1.19-3.38-.83-4.43-.18,1.84,1.4,3.13,1.84,4.43.18Z"/>
    <path class="cls-6" d="M84.75,524.79c6.59,8.09,13.43,15.96,20.9,23.18,2.79,2.7,4.92,6.59,8.96,8.16,0,.78,1.22.81,1.34,1.42.19.93.26,1.91,0,2.77-6.2,20.45-10.37,40.66-15.26,61.42l-9.83,41.71-3.44,11.71c-5.2-2.78-9.3-7.58-13.42-12.08l-11.28-12.32-4.96-18.05c-.58-9.13.39-17.77,2.18-26.67l7.69-38.29,11.52-48.97c2.7.82,3.81,3.82,5.61,6.02Z"/>
    <path class="cls-3" d="M324.98,683.27c-.39-.86-1.83-.68-2.1-.39l-.85.93c-3.87,4.24-10.46,4.92-15.66,7.8-3.48,1.93-6.72,2.26-10.32,3.16l-12.03,3.02c-8.48,2.13-16.87,3.18-25.76,3.34l-5.94.63c-.49-.91-.75-1.64-.51-2.68l5.91-2.91c6.3-9.04,10.37-18.87,14.15-29.12l11.72-31.84,6.9,33.12c-.34.96.16,1.45.76,1.55.42.06,1.56-.02,2.11-.89-2.3-14.73-4.38-29.4-5.13-44.58-.15-2.96,1.03-5.39,1.11-8.05.13-4.51,3.35-8.77,4.88-13.54l11.73-36.54,9.48,51.47,7.19,43.33,3.15,17.36c.35,1.93.28,2.88-.78,4.81ZM290.63,675.93c.03.76.7,1.16,1.57.91l.95,8.3c.12,1.03.12,1.52.73,2.12s1.73.53,2.23-.46c.45-.88-1.25-4.75-1.7-9.3-.43-.03-.46-.49-.35-.72l-.04-1.66c-.02-1.11-1.24-.91-2.07-.88-1.11.04-1.6.53-1.33,1.7Z"/>
    <path class="cls-2" d="M250.87,699.19l-5.18,4.03,6.63-1.45,5.94-.63c8.89-.16,17.29-1.21,25.76-3.34l12.03-3.02c3.6-.9,6.84-1.23,10.32-3.16,5.19-2.87,11.78-3.55,15.66-7.8-2.74,6.21-15.76,8.98-24.2,12.62-11.82,5.1-28.72,7.55-41.77,8.16l-10.48.49c-3.28.15-7.04,1.99-9.78-.08,8.15,0,14.21-6.47,16.86-13.89l3.95-11.06c4.53-12.7,9.87-24.95,13.43-37.53-.49-.51-.87-1.25-.53-1.55l1.96-1.77,2.43-8.54c3.28-5.59,3.84-12.25,5.87-18.84,4.82-15.6,8.5-30.97,11.79-46.5v-2.51s1.1-4.99,1.1-4.99c1.51-6.5,4.11-12.95,3.06-19.27.71.01,1.32-.47,1.45-1.27l8.02-51.85.68-7.5c3.2-20.78,5.54-41.73,6.71-63.2l.37-29.31c4.44-9.7,2.97-20.73-2.36-29.75-3.16-6.31-9-10.66-15.68-11.06.95-.98.17-1.38,0-2.56-.42-2.81-.52-7.98,1.93-10.2,2.3-2.08,4.46-3.15,3.81-7.23,2.57,1.88,2.8,4.11,3.33,6.82l2.05,10.55c4.59.78,4.12,4.38,5.69,7.56,2.08,4.22,6.63,6.97,9.8,10.38,2.39,2.57,1.4,6.47.97,9.73-.78,5.85-.16,11.24-2.91,16.65.78,1.95,2.37,3.76,2.32,5.59-.28,10.18.5,19.98,1,30.21l-1.1,21.71c-.69,13.66-1.19,39.56-5.54,48.61l-7.82,16.31-7.46,45.29c9-7.26,13.8-16.07,21.49-23.8-5.57,11.5-13.71,20.42-21.71,30.39l-14.29,49.47c-1.15,4-2.44,6.47-.47,10.56.91,1.9.18,5.24-1.75,6.23-.17-1.13-.24-1.93-.67-2.39-.68-.72-1.84-.29-1.97.31-.55,2.59-2.76,3.93-4.02,8.96l-3.5,13.96-10.79,28.23c-2.87,7.5-5.95,14.39-11.37,20.23-.34.83-.51,2.4-1.03,2.99Z"/>
    <path class="cls-8" d="M134.25,560.23v5.66c-2.36.49-4.09-.41-5.86-1.41l-11.89-6.7c5.98,6.66,13.82,9.46,20.94,13.42-1.82,4.01-2.52,8.47-3.4,13.14l-5.99,31.66-13.82,71.75c-.31-.08-.76-.17-1.13-.07-.25.07-.51.42-.45.87-3.57-1.69-6.77-3.56-10.53-5.57l-14.68-7.84,3.44-11.71,9.83-41.71c4.89-20.76,9.06-40.97,15.26-61.42.26-.86.19-1.85,0-2.77-.12-.61-1.34-.64-1.34-1.42-1.49-2.53-1.97-4.96-2.23-7.67,8.66,1.89,14.88,9,21.87,11.78Z"/>
    <path class="cls-3" d="M205.22,102.18c-2.64,8.73,2.59,8.68,1.74,11.71-.57,2.02-.63,4.75-2.7,7.08l4.94,4.79,11.87,27.38c4.78,11.02,18.9,53.95,17.78,55.19-2.7,3.02-7.38,2.67-6.26,5.39,4.14.64,8.25-.66,12.58-2.27-.52,3.66.29,6.37,1.02,9.61l1.25,5.29c.72,3.11-5.83,4.1-12.03,4.88l-7.12.89-23.33,1.89-8.07-.7c.78-2.5,5.55-.5,8.6-4.24,2.55-3.12-.94-8.23,1.11-10.87l5.99-1.53c-.58-1.59-3.15-1.28-4.05-.84-3.58,1.73-5.86.06-8.89-.31-7.27-.89-27.5.25-23.64-3.03,6.35-5.39,14.53-9.84,22.41-11.34,7.68,1.9,22.29,7.33,22.86,3.21.07-.52-.18-1.11-.36-1.94l-2.75-12.49c-4.47-20.25-9.76-40.09-18.54-58.47l.52-23.87c.05-2.52.51-4.84,1.41-6.99l1.83-.07c.86-.03,1.86,1.16,1.86,1.66Z"/>
    <path class="cls-2" d="M114.22,687.76l26.96,7.09c1.18.31,2.05-.46,2.98-.7,3.84,1.34,8.44,2.68,12.4.99-.29.61-.34,1.37-.2,2.04.17.82.99,1.77,2.22,2l13.98,2.7,21.26,2.34c8.99.99,18.43.72,27.03-1.47,2.15-.55,4.03.43,5.89,1.54.43-.11.99-.08,1.39.03.13.23.4.97.16,1.1-.26.14-1.14.39-1.66.41l-21.57.7-34.36-2.84c-6.07-.5-11.35-2.54-16.91-4.89-8.45-3.58-28.07-4.08-41.15-10.26-.05-.45.2-.8.45-.87.37-.1.82-.01,1.13.07Z"/>
    <path class="cls-2" d="M130.89,269.36l-2.21-3.05c-1.32-2.01-3.64-1.19-5.71-1.93l-4.42-1.59c.71-.31,1.06-.66,1.22-1.28,3.04-.84,7.81-1.78,11.44-1.32l-.31,9.18Z"/>
    <path class="cls-8" d="M140.54,354.96l5.31,54.74,12.08,100.81c-2.83,1.81-6.24,2.11-9.5,1.5l-4.87.64c-4.13.55-6.17-4.99-6.89-8.89l-.79-4.32c-5.44-19.4-10.51-38.28-14.28-58.14-2.54-13.35-5.54-25.61-6.97-39.11-1.38-13-4.67-25.89-3.5-39.01.7-7.92,18.22-11.23,29.41-8.24Z"/>
    <path class="cls-8" d="M166.85,353.7c.25.73.27,1.68-.59,1.83-.35.06-.91-.06-1.43-.6-.83-.87-2.11-.44-2.39.24-.42,1.01,1.98,10.47,2.76,18.47.11,1.11.7,2.73,1.09,3.84.27.77,2.69.53,3.83.68,1.73,19.26,4.45,38.02,7.34,57.25l6.25,41.49c.85,5.63,3.54,10.58,4.28,16.29s3.34,11.06,3.18,17.33c-2.79,2.53-6.38,4.27-9.49,5.65-5.71,2.53-14.76,2.94-18.73-.73,1.67-1.83,5.02-3.5,5.24-5.98.78-8.66-.6-17.07-1.79-25.75l4.27-9.43c-1.92-7.77-2.62-15.59-3.64-23.51l-2.92-22.83-5-34.07c-.19-1.28.37-1.9,1.32-1.82,1.43.11,1.5,2.96,3.28,2.53.39-.09.64-.79.52-1.55l-3.81-24.86-1.65-18.91-2.71-17.07,1.24-9.91c.45,0,1.84-.26,2.2.12.66.69.31,2.21.41,3.19,1.05,10.07,4.46,18.94,6.94,28.13ZM176.85,472.04l-5.33-32.13c-.14-.83-1.53-1.07-1.76-.68-.16.27-.53,1.22-.48,1.57l5.71,43.72,2.4,20.86c.38,3.31.56,6.39,3.47,8.57.39-14.25-1.78-28.54-4-41.91Z"/>
    <path class="cls-9" d="M199.4,405.84l1.71,10.4,7.93,39.28c2.07-.59,2.53-2.41,3.61-3.37l3.04-2.7,1.92,2.51c-1.26,3.18-.97,6.52-.7,9.79l1.3,14.69c-1.45-.09-1.66-1.21-2.37-1.53.24-4.36-.28-8.34-2.09-12.06-4.57,3.76-4.47,8.73-3.44,13.42.76,3.46,2.48,6.75,4.52,10.45-1.63,2.48-2.98,4.75-1.99,8.06,1.26,4.17.49,9.04.78,13.51,2.3.25,3.84-.86,5.69-2.05,1.28,4.37,3.48,7.41,7.15,8.26-.54,1.35.63,2.27.9,3.38.2.85.07,2.02-.23,3.5,3.65,1.2,3.3,4.41,3.54,7.2,1.04,12.24-8.97,11.02-11.13,14.25-.55.82.18,2.26.19,3.38l.24,27.13c-7.45,4.85-1.59,12.2-4.29,16.81-4.12,7.05-21.7,7.78-32.67,4.63-1.34-.38-2.68-.58-3-1.99l5.57,1.01c2.59.47,5.1.83,7.78.81s5.74.69,8.45-.8c2.19-1.2,3.86-2.82,4.16-4.87.37-2.54-.97-4.86-3.47-6.43-2.71-1.71-6.9-1.49-9.89-1.08-1.37-.38-2.63-.44-3.87-.14l-.45-.79,6.9-.65c3.76-.35,6.96-2.28,9.95-4.64l-1.68,2.08c2.56,1.57,3.9,3.88,8.01,5.39-.38-4.69.87-8.31,1.59-12.4,1.91-10.83.68-21.52,1.3-32.41.83-1.02-1.13-1.28-1.4-1.83,2.86.43,7.98.77,10.3-1.44,2.92-2.77,2.72-7.66,3.11-11.3-2.41-.64-3.91-.43-5.47-1.45-3.48-2.26-8.05-2.92-12.58-3.28l-1.38.72c-.86-1.19-1.46-2.13-.75-3.18.89-1.31,3.29-1.29,3.41-.35-.36,1.2.33,1.24.81,1.29,2.53.26.67-3.52,1.81-8.38-3.69-5.2-5.61-11.71-6.6-18.32l-2.73-18.3c-.35-2.38,3.21-5.52,3.05-8.24-2.05-.23-2.53,1.37-3.2,1.55-.94.25-2.11-1.17-2.07-2.48l-9.14-53.92v-3.07s7.84-.07,7.84-.07Z"/>
    <path class="cls-3" d="M159.08,311.39c.06,1.49.19,2.56,1.3,4.08l1,1.36-.6,1.29c4.31,10.89,7.54,21.83,10.93,33.28l2.72,9.18,15.34,91.7,9.7,59.7c-.31,1.13-2.74,3.09-2.06,4.22-.51-.14-.89.33-.91,1.37-4.52-.39-9.96,2.1-14.85-.34.16-.55.09-.89.04-1.05,3.11-1.38,6.7-3.11,9.49-5.65.16-6.26-2.43-11.57-3.18-17.33s-3.43-10.66-4.28-16.29l-6.25-41.49c-2.9-19.23-5.61-37.99-7.34-57.25-1.14-.15-3.56.09-3.83-.68-.39-1.11-.99-2.73-1.09-3.84,1.96-.07.93,3.42,5.13,3.31-.49-7.84-1.47-15.79-3.47-23.25-2.47-9.19-5.88-18.06-6.94-28.13-.1-.98.25-2.49-.41-3.19-.36-.37-1.75-.11-2.2-.12-1.45-2.19-1.27-5.33-1.64-8.28-.28-2.27-1.54-4.66.39-6.7,1.47.88,2.95,2.52,3.01,4.1Z"/>
    <path class="cls-9" d="M179.14,326.51c.31-.24.6-.22.84-.17l6.86,1.6c-.03.2-.24,1.26-.17,2.07,9.21,3.8,18.94,5.16,29.03,4.99.75-.01,1.64.53,1.7.98.04.28-.6.65-.77,1.22.83-.47,2.04.05.88,1.21l-32.3-1.55c-3.27-.16-6.5-1.93-9.92.7-1.83-2.28-2.59-3.88-4.61-5.1,6.6,11.17,8.61,25.34,10.92,37.47,4.34,22.82,8.46,45.21,11.45,68.27l7.61,43.01,5.2,29.93c.23,1.34,0,3.01-.78,3.77-.98.97-5.92,2.75-7.67,1.28-.68-1.12,1.75-3.08,2.06-4.22l-9.7-59.7-15.34-91.7-2.72-9.18c-3.39-11.44-6.62-22.39-10.93-33.28.62-.43,1.33-.88,1.76-.44l1.58,1.66c1.27,1.33,2.02,5.37,4.63,5.92,3.19.66,7.36-.14,10.38,1.25Z"/>
    <path class="cls-8" d="M198.41,201.13c.03-.79.59-1.27.6-2.17.11-22.84-.86-45.42.61-67.52,8.78,18.38,14.07,38.22,18.54,58.47l2.75,12.49c.18.83.44,1.42.36,1.94-.57,4.11-15.18-1.31-22.86-3.21Z"/>
    <path class="cls-3" d="M140.54,354.96c-11.2-2.99-28.71.32-29.41,8.24-1.17,13.13,2.12,26.01,3.5,39.01,1.43,13.5,4.43,25.76,6.97,39.11,3.78,19.85,8.84,38.73,14.28,58.14l.79,4.32c-1.51.59-2.13,1.87-2.9,3.44-.69-2.11-1.68-2.4-2.83-3.33-.42-8.11-1.92-15.8-4.19-24.46-10.07-38.39-16.69-76.73-20.84-116.29,1.42-9.04,8.62-14.26,17.61-14.68,5.77.73,11.35,1.39,17.29,1.24.72,2.03.72,4.09-.28,5.26Z"/>
    <path class="cls-1" d="M185.22,336.86c-.75,3.53,3.67,4.95-.2,6.07-1.18-1.26-3.15-1.09-4.74-.84-.4.06-1.03.17-1.24.58-.36.71.58,1.12.6,1.48l.24,3.96c3.42,9.4,4.66,18.72,6.21,28.09l4.85,29.42c.16.98-.85,2.92.62,3.35l9.14,53.92c-.04,1.31,1.12,2.73,2.07,2.48.68-.18,1.15-1.78,3.2-1.55.16,2.72-3.4,5.86-3.05,8.24l2.73,18.3c.99,6.61,2.92,13.11,6.6,18.32-1.14,4.86.72,8.63-1.81,8.38-.48-.05-1.18-.09-.81-1.29-.11-.94-2.52-.96-3.41.35-.71,1.05-.12,1.99.75,3.18-3.72,2.03-7.5-1.49-10.47-1.75.01-1.04.4-1.51.91-1.37,1.76,1.47,6.7-.31,7.67-1.28.77-.76,1.01-2.43.78-3.77l-5.2-29.93-7.61-43.01c-2.99-23.06-7.11-45.45-11.45-68.27-2.31-12.13-4.32-26.3-10.92-37.47,2.02,1.21,2.77,2.81,4.61,5.1,3.43-2.63,6.65-.86,9.92-.7Z"/>
    <path class="cls-2" d="M201.56,535.05c3.88.12,7.52.42,11.41,1,.27.55,2.23.81,1.4,1.83-.62,10.89.61,21.58-1.3,32.41-.72,4.1-1.97,7.71-1.59,12.4-4.11-1.51-5.45-3.82-8.01-5.39l1.68-2.08c1.45-1.14,3-1.98,4.37-4.46l-4.55-1.56c1.62-2.42,3.74-4.23,3.44-7.41-.94-1.22-2.71-1.2-3.73-2.09,1.35-2.38,6.08-5.04,3.82-9.18-.75-1.38-2.65-1.54-4.44-1.42,1.29-1.72,4.42-3.48,3.85-6.05-.81-3.63-5.19-4.54-8.08-4.69-16.77-.85-33.56-2.08-50.76-5.01-5.77,3.25-5.93,10.06-7.01,15.77-.66,3.48-.88,6.15-.35,9.5l.69,4.35c-.12.05-1.01.68-1.17.41l-1.39-2.47-1.09-8.31,1.34-9.48,2.23-5.29c.59,1.34,1.17.32,1.52.04.57-.46.26-1.82-.02-1.63l-1.31.7,3.48-8.03c2.14-.31,5.25,1.01,7.11,2.34,2.19,1.56,3.29-.1,4.43.01l34.74,3.48,9.29.29Z"/>
    <path class="cls-9" d="M107.13,427.02c-.77.86-1.23,1.34-1.25,2.2s.67,1.7,1.77,2.3c.63,12.96,1.28,34.25,7.74,42.78,4.37,5.78,3.71,11.84,6.91,12.05l1.92,7.3c-.86.69-1.23.76-1.82.55-1.33-.45-2.09-1.51-1.52-2.96-.37-.41-1.43.02-1.4.38.04.48.41.97.46,1.63l-7.95-9.02-7.84,1.94c-.23-.8-.43-2.61.15-3.12l6.58-5.64c-1.58-4.89-4.85-8.91-10-9.68,1.52-1.99,2.8-2.78,3.4-3.79,1.04-1.76-.65-4.33-.79-5.91l-1.07-12.03-.57-25.51c-.03-1.52-.7-2.35-1.53-2.43l.82-19.16c.19-4.44-.39-7.99-4.06-10.07l3.03-6.69,3.41,24.17,3.6,20.7Z"/>
    <path class="cls-3" d="M119.93,493.25c3.38,3.84,6.13,8.25,8.62,12.66-.67,3.03-3.73,5.26-5.63,7.05-.99-3.59-4.06-6.07-6.16-9.22-3.74-5.61-7.49-10.88-9.38-17.69l-12.89,5.3c-.7-7.02,5.73-13.36,6.64-21.25-6.86-2.08-14.1,1.44-11.88-3.12,7.85-2.37,5.08-13.22,13.16-20.99l1.07,12.03c.14,1.58,1.83,4.15.79,5.91-.6,1.01-1.89,1.8-3.4,3.79,5.15.77,8.42,4.79,10,9.68l-6.58,5.64c-.59.5-.38,2.32-.15,3.12l7.84-1.94,7.95,9.02Z"/>
    <path class="cls-8" d="M219.24,525.31c-5.01,9.67-10.2,6.57-17.67,9.73l-9.29-.29-34.74-3.48c-1.15-.11-2.25,1.55-4.43-.01-1.86-1.33-4.97-2.65-7.11-2.34-.16-.93.02-1.58.47-2.51.53-1.12,1.17-1.41,2.76-1.35l18.54.72,29.73.17,21.74-.65Z"/>
    <path class="cls-3" d="M128.68,266.31l2.21,3.05c.78,5.65.51,12.01,2.65,18.01,3.31,9.28,10.48,16.23,17.25,23.71-4.51,3.62-6.13,9.07-8.18,15.22-7.21-12.45-13-25.19-14.98-38.86-1.22-8.42-2.95-20.67,1.05-21.14Z"/>
    <path class="cls-8" d="M102.42,446c-8.08,7.77-5.31,18.62-13.16,20.99.16-.32-.69-1.01-.69-1.56l-.04-20.76,6.32-.23.42-23.89,5.07-2.49c.82.08,1.49.91,1.53,2.43l.57,25.51Z"/>
    <path class="cls-3" d="M100.33,418.06l-5.07,2.49-.42,23.89-6.32.23c-.03-19.19,5.16-34.26,7.52-53.29.11-.88.79-1.99,1.04-2.55,3.67,2.08,4.25,5.63,4.06,10.07l-.82,19.16Z"/>
    <path class="cls-8" d="M206.59,218.18c-2.05,2.64,1.44,7.74-1.11,10.87-3.05,3.74-7.82,1.74-8.6,4.24l-6.9-.03-14.15-.86.02-.8c2.02.18,5.6.12,6.7-2.41,1.32-3.03.6-6.51.51-10.85l23.52-.14Z"/>
    <path class="cls-8" d="M201,237.32c1.58,13.19,2.3,26.31,3.21,40.05.16,2.44,1.97,4.86.18,6.71l-2.7,1.46c-1.43-1.11-4.57-2.12-4.62-4.27l-.7-33.06-1.1-8.03c-.2-1.49-2.62-2.83-2.78-4.43.47-.17.99-.41,1.32-.21.35.21.8,1.02.6,2.42,2.03-1.5,4.34-.64,6.6-.64Z"/>
    <path class="cls-8" d="M198.88,316.47l16.37,1.12c-.53,1.63-1.41,2.13-2.12,2.9.54,2.01.2,3.5-.76,4.77l-21.55-.6c-1.56-.62-4.11-2.52-6.06-2.9.62-.23,1.31-.19,1.89-.85-1.26-.61-1.83-1.61-1.76-2.4.1-1.16,1.23-1.5,2.31-1.48,5.99-1.15,11.65,2.08,11.68-.56Z"/>
    <path class="cls-2" d="M113.37,452.86l2.52,11.71,5.37,19.53,1.02,2.27c-3.2-.2-2.53-6.27-6.91-12.05-6.46-8.54-7.11-29.82-7.74-42.78-1.09-.6-1.78-1.42-1.77-2.3s.48-1.35,1.25-2.2l1.39,6.76,4.85,19.07Z"/>
    <path class="cls-7" d="M195.85,306.65c3.05-.24,6.15-.05,9.27.19,2.87.22,6.01,1.15,9.05.6l4.81.73c.05.73.34,1.19.76,1.4.39.19,1.16.3,1.91.28l-.93,1.92c-6.39-1.77-14.28-2.58-21.52-2.21l-22.48,1.15c.33,1.43,1.47,1.6,2.34,1.66l1.45,1.27-.28,2.07c-1.24-.29-2.48-2.17-3.51-2.29-1.64-.19-4.93-.67-4.14-2.17,1.56-2.97,4.65-3.59,7.16-4.23l5.11-1.3c3.04-.77,6.12,1.32,11.01.93Z"/>
    <path class="cls-8" d="M108.71,542.81c-.11,1.86.78,3.88-.12,6.26-1.41-.12-1.98-1.1-2.94-1.09-7.48-7.22-14.31-15.1-20.9-23.18.8-1.08,1.16-1.87.74-2.96-1.67.14-2.34-1.92-1.08-2.83,7.44,9.05,15.37,16.95,24.31,23.8Z"/>
    <path class="cls-8" d="M201.25,296.73c-2.66.5-3.48,1.58-3.17,4.39.26,2.38,2.54,3.07,5.24,2.8.5-.05,1.59.15,1.55-.4l-.11-1.37c.72,0,1.35.3,1.54.9.09.31.23,1.01.57,1.3.57.48,2.78.61,2.95.05l.87-1.74c1.15,1.38,3.62,2.53,3.49,4.79-3.03.54-6.18-.38-9.05-.6.09-.94.7-.91,1.48-1.75-6.05-.28-10.79-2.08-10.75,1.56-4.89.39-7.97-1.71-11.01-.93,4.88-3.45,5.57-6.33,5.27-12.85,4,.43,7.34,2.46,11.14,3.85Z"/>
    <path class="cls-3" d="M184.76,321.77c1.95.38,4.5,2.28,6.06,2.9l21.55.6c-.25.48-.1.58.13.76.3.24.93.7,1.91.16.55.65.53,1.34.52,2.15-5.5,1.15-22.56.89-28.1-.4l-6.86-1.6c-.33-1.74-.95-3.43-.75-5.62,2.15-.48,3.81.72,5.53,1.05Z"/>
    <path class="cls-4" d="M140.1,543.13l-1.34,9.48c-.81,5.77,1.05,11.12.57,17.53-.01-.77-.86-.76-1.21-.46s-.46,1.04-.69,1.54c-7.11-3.96-14.96-6.76-20.94-13.42l11.89,6.7c1.78,1,3.5,1.9,5.85,1.41v-5.66c.03-8.13,3.1-21.4,5.86-17.1ZM136.67,569.55c-.58-1.92-2.06-3.18-4.18-2.34l4.18,2.34Z"/>
    <path class="cls-3" d="M212.97,536.05c-3.89-.58-7.53-.88-11.41-1,7.47-3.17,12.66-.07,17.67-9.73l1.69-3.45c1.56,1.01,3.06.81,5.47,1.45-.39,3.64-.19,8.53-3.11,11.3-2.33,2.21-7.45,1.87-10.3,1.44Z"/>
    <path class="cls-3" d="M188.44,244.08c-1.83,4.08-4.77,8.39-8.67,9.51-4.95,1.43-10.53.33-14.1-3.43,2.16-.23,5.63.26,6.04-2.01-.47-1.03-2.76-3.45-.9-4.22.49.03,1.05.1,1.41.31,3.69,2.16,7.89,1.97,11.21-1.05,1.62,1.12,3.36,2.12,5.01.88Z"/>
    <path class="cls-5" d="M179.14,326.51c-3.03-1.39-7.19-.59-10.38-1.25-2.62-.55-3.36-4.59-4.63-5.92l-1.58-1.66c-.42-.44-1.13,0-1.76.44l.6-1.29-1-1.36c-1.12-1.52-1.25-2.59-1.3-4.08,1.47-.93,2.94-.16,4.49.61,6.89,3.39,12.62,7.82,15.57,14.51Z"/>
    <path class="cls-3" d="M119.1,521.05c-1.12.57-.61,2.45-.71,3.38-3.68,5.44-5.69,11.09-6.63,17.52l.62,6.51c.26,2.72.74,5.15,2.23,7.67-4.04-1.57-6.16-5.46-8.96-8.16.96,0,1.53.98,2.94,1.09.91-2.38.01-4.39.12-6.26.53-8.73,3.77-16.96,9.58-23.27.22.56.73.94.8,1.51Z"/>
    <path class="cls-2" d="M124.21,493.65c.77,2.93,2.11,6.96,3.97,9.45h2.03c.12-.01.11.55.73.78,1.15.93,2.14,1.22,2.83,3.33.77-1.57,1.39-2.85,2.9-3.44.72,3.9,2.76,9.43,6.89,8.89-1.29,1.18-2.29,2.2-3.21,3.93l-7.89-6.41-3.9-4.28c-2.5-4.41-5.24-8.82-8.62-12.66-.05-.66-.41-1.15-.46-1.63-.03-.36,1.03-.79,1.4-.38-.57,1.45.19,2.51,1.52,2.96.59.2.96.14,1.82-.55Z"/>
    <path class="cls-3" d="M121.16,335.68l-11.16,3.31c.67-5.31,2.47-11.83,4.77-12.57s4.5,4.24,6.4,9.26Z"/>
    <path class="cls-9" d="M193.03,234.79c-2.22.27-1.97,3.47-4.59,9.29-1.65,1.23-3.39.24-5.01-.88.15-.45-.43-.58-.88-.99l-1.63-1.48c-.3-1.16-1.72-1.51-2.05-3.67l7.04-2,2.73-.49c.08.09.18.07.23-.04.38.33.54.34.84.41.69.16,1.59-.85,1.65-1.08,1.51.16,1.29.71,1.68.93Z"/>
    <path class="cls-9" d="M132.46,510.19c-.56.86.48,2.07-.7,2.79-1.86-2.08-6.35,5.97-12.67,8.07-.08-.57-.58-.95-.8-1.51,1.18-1.28,1.54-2.86,2.38-4.44l2.26-2.13c1.9-1.79,4.96-4.02,5.63-7.05l3.9,4.28Z"/>
    <path class="cls-9" d="M198.88,316.47c-.04,2.64-5.69-.59-11.68.56-.45-1.03-2.6-.28-6.98-1.32l.28-2.07-1.45-1.27,17.03,1.15c1.69.12,2.9,1.63,2.8,2.95Z"/>
    <path class="cls-9" d="M198.2,291.79c1.52,1.05,3.04,1.81,5.32,1.57-.25-.16-.43.11-.24.38-1.03.07-.77.82-.42,1.13.77.69,1.18.49,2.12.24.8-.21,1.13.97.93,1.4-1.67-.34-3.15-.07-4.65.21-3.8-1.4-7.14-3.42-11.14-3.85-1.61-.17-2.71-2.59-4.2-3.11,1.29-3.16,7.82-1.04,12.28,2.03Z"/>
    <path class="cls-5" d="M140.35,516.6l2.99,7.29c-4.99-2.79-9.21-6.35-11.58-10.91,1.18-.72.14-1.93.7-2.79l7.89,6.41Z"/>
    <path class="cls-2" d="M175.84,232.39l14.15.86c0,.6-.57,1.11-1.13,1.27-.06.12-.15.13-.23.04-.4-.37-.7-.5-1.52-.57-.52-.04-1.37-.19-1.21,1.06l-7.04,2c.33,2.15,1.75,2.51,2.05,3.67l-6.79-5.77c-.04-.54-.09-1.1.05-1.63.22-.85.88-.98,1.67-.93Z"/>
    <path class="cls-4" d="M198.2,291.79c-4.46-3.07-10.99-5.19-12.28-2.03-.8-.28-1.31-.6-1.47-1.36-.66-3,8.67-4.47,14.69,0l2.56-2.86,2.7-1.46-5.93,6.12c.75.6.49,1.3-.27,1.59Z"/>
    <path class="cls-2" d="M173.36,235.74c1.74.94,2.69,4.69,1.8,6.11-2.43.9-5.46.18-6.7-1.42-.07-.79-1.3-2.3-.22-3.21,1.35-1.13,3.65-1.33,5.12-1.49Z"/>
    <path class="cls-6" d="M180.92,240.72l1.63,1.48c.12,2.23-3.56-2.76-7.05,1.5-.66.81-2.54.38-3.27.54-.36-.21-.92-.28-1.41-.31-1.3-2.36-2.1-.53-2.35-3.5,1.24,1.59,4.27,2.31,6.7,1.42.89-1.42-.05-5.17-1.8-6.11-.08-.47.26-.87.76-.79l6.79,5.77Z"/>
    <path class="cls-8" d="M173.4,307.43c.52,1.38-2.57,2.88-3.73,2.25-1.29-3.01-1.98-5.76-.84-8.69,2.48,1.74,3.38,3.25,4.57,6.44Z"/>
    <path class="cls-7" d="M151.19,227.56c-3.79-1.17-8.15-2.57-11.41-4.77-.16-.21-.45-.67-.34-1.05l11.93,4.61c.54.66.09,1.04-.18,1.21Z"/>
    <path class="cls-6" d="M115.9,464.56l-2.52-11.71c.48-.11,1.02-.7,1.38-.54.14.07,2.8,12.8,2.86,12.68-.48.95-.65-.27-1.72-.44Z"/>
    <path class="cls-5" d="M175.87,231.59l-.02.8c-.79-.05-1.45.08-1.67.93-.46-.18-.95-.76-1.36-.85-.56-.11-1.25.57-1.93.59l-3.69.08c-.73.02-1.79-1.11-1.27-2.44l9.94.89Z"/>
    <path class="cls-5" d="M140.48,337.02c.75.79.09,1.78-.3,1.73l-8.45-.93.02-1.18,8.74.38Z"/>
    <path class="cls-2" d="M142.33,537.84c.1-.25.15-.62.2-.89l1.31-.7c.28-.19.59,1.17.02,1.63-.35.28-.93,1.3-1.52-.04Z"/>
    <path class="cls-3" d="M305.85,477.94c-.79.31-1.56.68-1.9.26-.44-.55-.94-2.07-.88-2.81l2.2-26.75.61-25.7.4-48.78c-7.79,2.26-1.47,8.83-2.08,22.21l-1.29,28.29c-.81,17.81-2.77,34.81-4.68,52.32l-1.74,15.95-7.16,45.11-4.72,25.58-7.82,32.99-8.21,30.77-5.81,17.67c-2.93-3.24-.77-6.25.44-9.05,6.18-14.23,8.53-28.91,12.15-43.81,13.21-54.32,27.9-156.09,25.01-211.31l-.63-12.06c-.65-12.49-24.48-14.15-38.17-14.16l-14.99-.02c.18-.38-.2-.81-.51-.77-.43.07-1.34.38-2.07-.31,1.09-.93,2.64-.43,4.31-.85,2,1.05,3.5-.39,4.96-.42l14.08-.3c2.69-.06,4.78-3.42,5.27-5.5,7.17-.01,14.63,2.49,21.99.52l.28-2.42c6.68.4,12.52,4.75,15.68,11.06,5.33,9.02,6.8,20.06,2.36,29.75l-.37,29.31c-1.17,21.47-3.51,42.42-6.71,63.2Z"/>
    <path class="cls-3" d="M246.5,478.14l2.48,4.16c-2.6,4.03,6.47,4.43,4.75,8.57-7.97,4.53-8.48,11.95-16.61,8.77-.89,2.27.61,3.34,2.12,4.18l-12.77,10.67c-3.67-.86-5.87-3.89-7.15-8.26-1.84,1.19-3.38,2.3-5.69,2.05-.29-4.46.47-9.34-.78-13.51-1-3.31.36-5.58,1.99-8.06-2.04-3.7-3.76-6.99-4.52-10.45,1.48-1.27,3.79-2.15,5.52-1.36.71.32.92,1.44,2.37,1.53,2.05.13,3.45-.82,4.55-2.98,1.51-2.97-3.32-6.55-5.85-11.71-.27-3.28-.56-6.61.7-9.79,2.06.06,2.79,2.69,4.2,4.05l16.58,15.94c2.58,2.48,5.09,4.82,8.12,6.2ZM245.52,485.85l-17.31-7.3-7.7,6.04c5.72,8.06,18.46,9.5,25.01,1.26ZM227.22,504.8c2.27-1.43,2.25-5.09,1.17-7.38s-2.76-4.47-6.14-3.88l1.84,6.86c.29,1.08.1,2.86.67,3.55.43.53,1.35,1.53,2.46.84Z"/>
    <path class="cls-6" d="M217.51,338.4c1.13.05,1.99.04,3.08-.57l54.11.78c2.4.03,4.75-.99,6.84-.39l13.35,3.83c.18,1.18.95,1.58,0,2.56l-.28,2.42c-7.36,1.97-14.82-.53-21.99-.52l-36.01.05-15.57.3c-5.88.11-8.59,8.98-19.65,3.12-3.21-1.7-8.15-1.14-11.45-1.21.24-2.2-2.77-3.61-4.87-3.88.14-.72.09-1.36-.06-1.97,3.87-1.12-.55-2.54.2-6.07l32.3,1.55Z"/>
    <path class="cls-8" d="M305.85,477.94l-.68,7.5-8.02,51.85c-.12.81-.73,1.28-1.45,1.27-.67-.67-3.58-.72-3.7.22l-2.08,16.65,1.78,2.76c-.61,2.77-2,4.34-.17,4.64v2.51c-1.15.61-2.37.91-4.72.56l-7.75,32.44c-.21.4-2.24.15-1.86-.15.72-.57.84-1.48-.43-1.56l7.82-32.99,4.72-25.58,7.16-45.11,1.74-15.95c1.91-17.52,3.87-34.51,4.68-52.32l1.29-28.29c.61-13.38-5.71-19.95,2.08-22.21l-.4,48.78-.61,25.7-2.2,26.75c-.06.74.44,2.26.88,2.81.34.43,1.11.05,1.9-.26Z"/>
    <path class="cls-6" d="M162.29,577.84c3.23,1.89,3.44,5.48,4.87,8.75l12.37,28.3,7.34,16.04,6.84,15.57c6.98,15.88,15.35,30.46,24.44,45.26l8.58,12.55c-1.86-1.11-3.74-2.09-5.89-1.54-.17-.64-.65-1.33-.63-2.16l-6.95-7.02c-6.76-10.08-12.61-20.61-18.02-32.03l-21.39-45.19-5.29-12.19-7.02-14.88c-1-5.12-5.42-9.31-5.79-15.21l6.53,3.77Z"/>
    <path class="cls-3" d="M201.4,349.99l1.84,2.1c-1.99,1.46-3.64,2.46-6.07,3.33l6.49,43.14,7.38,43.31c.43,2.53.73,5.32,2.47,7.32-.28.74-.99,1.61-.86,2.96-1.08.96-1.54,2.78-3.61,3.37l-7.93-39.28-1.71-10.4-4.33-30.35c-.72-1.17-1.84-2.81-2.16-4.67l-2.87-16.9c-.34-1.99-.26-3.48-.08-5.13,3.3.07,8.24-.49,11.45,1.21Z"/>
    <path class="cls-3" d="M273.88,630.67l-1.76,3c-2.98-3.84.69-12.35,2.44-18.76l4.52-16.58,7.75-32.44c2.35.36,3.57.05,4.72-.56-3.3,15.54-6.97,30.9-11.79,46.5-2.04,6.59-2.59,13.25-5.87,18.84Z"/>
    <path class="cls-4" d="M252.65,691.13l-.29-2.09c0-.62-2.29-1.02-2.08-1.58l10.28-27.28,5.44-14.76c.73-1.44,3.05-2.13,4.03-2.88-3.56,12.58-8.9,24.83-13.43,37.53l-3.95,11.06Z"/>
    <path class="cls-3" d="M171.34,580.61c-.8.59-1.6.75-2.87.63l2.83,5.41,2.11,4.82,2.58,8.74,12.62,31.49c-1.07.46-1.51-.61-1.73-.77l-7.34-16.04-12.37-28.3c-1.43-3.27-1.64-6.85-4.87-8.75,2.8,1.61,5.78,2.5,9.05,2.77Z"/>
    <path class="cls-6" d="M184.82,582.75c1.82,1.95-.63,6.34.76,11.05l-5.57-1.01c-2.15-.39-4.28-1.06-6.61-1.32l-2.11-4.82c.6-1.63,2.15-2.5,3.21-3.73,1.14-4.7,5.07.27,10.32-.17Z"/>
    <path class="cls-6" d="M246.5,478.14c-3.03-1.38-5.54-3.73-8.12-6.2l-16.58-15.94c-1.41-1.36-2.14-3.99-4.2-4.05l-1.92-2.51c-.64-.83-2.52-.96-2.42-2.9,3.22,1.29,5.7,1.93,7.9,4.17l23.14,23.59c1.22,1.24,1.47,2.63,2.19,3.84Z"/>
    <path class="cls-7" d="M258.06,488.77c-.67,2.4-2.46,4.31-4.64,5.97l-8.47,6.47c-1.75,1.33-3.88,2.04-5.71,2.61-1.51-.84-3.02-1.91-2.12-4.18,8.14,3.18,8.65-4.24,16.61-8.77,1.73-4.15-7.35-4.54-4.75-8.57.52-.08,1.72-.43,2.32.13l6.76,6.34Z"/>
    <path class="cls-4" d="M253.28,352.31c-1.46.03-2.96,1.47-4.96.42-1.67.42-3.22-.09-4.31.85.73.69,1.64.38,2.07.31.31-.05.69.38.51.77l-21.68-.62c-.92-.03-2.02.12-2.49-.56-.31-.45,0-2.08.83-2.08h28.37c.86-.08,1.5-.07,1.66.92Z"/>
    <path class="cls-6" d="M227.37,517.88c-.27-1.11-1.44-2.03-.9-3.38l12.77-10.67c1.83-.57,3.97-1.27,5.71-2.61l8.47-6.47c2.18-1.66,3.97-3.57,4.64-5.97.34-.3,1.24.13,1.16.82-2.53,3.18-5.58,5.54-8.5,8.29l-10.18,9.56-13.18,10.44Z"/>
    <path class="cls-3" d="M218.98,308.18l-4.81-.73c.13-2.26-2.34-3.42-3.49-4.79l-1.53-5.79c6-.11,11.8-3.52,13-9.46l-4.79-19.1c-1.88-7.49-2.82-15.36-2.95-22.59l5.43,3.39c2.47,1.79,5.15,1.03,7.26-.02l8.73-4.26c-1.34,1.86-1.24,4.52.1,6.68,2.35-1.88,3.52-3.89,6.99-5.16-.84,4.02,3.17,7.89,2.86,11.87l-2.97,38.22c-.14,1.83-1.58,2.69-2.54,3.18-1.65.84-2.21-.65-3.59-1.42l-2.46-1.36c-.89-.49-2.07-.36-1.97,1.28.06,1,.56,1.62.82,2.15.6,1.19-1.25,1.33-1.63,1.83-2.34,3.03-5.03,6.91-8.98,7.54l-3.47-1.45Z"/>
    <path class="cls-2" d="M220.6,337.83c-1.09.61-1.95.62-3.08.57,1.16-1.16-.05-1.68-.88-1.21.16-.57.8-.94.77-1.22-.06-.45-.96-.99-1.7-.98-10.09.17-19.82-1.19-29.03-4.99-.07-.81.14-1.87.17-2.07,5.54,1.29,22.6,1.55,28.1.4l10.76-2.26c8.06-1.69,15.31-5.47,21.67-11.42,8.69-8.13,16.57-17.61,19.67-29.21l2.61-24.51c4.51-.59,10.11-.12,13.87,2.73-1.15.53-4.57.74-4.53,1.97.53,16.59-.21,32.64-3.66,48.53-.36,1.66-1.63,3.82-3.55,3.74l3.25-26.42c.98-8.01,1.26-15.74-.61-23.54-2.09.71-1.99,2.68-2.26,4.31-1.94,11.5-4.35,22.68-10.43,32.62-5.38,8.79-11.52,16.54-19.63,22.9-5.61,4.4-12.61,6.25-19.36,7.67.56,1.47-.79,2.11-1.38,1.92-.32-.1-.37.38-.74.46Z"/>
    <path class="cls-3" d="M220.72,311.77c.22.39.92,1.27,1.36,1.19s1.37-2.66.63-.43c2.15.86,5,1.28,5.72,3.17-2,3.37-3.89,6.75-2.73,10.39l-10.76,2.26c0-.81.03-1.5-.52-2.15-.98.54-1.61.08-1.91-.16-.23-.18-.37-.28-.13-.76.96-1.28,1.3-2.77.76-4.77.7-.77,1.59-1.27,2.12-2.9l-16.37-1.12c.1-1.32-1.11-2.83-2.8-2.95l-17.03-1.15c-.87-.06-2-.23-2.34-1.66l22.48-1.15c7.23-.37,15.13.44,21.52,2.21Z"/>
    <path class="cls-3" d="M209.21,286.59c-1.73,2.13-3.29,5.39-5.69,6.77-2.27.24-3.79-.52-5.32-1.57.76-.29,1.02-.99.27-1.59l5.93-6.12c1.78-1.84-.02-4.27-.18-6.71-.91-13.75-1.63-26.87-3.21-40.05h4.66c.58,16.87,1.84,32.99,3.55,49.27Z"/>
    <path class="cls-6" d="M233.47,238.62c.33,2.57-2.11,3.3-3.46,4.71-.06-1.1-.46-2.77-1.34-3.44s-2.36-.47-3.87-.29c-2.19.26-3.31,3.31-2.08,5.13.84,1.24,3.14,2.15,4.84,1.16-.24.25-.1,1.25.29,1.59.43.37-.15,1.36-.73,1.61-2.11,1.05-4.79,1.81-7.26.02l-5.43-3.39c3.45-4.65,8.44-7.51,13.64-7.91,1.43-2.94,4.19-.1,5.41.81Z"/>
    <path class="cls-2" d="M228.29,232.11l7.12-.89c6.2-.77,12.75-1.77,12.03-4.88.41.11.89.86,1.65,1.51,8.18-2.78,15.29-6.72,22.12-11.48-.12,3.1-2.63,3.88-4.78,5l-14.81,7.72c-4.59,2.39-9.02,3.48-14.4,3.59-2.84.05-6.5,1.62-8.93-.57Z"/>
    <path class="cls-6" d="M205.91,296.52c.57.12,1.09,1.23,2.08.65-.13.89-.57,1.99-2.76,1.45,2.16,1.55-.53,2.69-.46,3.53l.11,1.37c.04.54-1.04.35-1.55.4-2.7.28-4.97-.41-5.24-2.8-.31-2.81.51-3.89,3.17-4.39,1.5-.28,2.99-.56,4.65-.21Z"/>
    <path class="cls-2" d="M210,293.97c-2.3.59-4.81,1.61-6.73-.23-.2-.28,0-.54.24-.38,2.4-1.39,3.96-4.64,5.69-6.77l1.4-.77c.01.47,1.08.97,2.3.57.94,2.7-.84,5.72-2.91,7.58Z"/>
    <path class="cls-8" d="M235.83,244.82l-8.73,4.26c.59-.25,1.16-1.24.73-1.61-.38-.34-.52-1.34-.29-1.59l2.45-2.56c1.35-1.41,3.79-2.14,3.46-4.71.94.7,2.29,1.18,2.93,1.92,1.16,1.34.23,3.19-.57,4.29Z"/>
    <path class="cls-8" d="M210.68,302.66l-.87,1.74c-.17.55-2.37.42-2.95-.05-.34-.28-.47-.98-.57-1.3-.18-.6-.81-.91-1.54-.9-.07-.84,2.63-1.99.46-3.53,2.18.54,2.62-.56,2.76-1.45.21.26,1.09.44,1.17-.3l1.53,5.79Z"/>
    <path class="cls-2" d="M210,293.97c2.07-1.86,3.84-4.88,2.91-7.58-1.22.39-2.29-.1-2.3-.57,2.02-1.11,6.92.82,6.86,4.06-1.1,2.16-5.4,3.56-7.46,4.09Z"/>
    <path class="cls-5" d="M251.8,699.08c-.23,1.04.02,1.77.51,2.68l-6.63,1.45,5.18-4.03c.2-.16.74-.09.93-.1Z"/>
    <path class="cls-7" d="M227.13,235.53c-1.3,1.66-2.59,1.23-4.43-.18,1.06-.65,2.34-1.02,4.43.18Z"/>
    <path class="cls-9" d="M294.07,676.77c-1.34-.04-.86.82-.97,1.31-.19.84-.51,1.98.95,1.98l.37-2.56c.45,4.55,2.15,8.43,1.7,9.3-.51.99-1.62,1.06-2.23.46s-.61-1.1-.73-2.12l-.95-8.3c-.88.25-1.54-.16-1.57-.91,1.34.29,2.36-.04,3.4-.82l.04,1.66ZM294.34,686.78l1.19-.03-1.08-4.28c-.86,1.73-.54,3.17-.1,4.31Z"/>
    <path class="cls-7" d="M294.03,675.11c-1.04.78-2.06,1.1-3.4.82-.27-1.17.22-1.66,1.33-1.7.83-.03,2.05-.23,2.07.88Z"/>
    <path class="cls-9" d="M294.42,677.5l-.37,2.56c-1.46,0-1.14-1.14-.95-1.98.11-.48-.37-1.35.97-1.31-.11.23-.07.7.35.72Z"/>
    <path class="cls-3" d="M295.7,538.56c1.05,6.32-1.54,12.76-3.06,19.27l-1.11,4.99c-1.84-.29-.44-1.86.17-4.64l-1.78-2.76,2.08-16.65c.12-.94,3.03-.89,3.7-.22Z"/>
    <path class="cls-3" d="M143.96,574.16c5.2,4.46,9.49,9.99,12.89,15.7l-4.3,55.26-1.94,26.68-1.13,20.99-5.33,1.36c-.94.24-1.8,1.01-2.98.7l-26.96-7.09,13.82-71.75,5.99-31.66c.88-4.68,1.59-9.14,3.4-13.14.23-.5.33-1.24.69-1.54s1.2-.31,1.21.46c.22,1.43,3.22,2.58,4.63,4.02Z"/>
    <path class="cls-8" d="M190.12,656.55l1.53,20.25c.72,9.45,2.11,18.42,2.16,27.43l-21.26-2.34c-1.56-8.83-1.29-17.44-.87-26.78l2.02-44.92c.11-2.47-1.44-4.86,1.75-5.96,1.47,6.44,3.9,12.17,7.19,18.31l7.48,14Z"/>
    <path class="cls-9" d="M168.56,604.16l1.52,7.61c-.74.21-1.12.53-1.22,1.27l-9.31,68.67.47,2c.1.44-.98,1-1.6,1.45-.52,3.66-.45,6.99-1.87,9.96-3.96,1.7-8.56.35-12.4-.99l5.33-1.36,1.13-20.99,1.94-26.68,4.3-55.26,3.61,6.07c1.17-1.63,1.84.67.73.59,1.68.87,2.4.45,3.07-.14-2.12.26-2.44-1.58-.94-2.42l-2.07-1.99c-.92-.89-.18-2.17.29-2.69l7.02,14.88Z"/>
    <path class="cls-6" d="M175.46,624.23c-3.19,1.1-1.64,3.49-1.75,5.96l-2.02,44.92c-.42,9.34-.69,17.95.87,26.78l-13.98-2.7c-1.23-.24-2.05-1.18-2.22-2-.14-.67-.09-1.44.2-2.04,1.42-2.98,1.35-6.31,1.87-9.96.61-.46,1.7-1.01,1.6-1.45l-.47-2,9.31-68.67c.1-.75.48-1.06,1.22-1.27l5.37,12.46Z"/>
    <path class="cls-3" d="M213.26,693.57l6.95,7.02c-.02.84.46,1.53.63,2.16-8.6,2.19-18.04,2.46-27.03,1.47-.05-9.01-1.44-17.98-2.16-27.43l-1.53-20.25,15.09,26.54c2.29,4.02,5.08,7.49,8.05,10.48Z"/>
    <path class="cls-6" d="M176.85,472.04c2.22,13.37,4.39,27.65,4,41.91-2.91-2.18-3.09-5.26-3.47-8.57l-2.4-20.86-5.71-43.72c-.05-.35.32-1.3.48-1.57.23-.4,1.63-.15,1.76.68l5.33,32.13Z"/>
    <path class="cls-3" d="M165.2,373.65c-.78-8-3.17-17.46-2.76-18.47.28-.68,1.55-1.11,2.39-.24.52.54,1.08.67,1.43.6.86-.16.85-1.1.59-1.83,2.01,7.46,2.98,15.41,3.47,23.25-4.2.12-3.17-3.37-5.13-3.31Z"/>
    <path class="cls-4" d="M205.15,575.22c-2.99,2.36-6.2,4.28-9.95,4.64l-17.88-.78c-1.82-.04-3.05-1.33-4.13-1.6-3.8-.96-7.38-.83-10.57-2.45-.22-.11-.68.03-.9.21-.19-.69-.31-1.29-.01-2.21l15.57,2.68c1.02-2.96,4.23-1.31,5.24-.3-.29.55.03,2.09,1,2l9.09-.83-4.69-.87c5.24-.88,10.28.06,12.98-4.32l-11.84-1.47c-3.63-.45-7.55-1.55-11.46.24-.26-1.14-.06-1.78-.06-2.65,1.4-1.53,3.72-2.36,5.82-1.93,8.35,1.73,17.8,2.34,18.57-4.3,1.43-.04,2.09-.38,2.76-1.58,1.02.89,2.79.87,3.73,2.09.3,3.18-1.82,4.99-3.44,7.41l4.55,1.56c-1.37,2.47-2.92,3.32-4.37,4.46Z"/>
    <path class="cls-7" d="M195.07,375.49l4.33,30.35-7.85.07v3.07c-1.47-.43-.45-2.37-.61-3.35l-4.85-29.42c2.97,1.66,6.82-2.56,8.99-.72Z"/>
    <path class="cls-3" d="M193.37,594.61c.01-2.68,4.02-4.59,2.39-7.9-.45-.9-1.47-2.1-3.12-2.47l-6.84-1.57,6.82-1.24c3-.41,7.18-.63,9.89,1.08,2.5,1.57,3.84,3.89,3.47,6.43-.3,2.05-1.97,3.67-4.16,4.87-2.71,1.48-5.71.78-8.45.8Z"/>
    <path class="cls-3" d="M161.7,573.02c-.29.92-.18,1.52.01,2.21-1.59-.68-2.05,1.07-.45.97.58.77,1.24.61,1.61.82.73.42,1.53-.35.92-.83-.46-.36-1.39-.56-1.18-1.18,3.19,1.62,6.77,1.49,10.57,2.45,1.08.27,2.31,1.56,4.13,1.6l17.88.78-6.9.65.45.79c1.24-.3,2.5-.24,3.87.14l-6.82,1.24-.97.08c-5.25.45-9.18-4.53-10.32.17-1.14-.78-1.6-2.18-3.17-2.31-3.27-.27-6.25-1.16-9.05-2.77l-6.53-3.77c-2.61-1.5-5.83-2.45-8.21-4.46l14.16,3.41Z"/>
    <path class="cls-8" d="M193.37,594.61c-2.69.02-5.2-.34-7.78-.81-1.39-4.71,1.05-9.1-.76-11.05l.97-.08,6.84,1.57c1.65.38,2.68,1.57,3.12,2.47,1.64,3.32-2.38,5.22-2.39,7.9Z"/>
    <path class="cls-4" d="M215.84,474.91c-1.73-.79-4.05.09-5.52,1.36-1.03-4.69-1.13-9.66,3.44-13.42,1.81,3.72,2.33,7.7,2.09,12.06Z"/>
    <path class="cls-6" d="M218.21,476.43l-1.3-14.69c2.52,5.16,7.35,8.74,5.85,11.71-1.09,2.16-2.5,3.11-4.55,2.98Z"/>
    <path class="cls-9" d="M185.08,344.9c2.11.27,5.11,1.68,4.87,3.88-.18,1.65-.25,3.14.08,5.13l2.87,16.9c.32,1.86,1.43,3.49,2.16,4.67-2.16-1.84-6.01,2.38-8.99.72-1.55-9.37-2.79-18.7-6.21-28.09l-.24-3.96c-.02-.37-.96-.77-.6-1.48.21-.41.84-.52,1.24-.58-.21,2.83,2.77,2.56,4.81,2.82Z"/>
    <path class="cls-6" d="M185.02,342.93c.15.62.2,1.26.06,1.97-2.04-.26-5.01,0-4.81-2.82,1.6-.25,3.56-.42,4.74.84Z"/>
    <path class="cls-6" d="M199.83,538.37c.29,3.21-1.29,6.04-4.89,6.06l-18.22.13c-1.77.01-1.92,2.47-1.51,3.52.52,1.35,2,2.42,4.07,2.19l6.09-.7c.72.58,1.64.61,1.99,1.22.76,1.3.93,1.74.16,2.51-1.8,1.83-3.65.49-6.88,1.76-1.69.67-4.11.88-5.37,2.99-.71,1.17.11,2.38.94,3.1,2.14,1.84,5.06-1.71,7.39.62-.6,1.6-.9,2.43-.25,3.81-2.1-.44-4.42.4-5.82,1.93-.26-.19-1.24.46-.98.63.29.2-.24,1.59-.58,1.48l-12.82-4.17c-7.32-2.38-14.73-3.7-21.42-6.82-.53-3.35-.31-6.02.35-9.5,1.08-5.72,1.23-12.52,7.01-15.77,17.2,2.92,33.99,4.16,50.76,5.01Z"/>
    <path class="cls-3" d="M204.68,559.7c-.68,1.19-1.33,1.54-2.76,1.58l-18.32.49c-2.33-2.33-5.25,1.22-7.39-.62-.84-.72-1.65-1.93-.94-3.1,1.27-2.11,3.69-2.33,5.37-2.99l6.83.89c13.76,1.36,15.33-4.93,13.62-5.53-4.52-1.59-8.56-.02-12.64-.49l-3.08-.36-6.09.7c-2.07.24-3.55-.84-4.07-2.19-.4-1.05-.26-3.51,1.51-3.52l18.22-.13c3.6-.03,5.18-2.85,4.89-6.06,2.88.15,7.27,1.05,8.08,4.69.57,2.57-2.56,4.33-3.85,6.05,1.79-.12,3.69.04,4.44,1.42,2.26,4.14-2.47,6.79-3.82,9.18Z"/>
    <path class="cls-8" d="M177.52,567.5c0,.87-.2,1.51.06,2.65,3.91-1.78,7.83-.69,11.46-.24-.34,1.08,2.47.1,1.56,2.06-1.87-.28-3.69-.42-4.7.26-.84.57-1.8,1.76-1.91,3.1-.42-.04-1.19.35-1.48.06-1.01-1.01-4.22-2.67-5.24.3l-15.57-2.68-14.16-3.41-3.47-2.7-1.66-3.93-.69-4.35c6.69,3.12,14.1,4.44,21.42,6.82l12.82,4.17c.34.11.87-1.29.58-1.48-.26-.18.72-.82.98-.63Z"/>
    <path class="cls-9" d="M142.41,562.98l1.66,3.93c.4.95,1.2,1.54,1.64,2.09-.44,1.39-.79,2.96.18,4.22-.62.69-1.52-.44-1.93.94-1.41-1.44-4.41-2.59-4.63-4.02.48-6.41-1.38-11.76-.57-17.53l1.09,8.31,1.39,2.47c.16.28,1.05-.36,1.17-.41Z"/>
    <path class="cls-3" d="M205.12,306.84c-3.12-.24-6.22-.43-9.27-.19-.04-3.64,4.7-1.84,10.75-1.56-.78.84-1.39.82-1.48,1.75Z"/>
    <path class="cls-3" d="M136.67,569.55l-4.18-2.34c2.11-.84,3.6.42,4.18,2.34Z"/>
    <path class="cls-6" d="M182.55,242.21c.45.41,1.03.54.88.99-3.31,3.02-7.52,3.21-11.21,1.05.73-.16,2.61.27,3.27-.54,3.5-4.26,7.17.73,7.05-1.5Z"/>
    <path class="cls-7" d="M188.63,234.56l-2.73.49c-.16-1.25.69-1.11,1.21-1.06.81.07,1.12.2,1.52.57Z"/>
    <path class="cls-8" d="M245.52,485.85c-6.55,8.25-19.29,6.8-25.01-1.26l7.7-6.04,17.31,7.3Z"/>
    <path class="cls-8" d="M227.22,504.8c-1.1.69-2.03-.31-2.46-.84-.57-.7-.38-2.47-.67-3.55l-1.84-6.86c3.38-.59,5.11,1.69,6.14,3.88s1.09,5.95-1.17,7.38Z"/>
    <path class="cls-9" d="M213.26,693.57c-2.96-2.99-5.76-6.46-8.05-10.48l-15.09-26.54-7.48-14c-3.29-6.15-5.72-11.88-7.19-18.31l-5.37-12.46-1.52-7.61,5.29,12.19,21.39,45.19c5.41,11.42,11.26,21.95,18.02,32.03Z"/>
    <path class="cls-7" d="M147.54,569.61c2.39,2.02,5.6,2.96,8.21,4.46.36,5.9,4.78,10.09,5.79,15.21-.47.52-1.21,1.8-.29,2.69l2.07,1.99c-1.5.84-1.18,2.69.94,2.42-.67.59-1.4,1.01-3.07.14,1.11.07.44-2.22-.73-.59l-3.61-6.07c-3.4-5.72-7.69-11.24-12.89-15.7.42-1.37,1.32-.25,1.93-.94-.98-1.26-.62-2.83-.18-4.22-.45-.55-1.24-1.14-1.64-2.09l3.47,2.7Z"/>
    <path class="cls-4" d="M171.34,580.61c1.57.13,2.02,1.53,3.17,2.31-1.06,1.23-2.61,2.1-3.21,3.73l-2.83-5.41c1.28.12,2.07-.04,2.87-.63Z"/>
    <path class="cls-2" d="M230.01,243.33l-2.45,2.56c-1.71.99-4.01.08-4.84-1.16-1.23-1.82-.11-4.87,2.08-5.13,1.51-.18,2.99-.39,3.87.29s1.28,2.34,1.34,3.44ZM225.84,244.74c-.7-1.04-1.35-1.74-2.48-2.44-.47,1.67.83,2.95,2.48,2.44Z"/>
    <path class="cls-9" d="M294.34,686.78c-.44-1.13-.75-2.58.1-4.31l1.08,4.28-1.19.03Z"/>
    <path class="cls-8" d="M201.91,561.28c-.78,6.64-10.22,6.03-18.57,4.3-.64-1.38-.35-2.21.25-3.81l18.32-.49Z"/>
    <path class="cls-8" d="M187.9,575.71l-3.91-.37c.11-1.33,1.07-2.53,1.91-3.1,1.01-.68,2.83-.54,4.7-.26.91-1.96-1.89-.98-1.56-2.06l11.84,1.47c-2.7,4.39-7.74,3.44-12.98,4.32Z"/>
    <path class="cls-3" d="M183.99,575.34l3.91.37,4.69.87-9.09.83c-.97.09-1.29-1.45-1-2,.29.29,1.06-.1,1.48-.06Z"/>
    <path class="cls-7" d="M161.72,575.24c.21-.18.67-.33.9-.21-.21.62.73.82,1.18,1.18.61.48-.2,1.24-.92.83-.37-.21-1.03-.05-1.61-.82-1.59.1-1.13-1.65.45-.97Z"/>
    <path class="cls-8" d="M180.63,555.06c3.23-1.28,5.08.06,6.88-1.76.76-.78.6-1.21-.16-2.51-.35-.61-1.27-.64-1.99-1.22l3.08.36c4.09.47,8.12-1.1,12.64.49,1.71.6.14,6.89-13.62,5.53l-6.83-.89Z"/>
    <path class="cls-2" d="M225.84,244.74c-1.65.52-2.95-.76-2.48-2.44,1.13.69,1.78,1.39,2.48,2.44Z"/>
  </g>
</svg>