<?xml version="1.0" encoding="UTF-8"?>
<svg id="Réteg_1" data-name="Réteg 1" xmlns="http://www.w3.org/2000/svg" viewBox="0 0 409.19 709.78">
  <defs>
    <style>
      .cls-1 {
        fill: #f6b2b2;
      }

      .cls-2 {
        fill: #df8f99;
      }

      .cls-3 {
        fill: #f8f4e9;
      }

      .cls-4 {
        fill: #a78493;
      }

      .cls-5 {
        fill: #fad3ad;
      }

      .cls-6 {
        fill: #5270a0;
      }

      .cls-7 {
        fill: #f6bfb0;
      }

      .cls-8 {
        fill: #f4afa6;
      }

      .cls-9 {
        fill: #0d101f;
      }

      .cls-10 {
        fill: #7d73a4;
      }

      .cls-11 {
        fill: #274368;
      }

      .cls-12 {
        fill: #172c43;
      }

      .cls-13 {
        fill: #f7f0e5;
      }

      .cls-14 {
        fill: #7577a2;
      }

      .cls-15 {
        fill: #395b85;
      }

      .cls-16 {
        fill: #60718f;
      }

      .cls-17 {
        fill: #fad1b6;
      }

      .cls-18 {
        fill: #f6c4ae;
      }

      .cls-19 {
        fill: #f0a1a4;
      }

      .cls-20 {
        fill: #b887a4;
      }

      .cls-21 {
        fill: #f6b0b2;
      }

      .cls-22 {
        fill: #f8edd7;
      }

      .cls-23 {
        fill: #fcddb8;
      }

      .cls-24 {
        fill: #ecb6ac;
      }

      .cls-25 {
        fill: #3e649e;
      }

      .cls-26 {
        fill: #334f76;
      }

      .cls-27 {
        fill: #6c6e89;
      }

      .cls-28 {
        fill: #f3abb2;
      }

      .cls-29 {
        fill: #678db4;
      }
    </style>
  </defs>
  <g id="Generatív_objektum_-180_30_" data-name="Generatív objektum (-180, 30)">
    <path class="cls-25" d="M213.08,75.5l7.12,8.25c6.28,7.27,13.58,13.84,19.9,21.91l11.56,14.76c4.4,5.62,7.55,11.68,10.74,18.22,5.55,11.38,11.13,22.25,14.09,34.71.52,2.18,1.35,4.38,3.85,5.23.98-2.71,1.83-5.49,1.34-7.85,2.45.51,4.11,2.2,5.18,4.65.28.14.69.1,1.1.07,1.11,6.09,1.86,12.15,1.83,18.93l-.11,23.52-.43,15.05c.12.8.03,1.49-.88,1.58l-1.96-5.54-4.74-24.65c-.06-.32.18-.89-.55-1.32-.33-.2.53-.97.43-1.26.65-.39,1.18.16,1.12.51-.11.58-.28,1.94-.12,2.91-.31,1.65,1.19,1.68,1.64-.01-.8-5.26-.52-10.04-2.11-15.24-1.73.99-1.06,2.78-1.57,3.87-.33-2.53-1.35-5.37-.97-8.41l1.04-1.45c.11-.15.1-.53-.27-.58-.73-.1-.57,1.14-2.01,1.47.1,2.51-3.52,5.59-3.27,8.15l1.25,12.88c-.4,8.43,0,16.46-.9,24.39-.98,8.6-.89,17.25-1.31,25.91l-1-8.63c-.07,5.4-1.27,9.79-1.93,14.87l-2.34,18.12,4.92-6.94c4.45,8.59,3.75,18.45,12.46,23.26.44-1.79.59-3.64,1.33-3.79l3.03-.62,2.33-.96c1.94-.8,4.91,7.46,5.86,14.05,1.34-.26,2.36-1.33,3.04-1.23.6.09,1.41,1.15,1.83,1.88l10.05,17.5c1.04-1.36.34-2.76,1.49-3.17,6.64,25.18,7.31,53.27,6.83,79.67l-1.27,69.6-.9,21.5c2.93-2.78,1.95-6.11,2.33-9.28,1.92.27.83,1.76.47,2.05-.31.25.53,1.09,1.12.72.05,1.65,1.03,3.47,1.22,5.06l1.44,11.7c.5,4.05,2.26,7.69,3.07,11.78l6.09,30.66,15.13,73.49c.23,1.14-.12,2.11.48,3.32,1.58,3.18-2.6,17-5.22,21.41.16-1.36-1.72-2.69-2-3.98l-4.24-19.32-18.9-105.09-.79-6.36c-1.56,4.76.16,9.12.95,13.89l12.99,77.59,6.05,42.19c.89,6.19-.91,11.26-4.72,15.84-8.32,10-18.29,17.89-30.39,23.02l-9.25,3.92c-1.32-3.25.07-6.89-3.39-9.88-8.78,3.34-17.95,7.43-15.49,15.64-6.68,2.04-13.35,4.3-20.58,5.47l-27.67,4.49-24.55,1.52c-3.1.19-4.99.39-8.3.13l-16.23-1.27c-9.4-.73-18.26-1.64-27-3.81.7-4.4-2.15-7.41-2.71-12.22-7.21-3.56-14.86-4.85-22.86-6.11l-3.55,8.25-2.29,1.97c-3.39-1.35-6.17-1.9-9.87-3.38,1.38-.53,1.22-2.05,1.42-3.31l1.85-11.6,6.45-71.99.47-12.07c.01-.29.69-1.13.62-1.41-.1-.42-.64-.99-1.19-1.1-1.67-.34-2.31,5.64-8.18,6.13-2.08,6.06-6.14,11.36-5.23,19.08-1.5,1.66-2.21,3.62-4.13,4.88-1.53-1.84-.53-4.41-.29-6.54l1.04-9c3.95-23.51,6.26-46.71,8.26-70.39l.73-8.6,2.32-53.85,2.66-105.07c1.32-.12.85,2.79,2.81,3.99,4.03,2.47,5.1-4.86,4.76-12.19,1.18-.27,1.48-.96,1.32-1.77-.13-.64,1.46-1.38,1.83-2.04,2.19-4.02,2.54-8.62,2.91-13.39.6-.85,2.22-.85,2.81-1.24,1.5-2.54.56-5.65,1.17-8.33.27-1.2,2.71-2.67,2.76-3.87.14-3.67-6.88-5.47-8.67-9.84,3.93-.31,6.62,2.25,10.39,3.2.91-4.62.7-8.9,2.42-12.64s2.02-7.95,3.19-11.98c-2.09-2.29-4.94-4.31-5.65-6.97-1.68-6.27-4.06-11.96-9.97-15.36-.72-2.48-3.63-6.71-4.87-5.64-.15-.84.81-1.16.82-1.61l.08-3.8c2.74,2.34,4.57,4.6,7.27,6.04,1.73,2.85,5.4,4.18,9.11,4.21,2.25,2.25,4.7,4.18,8.21,4.06.73-3.4,4.59-5.85,5.07-8.67l3.39-19.95-.1-9.95c-.02-2.36.5-5.43.26-8.3-.18-2.16-3.52-4.5-4-7.06-.34-1.83-2.19-3.26-3.43-3.98l17.44,4.79c17.84,5.17,47.81,4.47,65.65-.52,12.63-3.53,24.45-8.81,33.92-17.71-7.39,4-13.78,7.92-21.79,10.4-30.11,10.46-62.73,10.01-93.08.21-6.83-2.21-12.43-4.97-18.47-8.85-.25-.16-.78.37-.58.9l-3.28-2.8c-2.88-2.46-5.15-5.78-7.54-8.44,2.38,1.55,5.42,1.89,8.79.32l7.02-3.26c1.59-2.5,2.7-4.79,6.42-5.48,3.21-.59,5.22-8.93,11.97-9.71,7.61-.87,5.95-7.66,12.83-9.58,3.51-.98,3.32-7.84,5.68-10.16,1.13-1.11,5.11.87,9.17-6.89,4.35,1.24,8.43-.6,9.52-5.02.47-1.89,1.92-3.95,2.57-5.58l-.11-56.81,1.09-2.1,3.21-.17c3.14,2.02,6.92,1.89,9.34-.7-.3-1.28,1.17-.51,1.4-.11ZM148.37,320.1c-1.77-3.16-4.3-3.29-6.7-3.33,1.98,1.93,4.23,3.39,6.7,3.33ZM185.29,550.02c-2.1,4.59-8.89,3.46-10.53,8.45-1.01,3.07-1.37,6.94,1.54,8.64,4.24,2.47,9.67,3.36,14.46,3.68,3.7.24,4.47,1.66,6.86,3.95,1.85,1.77,7.88,1.93,9.91.43,2.46-1.82,4.88-2.37,7.68-3.26l9.55-6.65c1.84-1.28,14.18-7.01,9.53-8.96l-2.69-1.13c-4.02-1.17-8.23-1.89-10.92-4.94.66-2,3.23-2.38,4.2-5.42l-13.56,1.4c-.75.08-1.83-1.44-2.21-1.93.45-1.69.24-3.24-.46-4.3-.93-1.39-3.08-1.15-4.45-1.55-.5-.44-1.06-2.36-1.91-2.6-.49-.13-4.66.57-5.23,1.22-.99,1.14,2.15,7.77-.56,8.6-4.25,1.3-8.68.04-12.96-.52.25,2.02.37,3.84,1.76,4.88Z"/>
    <path class="cls-3" d="M277.05,155.11c-.58.05-.77-.15-1.02-.5-.27-.37-1.09.07-1.27.38-4.52-13.67-10.19-26.5-19.17-37.69l-6.95-8.66-11.87-12.66-9.83-9.19-6.75-3.04-7.12-8.25c-3.47-4.01-7.4-7.5-13.32-6.86-.83,2.88-.63,5.43-.64,7.84l-1.09,2.1c-1.76,1.52-3.62,3.73-4.66,5.91-3.97,2.48-6.87,9.5-10.12,13.75-3.91,5.11-6.37,10.38-9.61,15.83l-11.67,19.62c-3.91,6.58-8.1,9.2-9.26,12.06l-4.18,10.27-1.15,1.03c-.23.2-.93.46-1.17.27-2.01-1.58,3.94-10.84,2.61-18.26l-10.19,18.66c-2.93,5.27-5.69,10.53-6.99,16.12-4.06,2.65-6.21,7.04-7.01,12.48-.41.65-2.22,1.28-1.85,1.79.62.85.9,2.07,1.41,2.64,2.4,2.66,4.66,5.97,7.54,8.44l3.28,2.8c2.42,2.06,5.88,3.46,7.43,6.2,2.45,4.35,8.23,5.71,7.98,13.44-.21,6.54.19,13.8-1.46,20.22-1.24,4.85-1.93,9.77-1.54,15.08-2.93.39-6.66,2.06-7.86,5.45-2.13.29-2.63-1.74-3.99-3.01l-8.61-8.04c-.97-.19-1.74.92-2.17,1.53-.72,1.03-.04,6.14,1.24,7.31,0,.44-.97.77-.82,1.61,1.46,8.08,3.33,16.49,2.21,25.1-.43,3.27-4.09,4.87-6.43,6.4l-4.24,2.77c-1.01.66-2.51,1.49-4.17,1.08l.81-9.12c.03-.73-.92-.94-1.25-.59l-1.05,1.11-5.85,14.8c.62.69.51,2.21-.08,2.48l-2.02.92c-2.09.95-4.08,1.19-4.74,3.52-.1.36-.16,1.17-.56,1.39-.29.16-.75.07-1.18-.04,2.48-5.29,3.73-13.75,3.7-19.81-3.48,5.64-5.03,11.16-6.98,16.58-8.65,4.08-17.13,9.57-23.51,17.63-1.4,1.78-2.28,4.55-3.73,6.66-7.93,11.53-10.29,23.52-13.83,37.22-1.13,4.38-3.12,8.75-2.47,13.14-.24.66-1.28,1.64-1.34,2.67-.71,11.93-1.29,23.64-.24,35.85.23,2.71,1.96,5.85.11,8.18-2.59-8.99-2.45-18.14-2.82-27.95-1.07-28.18,2.5-55.26,11.1-81.72,2.09-6.43,4.11-11.96,7.5-17.96l8.62-15.25c4.27-7.56,11.4-13.23,17.33-18.99,0-.23.65-.46.91.03,2.74-.94,3.81-4.53,6.3-6.39,6.81-5.08,13.05-10.14,18.8-16.59.25,3.69,5.03-10.37,5.03-10.37-.01-.54-.67-47.66-.67-47.66.12-.74-.14-1.83-.61-3.32,0,0,3.42-32.58,8.36-43.68,1.29-5.64,3.12-11.19,7.61-15.35,2.04-5.6,5.52-10.15,8.4-15.28,2.49-4.44,4.89-8.62,9.46-11.23,3.69-2.11,5.16-6.82,8.44-9.43l10.1-8.05,12.49-8.09c8.11-7.09,17.97-8.69,27.31-2.26l18.29,12.59,16.99,16.66c8.73,8.56,13.87,19.53,19.89,30.06,4.7,8.2,7.36,16.87,9.87,25.61Z"/>
    <path class="cls-25" d="M291.5,267.46l3.34,3.39c1.32,1.34,2.09,4.32,4.17,5.43,1.82.97,2.79,1.73,4.02,2.89l4.13,3.92,5.22,9.1c1.13-1.08,1.36-2.68.89-4.19.54.51,1,.73,1.67.53,7.59,5.85,13.89,18.08,19.63,27.03,4.17,6.5,6.71,12.83,9.41,20.08l5.12,13.73,3.57,17.62,1.2,5.36c-1.65,2.4.47,3.92-.03,8.13-.41,3.41.72,7.13,1.39,10.78.97,5.3.07,10.81-.1,16.22l-.56,17.32-2.02,9.14c-1.79,12.18-7.96,22.16-16.37,30.35-.66-.7-.83-.57-.88-.84-.09-.55-.9-1.02-1.82-1.17,1.33-1.69,3.52-3.12,3.55-5.68.26-31.78-1.87-63.15-8.62-93.96l-4.46-17.68c-2.37-9.38-4.72-18.69-8.45-27.65-1.14.25-.66,1.04-.49,1.32.2.33-.41,1.3-.79,1.31-.7.02-1.22-.39-1.71-1.24l-6-10.39c-3.31-5.73-6.27-11.2-9.43-16.96l-10-13c-2.86-3.72-6.81-7.11-7.51-11.83-.34-2.27-1.12-5.52.2-7.98.68-1.26,2.73-1.81,2.13-3.76,1,1.93,1.33,4.4,3.11,6.17l6.51,6.51Z"/>
    <path class="cls-3" d="M82.06,478.87c-1.18,3.16,0,5.48,2.08,6.79.64.4.78,1.08,1.06,1.49,3.83,5.63,2.35,13.89,6.35,13.81l.08,3.51c.15,6.22-.41,13.16-2.37,19.36-.99-.04-2.98-.17-3.24.54-.29.79-.27,2.11-.11,2.84-2.97,10.96-4.78,22.26-7.08,33.83l-7.66,39.96-9.05,41.73c-.88-.19-1.62-1.01-1.95-2.19l-5.54-19.95c-.83-3.01.06-6.74.58-9.78l6.64-38.82c5.32-31.12,10.83-61.86,18.26-92.28.41.11,1.54.61,1.95-.84Z"/>
    <path class="cls-12" d="M274.08,256.15c.11.92.51,1.99,1.29,2.73-.05.32-.12.95.24,1.26.53.45,1.04.65,2.85.34-1.16,2.27-.3,4.51,1.1,6.04.7,4.72,4.64,8.11,7.51,11.83l10,13c3.16,5.75,6.11,11.22,9.43,16.96l6,10.39c.49.85,1.01,1.26,1.71,1.24.38,0,1-.98.79-1.31-.17-.28-.65-1.07.49-1.32,3.74,8.97,6.09,18.28,8.45,27.65l4.46,17.68c6.75,30.81,8.89,62.18,8.62,93.96-.02,2.56-2.22,3.99-3.55,5.68.92.14,1.73.61,1.82,1.17.04.26.22.14.88.84-3.8,3.7-7.3,7.43-13.79,8.68,1.48,4.36,1.23,7.92,1.35,11.77-.59.37-1.43-.48-1.12-.72.36-.28,1.45-1.78-.47-2.05-.38,3.18.6,6.5-2.33,9.28l.9-21.5,1.27-69.6c.48-26.41-.19-54.49-6.83-79.67-1.15.41-.45,1.81-1.49,3.17l-10.05-17.5c-.42-.73-1.24-1.79-1.83-1.88-.69-.1-1.7.97-3.04,1.23-.95-6.59-3.92-14.86-5.86-14.05l-2.33.96-3.03.62c-.74.15-.89,1.99-1.33,3.79-8.71-4.81-8-14.67-12.46-23.26l-4.92,6.94,2.34-18.12c.66-5.08,1.85-9.47,1.93-14.87l1,8.63Z"/>
    <path class="cls-25" d="M95.75,312.54c-.28,8.42-3.84,9.13-4.09,11.42l-.96,8.84c-2.67-.63-1.15,6.76-3.83,12.66-1.44,4.68-2.15,9.34-5.84,13.09l-5.27,21.16-4.01,22.77c-3.17,17.99-4.67,36.24-4.25,54.85,2.91,4.58,9.55,6.36,14.52,7.54-.29,1.24.5,3.48,2.26,3.55,1.21-.14,1.15,1.38,1.26,1.95.46.49.2,1.01-.23.58-3.69.47-6.01-.17-9.23-1.84l-6.63-3.43c-6.26-4.99-11.36-11.26-14.97-18.02l.99-.28c1.28-24.31,3.04-48.38,8.59-72.6,2.56-11.2,7.8-21.07,12.96-31.06,2.2-4.27,7.31-7.2,8.56-11.49.8-3.95.93-7.67,3.07-10.9l1.17-3.3c1.94-1.02,3.19-1.87,3.74-3.62.17-.55.75-1.06.73-1.52-.01-.39,1.21-.57,1.47-.32Z"/>
    <path class="cls-12" d="M345.97,642.15l-4.85,8.21c-2.68,7.25-6.5,13.74-12.45,18.75-6.73,5.67-13.05,10.65-21.25,14.14-28.33,12.05-58.26,20.34-89.36,21l-20.68.44c-18.56.39-54.9-4.71-71.65-10.67-25.61-9.11-42.94-14.55-57.08-39.73-1.87-3.33-5.4-5.63-6.35-9.15.19-.26,1.11-.83,1.2.05.71,1.3,2.53,1.73,3.81,1.54s1.96-2.18,2.85-3.13c2.49-2.67,1.68-5.76,2.08-9,.56-4.52,2.02-8.42,1.46-13.24.43-1.34,1.33-3.37,1.19-4.06,2.08.5,1.06-2.62.96-2.73-.42-1.45-.42-1.95.2-2.57.49-.49,1.05.03,1.76.59l-5.91,44.1,13.15,13.17c5.9,4.67,12.08,9.18,18.86,11.9l7.26,2.91c3.7,1.48,6.48,2.03,9.87,3.38,1.63,2.39,5.95,2.36,8.99,3.21,5.91,1.67,11.41,2.15,17.02,3.55l5.4,1.35c8.73,2.17,17.6,3.08,27,3.81l16.23,1.27c3.31.26,5.2.06,8.3-.13l24.55-1.52,27.67-4.49c7.23-1.17,13.89-3.43,20.58-5.47l18.88-5.76,9.25-3.92c12.1-5.13,22.06-13.03,30.39-23.02,3.81-4.58,5.61-9.65,4.72-15.84l-6.05-42.19-12.99-77.59c-.8-4.77-2.51-9.13-.95-13.89l.79,6.36,18.9,105.09,4.24,19.32c.28,1.29,2.16,2.62,2,3.98Z"/>
    <path class="cls-19" d="M88.64,321.3c-2.14,3.23-2.27,6.95-3.07,10.9-1.24,4.29-6.35,7.22-8.56,11.49-5.15,10-10.39,19.86-12.96,31.06-5.55,24.22-7.31,48.3-8.59,72.6l-.99.28c-2.96-5.54-4.39-11.91-6.12-17.92,1.85-2.32.12-5.47-.11-8.18-1.05-12.21-.47-23.92.24-35.85.06-1.03,1.1-2.01,1.34-2.67,3.72.97,6.67-7.31,6.75-14.13l1.9-8.24c-.26-4.27,2.55-6,5.07-8.36,3.02-6.05,3.39-18.02,5.17-17.82,1.59.18,3.37-.96,2.86-3.64l15.77-10.92c.12.73.34,1.17,1.28,1.38Z"/>
    <path class="cls-3" d="M280.52,193.78l1.04,7.97c.1.29-.76,1.06-.43,1.26.73.43.49,1,.55,1.32l4.74,24.65,1.96,5.54c1.14,3.24,3.49,5.39,6.29,7.83l11.67,10.16c5.04,3.08,5.86,6.85,7.15,12.37,5.97,9.56,14.19,16.33,19.44,27.69l9.59,20.74c4.68,12.13,7.92,25.24,9.66,38.37l2.73,20.59-1.02.07-1.2-5.36-3.57-17.62c1.02-4.69-1.48-9.08-2.39-13.95-1.26-6.77-2.49-13.01-5.75-18.96l-8.98-16.36c-2.55-4.65-5.1-8.79-9.11-12.34l-10.63-8.98-10.16-14.44-9.7-9.14c-1.82-1.71-3.63-2.78-5.5-3.64-1.44-.66-2.88-1.73-3.56-3.21-.92-2.27.32-4.93,2.5-6.85,1-3.02.35-6.55-1.61-9.58-1.32.64-1.23,1.74-1.6,2.21-.57.7-2.56.76-3.1.22-.61-.6-2.45-.82-3.7-1.5-.14-.28.5-1.4.44-1.89-.05-.37-.3-.76-.84-.72.9-7.93.5-15.97.9-24.39l-1.25-12.88c-.25-2.56,3.37-5.64,3.27-8.15,1.44-.34,1.27-1.57,2.01-1.47.37.05.38.43.27.58l-1.04,1.45c-.38,3.04.64,5.88.97,8.41Z"/>
    <path class="cls-23" d="M277.05,155.11l3.32,11.53c.32,1.11,1.04,2.8,1.31,4.1.49,2.36-.35,5.14-1.34,7.85-2.5-.85-3.33-3.05-3.85-5.23-2.95-12.46-8.53-23.33-14.09-34.71-3.19-6.54-6.34-12.59-10.74-18.22l-11.56-14.76c-6.32-8.07-13.62-14.64-19.9-21.91l6.75,3.04,9.83,9.19,11.87,12.66,6.95,8.66c8.98,11.19,14.65,24.02,19.17,37.69.18-.32,1-.75,1.27-.38.25.34.44.55,1.02.5Z"/>
    <path class="cls-22" d="M352.19,612.4c-1.55,1.63.35,4.75-1.49,5.02l-15.13-73.49-6.09-30.66c-.81-4.09-2.57-7.73-3.07-11.78l-1.44-11.7c.34-1.16.01-2.64.94-3.72l9.12,37.05,4.06,18.28,13.11,71Z"/>
    <path class="cls-26" d="M86.13,557.69c-.92,3.5-.75,7.28-1.35,11.01l-4.67,28.97c-.18.26-.81-.13-.72-.39.1-.28.32-1.15-.81-1.24.04,2.81-.22,4.98-1.4,7.09-.33-2.24.17-3.43-.95-4.76-.11,2.73-.05,4.26-1.11,6.75,1.09-.56,1.32-1.12,2.74-.9-1.75,3.03-1.48,7.08.25,6.65l-.28,1.72c-.72-.57-1.27-1.08-1.76-.59-.63.62-.62,1.12-.2,2.57.1.11,1.12,3.23-.96,2.73.14.69-.77,2.72-1.19,4.06.55,4.81-.91,8.72-1.46,13.24-.4,3.23.41,6.32-2.08,9-.89.95-1.55,2.93-2.85,3.13s-3.1-.23-3.81-1.54c-.09-.87-1.01-.3-1.2-.05-.17-.62-.31-1.8-.18-2.41.68-1.75,3.39-2.97,4.85-4.1l7.59-33.34,1.27-7.83,8.05-39.84,2.25.07ZM73.47,617.53c-.29-.13-1.41.45-.69,2.01.34.36,1.78-.24.69-2.01Z"/>
    <path class="cls-3" d="M287.96,175.44c-.41.04-.82.08-1.1-.07-1.07-2.45-2.73-4.14-5.18-4.65-.27-1.3-.99-2.99-1.31-4.1,4.81.68,6.88,4.92,7.6,8.81Z"/>
    <path class="cls-13" d="M85.31,470.93c-.99,2.79-2.48,5.37-1.87,7.62l.48,1.78c.16.59-1.62.06-1.11-.86.14-.26-1.23,1.09-.74-.6-.41,1.45-1.54.95-1.95.84.8-3.28,1.51-6.95,5.2-8.78Z"/>
    <path class="cls-23" d="M353.84,380.47c.5-4.21-1.62-5.73.03-8.13l1.02-.07c.24,1.79-.79,4.34.28,6.24.45.8.59,1.56.08,1.93-.27.19-1.11.07-1.41.03Z"/>
    <path class="cls-24" d="M351.18,620.74c-.61-1.22-.25-2.19-.48-3.32,1.84-.27-.06-3.39,1.49-5.02l.19,6.7c.13.89-.02,1.59-1.2,1.64Z"/>
    <path class="cls-1" d="M130.09,267.41c1.44,4.98,3.81,9.9,6.67,14.52,1.56,0,2.37.47,3.3.84.71,2.66,3.56,4.68,5.65,6.97-1.18,4.02-1.45,8.18-3.19,11.98s-1.51,8.02-2.42,12.64c-3.76-.95-6.45-3.51-10.39-3.2,1.79,4.37,8.81,6.17,8.67,9.84-.05,1.2-2.49,2.67-2.76,3.87-.61,2.69.33,5.79-1.17,8.33-.59.39-2.21.39-2.81,1.24-.37,4.77-.72,9.37-2.91,13.39-.36.66-1.95,1.4-1.83,2.04-3.21,3.08-6.48-2.74-7.62,3.26l-1.27,6.7-2.66,105.07-2.32,53.85-.73,8.6c-2,23.68-4.31,46.88-8.26,70.39l-1.04,9c-.25,2.13-1.24,4.7.29,6.54,1.92-1.26,2.63-3.22,4.13-4.88-.91-7.71,3.15-13.01,5.23-19.08,5.87-.49,6.51-6.46,8.18-6.13.55.11,1.08.68,1.19,1.1.07.28-.61,1.12-.62,1.41l-.47,12.07-6.45,71.99-1.85,11.6c-.2,1.26-.04,2.78-1.42,3.31l-7.26-2.91c-6.78-2.72-12.96-7.23-18.86-11.9l-13.15-13.17,5.91-44.1.28-1.72,2-13.21,4.67-28.97c.6-3.74.44-7.51,1.35-11.01.16-.32.33-1.03-.48-1.02,2.07-1.81,1.93-4.26,2.24-6.43l2.07-14.75c2.06-.41,1.45-3.53,3.23-6.64.61.08,1.38.25,2.12-.03.65-.25,1.3-1.26,1.41-2.44l1.32-13.95c.19-2.05-.71-3.43-1.54-4.76,1.14-3.62,2.47-7.33,2.41-11.42l-5.63-4.7c-1.27-2.52-1.6-6.41-1.63-9.44l-.18-18.52-1.15-2.97c1.31-2.97,1.95-6.73,1.96-10.48l.16-33.63c.42.03.93.13,1.66-.14l.45-14.34,3.77-23.96c.99-.6,1.47-2.45,2.99-3.07.5-3.48.54-6.99.13-11.14l-2.77,3.51c.13-1.13.61-2.87-.38-3.39-.24-.11-1.08.64-1.35.62s-.65-.46-.66-.82l2.25-14.45c.41-2.62,4.11-4.21,6.8-4.65-.41,6.13.3,11.67.66,17.76.12,2.03-.1,3.3,1.83,4.11.93.39,3.45,1.05,3.88-.35l3.41-11.01c.53-1.7,3.69-3.21,4.01-4.83l2.32-11.58,2.37-28.05c-4.67-4.76-2.29-11.57-7.05-14.69l4.24-2.77c2.34-1.53,6-3.14,6.43-6.4,1.12-8.61-.75-17.02-2.21-25.1,1.24-1.07,4.15,3.17,4.87,5.64ZM101.04,349.38l-1.15,8.6c1.12.02,2.28-.52,2.96-1.21.46-.47-.21-7.77-1.81-7.39Z"/>
    <path class="cls-28" d="M124.18,190.75c-.51-.57-.79-1.78-1.41-2.64-.37-.51,1.44-1.14,1.85-1.79.81-5.44,2.95-9.83,7.01-12.48,2.25-.23,5.96,1.28,8.15-.23l5.34-8.73c2.4,1.5,5.07,2.7,7.64,1.66,2.43-.98,4.92-3.39,5.21-6.64.76-8.3,3.22-16.3,8.08-23.14,3.96-2.96,8.67-4.06,8.1-7.06-1.39-7.3,4.56-7.06,6.21-14.72,1.14-5.31,4.29-9.09,6.84-13.54,2.31-4.02,2.54-9.39,4.54-13.58l1.61-3.37c1.04-2.18,2.9-4.39,4.66-5.91l.11,56.81c-.65,1.63-2.1,3.69-2.57,5.58-1.1,4.42-5.18,6.27-9.52,5.02-4.05,7.76-8.04,5.78-9.17,6.89-2.35,2.32-2.17,9.18-5.68,10.16-6.88,1.92-5.22,8.7-12.83,9.58-6.75.77-8.76,9.11-11.97,9.71-3.72.69-4.83,2.98-6.42,5.48l-7.02,3.26c-3.37,1.57-6.41,1.23-8.79-.32Z"/>
    <path class="cls-15" d="M220.68,550.23c2.69,3.04,6.91,3.77,10.92,4.94l2.69,1.13c4.65,1.95-7.69,7.68-9.53,8.96l-9.55,6.65c-2.8.89-5.22,1.44-7.68,3.26-2.03,1.5-8.05,1.34-9.91-.43-2.4-2.29-3.16-3.71-6.86-3.95-4.79-.31-10.22-1.21-14.46-3.68-2.92-1.7-2.55-5.57-1.54-8.64,1.64-4.99,8.43-3.86,10.53-8.45l14.26-.26c7.22-.13,13.99-.42,21.13.48Z"/>
    <path class="cls-19" d="M151.91,212.76c1.24.72,3.08,2.14,3.43,3.98.48,2.56,3.82,4.9,4,7.06.24,2.87-.28,5.94-.26,8.3l.1,9.95-3.39,19.95c-.48,2.82-4.34,5.27-5.07,8.67-3.5.12-5.96-1.82-8.21-4.06-3.71-.03-7.38-1.36-9.11-4.21l5.17,2.74c.77-.82.76-2.06,1-2.76,1.19-3.39,4.93-5.06,7.86-5.45-.39-5.32.3-10.24,1.54-15.08,1.64-6.41,1.25-13.68,1.46-20.22.25-7.74-5.53-9.1-7.98-13.44,1.82-1.46,3.32,1,9.48,4.57Z"/>
    <path class="cls-12" d="M151.91,212.76c-6.16-3.57-7.65-6.03-9.48-4.57-1.55-2.74-5.01-4.14-7.43-6.2-.2-.53.33-1.06.58-.9,6.04,3.88,11.63,6.64,18.47,8.85,30.35,9.8,62.97,10.26,93.08-.21,8.01-2.47,14.4-6.39,21.79-10.4-9.47,8.9-21.29,14.18-33.92,17.71-17.83,4.98-47.8,5.68-65.65.52l-17.44-4.79Z"/>
    <path class="cls-15" d="M152.47,696.17l-5.4-1.35c-5.61-1.4-11.11-1.88-17.02-3.55-3.03-.86-7.36-.82-8.99-3.21l2.29-1.97,3.55-8.25c8,1.26,15.65,2.56,22.86,6.11.55,4.81,3.41,7.82,2.71,12.22Z"/>
    <path class="cls-12" d="M220.68,550.23c-7.14-.9-13.91-.61-21.13-.48l-14.26.26c-1.39-1.04-1.51-2.86-1.76-4.88,4.28.56,8.71,1.82,12.96.52,2.71-.83-.43-7.46.56-8.6.56-.65,4.74-1.36,5.23-1.22.86.23,1.41,2.16,1.91,2.6,1.37.41,3.52.16,4.45,1.55.71,1.06.92,2.6.46,4.3.38.49,1.46,2.01,2.21,1.93l13.56-1.4c-.97,3.03-3.54,3.41-4.2,5.42Z"/>
    <path class="cls-26" d="M295.67,683.87l-18.88,5.76c-2.47-8.21,6.71-12.3,15.49-15.64,3.46,2.99,2.07,6.62,3.39,9.88Z"/>
    <path class="cls-17" d="M279.49,234.35c1.44,1.94.74,4.27.82,6.7.17,5.37,1.31,10.63-1.1,15.49-.46.92-.54,2.3-1.37,3.01-.65.55-1.86.07-2.47-.67-.78-.75-1.18-1.81-1.29-2.73.42-8.66.33-17.31,1.31-25.91.54-.04.79.35.84.72.06.49-.58,1.61-.44,1.89,1.25.68,3.08.9,3.7,1.5ZM275.6,255.06c.07-.02.31-.16.49-.45.06-1.2.27-2.5-.31-3.71l-.52.45c.03,1.19-.28,2.52.34,3.71Z"/>
    <path class="cls-23" d="M213.08,75.5c-.23-.4-1.7-1.17-1.4.11-2.42,2.59-6.2,2.72-9.34.7l-3.21.17c0-2.4-.19-4.95.64-7.84,5.92-.64,9.85,2.85,13.32,6.86Z"/>
    <path class="cls-14" d="M126.88,349.87c.16.81-.13,1.5-1.32,1.77.35,7.33-.73,14.66-4.76,12.19-1.95-1.2-1.49-4.11-2.81-3.99l1.27-6.7c1.13-6,4.41-.19,7.62-3.26Z"/>
    <path class="cls-23" d="M139.56,262.37c-.25.7-.23,1.94-1,2.76l-5.17-2.74c-2.7-1.44-4.53-3.69-7.27-6.04l-.08,3.8c-1.28-1.17-1.96-6.28-1.24-7.31.43-.61,1.2-1.72,2.17-1.53l8.61,8.04c1.36,1.27,1.85,3.3,3.99,3.01Z"/>
    <path class="cls-20" d="M140.06,282.76c-.93-.37-1.74-.84-3.3-.84-2.86-4.62-5.23-9.54-6.67-14.52,5.91,3.39,8.29,9.08,9.97,15.36Z"/>
    <path class="cls-9" d="M281.56,201.75l-1.04-7.97c.51-1.09-.17-2.88,1.57-3.87,1.6,5.2,1.32,9.98,2.11,15.24-.45,1.69-1.95,1.67-1.64.01-.16-.97.02-2.33.12-2.91.06-.35-.47-.89-1.12-.51Z"/>
    <path class="cls-12" d="M148.37,320.1c-2.47.06-4.72-1.4-6.7-3.33,2.4.04,4.93.17,6.7,3.33Z"/>
    <path class="cls-5" d="M116.76,296.05c4.75,3.12,2.37,9.93,7.05,14.69l-2.37,28.05-2.32,11.58c-.33,1.62-3.48,3.13-4.01,4.83l-3.41,11.01c-.43,1.4-2.95.74-3.88.35-1.93-.81-1.7-2.08-1.83-4.11-.36-6.09-1.07-11.63-.66-17.76-2.69.44-6.4,2.03-6.8,4.65l-2.25,14.45-1.83,12.39c2.11-.62,3.32-1.02,4.68-.22-.91.37-1.2.52-1.29.78-.16.49.31.94.48,1.35l-3.77,23.96-.45,14.34c-.73.27-1.24.17-1.66.14.03-6.02.44-12.19-.51-18.02l-1.32-8.06c-.68-4.15-.22-8.59-.66-13.06-.06-.29-.62-.4-.89-.19.03-4.02-.26-7.93-.08-12.34l1.06-25.37c.11-2.65.42-4.48.66-6.69l.96-8.84c.25-2.28,3.81-2.99,4.09-11.42-.14-.58.35-1.08.91-.95.44.1.89.19,1.18.04.4-.22.46-1.03.56-1.39.66-2.32,2.65-2.57,4.74-3.52l2.02-.92c.59-.27.7-1.79.08-2.48,4.27.89,6.07-2.98,7.34-6.2,1.66.41,3.16-.42,4.17-1.08Z"/>
    <path class="cls-23" d="M131.64,173.84c1.3-5.59,4.06-10.85,6.99-16.12l10.19-18.66c1.34,7.42-4.62,16.68-2.61,18.26.24.19.94-.07,1.17-.27l1.15-1.03,4.18-10.27c1.17-2.86,5.35-5.48,9.26-12.06l11.67-19.62c3.24-5.44,5.7-10.72,9.61-15.83,3.25-4.25,6.15-11.28,10.12-13.75l-1.61,3.37c-2,4.18-2.23,9.56-4.54,13.58-2.56,4.45-5.7,8.23-6.84,13.54-1.64,7.66-7.59,7.42-6.21,14.72.57,3-4.15,4.1-8.1,7.06-4.86,6.84-7.32,14.84-8.08,23.14-.3,3.25-2.79,5.66-5.21,6.64-2.57,1.03-5.24-.16-7.64-1.66l-5.34,8.73c-2.19,1.51-5.91,0-8.15.23Z"/>
    <path class="cls-18" d="M68.72,334.47c-1.79-.2-2.15,11.77-5.17,17.82-2.52,2.36-5.33,4.09-5.07,8.36l-1.9,8.24c-.09,6.82-3.03,15.1-6.75,14.13-.65-4.39,1.34-8.76,2.47-13.14,3.54-13.7,5.9-25.69,13.83-37.22,1.05.58,2.16.79,2.59,1.81Z"/>
    <path class="cls-17" d="M93.55,314.38c-.55,1.75-1.8,2.6-3.74,3.62l-1.17,3.3c-.94-.22-1.17-.65-1.28-1.38l-15.77,10.92c.51,2.67-1.27,3.81-2.86,3.64-.43-1.02-1.54-1.23-2.59-1.81,1.45-2.11,2.33-4.88,3.73-6.66,6.38-8.07,14.87-13.55,23.51-17.63-.64,1.78.02,4.11.17,6.01Z"/>
    <path class="cls-2" d="M96.66,311.59c-.56-.13-1.05.37-.91.95-.26-.25-1.48-.07-1.47.32.02.45-.56.97-.73,1.52-.15-1.9-.81-4.23-.17-6.01,1.95-5.42,3.5-10.94,6.98-16.58.03,6.06-1.22,14.52-3.7,19.81Z"/>
    <path class="cls-8" d="M112.59,297.12c-1.27,3.22-3.07,7.08-7.34,6.2l5.85-14.8,1.05-1.11c.33-.35,1.28-.13,1.25.59l-.81,9.12Z"/>
    <path class="cls-18" d="M349.1,349.36l-5.12-13.73c-2.7-7.25-5.24-13.58-9.41-20.08-5.73-8.95-12.04-21.18-19.63-27.03-2.79-2.15-2.83-6.44-2.7-9.74l10.63,8.98c4.01,3.56,6.56,7.69,9.11,12.34l8.98,16.36c3.27,5.95,4.49,12.18,5.75,18.96.91,4.87,3.41,9.25,2.39,13.95Z"/>
    <path class="cls-8" d="M312.24,278.78c-2.24.32-3.67,2.25-5.08,4.3l-4.13-3.92-4.36-9c-.6-1.18-2.37-1.93-2.51-3.27-.04-.36-.27-1.04-.45-1.32l-8.84-14.01c1.87.86,3.69,1.93,5.5,3.64l9.7,9.14,10.16,14.44Z"/>
    <path class="cls-6" d="M286.87,251.56l8.84,14.01c-.32.12-.98,1.08-1.18.87l-1.33-1.4c-.94-.99-1.77,1.47-1.7,2.42l-6.51-6.51c-1.77-1.77-2.11-4.23-3.11-6.17.31-2.07-.21-4.77,1.43-6.43.68,1.48,2.11,2.55,3.56,3.21Z"/>
    <path class="cls-11" d="M283.32,248.35c-1.63,1.66-1.12,4.36-1.43,6.43.59,1.95-1.46,2.5-2.13,3.76-1.32,2.46-.54,5.71-.2,7.98-1.4-1.54-2.26-3.77-1.1-6.04-1.81.31-2.31.11-2.85-.34-.37-.31-.29-.94-.24-1.26.61.74,1.82,1.22,2.47.67.83-.7.91-2.08,1.37-3.01,2.41-4.86,1.27-10.12,1.1-15.49-.08-2.44.62-4.77-.82-6.7.54.53,2.54.48,3.1-.22.38-.47.29-1.57,1.6-2.21,1.97,3.03,2.61,6.56,1.61,9.58-2.18,1.92-3.41,4.58-2.5,6.85Z"/>
    <path class="cls-19" d="M312.24,278.78c-.13,3.3-.09,7.59,2.7,9.74-.66.2-1.13-.02-1.67-.53.47,1.51.24,3.11-.89,4.19l-5.22-9.1c1.4-2.04,2.84-3.97,5.08-4.3Z"/>
    <path class="cls-10" d="M303.03,279.16c-1.23-1.16-2.2-1.93-4.02-2.89-2.08-1.11-2.85-4.09-4.17-5.43.82-1.44,1.4-2.51,1.32-3.95.13,1.33,1.9,2.09,2.51,3.27l4.36,9Z"/>
    <path class="cls-27" d="M295.71,265.57c.18.28.42.96.45,1.32.08,1.44-.49,2.51-1.32,3.95l-3.34-3.39c-.08-.94.76-3.41,1.7-2.42l1.33,1.4c.19.21.86-.76,1.18-.87Z"/>
    <path class="cls-18" d="M87.54,535.4l-3.66,22.22-8.05,39.84-1.27,7.83c-.35.11-1.04-1.1-1.42-.9s.93,1.81-1.34,1.65c.65-2.05.61-4.14-.63-5.04l7.66-39.96c2.3-11.57,4.11-22.86,7.08-33.83,1.03-.03.84.78.89,1.25.11,1-.44,1.93-.73,2.74-.74,2.03,0,3.81,1.47,4.2Z"/>
    <path class="cls-23" d="M96.49,507.69c.84,1.33,1.73,2.71,1.54,4.76l-1.32,13.95c-.11,1.19-.76,2.2-1.41,2.44-.74.28-1.51.11-2.12.03-.5-.59-1.27-2.01-2.06-2.3-1.17-.43-2.55.77-2.78,1.65-.59,2.21-.43,4.86-.81,7.18-1.47-.39-2.21-2.17-1.47-4.2.29-.81.84-1.74.73-2.74-.05-.47.14-1.29-.89-1.25-.16-.73-.18-2.05.11-2.84.26-.71,2.25-.58,3.24-.54,1.96-6.21,2.51-13.14,2.37-19.36,2.13.48,3.71,1.4,4.86,3.22Z"/>
    <path class="cls-8" d="M74.57,605.29l-7.59,33.34c-1.46,1.13-4.17,2.35-4.85,4.1l9.05-41.73c1.25.91,1.29,2.99.63,5.04,2.26.16.95-1.46,1.34-1.65s1.08,1.01,1.42.9Z"/>
    <path class="cls-18" d="M96.49,507.69c-1.15-1.82-2.72-2.75-4.86-3.22l-.08-3.51-.58-11.35c-.07-1.44-1.47-5.91.67-7.48.03,3.02.36,6.92,1.63,9.44l5.63,4.7c.06,4.09-1.27,7.8-2.41,11.42Z"/>
    <path class="cls-29" d="M83.43,478.55c1.75,1.03,2.8,2.65,2.54,5.22,2.53-1.8,1.54,1.85,3.58,5.01-1.05,1.22.71,2.15,1.43.82l.58,11.35c-4,.08-2.52-8.18-6.35-13.81.84-.17,1.71,1.28,3.03-.27-1.5-.58-2.55-1.05-3.41-2.21-.29-.16-.88.51-.68.98-2.08-1.3-3.26-3.63-2.08-6.79-.48,1.7.89.34.74.6-.51.91,1.27,1.44,1.11.86l-.48-1.78Z"/>
    <path class="cls-15" d="M85.2,487.14c-.28-.41-.42-1.09-1.06-1.49-.2-.47.39-1.14.68-.98.86,1.15,1.92,1.63,3.41,2.21-1.32,1.55-2.19.1-3.03.27Z"/>
    <path class="cls-12" d="M90.69,332.79c-.24,2.21-.55,4.04-.66,6.69l-1.06,25.37c-.18,4.41.1,8.32.08,12.34l-.08,13.17.2,34.18c0,.42,1.69.37,1.68-.22l.3-1.33c.05,3.51,1.26,7.39-.05,10.82-.24-1.39.12-2.92-.77-4.22l-.84,4.07.82,26.96,1.15,2.97.18,18.52c-2.13,1.57-.74,6.03-.67,7.48-.71,1.33-2.48.4-1.43-.82-2.04-3.16-1.04-6.81-3.58-5.01.26-2.57-.79-4.19-2.54-5.22-.61-2.25.88-4.83,1.87-7.62.43.43.69-.09.23-.58.82-2.72,1.07-6.04-.33-9.07-.32-.71-2.4.19-2.66,1.3l-.53,2.28c-4.97-1.19-11.61-2.97-14.52-7.54-.42-18.6,1.09-36.86,4.25-54.85l4.01-22.77,5.27-21.16c3.68-3.75,4.4-8.41,5.84-13.09,2.68-5.9,1.16-13.29,3.83-12.66Z"/>
    <path class="cls-11" d="M85.54,470.35c-.12-.57-.05-2.09-1.26-1.95-1.76-.07-2.55-2.31-2.26-3.55l.53-2.28c.26-1.11,2.34-2.01,2.66-1.3,1.4,3.04,1.15,6.36.33,9.07Z"/>
    <path class="cls-4" d="M89.96,535.5l-2.07,14.75c-1.26.31-1.28-1.17-.03-1.42-.49-1.83-1.77-1.1-1.24.76-.24,2.19-1.96,4.86-.97,7.08.81,0,.64.7.48,1.02l-2.25-.07,3.66-22.22c.38-2.32.23-4.97.81-7.18.29-.05.98-.25,1.65-.02l-.04,7.3Z"/>
    <path class="cls-12" d="M80.11,597.67l-2,13.21c-1.73.42-2-3.62-.25-6.65-1.42-.22-1.65.34-2.74.9,1.06-2.5,1-4.02,1.11-6.75,1.12,1.32.62,2.52.95,4.76,1.18-2.11,1.44-4.28,1.4-7.09,1.13.09.91.95.81,1.24-.09.26.54.66.72.39Z"/>
    <path class="cls-11" d="M73.47,617.53c1.09,1.77-.34,2.37-.69,2.01-.72-1.56.4-2.14.69-2.01Z"/>
    <path class="cls-16" d="M92.44,416.52l-.16,33.63c-.02,3.75-.66,7.51-1.96,10.48l-.82-26.96.72,3.48c1.18-.96.55-2.44.89-3.34,1.3-3.42.1-7.31.05-10.82l-.31-22.6c.79-.47,1.03-1.31,1.09-1.89.96,5.83.54,12,.51,18.02ZM91.12,453.49c.62-.26.73-.57.56-1.32-.09-.81.47-2-.38-2.87,0,0-.22.19-.52.45.08,1.17-.3,2.56.34,3.75Z"/>
    <path class="cls-7" d="M98.32,378.08c-.17-.41-.64-.86-.48-1.35.09-.26.38-.41,1.29-.78-1.36-.8-2.57-.41-4.68.22l1.83-12.39c0,.36.4.81.66.82s1.11-.74,1.35-.62c.99.52.51,2.27.38,3.39l2.77-3.51c.41,4.15.37,7.66-.13,11.14-1.52.62-2,2.47-2.99,3.07Z"/>
    <path class="cls-24" d="M93.18,528.86c-1.78,3.11-1.16,6.23-3.23,6.64l.04-7.3c-.67-.23-1.37-.03-1.65.02.23-.88,1.61-2.08,2.78-1.65.79.29,1.55,1.71,2.06,2.3Z"/>
    <path class="cls-21" d="M101.04,349.38c1.6-.37,2.27,6.92,1.81,7.39-.67.69-1.84,1.23-2.96,1.21l1.15-8.6Z"/>
    <path class="cls-27" d="M87.88,550.24c-.31,2.17-.17,4.62-2.24,6.43-1-2.23.72-4.9.97-7.08-.52-1.86.76-2.59,1.24-.76-1.25.25-1.23,1.73.03,1.42Z"/>
    <path class="cls-23" d="M275.6,255.06c-.62-1.19-.31-2.52-.34-3.71l.52-.45c.58,1.21.37,2.51.31,3.71-.17.28-.41.42-.49.45Z"/>
    <path class="cls-13" d="M91.93,398.5c-.06.58-.3,1.42-1.09,1.89l.31,22.6-.3,1.33c0,.6-1.68.64-1.68.22l-.2-34.18.08-13.17c.27-.21.84-.1.89.19.44,4.47-.02,8.91.66,13.06l1.32,8.06Z"/>
    <path class="cls-4" d="M91.11,433.81c-.34.9.29,2.38-.89,3.34l-.72-3.48.84-4.07c.89,1.3.53,2.82.77,4.22Z"/>
    <path class="cls-4" d="M91.12,453.49c-.64-1.19-.27-2.58-.34-3.75.3-.26.51-.45.52-.45.86.88.3,2.07.38,2.87.17.76.06,1.06-.56,1.32Z"/>
  </g>
</svg>