<?xml version="1.0" encoding="UTF-8"?>
<svg id="Réteg_1" xmlns="http://www.w3.org/2000/svg" version="1.1" viewBox="0 0 154 187">
  <!-- Generator: Adobe Illustrator 30.4.0, SVG Export Plug-In . SVG Version: 2.1.4 Build 226)  -->
  <defs>
    <style>
      .st0 {
        fill: #dfdbd1;
      }
    </style>
  </defs>
  <path class="st0" d="M145.2,170.2c0-1.8,1.4-3.2,3.2-3.3v-4.9c-1.8,0-3.2-1.5-3.2-3.3s1.4-3.2,3.2-3.3v-3.4c-1.8,0-3.2-1.5-3.2-3.3s1.4-3.2,3.2-3.3v-4.7c-1.8,0-3.2-1.5-3.2-3.3s1.4-3.2,3.2-3.3v-4.4c-1.8,0-3.2-1.5-3.2-3.3s1.4-3.2,3.2-3.3v-4.4c-1.8,0-3.2-1.5-3.2-3.3s1.4-3.2,3.2-3.3v-4.4c-1.8,0-3.2-1.5-3.2-3.3s1.4-3.2,3.2-3.3v-4.4c-1.8,0-3.2-1.5-3.2-3.3s1.4-3.2,3.2-3.3v-4.4c-1.8,0-3.2-1.5-3.2-3.3s1.4-3.2,3.2-3.3v-4.4c-1.8,0-3.2-1.5-3.2-3.3s1.4-3.2,3.2-3.3v-4.4c-1.8,0-3.2-1.5-3.2-3.3s1.4-3.2,3.2-3.3v-4.4c-1.8,0-3.2-1.5-3.2-3.3s1.4-3.2,3.2-3.3v-4.4c-1.8,0-3.2-1.5-3.2-3.3s1.4-3.2,3.2-3.3v-4.4c-1.8,0-3.2-1.5-3.2-3.3s1.4-3.2,3.2-3.3v-4.4c-1.8,0-3.2-1.5-3.2-3.3s1.4-3.2,3.2-3.3v-4.8c-1.8,0-3.2-1.5-3.2-3.3s0,0,0,0h-4.4c0,1.8-1.5,3.3-3.3,3.3s-3.3-1.5-3.3-3.3,0,0,0,0h-4.4c0,1.8-1.5,3.3-3.3,3.3s-3.3-1.5-3.3-3.3,0,0,0,0h-4.4c0,1.8-1.5,3.3-3.3,3.3s-3.3-1.5-3.3-3.3,0,0,0,0h-4.4c0,1.8-1.5,3.3-3.3,3.3s-3.3-1.5-3.3-3.3,0,0,0,0h-4.4c0,1.8-1.5,3.3-3.3,3.3s-3.3-1.5-3.3-3.3,0,0,0,0h-4.4c0,1.8-1.5,3.3-3.3,3.3s-3.3-1.5-3.3-3.3,0,0,0,0h-4.4c0,1.8-1.5,3.3-3.3,3.3s-3.3-1.5-3.3-3.3,0,0,0,0h-4.4c0,1.8-1.5,3.3-3.3,3.3s-3.3-1.5-3.3-3.3,0,0,0,0h-4.4c0,1.8-1.5,3.3-3.3,3.3s-3.3-1.5-3.3-3.3,0,0,0,0h-4.4c0,1.8-1.5,3.3-3.3,3.3s-3.3-1.5-3.3-3.3,0,0,0,0h-4.4c0,1.8-1.5,3.3-3.3,3.3s-3.3-1.5-3.3-3.3,0,0,0,0h-4.4c0,1.8-1.5,3.3-3.3,3.3s-3.3-1.5-3.3-3.3,0,0,0,0h-4.4c0,1.8-1.4,3.3-3.2,3.3v4.8c1.8,0,3.2,1.5,3.2,3.3s-1.4,3.3-3.2,3.3v4.4c1.8,0,3.2,1.5,3.2,3.3s-1.4,3.3-3.2,3.3v4.4c1.8,0,3.2,1.5,3.2,3.3s-1.4,3.3-3.2,3.3v4.4c1.8,0,3.2,1.5,3.2,3.3s-1.4,3.3-3.2,3.3v4.4c1.8,0,3.2,1.5,3.2,3.3s-1.4,3.3-3.2,3.3v4.4c1.8,0,3.2,1.5,3.2,3.3s-1.4,3.3-3.2,3.3v4.4c1.8,0,3.2,1.5,3.2,3.3s-1.4,3.3-3.2,3.3v4.4c1.8,0,3.2,1.5,3.2,3.3s-1.4,3.3-3.2,3.3v4.4c1.8,0,3.2,1.5,3.2,3.3s-1.4,3.3-3.2,3.3v4.4c1.8,0,3.2,1.5,3.2,3.3s-1.4,3.3-3.2,3.3v4.5c1.8,0,3.2,1.5,3.2,3.3s-1.4,3.3-3.2,3.3v4.4c1.8,0,3.2,1.5,3.2,3.3s-1.4,3.3-3.2,3.3v4.7c1.8,0,3.2,1.5,3.2,3.3s-1.4,3.3-3.2,3.3v3.4c1.8,0,3.2,1.5,3.2,3.3s-1.4,3.3-3.2,3.3v4.9c1.8,0,3.2,1.5,3.2,3.3s-1.4,3.3-3.2,3.3v5.1c1.8,0,3.2,1.5,3.2,3.3s0,0,0,0h4.4c0-1.8,1.5-3.3,3.3-3.3s3.3,1.5,3.3,3.3,0,0,0,0h4.4c0-1.8,1.5-3.3,3.3-3.3s3.3,1.5,3.3,3.3,0,0,0,0h4.4c0-1.8,1.5-3.3,3.3-3.3s3.3,1.5,3.3,3.3,0,0,0,0h4.4c0-1.8,1.5-3.3,3.3-3.3s3.3,1.5,3.3,3.3,0,0,0,0h4.4c0-1.8,1.5-3.3,3.3-3.3s3.3,1.5,3.3,3.3,0,0,0,0h4.4c0-1.8,1.5-3.3,3.3-3.3s3.3,1.5,3.3,3.3,0,0,0,0h4.4c0-1.8,1.5-3.3,3.3-3.3s3.3,1.5,3.3,3.3,0,0,0,0h4.4c0-1.8,1.5-3.3,3.3-3.3s3.3,1.5,3.3,3.3,0,0,0,0h4.4c0-1.8,1.5-3.3,3.3-3.3s3.3,1.5,3.3,3.3,0,0,0,0h4.4c0-1.8,1.5-3.3,3.3-3.3s3.3,1.5,3.3,3.3,0,0,0,0h4.4c0-1.8,1.5-3.3,3.3-3.3s3.3,1.5,3.3,3.3,0,0,0,0h4.4c0-1.8,1.5-3.3,3.3-3.3s3.3,1.5,3.3,3.3,0,0,0,0h4.4c0-1.8,1.4-3.3,3.2-3.3v-5.1c-1.8,0-3.2-1.5-3.2-3.3h0Z"/>
</svg>