<?xml version="1.0" encoding="UTF-8"?>
<svg id="Réteg_1" xmlns="http://www.w3.org/2000/svg" version="1.1" xmlns:xlink="http://www.w3.org/1999/xlink" viewBox="0 0 112 156">
  <!-- Generator: Adobe Illustrator 30.3.0, SVG Export Plug-In . SVG Version: 2.1.3 Build 182)  -->
  <defs>
    <style>
      .st0 {
        fill: #dd8e06;
        stroke: #171717;
        stroke-width: 3px;
      }

      .st1 {
        font-size: 11px;
      }

      .st1, .st2 {
        font-family: OldEnglishTextMT, 'Old English Text MT';
      }

      .st3 {
        display: none;
        isolation: isolate;
      }

      .st4 {
        opacity: .4;
      }

      .st5 {
        fill: #969696;
      }

      .st6 {
        fill: none;
        stroke-width: 2px;
      }

      .st6, .st7 {
        stroke: #dedbd0;
      }

      .st7 {
        fill: #ce8ab2;
        stroke-miterlimit: 10;
      }

      .st2 {
        fill: #dedbd0;
        font-size: 29px;
      }
    </style>
  </defs>
  <rect class="st0" x="4" y="4" width="104" height="148" rx="10" ry="10"/>
  <rect class="st6" x="10" y="10" width="92" height="136" rx="7" ry="7"/>
  <circle class="st7" cx="56" cy="69.4" r="46"/>
  <image width="71" height="70" transform="translate(24.5 38.7) scale(.9)" xlink:href="stamp_base-1.png"/>
  <text class="st2" transform="translate(13 33.7)"><tspan x="0" y="0">5</tspan></text>
  <g class="st4">
    <circle class="st5" cx="27.1" cy="40.5" r="1"/>
    <circle class="st5" cx="27.1" cy="98.4" r="1"/>
    <circle class="st5" cx="27.1" cy="83.9" r="1"/>
    <circle class="st5" cx="27.1" cy="69.4" r="1"/>
    <circle class="st5" cx="27.1" cy="55" r="1"/>
    <circle class="st5" cx="41.7" cy="40.5" r="1"/>
    <circle class="st5" cx="41.7" cy="98.4" r="1"/>
    <circle class="st5" cx="41.7" cy="83.9" r="1"/>
    <circle class="st5" cx="41.7" cy="69.4" r="1"/>
    <circle class="st5" cx="41.7" cy="55" r="1"/>
    <circle class="st5" cx="56.3" cy="40.5" r="1"/>
    <circle class="st5" cx="56.3" cy="98.4" r="1"/>
    <circle class="st5" cx="56.3" cy="83.9" r="1"/>
    <circle class="st5" cx="56.3" cy="69.4" r="1"/>
    <circle class="st5" cx="56.3" cy="55" r="1"/>
    <circle class="st5" cx="70.1" cy="40.5" r="1"/>
    <circle class="st5" cx="70.1" cy="98.4" r="1"/>
    <circle class="st5" cx="70.1" cy="83.9" r="1"/>
    <circle class="st5" cx="70.1" cy="69.4" r="1"/>
    <circle class="st5" cx="70.1" cy="55" r="1"/>
    <circle class="st5" cx="84.9" cy="40.5" r="1"/>
    <circle class="st5" cx="84.9" cy="98.4" r="1"/>
    <circle class="st5" cx="84.9" cy="83.9" r="1"/>
    <circle class="st5" cx="84.9" cy="69.4" r="1"/>
    <circle class="st5" cx="84.9" cy="55" r="1"/>
  </g>
  <text class="st1" transform="translate(10.9 130.3)"><tspan x="0" y="0">Silver General</tspan></text>
  <image class="st3" width="326" height="409" transform="translate(-7.7 -.4) scale(.4)" xlink:href="../../../../Pictures/Screenshots/Képernyőkép 2026-03-29 121926.png"/>
</svg>