<?xml version="1.0" encoding="UTF-8"?>
<svg xmlns="http://www.w3.org/2000/svg" version="1.1" viewBox="0 0 103.8 140.9">
  <path fill="#e0dcd2" d="M101.5,120.8c0-1.3,1-2.3,2.3-2.4v-3.6c-1.3,0-2.3-1.1-2.3-2.4s1-2.3,2.3-2.4v-2.5c-1.3,0-2.3-1.1-2.3-2.4s1-2.3,2.3-2.4v-3.4c-1.3,0-2.3-1.1-2.3-2.4s1-2.3,2.3-2.4v-3.2c-1.3,0-2.3-1.1-2.3-2.4s1-2.3,2.3-2.4v-3.2c-1.3,0-2.3-1.1-2.3-2.4s1-2.3,2.3-2.4v-3.2c-1.3,0-2.3-1.1-2.3-2.4s1-2.3,2.3-2.4v-3.2c-1.3,0-2.3-1.1-2.3-2.4s1-2.3,2.3-2.4v-3.2c-1.3,0-2.3-1.1-2.3-2.4s1-2.3,2.3-2.4v-3.2c-1.3,0-2.3-1.1-2.3-2.4s1-2.3,2.3-2.4v-3.2c-1.3,0-2.3-1.1-2.3-2.4s1-2.3,2.3-2.4v-3.2c-1.3,0-2.3-1.1-2.3-2.4s1-2.3,2.3-2.4v-3.2c-1.3,0-2.3-1.1-2.3-2.4s1-2.3,2.3-2.4v-3.2c-1.3,0-2.3-1.1-2.3-2.4s1-2.3,2.3-2.4v-3.2c-1.3,0-2.3-1.1-2.3-2.4s1-2.3,2.3-2.4v-3.5c-1.3,0-2.3-1.1-2.3-2.4s0,0,0,0h-3.2c0,1.3-1.1,2.4-2.4,2.4s-2.4-1.1-2.4-2.4,0,0,0,0h-3.2c0,1.3-1.1,2.4-2.4,2.4s-2.4-1.1-2.4-2.4,0,0,0,0h-3.2c0,1.3-1.1,2.4-2.4,2.4s-2.4-1.1-2.4-2.4,0,0,0,0h-3.2c0,1.3-1.1,2.4-2.4,2.4s-2.4-1.1-2.4-2.4,0,0,0,0h-3.2c0,1.3-1.1,2.4-2.4,2.4s-2.4-1.1-2.4-2.4,0,0,0,0h-3.2c0,1.3-1.1,2.4-2.4,2.4s-2.4-1.1-2.4-2.4,0,0,0,0h-3.2c0,1.3-1.1,2.4-2.4,2.4s-2.4-1.1-2.4-2.4,0,0,0,0h-3.2c0,1.3-1.1,2.4-2.4,2.4s-2.4-1.1-2.4-2.4,0,0,0,0h-3.2c0,1.3-1.1,2.4-2.4,2.4s-2.4-1.1-2.4-2.4,0,0,0,0h-3.2c0,1.3-1.1,2.4-2.4,2.4s-2.4-1.1-2.4-2.4,0,0,0,0h-3.2c0,1.3-1.1,2.4-2.4,2.4s-2.4-1.1-2.4-2.4,0,0,0,0h-3.2c0,1.3-1.1,2.4-2.4,2.4s-2.4-1.1-2.4-2.4,0,0,0,0h-3.2c0,1.3-1,2.4-2.3,2.4v3.5c1.3,0,2.3,1.1,2.3,2.4s-1,2.4-2.3,2.4v3.2c1.3,0,2.3,1.1,2.3,2.4s-1,2.4-2.3,2.4v3.2c1.3,0,2.3,1.1,2.3,2.4s-1,2.4-2.3,2.4v3.2c1.3,0,2.3,1.1,2.3,2.4s-1,2.4-2.3,2.4v3.2c1.3,0,2.3,1.1,2.3,2.4s-1,2.4-2.3,2.4v3.2c1.3,0,2.3,1.1,2.3,2.4s-1,2.4-2.3,2.4v3.2c1.3,0,2.3,1.1,2.3,2.4s-1,2.4-2.3,2.4v3.2c1.3,0,2.3,1.1,2.3,2.4s-1,2.4-2.3,2.4v3.2c1.3,0,2.3,1.1,2.3,2.4s-1,2.4-2.3,2.4v3.2c1.3,0,2.3,1.1,2.3,2.4s-1,2.4-2.3,2.4v3.3c1.3,0,2.3,1.1,2.3,2.4s-1,2.4-2.3,2.4v3.2c1.3,0,2.3,1.1,2.3,2.4s-1,2.4-2.3,2.4v3.4c1.3,0,2.3,1.1,2.3,2.4s-1,2.4-2.3,2.4v2.5c1.3,0,2.3,1.1,2.3,2.4s-1,2.4-2.3,2.4v3.6c1.3,0,2.3,1.1,2.3,2.4s-1,2.4-2.3,2.4v3.7c1.3,0,2.3,1.1,2.3,2.4s0,0,0,0h3.2c0-1.3,1.1-2.4,2.4-2.4s2.4,1.1,2.4,2.4,0,0,0,0h3.2c0-1.3,1.1-2.4,2.4-2.4s2.4,1.1,2.4,2.4,0,0,0,0h3.2c0-1.3,1.1-2.4,2.4-2.4s2.4,1.1,2.4,2.4,0,0,0,0h3.2c0-1.3,1.1-2.4,2.4-2.4s2.4,1.1,2.4,2.4,0,0,0,0h3.2c0-1.3,1.1-2.4,2.4-2.4s2.4,1.1,2.4,2.4,0,0,0,0h3.2c0-1.3,1.1-2.4,2.4-2.4s2.4,1.1,2.4,2.4,0,0,0,0h3.2c0-1.3,1.1-2.4,2.4-2.4s2.4,1.1,2.4,2.4,0,0,0,0h3.2c0-1.3,1.1-2.4,2.4-2.4s2.4,1.1,2.4,2.4,0,0,0,0h3.2c0-1.3,1.1-2.4,2.4-2.4s2.4,1.1,2.4,2.4,0,0,0,0h3.2c0-1.3,1.1-2.4,2.4-2.4s2.4,1.1,2.4,2.4,0,0,0,0h3.2c0-1.3,1.1-2.4,2.4-2.4s2.4,1.1,2.4,2.4,0,0,0,0h3.2c0-1.3,1.1-2.4,2.4-2.4s2.4,1.1,2.4,2.4,0,0,0,0h3.2c0-1.3,1-2.4,2.3-2.4v-3.7c-1.3,0-2.3-1.1-2.3-2.4h0Z"/>
  <rect fill="#dd8f04" x="10.6" y="9.4" width="82.5" height="110.7"/>
</svg>
