<?xml version="1.0" encoding="UTF-8"?>
<svg id="Réteg_1" xmlns="http://www.w3.org/2000/svg" version="1.1" viewBox="0 0 112 156">
  <!-- Generator: Adobe Illustrator 30.3.0, SVG Export Plug-In . SVG Version: 2.1.3 Build 182)  -->
  <defs>
    <style>
      .st0 {
        fill: #dedbd0;
      }

      .st1 {
        fill: #dd8e03;
      }
    </style>
  </defs>
  <rect class="st1" x="4" y="4" width="104" height="148" rx="10" ry="10"/>
  <path class="st0" d="M95,146.5H17c-4.1,0-7.5-3.4-7.5-7.5V17c0-4.1,3.4-7.5,7.5-7.5h78c4.1,0,7.5,3.4,7.5,7.5v122c0,4.1-3.4,7.5-7.5,7.5ZM17,10.5c-3.6,0-6.5,2.9-6.5,6.5v122c0,3.6,2.9,6.5,6.5,6.5h78c3.6,0,6.5-2.9,6.5-6.5V17c0-3.6-2.9-6.5-6.5-6.5H17Z"/>
</svg>