<?xml version="1.0" encoding="UTF-8"?>
<svg id="Réteg_1" data-name="Réteg 1" xmlns="http://www.w3.org/2000/svg" xmlns:xlink="http://www.w3.org/1999/xlink" viewBox="0 0 112 156">
  <defs>
    <style>
      .cls-1 {
        letter-spacing: -.03em;
      }

      .cls-2 {
        fill: #343330;
      }

      .cls-3 {
        font-size: 11px;
      }

      .cls-3, .cls-4 {
        font-family: Rosemartin, Rosemartin;
      }

      .cls-3, .cls-5 {
        fill: #dfdbd1;
      }

      .cls-3, .cls-5, .cls-6 {
        isolation: isolate;
      }

      .cls-7, .cls-8 {
        fill: #bf80a4;
      }

      .cls-9 {
        letter-spacing: -.06em;
      }

      .cls-10, .cls-11 {
        fill: none;
      }

      .cls-12 {
        letter-spacing: -.04em;
      }

      .cls-4 {
        fill: #191919;
        font-size: 3px;
      }

      .cls-5 {
        font-family: OldEnglishTextMT, 'Old English Text MT';
        font-size: 29px;
      }

      .cls-11, .cls-8 {
        stroke: #dedbd0;
      }

      .cls-13 {
        letter-spacing: 0em;
      }

      .cls-14 {
        letter-spacing: 0em;
      }

      .cls-15 {
        letter-spacing: -.03em;
      }

      .cls-8 {
        stroke-miterlimit: 10;
        stroke-width: .5px;
      }

      .cls-16 {
        letter-spacing: -.02em;
      }

      .cls-17 {
        letter-spacing: -.01em;
      }

      .cls-18 {
        letter-spacing: -.04em;
      }

      .cls-19 {
        letter-spacing: -.04em;
      }

      .cls-20 {
        fill: #dd8e03;
      }

      .cls-21 {
        letter-spacing: -.04em;
      }

      .cls-22 {
        clip-path: url(#clippath);
      }

      .cls-23 {
        letter-spacing: -.02em;
      }
    </style>
    <clipPath id="clippath">
      <path class="cls-10" d="M53.81,13.21c4.14,0,12.51,8.44,16.15,10.54,17.47,10.07,31.7,24.32,31.7,45.51,0,25.34-20.47,45.88-45.72,45.88S10.23,94.59,10.23,69.25c0-19.48,12.39-33.25,26.26-45.24,5.24-4.54,11.48-10.8,17.32-10.8Z"/>
    </clipPath>
  </defs>
  <rect class="cls-20" x="4" y="4" width="104" height="148" rx="10" ry="10"/>
  <rect class="cls-11" x="10" y="10" width="92" height="136" rx="7" ry="7"/>
  <circle class="cls-8" cx="56" cy="69.4" r="46"/>
  <g class="cls-6">
    <text class="cls-5" transform="translate(13 33.7)"><tspan x="0" y="0">5</tspan></text>
  </g>
  <g class="cls-6">
    <text class="cls-3" transform="translate(14.38 129.22)"><tspan x="0" y="0">Sil</tspan><tspan class="cls-16" x="14.16" y="0">v</tspan><tspan class="cls-14" x="21.81" y="0">er Gene</tspan><tspan class="cls-23" x="68.11" y="0">r</tspan><tspan x="73.24" y="0">al</tspan></text>
  </g>
  <text class="cls-4" transform="translate(14.51 135.93)"><tspan x="0" y="0">A</tspan><tspan class="cls-18" x="2.52" y="0"> </tspan><tspan x="3.18" y="0">King</tspan><tspan class="cls-18" x="10.83" y="0"> </tspan><tspan x="11.49" y="0">ca</tspan><tspan class="cls-17" x="15.26" y="0">r</tspan><tspan x="16.66" y="0">d.</tspan><tspan class="cls-19" x="19.58" y="0"> </tspan><tspan class="cls-9" x="20.25" y="0">K</tspan><tspan x="22.48" y="0">eep</tspan><tspan class="cls-18" x="28.37" y="0"> </tspan><tspan class="cls-1" x="29.03" y="0">a</tspan><tspan x="30.83" y="0">t</tspan><tspan class="cls-18" x="32.39" y="0"> </tspan><tspan x="33.05" y="0">lea</tspan><tspan class="cls-17" x="37.64" y="0">s</tspan><tspan x="39.43" y="0">t</tspan><tspan class="cls-19" x="40.99" y="0"> </tspan><tspan class="cls-13" x="41.66" y="0">one</tspan><tspan class="cls-19" x="47.71" y="0"> </tspan><tspan x="48.37" y="0">King</tspan><tspan class="cls-19" x="56.02" y="0" xml:space="preserve"> a</tspan><tspan class="cls-15" x="58.45" y="0">v</tspan><tspan x="60.5" y="0">ailable</tspan><tspan class="cls-12" x="70.81" y="0"> </tspan><tspan x="71.47" y="0">to</tspan><tspan class="cls-19" x="75.07" y="0"> </tspan><tspan class="cls-17" x="75.73" y="0">s</tspan><tspan x="77.52" y="0">t</tspan><tspan class="cls-21" x="79.08" y="0">a</tspan><tspan x="80.84" y="0">y </tspan><tspan x="0" y="3.6">in the </tspan><tspan class="cls-17" x="10.13" y="3.6">g</tspan><tspan x="12.32" y="3.6">ame. This ca</tspan><tspan class="cls-17" x="32.69" y="3.6">r</tspan><tspan x="34.09" y="3.6">d is i</tspan><tspan class="cls-1" x="41.31" y="3.6">n</tspan><tspan x="43.37" y="3.6">visible to ene</tspan><tspan class="cls-1" x="64.93" y="3.6">m</tspan><tspan x="68.03" y="3.6">y.</tspan></text>
  <path class="cls-2" d="M91.91,16.41c-.65,0-1.22.24-1.61.63v-1.22h.59c.08,0,.15-.03.21-.09.05-.05.09-.13.09-.21s-.03-.15-.09-.21c-.05-.05-.13-.09-.21-.09h-.59v-.59c0-.08-.03-.15-.09-.21-.05-.05-.13-.09-.21-.09s-.15.03-.21.09c-.05.05-.09.13-.09.21v.59h-.59c-.08,0-.15.03-.21.09-.05.05-.09.13-.09.21s.03.15.09.21c.05.05.13.09.21.09h.59v1.22c-.4-.39-.96-.63-1.61-.63-.58,0-1.14.23-1.55.64-.41.41-.64.97-.64,1.55,0,1.09.53,1.79.98,2.18.23.2.5.38.78.51v.68c0,.16.06.3.17.41.11.11.26.17.41.17h3.52c.16,0,.3-.06.41-.17.11-.11.17-.26.17-.41v-.68c.28-.13.54-.3.78-.51.45-.39.98-1.09.98-2.18,0-.58-.23-1.14-.64-1.55-.41-.41-.97-.64-1.55-.64ZM91.97,20.82c-.06.02-.11.06-.15.11-.04.05-.06.11-.06.17v.88h-3.52v-.88c0-.06-.02-.12-.06-.17-.04-.05-.09-.09-.15-.11-.02,0-1.56-.54-1.56-2.21,0-.43.17-.84.47-1.14.3-.3.71-.47,1.14-.47.93,0,1.61.62,1.61,1.47v2.35c0,.08.03.15.09.21s.13.09.21.09.15-.03.21-.09.09-.13.09-.21v-2.35c0-.85.68-1.47,1.61-1.47.43,0,.84.17,1.14.47.3.3.47.71.47,1.14,0,1.66-1.5,2.19-1.56,2.21Z"/>
  <polygon class="cls-7" points="44.36 25.8 45.38 24.09 46.47 23.09 48.17 22.55 48.28 21.7 47.25 20.02 47.2 19.28 47.86 18.64 48.17 17.89 48.43 17.03 49.36 16.44 50.41 16.84 51.42 17.31 52.06 18.19 52.86 19.02 53.5 19.21 54.68 20.04 53.83 21.24 53.57 23.05 54.54 23.62 56 24.52 57.19 26.25 57.81 27.72 44.36 25.8"/>
  <g class="cls-22">
    <image width="594" height="825" transform="translate(-5.23 -3.26) scale(.2)" xlink:href="A:\Dávid\Projektek\stamp_game\silver_general.png"/>
  </g>
</svg>