<?xml version="1.0" encoding="UTF-8"?>
<svg id="Réteg_1" xmlns="http://www.w3.org/2000/svg" version="1.1" xmlns:xlink="http://www.w3.org/1999/xlink" viewBox="0 0 112 156">
  <!-- Generator: Adobe Illustrator 30.3.0, SVG Export Plug-In . SVG Version: 2.1.3 Build 182)  -->
  <defs>
    <style>
      .st0 {
        fill: none;
      }

      .st1 {
        clip-path: url(#clippath-1);
      }

      .st2 {
        fill: #3f2948;
      }

      .st3 {
        fill: #ff8b72;
      }

      .st4 {
        clip-path: url(#clippath-2);
      }

      .st5 {
        clip-path: url(#clippath);
      }
    </style>
    <clipPath id="clippath">
      <rect class="st0" x="4" y="4" width="104" height="148" rx="10" ry="10"/>
    </clipPath>
    <clipPath id="clippath-1">
      <rect class="st0" x="-55.7" y="82.1" width="301.9" height="243.2"/>
    </clipPath>
    <clipPath id="clippath-2">
      <rect class="st0" x="-55.7" y="-161.1" width="301.9" height="243.2"/>
    </clipPath>
  </defs>
  <g class="st5">
    <g class="st1">
      <g>
        <rect class="st0" x="-55.7" y="82.1" width="301.9" height="243.2"/>
        <g>
          <rect class="st2" x="208.5" y="268.6" width="75.5" height="81.1"/>
          <path class="st3" d="M270.6,352c-1.5,0-3,.3-4.4.7,1.2-2.7,1.8-5.6,1.8-8.7,0-12-9.8-21.8-21.7-21.8h0c-10.3,0-18.8-8.4-18.8-18.8s8.4-18.8,18.8-18.8v-3c-4.1,0-7.9,1.1-11.2,3.1.2-.9.3-1.8.3-2.7,0-7.4-6-13.4-13.4-13.4v3c5.8,0,10.4,4.7,10.4,10.4s-4.7,10.4-10.4,10.4-10.4-4.7-10.4-10.4,0-.3,0-.4h-3v.4c0,7.4,6,13.4,13.4,13.4s3-.3,4.4-.7c-1.2,2.7-1.8,5.6-1.8,8.7,0,12,9.8,21.8,21.7,21.8h0c10.3,0,18.8,8.4,18.8,18.8s-8.4,18.8-18.8,18.8v3c4.1,0,7.9-1.1,11.2-3.1-.2.9-.3,1.8-.3,2.7,0,7.4,6,13.4,13.4,13.4v-3c-5.8,0-10.4-4.7-10.4-10.4s4.7-10.4,10.4-10.4,10.4,4.7,10.4,10.4,0,.3,0,.4h3v-.4c0-7.4-6-13.4-13.4-13.4Z"/>
        </g>
        <g>
          <rect class="st2" x="57.5" y="309.1" width="75.5" height="81.1"/>
          <path class="st3" d="M119.6,392.6c-1.5,0-3,.3-4.4.7,1.2-2.7,1.8-5.6,1.8-8.7,0-12-9.8-21.8-21.7-21.8h0c-10.3,0-18.8-8.4-18.8-18.8s8.4-18.8,18.8-18.8v-3c-4.1,0-7.9,1.1-11.2,3.1.2-.9.3-1.8.3-2.7,0-7.4-6-13.4-13.4-13.4v3c5.8,0,10.4,4.7,10.4,10.4s-4.7,10.4-10.4,10.4-10.4-4.7-10.4-10.4,0-.3,0-.4h-3v.4c0,7.4,6,13.4,13.4,13.4s3-.3,4.4-.7c-1.2,2.7-1.8,5.6-1.8,8.7,0,12,9.8,21.8,21.7,21.8h0c10.3,0,18.8,8.4,18.8,18.8s-8.4,18.8-18.8,18.8v3c4.1,0,7.9-1.1,11.2-3.1-.2.9-.3,1.8-.3,2.7,0,7.4,6,13.4,13.4,13.4v-3c-5.8,0-10.4-4.7-10.4-10.4s4.7-10.4,10.4-10.4,10.4,4.7,10.4,10.4,0,.3,0,.4h3v-.4c0-7.4-6-13.4-13.4-13.4Z"/>
        </g>
        <g>
          <rect class="st2" x="-18" y="288.8" width="75.5" height="81.1"/>
          <path class="st3" d="M44.1,372.3c-1.5,0-3,.3-4.4.7,1.2-2.7,1.8-5.6,1.8-8.7,0-12-9.8-21.8-21.7-21.8h0c-10.3,0-18.8-8.4-18.8-18.8s8.4-18.8,18.8-18.8v-3c-4.1,0-7.9,1.1-11.2,3.1.2-.9.3-1.8.3-2.7,0-7.4-6-13.4-13.4-13.4v3c5.8,0,10.4,4.7,10.4,10.4s-4.7,10.4-10.4,10.4-10.4-4.7-10.4-10.4,0-.3,0-.4h-3v.4c0,7.4,6,13.4,13.4,13.4s3-.3,4.4-.7c-1.2,2.7-1.8,5.6-1.8,8.7,0,12,9.8,21.8,21.7,21.8h0c10.3,0,18.8,8.4,18.8,18.8s-8.4,18.8-18.8,18.8v3c4.1,0,7.9-1.1,11.2-3.1-.2.9-.3,1.8-.3,2.7,0,7.4,6,13.4,13.4,13.4v-3c-5.8,0-10.4-4.7-10.4-10.4s4.7-10.4,10.4-10.4,10.4,4.7,10.4,10.4,0,.3,0,.4h3v-.4c0-7.4-6-13.4-13.4-13.4Z"/>
        </g>
        <g>
          <rect class="st2" x="-93.4" y="268.6" width="75.5" height="81.1"/>
          <path class="st3" d="M-31.4,352c-1.5,0-3,.3-4.4.7,1.2-2.7,1.8-5.6,1.8-8.7,0-12-9.8-21.8-21.7-21.8h0c-10.3,0-18.8-8.4-18.8-18.8s8.5-18.6,18.8-18.6v-3c-4.1,0-7.9,1.1-11.2,3.1.2-.9.3-1.8.3-2.7,0-7.4-6-13.4-13.4-13.4v3c5.8,0,10.4,4.7,10.4,10.4s-4.7,10.4-10.4,10.4-10.4-4.7-10.4-10.4,0-.3,0-.4h-3v.4c0,7.4,6,13.4,13.4,13.4s3-.3,4.4-.7c-1.2,2.7-1.8,5.6-1.8,8.7,0,12,9.8,21.8,21.7,21.8h0c10.3,0,18.8,8.4,18.8,18.8s-8.5,18.6-18.8,18.6v3c4.1,0,7.9-1.1,11.2-3.1-.2.9-.3,1.8-.3,2.7,0,7.4,6,13.4,13.4,13.4v-3c-5.8,0-10.4-4.7-10.4-10.4s4.7-10.4,10.4-10.4,10.4,4.7,10.4,10.4,0,.3,0,.4h3v-.4c0-7.4-6-13.4-13.4-13.4h0Z"/>
        </g>
        <g>
          <rect class="st2" x="208.5" y="187.5" width="75.5" height="81.1"/>
          <path class="st3" d="M270.6,271c-1.5,0-3,.3-4.4.7,1.2-2.7,1.8-5.6,1.8-8.7,0-12-9.8-21.8-21.7-21.8h0c-10.3,0-18.8-8.4-18.8-18.8s8.4-18.8,18.8-18.8v-3c-4.1,0-7.9,1.1-11.2,3.1.2-.9.3-1.8.3-2.7,0-7.4-6-13.4-13.4-13.4v3c5.8,0,10.4,4.7,10.4,10.4s-4.7,10.4-10.4,10.4-10.4-4.7-10.4-10.4,0-.3,0-.4h-3v.4c0,7.4,6,13.4,13.4,13.4s3-.3,4.4-.7c-1.2,2.7-1.8,5.6-1.8,8.7,0,12,9.8,21.8,21.7,21.8h0c10.3,0,18.8,8.4,18.8,18.8s-8.4,18.8-18.8,18.8v3c4.1,0,7.9-1.1,11.2-3.1-.2.9-.3,1.8-.3,2.7,0,7.4,6,13.4,13.4,13.4v-3c-5.8,0-10.4-4.7-10.4-10.4s4.7-10.4,10.4-10.4,10.4,4.7,10.4,10.4,0,.3,0,.4h3v-.4c0-7.4-6-13.4-13.4-13.4Z"/>
        </g>
        <g>
          <rect class="st2" x="133" y="248.3" width="75.5" height="81.1"/>
          <path class="st3" d="M195.1,331.8c-1.5,0-3,.3-4.4.7,1.2-2.7,1.8-5.6,1.8-8.7,0-12-9.8-21.8-21.7-21.8h0c-10.3,0-18.8-8.4-18.8-18.8s8.4-18.8,18.8-18.8v-3c-4.1,0-7.9,1.1-11.2,3.1.2-.9.3-1.8.3-2.7,0-7.4-6-13.4-13.4-13.4v3c5.8,0,10.4,4.7,10.4,10.4s-4.7,10.4-10.4,10.4-10.4-4.7-10.4-10.4,0-.3,0-.4h-3v.4c0,7.4,6,13.4,13.4,13.4s3-.3,4.4-.7c-1.2,2.7-1.8,5.6-1.8,8.7,0,12,9.8,21.8,21.7,21.8h0c10.3,0,18.8,8.4,18.8,18.8s-8.4,18.8-18.8,18.8v3c4.1,0,7.9-1.1,11.2-3.1-.2.9-.3,1.8-.3,2.7,0,7.4,6,13.4,13.4,13.4v-3c-5.8,0-10.4-4.7-10.4-10.4s4.7-10.4,10.4-10.4,10.4,4.7,10.4,10.4,0,.3,0,.4h3v-.4c0-7.4-6-13.4-13.4-13.4h0Z"/>
        </g>
        <g>
          <rect class="st2" x="57.5" y="228" width="75.5" height="81.1"/>
          <path class="st3" d="M119.6,311.5c-1.5,0-3,.3-4.4.7,1.2-2.7,1.8-5.6,1.8-8.7,0-12-9.8-21.8-21.7-21.8h0c-10.3,0-18.8-8.4-18.8-18.8s8.4-18.8,18.8-18.8v-3c-4.1,0-7.9,1.1-11.2,3.1.2-.9.3-1.8.3-2.7,0-7.4-6-13.4-13.4-13.4v3c5.8,0,10.4,4.7,10.4,10.4s-4.7,10.4-10.4,10.4-10.4-4.7-10.4-10.4,0-.3,0-.4h-3v.4c0,7.4,6,13.4,13.4,13.4s3-.3,4.4-.7c-1.2,2.7-1.8,5.6-1.8,8.7,0,12,9.8,21.8,21.7,21.8h0c10.3,0,18.8,8.4,18.8,18.8s-8.4,18.8-18.8,18.8v3c4.1,0,7.9-1.1,11.2-3.1-.2.9-.3,1.8-.3,2.7,0,7.4,6,13.4,13.4,13.4v-3c-5.8,0-10.4-4.7-10.4-10.4s4.7-10.4,10.4-10.4,10.4,4.7,10.4,10.4,0,.3,0,.4h3v-.4c0-7.4-6-13.4-13.4-13.4Z"/>
        </g>
        <g>
          <rect class="st2" x="-18" y="207.8" width="75.5" height="81.1"/>
          <path class="st3" d="M44.1,291.2c-1.5,0-3,.3-4.4.7,1.2-2.7,1.8-5.6,1.8-8.7,0-12-9.8-21.8-21.7-21.8h0c-10.3,0-18.8-8.4-18.8-18.8s8.4-18.8,18.8-18.8v-3c-4.1,0-7.9,1.1-11.2,3.1.2-.9.3-1.8.3-2.7,0-7.4-6-13.4-13.4-13.4v3c5.8,0,10.4,4.7,10.4,10.4s-4.7,10.4-10.4,10.4-10.4-4.7-10.4-10.4,0-.3,0-.4h-3v.4c0,7.4,6,13.4,13.4,13.4s3-.3,4.4-.7c-1.2,2.7-1.8,5.6-1.8,8.7,0,12,9.8,21.8,21.7,21.8h0c10.3,0,18.8,8.4,18.8,18.8s-8.4,18.8-18.8,18.8v3c4.1,0,7.9-1.1,11.2-3.1-.2.9-.3,1.8-.3,2.7,0,7.4,6,13.4,13.4,13.4v-3c-5.8,0-10.4-4.7-10.4-10.4s4.7-10.4,10.4-10.4,10.4,4.7,10.4,10.4,0,.3,0,.4h3v-.4c0-7.4-6-13.4-13.4-13.4Z"/>
        </g>
        <g>
          <rect class="st2" x="-93.4" y="187.5" width="75.5" height="81.1"/>
          <path class="st3" d="M-31.4,271c-1.5,0-3,.3-4.4.7,1.2-2.7,1.8-5.6,1.8-8.7,0-12-9.8-21.8-21.7-21.8h0c-10.3,0-18.8-8.4-18.8-18.8s8.5-18.7,18.8-18.7v-3c-4.1,0-7.9,1.1-11.2,3.1.2-.9.3-1.8.3-2.7,0-7.4-6-13.4-13.4-13.4v3c5.8,0,10.4,4.7,10.4,10.4s-4.7,10.4-10.4,10.4-10.4-4.7-10.4-10.4,0-.3,0-.4h-3v.4c0,7.4,6,13.4,13.4,13.4s3-.3,4.4-.7c-1.2,2.7-1.8,5.6-1.8,8.7,0,12,9.8,21.8,21.7,21.8h0c10.3,0,18.8,8.4,18.8,18.8s-8.5,18.7-18.8,18.7v3c4.1,0,7.9-1.1,11.2-3.1-.2.9-.3,1.8-.3,2.7,0,7.4,6,13.4,13.4,13.4v-3c-5.8,0-10.4-4.7-10.4-10.4s4.7-10.4,10.4-10.4,10.4,4.7,10.4,10.4,0,.3,0,.4h3v-.4c0-7.4-6-13.4-13.4-13.4Z"/>
        </g>
        <g>
          <rect class="st2" x="208.5" y="106.4" width="75.5" height="81.1"/>
          <path class="st3" d="M270.6,189.9c-1.5,0-3,.3-4.4.7,1.2-2.7,1.8-5.6,1.8-8.7,0-12-9.8-21.8-21.7-21.8h0c-10.3,0-18.8-8.4-18.8-18.8s8.4-18.8,18.8-18.8v-3c-4.1,0-7.9,1.1-11.2,3.1.2-.9.3-1.8.3-2.7,0-7.4-6-13.4-13.4-13.4v3c5.8,0,10.4,4.7,10.4,10.4s-4.7,10.4-10.4,10.4-10.4-4.7-10.4-10.4,0-.3,0-.4h-3v.4c0,7.4,6,13.4,13.4,13.4s3-.3,4.4-.7c-1.2,2.7-1.8,5.6-1.8,8.7,0,12,9.8,21.8,21.7,21.8h0c10.3,0,18.8,8.4,18.8,18.8s-8.4,18.8-18.8,18.8v3c4.1,0,7.9-1.1,11.2-3.1-.2.9-.3,1.8-.3,2.7,0,7.4,6,13.4,13.4,13.4v-3c-5.8,0-10.4-4.7-10.4-10.4s4.7-10.4,10.4-10.4,10.4,4.7,10.4,10.4,0,.3,0,.4h3v-.4c0-7.4-6-13.4-13.4-13.4Z"/>
        </g>
        <g>
          <rect class="st2" x="133" y="167.2" width="75.5" height="81.1"/>
          <path class="st3" d="M195.1,250.7c-1.5,0-3,.3-4.4.7,1.2-2.7,1.8-5.6,1.8-8.7,0-12-9.8-21.8-21.7-21.8h0c-10.3,0-18.8-8.4-18.8-18.8s8.4-18.8,18.8-18.8v-3c-4.1,0-7.9,1.1-11.2,3.1.2-.9.3-1.8.3-2.7,0-7.4-6-13.4-13.4-13.4v3c5.8,0,10.4,4.7,10.4,10.4s-4.7,10.4-10.4,10.4-10.4-4.7-10.4-10.4,0-.3,0-.4h-3v.4c0,7.4,6,13.4,13.4,13.4s3-.3,4.4-.7c-1.2,2.7-1.8,5.6-1.8,8.7,0,12,9.8,21.8,21.7,21.8h0c10.3,0,18.8,8.4,18.8,18.8s-8.4,18.8-18.8,18.8v3c4.1,0,7.9-1.1,11.2-3.1-.2.9-.3,1.8-.3,2.7,0,7.4,6,13.4,13.4,13.4v-3c-5.8,0-10.4-4.7-10.4-10.4s4.7-10.4,10.4-10.4,10.4,4.7,10.4,10.4,0,.3,0,.4h3v-.4c0-7.4-6-13.4-13.4-13.4h0Z"/>
        </g>
        <g>
          <rect class="st2" x="57.5" y="147" width="75.5" height="81.1"/>
          <path class="st3" d="M119.6,230.4c-1.5,0-3,.3-4.4.7,1.2-2.7,1.8-5.6,1.8-8.7,0-12-9.8-21.8-21.7-21.8h0c-10.3,0-18.8-8.4-18.8-18.8s8.4-18.8,18.8-18.8v-3c-4.1,0-7.9,1.1-11.2,3.1.2-.9.3-1.8.3-2.7,0-7.4-6-13.4-13.4-13.4v3c5.8,0,10.4,4.7,10.4,10.4s-4.7,10.4-10.4,10.4-10.4-4.7-10.4-10.4,0-.3,0-.4h-3v.4c0,7.4,6,13.4,13.4,13.4s3-.3,4.4-.7c-1.2,2.7-1.8,5.6-1.8,8.7,0,12,9.8,21.8,21.7,21.8h0c10.3,0,18.8,8.4,18.8,18.8s-8.4,18.8-18.8,18.8v3c4.1,0,7.9-1.1,11.2-3.1-.2.9-.3,1.8-.3,2.7,0,7.4,6,13.4,13.4,13.4v-3c-5.8,0-10.4-4.7-10.4-10.4s4.7-10.4,10.4-10.4,10.4,4.7,10.4,10.4,0,.3,0,.4h3v-.4c0-7.4-6-13.4-13.4-13.4Z"/>
        </g>
        <g>
          <rect class="st2" x="-18" y="126.7" width="75.5" height="81.1"/>
          <path class="st3" d="M44.1,210.2c-1.5,0-3,.3-4.4.7,1.2-2.7,1.8-5.6,1.8-8.7,0-12-9.8-21.8-21.7-21.8h0c-10.3,0-18.8-8.4-18.8-18.8s8.4-18.8,18.8-18.8v-3c-4.1,0-7.9,1.1-11.2,3.1.2-.9.3-1.8.3-2.7,0-7.4-6-13.4-13.4-13.4v3c5.8,0,10.4,4.7,10.4,10.4s-4.7,10.4-10.4,10.4-10.4-4.7-10.4-10.4,0-.3,0-.4h-3v.4c0,7.4,6,13.4,13.4,13.4s3-.3,4.4-.7c-1.2,2.7-1.8,5.6-1.8,8.7,0,12,9.8,21.8,21.7,21.8h0c10.3,0,18.8,8.4,18.8,18.8s-8.4,18.8-18.8,18.8v3c4.1,0,7.9-1.1,11.2-3.1-.2.9-.3,1.8-.3,2.7,0,7.4,6,13.4,13.4,13.4v-3c-5.8,0-10.4-4.7-10.4-10.4s4.7-10.4,10.4-10.4,10.4,4.7,10.4,10.4,0,.3,0,.4h3v-.4c0-7.4-6-13.4-13.4-13.4Z"/>
        </g>
        <g>
          <rect class="st2" x="-93.4" y="106.4" width="75.5" height="81.1"/>
          <path class="st3" d="M-31.4,189.9c-1.5,0-3,.3-4.4.7,1.2-2.7,1.8-5.6,1.8-8.7,0-12-9.8-21.8-21.7-21.8h0c-10.3,0-18.8-8.4-18.8-18.8s8.5-18.7,18.8-18.7v-3c-4.1,0-7.9,1.1-11.2,3.1.2-.9.3-1.8.3-2.7,0-7.4-6-13.4-13.4-13.4v3c5.8,0,10.4,4.7,10.4,10.4s-4.7,10.4-10.4,10.4-10.4-4.7-10.4-10.4,0-.3,0-.4h-3v.4c0,7.4,6,13.4,13.4,13.4s3-.3,4.4-.7c-1.2,2.7-1.8,5.6-1.8,8.7,0,12,9.8,21.8,21.7,21.8h0c10.3,0,18.8,8.4,18.8,18.8s-8.5,18.7-18.8,18.7v3c4.1,0,7.9-1.1,11.2-3.1-.2.9-.3,1.8-.3,2.7,0,7.4,6,13.4,13.4,13.4v-3c-5.8,0-10.4-4.7-10.4-10.4s4.7-10.4,10.4-10.4,10.4,4.7,10.4,10.4,0,.3,0,.4h3v-.4c0-7.4-6-13.4-13.4-13.4h0Z"/>
        </g>
        <g>
          <rect class="st2" x="208.5" y="25.4" width="75.5" height="81.1"/>
          <path class="st3" d="M270.6,108.8c-1.5,0-3,.3-4.4.7,1.2-2.7,1.8-5.6,1.8-8.7,0-12-9.8-21.8-21.7-21.8h0c-10.3,0-18.8-8.4-18.8-18.8s8.4-18.8,18.8-18.8v-3c-4.1,0-7.9,1.1-11.2,3.1.2-.9.3-1.8.3-2.7,0-7.4-6-13.4-13.4-13.4v3c5.8,0,10.4,4.7,10.4,10.4s-4.7,10.4-10.4,10.4-10.4-4.7-10.4-10.4,0-.3,0-.4h-3v.4c0,7.4,6,13.4,13.4,13.4s3-.3,4.4-.7c-1.2,2.7-1.8,5.6-1.8,8.7,0,12.1,9.6,21.9,21.6,21.9h0c10.3,0,18.8,8.4,18.8,18.8s-8.4,18.8-18.8,18.8v3c4.1,0,7.9-1.1,11.2-3.1-.2.9-.3,1.8-.3,2.7,0,7.4,6,13.4,13.4,13.4v-3c-5.8,0-10.4-4.7-10.4-10.4s4.7-10.4,10.4-10.4,10.4,4.7,10.4,10.4,0,.3,0,.4h3v-.4c0-7.4-6-13.4-13.4-13.4h0Z"/>
        </g>
        <g>
          <rect class="st2" x="133" y="86.2" width="75.5" height="81.1"/>
          <path class="st3" d="M195.1,169.6c-1.5,0-3,.3-4.4.7,1.2-2.7,1.8-5.6,1.8-8.7,0-12-9.8-21.8-21.7-21.8h0c-10.3,0-18.8-8.4-18.8-18.8s8.4-18.8,18.8-18.8v-3c-4.1,0-7.9,1.1-11.2,3.1.2-.9.3-1.8.3-2.7,0-7.4-6-13.4-13.4-13.4v3c5.8,0,10.4,4.7,10.4,10.4s-4.7,10.4-10.4,10.4-10.4-4.7-10.4-10.4,0-.3,0-.4h-3v.4c0,7.4,6,13.4,13.4,13.4s3-.3,4.4-.7c-1.2,2.7-1.8,5.6-1.8,8.7,0,12,9.8,21.8,21.7,21.8h0c10.3,0,18.8,8.4,18.8,18.8s-8.4,18.8-18.8,18.8v3c4.1,0,7.9-1.1,11.2-3.1-.2.9-.3,1.8-.3,2.7,0,7.4,6,13.4,13.4,13.4v-3c-5.8,0-10.4-4.7-10.4-10.4s4.7-10.4,10.4-10.4,10.4,4.7,10.4,10.4,0,.3,0,.4h3v-.4c0-7.4-6-13.4-13.4-13.4h0Z"/>
        </g>
        <g>
          <rect class="st2" x="57.5" y="65.9" width="75.5" height="81.1"/>
          <path class="st3" d="M119.6,149.4c-1.5,0-3,.3-4.4.7,1.2-2.7,1.8-5.6,1.8-8.7,0-12-9.8-21.8-21.7-21.8h0c-10.3,0-18.8-8.4-18.8-18.8s8.4-18.7,18.8-18.7v-3c-4.1,0-7.9,1.1-11.2,3.1.2-.9.3-1.8.3-2.7,0-7.4-6-13.4-13.4-13.4v3c5.8,0,10.4,4.7,10.4,10.4s-4.7,10.4-10.4,10.4-10.4-4.7-10.4-10.4,0-.3,0-.4h-3v.4c0,7.4,6,13.4,13.4,13.4s3-.3,4.4-.7c-1.2,2.7-1.8,5.6-1.8,8.7,0,12,9.8,21.8,21.7,21.8h0c10.3,0,18.8,8.4,18.8,18.8s-8.4,18.8-18.8,18.8v3c4.1,0,7.9-1.1,11.2-3.1-.2.9-.3,1.8-.3,2.7,0,7.4,6,13.4,13.4,13.4v-3c-5.8,0-10.4-4.7-10.4-10.4s4.7-10.4,10.4-10.4,10.4,4.7,10.4,10.4,0,.3,0,.4h3v-.4c0-7.4-6-13.4-13.4-13.4h0Z"/>
        </g>
        <g>
          <rect class="st2" x="-18" y="45.6" width="75.5" height="81.1"/>
          <path class="st3" d="M44.1,129.1c-1.5,0-3,.3-4.4.7,1.2-2.7,1.8-5.6,1.8-8.7,0-12-9.8-21.8-21.7-21.8h0c-10.3,0-18.8-8.4-18.8-18.8s8.4-18.8,18.8-18.8v-3c-4.1,0-7.9,1.1-11.2,3.1.2-.9.3-1.8.3-2.7,0-7.4-6-13.4-13.4-13.4v3c5.8,0,10.4,4.7,10.4,10.4s-4.7,10.4-10.4,10.4-10.4-4.7-10.4-10.4,0-.3,0-.4h-3v.4c0,7.4,6,13.4,13.4,13.4s3-.3,4.4-.7c-1.2,2.7-1.8,5.6-1.8,8.7,0,12,9.8,21.8,21.7,21.8h0c10.3,0,18.8,8.4,18.8,18.8s-8.4,18.8-18.8,18.8v3c4.1,0,7.9-1.1,11.2-3.1-.2.9-.3,1.8-.3,2.7,0,7.4,6,13.4,13.4,13.4v-3c-5.8,0-10.4-4.7-10.4-10.4s4.7-10.4,10.4-10.4,10.4,4.7,10.4,10.4,0,.3,0,.4h3v-.4c0-7.4-6-13.4-13.4-13.4Z"/>
        </g>
        <g>
          <rect class="st2" x="-93.4" y="25.4" width="75.5" height="81.1"/>
          <path class="st3" d="M-31.4,108.8c-1.5,0-3,.3-4.4.7,1.2-2.7,1.8-5.6,1.8-8.7.1-11.9-9.7-21.7-21.7-21.7h0c-10.3,0-18.8-8.4-18.8-18.8s8.5-18.7,18.8-18.7v-3c-4.1,0-7.9,1.1-11.2,3.1.2-.9.3-1.8.3-2.7,0-7.4-6-13.4-13.4-13.4v3c5.8,0,10.4,4.7,10.4,10.4s-4.7,10.4-10.4,10.4-10.4-4.7-10.4-10.4,0-.3,0-.4h-3v.4c0,7.4,6,13.4,13.4,13.4s3-.3,4.4-.7c-1.2,2.7-1.8,5.6-1.8,8.7-.1,11.9,9.7,21.7,21.7,21.7h0c10.3,0,18.8,8.4,18.8,18.8s-8.5,18.7-18.8,18.7v3c4.1,0,7.9-1.1,11.2-3.1-.2.9-.3,1.8-.3,2.7,0,7.4,6,13.4,13.4,13.4v-3c-5.8,0-10.4-4.7-10.4-10.4s4.7-10.4,10.4-10.4,10.4,4.7,10.4,10.4,0,.3,0,.4h3v-.4c0-7.4-6-13.4-13.4-13.4Z"/>
        </g>
        <g>
          <rect class="st2" x="133" y="5.1" width="75.5" height="81.1"/>
          <path class="st3" d="M195.1,88.6c-1.5,0-3,.3-4.4.7,1.2-2.7,1.8-5.6,1.8-8.7,0-12-9.8-21.8-21.7-21.8h0c-10.3,0-18.8-8.4-18.8-18.8s8.4-18.8,18.8-18.8v-3c-4.1,0-7.9,1.1-11.2,3.1.2-.9.3-1.8.3-2.7,0-7.4-6-13.4-13.4-13.4v3c5.8,0,10.4,4.7,10.4,10.4s-4.7,10.4-10.4,10.4-10.4-4.7-10.4-10.4,0-.3,0-.4h-3v.4c0,7.4,6,13.4,13.4,13.4s3-.3,4.4-.7c-1.2,2.7-1.8,5.6-1.8,8.7,0,12,9.8,21.8,21.7,21.8h0c10.3,0,18.8,8.4,18.8,18.8s-8.4,18.8-18.8,18.8v3c4.1,0,7.9-1.1,11.2-3.1-.2.9-.3,1.8-.3,2.7,0,7.4,6,13.4,13.4,13.4v-3c-5.8,0-10.4-4.7-10.4-10.4s4.7-10.4,10.4-10.4,10.4,4.7,10.4,10.4,0,.3,0,.4h3v-.4c0-7.4-6-13.4-13.4-13.4h0Z"/>
        </g>
        <path class="st3" d="M119.6,68.3c-1.5,0-3,.3-4.4.7,1.2-2.7,1.8-5.6,1.8-8.7,0-12-9.8-21.8-21.7-21.8h0c-10.3,0-18.8-8.4-18.8-18.8S84.9.9,95.3.9v-3c-4.1,0-7.9,1.1-11.2,3.1.2-.9.3-1.8.3-2.7,0-7.4-6-13.4-13.4-13.4v3c5.8,0,10.4,4.7,10.4,10.4s-4.7,10.4-10.4,10.4-10.4-4.7-10.4-10.4,0-.3,0-.4h-3v.4c0,7.4,6,13.4,13.4,13.4s3-.3,4.4-.7c-1.2,2.7-1.8,5.6-1.8,8.7,0,12,9.8,21.8,21.7,21.8h0c10.3,0,18.8,8.4,18.8,18.8s-8.4,18.8-18.8,18.8v3c4,0,7.9-1.1,11.1-3.1-.2.9-.3,1.8-.3,2.7,0,7.4,6,13.4,13.4,13.4v-3c-5.8,0-10.4-4.7-10.4-10.4s4.7-10.4,10.4-10.4,10.4,4.7,10.4,10.4,0,.3,0,.4h3v-.4c0-7.4-6-13.4-13.4-13.4h.1Z"/>
      </g>
    </g>
    <g class="st4">
      <g>
        <rect class="st0" x="-55.7" y="-161.1" width="301.9" height="243.2"/>
        <g>
          <rect class="st2" x="208.5" y="25.4" width="75.5" height="81.1"/>
          <path class="st3" d="M270.6,108.8c-1.5,0-3,.3-4.4.7,1.2-2.7,1.8-5.6,1.8-8.7,0-12-9.8-21.8-21.7-21.8h0c-10.3,0-18.8-8.4-18.8-18.8s8.4-18.8,18.8-18.8v-3c-4.1,0-7.9,1.1-11.2,3.1.2-.9.3-1.8.3-2.7,0-7.4-6-13.4-13.4-13.4v3c5.8,0,10.4,4.7,10.4,10.4s-4.7,10.4-10.4,10.4-10.4-4.7-10.4-10.4,0-.3,0-.4h-3v.4c0,7.4,6,13.4,13.4,13.4s3-.3,4.4-.7c-1.2,2.7-1.8,5.6-1.8,8.7,0,12,9.8,21.8,21.7,21.8h0c10.3,0,18.8,8.4,18.8,18.8s-8.4,18.8-18.8,18.8v3c4.1,0,7.9-1.1,11.2-3.1-.2.9-.3,1.8-.3,2.7,0,7.4,6,13.4,13.4,13.4v-3c-5.8,0-10.4-4.7-10.4-10.4s4.7-10.4,10.4-10.4,10.4,4.7,10.4,10.4,0,.3,0,.4h3v-.4c0-7.4-6-13.4-13.4-13.4Z"/>
        </g>
        <g>
          <rect class="st2" x="57.5" y="65.9" width="75.5" height="81.1"/>
          <path class="st3" d="M119.6,149.4c-1.5,0-3,.3-4.4.7,1.2-2.7,1.8-5.6,1.8-8.7,0-12-9.8-21.8-21.7-21.8h0c-10.3,0-18.8-8.4-18.8-18.8s8.4-18.8,18.8-18.8v-3c-4.1,0-7.9,1.1-11.2,3.1.2-.9.3-1.8.3-2.7,0-7.4-6-13.4-13.4-13.4v3c5.8,0,10.4,4.7,10.4,10.4s-4.7,10.4-10.4,10.4-10.4-4.7-10.4-10.4,0-.3,0-.4h-3v.4c0,7.4,6,13.4,13.4,13.4s3-.3,4.4-.7c-1.2,2.7-1.8,5.6-1.8,8.7,0,12,9.8,21.8,21.7,21.8h0c10.3,0,18.8,8.4,18.8,18.8s-8.4,18.8-18.8,18.8v3c4.1,0,7.9-1.1,11.2-3.1-.2.9-.3,1.8-.3,2.7,0,7.4,6,13.4,13.4,13.4v-3c-5.8,0-10.4-4.7-10.4-10.4s4.7-10.4,10.4-10.4,10.4,4.7,10.4,10.4,0,.3,0,.4h3v-.4c0-7.4-6-13.4-13.4-13.4Z"/>
        </g>
        <g>
          <rect class="st2" x="-18" y="45.6" width="75.5" height="81.1"/>
          <path class="st3" d="M44.1,129.1c-1.5,0-3,.3-4.4.7,1.2-2.7,1.8-5.6,1.8-8.7,0-12-9.8-21.8-21.7-21.8h0c-10.3,0-18.8-8.4-18.8-18.8s8.4-18.8,18.8-18.8v-3c-4.1,0-7.9,1.1-11.2,3.1.2-.9.3-1.8.3-2.7,0-7.4-6-13.4-13.4-13.4v3c5.8,0,10.4,4.7,10.4,10.4s-4.7,10.4-10.4,10.4-10.4-4.7-10.4-10.4,0-.3,0-.4h-3v.4c0,7.4,6,13.4,13.4,13.4s3-.3,4.4-.7c-1.2,2.7-1.8,5.6-1.8,8.7,0,12,9.8,21.8,21.7,21.8h0c10.3,0,18.8,8.4,18.8,18.8s-8.4,18.8-18.8,18.8v3c4.1,0,7.9-1.1,11.2-3.1-.2.9-.3,1.8-.3,2.7,0,7.4,6,13.4,13.4,13.4v-3c-5.8,0-10.4-4.7-10.4-10.4s4.7-10.4,10.4-10.4,10.4,4.7,10.4,10.4,0,.3,0,.4h3v-.4c0-7.4-6-13.4-13.4-13.4Z"/>
        </g>
        <g>
          <rect class="st2" x="-93.4" y="25.4" width="75.5" height="81.1"/>
          <path class="st3" d="M-31.4,108.8c-1.5,0-3,.3-4.4.7,1.2-2.7,1.8-5.6,1.8-8.7,0-12-9.8-21.8-21.7-21.8h0c-10.3,0-18.8-8.4-18.8-18.8s8.5-18.6,18.8-18.6v-3c-4.1,0-7.9,1.1-11.2,3.1.2-.9.3-1.8.3-2.7,0-7.4-6-13.4-13.4-13.4v3c5.8,0,10.4,4.7,10.4,10.4s-4.7,10.4-10.4,10.4-10.4-4.7-10.4-10.4,0-.3,0-.4h-3v.4c0,7.4,6,13.4,13.4,13.4s3-.3,4.4-.7c-1.2,2.7-1.8,5.6-1.8,8.7,0,12,9.8,21.8,21.7,21.8h0c10.3,0,18.8,8.4,18.8,18.8s-8.5,18.6-18.8,18.6v3c4.1,0,7.9-1.1,11.2-3.1-.2.9-.3,1.8-.3,2.7,0,7.4,6,13.4,13.4,13.4v-3c-5.8,0-10.4-4.7-10.4-10.4s4.7-10.4,10.4-10.4,10.4,4.7,10.4,10.4,0,.3,0,.4h3v-.4c0-7.4-6-13.4-13.4-13.4h0Z"/>
        </g>
        <g>
          <rect class="st2" x="208.5" y="-55.7" width="75.5" height="81.1"/>
          <path class="st3" d="M270.6,27.8c-1.5,0-3,.3-4.4.7,1.2-2.7,1.8-5.6,1.8-8.7,0-12-9.8-21.8-21.7-21.8h0c-10.3,0-18.8-8.4-18.8-18.8s8.4-18.8,18.8-18.8v-3c-4.1,0-7.9,1.1-11.2,3.1.2-.9.3-1.8.3-2.7,0-7.4-6-13.4-13.4-13.4v3c5.8,0,10.4,4.7,10.4,10.4s-4.7,10.4-10.4,10.4-10.4-4.7-10.4-10.4,0-.3,0-.4h-3v.4c0,7.4,6,13.4,13.4,13.4s3-.3,4.4-.7c-1.2,2.7-1.8,5.6-1.8,8.7,0,12,9.8,21.8,21.7,21.8h0c10.3,0,18.8,8.4,18.8,18.8s-8.4,18.8-18.8,18.8v3c4.1,0,7.9-1.1,11.2-3.1-.2.9-.3,1.8-.3,2.7,0,7.4,6,13.4,13.4,13.4v-3c-5.8,0-10.4-4.7-10.4-10.4s4.7-10.4,10.4-10.4,10.4,4.7,10.4,10.4,0,.3,0,.4h3v-.4c0-7.4-6-13.4-13.4-13.4Z"/>
        </g>
        <g>
          <rect class="st2" x="133" y="5.1" width="75.5" height="81.1"/>
          <path class="st3" d="M195.1,88.6c-1.5,0-3,.3-4.4.7,1.2-2.7,1.8-5.6,1.8-8.7,0-12-9.8-21.8-21.7-21.8h0c-10.3,0-18.8-8.4-18.8-18.8s8.4-18.8,18.8-18.8v-3c-4.1,0-7.9,1.1-11.2,3.1.2-.9.3-1.8.3-2.7,0-7.4-6-13.4-13.4-13.4v3c5.8,0,10.4,4.7,10.4,10.4s-4.7,10.4-10.4,10.4-10.4-4.7-10.4-10.4,0-.3,0-.4h-3v.4c0,7.4,6,13.4,13.4,13.4s3-.3,4.4-.7c-1.2,2.7-1.8,5.6-1.8,8.7,0,12,9.8,21.8,21.7,21.8h0c10.3,0,18.8,8.4,18.8,18.8s-8.4,18.8-18.8,18.8v3c4.1,0,7.9-1.1,11.2-3.1-.2.9-.3,1.8-.3,2.7,0,7.4,6,13.4,13.4,13.4v-3c-5.8,0-10.4-4.7-10.4-10.4s4.7-10.4,10.4-10.4,10.4,4.7,10.4,10.4,0,.3,0,.4h3v-.4c0-7.4-6-13.4-13.4-13.4h0Z"/>
        </g>
        <g>
          <rect class="st2" x="57.5" y="-15.2" width="75.5" height="81.1"/>
          <path class="st3" d="M119.6,68.3c-1.5,0-3,.3-4.4.7,1.2-2.7,1.8-5.6,1.8-8.7,0-12-9.8-21.8-21.7-21.8h0c-10.3,0-18.8-8.4-18.8-18.8S84.9.9,95.3.9v-3c-4.1,0-7.9,1.1-11.2,3.1.2-.9.3-1.8.3-2.7,0-7.4-6-13.4-13.4-13.4v3c5.8,0,10.4,4.7,10.4,10.4s-4.7,10.4-10.4,10.4-10.4-4.7-10.4-10.4,0-.3,0-.4h-3v.4c0,7.4,6,13.4,13.4,13.4s3-.3,4.4-.7c-1.2,2.7-1.8,5.6-1.8,8.7,0,12,9.8,21.8,21.7,21.8h0c10.3,0,18.8,8.4,18.8,18.8s-8.4,18.8-18.8,18.8v3c4.1,0,7.9-1.1,11.2-3.1-.2.9-.3,1.8-.3,2.7,0,7.4,6,13.4,13.4,13.4v-3c-5.8,0-10.4-4.7-10.4-10.4s4.7-10.4,10.4-10.4,10.4,4.7,10.4,10.4,0,.3,0,.4h3v-.4c0-7.4-6-13.4-13.4-13.4Z"/>
        </g>
        <g>
          <rect class="st2" x="-18" y="-35.4" width="75.5" height="81.1"/>
          <path class="st3" d="M44.1,48c-1.5,0-3,.3-4.4.7,1.2-2.7,1.8-5.6,1.8-8.7,0-12-9.8-21.8-21.7-21.8h0C9.5,18.2,1,9.8,1-.6s8.4-18.8,18.8-18.8v-3c-4.1,0-7.9,1.1-11.2,3.1.2-.9.3-1.8.3-2.7,0-7.4-6-13.4-13.4-13.4v3c5.8,0,10.4,4.7,10.4,10.4S1.2-11.6-4.5-11.6s-10.4-4.7-10.4-10.4,0-.3,0-.4h-3v.4c0,7.4,6,13.4,13.4,13.4s3-.3,4.4-.7C-1.3-6.6-1.9-3.7-1.9-.6c0,12,9.8,21.8,21.7,21.8h0c10.3,0,18.8,8.4,18.8,18.8s-8.4,18.8-18.8,18.8v3c4.1,0,7.9-1.1,11.2-3.1-.2.9-.3,1.8-.3,2.7,0,7.4,6,13.4,13.4,13.4v-3c-5.8,0-10.4-4.7-10.4-10.4s4.7-10.4,10.4-10.4,10.4,4.7,10.4,10.4,0,.3,0,.4h3v-.4c0-7.4-6-13.4-13.4-13.4Z"/>
        </g>
        <g>
          <rect class="st2" x="-93.4" y="-55.7" width="75.5" height="81.1"/>
          <path class="st3" d="M-31.4,27.8c-1.5,0-3,.3-4.4.7,1.2-2.7,1.8-5.6,1.8-8.7,0-12-9.8-21.8-21.7-21.8h0c-10.3,0-18.8-8.4-18.8-18.8s8.5-18.7,18.8-18.7v-3c-4.1,0-7.9,1.1-11.2,3.1.2-.9.3-1.8.3-2.7,0-7.4-6-13.4-13.4-13.4v3c5.8,0,10.4,4.7,10.4,10.4s-4.7,10.4-10.4,10.4-10.4-4.7-10.4-10.4,0-.3,0-.4h-3v.4c0,7.4,6,13.4,13.4,13.4s3-.3,4.4-.7c-1.2,2.7-1.8,5.6-1.8,8.7,0,12,9.8,21.8,21.7,21.8h0c10.3,0,18.8,8.4,18.8,18.8s-8.5,18.7-18.8,18.7v3c4.1,0,7.9-1.1,11.2-3.1-.2.9-.3,1.8-.3,2.7,0,7.4,6,13.4,13.4,13.4v-3c-5.8,0-10.4-4.7-10.4-10.4s4.7-10.4,10.4-10.4,10.4,4.7,10.4,10.4,0,.3,0,.4h3v-.4c0-7.4-6-13.4-13.4-13.4Z"/>
        </g>
        <g>
          <rect class="st2" x="208.5" y="-136.8" width="75.5" height="81.1"/>
          <path class="st3" d="M270.6-53.3c-1.5,0-3,.3-4.4.7,1.2-2.7,1.8-5.6,1.8-8.7,0-12-9.8-21.8-21.7-21.8h0c-10.3,0-18.8-8.4-18.8-18.8s8.4-18.8,18.8-18.8v-3c-4.1,0-7.9,1.1-11.2,3.1.2-.9.3-1.8.3-2.7,0-7.4-6-13.4-13.4-13.4v3c5.8,0,10.4,4.7,10.4,10.4s-4.7,10.4-10.4,10.4-10.4-4.7-10.4-10.4,0-.3,0-.4h-3v.4c0,7.4,6,13.4,13.4,13.4s3-.3,4.4-.7c-1.2,2.7-1.8,5.6-1.8,8.7,0,12,9.8,21.8,21.7,21.8h0c10.3,0,18.8,8.4,18.8,18.8s-8.4,18.8-18.8,18.8v3c4.1,0,7.9-1.1,11.2-3.1-.2.9-.3,1.8-.3,2.7,0,7.4,6,13.4,13.4,13.4v-3c-5.8,0-10.4-4.7-10.4-10.4s4.7-10.4,10.4-10.4,10.4,4.7,10.4,10.4,0,.3,0,.4h3v-.4c0-7.4-6-13.4-13.4-13.4Z"/>
        </g>
        <g>
          <rect class="st2" x="133" y="-76" width="75.5" height="81.1"/>
          <path class="st3" d="M195.1,7.5c-1.5,0-3,.3-4.4.7,1.2-2.7,1.8-5.6,1.8-8.7,0-12-9.8-21.8-21.7-21.8h0c-10.3,0-18.8-8.4-18.8-18.8s8.4-18.8,18.8-18.8v-3c-4.1,0-7.9,1.1-11.2,3.1.2-.9.3-1.8.3-2.7,0-7.4-6-13.4-13.4-13.4v3c5.8,0,10.4,4.7,10.4,10.4s-4.7,10.4-10.4,10.4-10.4-4.7-10.4-10.4,0-.3,0-.4h-3v.4c0,7.4,6,13.4,13.4,13.4s3-.3,4.4-.7c-1.2,2.7-1.8,5.6-1.8,8.7,0,12,9.8,21.8,21.7,21.8h0c10.3,0,18.8,8.4,18.8,18.8s-8.4,18.8-18.8,18.8v3c4.1,0,7.9-1.1,11.2-3.1-.2.9-.3,1.8-.3,2.7,0,7.4,6,13.4,13.4,13.4v-3c-5.8,0-10.4-4.7-10.4-10.4s4.7-10.4,10.4-10.4,10.4,4.7,10.4,10.4,0,.3,0,.4h3v-.4c0-7.4-6-13.4-13.4-13.4h0Z"/>
        </g>
        <g>
          <rect class="st2" x="57.5" y="-96.2" width="75.5" height="81.1"/>
          <path class="st3" d="M119.6-12.8c-1.5,0-3,.3-4.4.7,1.2-2.7,1.8-5.6,1.8-8.7,0-12-9.8-21.8-21.7-21.8h0c-10.3,0-18.8-8.4-18.8-18.8s8.4-18.8,18.8-18.8v-3c-4.1,0-7.9,1.1-11.2,3.1.2-.9.3-1.8.3-2.7,0-7.4-6-13.4-13.4-13.4v3c5.8,0,10.4,4.7,10.4,10.4s-4.7,10.4-10.4,10.4-10.4-4.7-10.4-10.4,0-.3,0-.4h-3v.4c0,7.4,6,13.4,13.4,13.4s3-.3,4.4-.7c-1.2,2.7-1.8,5.6-1.8,8.7,0,12,9.8,21.8,21.7,21.8h0c10.3,0,18.8,8.4,18.8,18.8S105.7-2,95.3-2V1c4.1,0,7.9-1.1,11.2-3.1-.2.9-.3,1.8-.3,2.7,0,7.4,6,13.4,13.4,13.4v-3c-5.8,0-10.4-4.7-10.4-10.4s4.7-10.4,10.4-10.4,10.4,4.7,10.4,10.4,0,.3,0,.4h3v-.4c0-7.4-6-13.4-13.4-13.4Z"/>
        </g>
        <g>
          <rect class="st2" x="-18" y="-116.5" width="75.5" height="81.1"/>
          <path class="st3" d="M44.1-33c-1.5,0-3,.3-4.4.7,1.2-2.7,1.8-5.6,1.8-8.7,0-12-9.8-21.8-21.7-21.8h0c-10.3,0-18.8-8.4-18.8-18.8s8.4-18.8,18.8-18.8v-3c-4.1,0-7.9,1.1-11.2,3.1.2-.9.3-1.8.3-2.7,0-7.4-6-13.4-13.4-13.4v3c5.8,0,10.4,4.7,10.4,10.4s-4.7,10.4-10.4,10.4-10.4-4.7-10.4-10.4,0-.3,0-.4h-3v.4c0,7.4,6,13.4,13.4,13.4s3-.3,4.4-.7c-1.2,2.7-1.8,5.6-1.8,8.7,0,12,9.8,21.8,21.7,21.8h0c10.3,0,18.8,8.4,18.8,18.8s-8.4,18.8-18.8,18.8v3c4.1,0,7.9-1.1,11.2-3.1-.2.9-.3,1.8-.3,2.7,0,7.4,6,13.4,13.4,13.4v-3c-5.8,0-10.4-4.7-10.4-10.4s4.7-10.4,10.4-10.4,10.4,4.7,10.4,10.4,0,.3,0,.4h3v-.4c0-7.4-6-13.4-13.4-13.4Z"/>
        </g>
        <g>
          <rect class="st2" x="-93.4" y="-136.8" width="75.5" height="81.1"/>
          <path class="st3" d="M-31.4-53.3c-1.5,0-3,.3-4.4.7,1.2-2.7,1.8-5.6,1.8-8.7,0-12-9.8-21.8-21.7-21.8h0c-10.3,0-18.8-8.4-18.8-18.8s8.5-18.7,18.8-18.7v-3c-4.1,0-7.9,1.1-11.2,3.1.2-.9.3-1.8.3-2.7,0-7.4-6-13.4-13.4-13.4v3c5.8,0,10.4,4.7,10.4,10.4s-4.7,10.4-10.4,10.4-10.4-4.7-10.4-10.4,0-.3,0-.4h-3v.4c0,7.4,6,13.4,13.4,13.4s3-.3,4.4-.7c-1.2,2.7-1.8,5.6-1.8,8.7,0,12,9.8,21.8,21.7,21.8h0c10.3,0,18.8,8.4,18.8,18.8s-8.5,18.7-18.8,18.7v3c4.1,0,7.9-1.1,11.2-3.1-.2.9-.3,1.8-.3,2.7,0,7.4,6,13.4,13.4,13.4v-3c-5.8,0-10.4-4.7-10.4-10.4s4.7-10.4,10.4-10.4,10.4,4.7,10.4,10.4,0,.3,0,.4h3v-.4c0-7.4-6-13.4-13.4-13.4h0Z"/>
        </g>
        <g>
          <rect class="st2" x="208.5" y="-217.8" width="75.5" height="81.1"/>
          <path class="st3" d="M270.6-134.4c-1.5,0-3,.3-4.4.7,1.2-2.7,1.8-5.6,1.8-8.7,0-12-9.8-21.8-21.7-21.8h0c-10.3,0-18.8-8.4-18.8-18.8s8.4-18.8,18.8-18.8v-3c-4.1,0-7.9,1.1-11.2,3.1.2-.9.3-1.8.3-2.7,0-7.4-6-13.4-13.4-13.4v3c5.8,0,10.4,4.7,10.4,10.4s-4.7,10.4-10.4,10.4-10.4-4.7-10.4-10.4,0-.3,0-.4h-3v.4c0,7.4,6,13.4,13.4,13.4s3-.3,4.4-.7c-1.2,2.7-1.8,5.6-1.8,8.7,0,12.1,9.6,21.9,21.6,21.9h0c10.3,0,18.8,8.4,18.8,18.8s-8.4,18.8-18.8,18.8v3c4.1,0,7.9-1.1,11.2-3.1-.2.9-.3,1.8-.3,2.7,0,7.4,6,13.4,13.4,13.4v-3c-5.8,0-10.4-4.7-10.4-10.4s4.7-10.4,10.4-10.4,10.4,4.7,10.4,10.4,0,.3,0,.4h3v-.4c0-7.4-6-13.4-13.4-13.4h0Z"/>
        </g>
        <g>
          <rect class="st2" x="133" y="-157" width="75.5" height="81.1"/>
          <path class="st3" d="M195.1-73.6c-1.5,0-3,.3-4.4.7,1.2-2.7,1.8-5.6,1.8-8.7,0-12-9.8-21.8-21.7-21.8h0c-10.3,0-18.8-8.4-18.8-18.8s8.4-18.8,18.8-18.8v-3c-4.1,0-7.9,1.1-11.2,3.1.2-.9.3-1.8.3-2.7,0-7.4-6-13.4-13.4-13.4v3c5.8,0,10.4,4.7,10.4,10.4s-4.7,10.4-10.4,10.4-10.4-4.7-10.4-10.4,0-.3,0-.4h-3v.4c0,7.4,6,13.4,13.4,13.4s3-.3,4.4-.7c-1.2,2.7-1.8,5.6-1.8,8.7,0,12,9.8,21.8,21.7,21.8h0c10.3,0,18.8,8.4,18.8,18.8s-8.4,18.8-18.8,18.8v3c4.1,0,7.9-1.1,11.2-3.1-.2.9-.3,1.8-.3,2.7,0,7.4,6,13.4,13.4,13.4v-3c-5.8,0-10.4-4.7-10.4-10.4s4.7-10.4,10.4-10.4,10.4,4.7,10.4,10.4,0,.3,0,.4h3v-.4c0-7.4-6-13.4-13.4-13.4h0Z"/>
        </g>
        <g>
          <rect class="st2" x="57.5" y="-177.3" width="75.5" height="81.1"/>
          <path class="st3" d="M119.6-93.8c-1.5,0-3,.3-4.4.7,1.2-2.7,1.8-5.6,1.8-8.7,0-12-9.8-21.8-21.7-21.8h0c-10.3,0-18.8-8.4-18.8-18.8s8.4-18.7,18.8-18.7v-3c-4.1,0-7.9,1.1-11.2,3.1.2-.9.3-1.8.3-2.7,0-7.4-6-13.4-13.4-13.4v3c5.8,0,10.4,4.7,10.4,10.4s-4.7,10.4-10.4,10.4-10.4-4.7-10.4-10.4,0-.3,0-.4h-3v.4c0,7.4,6,13.4,13.4,13.4s3-.3,4.4-.7c-1.2,2.7-1.8,5.6-1.8,8.7,0,12,9.8,21.8,21.7,21.8h0c10.3,0,18.8,8.4,18.8,18.8s-8.4,18.8-18.8,18.8v3c4.1,0,7.9-1.1,11.2-3.1-.2.9-.3,1.8-.3,2.7,0,7.4,6,13.4,13.4,13.4v-3c-5.8,0-10.4-4.7-10.4-10.4s4.7-10.4,10.4-10.4,10.4,4.7,10.4,10.4,0,.3,0,.4h3v-.4c0-7.4-6-13.4-13.4-13.4h0Z"/>
        </g>
        <g>
          <rect class="st2" x="-18" y="-197.6" width="75.5" height="81.1"/>
          <path class="st3" d="M44.1-114.1c-1.5,0-3,.3-4.4.7,1.2-2.7,1.8-5.6,1.8-8.7,0-12-9.8-21.8-21.7-21.8h0c-10.3,0-18.8-8.4-18.8-18.8s8.4-18.8,18.8-18.8v-3c-4.1,0-7.9,1.1-11.2,3.1.2-.9.3-1.8.3-2.7,0-7.4-6-13.4-13.4-13.4v3c5.8,0,10.4,4.7,10.4,10.4s-4.7,10.4-10.4,10.4-10.4-4.7-10.4-10.4,0-.3,0-.4h-3v.4c0,7.4,6,13.4,13.4,13.4s3-.3,4.4-.7c-1.2,2.7-1.8,5.6-1.8,8.7,0,12,9.8,21.8,21.7,21.8h0c10.3,0,18.8,8.4,18.8,18.8s-8.4,18.8-18.8,18.8v3c4.1,0,7.9-1.1,11.2-3.1-.2.9-.3,1.8-.3,2.7,0,7.4,6,13.4,13.4,13.4v-3c-5.8,0-10.4-4.7-10.4-10.4s4.7-10.4,10.4-10.4,10.4,4.7,10.4,10.4,0,.3,0,.4h3v-.4c0-7.4-6-13.4-13.4-13.4Z"/>
        </g>
        <g>
          <rect class="st2" x="-93.4" y="-217.8" width="75.5" height="81.1"/>
          <path class="st3" d="M-31.4-134.4c-1.5,0-3,.3-4.4.7,1.2-2.7,1.8-5.6,1.8-8.7.1-11.9-9.7-21.7-21.7-21.7h0c-10.3,0-18.8-8.4-18.8-18.8s8.5-18.7,18.8-18.7v-3c-4.1,0-7.9,1.1-11.2,3.1.2-.9.3-1.8.3-2.7,0-7.4-6-13.4-13.4-13.4v3c5.8,0,10.4,4.7,10.4,10.4s-4.7,10.4-10.4,10.4-10.4-4.7-10.4-10.4,0-.3,0-.4h-3v.4c0,7.4,6,13.4,13.4,13.4s3-.3,4.4-.7c-1.2,2.7-1.8,5.6-1.8,8.7-.1,11.9,9.7,21.7,21.7,21.7h0c10.3,0,18.8,8.4,18.8,18.8s-8.5,18.7-18.8,18.7v3c4.1,0,7.9-1.1,11.2-3.1-.2.9-.3,1.8-.3,2.7,0,7.4,6,13.4,13.4,13.4v-3c-5.8,0-10.4-4.7-10.4-10.4s4.7-10.4,10.4-10.4,10.4,4.7,10.4,10.4,0,.3,0,.4h3v-.4c0-7.4-6-13.4-13.4-13.4Z"/>
        </g>
        <g>
          <rect class="st2" x="133" y="-238.1" width="75.5" height="81.1"/>
          <path class="st3" d="M195.1-154.6c-1.5,0-3,.3-4.4.7,1.2-2.7,1.8-5.6,1.8-8.7,0-12-9.8-21.8-21.7-21.8h0c-10.3,0-18.8-8.4-18.8-18.8s8.4-18.8,18.8-18.8v-3c-4.1,0-7.9,1.1-11.2,3.1.2-.9.3-1.8.3-2.7,0-7.4-6-13.4-13.4-13.4v3c5.8,0,10.4,4.7,10.4,10.4s-4.7,10.4-10.4,10.4-10.4-4.7-10.4-10.4,0-.3,0-.4h-3v.4c0,7.4,6,13.4,13.4,13.4s3-.3,4.4-.7c-1.2,2.7-1.8,5.6-1.8,8.7,0,12,9.8,21.8,21.7,21.8h0c10.3,0,18.8,8.4,18.8,18.8s-8.4,18.8-18.8,18.8v3c4.1,0,7.9-1.1,11.2-3.1-.2.9-.3,1.8-.3,2.7,0,7.4,6,13.4,13.4,13.4v-3c-5.8,0-10.4-4.7-10.4-10.4s4.7-10.4,10.4-10.4,10.4,4.7,10.4,10.4,0,.3,0,.4h3v-.4c0-7.4-6-13.4-13.4-13.4h0Z"/>
        </g>
        <path class="st3" d="M119.6-174.9c-1.5,0-3,.3-4.4.7,1.2-2.7,1.8-5.6,1.8-8.7,0-12-9.8-21.8-21.7-21.8h0c-10.3,0-18.8-8.4-18.8-18.8s8.4-18.8,18.8-18.8v-3c-4.1,0-7.9,1.1-11.2,3.1.2-.9.3-1.8.3-2.7,0-7.4-6-13.4-13.4-13.4v3c5.8,0,10.4,4.7,10.4,10.4s-4.7,10.4-10.4,10.4-10.4-4.7-10.4-10.4,0-.3,0-.4h-3v.4c0,7.4,6,13.4,13.4,13.4s3-.3,4.4-.7c-1.2,2.7-1.8,5.6-1.8,8.7,0,12,9.8,21.8,21.7,21.8h0c10.3,0,18.8,8.4,18.8,18.8s-8.4,18.8-18.8,18.8v3c4,0,7.9-1.1,11.1-3.1-.2.9-.3,1.8-.3,2.7,0,7.4,6,13.4,13.4,13.4v-3c-5.8,0-10.4-4.7-10.4-10.4s4.7-10.4,10.4-10.4,10.4,4.7,10.4,10.4,0,.3,0,.4h3v-.4c0-7.4-6-13.4-13.4-13.4h.1Z"/>
      </g>
    </g>
  </g>
</svg>